M48
;DRILL file {KiCad (5.0.0-3-g5ebb6b6)} date Saturday, 10 November 2018 at 02:34:13
;FORMAT={-:-/ absolute / metric / decimal}
FMAT,2
METRIC,TZ
T1C0.400
T2C0.900
T3C1.000
T4C1.090
T5C1.500
T6C2.000
%
G90
G05
M71
T1
X55.617Y-138.675
X61.468Y-139.446
X62.23Y-86.995
X63.5Y-139.446
X64.008Y-89.408
X66.04Y-90.678
X66.04Y-102.108
X66.04Y-109.728
X68.834Y-141.986
X69.469Y-90.043
X70.993Y-95.377
X72.39Y-135.636
X73.034Y-90.034
X75.565Y-74.93
X76.708Y-76.708
X77.724Y-101.219
X80.264Y-105.156
X80.645Y-76.835
X81.534Y-119.38
X83.439Y-137.795
X83.439Y-145.415
X84.455Y-76.835
X84.709Y-137.795
X84.709Y-145.415
X85.366Y-92.942
X85.725Y-74.93
X85.979Y-137.795
X85.979Y-139.065
X85.979Y-140.335
X85.979Y-142.875
X85.979Y-144.145
X85.979Y-145.415
X87.249Y-137.795
X87.249Y-139.065
X87.249Y-140.335
X87.249Y-142.875
X87.249Y-144.145
X87.249Y-145.415
X90.551Y-137.795
X90.551Y-139.065
X90.551Y-140.335
X90.551Y-141.605
X90.551Y-142.875
X90.551Y-144.145
X90.551Y-145.415
X91.821Y-137.795
X91.821Y-139.065
X91.821Y-140.335
X91.821Y-141.605
X91.821Y-142.875
X91.821Y-144.145
X91.821Y-145.415
X93.091Y-137.795
X93.091Y-139.065
X93.091Y-145.415
X94.361Y-137.795
X94.361Y-139.065
X94.361Y-145.415
X98.05Y-88.652
X104.648Y-135.382
T2
X79.502Y-97.536
X82.042Y-97.536
T3
X63.58Y-83.82
X66.08Y-83.82
X68.58Y-83.82
X76.835Y-128.651
X76.835Y-131.191
X79.375Y-128.651
X79.375Y-131.191
X81.915Y-128.651
X81.915Y-131.191
X84.455Y-128.651
X84.455Y-131.191
X86.995Y-128.651
X86.995Y-131.191
X95.25Y-154.94
X95.25Y-157.48
X95.25Y-160.02
X95.25Y-162.56
X95.25Y-165.1
X97.79Y-154.94
X97.79Y-157.48
X97.79Y-160.02
X97.79Y-162.56
X97.79Y-165.1
X92.79Y-83.82
X95.29Y-83.82
X97.79Y-83.82
X92.71Y-97.79
X95.21Y-97.79
X97.71Y-97.79
X63.5Y-97.79
X66.Y-97.79
X68.5Y-97.79
T4
X78.105Y-85.344
X80.645Y-85.344
X83.185Y-85.344
T5
X75.248Y-155.245
X75.248Y-160.045
X75.248Y-164.833
X80.556Y-155.245
X80.556Y-160.045
X80.564Y-164.838
X85.837Y-164.851
X85.852Y-160.045
X85.865Y-155.245
T6
X57.721Y-112.395
X57.721Y-123.825
X70.421Y-112.395
X70.421Y-123.825
X90.868Y-112.395
X90.868Y-123.825
X103.569Y-112.395
X103.569Y-123.825
T3
X61.31Y-131.715G85X61.31Y-133.715
G05
X63.31Y-128.015G85X65.31Y-128.015
G05
X67.31Y-131.715G85X67.31Y-133.715
G05
T0
M30
