G04 #@! TF.GenerationSoftware,KiCad,Pcbnew,(5.0.0-3-g5ebb6b6)*
G04 #@! TF.CreationDate,2018-11-10T02:34:20+00:00*
G04 #@! TF.ProjectId,555PWMTremolo,35353550574D5472656D6F6C6F2E6B69,rev?*
G04 #@! TF.SameCoordinates,Original*
G04 #@! TF.FileFunction,Copper,L2,Bot,Signal*
G04 #@! TF.FilePolarity,Positive*
%FSLAX46Y46*%
G04 Gerber Fmt 4.6, Leading zero omitted, Abs format (unit mm)*
G04 Created by KiCad (PCBNEW (5.0.0-3-g5ebb6b6)) date Saturday, 10 November 2018 at 02:34:20*
%MOMM*%
%LPD*%
G01*
G04 APERTURE LIST*
G04 #@! TA.AperFunction,Conductor*
%ADD10C,0.100000*%
G04 #@! TD*
G04 #@! TA.AperFunction,SMDPad,CuDef*
%ADD11C,1.150000*%
G04 #@! TD*
G04 #@! TA.AperFunction,ComponentPad*
%ADD12O,3.500000X3.000000*%
G04 #@! TD*
G04 #@! TA.AperFunction,ComponentPad*
%ADD13R,1.800000X1.800000*%
G04 #@! TD*
G04 #@! TA.AperFunction,ComponentPad*
%ADD14C,1.800000*%
G04 #@! TD*
G04 #@! TA.AperFunction,ComponentPad*
%ADD15C,3.000000*%
G04 #@! TD*
G04 #@! TA.AperFunction,ComponentPad*
%ADD16R,3.500000X3.500000*%
G04 #@! TD*
G04 #@! TA.AperFunction,ComponentPad*
%ADD17C,3.500000*%
G04 #@! TD*
G04 #@! TA.AperFunction,WasherPad*
%ADD18C,4.000000*%
G04 #@! TD*
G04 #@! TA.AperFunction,ComponentPad*
%ADD19O,1.700000X1.700000*%
G04 #@! TD*
G04 #@! TA.AperFunction,ComponentPad*
%ADD20R,1.700000X1.700000*%
G04 #@! TD*
G04 #@! TA.AperFunction,ComponentPad*
%ADD21C,2.000000*%
G04 #@! TD*
G04 #@! TA.AperFunction,ViaPad*
%ADD22C,0.800000*%
G04 #@! TD*
G04 #@! TA.AperFunction,Conductor*
%ADD23C,0.750000*%
G04 #@! TD*
G04 #@! TA.AperFunction,Conductor*
%ADD24C,0.250000*%
G04 #@! TD*
G04 #@! TA.AperFunction,Conductor*
%ADD25C,0.500000*%
G04 #@! TD*
G04 #@! TA.AperFunction,Conductor*
%ADD26C,0.254000*%
G04 #@! TD*
G04 APERTURE END LIST*
D10*
G04 #@! TO.N,/GND*
G04 #@! TO.C,C_LPFOPT1*
G36*
X77309505Y-79699204D02*
X77333773Y-79702804D01*
X77357572Y-79708765D01*
X77380671Y-79717030D01*
X77402850Y-79727520D01*
X77423893Y-79740132D01*
X77443599Y-79754747D01*
X77461777Y-79771223D01*
X77478253Y-79789401D01*
X77492868Y-79809107D01*
X77505480Y-79830150D01*
X77515970Y-79852329D01*
X77524235Y-79875428D01*
X77530196Y-79899227D01*
X77533796Y-79923495D01*
X77535000Y-79947999D01*
X77535000Y-80598001D01*
X77533796Y-80622505D01*
X77530196Y-80646773D01*
X77524235Y-80670572D01*
X77515970Y-80693671D01*
X77505480Y-80715850D01*
X77492868Y-80736893D01*
X77478253Y-80756599D01*
X77461777Y-80774777D01*
X77443599Y-80791253D01*
X77423893Y-80805868D01*
X77402850Y-80818480D01*
X77380671Y-80828970D01*
X77357572Y-80837235D01*
X77333773Y-80843196D01*
X77309505Y-80846796D01*
X77285001Y-80848000D01*
X76384999Y-80848000D01*
X76360495Y-80846796D01*
X76336227Y-80843196D01*
X76312428Y-80837235D01*
X76289329Y-80828970D01*
X76267150Y-80818480D01*
X76246107Y-80805868D01*
X76226401Y-80791253D01*
X76208223Y-80774777D01*
X76191747Y-80756599D01*
X76177132Y-80736893D01*
X76164520Y-80715850D01*
X76154030Y-80693671D01*
X76145765Y-80670572D01*
X76139804Y-80646773D01*
X76136204Y-80622505D01*
X76135000Y-80598001D01*
X76135000Y-79947999D01*
X76136204Y-79923495D01*
X76139804Y-79899227D01*
X76145765Y-79875428D01*
X76154030Y-79852329D01*
X76164520Y-79830150D01*
X76177132Y-79809107D01*
X76191747Y-79789401D01*
X76208223Y-79771223D01*
X76226401Y-79754747D01*
X76246107Y-79740132D01*
X76267150Y-79727520D01*
X76289329Y-79717030D01*
X76312428Y-79708765D01*
X76336227Y-79702804D01*
X76360495Y-79699204D01*
X76384999Y-79698000D01*
X77285001Y-79698000D01*
X77309505Y-79699204D01*
X77309505Y-79699204D01*
G37*
D11*
G04 #@! TD*
G04 #@! TO.P,C_LPFOPT1,2*
G04 #@! TO.N,/GND*
X76835000Y-80273000D03*
D10*
G04 #@! TO.N,Net-(C_LPFOPT1-Pad1)*
G04 #@! TO.C,C_LPFOPT1*
G36*
X77309505Y-77649204D02*
X77333773Y-77652804D01*
X77357572Y-77658765D01*
X77380671Y-77667030D01*
X77402850Y-77677520D01*
X77423893Y-77690132D01*
X77443599Y-77704747D01*
X77461777Y-77721223D01*
X77478253Y-77739401D01*
X77492868Y-77759107D01*
X77505480Y-77780150D01*
X77515970Y-77802329D01*
X77524235Y-77825428D01*
X77530196Y-77849227D01*
X77533796Y-77873495D01*
X77535000Y-77897999D01*
X77535000Y-78548001D01*
X77533796Y-78572505D01*
X77530196Y-78596773D01*
X77524235Y-78620572D01*
X77515970Y-78643671D01*
X77505480Y-78665850D01*
X77492868Y-78686893D01*
X77478253Y-78706599D01*
X77461777Y-78724777D01*
X77443599Y-78741253D01*
X77423893Y-78755868D01*
X77402850Y-78768480D01*
X77380671Y-78778970D01*
X77357572Y-78787235D01*
X77333773Y-78793196D01*
X77309505Y-78796796D01*
X77285001Y-78798000D01*
X76384999Y-78798000D01*
X76360495Y-78796796D01*
X76336227Y-78793196D01*
X76312428Y-78787235D01*
X76289329Y-78778970D01*
X76267150Y-78768480D01*
X76246107Y-78755868D01*
X76226401Y-78741253D01*
X76208223Y-78724777D01*
X76191747Y-78706599D01*
X76177132Y-78686893D01*
X76164520Y-78665850D01*
X76154030Y-78643671D01*
X76145765Y-78620572D01*
X76139804Y-78596773D01*
X76136204Y-78572505D01*
X76135000Y-78548001D01*
X76135000Y-77897999D01*
X76136204Y-77873495D01*
X76139804Y-77849227D01*
X76145765Y-77825428D01*
X76154030Y-77802329D01*
X76164520Y-77780150D01*
X76177132Y-77759107D01*
X76191747Y-77739401D01*
X76208223Y-77721223D01*
X76226401Y-77704747D01*
X76246107Y-77690132D01*
X76267150Y-77677520D01*
X76289329Y-77667030D01*
X76312428Y-77658765D01*
X76336227Y-77652804D01*
X76360495Y-77649204D01*
X76384999Y-77648000D01*
X77285001Y-77648000D01*
X77309505Y-77649204D01*
X77309505Y-77649204D01*
G37*
D11*
G04 #@! TD*
G04 #@! TO.P,C_LPFOPT1,1*
G04 #@! TO.N,Net-(C_LPFOPT1-Pad1)*
X76835000Y-78223000D03*
D10*
G04 #@! TO.N,Net-(C_LPFOPT2-Pad1)*
G04 #@! TO.C,C_LPFOPT2*
G36*
X84929505Y-77649204D02*
X84953773Y-77652804D01*
X84977572Y-77658765D01*
X85000671Y-77667030D01*
X85022850Y-77677520D01*
X85043893Y-77690132D01*
X85063599Y-77704747D01*
X85081777Y-77721223D01*
X85098253Y-77739401D01*
X85112868Y-77759107D01*
X85125480Y-77780150D01*
X85135970Y-77802329D01*
X85144235Y-77825428D01*
X85150196Y-77849227D01*
X85153796Y-77873495D01*
X85155000Y-77897999D01*
X85155000Y-78548001D01*
X85153796Y-78572505D01*
X85150196Y-78596773D01*
X85144235Y-78620572D01*
X85135970Y-78643671D01*
X85125480Y-78665850D01*
X85112868Y-78686893D01*
X85098253Y-78706599D01*
X85081777Y-78724777D01*
X85063599Y-78741253D01*
X85043893Y-78755868D01*
X85022850Y-78768480D01*
X85000671Y-78778970D01*
X84977572Y-78787235D01*
X84953773Y-78793196D01*
X84929505Y-78796796D01*
X84905001Y-78798000D01*
X84004999Y-78798000D01*
X83980495Y-78796796D01*
X83956227Y-78793196D01*
X83932428Y-78787235D01*
X83909329Y-78778970D01*
X83887150Y-78768480D01*
X83866107Y-78755868D01*
X83846401Y-78741253D01*
X83828223Y-78724777D01*
X83811747Y-78706599D01*
X83797132Y-78686893D01*
X83784520Y-78665850D01*
X83774030Y-78643671D01*
X83765765Y-78620572D01*
X83759804Y-78596773D01*
X83756204Y-78572505D01*
X83755000Y-78548001D01*
X83755000Y-77897999D01*
X83756204Y-77873495D01*
X83759804Y-77849227D01*
X83765765Y-77825428D01*
X83774030Y-77802329D01*
X83784520Y-77780150D01*
X83797132Y-77759107D01*
X83811747Y-77739401D01*
X83828223Y-77721223D01*
X83846401Y-77704747D01*
X83866107Y-77690132D01*
X83887150Y-77677520D01*
X83909329Y-77667030D01*
X83932428Y-77658765D01*
X83956227Y-77652804D01*
X83980495Y-77649204D01*
X84004999Y-77648000D01*
X84905001Y-77648000D01*
X84929505Y-77649204D01*
X84929505Y-77649204D01*
G37*
D11*
G04 #@! TD*
G04 #@! TO.P,C_LPFOPT2,1*
G04 #@! TO.N,Net-(C_LPFOPT2-Pad1)*
X84455000Y-78223000D03*
D10*
G04 #@! TO.N,/GND*
G04 #@! TO.C,C_LPFOPT2*
G36*
X84929505Y-79699204D02*
X84953773Y-79702804D01*
X84977572Y-79708765D01*
X85000671Y-79717030D01*
X85022850Y-79727520D01*
X85043893Y-79740132D01*
X85063599Y-79754747D01*
X85081777Y-79771223D01*
X85098253Y-79789401D01*
X85112868Y-79809107D01*
X85125480Y-79830150D01*
X85135970Y-79852329D01*
X85144235Y-79875428D01*
X85150196Y-79899227D01*
X85153796Y-79923495D01*
X85155000Y-79947999D01*
X85155000Y-80598001D01*
X85153796Y-80622505D01*
X85150196Y-80646773D01*
X85144235Y-80670572D01*
X85135970Y-80693671D01*
X85125480Y-80715850D01*
X85112868Y-80736893D01*
X85098253Y-80756599D01*
X85081777Y-80774777D01*
X85063599Y-80791253D01*
X85043893Y-80805868D01*
X85022850Y-80818480D01*
X85000671Y-80828970D01*
X84977572Y-80837235D01*
X84953773Y-80843196D01*
X84929505Y-80846796D01*
X84905001Y-80848000D01*
X84004999Y-80848000D01*
X83980495Y-80846796D01*
X83956227Y-80843196D01*
X83932428Y-80837235D01*
X83909329Y-80828970D01*
X83887150Y-80818480D01*
X83866107Y-80805868D01*
X83846401Y-80791253D01*
X83828223Y-80774777D01*
X83811747Y-80756599D01*
X83797132Y-80736893D01*
X83784520Y-80715850D01*
X83774030Y-80693671D01*
X83765765Y-80670572D01*
X83759804Y-80646773D01*
X83756204Y-80622505D01*
X83755000Y-80598001D01*
X83755000Y-79947999D01*
X83756204Y-79923495D01*
X83759804Y-79899227D01*
X83765765Y-79875428D01*
X83774030Y-79852329D01*
X83784520Y-79830150D01*
X83797132Y-79809107D01*
X83811747Y-79789401D01*
X83828223Y-79771223D01*
X83846401Y-79754747D01*
X83866107Y-79740132D01*
X83887150Y-79727520D01*
X83909329Y-79717030D01*
X83932428Y-79708765D01*
X83956227Y-79702804D01*
X83980495Y-79699204D01*
X84004999Y-79698000D01*
X84905001Y-79698000D01*
X84929505Y-79699204D01*
X84929505Y-79699204D01*
G37*
D11*
G04 #@! TD*
G04 #@! TO.P,C_LPFOPT2,2*
G04 #@! TO.N,/GND*
X84455000Y-80273000D03*
D10*
G04 #@! TO.N,Net-(R_LPF1-Pad2)*
G04 #@! TO.C,R_LPF1*
G36*
X81119505Y-77649204D02*
X81143773Y-77652804D01*
X81167572Y-77658765D01*
X81190671Y-77667030D01*
X81212850Y-77677520D01*
X81233893Y-77690132D01*
X81253599Y-77704747D01*
X81271777Y-77721223D01*
X81288253Y-77739401D01*
X81302868Y-77759107D01*
X81315480Y-77780150D01*
X81325970Y-77802329D01*
X81334235Y-77825428D01*
X81340196Y-77849227D01*
X81343796Y-77873495D01*
X81345000Y-77897999D01*
X81345000Y-78548001D01*
X81343796Y-78572505D01*
X81340196Y-78596773D01*
X81334235Y-78620572D01*
X81325970Y-78643671D01*
X81315480Y-78665850D01*
X81302868Y-78686893D01*
X81288253Y-78706599D01*
X81271777Y-78724777D01*
X81253599Y-78741253D01*
X81233893Y-78755868D01*
X81212850Y-78768480D01*
X81190671Y-78778970D01*
X81167572Y-78787235D01*
X81143773Y-78793196D01*
X81119505Y-78796796D01*
X81095001Y-78798000D01*
X80194999Y-78798000D01*
X80170495Y-78796796D01*
X80146227Y-78793196D01*
X80122428Y-78787235D01*
X80099329Y-78778970D01*
X80077150Y-78768480D01*
X80056107Y-78755868D01*
X80036401Y-78741253D01*
X80018223Y-78724777D01*
X80001747Y-78706599D01*
X79987132Y-78686893D01*
X79974520Y-78665850D01*
X79964030Y-78643671D01*
X79955765Y-78620572D01*
X79949804Y-78596773D01*
X79946204Y-78572505D01*
X79945000Y-78548001D01*
X79945000Y-77897999D01*
X79946204Y-77873495D01*
X79949804Y-77849227D01*
X79955765Y-77825428D01*
X79964030Y-77802329D01*
X79974520Y-77780150D01*
X79987132Y-77759107D01*
X80001747Y-77739401D01*
X80018223Y-77721223D01*
X80036401Y-77704747D01*
X80056107Y-77690132D01*
X80077150Y-77677520D01*
X80099329Y-77667030D01*
X80122428Y-77658765D01*
X80146227Y-77652804D01*
X80170495Y-77649204D01*
X80194999Y-77648000D01*
X81095001Y-77648000D01*
X81119505Y-77649204D01*
X81119505Y-77649204D01*
G37*
D11*
G04 #@! TD*
G04 #@! TO.P,R_LPF1,2*
G04 #@! TO.N,Net-(R_LPF1-Pad2)*
X80645000Y-78223000D03*
D10*
G04 #@! TO.N,Net-(C_LPFOPT1-Pad1)*
G04 #@! TO.C,R_LPF1*
G36*
X81119505Y-79699204D02*
X81143773Y-79702804D01*
X81167572Y-79708765D01*
X81190671Y-79717030D01*
X81212850Y-79727520D01*
X81233893Y-79740132D01*
X81253599Y-79754747D01*
X81271777Y-79771223D01*
X81288253Y-79789401D01*
X81302868Y-79809107D01*
X81315480Y-79830150D01*
X81325970Y-79852329D01*
X81334235Y-79875428D01*
X81340196Y-79899227D01*
X81343796Y-79923495D01*
X81345000Y-79947999D01*
X81345000Y-80598001D01*
X81343796Y-80622505D01*
X81340196Y-80646773D01*
X81334235Y-80670572D01*
X81325970Y-80693671D01*
X81315480Y-80715850D01*
X81302868Y-80736893D01*
X81288253Y-80756599D01*
X81271777Y-80774777D01*
X81253599Y-80791253D01*
X81233893Y-80805868D01*
X81212850Y-80818480D01*
X81190671Y-80828970D01*
X81167572Y-80837235D01*
X81143773Y-80843196D01*
X81119505Y-80846796D01*
X81095001Y-80848000D01*
X80194999Y-80848000D01*
X80170495Y-80846796D01*
X80146227Y-80843196D01*
X80122428Y-80837235D01*
X80099329Y-80828970D01*
X80077150Y-80818480D01*
X80056107Y-80805868D01*
X80036401Y-80791253D01*
X80018223Y-80774777D01*
X80001747Y-80756599D01*
X79987132Y-80736893D01*
X79974520Y-80715850D01*
X79964030Y-80693671D01*
X79955765Y-80670572D01*
X79949804Y-80646773D01*
X79946204Y-80622505D01*
X79945000Y-80598001D01*
X79945000Y-79947999D01*
X79946204Y-79923495D01*
X79949804Y-79899227D01*
X79955765Y-79875428D01*
X79964030Y-79852329D01*
X79974520Y-79830150D01*
X79987132Y-79809107D01*
X80001747Y-79789401D01*
X80018223Y-79771223D01*
X80036401Y-79754747D01*
X80056107Y-79740132D01*
X80077150Y-79727520D01*
X80099329Y-79717030D01*
X80122428Y-79708765D01*
X80146227Y-79702804D01*
X80170495Y-79699204D01*
X80194999Y-79698000D01*
X81095001Y-79698000D01*
X81119505Y-79699204D01*
X81119505Y-79699204D01*
G37*
D11*
G04 #@! TD*
G04 #@! TO.P,R_LPF1,1*
G04 #@! TO.N,Net-(C_LPFOPT1-Pad1)*
X80645000Y-80273000D03*
D12*
G04 #@! TO.P,SW_EN1,1*
G04 #@! TO.N,/555PWMTremolo_3PDT/3PDT_1_INT*
X85836760Y-164851080D03*
G04 #@! TO.P,SW_EN1,4*
G04 #@! TO.N,/555PWMTremolo_3PDT/3PDT_4_INT*
X80563720Y-164838380D03*
G04 #@! TO.P,SW_EN1,7*
G04 #@! TO.N,/555PWMTremolo_3PDT/3PDT_7_INT*
X75247500Y-164833300D03*
G04 #@! TO.P,SW_EN1,2*
G04 #@! TO.N,/555PWMTremolo_3PDT/3PDT_2_INT*
X85852000Y-160045400D03*
G04 #@! TO.P,SW_EN1,5*
G04 #@! TO.N,/555PWMTremolo_3PDT/3PDT_5_INT*
X80556100Y-160045400D03*
G04 #@! TO.P,SW_EN1,8*
G04 #@! TO.N,/555PWMTremolo_3PDT/3PDT_8_INT*
X75247500Y-160045400D03*
G04 #@! TO.P,SW_EN1,3*
G04 #@! TO.N,/555PWMTremolo_3PDT/3PDT_3_INT*
X85864700Y-155244800D03*
G04 #@! TO.P,SW_EN1,6*
G04 #@! TO.N,/555PWMTremolo_3PDT/3PDT_6_INT*
X80556100Y-155244800D03*
G04 #@! TO.P,SW_EN1,9*
G04 #@! TO.N,/555PWMTremolo_3PDT/3PDT_9_INT*
X75247500Y-155244800D03*
G04 #@! TD*
D10*
G04 #@! TO.N,Net-(P_VOL1-Pad1)*
G04 #@! TO.C,R_GAIN1*
G36*
X82509505Y-104457204D02*
X82533773Y-104460804D01*
X82557572Y-104466765D01*
X82580671Y-104475030D01*
X82602850Y-104485520D01*
X82623893Y-104498132D01*
X82643599Y-104512747D01*
X82661777Y-104529223D01*
X82678253Y-104547401D01*
X82692868Y-104567107D01*
X82705480Y-104588150D01*
X82715970Y-104610329D01*
X82724235Y-104633428D01*
X82730196Y-104657227D01*
X82733796Y-104681495D01*
X82735000Y-104705999D01*
X82735000Y-105606001D01*
X82733796Y-105630505D01*
X82730196Y-105654773D01*
X82724235Y-105678572D01*
X82715970Y-105701671D01*
X82705480Y-105723850D01*
X82692868Y-105744893D01*
X82678253Y-105764599D01*
X82661777Y-105782777D01*
X82643599Y-105799253D01*
X82623893Y-105813868D01*
X82602850Y-105826480D01*
X82580671Y-105836970D01*
X82557572Y-105845235D01*
X82533773Y-105851196D01*
X82509505Y-105854796D01*
X82485001Y-105856000D01*
X81834999Y-105856000D01*
X81810495Y-105854796D01*
X81786227Y-105851196D01*
X81762428Y-105845235D01*
X81739329Y-105836970D01*
X81717150Y-105826480D01*
X81696107Y-105813868D01*
X81676401Y-105799253D01*
X81658223Y-105782777D01*
X81641747Y-105764599D01*
X81627132Y-105744893D01*
X81614520Y-105723850D01*
X81604030Y-105701671D01*
X81595765Y-105678572D01*
X81589804Y-105654773D01*
X81586204Y-105630505D01*
X81585000Y-105606001D01*
X81585000Y-104705999D01*
X81586204Y-104681495D01*
X81589804Y-104657227D01*
X81595765Y-104633428D01*
X81604030Y-104610329D01*
X81614520Y-104588150D01*
X81627132Y-104567107D01*
X81641747Y-104547401D01*
X81658223Y-104529223D01*
X81676401Y-104512747D01*
X81696107Y-104498132D01*
X81717150Y-104485520D01*
X81739329Y-104475030D01*
X81762428Y-104466765D01*
X81786227Y-104460804D01*
X81810495Y-104457204D01*
X81834999Y-104456000D01*
X82485001Y-104456000D01*
X82509505Y-104457204D01*
X82509505Y-104457204D01*
G37*
D11*
G04 #@! TD*
G04 #@! TO.P,R_GAIN1,1*
G04 #@! TO.N,Net-(P_VOL1-Pad1)*
X82160000Y-105156000D03*
D10*
G04 #@! TO.N,/GND*
G04 #@! TO.C,R_GAIN1*
G36*
X84559505Y-104457204D02*
X84583773Y-104460804D01*
X84607572Y-104466765D01*
X84630671Y-104475030D01*
X84652850Y-104485520D01*
X84673893Y-104498132D01*
X84693599Y-104512747D01*
X84711777Y-104529223D01*
X84728253Y-104547401D01*
X84742868Y-104567107D01*
X84755480Y-104588150D01*
X84765970Y-104610329D01*
X84774235Y-104633428D01*
X84780196Y-104657227D01*
X84783796Y-104681495D01*
X84785000Y-104705999D01*
X84785000Y-105606001D01*
X84783796Y-105630505D01*
X84780196Y-105654773D01*
X84774235Y-105678572D01*
X84765970Y-105701671D01*
X84755480Y-105723850D01*
X84742868Y-105744893D01*
X84728253Y-105764599D01*
X84711777Y-105782777D01*
X84693599Y-105799253D01*
X84673893Y-105813868D01*
X84652850Y-105826480D01*
X84630671Y-105836970D01*
X84607572Y-105845235D01*
X84583773Y-105851196D01*
X84559505Y-105854796D01*
X84535001Y-105856000D01*
X83884999Y-105856000D01*
X83860495Y-105854796D01*
X83836227Y-105851196D01*
X83812428Y-105845235D01*
X83789329Y-105836970D01*
X83767150Y-105826480D01*
X83746107Y-105813868D01*
X83726401Y-105799253D01*
X83708223Y-105782777D01*
X83691747Y-105764599D01*
X83677132Y-105744893D01*
X83664520Y-105723850D01*
X83654030Y-105701671D01*
X83645765Y-105678572D01*
X83639804Y-105654773D01*
X83636204Y-105630505D01*
X83635000Y-105606001D01*
X83635000Y-104705999D01*
X83636204Y-104681495D01*
X83639804Y-104657227D01*
X83645765Y-104633428D01*
X83654030Y-104610329D01*
X83664520Y-104588150D01*
X83677132Y-104567107D01*
X83691747Y-104547401D01*
X83708223Y-104529223D01*
X83726401Y-104512747D01*
X83746107Y-104498132D01*
X83767150Y-104485520D01*
X83789329Y-104475030D01*
X83812428Y-104466765D01*
X83836227Y-104460804D01*
X83860495Y-104457204D01*
X83884999Y-104456000D01*
X84535001Y-104456000D01*
X84559505Y-104457204D01*
X84559505Y-104457204D01*
G37*
D11*
G04 #@! TD*
G04 #@! TO.P,R_GAIN1,2*
G04 #@! TO.N,/GND*
X84210000Y-105156000D03*
D13*
G04 #@! TO.P,D_LED1,1*
G04 #@! TO.N,Net-(C_LPFOPT2-Pad1)*
X82042000Y-97536000D03*
D14*
G04 #@! TO.P,D_LED1,2*
G04 #@! TO.N,Net-(C_LPFOPT1-Pad1)*
X79502000Y-97536000D03*
G04 #@! TD*
D10*
G04 #@! TO.N,Net-(C_OSC1-Pad1)*
G04 #@! TO.C,C_OSC1*
G36*
X71333505Y-89344204D02*
X71357773Y-89347804D01*
X71381572Y-89353765D01*
X71404671Y-89362030D01*
X71426850Y-89372520D01*
X71447893Y-89385132D01*
X71467599Y-89399747D01*
X71485777Y-89416223D01*
X71502253Y-89434401D01*
X71516868Y-89454107D01*
X71529480Y-89475150D01*
X71539970Y-89497329D01*
X71548235Y-89520428D01*
X71554196Y-89544227D01*
X71557796Y-89568495D01*
X71559000Y-89592999D01*
X71559000Y-90493001D01*
X71557796Y-90517505D01*
X71554196Y-90541773D01*
X71548235Y-90565572D01*
X71539970Y-90588671D01*
X71529480Y-90610850D01*
X71516868Y-90631893D01*
X71502253Y-90651599D01*
X71485777Y-90669777D01*
X71467599Y-90686253D01*
X71447893Y-90700868D01*
X71426850Y-90713480D01*
X71404671Y-90723970D01*
X71381572Y-90732235D01*
X71357773Y-90738196D01*
X71333505Y-90741796D01*
X71309001Y-90743000D01*
X70658999Y-90743000D01*
X70634495Y-90741796D01*
X70610227Y-90738196D01*
X70586428Y-90732235D01*
X70563329Y-90723970D01*
X70541150Y-90713480D01*
X70520107Y-90700868D01*
X70500401Y-90686253D01*
X70482223Y-90669777D01*
X70465747Y-90651599D01*
X70451132Y-90631893D01*
X70438520Y-90610850D01*
X70428030Y-90588671D01*
X70419765Y-90565572D01*
X70413804Y-90541773D01*
X70410204Y-90517505D01*
X70409000Y-90493001D01*
X70409000Y-89592999D01*
X70410204Y-89568495D01*
X70413804Y-89544227D01*
X70419765Y-89520428D01*
X70428030Y-89497329D01*
X70438520Y-89475150D01*
X70451132Y-89454107D01*
X70465747Y-89434401D01*
X70482223Y-89416223D01*
X70500401Y-89399747D01*
X70520107Y-89385132D01*
X70541150Y-89372520D01*
X70563329Y-89362030D01*
X70586428Y-89353765D01*
X70610227Y-89347804D01*
X70634495Y-89344204D01*
X70658999Y-89343000D01*
X71309001Y-89343000D01*
X71333505Y-89344204D01*
X71333505Y-89344204D01*
G37*
D11*
G04 #@! TD*
G04 #@! TO.P,C_OSC1,1*
G04 #@! TO.N,Net-(C_OSC1-Pad1)*
X70984000Y-90043000D03*
D10*
G04 #@! TO.N,/GND*
G04 #@! TO.C,C_OSC1*
G36*
X73383505Y-89344204D02*
X73407773Y-89347804D01*
X73431572Y-89353765D01*
X73454671Y-89362030D01*
X73476850Y-89372520D01*
X73497893Y-89385132D01*
X73517599Y-89399747D01*
X73535777Y-89416223D01*
X73552253Y-89434401D01*
X73566868Y-89454107D01*
X73579480Y-89475150D01*
X73589970Y-89497329D01*
X73598235Y-89520428D01*
X73604196Y-89544227D01*
X73607796Y-89568495D01*
X73609000Y-89592999D01*
X73609000Y-90493001D01*
X73607796Y-90517505D01*
X73604196Y-90541773D01*
X73598235Y-90565572D01*
X73589970Y-90588671D01*
X73579480Y-90610850D01*
X73566868Y-90631893D01*
X73552253Y-90651599D01*
X73535777Y-90669777D01*
X73517599Y-90686253D01*
X73497893Y-90700868D01*
X73476850Y-90713480D01*
X73454671Y-90723970D01*
X73431572Y-90732235D01*
X73407773Y-90738196D01*
X73383505Y-90741796D01*
X73359001Y-90743000D01*
X72708999Y-90743000D01*
X72684495Y-90741796D01*
X72660227Y-90738196D01*
X72636428Y-90732235D01*
X72613329Y-90723970D01*
X72591150Y-90713480D01*
X72570107Y-90700868D01*
X72550401Y-90686253D01*
X72532223Y-90669777D01*
X72515747Y-90651599D01*
X72501132Y-90631893D01*
X72488520Y-90610850D01*
X72478030Y-90588671D01*
X72469765Y-90565572D01*
X72463804Y-90541773D01*
X72460204Y-90517505D01*
X72459000Y-90493001D01*
X72459000Y-89592999D01*
X72460204Y-89568495D01*
X72463804Y-89544227D01*
X72469765Y-89520428D01*
X72478030Y-89497329D01*
X72488520Y-89475150D01*
X72501132Y-89454107D01*
X72515747Y-89434401D01*
X72532223Y-89416223D01*
X72550401Y-89399747D01*
X72570107Y-89385132D01*
X72591150Y-89372520D01*
X72613329Y-89362030D01*
X72636428Y-89353765D01*
X72660227Y-89347804D01*
X72684495Y-89344204D01*
X72708999Y-89343000D01*
X73359001Y-89343000D01*
X73383505Y-89344204D01*
X73383505Y-89344204D01*
G37*
D11*
G04 #@! TD*
G04 #@! TO.P,C_OSC1,2*
G04 #@! TO.N,/GND*
X73034000Y-90043000D03*
D15*
G04 #@! TO.P,J_IN1,4*
G04 #@! TO.N,/GND*
X103568500Y-123825000D03*
G04 #@! TO.P,J_IN1,3*
X103568500Y-112395000D03*
G04 #@! TO.P,J_IN1,2*
X90868500Y-112395000D03*
G04 #@! TO.P,J_IN1,1*
G04 #@! TO.N,/3PDT_2_EXT*
X90868500Y-123825000D03*
G04 #@! TD*
D16*
G04 #@! TO.P,J_PWR1,1*
G04 #@! TO.N,+9V*
X67310000Y-132715000D03*
D10*
G04 #@! TD*
G04 #@! TO.N,/GND*
G04 #@! TO.C,J_PWR1*
G36*
X62133513Y-130968611D02*
X62206318Y-130979411D01*
X62277714Y-130997295D01*
X62347013Y-131022090D01*
X62413548Y-131053559D01*
X62476678Y-131091398D01*
X62535795Y-131135242D01*
X62590330Y-131184670D01*
X62639758Y-131239205D01*
X62683602Y-131298322D01*
X62721441Y-131361452D01*
X62752910Y-131427987D01*
X62777705Y-131497286D01*
X62795589Y-131568682D01*
X62806389Y-131641487D01*
X62810000Y-131715000D01*
X62810000Y-133715000D01*
X62806389Y-133788513D01*
X62795589Y-133861318D01*
X62777705Y-133932714D01*
X62752910Y-134002013D01*
X62721441Y-134068548D01*
X62683602Y-134131678D01*
X62639758Y-134190795D01*
X62590330Y-134245330D01*
X62535795Y-134294758D01*
X62476678Y-134338602D01*
X62413548Y-134376441D01*
X62347013Y-134407910D01*
X62277714Y-134432705D01*
X62206318Y-134450589D01*
X62133513Y-134461389D01*
X62060000Y-134465000D01*
X60560000Y-134465000D01*
X60486487Y-134461389D01*
X60413682Y-134450589D01*
X60342286Y-134432705D01*
X60272987Y-134407910D01*
X60206452Y-134376441D01*
X60143322Y-134338602D01*
X60084205Y-134294758D01*
X60029670Y-134245330D01*
X59980242Y-134190795D01*
X59936398Y-134131678D01*
X59898559Y-134068548D01*
X59867090Y-134002013D01*
X59842295Y-133932714D01*
X59824411Y-133861318D01*
X59813611Y-133788513D01*
X59810000Y-133715000D01*
X59810000Y-131715000D01*
X59813611Y-131641487D01*
X59824411Y-131568682D01*
X59842295Y-131497286D01*
X59867090Y-131427987D01*
X59898559Y-131361452D01*
X59936398Y-131298322D01*
X59980242Y-131239205D01*
X60029670Y-131184670D01*
X60084205Y-131135242D01*
X60143322Y-131091398D01*
X60206452Y-131053559D01*
X60272987Y-131022090D01*
X60342286Y-130997295D01*
X60413682Y-130979411D01*
X60486487Y-130968611D01*
X60560000Y-130965000D01*
X62060000Y-130965000D01*
X62133513Y-130968611D01*
X62133513Y-130968611D01*
G37*
D15*
G04 #@! TO.P,J_PWR1,2*
G04 #@! TO.N,/GND*
X61310000Y-132715000D03*
D10*
G04 #@! TD*
G04 #@! TO.N,N/C*
G04 #@! TO.C,J_PWR1*
G36*
X65270765Y-126269213D02*
X65355704Y-126281813D01*
X65438999Y-126302677D01*
X65519848Y-126331605D01*
X65597472Y-126368319D01*
X65671124Y-126412464D01*
X65740094Y-126463616D01*
X65803718Y-126521282D01*
X65861384Y-126584906D01*
X65912536Y-126653876D01*
X65956681Y-126727528D01*
X65993395Y-126805152D01*
X66022323Y-126886001D01*
X66043187Y-126969296D01*
X66055787Y-127054235D01*
X66060000Y-127140000D01*
X66060000Y-128890000D01*
X66055787Y-128975765D01*
X66043187Y-129060704D01*
X66022323Y-129143999D01*
X65993395Y-129224848D01*
X65956681Y-129302472D01*
X65912536Y-129376124D01*
X65861384Y-129445094D01*
X65803718Y-129508718D01*
X65740094Y-129566384D01*
X65671124Y-129617536D01*
X65597472Y-129661681D01*
X65519848Y-129698395D01*
X65438999Y-129727323D01*
X65355704Y-129748187D01*
X65270765Y-129760787D01*
X65185000Y-129765000D01*
X63435000Y-129765000D01*
X63349235Y-129760787D01*
X63264296Y-129748187D01*
X63181001Y-129727323D01*
X63100152Y-129698395D01*
X63022528Y-129661681D01*
X62948876Y-129617536D01*
X62879906Y-129566384D01*
X62816282Y-129508718D01*
X62758616Y-129445094D01*
X62707464Y-129376124D01*
X62663319Y-129302472D01*
X62626605Y-129224848D01*
X62597677Y-129143999D01*
X62576813Y-129060704D01*
X62564213Y-128975765D01*
X62560000Y-128890000D01*
X62560000Y-127140000D01*
X62564213Y-127054235D01*
X62576813Y-126969296D01*
X62597677Y-126886001D01*
X62626605Y-126805152D01*
X62663319Y-126727528D01*
X62707464Y-126653876D01*
X62758616Y-126584906D01*
X62816282Y-126521282D01*
X62879906Y-126463616D01*
X62948876Y-126412464D01*
X63022528Y-126368319D01*
X63100152Y-126331605D01*
X63181001Y-126302677D01*
X63264296Y-126281813D01*
X63349235Y-126269213D01*
X63435000Y-126265000D01*
X65185000Y-126265000D01*
X65270765Y-126269213D01*
X65270765Y-126269213D01*
G37*
D17*
G04 #@! TO.P,J_PWR1,3*
G04 #@! TO.N,N/C*
X64310000Y-128015000D03*
G04 #@! TD*
D14*
G04 #@! TO.P,P_DEPTH1,3*
G04 #@! TO.N,/555PWMTremolo_Clock/CLK_OUT*
X92790000Y-83820000D03*
G04 #@! TO.P,P_DEPTH1,2*
G04 #@! TO.N,Net-(P_DEPTH1-Pad2)*
X95290000Y-83820000D03*
G04 #@! TO.P,P_DEPTH1,1*
G04 #@! TO.N,Net-(P_DEPTH1-Pad1)*
X97790000Y-83820000D03*
D18*
G04 #@! TO.P,P_DEPTH1,*
G04 #@! TO.N,*
X90540000Y-76320000D03*
X100040000Y-76320000D03*
G04 #@! TD*
G04 #@! TO.P,P_VOL1,*
G04 #@! TO.N,*
X90460000Y-105290000D03*
X99960000Y-105290000D03*
D14*
G04 #@! TO.P,P_VOL1,1*
G04 #@! TO.N,Net-(P_VOL1-Pad1)*
X92710000Y-97790000D03*
G04 #@! TO.P,P_VOL1,2*
X95210000Y-97790000D03*
G04 #@! TO.P,P_VOL1,3*
G04 #@! TO.N,/3PDT_6_EXT*
X97710000Y-97790000D03*
G04 #@! TD*
D18*
G04 #@! TO.P,P_OSCOFF1,*
G04 #@! TO.N,*
X61250000Y-105290000D03*
X70750000Y-105290000D03*
D14*
G04 #@! TO.P,P_OSCOFF1,1*
G04 #@! TO.N,Net-(P_OSCOFF1-Pad1)*
X63500000Y-97790000D03*
G04 #@! TO.P,P_OSCOFF1,2*
X66000000Y-97790000D03*
G04 #@! TO.P,P_OSCOFF1,3*
G04 #@! TO.N,Net-(P_OSCOFF1-Pad3)*
X68500000Y-97790000D03*
G04 #@! TD*
G04 #@! TO.P,P_OSCON1,3*
G04 #@! TO.N,Net-(P_OSCOFF1-Pad3)*
X63580000Y-83820000D03*
G04 #@! TO.P,P_OSCON1,2*
G04 #@! TO.N,Net-(P_OSCON1-Pad1)*
X66080000Y-83820000D03*
G04 #@! TO.P,P_OSCON1,1*
X68580000Y-83820000D03*
D18*
G04 #@! TO.P,P_OSCON1,*
G04 #@! TO.N,*
X61330000Y-76320000D03*
X70830000Y-76320000D03*
G04 #@! TD*
D19*
G04 #@! TO.P,J_AUXTOMAIN1,10*
G04 #@! TO.N,N/C*
X97790000Y-154940000D03*
G04 #@! TO.P,J_AUXTOMAIN1,9*
G04 #@! TO.N,/555PWMTremolo_3PDT/3PDT_9_INT*
X97790000Y-157480000D03*
G04 #@! TO.P,J_AUXTOMAIN1,8*
G04 #@! TO.N,/555PWMTremolo_3PDT/3PDT_8_INT*
X97790000Y-160020000D03*
G04 #@! TO.P,J_AUXTOMAIN1,7*
G04 #@! TO.N,/555PWMTremolo_3PDT/3PDT_7_INT*
X97790000Y-162560000D03*
G04 #@! TO.P,J_AUXTOMAIN1,6*
G04 #@! TO.N,/555PWMTremolo_3PDT/3PDT_6_INT*
X97790000Y-165100000D03*
G04 #@! TO.P,J_AUXTOMAIN1,5*
G04 #@! TO.N,/555PWMTremolo_3PDT/3PDT_5_INT*
X95250000Y-165100000D03*
G04 #@! TO.P,J_AUXTOMAIN1,4*
G04 #@! TO.N,/555PWMTremolo_3PDT/3PDT_4_INT*
X95250000Y-162560000D03*
G04 #@! TO.P,J_AUXTOMAIN1,3*
G04 #@! TO.N,/555PWMTremolo_3PDT/3PDT_3_INT*
X95250000Y-160020000D03*
G04 #@! TO.P,J_AUXTOMAIN1,2*
G04 #@! TO.N,/555PWMTremolo_3PDT/3PDT_2_INT*
X95250000Y-157480000D03*
D20*
G04 #@! TO.P,J_AUXTOMAIN1,1*
G04 #@! TO.N,/555PWMTremolo_3PDT/3PDT_1_INT*
X95250000Y-154940000D03*
G04 #@! TD*
D15*
G04 #@! TO.P,J_OUT1,1*
G04 #@! TO.N,/3PDT_5_EXT*
X70421500Y-112395000D03*
G04 #@! TO.P,J_OUT1,2*
G04 #@! TO.N,/GND*
X70421500Y-123825000D03*
G04 #@! TO.P,J_OUT1,3*
X57721500Y-123825000D03*
G04 #@! TO.P,J_OUT1,4*
X57721500Y-112395000D03*
G04 #@! TD*
D10*
G04 #@! TO.N,/3PDT_8_EXT*
G04 #@! TO.C,R_OSCLIMIT1*
G36*
X66514505Y-105353204D02*
X66538773Y-105356804D01*
X66562572Y-105362765D01*
X66585671Y-105371030D01*
X66607850Y-105381520D01*
X66628893Y-105394132D01*
X66648599Y-105408747D01*
X66666777Y-105425223D01*
X66683253Y-105443401D01*
X66697868Y-105463107D01*
X66710480Y-105484150D01*
X66720970Y-105506329D01*
X66729235Y-105529428D01*
X66735196Y-105553227D01*
X66738796Y-105577495D01*
X66740000Y-105601999D01*
X66740000Y-106252001D01*
X66738796Y-106276505D01*
X66735196Y-106300773D01*
X66729235Y-106324572D01*
X66720970Y-106347671D01*
X66710480Y-106369850D01*
X66697868Y-106390893D01*
X66683253Y-106410599D01*
X66666777Y-106428777D01*
X66648599Y-106445253D01*
X66628893Y-106459868D01*
X66607850Y-106472480D01*
X66585671Y-106482970D01*
X66562572Y-106491235D01*
X66538773Y-106497196D01*
X66514505Y-106500796D01*
X66490001Y-106502000D01*
X65589999Y-106502000D01*
X65565495Y-106500796D01*
X65541227Y-106497196D01*
X65517428Y-106491235D01*
X65494329Y-106482970D01*
X65472150Y-106472480D01*
X65451107Y-106459868D01*
X65431401Y-106445253D01*
X65413223Y-106428777D01*
X65396747Y-106410599D01*
X65382132Y-106390893D01*
X65369520Y-106369850D01*
X65359030Y-106347671D01*
X65350765Y-106324572D01*
X65344804Y-106300773D01*
X65341204Y-106276505D01*
X65340000Y-106252001D01*
X65340000Y-105601999D01*
X65341204Y-105577495D01*
X65344804Y-105553227D01*
X65350765Y-105529428D01*
X65359030Y-105506329D01*
X65369520Y-105484150D01*
X65382132Y-105463107D01*
X65396747Y-105443401D01*
X65413223Y-105425223D01*
X65431401Y-105408747D01*
X65451107Y-105394132D01*
X65472150Y-105381520D01*
X65494329Y-105371030D01*
X65517428Y-105362765D01*
X65541227Y-105356804D01*
X65565495Y-105353204D01*
X65589999Y-105352000D01*
X66490001Y-105352000D01*
X66514505Y-105353204D01*
X66514505Y-105353204D01*
G37*
D11*
G04 #@! TD*
G04 #@! TO.P,R_OSCLIMIT1,1*
G04 #@! TO.N,/3PDT_8_EXT*
X66040000Y-105927000D03*
D10*
G04 #@! TO.N,Net-(C_BP1-Pad1)*
G04 #@! TO.C,R_OSCLIMIT1*
G36*
X66514505Y-103303204D02*
X66538773Y-103306804D01*
X66562572Y-103312765D01*
X66585671Y-103321030D01*
X66607850Y-103331520D01*
X66628893Y-103344132D01*
X66648599Y-103358747D01*
X66666777Y-103375223D01*
X66683253Y-103393401D01*
X66697868Y-103413107D01*
X66710480Y-103434150D01*
X66720970Y-103456329D01*
X66729235Y-103479428D01*
X66735196Y-103503227D01*
X66738796Y-103527495D01*
X66740000Y-103551999D01*
X66740000Y-104202001D01*
X66738796Y-104226505D01*
X66735196Y-104250773D01*
X66729235Y-104274572D01*
X66720970Y-104297671D01*
X66710480Y-104319850D01*
X66697868Y-104340893D01*
X66683253Y-104360599D01*
X66666777Y-104378777D01*
X66648599Y-104395253D01*
X66628893Y-104409868D01*
X66607850Y-104422480D01*
X66585671Y-104432970D01*
X66562572Y-104441235D01*
X66538773Y-104447196D01*
X66514505Y-104450796D01*
X66490001Y-104452000D01*
X65589999Y-104452000D01*
X65565495Y-104450796D01*
X65541227Y-104447196D01*
X65517428Y-104441235D01*
X65494329Y-104432970D01*
X65472150Y-104422480D01*
X65451107Y-104409868D01*
X65431401Y-104395253D01*
X65413223Y-104378777D01*
X65396747Y-104360599D01*
X65382132Y-104340893D01*
X65369520Y-104319850D01*
X65359030Y-104297671D01*
X65350765Y-104274572D01*
X65344804Y-104250773D01*
X65341204Y-104226505D01*
X65340000Y-104202001D01*
X65340000Y-103551999D01*
X65341204Y-103527495D01*
X65344804Y-103503227D01*
X65350765Y-103479428D01*
X65359030Y-103456329D01*
X65369520Y-103434150D01*
X65382132Y-103413107D01*
X65396747Y-103393401D01*
X65413223Y-103375223D01*
X65431401Y-103358747D01*
X65451107Y-103344132D01*
X65472150Y-103331520D01*
X65494329Y-103321030D01*
X65517428Y-103312765D01*
X65541227Y-103306804D01*
X65565495Y-103303204D01*
X65589999Y-103302000D01*
X66490001Y-103302000D01*
X66514505Y-103303204D01*
X66514505Y-103303204D01*
G37*
D11*
G04 #@! TD*
G04 #@! TO.P,R_OSCLIMIT1,2*
G04 #@! TO.N,Net-(C_BP1-Pad1)*
X66040000Y-103877000D03*
D21*
G04 #@! TO.P,SW_ATTACK1,2*
G04 #@! TO.N,Net-(C_LPFOPT2-Pad1)*
X80645000Y-85344000D03*
G04 #@! TO.P,SW_ATTACK1,3*
G04 #@! TO.N,Net-(CP_SLOW1-Pad1)*
X83185000Y-85344000D03*
G04 #@! TO.P,SW_ATTACK1,1*
G04 #@! TO.N,Net-(CP_FAST1-Pad1)*
X78105000Y-85344000D03*
G04 #@! TD*
D20*
G04 #@! TO.P,J_MAINTOAUX1,1*
G04 #@! TO.N,/3PDT_4_EXT*
X86995000Y-128651000D03*
D19*
G04 #@! TO.P,J_MAINTOAUX1,2*
G04 #@! TO.N,/3PDT_2_EXT*
X84455000Y-128651000D03*
G04 #@! TO.P,J_MAINTOAUX1,3*
G04 #@! TO.N,/3PDT_3_EXT*
X81915000Y-128651000D03*
G04 #@! TO.P,J_MAINTOAUX1,4*
G04 #@! TO.N,/3PDT_4_EXT*
X79375000Y-128651000D03*
G04 #@! TO.P,J_MAINTOAUX1,5*
G04 #@! TO.N,/3PDT_5_EXT*
X76835000Y-128651000D03*
G04 #@! TO.P,J_MAINTOAUX1,6*
G04 #@! TO.N,/3PDT_6_EXT*
X76835000Y-131191000D03*
G04 #@! TO.P,J_MAINTOAUX1,7*
G04 #@! TO.N,N/C*
X79375000Y-131191000D03*
G04 #@! TO.P,J_MAINTOAUX1,8*
G04 #@! TO.N,/3PDT_8_EXT*
X81915000Y-131191000D03*
G04 #@! TO.P,J_MAINTOAUX1,9*
G04 #@! TO.N,+5V*
X84455000Y-131191000D03*
G04 #@! TO.P,J_MAINTOAUX1,10*
G04 #@! TO.N,N/C*
X86995000Y-131191000D03*
G04 #@! TD*
D22*
G04 #@! TO.N,-9V*
X90551000Y-145415000D03*
X90551000Y-144145000D03*
X90551000Y-142875000D03*
X90551000Y-141605000D03*
X90551000Y-140335000D03*
X90551000Y-139065000D03*
X90551000Y-137795000D03*
X91821000Y-137795000D03*
X91821000Y-139065000D03*
X91821000Y-140335000D03*
X91821000Y-141605000D03*
X91821000Y-142875000D03*
X91821000Y-144145000D03*
X91821000Y-145415000D03*
X93091000Y-145415000D03*
X93091000Y-139065000D03*
X94361000Y-139065000D03*
X94361000Y-137795000D03*
X93091000Y-137795000D03*
X94361000Y-145415000D03*
G04 #@! TO.N,/3PDT_8_EXT*
X66040000Y-109728000D03*
G04 #@! TO.N,+5V*
X87249000Y-137795000D03*
X87249000Y-139065000D03*
X87249000Y-140335000D03*
X87249000Y-142875000D03*
X87249000Y-145415000D03*
X85979000Y-145415000D03*
X85979000Y-142875000D03*
X85979000Y-140335000D03*
X85979000Y-139065000D03*
X85979000Y-137795000D03*
X84709000Y-137795000D03*
X83439000Y-137795000D03*
X84709000Y-145415000D03*
X83439000Y-145415000D03*
X87249000Y-144145000D03*
X85979000Y-144145000D03*
G04 #@! TO.N,Net-(C_OSC1-Pad1)*
X64008000Y-89408000D03*
X66040000Y-90678000D03*
X69468999Y-90042999D03*
G04 #@! TO.N,Net-(P_VOL1-Pad1)*
X80264000Y-105156000D03*
G04 #@! TO.N,Net-(R_LPF1-Pad2)*
X80645000Y-76835000D03*
G04 #@! TO.N,Net-(C_LPFOPT1-Pad1)*
X76707996Y-76708000D03*
G04 #@! TO.N,/GND*
X63500000Y-139446000D03*
X61468000Y-139446000D03*
X62230000Y-86995000D03*
X85725000Y-74930000D03*
X75565000Y-74930000D03*
X104648000Y-135382000D03*
X68834000Y-141986000D03*
X55617000Y-138675000D03*
X70993000Y-95377000D03*
X73034000Y-90034000D03*
X77724000Y-101219000D03*
X98050000Y-88652000D03*
X85366000Y-92942000D03*
X72389996Y-135635996D03*
X81534000Y-119380000D03*
G04 #@! TO.N,Net-(C_BP1-Pad1)*
X66040000Y-102108000D03*
G04 #@! TO.N,Net-(C_LPFOPT2-Pad1)*
X84455000Y-76835000D03*
G04 #@! TD*
D23*
G04 #@! TO.N,/3PDT_8_EXT*
X66040000Y-105927000D02*
X66040000Y-109728000D01*
D24*
G04 #@! TO.N,Net-(C_OSC1-Pad1)*
X65278000Y-90678000D02*
X64008000Y-89408000D01*
X66040000Y-90678000D02*
X65278000Y-90678000D01*
D25*
X70984000Y-90043000D02*
X70034684Y-90042999D01*
X70034684Y-90042999D02*
X69468999Y-90042999D01*
D23*
G04 #@! TO.N,/3PDT_4_EXT*
X86995000Y-127381000D02*
X86995000Y-128651000D01*
X86360000Y-126746000D02*
X86995000Y-127381000D01*
X80010000Y-126746000D02*
X86360000Y-126746000D01*
X79375000Y-127381000D02*
X80010000Y-126746000D01*
X79375000Y-128651000D02*
X79375000Y-127381000D01*
D25*
G04 #@! TO.N,Net-(P_VOL1-Pad1)*
X80264000Y-105156000D02*
X82160000Y-105156000D01*
D24*
G04 #@! TO.N,Net-(R_LPF1-Pad2)*
X80645000Y-78223000D02*
X80645000Y-76835000D01*
G04 #@! TO.N,Net-(C_LPFOPT1-Pad1)*
X76707996Y-78095996D02*
X76835000Y-78223000D01*
X76707996Y-76708000D02*
X76707996Y-78095996D01*
X79765000Y-80273000D02*
X80645000Y-80273000D01*
X77715000Y-78223000D02*
X79765000Y-80273000D01*
X76835000Y-78223000D02*
X77715000Y-78223000D01*
D23*
G04 #@! TO.N,Net-(C_BP1-Pad1)*
X66040000Y-104140000D02*
X66040000Y-102108000D01*
X66040000Y-103877000D02*
X66040000Y-102108000D01*
D24*
G04 #@! TO.N,Net-(C_LPFOPT2-Pad1)*
X84582000Y-78223000D02*
X84455000Y-78096000D01*
X84455000Y-76835000D02*
X84455000Y-78223000D01*
G04 #@! TO.N,Net-(CP_FAST1-Pad1)*
X77978000Y-85471000D02*
X78105000Y-85344000D01*
G04 #@! TD*
D26*
G04 #@! TO.N,-9V*
G36*
X98679000Y-145923000D02*
X90043000Y-145923000D01*
X90043000Y-137287000D01*
X98679000Y-137287000D01*
X98679000Y-145923000D01*
X98679000Y-145923000D01*
G37*
X98679000Y-145923000D02*
X90043000Y-145923000D01*
X90043000Y-137287000D01*
X98679000Y-137287000D01*
X98679000Y-145923000D01*
G04 #@! TO.N,+5V*
G36*
X87757000Y-146050000D02*
X79121000Y-146050000D01*
X79121000Y-137287000D01*
X87757000Y-137287000D01*
X87757000Y-146050000D01*
X87757000Y-146050000D01*
G37*
X87757000Y-146050000D02*
X79121000Y-146050000D01*
X79121000Y-137287000D01*
X87757000Y-137287000D01*
X87757000Y-146050000D01*
G04 #@! TO.N,/GND*
G36*
X107215000Y-72694447D02*
X107215001Y-146839000D01*
X99441000Y-146839000D01*
X99441000Y-136652000D01*
X99431333Y-136603399D01*
X99403803Y-136562197D01*
X99362601Y-136534667D01*
X99314000Y-136525000D01*
X78486000Y-136525000D01*
X78437399Y-136534667D01*
X78396197Y-136562197D01*
X78368667Y-136603399D01*
X78359000Y-136652000D01*
X78359000Y-146839000D01*
X54075000Y-146839000D01*
X54075000Y-127140000D01*
X61912560Y-127140000D01*
X61912560Y-128890000D01*
X62028449Y-129472613D01*
X62358472Y-129966528D01*
X62852387Y-130296551D01*
X63435000Y-130412440D01*
X65185000Y-130412440D01*
X65269001Y-130395731D01*
X65102191Y-130507191D01*
X64961843Y-130717235D01*
X64912560Y-130965000D01*
X64912560Y-134465000D01*
X64961843Y-134712765D01*
X65102191Y-134922809D01*
X65312235Y-135063157D01*
X65560000Y-135112440D01*
X69060000Y-135112440D01*
X69307765Y-135063157D01*
X69517809Y-134922809D01*
X69658157Y-134712765D01*
X69707440Y-134465000D01*
X69707440Y-130965000D01*
X69658157Y-130717235D01*
X69517809Y-130507191D01*
X69307765Y-130366843D01*
X69060000Y-130317560D01*
X65661994Y-130317560D01*
X65767613Y-130296551D01*
X66261528Y-129966528D01*
X66591551Y-129472613D01*
X66707440Y-128890000D01*
X66707440Y-128651000D01*
X75320908Y-128651000D01*
X75436161Y-129230418D01*
X75764375Y-129721625D01*
X76062761Y-129921000D01*
X75764375Y-130120375D01*
X75436161Y-130611582D01*
X75320908Y-131191000D01*
X75436161Y-131770418D01*
X75764375Y-132261625D01*
X76255582Y-132589839D01*
X76688744Y-132676000D01*
X76981256Y-132676000D01*
X77414418Y-132589839D01*
X77905625Y-132261625D01*
X78105000Y-131963239D01*
X78304375Y-132261625D01*
X78795582Y-132589839D01*
X79228744Y-132676000D01*
X79521256Y-132676000D01*
X79954418Y-132589839D01*
X80445625Y-132261625D01*
X80645000Y-131963239D01*
X80844375Y-132261625D01*
X81335582Y-132589839D01*
X81768744Y-132676000D01*
X82061256Y-132676000D01*
X82494418Y-132589839D01*
X82985625Y-132261625D01*
X83185000Y-131963239D01*
X83384375Y-132261625D01*
X83875582Y-132589839D01*
X84308744Y-132676000D01*
X84601256Y-132676000D01*
X85034418Y-132589839D01*
X85525625Y-132261625D01*
X85725000Y-131963239D01*
X85924375Y-132261625D01*
X86415582Y-132589839D01*
X86848744Y-132676000D01*
X87141256Y-132676000D01*
X87574418Y-132589839D01*
X88065625Y-132261625D01*
X88393839Y-131770418D01*
X88509092Y-131191000D01*
X88393839Y-130611582D01*
X88065625Y-130120375D01*
X88047381Y-130108184D01*
X88092765Y-130099157D01*
X88302809Y-129958809D01*
X88443157Y-129748765D01*
X88492440Y-129501000D01*
X88492440Y-127801000D01*
X88443157Y-127553235D01*
X88302809Y-127343191D01*
X88092765Y-127202843D01*
X87985089Y-127181425D01*
X87946399Y-126986918D01*
X87946399Y-126986917D01*
X87779518Y-126737163D01*
X87723169Y-126652831D01*
X87638838Y-126596483D01*
X87144518Y-126102163D01*
X87088169Y-126017831D01*
X86754082Y-125794601D01*
X86459476Y-125736000D01*
X86459471Y-125736000D01*
X86360000Y-125716214D01*
X86260529Y-125736000D01*
X80109472Y-125736000D01*
X80010000Y-125716214D01*
X79910528Y-125736000D01*
X79910524Y-125736000D01*
X79677115Y-125782428D01*
X79615917Y-125794601D01*
X79368381Y-125960000D01*
X79281831Y-126017831D01*
X79225482Y-126102163D01*
X78731161Y-126596484D01*
X78646832Y-126652831D01*
X78590485Y-126737160D01*
X78590482Y-126737163D01*
X78423603Y-126986917D01*
X78423602Y-126986918D01*
X78393136Y-127140083D01*
X78345214Y-127381000D01*
X78365001Y-127480475D01*
X78365001Y-127539866D01*
X78304375Y-127580375D01*
X78105000Y-127878761D01*
X77905625Y-127580375D01*
X77414418Y-127252161D01*
X76981256Y-127166000D01*
X76688744Y-127166000D01*
X76255582Y-127252161D01*
X75764375Y-127580375D01*
X75436161Y-128071582D01*
X75320908Y-128651000D01*
X66707440Y-128651000D01*
X66707440Y-127140000D01*
X66591551Y-126557387D01*
X66261528Y-126063472D01*
X65767613Y-125733449D01*
X65185000Y-125617560D01*
X63435000Y-125617560D01*
X62852387Y-125733449D01*
X62358472Y-126063472D01*
X62028449Y-126557387D01*
X61912560Y-127140000D01*
X54075000Y-127140000D01*
X54075000Y-123499778D01*
X59261500Y-123499778D01*
X59261500Y-124150222D01*
X59510414Y-124751153D01*
X59970347Y-125211086D01*
X60571278Y-125460000D01*
X61221722Y-125460000D01*
X61822653Y-125211086D01*
X62282586Y-124751153D01*
X62531500Y-124150222D01*
X62531500Y-123499778D01*
X62490304Y-123400322D01*
X88733500Y-123400322D01*
X88733500Y-124249678D01*
X89058534Y-125034380D01*
X89659120Y-125634966D01*
X90443822Y-125960000D01*
X91293178Y-125960000D01*
X92077880Y-125634966D01*
X92678466Y-125034380D01*
X93003500Y-124249678D01*
X93003500Y-123546125D01*
X93618822Y-123801000D01*
X94468178Y-123801000D01*
X95195392Y-123499778D01*
X98758500Y-123499778D01*
X98758500Y-124150222D01*
X99007414Y-124751153D01*
X99467347Y-125211086D01*
X100068278Y-125460000D01*
X100718722Y-125460000D01*
X101319653Y-125211086D01*
X101779586Y-124751153D01*
X102028500Y-124150222D01*
X102028500Y-123499778D01*
X101779586Y-122898847D01*
X101319653Y-122438914D01*
X100718722Y-122190000D01*
X100068278Y-122190000D01*
X99467347Y-122438914D01*
X99007414Y-122898847D01*
X98758500Y-123499778D01*
X95195392Y-123499778D01*
X95252880Y-123475966D01*
X95853466Y-122875380D01*
X96178500Y-122090678D01*
X96178500Y-121241322D01*
X95853466Y-120456620D01*
X95252880Y-119856034D01*
X94468178Y-119531000D01*
X93618822Y-119531000D01*
X92834120Y-119856034D01*
X92233534Y-120456620D01*
X91908500Y-121241322D01*
X91908500Y-121944875D01*
X91293178Y-121690000D01*
X90443822Y-121690000D01*
X89659120Y-122015034D01*
X89058534Y-122615620D01*
X88733500Y-123400322D01*
X62490304Y-123400322D01*
X62282586Y-122898847D01*
X61822653Y-122438914D01*
X61221722Y-122190000D01*
X60571278Y-122190000D01*
X59970347Y-122438914D01*
X59510414Y-122898847D01*
X59261500Y-123499778D01*
X54075000Y-123499778D01*
X54075000Y-114129322D01*
X65111500Y-114129322D01*
X65111500Y-114978678D01*
X65436534Y-115763380D01*
X66037120Y-116363966D01*
X66821822Y-116689000D01*
X67671178Y-116689000D01*
X68455880Y-116363966D01*
X69056466Y-115763380D01*
X69381500Y-114978678D01*
X69381500Y-114275125D01*
X69996822Y-114530000D01*
X70846178Y-114530000D01*
X71630880Y-114204966D01*
X72231466Y-113604380D01*
X72556500Y-112819678D01*
X72556500Y-112069778D01*
X98758500Y-112069778D01*
X98758500Y-112720222D01*
X99007414Y-113321153D01*
X99467347Y-113781086D01*
X100068278Y-114030000D01*
X100718722Y-114030000D01*
X101319653Y-113781086D01*
X101779586Y-113321153D01*
X102028500Y-112720222D01*
X102028500Y-112069778D01*
X101779586Y-111468847D01*
X101319653Y-111008914D01*
X100718722Y-110760000D01*
X100068278Y-110760000D01*
X99467347Y-111008914D01*
X99007414Y-111468847D01*
X98758500Y-112069778D01*
X72556500Y-112069778D01*
X72556500Y-111970322D01*
X72231466Y-111185620D01*
X71630880Y-110585034D01*
X70846178Y-110260000D01*
X69996822Y-110260000D01*
X69212120Y-110585034D01*
X68611534Y-111185620D01*
X68286500Y-111970322D01*
X68286500Y-112673875D01*
X67671178Y-112419000D01*
X66821822Y-112419000D01*
X66037120Y-112744034D01*
X65436534Y-113344620D01*
X65111500Y-114129322D01*
X54075000Y-114129322D01*
X54075000Y-112069778D01*
X59261500Y-112069778D01*
X59261500Y-112720222D01*
X59510414Y-113321153D01*
X59970347Y-113781086D01*
X60571278Y-114030000D01*
X61221722Y-114030000D01*
X61822653Y-113781086D01*
X62282586Y-113321153D01*
X62531500Y-112720222D01*
X62531500Y-112069778D01*
X62282586Y-111468847D01*
X61822653Y-111008914D01*
X61221722Y-110760000D01*
X60571278Y-110760000D01*
X59970347Y-111008914D01*
X59510414Y-111468847D01*
X59261500Y-112069778D01*
X54075000Y-112069778D01*
X54075000Y-104765866D01*
X58615000Y-104765866D01*
X58615000Y-105814134D01*
X59016155Y-106782608D01*
X59757392Y-107523845D01*
X60725866Y-107925000D01*
X61774134Y-107925000D01*
X62742608Y-107523845D01*
X63483845Y-106782608D01*
X63885000Y-105814134D01*
X63885000Y-104765866D01*
X63483845Y-103797392D01*
X63238452Y-103551999D01*
X64692560Y-103551999D01*
X64692560Y-104202001D01*
X64760873Y-104545436D01*
X64955414Y-104836586D01*
X65053313Y-104902000D01*
X64955414Y-104967414D01*
X64760873Y-105258564D01*
X64692560Y-105601999D01*
X64692560Y-106252001D01*
X64760873Y-106595436D01*
X64955414Y-106886586D01*
X65030000Y-106936423D01*
X65030001Y-109461768D01*
X65005000Y-109522126D01*
X65005000Y-109933874D01*
X65162569Y-110314280D01*
X65453720Y-110605431D01*
X65834126Y-110763000D01*
X66245874Y-110763000D01*
X66626280Y-110605431D01*
X66917431Y-110314280D01*
X67075000Y-109933874D01*
X67075000Y-109522126D01*
X67050000Y-109461771D01*
X67050000Y-106936423D01*
X67124586Y-106886586D01*
X67319127Y-106595436D01*
X67387440Y-106252001D01*
X67387440Y-105601999D01*
X67319127Y-105258564D01*
X67124586Y-104967414D01*
X67026687Y-104902000D01*
X67124586Y-104836586D01*
X67171839Y-104765866D01*
X68115000Y-104765866D01*
X68115000Y-105814134D01*
X68516155Y-106782608D01*
X69257392Y-107523845D01*
X70225866Y-107925000D01*
X71274134Y-107925000D01*
X72242608Y-107523845D01*
X72983845Y-106782608D01*
X73385000Y-105814134D01*
X73385000Y-104950126D01*
X79229000Y-104950126D01*
X79229000Y-105361874D01*
X79386569Y-105742280D01*
X79677720Y-106033431D01*
X80058126Y-106191000D01*
X80469874Y-106191000D01*
X80832007Y-106041000D01*
X81067054Y-106041000D01*
X81200414Y-106240586D01*
X81491564Y-106435127D01*
X81834999Y-106503440D01*
X82485001Y-106503440D01*
X82828436Y-106435127D01*
X83119586Y-106240586D01*
X83314127Y-105949436D01*
X83382440Y-105606001D01*
X83382440Y-104765866D01*
X87825000Y-104765866D01*
X87825000Y-105814134D01*
X88226155Y-106782608D01*
X88967392Y-107523845D01*
X89935866Y-107925000D01*
X90984134Y-107925000D01*
X91952608Y-107523845D01*
X92693845Y-106782608D01*
X93095000Y-105814134D01*
X93095000Y-104765866D01*
X97325000Y-104765866D01*
X97325000Y-105814134D01*
X97726155Y-106782608D01*
X98467392Y-107523845D01*
X99435866Y-107925000D01*
X100484134Y-107925000D01*
X101452608Y-107523845D01*
X102193845Y-106782608D01*
X102595000Y-105814134D01*
X102595000Y-104765866D01*
X102193845Y-103797392D01*
X101452608Y-103056155D01*
X100484134Y-102655000D01*
X99435866Y-102655000D01*
X98467392Y-103056155D01*
X97726155Y-103797392D01*
X97325000Y-104765866D01*
X93095000Y-104765866D01*
X92693845Y-103797392D01*
X91952608Y-103056155D01*
X90984134Y-102655000D01*
X89935866Y-102655000D01*
X88967392Y-103056155D01*
X88226155Y-103797392D01*
X87825000Y-104765866D01*
X83382440Y-104765866D01*
X83382440Y-104705999D01*
X83314127Y-104362564D01*
X83119586Y-104071414D01*
X82828436Y-103876873D01*
X82485001Y-103808560D01*
X81834999Y-103808560D01*
X81491564Y-103876873D01*
X81200414Y-104071414D01*
X81067054Y-104271000D01*
X80832007Y-104271000D01*
X80469874Y-104121000D01*
X80058126Y-104121000D01*
X79677720Y-104278569D01*
X79386569Y-104569720D01*
X79229000Y-104950126D01*
X73385000Y-104950126D01*
X73385000Y-104765866D01*
X72983845Y-103797392D01*
X72242608Y-103056155D01*
X71274134Y-102655000D01*
X70225866Y-102655000D01*
X69257392Y-103056155D01*
X68516155Y-103797392D01*
X68115000Y-104765866D01*
X67171839Y-104765866D01*
X67319127Y-104545436D01*
X67387440Y-104202001D01*
X67387440Y-103551999D01*
X67319127Y-103208564D01*
X67124586Y-102917414D01*
X67050000Y-102867577D01*
X67050000Y-102374229D01*
X67075000Y-102313874D01*
X67075000Y-101902126D01*
X66917431Y-101521720D01*
X66626280Y-101230569D01*
X66245874Y-101073000D01*
X65834126Y-101073000D01*
X65453720Y-101230569D01*
X65162569Y-101521720D01*
X65005000Y-101902126D01*
X65005000Y-102313874D01*
X65030001Y-102374231D01*
X65030001Y-102867577D01*
X64955414Y-102917414D01*
X64760873Y-103208564D01*
X64692560Y-103551999D01*
X63238452Y-103551999D01*
X62742608Y-103056155D01*
X61774134Y-102655000D01*
X60725866Y-102655000D01*
X59757392Y-103056155D01*
X59016155Y-103797392D01*
X58615000Y-104765866D01*
X54075000Y-104765866D01*
X54075000Y-97484670D01*
X61965000Y-97484670D01*
X61965000Y-98095330D01*
X62198690Y-98659507D01*
X62630493Y-99091310D01*
X63194670Y-99325000D01*
X63805330Y-99325000D01*
X64369507Y-99091310D01*
X64750000Y-98710817D01*
X65130493Y-99091310D01*
X65694670Y-99325000D01*
X66305330Y-99325000D01*
X66869507Y-99091310D01*
X67250000Y-98710817D01*
X67630493Y-99091310D01*
X68194670Y-99325000D01*
X68805330Y-99325000D01*
X69369507Y-99091310D01*
X69801310Y-98659507D01*
X70035000Y-98095330D01*
X70035000Y-97484670D01*
X69929790Y-97230670D01*
X77967000Y-97230670D01*
X77967000Y-97841330D01*
X78200690Y-98405507D01*
X78632493Y-98837310D01*
X79196670Y-99071000D01*
X79807330Y-99071000D01*
X80371507Y-98837310D01*
X80540725Y-98668092D01*
X80543843Y-98683765D01*
X80684191Y-98893809D01*
X80894235Y-99034157D01*
X81142000Y-99083440D01*
X82942000Y-99083440D01*
X83189765Y-99034157D01*
X83399809Y-98893809D01*
X83540157Y-98683765D01*
X83589440Y-98436000D01*
X83589440Y-97484670D01*
X91175000Y-97484670D01*
X91175000Y-98095330D01*
X91408690Y-98659507D01*
X91840493Y-99091310D01*
X92404670Y-99325000D01*
X93015330Y-99325000D01*
X93579507Y-99091310D01*
X93960000Y-98710817D01*
X94340493Y-99091310D01*
X94904670Y-99325000D01*
X95515330Y-99325000D01*
X96079507Y-99091310D01*
X96460000Y-98710817D01*
X96840493Y-99091310D01*
X97404670Y-99325000D01*
X98015330Y-99325000D01*
X98579507Y-99091310D01*
X99011310Y-98659507D01*
X99245000Y-98095330D01*
X99245000Y-97484670D01*
X99011310Y-96920493D01*
X98579507Y-96488690D01*
X98015330Y-96255000D01*
X97404670Y-96255000D01*
X96840493Y-96488690D01*
X96460000Y-96869183D01*
X96079507Y-96488690D01*
X95515330Y-96255000D01*
X94904670Y-96255000D01*
X94340493Y-96488690D01*
X93960000Y-96869183D01*
X93579507Y-96488690D01*
X93015330Y-96255000D01*
X92404670Y-96255000D01*
X91840493Y-96488690D01*
X91408690Y-96920493D01*
X91175000Y-97484670D01*
X83589440Y-97484670D01*
X83589440Y-96636000D01*
X83540157Y-96388235D01*
X83399809Y-96178191D01*
X83189765Y-96037843D01*
X82942000Y-95988560D01*
X81142000Y-95988560D01*
X80894235Y-96037843D01*
X80684191Y-96178191D01*
X80543843Y-96388235D01*
X80540725Y-96403908D01*
X80371507Y-96234690D01*
X79807330Y-96001000D01*
X79196670Y-96001000D01*
X78632493Y-96234690D01*
X78200690Y-96666493D01*
X77967000Y-97230670D01*
X69929790Y-97230670D01*
X69801310Y-96920493D01*
X69369507Y-96488690D01*
X68805330Y-96255000D01*
X68194670Y-96255000D01*
X67630493Y-96488690D01*
X67250000Y-96869183D01*
X66869507Y-96488690D01*
X66305330Y-96255000D01*
X65694670Y-96255000D01*
X65130493Y-96488690D01*
X64750000Y-96869183D01*
X64369507Y-96488690D01*
X63805330Y-96255000D01*
X63194670Y-96255000D01*
X62630493Y-96488690D01*
X62198690Y-96920493D01*
X61965000Y-97484670D01*
X54075000Y-97484670D01*
X54075000Y-89202126D01*
X62973000Y-89202126D01*
X62973000Y-89613874D01*
X63130569Y-89994280D01*
X63421720Y-90285431D01*
X63802126Y-90443000D01*
X63968199Y-90443000D01*
X64687671Y-91162473D01*
X64730071Y-91225929D01*
X64981463Y-91393904D01*
X65203148Y-91438000D01*
X65203152Y-91438000D01*
X65277999Y-91452888D01*
X65339036Y-91440747D01*
X65453720Y-91555431D01*
X65834126Y-91713000D01*
X66245874Y-91713000D01*
X66626280Y-91555431D01*
X66917431Y-91264280D01*
X67075000Y-90883874D01*
X67075000Y-90472126D01*
X66917431Y-90091720D01*
X66662836Y-89837125D01*
X68433999Y-89837125D01*
X68433999Y-90248873D01*
X68591568Y-90629279D01*
X68882719Y-90920430D01*
X69263125Y-91077999D01*
X69674873Y-91077999D01*
X69922692Y-90975349D01*
X70024414Y-91127586D01*
X70315564Y-91322127D01*
X70658999Y-91390440D01*
X71309001Y-91390440D01*
X71652436Y-91322127D01*
X71943586Y-91127586D01*
X72138127Y-90836436D01*
X72206440Y-90493001D01*
X72206440Y-89592999D01*
X72138127Y-89249564D01*
X71943586Y-88958414D01*
X71652436Y-88763873D01*
X71309001Y-88695560D01*
X70658999Y-88695560D01*
X70315564Y-88763873D01*
X70024414Y-88958414D01*
X69922693Y-89110649D01*
X69674873Y-89007999D01*
X69263125Y-89007999D01*
X68882719Y-89165568D01*
X68591568Y-89456719D01*
X68433999Y-89837125D01*
X66662836Y-89837125D01*
X66626280Y-89800569D01*
X66245874Y-89643000D01*
X65834126Y-89643000D01*
X65469029Y-89794228D01*
X65043000Y-89368199D01*
X65043000Y-89202126D01*
X64885431Y-88821720D01*
X64594280Y-88530569D01*
X64213874Y-88373000D01*
X63802126Y-88373000D01*
X63421720Y-88530569D01*
X63130569Y-88821720D01*
X62973000Y-89202126D01*
X54075000Y-89202126D01*
X54075000Y-83514670D01*
X62045000Y-83514670D01*
X62045000Y-84125330D01*
X62278690Y-84689507D01*
X62710493Y-85121310D01*
X63274670Y-85355000D01*
X63885330Y-85355000D01*
X64449507Y-85121310D01*
X64830000Y-84740817D01*
X65210493Y-85121310D01*
X65774670Y-85355000D01*
X66385330Y-85355000D01*
X66949507Y-85121310D01*
X67330000Y-84740817D01*
X67710493Y-85121310D01*
X68274670Y-85355000D01*
X68885330Y-85355000D01*
X69449507Y-85121310D01*
X69552039Y-85018778D01*
X76470000Y-85018778D01*
X76470000Y-85669222D01*
X76718914Y-86270153D01*
X77178847Y-86730086D01*
X77779778Y-86979000D01*
X78430222Y-86979000D01*
X79031153Y-86730086D01*
X79375000Y-86386239D01*
X79718847Y-86730086D01*
X80319778Y-86979000D01*
X80970222Y-86979000D01*
X81571153Y-86730086D01*
X81915000Y-86386239D01*
X82258847Y-86730086D01*
X82859778Y-86979000D01*
X83510222Y-86979000D01*
X84111153Y-86730086D01*
X84571086Y-86270153D01*
X84820000Y-85669222D01*
X84820000Y-85018778D01*
X84571086Y-84417847D01*
X84111153Y-83957914D01*
X83510222Y-83709000D01*
X82859778Y-83709000D01*
X82258847Y-83957914D01*
X81915000Y-84301761D01*
X81571153Y-83957914D01*
X80970222Y-83709000D01*
X80319778Y-83709000D01*
X79718847Y-83957914D01*
X79375000Y-84301761D01*
X79031153Y-83957914D01*
X78430222Y-83709000D01*
X77779778Y-83709000D01*
X77178847Y-83957914D01*
X76718914Y-84417847D01*
X76470000Y-85018778D01*
X69552039Y-85018778D01*
X69881310Y-84689507D01*
X70115000Y-84125330D01*
X70115000Y-83514670D01*
X91255000Y-83514670D01*
X91255000Y-84125330D01*
X91488690Y-84689507D01*
X91920493Y-85121310D01*
X92484670Y-85355000D01*
X93095330Y-85355000D01*
X93659507Y-85121310D01*
X94040000Y-84740817D01*
X94420493Y-85121310D01*
X94984670Y-85355000D01*
X95595330Y-85355000D01*
X96159507Y-85121310D01*
X96540000Y-84740817D01*
X96920493Y-85121310D01*
X97484670Y-85355000D01*
X98095330Y-85355000D01*
X98659507Y-85121310D01*
X99091310Y-84689507D01*
X99325000Y-84125330D01*
X99325000Y-83514670D01*
X99091310Y-82950493D01*
X98659507Y-82518690D01*
X98095330Y-82285000D01*
X97484670Y-82285000D01*
X96920493Y-82518690D01*
X96540000Y-82899183D01*
X96159507Y-82518690D01*
X95595330Y-82285000D01*
X94984670Y-82285000D01*
X94420493Y-82518690D01*
X94040000Y-82899183D01*
X93659507Y-82518690D01*
X93095330Y-82285000D01*
X92484670Y-82285000D01*
X91920493Y-82518690D01*
X91488690Y-82950493D01*
X91255000Y-83514670D01*
X70115000Y-83514670D01*
X69881310Y-82950493D01*
X69449507Y-82518690D01*
X68885330Y-82285000D01*
X68274670Y-82285000D01*
X67710493Y-82518690D01*
X67330000Y-82899183D01*
X66949507Y-82518690D01*
X66385330Y-82285000D01*
X65774670Y-82285000D01*
X65210493Y-82518690D01*
X64830000Y-82899183D01*
X64449507Y-82518690D01*
X63885330Y-82285000D01*
X63274670Y-82285000D01*
X62710493Y-82518690D01*
X62278690Y-82950493D01*
X62045000Y-83514670D01*
X54075000Y-83514670D01*
X54075000Y-75795866D01*
X58695000Y-75795866D01*
X58695000Y-76844134D01*
X59096155Y-77812608D01*
X59837392Y-78553845D01*
X60805866Y-78955000D01*
X61854134Y-78955000D01*
X62822608Y-78553845D01*
X63563845Y-77812608D01*
X63965000Y-76844134D01*
X63965000Y-75795866D01*
X68195000Y-75795866D01*
X68195000Y-76844134D01*
X68596155Y-77812608D01*
X69337392Y-78553845D01*
X70305866Y-78955000D01*
X71354134Y-78955000D01*
X72322608Y-78553845D01*
X72978454Y-77897999D01*
X75487560Y-77897999D01*
X75487560Y-78548001D01*
X75555873Y-78891436D01*
X75750414Y-79182586D01*
X76041564Y-79377127D01*
X76384999Y-79445440D01*
X77285001Y-79445440D01*
X77628436Y-79377127D01*
X77727879Y-79310681D01*
X79174671Y-80757473D01*
X79217071Y-80820929D01*
X79280527Y-80863329D01*
X79361037Y-80917125D01*
X79365873Y-80941436D01*
X79560414Y-81232586D01*
X79851564Y-81427127D01*
X80194999Y-81495440D01*
X81095001Y-81495440D01*
X81438436Y-81427127D01*
X81729586Y-81232586D01*
X81924127Y-80941436D01*
X81992440Y-80598001D01*
X81992440Y-79947999D01*
X81924127Y-79604564D01*
X81729586Y-79313414D01*
X81631687Y-79248000D01*
X81729586Y-79182586D01*
X81924127Y-78891436D01*
X81992440Y-78548001D01*
X81992440Y-77897999D01*
X83107560Y-77897999D01*
X83107560Y-78548001D01*
X83175873Y-78891436D01*
X83370414Y-79182586D01*
X83661564Y-79377127D01*
X84004999Y-79445440D01*
X84905001Y-79445440D01*
X85248436Y-79377127D01*
X85539586Y-79182586D01*
X85734127Y-78891436D01*
X85802440Y-78548001D01*
X85802440Y-77897999D01*
X85734127Y-77554564D01*
X85539586Y-77263414D01*
X85428552Y-77189223D01*
X85490000Y-77040874D01*
X85490000Y-76629126D01*
X85332431Y-76248720D01*
X85041280Y-75957569D01*
X84660874Y-75800000D01*
X84249126Y-75800000D01*
X83868720Y-75957569D01*
X83577569Y-76248720D01*
X83420000Y-76629126D01*
X83420000Y-77040874D01*
X83481448Y-77189223D01*
X83370414Y-77263414D01*
X83175873Y-77554564D01*
X83107560Y-77897999D01*
X81992440Y-77897999D01*
X81924127Y-77554564D01*
X81729586Y-77263414D01*
X81618552Y-77189223D01*
X81680000Y-77040874D01*
X81680000Y-76629126D01*
X81522431Y-76248720D01*
X81231280Y-75957569D01*
X80850874Y-75800000D01*
X80439126Y-75800000D01*
X80058720Y-75957569D01*
X79767569Y-76248720D01*
X79610000Y-76629126D01*
X79610000Y-77040874D01*
X79671448Y-77189223D01*
X79560414Y-77263414D01*
X79365873Y-77554564D01*
X79297560Y-77897999D01*
X79297560Y-78548001D01*
X79342939Y-78776137D01*
X78305331Y-77738530D01*
X78262929Y-77675071D01*
X78118963Y-77578876D01*
X78114127Y-77554564D01*
X77919586Y-77263414D01*
X77667877Y-77095227D01*
X77742996Y-76913874D01*
X77742996Y-76502126D01*
X77585427Y-76121720D01*
X77294276Y-75830569D01*
X77210496Y-75795866D01*
X87905000Y-75795866D01*
X87905000Y-76844134D01*
X88306155Y-77812608D01*
X89047392Y-78553845D01*
X90015866Y-78955000D01*
X91064134Y-78955000D01*
X92032608Y-78553845D01*
X92773845Y-77812608D01*
X93175000Y-76844134D01*
X93175000Y-75795866D01*
X97405000Y-75795866D01*
X97405000Y-76844134D01*
X97806155Y-77812608D01*
X98547392Y-78553845D01*
X99515866Y-78955000D01*
X100564134Y-78955000D01*
X101532608Y-78553845D01*
X102273845Y-77812608D01*
X102675000Y-76844134D01*
X102675000Y-75795866D01*
X102273845Y-74827392D01*
X101532608Y-74086155D01*
X100564134Y-73685000D01*
X99515866Y-73685000D01*
X98547392Y-74086155D01*
X97806155Y-74827392D01*
X97405000Y-75795866D01*
X93175000Y-75795866D01*
X92773845Y-74827392D01*
X92032608Y-74086155D01*
X91064134Y-73685000D01*
X90015866Y-73685000D01*
X89047392Y-74086155D01*
X88306155Y-74827392D01*
X87905000Y-75795866D01*
X77210496Y-75795866D01*
X76913870Y-75673000D01*
X76502122Y-75673000D01*
X76121716Y-75830569D01*
X75830565Y-76121720D01*
X75672996Y-76502126D01*
X75672996Y-76913874D01*
X75803177Y-77228159D01*
X75750414Y-77263414D01*
X75555873Y-77554564D01*
X75487560Y-77897999D01*
X72978454Y-77897999D01*
X73063845Y-77812608D01*
X73465000Y-76844134D01*
X73465000Y-75795866D01*
X73063845Y-74827392D01*
X72322608Y-74086155D01*
X71354134Y-73685000D01*
X70305866Y-73685000D01*
X69337392Y-74086155D01*
X68596155Y-74827392D01*
X68195000Y-75795866D01*
X63965000Y-75795866D01*
X63563845Y-74827392D01*
X62822608Y-74086155D01*
X61854134Y-73685000D01*
X60805866Y-73685000D01*
X59837392Y-74086155D01*
X59096155Y-74827392D01*
X58695000Y-75795866D01*
X54075000Y-75795866D01*
X54075000Y-72694446D01*
X54660447Y-72109000D01*
X106629554Y-72109000D01*
X107215000Y-72694447D01*
X107215000Y-72694447D01*
G37*
X107215000Y-72694447D02*
X107215001Y-146839000D01*
X99441000Y-146839000D01*
X99441000Y-136652000D01*
X99431333Y-136603399D01*
X99403803Y-136562197D01*
X99362601Y-136534667D01*
X99314000Y-136525000D01*
X78486000Y-136525000D01*
X78437399Y-136534667D01*
X78396197Y-136562197D01*
X78368667Y-136603399D01*
X78359000Y-136652000D01*
X78359000Y-146839000D01*
X54075000Y-146839000D01*
X54075000Y-127140000D01*
X61912560Y-127140000D01*
X61912560Y-128890000D01*
X62028449Y-129472613D01*
X62358472Y-129966528D01*
X62852387Y-130296551D01*
X63435000Y-130412440D01*
X65185000Y-130412440D01*
X65269001Y-130395731D01*
X65102191Y-130507191D01*
X64961843Y-130717235D01*
X64912560Y-130965000D01*
X64912560Y-134465000D01*
X64961843Y-134712765D01*
X65102191Y-134922809D01*
X65312235Y-135063157D01*
X65560000Y-135112440D01*
X69060000Y-135112440D01*
X69307765Y-135063157D01*
X69517809Y-134922809D01*
X69658157Y-134712765D01*
X69707440Y-134465000D01*
X69707440Y-130965000D01*
X69658157Y-130717235D01*
X69517809Y-130507191D01*
X69307765Y-130366843D01*
X69060000Y-130317560D01*
X65661994Y-130317560D01*
X65767613Y-130296551D01*
X66261528Y-129966528D01*
X66591551Y-129472613D01*
X66707440Y-128890000D01*
X66707440Y-128651000D01*
X75320908Y-128651000D01*
X75436161Y-129230418D01*
X75764375Y-129721625D01*
X76062761Y-129921000D01*
X75764375Y-130120375D01*
X75436161Y-130611582D01*
X75320908Y-131191000D01*
X75436161Y-131770418D01*
X75764375Y-132261625D01*
X76255582Y-132589839D01*
X76688744Y-132676000D01*
X76981256Y-132676000D01*
X77414418Y-132589839D01*
X77905625Y-132261625D01*
X78105000Y-131963239D01*
X78304375Y-132261625D01*
X78795582Y-132589839D01*
X79228744Y-132676000D01*
X79521256Y-132676000D01*
X79954418Y-132589839D01*
X80445625Y-132261625D01*
X80645000Y-131963239D01*
X80844375Y-132261625D01*
X81335582Y-132589839D01*
X81768744Y-132676000D01*
X82061256Y-132676000D01*
X82494418Y-132589839D01*
X82985625Y-132261625D01*
X83185000Y-131963239D01*
X83384375Y-132261625D01*
X83875582Y-132589839D01*
X84308744Y-132676000D01*
X84601256Y-132676000D01*
X85034418Y-132589839D01*
X85525625Y-132261625D01*
X85725000Y-131963239D01*
X85924375Y-132261625D01*
X86415582Y-132589839D01*
X86848744Y-132676000D01*
X87141256Y-132676000D01*
X87574418Y-132589839D01*
X88065625Y-132261625D01*
X88393839Y-131770418D01*
X88509092Y-131191000D01*
X88393839Y-130611582D01*
X88065625Y-130120375D01*
X88047381Y-130108184D01*
X88092765Y-130099157D01*
X88302809Y-129958809D01*
X88443157Y-129748765D01*
X88492440Y-129501000D01*
X88492440Y-127801000D01*
X88443157Y-127553235D01*
X88302809Y-127343191D01*
X88092765Y-127202843D01*
X87985089Y-127181425D01*
X87946399Y-126986918D01*
X87946399Y-126986917D01*
X87779518Y-126737163D01*
X87723169Y-126652831D01*
X87638838Y-126596483D01*
X87144518Y-126102163D01*
X87088169Y-126017831D01*
X86754082Y-125794601D01*
X86459476Y-125736000D01*
X86459471Y-125736000D01*
X86360000Y-125716214D01*
X86260529Y-125736000D01*
X80109472Y-125736000D01*
X80010000Y-125716214D01*
X79910528Y-125736000D01*
X79910524Y-125736000D01*
X79677115Y-125782428D01*
X79615917Y-125794601D01*
X79368381Y-125960000D01*
X79281831Y-126017831D01*
X79225482Y-126102163D01*
X78731161Y-126596484D01*
X78646832Y-126652831D01*
X78590485Y-126737160D01*
X78590482Y-126737163D01*
X78423603Y-126986917D01*
X78423602Y-126986918D01*
X78393136Y-127140083D01*
X78345214Y-127381000D01*
X78365001Y-127480475D01*
X78365001Y-127539866D01*
X78304375Y-127580375D01*
X78105000Y-127878761D01*
X77905625Y-127580375D01*
X77414418Y-127252161D01*
X76981256Y-127166000D01*
X76688744Y-127166000D01*
X76255582Y-127252161D01*
X75764375Y-127580375D01*
X75436161Y-128071582D01*
X75320908Y-128651000D01*
X66707440Y-128651000D01*
X66707440Y-127140000D01*
X66591551Y-126557387D01*
X66261528Y-126063472D01*
X65767613Y-125733449D01*
X65185000Y-125617560D01*
X63435000Y-125617560D01*
X62852387Y-125733449D01*
X62358472Y-126063472D01*
X62028449Y-126557387D01*
X61912560Y-127140000D01*
X54075000Y-127140000D01*
X54075000Y-123499778D01*
X59261500Y-123499778D01*
X59261500Y-124150222D01*
X59510414Y-124751153D01*
X59970347Y-125211086D01*
X60571278Y-125460000D01*
X61221722Y-125460000D01*
X61822653Y-125211086D01*
X62282586Y-124751153D01*
X62531500Y-124150222D01*
X62531500Y-123499778D01*
X62490304Y-123400322D01*
X88733500Y-123400322D01*
X88733500Y-124249678D01*
X89058534Y-125034380D01*
X89659120Y-125634966D01*
X90443822Y-125960000D01*
X91293178Y-125960000D01*
X92077880Y-125634966D01*
X92678466Y-125034380D01*
X93003500Y-124249678D01*
X93003500Y-123546125D01*
X93618822Y-123801000D01*
X94468178Y-123801000D01*
X95195392Y-123499778D01*
X98758500Y-123499778D01*
X98758500Y-124150222D01*
X99007414Y-124751153D01*
X99467347Y-125211086D01*
X100068278Y-125460000D01*
X100718722Y-125460000D01*
X101319653Y-125211086D01*
X101779586Y-124751153D01*
X102028500Y-124150222D01*
X102028500Y-123499778D01*
X101779586Y-122898847D01*
X101319653Y-122438914D01*
X100718722Y-122190000D01*
X100068278Y-122190000D01*
X99467347Y-122438914D01*
X99007414Y-122898847D01*
X98758500Y-123499778D01*
X95195392Y-123499778D01*
X95252880Y-123475966D01*
X95853466Y-122875380D01*
X96178500Y-122090678D01*
X96178500Y-121241322D01*
X95853466Y-120456620D01*
X95252880Y-119856034D01*
X94468178Y-119531000D01*
X93618822Y-119531000D01*
X92834120Y-119856034D01*
X92233534Y-120456620D01*
X91908500Y-121241322D01*
X91908500Y-121944875D01*
X91293178Y-121690000D01*
X90443822Y-121690000D01*
X89659120Y-122015034D01*
X89058534Y-122615620D01*
X88733500Y-123400322D01*
X62490304Y-123400322D01*
X62282586Y-122898847D01*
X61822653Y-122438914D01*
X61221722Y-122190000D01*
X60571278Y-122190000D01*
X59970347Y-122438914D01*
X59510414Y-122898847D01*
X59261500Y-123499778D01*
X54075000Y-123499778D01*
X54075000Y-114129322D01*
X65111500Y-114129322D01*
X65111500Y-114978678D01*
X65436534Y-115763380D01*
X66037120Y-116363966D01*
X66821822Y-116689000D01*
X67671178Y-116689000D01*
X68455880Y-116363966D01*
X69056466Y-115763380D01*
X69381500Y-114978678D01*
X69381500Y-114275125D01*
X69996822Y-114530000D01*
X70846178Y-114530000D01*
X71630880Y-114204966D01*
X72231466Y-113604380D01*
X72556500Y-112819678D01*
X72556500Y-112069778D01*
X98758500Y-112069778D01*
X98758500Y-112720222D01*
X99007414Y-113321153D01*
X99467347Y-113781086D01*
X100068278Y-114030000D01*
X100718722Y-114030000D01*
X101319653Y-113781086D01*
X101779586Y-113321153D01*
X102028500Y-112720222D01*
X102028500Y-112069778D01*
X101779586Y-111468847D01*
X101319653Y-111008914D01*
X100718722Y-110760000D01*
X100068278Y-110760000D01*
X99467347Y-111008914D01*
X99007414Y-111468847D01*
X98758500Y-112069778D01*
X72556500Y-112069778D01*
X72556500Y-111970322D01*
X72231466Y-111185620D01*
X71630880Y-110585034D01*
X70846178Y-110260000D01*
X69996822Y-110260000D01*
X69212120Y-110585034D01*
X68611534Y-111185620D01*
X68286500Y-111970322D01*
X68286500Y-112673875D01*
X67671178Y-112419000D01*
X66821822Y-112419000D01*
X66037120Y-112744034D01*
X65436534Y-113344620D01*
X65111500Y-114129322D01*
X54075000Y-114129322D01*
X54075000Y-112069778D01*
X59261500Y-112069778D01*
X59261500Y-112720222D01*
X59510414Y-113321153D01*
X59970347Y-113781086D01*
X60571278Y-114030000D01*
X61221722Y-114030000D01*
X61822653Y-113781086D01*
X62282586Y-113321153D01*
X62531500Y-112720222D01*
X62531500Y-112069778D01*
X62282586Y-111468847D01*
X61822653Y-111008914D01*
X61221722Y-110760000D01*
X60571278Y-110760000D01*
X59970347Y-111008914D01*
X59510414Y-111468847D01*
X59261500Y-112069778D01*
X54075000Y-112069778D01*
X54075000Y-104765866D01*
X58615000Y-104765866D01*
X58615000Y-105814134D01*
X59016155Y-106782608D01*
X59757392Y-107523845D01*
X60725866Y-107925000D01*
X61774134Y-107925000D01*
X62742608Y-107523845D01*
X63483845Y-106782608D01*
X63885000Y-105814134D01*
X63885000Y-104765866D01*
X63483845Y-103797392D01*
X63238452Y-103551999D01*
X64692560Y-103551999D01*
X64692560Y-104202001D01*
X64760873Y-104545436D01*
X64955414Y-104836586D01*
X65053313Y-104902000D01*
X64955414Y-104967414D01*
X64760873Y-105258564D01*
X64692560Y-105601999D01*
X64692560Y-106252001D01*
X64760873Y-106595436D01*
X64955414Y-106886586D01*
X65030000Y-106936423D01*
X65030001Y-109461768D01*
X65005000Y-109522126D01*
X65005000Y-109933874D01*
X65162569Y-110314280D01*
X65453720Y-110605431D01*
X65834126Y-110763000D01*
X66245874Y-110763000D01*
X66626280Y-110605431D01*
X66917431Y-110314280D01*
X67075000Y-109933874D01*
X67075000Y-109522126D01*
X67050000Y-109461771D01*
X67050000Y-106936423D01*
X67124586Y-106886586D01*
X67319127Y-106595436D01*
X67387440Y-106252001D01*
X67387440Y-105601999D01*
X67319127Y-105258564D01*
X67124586Y-104967414D01*
X67026687Y-104902000D01*
X67124586Y-104836586D01*
X67171839Y-104765866D01*
X68115000Y-104765866D01*
X68115000Y-105814134D01*
X68516155Y-106782608D01*
X69257392Y-107523845D01*
X70225866Y-107925000D01*
X71274134Y-107925000D01*
X72242608Y-107523845D01*
X72983845Y-106782608D01*
X73385000Y-105814134D01*
X73385000Y-104950126D01*
X79229000Y-104950126D01*
X79229000Y-105361874D01*
X79386569Y-105742280D01*
X79677720Y-106033431D01*
X80058126Y-106191000D01*
X80469874Y-106191000D01*
X80832007Y-106041000D01*
X81067054Y-106041000D01*
X81200414Y-106240586D01*
X81491564Y-106435127D01*
X81834999Y-106503440D01*
X82485001Y-106503440D01*
X82828436Y-106435127D01*
X83119586Y-106240586D01*
X83314127Y-105949436D01*
X83382440Y-105606001D01*
X83382440Y-104765866D01*
X87825000Y-104765866D01*
X87825000Y-105814134D01*
X88226155Y-106782608D01*
X88967392Y-107523845D01*
X89935866Y-107925000D01*
X90984134Y-107925000D01*
X91952608Y-107523845D01*
X92693845Y-106782608D01*
X93095000Y-105814134D01*
X93095000Y-104765866D01*
X97325000Y-104765866D01*
X97325000Y-105814134D01*
X97726155Y-106782608D01*
X98467392Y-107523845D01*
X99435866Y-107925000D01*
X100484134Y-107925000D01*
X101452608Y-107523845D01*
X102193845Y-106782608D01*
X102595000Y-105814134D01*
X102595000Y-104765866D01*
X102193845Y-103797392D01*
X101452608Y-103056155D01*
X100484134Y-102655000D01*
X99435866Y-102655000D01*
X98467392Y-103056155D01*
X97726155Y-103797392D01*
X97325000Y-104765866D01*
X93095000Y-104765866D01*
X92693845Y-103797392D01*
X91952608Y-103056155D01*
X90984134Y-102655000D01*
X89935866Y-102655000D01*
X88967392Y-103056155D01*
X88226155Y-103797392D01*
X87825000Y-104765866D01*
X83382440Y-104765866D01*
X83382440Y-104705999D01*
X83314127Y-104362564D01*
X83119586Y-104071414D01*
X82828436Y-103876873D01*
X82485001Y-103808560D01*
X81834999Y-103808560D01*
X81491564Y-103876873D01*
X81200414Y-104071414D01*
X81067054Y-104271000D01*
X80832007Y-104271000D01*
X80469874Y-104121000D01*
X80058126Y-104121000D01*
X79677720Y-104278569D01*
X79386569Y-104569720D01*
X79229000Y-104950126D01*
X73385000Y-104950126D01*
X73385000Y-104765866D01*
X72983845Y-103797392D01*
X72242608Y-103056155D01*
X71274134Y-102655000D01*
X70225866Y-102655000D01*
X69257392Y-103056155D01*
X68516155Y-103797392D01*
X68115000Y-104765866D01*
X67171839Y-104765866D01*
X67319127Y-104545436D01*
X67387440Y-104202001D01*
X67387440Y-103551999D01*
X67319127Y-103208564D01*
X67124586Y-102917414D01*
X67050000Y-102867577D01*
X67050000Y-102374229D01*
X67075000Y-102313874D01*
X67075000Y-101902126D01*
X66917431Y-101521720D01*
X66626280Y-101230569D01*
X66245874Y-101073000D01*
X65834126Y-101073000D01*
X65453720Y-101230569D01*
X65162569Y-101521720D01*
X65005000Y-101902126D01*
X65005000Y-102313874D01*
X65030001Y-102374231D01*
X65030001Y-102867577D01*
X64955414Y-102917414D01*
X64760873Y-103208564D01*
X64692560Y-103551999D01*
X63238452Y-103551999D01*
X62742608Y-103056155D01*
X61774134Y-102655000D01*
X60725866Y-102655000D01*
X59757392Y-103056155D01*
X59016155Y-103797392D01*
X58615000Y-104765866D01*
X54075000Y-104765866D01*
X54075000Y-97484670D01*
X61965000Y-97484670D01*
X61965000Y-98095330D01*
X62198690Y-98659507D01*
X62630493Y-99091310D01*
X63194670Y-99325000D01*
X63805330Y-99325000D01*
X64369507Y-99091310D01*
X64750000Y-98710817D01*
X65130493Y-99091310D01*
X65694670Y-99325000D01*
X66305330Y-99325000D01*
X66869507Y-99091310D01*
X67250000Y-98710817D01*
X67630493Y-99091310D01*
X68194670Y-99325000D01*
X68805330Y-99325000D01*
X69369507Y-99091310D01*
X69801310Y-98659507D01*
X70035000Y-98095330D01*
X70035000Y-97484670D01*
X69929790Y-97230670D01*
X77967000Y-97230670D01*
X77967000Y-97841330D01*
X78200690Y-98405507D01*
X78632493Y-98837310D01*
X79196670Y-99071000D01*
X79807330Y-99071000D01*
X80371507Y-98837310D01*
X80540725Y-98668092D01*
X80543843Y-98683765D01*
X80684191Y-98893809D01*
X80894235Y-99034157D01*
X81142000Y-99083440D01*
X82942000Y-99083440D01*
X83189765Y-99034157D01*
X83399809Y-98893809D01*
X83540157Y-98683765D01*
X83589440Y-98436000D01*
X83589440Y-97484670D01*
X91175000Y-97484670D01*
X91175000Y-98095330D01*
X91408690Y-98659507D01*
X91840493Y-99091310D01*
X92404670Y-99325000D01*
X93015330Y-99325000D01*
X93579507Y-99091310D01*
X93960000Y-98710817D01*
X94340493Y-99091310D01*
X94904670Y-99325000D01*
X95515330Y-99325000D01*
X96079507Y-99091310D01*
X96460000Y-98710817D01*
X96840493Y-99091310D01*
X97404670Y-99325000D01*
X98015330Y-99325000D01*
X98579507Y-99091310D01*
X99011310Y-98659507D01*
X99245000Y-98095330D01*
X99245000Y-97484670D01*
X99011310Y-96920493D01*
X98579507Y-96488690D01*
X98015330Y-96255000D01*
X97404670Y-96255000D01*
X96840493Y-96488690D01*
X96460000Y-96869183D01*
X96079507Y-96488690D01*
X95515330Y-96255000D01*
X94904670Y-96255000D01*
X94340493Y-96488690D01*
X93960000Y-96869183D01*
X93579507Y-96488690D01*
X93015330Y-96255000D01*
X92404670Y-96255000D01*
X91840493Y-96488690D01*
X91408690Y-96920493D01*
X91175000Y-97484670D01*
X83589440Y-97484670D01*
X83589440Y-96636000D01*
X83540157Y-96388235D01*
X83399809Y-96178191D01*
X83189765Y-96037843D01*
X82942000Y-95988560D01*
X81142000Y-95988560D01*
X80894235Y-96037843D01*
X80684191Y-96178191D01*
X80543843Y-96388235D01*
X80540725Y-96403908D01*
X80371507Y-96234690D01*
X79807330Y-96001000D01*
X79196670Y-96001000D01*
X78632493Y-96234690D01*
X78200690Y-96666493D01*
X77967000Y-97230670D01*
X69929790Y-97230670D01*
X69801310Y-96920493D01*
X69369507Y-96488690D01*
X68805330Y-96255000D01*
X68194670Y-96255000D01*
X67630493Y-96488690D01*
X67250000Y-96869183D01*
X66869507Y-96488690D01*
X66305330Y-96255000D01*
X65694670Y-96255000D01*
X65130493Y-96488690D01*
X64750000Y-96869183D01*
X64369507Y-96488690D01*
X63805330Y-96255000D01*
X63194670Y-96255000D01*
X62630493Y-96488690D01*
X62198690Y-96920493D01*
X61965000Y-97484670D01*
X54075000Y-97484670D01*
X54075000Y-89202126D01*
X62973000Y-89202126D01*
X62973000Y-89613874D01*
X63130569Y-89994280D01*
X63421720Y-90285431D01*
X63802126Y-90443000D01*
X63968199Y-90443000D01*
X64687671Y-91162473D01*
X64730071Y-91225929D01*
X64981463Y-91393904D01*
X65203148Y-91438000D01*
X65203152Y-91438000D01*
X65277999Y-91452888D01*
X65339036Y-91440747D01*
X65453720Y-91555431D01*
X65834126Y-91713000D01*
X66245874Y-91713000D01*
X66626280Y-91555431D01*
X66917431Y-91264280D01*
X67075000Y-90883874D01*
X67075000Y-90472126D01*
X66917431Y-90091720D01*
X66662836Y-89837125D01*
X68433999Y-89837125D01*
X68433999Y-90248873D01*
X68591568Y-90629279D01*
X68882719Y-90920430D01*
X69263125Y-91077999D01*
X69674873Y-91077999D01*
X69922692Y-90975349D01*
X70024414Y-91127586D01*
X70315564Y-91322127D01*
X70658999Y-91390440D01*
X71309001Y-91390440D01*
X71652436Y-91322127D01*
X71943586Y-91127586D01*
X72138127Y-90836436D01*
X72206440Y-90493001D01*
X72206440Y-89592999D01*
X72138127Y-89249564D01*
X71943586Y-88958414D01*
X71652436Y-88763873D01*
X71309001Y-88695560D01*
X70658999Y-88695560D01*
X70315564Y-88763873D01*
X70024414Y-88958414D01*
X69922693Y-89110649D01*
X69674873Y-89007999D01*
X69263125Y-89007999D01*
X68882719Y-89165568D01*
X68591568Y-89456719D01*
X68433999Y-89837125D01*
X66662836Y-89837125D01*
X66626280Y-89800569D01*
X66245874Y-89643000D01*
X65834126Y-89643000D01*
X65469029Y-89794228D01*
X65043000Y-89368199D01*
X65043000Y-89202126D01*
X64885431Y-88821720D01*
X64594280Y-88530569D01*
X64213874Y-88373000D01*
X63802126Y-88373000D01*
X63421720Y-88530569D01*
X63130569Y-88821720D01*
X62973000Y-89202126D01*
X54075000Y-89202126D01*
X54075000Y-83514670D01*
X62045000Y-83514670D01*
X62045000Y-84125330D01*
X62278690Y-84689507D01*
X62710493Y-85121310D01*
X63274670Y-85355000D01*
X63885330Y-85355000D01*
X64449507Y-85121310D01*
X64830000Y-84740817D01*
X65210493Y-85121310D01*
X65774670Y-85355000D01*
X66385330Y-85355000D01*
X66949507Y-85121310D01*
X67330000Y-84740817D01*
X67710493Y-85121310D01*
X68274670Y-85355000D01*
X68885330Y-85355000D01*
X69449507Y-85121310D01*
X69552039Y-85018778D01*
X76470000Y-85018778D01*
X76470000Y-85669222D01*
X76718914Y-86270153D01*
X77178847Y-86730086D01*
X77779778Y-86979000D01*
X78430222Y-86979000D01*
X79031153Y-86730086D01*
X79375000Y-86386239D01*
X79718847Y-86730086D01*
X80319778Y-86979000D01*
X80970222Y-86979000D01*
X81571153Y-86730086D01*
X81915000Y-86386239D01*
X82258847Y-86730086D01*
X82859778Y-86979000D01*
X83510222Y-86979000D01*
X84111153Y-86730086D01*
X84571086Y-86270153D01*
X84820000Y-85669222D01*
X84820000Y-85018778D01*
X84571086Y-84417847D01*
X84111153Y-83957914D01*
X83510222Y-83709000D01*
X82859778Y-83709000D01*
X82258847Y-83957914D01*
X81915000Y-84301761D01*
X81571153Y-83957914D01*
X80970222Y-83709000D01*
X80319778Y-83709000D01*
X79718847Y-83957914D01*
X79375000Y-84301761D01*
X79031153Y-83957914D01*
X78430222Y-83709000D01*
X77779778Y-83709000D01*
X77178847Y-83957914D01*
X76718914Y-84417847D01*
X76470000Y-85018778D01*
X69552039Y-85018778D01*
X69881310Y-84689507D01*
X70115000Y-84125330D01*
X70115000Y-83514670D01*
X91255000Y-83514670D01*
X91255000Y-84125330D01*
X91488690Y-84689507D01*
X91920493Y-85121310D01*
X92484670Y-85355000D01*
X93095330Y-85355000D01*
X93659507Y-85121310D01*
X94040000Y-84740817D01*
X94420493Y-85121310D01*
X94984670Y-85355000D01*
X95595330Y-85355000D01*
X96159507Y-85121310D01*
X96540000Y-84740817D01*
X96920493Y-85121310D01*
X97484670Y-85355000D01*
X98095330Y-85355000D01*
X98659507Y-85121310D01*
X99091310Y-84689507D01*
X99325000Y-84125330D01*
X99325000Y-83514670D01*
X99091310Y-82950493D01*
X98659507Y-82518690D01*
X98095330Y-82285000D01*
X97484670Y-82285000D01*
X96920493Y-82518690D01*
X96540000Y-82899183D01*
X96159507Y-82518690D01*
X95595330Y-82285000D01*
X94984670Y-82285000D01*
X94420493Y-82518690D01*
X94040000Y-82899183D01*
X93659507Y-82518690D01*
X93095330Y-82285000D01*
X92484670Y-82285000D01*
X91920493Y-82518690D01*
X91488690Y-82950493D01*
X91255000Y-83514670D01*
X70115000Y-83514670D01*
X69881310Y-82950493D01*
X69449507Y-82518690D01*
X68885330Y-82285000D01*
X68274670Y-82285000D01*
X67710493Y-82518690D01*
X67330000Y-82899183D01*
X66949507Y-82518690D01*
X66385330Y-82285000D01*
X65774670Y-82285000D01*
X65210493Y-82518690D01*
X64830000Y-82899183D01*
X64449507Y-82518690D01*
X63885330Y-82285000D01*
X63274670Y-82285000D01*
X62710493Y-82518690D01*
X62278690Y-82950493D01*
X62045000Y-83514670D01*
X54075000Y-83514670D01*
X54075000Y-75795866D01*
X58695000Y-75795866D01*
X58695000Y-76844134D01*
X59096155Y-77812608D01*
X59837392Y-78553845D01*
X60805866Y-78955000D01*
X61854134Y-78955000D01*
X62822608Y-78553845D01*
X63563845Y-77812608D01*
X63965000Y-76844134D01*
X63965000Y-75795866D01*
X68195000Y-75795866D01*
X68195000Y-76844134D01*
X68596155Y-77812608D01*
X69337392Y-78553845D01*
X70305866Y-78955000D01*
X71354134Y-78955000D01*
X72322608Y-78553845D01*
X72978454Y-77897999D01*
X75487560Y-77897999D01*
X75487560Y-78548001D01*
X75555873Y-78891436D01*
X75750414Y-79182586D01*
X76041564Y-79377127D01*
X76384999Y-79445440D01*
X77285001Y-79445440D01*
X77628436Y-79377127D01*
X77727879Y-79310681D01*
X79174671Y-80757473D01*
X79217071Y-80820929D01*
X79280527Y-80863329D01*
X79361037Y-80917125D01*
X79365873Y-80941436D01*
X79560414Y-81232586D01*
X79851564Y-81427127D01*
X80194999Y-81495440D01*
X81095001Y-81495440D01*
X81438436Y-81427127D01*
X81729586Y-81232586D01*
X81924127Y-80941436D01*
X81992440Y-80598001D01*
X81992440Y-79947999D01*
X81924127Y-79604564D01*
X81729586Y-79313414D01*
X81631687Y-79248000D01*
X81729586Y-79182586D01*
X81924127Y-78891436D01*
X81992440Y-78548001D01*
X81992440Y-77897999D01*
X83107560Y-77897999D01*
X83107560Y-78548001D01*
X83175873Y-78891436D01*
X83370414Y-79182586D01*
X83661564Y-79377127D01*
X84004999Y-79445440D01*
X84905001Y-79445440D01*
X85248436Y-79377127D01*
X85539586Y-79182586D01*
X85734127Y-78891436D01*
X85802440Y-78548001D01*
X85802440Y-77897999D01*
X85734127Y-77554564D01*
X85539586Y-77263414D01*
X85428552Y-77189223D01*
X85490000Y-77040874D01*
X85490000Y-76629126D01*
X85332431Y-76248720D01*
X85041280Y-75957569D01*
X84660874Y-75800000D01*
X84249126Y-75800000D01*
X83868720Y-75957569D01*
X83577569Y-76248720D01*
X83420000Y-76629126D01*
X83420000Y-77040874D01*
X83481448Y-77189223D01*
X83370414Y-77263414D01*
X83175873Y-77554564D01*
X83107560Y-77897999D01*
X81992440Y-77897999D01*
X81924127Y-77554564D01*
X81729586Y-77263414D01*
X81618552Y-77189223D01*
X81680000Y-77040874D01*
X81680000Y-76629126D01*
X81522431Y-76248720D01*
X81231280Y-75957569D01*
X80850874Y-75800000D01*
X80439126Y-75800000D01*
X80058720Y-75957569D01*
X79767569Y-76248720D01*
X79610000Y-76629126D01*
X79610000Y-77040874D01*
X79671448Y-77189223D01*
X79560414Y-77263414D01*
X79365873Y-77554564D01*
X79297560Y-77897999D01*
X79297560Y-78548001D01*
X79342939Y-78776137D01*
X78305331Y-77738530D01*
X78262929Y-77675071D01*
X78118963Y-77578876D01*
X78114127Y-77554564D01*
X77919586Y-77263414D01*
X77667877Y-77095227D01*
X77742996Y-76913874D01*
X77742996Y-76502126D01*
X77585427Y-76121720D01*
X77294276Y-75830569D01*
X77210496Y-75795866D01*
X87905000Y-75795866D01*
X87905000Y-76844134D01*
X88306155Y-77812608D01*
X89047392Y-78553845D01*
X90015866Y-78955000D01*
X91064134Y-78955000D01*
X92032608Y-78553845D01*
X92773845Y-77812608D01*
X93175000Y-76844134D01*
X93175000Y-75795866D01*
X97405000Y-75795866D01*
X97405000Y-76844134D01*
X97806155Y-77812608D01*
X98547392Y-78553845D01*
X99515866Y-78955000D01*
X100564134Y-78955000D01*
X101532608Y-78553845D01*
X102273845Y-77812608D01*
X102675000Y-76844134D01*
X102675000Y-75795866D01*
X102273845Y-74827392D01*
X101532608Y-74086155D01*
X100564134Y-73685000D01*
X99515866Y-73685000D01*
X98547392Y-74086155D01*
X97806155Y-74827392D01*
X97405000Y-75795866D01*
X93175000Y-75795866D01*
X92773845Y-74827392D01*
X92032608Y-74086155D01*
X91064134Y-73685000D01*
X90015866Y-73685000D01*
X89047392Y-74086155D01*
X88306155Y-74827392D01*
X87905000Y-75795866D01*
X77210496Y-75795866D01*
X76913870Y-75673000D01*
X76502122Y-75673000D01*
X76121716Y-75830569D01*
X75830565Y-76121720D01*
X75672996Y-76502126D01*
X75672996Y-76913874D01*
X75803177Y-77228159D01*
X75750414Y-77263414D01*
X75555873Y-77554564D01*
X75487560Y-77897999D01*
X72978454Y-77897999D01*
X73063845Y-77812608D01*
X73465000Y-76844134D01*
X73465000Y-75795866D01*
X73063845Y-74827392D01*
X72322608Y-74086155D01*
X71354134Y-73685000D01*
X70305866Y-73685000D01*
X69337392Y-74086155D01*
X68596155Y-74827392D01*
X68195000Y-75795866D01*
X63965000Y-75795866D01*
X63563845Y-74827392D01*
X62822608Y-74086155D01*
X61854134Y-73685000D01*
X60805866Y-73685000D01*
X59837392Y-74086155D01*
X59096155Y-74827392D01*
X58695000Y-75795866D01*
X54075000Y-75795866D01*
X54075000Y-72694446D01*
X54660447Y-72109000D01*
X106629554Y-72109000D01*
X107215000Y-72694447D01*
G04 #@! TD*
M02*
