G04 #@! TF.GenerationSoftware,KiCad,Pcbnew,(5.0.0-3-g5ebb6b6)*
G04 #@! TF.CreationDate,2018-12-28T22:49:47+00:00*
G04 #@! TF.ProjectId,Atomizer,41746F6D697A65722E6B696361645F70,rev?*
G04 #@! TF.SameCoordinates,Original*
G04 #@! TF.FileFunction,Paste,Bot*
G04 #@! TF.FilePolarity,Positive*
%FSLAX46Y46*%
G04 Gerber Fmt 4.6, Leading zero omitted, Abs format (unit mm)*
G04 Created by KiCad (PCBNEW (5.0.0-3-g5ebb6b6)) date Friday, 28 December 2018 at 22:49:47*
%MOMM*%
%LPD*%
G01*
G04 APERTURE LIST*
%ADD10C,0.100000*%
%ADD11C,1.150000*%
G04 APERTURE END LIST*
D10*
G04 #@! TO.C,R_LPF1*
G36*
X76674505Y-109526204D02*
X76698773Y-109529804D01*
X76722572Y-109535765D01*
X76745671Y-109544030D01*
X76767850Y-109554520D01*
X76788893Y-109567132D01*
X76808599Y-109581747D01*
X76826777Y-109598223D01*
X76843253Y-109616401D01*
X76857868Y-109636107D01*
X76870480Y-109657150D01*
X76880970Y-109679329D01*
X76889235Y-109702428D01*
X76895196Y-109726227D01*
X76898796Y-109750495D01*
X76900000Y-109774999D01*
X76900000Y-110425001D01*
X76898796Y-110449505D01*
X76895196Y-110473773D01*
X76889235Y-110497572D01*
X76880970Y-110520671D01*
X76870480Y-110542850D01*
X76857868Y-110563893D01*
X76843253Y-110583599D01*
X76826777Y-110601777D01*
X76808599Y-110618253D01*
X76788893Y-110632868D01*
X76767850Y-110645480D01*
X76745671Y-110655970D01*
X76722572Y-110664235D01*
X76698773Y-110670196D01*
X76674505Y-110673796D01*
X76650001Y-110675000D01*
X75749999Y-110675000D01*
X75725495Y-110673796D01*
X75701227Y-110670196D01*
X75677428Y-110664235D01*
X75654329Y-110655970D01*
X75632150Y-110645480D01*
X75611107Y-110632868D01*
X75591401Y-110618253D01*
X75573223Y-110601777D01*
X75556747Y-110583599D01*
X75542132Y-110563893D01*
X75529520Y-110542850D01*
X75519030Y-110520671D01*
X75510765Y-110497572D01*
X75504804Y-110473773D01*
X75501204Y-110449505D01*
X75500000Y-110425001D01*
X75500000Y-109774999D01*
X75501204Y-109750495D01*
X75504804Y-109726227D01*
X75510765Y-109702428D01*
X75519030Y-109679329D01*
X75529520Y-109657150D01*
X75542132Y-109636107D01*
X75556747Y-109616401D01*
X75573223Y-109598223D01*
X75591401Y-109581747D01*
X75611107Y-109567132D01*
X75632150Y-109554520D01*
X75654329Y-109544030D01*
X75677428Y-109535765D01*
X75701227Y-109529804D01*
X75725495Y-109526204D01*
X75749999Y-109525000D01*
X76650001Y-109525000D01*
X76674505Y-109526204D01*
X76674505Y-109526204D01*
G37*
D11*
X76200000Y-110100000D03*
D10*
G36*
X76674505Y-111576204D02*
X76698773Y-111579804D01*
X76722572Y-111585765D01*
X76745671Y-111594030D01*
X76767850Y-111604520D01*
X76788893Y-111617132D01*
X76808599Y-111631747D01*
X76826777Y-111648223D01*
X76843253Y-111666401D01*
X76857868Y-111686107D01*
X76870480Y-111707150D01*
X76880970Y-111729329D01*
X76889235Y-111752428D01*
X76895196Y-111776227D01*
X76898796Y-111800495D01*
X76900000Y-111824999D01*
X76900000Y-112475001D01*
X76898796Y-112499505D01*
X76895196Y-112523773D01*
X76889235Y-112547572D01*
X76880970Y-112570671D01*
X76870480Y-112592850D01*
X76857868Y-112613893D01*
X76843253Y-112633599D01*
X76826777Y-112651777D01*
X76808599Y-112668253D01*
X76788893Y-112682868D01*
X76767850Y-112695480D01*
X76745671Y-112705970D01*
X76722572Y-112714235D01*
X76698773Y-112720196D01*
X76674505Y-112723796D01*
X76650001Y-112725000D01*
X75749999Y-112725000D01*
X75725495Y-112723796D01*
X75701227Y-112720196D01*
X75677428Y-112714235D01*
X75654329Y-112705970D01*
X75632150Y-112695480D01*
X75611107Y-112682868D01*
X75591401Y-112668253D01*
X75573223Y-112651777D01*
X75556747Y-112633599D01*
X75542132Y-112613893D01*
X75529520Y-112592850D01*
X75519030Y-112570671D01*
X75510765Y-112547572D01*
X75504804Y-112523773D01*
X75501204Y-112499505D01*
X75500000Y-112475001D01*
X75500000Y-111824999D01*
X75501204Y-111800495D01*
X75504804Y-111776227D01*
X75510765Y-111752428D01*
X75519030Y-111729329D01*
X75529520Y-111707150D01*
X75542132Y-111686107D01*
X75556747Y-111666401D01*
X75573223Y-111648223D01*
X75591401Y-111631747D01*
X75611107Y-111617132D01*
X75632150Y-111604520D01*
X75654329Y-111594030D01*
X75677428Y-111585765D01*
X75701227Y-111579804D01*
X75725495Y-111576204D01*
X75749999Y-111575000D01*
X76650001Y-111575000D01*
X76674505Y-111576204D01*
X76674505Y-111576204D01*
G37*
D11*
X76200000Y-112150000D03*
G04 #@! TD*
D10*
G04 #@! TO.C,R_GAIN1*
G36*
X99545505Y-100456704D02*
X99569773Y-100460304D01*
X99593572Y-100466265D01*
X99616671Y-100474530D01*
X99638850Y-100485020D01*
X99659893Y-100497632D01*
X99679599Y-100512247D01*
X99697777Y-100528723D01*
X99714253Y-100546901D01*
X99728868Y-100566607D01*
X99741480Y-100587650D01*
X99751970Y-100609829D01*
X99760235Y-100632928D01*
X99766196Y-100656727D01*
X99769796Y-100680995D01*
X99771000Y-100705499D01*
X99771000Y-101605501D01*
X99769796Y-101630005D01*
X99766196Y-101654273D01*
X99760235Y-101678072D01*
X99751970Y-101701171D01*
X99741480Y-101723350D01*
X99728868Y-101744393D01*
X99714253Y-101764099D01*
X99697777Y-101782277D01*
X99679599Y-101798753D01*
X99659893Y-101813368D01*
X99638850Y-101825980D01*
X99616671Y-101836470D01*
X99593572Y-101844735D01*
X99569773Y-101850696D01*
X99545505Y-101854296D01*
X99521001Y-101855500D01*
X98870999Y-101855500D01*
X98846495Y-101854296D01*
X98822227Y-101850696D01*
X98798428Y-101844735D01*
X98775329Y-101836470D01*
X98753150Y-101825980D01*
X98732107Y-101813368D01*
X98712401Y-101798753D01*
X98694223Y-101782277D01*
X98677747Y-101764099D01*
X98663132Y-101744393D01*
X98650520Y-101723350D01*
X98640030Y-101701171D01*
X98631765Y-101678072D01*
X98625804Y-101654273D01*
X98622204Y-101630005D01*
X98621000Y-101605501D01*
X98621000Y-100705499D01*
X98622204Y-100680995D01*
X98625804Y-100656727D01*
X98631765Y-100632928D01*
X98640030Y-100609829D01*
X98650520Y-100587650D01*
X98663132Y-100566607D01*
X98677747Y-100546901D01*
X98694223Y-100528723D01*
X98712401Y-100512247D01*
X98732107Y-100497632D01*
X98753150Y-100485020D01*
X98775329Y-100474530D01*
X98798428Y-100466265D01*
X98822227Y-100460304D01*
X98846495Y-100456704D01*
X98870999Y-100455500D01*
X99521001Y-100455500D01*
X99545505Y-100456704D01*
X99545505Y-100456704D01*
G37*
D11*
X99196000Y-101155500D03*
D10*
G36*
X97495505Y-100456704D02*
X97519773Y-100460304D01*
X97543572Y-100466265D01*
X97566671Y-100474530D01*
X97588850Y-100485020D01*
X97609893Y-100497632D01*
X97629599Y-100512247D01*
X97647777Y-100528723D01*
X97664253Y-100546901D01*
X97678868Y-100566607D01*
X97691480Y-100587650D01*
X97701970Y-100609829D01*
X97710235Y-100632928D01*
X97716196Y-100656727D01*
X97719796Y-100680995D01*
X97721000Y-100705499D01*
X97721000Y-101605501D01*
X97719796Y-101630005D01*
X97716196Y-101654273D01*
X97710235Y-101678072D01*
X97701970Y-101701171D01*
X97691480Y-101723350D01*
X97678868Y-101744393D01*
X97664253Y-101764099D01*
X97647777Y-101782277D01*
X97629599Y-101798753D01*
X97609893Y-101813368D01*
X97588850Y-101825980D01*
X97566671Y-101836470D01*
X97543572Y-101844735D01*
X97519773Y-101850696D01*
X97495505Y-101854296D01*
X97471001Y-101855500D01*
X96820999Y-101855500D01*
X96796495Y-101854296D01*
X96772227Y-101850696D01*
X96748428Y-101844735D01*
X96725329Y-101836470D01*
X96703150Y-101825980D01*
X96682107Y-101813368D01*
X96662401Y-101798753D01*
X96644223Y-101782277D01*
X96627747Y-101764099D01*
X96613132Y-101744393D01*
X96600520Y-101723350D01*
X96590030Y-101701171D01*
X96581765Y-101678072D01*
X96575804Y-101654273D01*
X96572204Y-101630005D01*
X96571000Y-101605501D01*
X96571000Y-100705499D01*
X96572204Y-100680995D01*
X96575804Y-100656727D01*
X96581765Y-100632928D01*
X96590030Y-100609829D01*
X96600520Y-100587650D01*
X96613132Y-100566607D01*
X96627747Y-100546901D01*
X96644223Y-100528723D01*
X96662401Y-100512247D01*
X96682107Y-100497632D01*
X96703150Y-100485020D01*
X96725329Y-100474530D01*
X96748428Y-100466265D01*
X96772227Y-100460304D01*
X96796495Y-100456704D01*
X96820999Y-100455500D01*
X97471001Y-100455500D01*
X97495505Y-100456704D01*
X97495505Y-100456704D01*
G37*
D11*
X97146000Y-101155500D03*
G04 #@! TD*
M02*
