G04 #@! TF.GenerationSoftware,KiCad,Pcbnew,(5.0.0-3-g5ebb6b6)*
G04 #@! TF.CreationDate,2018-11-29T05:39:13+00:00*
G04 #@! TF.ProjectId,Atomizer,41746F6D697A65722E6B696361645F70,rev?*
G04 #@! TF.SameCoordinates,Original*
G04 #@! TF.FileFunction,Paste,Top*
G04 #@! TF.FilePolarity,Positive*
%FSLAX46Y46*%
G04 Gerber Fmt 4.6, Leading zero omitted, Abs format (unit mm)*
G04 Created by KiCad (PCBNEW (5.0.0-3-g5ebb6b6)) date Thursday, 29 November 2018 at 05:39:13*
%MOMM*%
%LPD*%
G01*
G04 APERTURE LIST*
%ADD10R,1.700000X0.650000*%
%ADD11R,2.000000X1.500000*%
%ADD12R,2.000000X3.800000*%
%ADD13C,0.100000*%
%ADD14C,1.150000*%
%ADD15R,1.550000X0.600000*%
%ADD16R,2.600000X1.600000*%
%ADD17R,2.000000X0.640000*%
%ADD18R,3.500000X1.600000*%
%ADD19R,0.900000X1.200000*%
%ADD20R,1.200000X0.900000*%
G04 APERTURE END LIST*
D10*
G04 #@! TO.C,U_CLK1*
X70960000Y-92075000D03*
X70960000Y-90805000D03*
X70960000Y-89535000D03*
X70960000Y-88265000D03*
X63660000Y-88265000D03*
X63660000Y-89535000D03*
X63660000Y-90805000D03*
X63660000Y-92075000D03*
G04 #@! TD*
D11*
G04 #@! TO.C,U_NREG1*
X100241500Y-144159000D03*
X100241500Y-139559000D03*
X100241500Y-141859000D03*
D12*
X93941500Y-141859000D03*
G04 #@! TD*
D13*
G04 #@! TO.C,C_BP1*
G36*
X62334505Y-95186204D02*
X62358773Y-95189804D01*
X62382572Y-95195765D01*
X62405671Y-95204030D01*
X62427850Y-95214520D01*
X62448893Y-95227132D01*
X62468599Y-95241747D01*
X62486777Y-95258223D01*
X62503253Y-95276401D01*
X62517868Y-95296107D01*
X62530480Y-95317150D01*
X62540970Y-95339329D01*
X62549235Y-95362428D01*
X62555196Y-95386227D01*
X62558796Y-95410495D01*
X62560000Y-95434999D01*
X62560000Y-96335001D01*
X62558796Y-96359505D01*
X62555196Y-96383773D01*
X62549235Y-96407572D01*
X62540970Y-96430671D01*
X62530480Y-96452850D01*
X62517868Y-96473893D01*
X62503253Y-96493599D01*
X62486777Y-96511777D01*
X62468599Y-96528253D01*
X62448893Y-96542868D01*
X62427850Y-96555480D01*
X62405671Y-96565970D01*
X62382572Y-96574235D01*
X62358773Y-96580196D01*
X62334505Y-96583796D01*
X62310001Y-96585000D01*
X61659999Y-96585000D01*
X61635495Y-96583796D01*
X61611227Y-96580196D01*
X61587428Y-96574235D01*
X61564329Y-96565970D01*
X61542150Y-96555480D01*
X61521107Y-96542868D01*
X61501401Y-96528253D01*
X61483223Y-96511777D01*
X61466747Y-96493599D01*
X61452132Y-96473893D01*
X61439520Y-96452850D01*
X61429030Y-96430671D01*
X61420765Y-96407572D01*
X61414804Y-96383773D01*
X61411204Y-96359505D01*
X61410000Y-96335001D01*
X61410000Y-95434999D01*
X61411204Y-95410495D01*
X61414804Y-95386227D01*
X61420765Y-95362428D01*
X61429030Y-95339329D01*
X61439520Y-95317150D01*
X61452132Y-95296107D01*
X61466747Y-95276401D01*
X61483223Y-95258223D01*
X61501401Y-95241747D01*
X61521107Y-95227132D01*
X61542150Y-95214520D01*
X61564329Y-95204030D01*
X61587428Y-95195765D01*
X61611227Y-95189804D01*
X61635495Y-95186204D01*
X61659999Y-95185000D01*
X62310001Y-95185000D01*
X62334505Y-95186204D01*
X62334505Y-95186204D01*
G37*
D14*
X61985000Y-95885000D03*
D13*
G36*
X60284505Y-95186204D02*
X60308773Y-95189804D01*
X60332572Y-95195765D01*
X60355671Y-95204030D01*
X60377850Y-95214520D01*
X60398893Y-95227132D01*
X60418599Y-95241747D01*
X60436777Y-95258223D01*
X60453253Y-95276401D01*
X60467868Y-95296107D01*
X60480480Y-95317150D01*
X60490970Y-95339329D01*
X60499235Y-95362428D01*
X60505196Y-95386227D01*
X60508796Y-95410495D01*
X60510000Y-95434999D01*
X60510000Y-96335001D01*
X60508796Y-96359505D01*
X60505196Y-96383773D01*
X60499235Y-96407572D01*
X60490970Y-96430671D01*
X60480480Y-96452850D01*
X60467868Y-96473893D01*
X60453253Y-96493599D01*
X60436777Y-96511777D01*
X60418599Y-96528253D01*
X60398893Y-96542868D01*
X60377850Y-96555480D01*
X60355671Y-96565970D01*
X60332572Y-96574235D01*
X60308773Y-96580196D01*
X60284505Y-96583796D01*
X60260001Y-96585000D01*
X59609999Y-96585000D01*
X59585495Y-96583796D01*
X59561227Y-96580196D01*
X59537428Y-96574235D01*
X59514329Y-96565970D01*
X59492150Y-96555480D01*
X59471107Y-96542868D01*
X59451401Y-96528253D01*
X59433223Y-96511777D01*
X59416747Y-96493599D01*
X59402132Y-96473893D01*
X59389520Y-96452850D01*
X59379030Y-96430671D01*
X59370765Y-96407572D01*
X59364804Y-96383773D01*
X59361204Y-96359505D01*
X59360000Y-96335001D01*
X59360000Y-95434999D01*
X59361204Y-95410495D01*
X59364804Y-95386227D01*
X59370765Y-95362428D01*
X59379030Y-95339329D01*
X59389520Y-95317150D01*
X59402132Y-95296107D01*
X59416747Y-95276401D01*
X59433223Y-95258223D01*
X59451401Y-95241747D01*
X59471107Y-95227132D01*
X59492150Y-95214520D01*
X59514329Y-95204030D01*
X59537428Y-95195765D01*
X59561227Y-95189804D01*
X59585495Y-95186204D01*
X59609999Y-95185000D01*
X60260001Y-95185000D01*
X60284505Y-95186204D01*
X60284505Y-95186204D01*
G37*
D14*
X59935000Y-95885000D03*
G04 #@! TD*
D13*
G04 #@! TO.C,C_BP3*
G36*
X96216505Y-134937204D02*
X96240773Y-134940804D01*
X96264572Y-134946765D01*
X96287671Y-134955030D01*
X96309850Y-134965520D01*
X96330893Y-134978132D01*
X96350599Y-134992747D01*
X96368777Y-135009223D01*
X96385253Y-135027401D01*
X96399868Y-135047107D01*
X96412480Y-135068150D01*
X96422970Y-135090329D01*
X96431235Y-135113428D01*
X96437196Y-135137227D01*
X96440796Y-135161495D01*
X96442000Y-135185999D01*
X96442000Y-136086001D01*
X96440796Y-136110505D01*
X96437196Y-136134773D01*
X96431235Y-136158572D01*
X96422970Y-136181671D01*
X96412480Y-136203850D01*
X96399868Y-136224893D01*
X96385253Y-136244599D01*
X96368777Y-136262777D01*
X96350599Y-136279253D01*
X96330893Y-136293868D01*
X96309850Y-136306480D01*
X96287671Y-136316970D01*
X96264572Y-136325235D01*
X96240773Y-136331196D01*
X96216505Y-136334796D01*
X96192001Y-136336000D01*
X95541999Y-136336000D01*
X95517495Y-136334796D01*
X95493227Y-136331196D01*
X95469428Y-136325235D01*
X95446329Y-136316970D01*
X95424150Y-136306480D01*
X95403107Y-136293868D01*
X95383401Y-136279253D01*
X95365223Y-136262777D01*
X95348747Y-136244599D01*
X95334132Y-136224893D01*
X95321520Y-136203850D01*
X95311030Y-136181671D01*
X95302765Y-136158572D01*
X95296804Y-136134773D01*
X95293204Y-136110505D01*
X95292000Y-136086001D01*
X95292000Y-135185999D01*
X95293204Y-135161495D01*
X95296804Y-135137227D01*
X95302765Y-135113428D01*
X95311030Y-135090329D01*
X95321520Y-135068150D01*
X95334132Y-135047107D01*
X95348747Y-135027401D01*
X95365223Y-135009223D01*
X95383401Y-134992747D01*
X95403107Y-134978132D01*
X95424150Y-134965520D01*
X95446329Y-134955030D01*
X95469428Y-134946765D01*
X95493227Y-134940804D01*
X95517495Y-134937204D01*
X95541999Y-134936000D01*
X96192001Y-134936000D01*
X96216505Y-134937204D01*
X96216505Y-134937204D01*
G37*
D14*
X95867000Y-135636000D03*
D13*
G36*
X98266505Y-134937204D02*
X98290773Y-134940804D01*
X98314572Y-134946765D01*
X98337671Y-134955030D01*
X98359850Y-134965520D01*
X98380893Y-134978132D01*
X98400599Y-134992747D01*
X98418777Y-135009223D01*
X98435253Y-135027401D01*
X98449868Y-135047107D01*
X98462480Y-135068150D01*
X98472970Y-135090329D01*
X98481235Y-135113428D01*
X98487196Y-135137227D01*
X98490796Y-135161495D01*
X98492000Y-135185999D01*
X98492000Y-136086001D01*
X98490796Y-136110505D01*
X98487196Y-136134773D01*
X98481235Y-136158572D01*
X98472970Y-136181671D01*
X98462480Y-136203850D01*
X98449868Y-136224893D01*
X98435253Y-136244599D01*
X98418777Y-136262777D01*
X98400599Y-136279253D01*
X98380893Y-136293868D01*
X98359850Y-136306480D01*
X98337671Y-136316970D01*
X98314572Y-136325235D01*
X98290773Y-136331196D01*
X98266505Y-136334796D01*
X98242001Y-136336000D01*
X97591999Y-136336000D01*
X97567495Y-136334796D01*
X97543227Y-136331196D01*
X97519428Y-136325235D01*
X97496329Y-136316970D01*
X97474150Y-136306480D01*
X97453107Y-136293868D01*
X97433401Y-136279253D01*
X97415223Y-136262777D01*
X97398747Y-136244599D01*
X97384132Y-136224893D01*
X97371520Y-136203850D01*
X97361030Y-136181671D01*
X97352765Y-136158572D01*
X97346804Y-136134773D01*
X97343204Y-136110505D01*
X97342000Y-136086001D01*
X97342000Y-135185999D01*
X97343204Y-135161495D01*
X97346804Y-135137227D01*
X97352765Y-135113428D01*
X97361030Y-135090329D01*
X97371520Y-135068150D01*
X97384132Y-135047107D01*
X97398747Y-135027401D01*
X97415223Y-135009223D01*
X97433401Y-134992747D01*
X97453107Y-134978132D01*
X97474150Y-134965520D01*
X97496329Y-134955030D01*
X97519428Y-134946765D01*
X97543227Y-134940804D01*
X97567495Y-134937204D01*
X97591999Y-134936000D01*
X98242001Y-134936000D01*
X98266505Y-134937204D01*
X98266505Y-134937204D01*
G37*
D14*
X97917000Y-135636000D03*
G04 #@! TD*
D13*
G04 #@! TO.C,C_BP4*
G36*
X105514505Y-135826204D02*
X105538773Y-135829804D01*
X105562572Y-135835765D01*
X105585671Y-135844030D01*
X105607850Y-135854520D01*
X105628893Y-135867132D01*
X105648599Y-135881747D01*
X105666777Y-135898223D01*
X105683253Y-135916401D01*
X105697868Y-135936107D01*
X105710480Y-135957150D01*
X105720970Y-135979329D01*
X105729235Y-136002428D01*
X105735196Y-136026227D01*
X105738796Y-136050495D01*
X105740000Y-136074999D01*
X105740000Y-136975001D01*
X105738796Y-136999505D01*
X105735196Y-137023773D01*
X105729235Y-137047572D01*
X105720970Y-137070671D01*
X105710480Y-137092850D01*
X105697868Y-137113893D01*
X105683253Y-137133599D01*
X105666777Y-137151777D01*
X105648599Y-137168253D01*
X105628893Y-137182868D01*
X105607850Y-137195480D01*
X105585671Y-137205970D01*
X105562572Y-137214235D01*
X105538773Y-137220196D01*
X105514505Y-137223796D01*
X105490001Y-137225000D01*
X104839999Y-137225000D01*
X104815495Y-137223796D01*
X104791227Y-137220196D01*
X104767428Y-137214235D01*
X104744329Y-137205970D01*
X104722150Y-137195480D01*
X104701107Y-137182868D01*
X104681401Y-137168253D01*
X104663223Y-137151777D01*
X104646747Y-137133599D01*
X104632132Y-137113893D01*
X104619520Y-137092850D01*
X104609030Y-137070671D01*
X104600765Y-137047572D01*
X104594804Y-137023773D01*
X104591204Y-136999505D01*
X104590000Y-136975001D01*
X104590000Y-136074999D01*
X104591204Y-136050495D01*
X104594804Y-136026227D01*
X104600765Y-136002428D01*
X104609030Y-135979329D01*
X104619520Y-135957150D01*
X104632132Y-135936107D01*
X104646747Y-135916401D01*
X104663223Y-135898223D01*
X104681401Y-135881747D01*
X104701107Y-135867132D01*
X104722150Y-135854520D01*
X104744329Y-135844030D01*
X104767428Y-135835765D01*
X104791227Y-135829804D01*
X104815495Y-135826204D01*
X104839999Y-135825000D01*
X105490001Y-135825000D01*
X105514505Y-135826204D01*
X105514505Y-135826204D01*
G37*
D14*
X105165000Y-136525000D03*
D13*
G36*
X103464505Y-135826204D02*
X103488773Y-135829804D01*
X103512572Y-135835765D01*
X103535671Y-135844030D01*
X103557850Y-135854520D01*
X103578893Y-135867132D01*
X103598599Y-135881747D01*
X103616777Y-135898223D01*
X103633253Y-135916401D01*
X103647868Y-135936107D01*
X103660480Y-135957150D01*
X103670970Y-135979329D01*
X103679235Y-136002428D01*
X103685196Y-136026227D01*
X103688796Y-136050495D01*
X103690000Y-136074999D01*
X103690000Y-136975001D01*
X103688796Y-136999505D01*
X103685196Y-137023773D01*
X103679235Y-137047572D01*
X103670970Y-137070671D01*
X103660480Y-137092850D01*
X103647868Y-137113893D01*
X103633253Y-137133599D01*
X103616777Y-137151777D01*
X103598599Y-137168253D01*
X103578893Y-137182868D01*
X103557850Y-137195480D01*
X103535671Y-137205970D01*
X103512572Y-137214235D01*
X103488773Y-137220196D01*
X103464505Y-137223796D01*
X103440001Y-137225000D01*
X102789999Y-137225000D01*
X102765495Y-137223796D01*
X102741227Y-137220196D01*
X102717428Y-137214235D01*
X102694329Y-137205970D01*
X102672150Y-137195480D01*
X102651107Y-137182868D01*
X102631401Y-137168253D01*
X102613223Y-137151777D01*
X102596747Y-137133599D01*
X102582132Y-137113893D01*
X102569520Y-137092850D01*
X102559030Y-137070671D01*
X102550765Y-137047572D01*
X102544804Y-137023773D01*
X102541204Y-136999505D01*
X102540000Y-136975001D01*
X102540000Y-136074999D01*
X102541204Y-136050495D01*
X102544804Y-136026227D01*
X102550765Y-136002428D01*
X102559030Y-135979329D01*
X102569520Y-135957150D01*
X102582132Y-135936107D01*
X102596747Y-135916401D01*
X102613223Y-135898223D01*
X102631401Y-135881747D01*
X102651107Y-135867132D01*
X102672150Y-135854520D01*
X102694329Y-135844030D01*
X102717428Y-135835765D01*
X102741227Y-135829804D01*
X102765495Y-135826204D01*
X102789999Y-135825000D01*
X103440001Y-135825000D01*
X103464505Y-135826204D01*
X103464505Y-135826204D01*
G37*
D14*
X103115000Y-136525000D03*
G04 #@! TD*
D13*
G04 #@! TO.C,C_BP5*
G36*
X55966505Y-136207204D02*
X55990773Y-136210804D01*
X56014572Y-136216765D01*
X56037671Y-136225030D01*
X56059850Y-136235520D01*
X56080893Y-136248132D01*
X56100599Y-136262747D01*
X56118777Y-136279223D01*
X56135253Y-136297401D01*
X56149868Y-136317107D01*
X56162480Y-136338150D01*
X56172970Y-136360329D01*
X56181235Y-136383428D01*
X56187196Y-136407227D01*
X56190796Y-136431495D01*
X56192000Y-136455999D01*
X56192000Y-137356001D01*
X56190796Y-137380505D01*
X56187196Y-137404773D01*
X56181235Y-137428572D01*
X56172970Y-137451671D01*
X56162480Y-137473850D01*
X56149868Y-137494893D01*
X56135253Y-137514599D01*
X56118777Y-137532777D01*
X56100599Y-137549253D01*
X56080893Y-137563868D01*
X56059850Y-137576480D01*
X56037671Y-137586970D01*
X56014572Y-137595235D01*
X55990773Y-137601196D01*
X55966505Y-137604796D01*
X55942001Y-137606000D01*
X55291999Y-137606000D01*
X55267495Y-137604796D01*
X55243227Y-137601196D01*
X55219428Y-137595235D01*
X55196329Y-137586970D01*
X55174150Y-137576480D01*
X55153107Y-137563868D01*
X55133401Y-137549253D01*
X55115223Y-137532777D01*
X55098747Y-137514599D01*
X55084132Y-137494893D01*
X55071520Y-137473850D01*
X55061030Y-137451671D01*
X55052765Y-137428572D01*
X55046804Y-137404773D01*
X55043204Y-137380505D01*
X55042000Y-137356001D01*
X55042000Y-136455999D01*
X55043204Y-136431495D01*
X55046804Y-136407227D01*
X55052765Y-136383428D01*
X55061030Y-136360329D01*
X55071520Y-136338150D01*
X55084132Y-136317107D01*
X55098747Y-136297401D01*
X55115223Y-136279223D01*
X55133401Y-136262747D01*
X55153107Y-136248132D01*
X55174150Y-136235520D01*
X55196329Y-136225030D01*
X55219428Y-136216765D01*
X55243227Y-136210804D01*
X55267495Y-136207204D01*
X55291999Y-136206000D01*
X55942001Y-136206000D01*
X55966505Y-136207204D01*
X55966505Y-136207204D01*
G37*
D14*
X55617000Y-136906000D03*
D13*
G36*
X58016505Y-136207204D02*
X58040773Y-136210804D01*
X58064572Y-136216765D01*
X58087671Y-136225030D01*
X58109850Y-136235520D01*
X58130893Y-136248132D01*
X58150599Y-136262747D01*
X58168777Y-136279223D01*
X58185253Y-136297401D01*
X58199868Y-136317107D01*
X58212480Y-136338150D01*
X58222970Y-136360329D01*
X58231235Y-136383428D01*
X58237196Y-136407227D01*
X58240796Y-136431495D01*
X58242000Y-136455999D01*
X58242000Y-137356001D01*
X58240796Y-137380505D01*
X58237196Y-137404773D01*
X58231235Y-137428572D01*
X58222970Y-137451671D01*
X58212480Y-137473850D01*
X58199868Y-137494893D01*
X58185253Y-137514599D01*
X58168777Y-137532777D01*
X58150599Y-137549253D01*
X58130893Y-137563868D01*
X58109850Y-137576480D01*
X58087671Y-137586970D01*
X58064572Y-137595235D01*
X58040773Y-137601196D01*
X58016505Y-137604796D01*
X57992001Y-137606000D01*
X57341999Y-137606000D01*
X57317495Y-137604796D01*
X57293227Y-137601196D01*
X57269428Y-137595235D01*
X57246329Y-137586970D01*
X57224150Y-137576480D01*
X57203107Y-137563868D01*
X57183401Y-137549253D01*
X57165223Y-137532777D01*
X57148747Y-137514599D01*
X57134132Y-137494893D01*
X57121520Y-137473850D01*
X57111030Y-137451671D01*
X57102765Y-137428572D01*
X57096804Y-137404773D01*
X57093204Y-137380505D01*
X57092000Y-137356001D01*
X57092000Y-136455999D01*
X57093204Y-136431495D01*
X57096804Y-136407227D01*
X57102765Y-136383428D01*
X57111030Y-136360329D01*
X57121520Y-136338150D01*
X57134132Y-136317107D01*
X57148747Y-136297401D01*
X57165223Y-136279223D01*
X57183401Y-136262747D01*
X57203107Y-136248132D01*
X57224150Y-136235520D01*
X57246329Y-136225030D01*
X57269428Y-136216765D01*
X57293227Y-136210804D01*
X57317495Y-136207204D01*
X57341999Y-136206000D01*
X57992001Y-136206000D01*
X58016505Y-136207204D01*
X58016505Y-136207204D01*
G37*
D14*
X57667000Y-136906000D03*
G04 #@! TD*
D13*
G04 #@! TO.C,R1*
G36*
X74305305Y-135191204D02*
X74329573Y-135194804D01*
X74353372Y-135200765D01*
X74376471Y-135209030D01*
X74398650Y-135219520D01*
X74419693Y-135232132D01*
X74439399Y-135246747D01*
X74457577Y-135263223D01*
X74474053Y-135281401D01*
X74488668Y-135301107D01*
X74501280Y-135322150D01*
X74511770Y-135344329D01*
X74520035Y-135367428D01*
X74525996Y-135391227D01*
X74529596Y-135415495D01*
X74530800Y-135439999D01*
X74530800Y-136340001D01*
X74529596Y-136364505D01*
X74525996Y-136388773D01*
X74520035Y-136412572D01*
X74511770Y-136435671D01*
X74501280Y-136457850D01*
X74488668Y-136478893D01*
X74474053Y-136498599D01*
X74457577Y-136516777D01*
X74439399Y-136533253D01*
X74419693Y-136547868D01*
X74398650Y-136560480D01*
X74376471Y-136570970D01*
X74353372Y-136579235D01*
X74329573Y-136585196D01*
X74305305Y-136588796D01*
X74280801Y-136590000D01*
X73630799Y-136590000D01*
X73606295Y-136588796D01*
X73582027Y-136585196D01*
X73558228Y-136579235D01*
X73535129Y-136570970D01*
X73512950Y-136560480D01*
X73491907Y-136547868D01*
X73472201Y-136533253D01*
X73454023Y-136516777D01*
X73437547Y-136498599D01*
X73422932Y-136478893D01*
X73410320Y-136457850D01*
X73399830Y-136435671D01*
X73391565Y-136412572D01*
X73385604Y-136388773D01*
X73382004Y-136364505D01*
X73380800Y-136340001D01*
X73380800Y-135439999D01*
X73382004Y-135415495D01*
X73385604Y-135391227D01*
X73391565Y-135367428D01*
X73399830Y-135344329D01*
X73410320Y-135322150D01*
X73422932Y-135301107D01*
X73437547Y-135281401D01*
X73454023Y-135263223D01*
X73472201Y-135246747D01*
X73491907Y-135232132D01*
X73512950Y-135219520D01*
X73535129Y-135209030D01*
X73558228Y-135200765D01*
X73582027Y-135194804D01*
X73606295Y-135191204D01*
X73630799Y-135190000D01*
X74280801Y-135190000D01*
X74305305Y-135191204D01*
X74305305Y-135191204D01*
G37*
D14*
X73955800Y-135890000D03*
D13*
G36*
X76355305Y-135191204D02*
X76379573Y-135194804D01*
X76403372Y-135200765D01*
X76426471Y-135209030D01*
X76448650Y-135219520D01*
X76469693Y-135232132D01*
X76489399Y-135246747D01*
X76507577Y-135263223D01*
X76524053Y-135281401D01*
X76538668Y-135301107D01*
X76551280Y-135322150D01*
X76561770Y-135344329D01*
X76570035Y-135367428D01*
X76575996Y-135391227D01*
X76579596Y-135415495D01*
X76580800Y-135439999D01*
X76580800Y-136340001D01*
X76579596Y-136364505D01*
X76575996Y-136388773D01*
X76570035Y-136412572D01*
X76561770Y-136435671D01*
X76551280Y-136457850D01*
X76538668Y-136478893D01*
X76524053Y-136498599D01*
X76507577Y-136516777D01*
X76489399Y-136533253D01*
X76469693Y-136547868D01*
X76448650Y-136560480D01*
X76426471Y-136570970D01*
X76403372Y-136579235D01*
X76379573Y-136585196D01*
X76355305Y-136588796D01*
X76330801Y-136590000D01*
X75680799Y-136590000D01*
X75656295Y-136588796D01*
X75632027Y-136585196D01*
X75608228Y-136579235D01*
X75585129Y-136570970D01*
X75562950Y-136560480D01*
X75541907Y-136547868D01*
X75522201Y-136533253D01*
X75504023Y-136516777D01*
X75487547Y-136498599D01*
X75472932Y-136478893D01*
X75460320Y-136457850D01*
X75449830Y-136435671D01*
X75441565Y-136412572D01*
X75435604Y-136388773D01*
X75432004Y-136364505D01*
X75430800Y-136340001D01*
X75430800Y-135439999D01*
X75432004Y-135415495D01*
X75435604Y-135391227D01*
X75441565Y-135367428D01*
X75449830Y-135344329D01*
X75460320Y-135322150D01*
X75472932Y-135301107D01*
X75487547Y-135281401D01*
X75504023Y-135263223D01*
X75522201Y-135246747D01*
X75541907Y-135232132D01*
X75562950Y-135219520D01*
X75585129Y-135209030D01*
X75608228Y-135200765D01*
X75632027Y-135194804D01*
X75656295Y-135191204D01*
X75680799Y-135190000D01*
X76330801Y-135190000D01*
X76355305Y-135191204D01*
X76355305Y-135191204D01*
G37*
D14*
X76005800Y-135890000D03*
G04 #@! TD*
D13*
G04 #@! TO.C,R2*
G36*
X84940505Y-135191204D02*
X84964773Y-135194804D01*
X84988572Y-135200765D01*
X85011671Y-135209030D01*
X85033850Y-135219520D01*
X85054893Y-135232132D01*
X85074599Y-135246747D01*
X85092777Y-135263223D01*
X85109253Y-135281401D01*
X85123868Y-135301107D01*
X85136480Y-135322150D01*
X85146970Y-135344329D01*
X85155235Y-135367428D01*
X85161196Y-135391227D01*
X85164796Y-135415495D01*
X85166000Y-135439999D01*
X85166000Y-136340001D01*
X85164796Y-136364505D01*
X85161196Y-136388773D01*
X85155235Y-136412572D01*
X85146970Y-136435671D01*
X85136480Y-136457850D01*
X85123868Y-136478893D01*
X85109253Y-136498599D01*
X85092777Y-136516777D01*
X85074599Y-136533253D01*
X85054893Y-136547868D01*
X85033850Y-136560480D01*
X85011671Y-136570970D01*
X84988572Y-136579235D01*
X84964773Y-136585196D01*
X84940505Y-136588796D01*
X84916001Y-136590000D01*
X84265999Y-136590000D01*
X84241495Y-136588796D01*
X84217227Y-136585196D01*
X84193428Y-136579235D01*
X84170329Y-136570970D01*
X84148150Y-136560480D01*
X84127107Y-136547868D01*
X84107401Y-136533253D01*
X84089223Y-136516777D01*
X84072747Y-136498599D01*
X84058132Y-136478893D01*
X84045520Y-136457850D01*
X84035030Y-136435671D01*
X84026765Y-136412572D01*
X84020804Y-136388773D01*
X84017204Y-136364505D01*
X84016000Y-136340001D01*
X84016000Y-135439999D01*
X84017204Y-135415495D01*
X84020804Y-135391227D01*
X84026765Y-135367428D01*
X84035030Y-135344329D01*
X84045520Y-135322150D01*
X84058132Y-135301107D01*
X84072747Y-135281401D01*
X84089223Y-135263223D01*
X84107401Y-135246747D01*
X84127107Y-135232132D01*
X84148150Y-135219520D01*
X84170329Y-135209030D01*
X84193428Y-135200765D01*
X84217227Y-135194804D01*
X84241495Y-135191204D01*
X84265999Y-135190000D01*
X84916001Y-135190000D01*
X84940505Y-135191204D01*
X84940505Y-135191204D01*
G37*
D14*
X84591000Y-135890000D03*
D13*
G36*
X82890505Y-135191204D02*
X82914773Y-135194804D01*
X82938572Y-135200765D01*
X82961671Y-135209030D01*
X82983850Y-135219520D01*
X83004893Y-135232132D01*
X83024599Y-135246747D01*
X83042777Y-135263223D01*
X83059253Y-135281401D01*
X83073868Y-135301107D01*
X83086480Y-135322150D01*
X83096970Y-135344329D01*
X83105235Y-135367428D01*
X83111196Y-135391227D01*
X83114796Y-135415495D01*
X83116000Y-135439999D01*
X83116000Y-136340001D01*
X83114796Y-136364505D01*
X83111196Y-136388773D01*
X83105235Y-136412572D01*
X83096970Y-136435671D01*
X83086480Y-136457850D01*
X83073868Y-136478893D01*
X83059253Y-136498599D01*
X83042777Y-136516777D01*
X83024599Y-136533253D01*
X83004893Y-136547868D01*
X82983850Y-136560480D01*
X82961671Y-136570970D01*
X82938572Y-136579235D01*
X82914773Y-136585196D01*
X82890505Y-136588796D01*
X82866001Y-136590000D01*
X82215999Y-136590000D01*
X82191495Y-136588796D01*
X82167227Y-136585196D01*
X82143428Y-136579235D01*
X82120329Y-136570970D01*
X82098150Y-136560480D01*
X82077107Y-136547868D01*
X82057401Y-136533253D01*
X82039223Y-136516777D01*
X82022747Y-136498599D01*
X82008132Y-136478893D01*
X81995520Y-136457850D01*
X81985030Y-136435671D01*
X81976765Y-136412572D01*
X81970804Y-136388773D01*
X81967204Y-136364505D01*
X81966000Y-136340001D01*
X81966000Y-135439999D01*
X81967204Y-135415495D01*
X81970804Y-135391227D01*
X81976765Y-135367428D01*
X81985030Y-135344329D01*
X81995520Y-135322150D01*
X82008132Y-135301107D01*
X82022747Y-135281401D01*
X82039223Y-135263223D01*
X82057401Y-135246747D01*
X82077107Y-135232132D01*
X82098150Y-135219520D01*
X82120329Y-135209030D01*
X82143428Y-135200765D01*
X82167227Y-135194804D01*
X82191495Y-135191204D01*
X82215999Y-135190000D01*
X82866001Y-135190000D01*
X82890505Y-135191204D01*
X82890505Y-135191204D01*
G37*
D14*
X82541000Y-135890000D03*
G04 #@! TD*
D13*
G04 #@! TO.C,R3*
G36*
X103464505Y-143446204D02*
X103488773Y-143449804D01*
X103512572Y-143455765D01*
X103535671Y-143464030D01*
X103557850Y-143474520D01*
X103578893Y-143487132D01*
X103598599Y-143501747D01*
X103616777Y-143518223D01*
X103633253Y-143536401D01*
X103647868Y-143556107D01*
X103660480Y-143577150D01*
X103670970Y-143599329D01*
X103679235Y-143622428D01*
X103685196Y-143646227D01*
X103688796Y-143670495D01*
X103690000Y-143694999D01*
X103690000Y-144595001D01*
X103688796Y-144619505D01*
X103685196Y-144643773D01*
X103679235Y-144667572D01*
X103670970Y-144690671D01*
X103660480Y-144712850D01*
X103647868Y-144733893D01*
X103633253Y-144753599D01*
X103616777Y-144771777D01*
X103598599Y-144788253D01*
X103578893Y-144802868D01*
X103557850Y-144815480D01*
X103535671Y-144825970D01*
X103512572Y-144834235D01*
X103488773Y-144840196D01*
X103464505Y-144843796D01*
X103440001Y-144845000D01*
X102789999Y-144845000D01*
X102765495Y-144843796D01*
X102741227Y-144840196D01*
X102717428Y-144834235D01*
X102694329Y-144825970D01*
X102672150Y-144815480D01*
X102651107Y-144802868D01*
X102631401Y-144788253D01*
X102613223Y-144771777D01*
X102596747Y-144753599D01*
X102582132Y-144733893D01*
X102569520Y-144712850D01*
X102559030Y-144690671D01*
X102550765Y-144667572D01*
X102544804Y-144643773D01*
X102541204Y-144619505D01*
X102540000Y-144595001D01*
X102540000Y-143694999D01*
X102541204Y-143670495D01*
X102544804Y-143646227D01*
X102550765Y-143622428D01*
X102559030Y-143599329D01*
X102569520Y-143577150D01*
X102582132Y-143556107D01*
X102596747Y-143536401D01*
X102613223Y-143518223D01*
X102631401Y-143501747D01*
X102651107Y-143487132D01*
X102672150Y-143474520D01*
X102694329Y-143464030D01*
X102717428Y-143455765D01*
X102741227Y-143449804D01*
X102765495Y-143446204D01*
X102789999Y-143445000D01*
X103440001Y-143445000D01*
X103464505Y-143446204D01*
X103464505Y-143446204D01*
G37*
D14*
X103115000Y-144145000D03*
D13*
G36*
X105514505Y-143446204D02*
X105538773Y-143449804D01*
X105562572Y-143455765D01*
X105585671Y-143464030D01*
X105607850Y-143474520D01*
X105628893Y-143487132D01*
X105648599Y-143501747D01*
X105666777Y-143518223D01*
X105683253Y-143536401D01*
X105697868Y-143556107D01*
X105710480Y-143577150D01*
X105720970Y-143599329D01*
X105729235Y-143622428D01*
X105735196Y-143646227D01*
X105738796Y-143670495D01*
X105740000Y-143694999D01*
X105740000Y-144595001D01*
X105738796Y-144619505D01*
X105735196Y-144643773D01*
X105729235Y-144667572D01*
X105720970Y-144690671D01*
X105710480Y-144712850D01*
X105697868Y-144733893D01*
X105683253Y-144753599D01*
X105666777Y-144771777D01*
X105648599Y-144788253D01*
X105628893Y-144802868D01*
X105607850Y-144815480D01*
X105585671Y-144825970D01*
X105562572Y-144834235D01*
X105538773Y-144840196D01*
X105514505Y-144843796D01*
X105490001Y-144845000D01*
X104839999Y-144845000D01*
X104815495Y-144843796D01*
X104791227Y-144840196D01*
X104767428Y-144834235D01*
X104744329Y-144825970D01*
X104722150Y-144815480D01*
X104701107Y-144802868D01*
X104681401Y-144788253D01*
X104663223Y-144771777D01*
X104646747Y-144753599D01*
X104632132Y-144733893D01*
X104619520Y-144712850D01*
X104609030Y-144690671D01*
X104600765Y-144667572D01*
X104594804Y-144643773D01*
X104591204Y-144619505D01*
X104590000Y-144595001D01*
X104590000Y-143694999D01*
X104591204Y-143670495D01*
X104594804Y-143646227D01*
X104600765Y-143622428D01*
X104609030Y-143599329D01*
X104619520Y-143577150D01*
X104632132Y-143556107D01*
X104646747Y-143536401D01*
X104663223Y-143518223D01*
X104681401Y-143501747D01*
X104701107Y-143487132D01*
X104722150Y-143474520D01*
X104744329Y-143464030D01*
X104767428Y-143455765D01*
X104791227Y-143449804D01*
X104815495Y-143446204D01*
X104839999Y-143445000D01*
X105490001Y-143445000D01*
X105514505Y-143446204D01*
X105514505Y-143446204D01*
G37*
D14*
X105165000Y-144145000D03*
G04 #@! TD*
D13*
G04 #@! TO.C,R4*
G36*
X105514505Y-138366204D02*
X105538773Y-138369804D01*
X105562572Y-138375765D01*
X105585671Y-138384030D01*
X105607850Y-138394520D01*
X105628893Y-138407132D01*
X105648599Y-138421747D01*
X105666777Y-138438223D01*
X105683253Y-138456401D01*
X105697868Y-138476107D01*
X105710480Y-138497150D01*
X105720970Y-138519329D01*
X105729235Y-138542428D01*
X105735196Y-138566227D01*
X105738796Y-138590495D01*
X105740000Y-138614999D01*
X105740000Y-139515001D01*
X105738796Y-139539505D01*
X105735196Y-139563773D01*
X105729235Y-139587572D01*
X105720970Y-139610671D01*
X105710480Y-139632850D01*
X105697868Y-139653893D01*
X105683253Y-139673599D01*
X105666777Y-139691777D01*
X105648599Y-139708253D01*
X105628893Y-139722868D01*
X105607850Y-139735480D01*
X105585671Y-139745970D01*
X105562572Y-139754235D01*
X105538773Y-139760196D01*
X105514505Y-139763796D01*
X105490001Y-139765000D01*
X104839999Y-139765000D01*
X104815495Y-139763796D01*
X104791227Y-139760196D01*
X104767428Y-139754235D01*
X104744329Y-139745970D01*
X104722150Y-139735480D01*
X104701107Y-139722868D01*
X104681401Y-139708253D01*
X104663223Y-139691777D01*
X104646747Y-139673599D01*
X104632132Y-139653893D01*
X104619520Y-139632850D01*
X104609030Y-139610671D01*
X104600765Y-139587572D01*
X104594804Y-139563773D01*
X104591204Y-139539505D01*
X104590000Y-139515001D01*
X104590000Y-138614999D01*
X104591204Y-138590495D01*
X104594804Y-138566227D01*
X104600765Y-138542428D01*
X104609030Y-138519329D01*
X104619520Y-138497150D01*
X104632132Y-138476107D01*
X104646747Y-138456401D01*
X104663223Y-138438223D01*
X104681401Y-138421747D01*
X104701107Y-138407132D01*
X104722150Y-138394520D01*
X104744329Y-138384030D01*
X104767428Y-138375765D01*
X104791227Y-138369804D01*
X104815495Y-138366204D01*
X104839999Y-138365000D01*
X105490001Y-138365000D01*
X105514505Y-138366204D01*
X105514505Y-138366204D01*
G37*
D14*
X105165000Y-139065000D03*
D13*
G36*
X103464505Y-138366204D02*
X103488773Y-138369804D01*
X103512572Y-138375765D01*
X103535671Y-138384030D01*
X103557850Y-138394520D01*
X103578893Y-138407132D01*
X103598599Y-138421747D01*
X103616777Y-138438223D01*
X103633253Y-138456401D01*
X103647868Y-138476107D01*
X103660480Y-138497150D01*
X103670970Y-138519329D01*
X103679235Y-138542428D01*
X103685196Y-138566227D01*
X103688796Y-138590495D01*
X103690000Y-138614999D01*
X103690000Y-139515001D01*
X103688796Y-139539505D01*
X103685196Y-139563773D01*
X103679235Y-139587572D01*
X103670970Y-139610671D01*
X103660480Y-139632850D01*
X103647868Y-139653893D01*
X103633253Y-139673599D01*
X103616777Y-139691777D01*
X103598599Y-139708253D01*
X103578893Y-139722868D01*
X103557850Y-139735480D01*
X103535671Y-139745970D01*
X103512572Y-139754235D01*
X103488773Y-139760196D01*
X103464505Y-139763796D01*
X103440001Y-139765000D01*
X102789999Y-139765000D01*
X102765495Y-139763796D01*
X102741227Y-139760196D01*
X102717428Y-139754235D01*
X102694329Y-139745970D01*
X102672150Y-139735480D01*
X102651107Y-139722868D01*
X102631401Y-139708253D01*
X102613223Y-139691777D01*
X102596747Y-139673599D01*
X102582132Y-139653893D01*
X102569520Y-139632850D01*
X102559030Y-139610671D01*
X102550765Y-139587572D01*
X102544804Y-139563773D01*
X102541204Y-139539505D01*
X102540000Y-139515001D01*
X102540000Y-138614999D01*
X102541204Y-138590495D01*
X102544804Y-138566227D01*
X102550765Y-138542428D01*
X102559030Y-138519329D01*
X102569520Y-138497150D01*
X102582132Y-138476107D01*
X102596747Y-138456401D01*
X102613223Y-138438223D01*
X102631401Y-138421747D01*
X102651107Y-138407132D01*
X102672150Y-138394520D01*
X102694329Y-138384030D01*
X102717428Y-138375765D01*
X102741227Y-138369804D01*
X102765495Y-138366204D01*
X102789999Y-138365000D01*
X103440001Y-138365000D01*
X103464505Y-138366204D01*
X103464505Y-138366204D01*
G37*
D14*
X103115000Y-139065000D03*
G04 #@! TD*
D13*
G04 #@! TO.C,R5*
G36*
X103464505Y-140906204D02*
X103488773Y-140909804D01*
X103512572Y-140915765D01*
X103535671Y-140924030D01*
X103557850Y-140934520D01*
X103578893Y-140947132D01*
X103598599Y-140961747D01*
X103616777Y-140978223D01*
X103633253Y-140996401D01*
X103647868Y-141016107D01*
X103660480Y-141037150D01*
X103670970Y-141059329D01*
X103679235Y-141082428D01*
X103685196Y-141106227D01*
X103688796Y-141130495D01*
X103690000Y-141154999D01*
X103690000Y-142055001D01*
X103688796Y-142079505D01*
X103685196Y-142103773D01*
X103679235Y-142127572D01*
X103670970Y-142150671D01*
X103660480Y-142172850D01*
X103647868Y-142193893D01*
X103633253Y-142213599D01*
X103616777Y-142231777D01*
X103598599Y-142248253D01*
X103578893Y-142262868D01*
X103557850Y-142275480D01*
X103535671Y-142285970D01*
X103512572Y-142294235D01*
X103488773Y-142300196D01*
X103464505Y-142303796D01*
X103440001Y-142305000D01*
X102789999Y-142305000D01*
X102765495Y-142303796D01*
X102741227Y-142300196D01*
X102717428Y-142294235D01*
X102694329Y-142285970D01*
X102672150Y-142275480D01*
X102651107Y-142262868D01*
X102631401Y-142248253D01*
X102613223Y-142231777D01*
X102596747Y-142213599D01*
X102582132Y-142193893D01*
X102569520Y-142172850D01*
X102559030Y-142150671D01*
X102550765Y-142127572D01*
X102544804Y-142103773D01*
X102541204Y-142079505D01*
X102540000Y-142055001D01*
X102540000Y-141154999D01*
X102541204Y-141130495D01*
X102544804Y-141106227D01*
X102550765Y-141082428D01*
X102559030Y-141059329D01*
X102569520Y-141037150D01*
X102582132Y-141016107D01*
X102596747Y-140996401D01*
X102613223Y-140978223D01*
X102631401Y-140961747D01*
X102651107Y-140947132D01*
X102672150Y-140934520D01*
X102694329Y-140924030D01*
X102717428Y-140915765D01*
X102741227Y-140909804D01*
X102765495Y-140906204D01*
X102789999Y-140905000D01*
X103440001Y-140905000D01*
X103464505Y-140906204D01*
X103464505Y-140906204D01*
G37*
D14*
X103115000Y-141605000D03*
D13*
G36*
X105514505Y-140906204D02*
X105538773Y-140909804D01*
X105562572Y-140915765D01*
X105585671Y-140924030D01*
X105607850Y-140934520D01*
X105628893Y-140947132D01*
X105648599Y-140961747D01*
X105666777Y-140978223D01*
X105683253Y-140996401D01*
X105697868Y-141016107D01*
X105710480Y-141037150D01*
X105720970Y-141059329D01*
X105729235Y-141082428D01*
X105735196Y-141106227D01*
X105738796Y-141130495D01*
X105740000Y-141154999D01*
X105740000Y-142055001D01*
X105738796Y-142079505D01*
X105735196Y-142103773D01*
X105729235Y-142127572D01*
X105720970Y-142150671D01*
X105710480Y-142172850D01*
X105697868Y-142193893D01*
X105683253Y-142213599D01*
X105666777Y-142231777D01*
X105648599Y-142248253D01*
X105628893Y-142262868D01*
X105607850Y-142275480D01*
X105585671Y-142285970D01*
X105562572Y-142294235D01*
X105538773Y-142300196D01*
X105514505Y-142303796D01*
X105490001Y-142305000D01*
X104839999Y-142305000D01*
X104815495Y-142303796D01*
X104791227Y-142300196D01*
X104767428Y-142294235D01*
X104744329Y-142285970D01*
X104722150Y-142275480D01*
X104701107Y-142262868D01*
X104681401Y-142248253D01*
X104663223Y-142231777D01*
X104646747Y-142213599D01*
X104632132Y-142193893D01*
X104619520Y-142172850D01*
X104609030Y-142150671D01*
X104600765Y-142127572D01*
X104594804Y-142103773D01*
X104591204Y-142079505D01*
X104590000Y-142055001D01*
X104590000Y-141154999D01*
X104591204Y-141130495D01*
X104594804Y-141106227D01*
X104600765Y-141082428D01*
X104609030Y-141059329D01*
X104619520Y-141037150D01*
X104632132Y-141016107D01*
X104646747Y-140996401D01*
X104663223Y-140978223D01*
X104681401Y-140961747D01*
X104701107Y-140947132D01*
X104722150Y-140934520D01*
X104744329Y-140924030D01*
X104767428Y-140915765D01*
X104791227Y-140909804D01*
X104815495Y-140906204D01*
X104839999Y-140905000D01*
X105490001Y-140905000D01*
X105514505Y-140906204D01*
X105514505Y-140906204D01*
G37*
D14*
X105165000Y-141605000D03*
G04 #@! TD*
D15*
G04 #@! TO.C,U_BUF1*
X95725000Y-132715000D03*
X95725000Y-131445000D03*
X95725000Y-130175000D03*
X95725000Y-128905000D03*
X101125000Y-128905000D03*
X101125000Y-130175000D03*
X101125000Y-131445000D03*
X101125000Y-132715000D03*
G04 #@! TD*
D12*
G04 #@! TO.C,U_PREG1*
X83731500Y-141351000D03*
D11*
X77431500Y-141351000D03*
X77431500Y-143651000D03*
X77431500Y-139051000D03*
G04 #@! TD*
D16*
G04 #@! TO.C,CP_INV1*
X59839000Y-144272000D03*
X56239000Y-144272000D03*
G04 #@! TD*
G04 #@! TO.C,CP_INV2*
X68856000Y-144272000D03*
X65256000Y-144272000D03*
G04 #@! TD*
D13*
G04 #@! TO.C,R_OSCOFF1*
G36*
X57434005Y-103638704D02*
X57458273Y-103642304D01*
X57482072Y-103648265D01*
X57505171Y-103656530D01*
X57527350Y-103667020D01*
X57548393Y-103679632D01*
X57568099Y-103694247D01*
X57586277Y-103710723D01*
X57602753Y-103728901D01*
X57617368Y-103748607D01*
X57629980Y-103769650D01*
X57640470Y-103791829D01*
X57648735Y-103814928D01*
X57654696Y-103838727D01*
X57658296Y-103862995D01*
X57659500Y-103887499D01*
X57659500Y-104537501D01*
X57658296Y-104562005D01*
X57654696Y-104586273D01*
X57648735Y-104610072D01*
X57640470Y-104633171D01*
X57629980Y-104655350D01*
X57617368Y-104676393D01*
X57602753Y-104696099D01*
X57586277Y-104714277D01*
X57568099Y-104730753D01*
X57548393Y-104745368D01*
X57527350Y-104757980D01*
X57505171Y-104768470D01*
X57482072Y-104776735D01*
X57458273Y-104782696D01*
X57434005Y-104786296D01*
X57409501Y-104787500D01*
X56509499Y-104787500D01*
X56484995Y-104786296D01*
X56460727Y-104782696D01*
X56436928Y-104776735D01*
X56413829Y-104768470D01*
X56391650Y-104757980D01*
X56370607Y-104745368D01*
X56350901Y-104730753D01*
X56332723Y-104714277D01*
X56316247Y-104696099D01*
X56301632Y-104676393D01*
X56289020Y-104655350D01*
X56278530Y-104633171D01*
X56270265Y-104610072D01*
X56264304Y-104586273D01*
X56260704Y-104562005D01*
X56259500Y-104537501D01*
X56259500Y-103887499D01*
X56260704Y-103862995D01*
X56264304Y-103838727D01*
X56270265Y-103814928D01*
X56278530Y-103791829D01*
X56289020Y-103769650D01*
X56301632Y-103748607D01*
X56316247Y-103728901D01*
X56332723Y-103710723D01*
X56350901Y-103694247D01*
X56370607Y-103679632D01*
X56391650Y-103667020D01*
X56413829Y-103656530D01*
X56436928Y-103648265D01*
X56460727Y-103642304D01*
X56484995Y-103638704D01*
X56509499Y-103637500D01*
X57409501Y-103637500D01*
X57434005Y-103638704D01*
X57434005Y-103638704D01*
G37*
D14*
X56959500Y-104212500D03*
D13*
G36*
X57434005Y-101588704D02*
X57458273Y-101592304D01*
X57482072Y-101598265D01*
X57505171Y-101606530D01*
X57527350Y-101617020D01*
X57548393Y-101629632D01*
X57568099Y-101644247D01*
X57586277Y-101660723D01*
X57602753Y-101678901D01*
X57617368Y-101698607D01*
X57629980Y-101719650D01*
X57640470Y-101741829D01*
X57648735Y-101764928D01*
X57654696Y-101788727D01*
X57658296Y-101812995D01*
X57659500Y-101837499D01*
X57659500Y-102487501D01*
X57658296Y-102512005D01*
X57654696Y-102536273D01*
X57648735Y-102560072D01*
X57640470Y-102583171D01*
X57629980Y-102605350D01*
X57617368Y-102626393D01*
X57602753Y-102646099D01*
X57586277Y-102664277D01*
X57568099Y-102680753D01*
X57548393Y-102695368D01*
X57527350Y-102707980D01*
X57505171Y-102718470D01*
X57482072Y-102726735D01*
X57458273Y-102732696D01*
X57434005Y-102736296D01*
X57409501Y-102737500D01*
X56509499Y-102737500D01*
X56484995Y-102736296D01*
X56460727Y-102732696D01*
X56436928Y-102726735D01*
X56413829Y-102718470D01*
X56391650Y-102707980D01*
X56370607Y-102695368D01*
X56350901Y-102680753D01*
X56332723Y-102664277D01*
X56316247Y-102646099D01*
X56301632Y-102626393D01*
X56289020Y-102605350D01*
X56278530Y-102583171D01*
X56270265Y-102560072D01*
X56264304Y-102536273D01*
X56260704Y-102512005D01*
X56259500Y-102487501D01*
X56259500Y-101837499D01*
X56260704Y-101812995D01*
X56264304Y-101788727D01*
X56270265Y-101764928D01*
X56278530Y-101741829D01*
X56289020Y-101719650D01*
X56301632Y-101698607D01*
X56316247Y-101678901D01*
X56332723Y-101660723D01*
X56350901Y-101644247D01*
X56370607Y-101629632D01*
X56391650Y-101617020D01*
X56413829Y-101606530D01*
X56436928Y-101598265D01*
X56460727Y-101592304D01*
X56484995Y-101588704D01*
X56509499Y-101587500D01*
X57409501Y-101587500D01*
X57434005Y-101588704D01*
X57434005Y-101588704D01*
G37*
D14*
X56959500Y-102162500D03*
G04 #@! TD*
D13*
G04 #@! TO.C,R_OSCON1*
G36*
X57370505Y-81096204D02*
X57394773Y-81099804D01*
X57418572Y-81105765D01*
X57441671Y-81114030D01*
X57463850Y-81124520D01*
X57484893Y-81137132D01*
X57504599Y-81151747D01*
X57522777Y-81168223D01*
X57539253Y-81186401D01*
X57553868Y-81206107D01*
X57566480Y-81227150D01*
X57576970Y-81249329D01*
X57585235Y-81272428D01*
X57591196Y-81296227D01*
X57594796Y-81320495D01*
X57596000Y-81344999D01*
X57596000Y-81995001D01*
X57594796Y-82019505D01*
X57591196Y-82043773D01*
X57585235Y-82067572D01*
X57576970Y-82090671D01*
X57566480Y-82112850D01*
X57553868Y-82133893D01*
X57539253Y-82153599D01*
X57522777Y-82171777D01*
X57504599Y-82188253D01*
X57484893Y-82202868D01*
X57463850Y-82215480D01*
X57441671Y-82225970D01*
X57418572Y-82234235D01*
X57394773Y-82240196D01*
X57370505Y-82243796D01*
X57346001Y-82245000D01*
X56445999Y-82245000D01*
X56421495Y-82243796D01*
X56397227Y-82240196D01*
X56373428Y-82234235D01*
X56350329Y-82225970D01*
X56328150Y-82215480D01*
X56307107Y-82202868D01*
X56287401Y-82188253D01*
X56269223Y-82171777D01*
X56252747Y-82153599D01*
X56238132Y-82133893D01*
X56225520Y-82112850D01*
X56215030Y-82090671D01*
X56206765Y-82067572D01*
X56200804Y-82043773D01*
X56197204Y-82019505D01*
X56196000Y-81995001D01*
X56196000Y-81344999D01*
X56197204Y-81320495D01*
X56200804Y-81296227D01*
X56206765Y-81272428D01*
X56215030Y-81249329D01*
X56225520Y-81227150D01*
X56238132Y-81206107D01*
X56252747Y-81186401D01*
X56269223Y-81168223D01*
X56287401Y-81151747D01*
X56307107Y-81137132D01*
X56328150Y-81124520D01*
X56350329Y-81114030D01*
X56373428Y-81105765D01*
X56397227Y-81099804D01*
X56421495Y-81096204D01*
X56445999Y-81095000D01*
X57346001Y-81095000D01*
X57370505Y-81096204D01*
X57370505Y-81096204D01*
G37*
D14*
X56896000Y-81670000D03*
D13*
G36*
X57370505Y-79046204D02*
X57394773Y-79049804D01*
X57418572Y-79055765D01*
X57441671Y-79064030D01*
X57463850Y-79074520D01*
X57484893Y-79087132D01*
X57504599Y-79101747D01*
X57522777Y-79118223D01*
X57539253Y-79136401D01*
X57553868Y-79156107D01*
X57566480Y-79177150D01*
X57576970Y-79199329D01*
X57585235Y-79222428D01*
X57591196Y-79246227D01*
X57594796Y-79270495D01*
X57596000Y-79294999D01*
X57596000Y-79945001D01*
X57594796Y-79969505D01*
X57591196Y-79993773D01*
X57585235Y-80017572D01*
X57576970Y-80040671D01*
X57566480Y-80062850D01*
X57553868Y-80083893D01*
X57539253Y-80103599D01*
X57522777Y-80121777D01*
X57504599Y-80138253D01*
X57484893Y-80152868D01*
X57463850Y-80165480D01*
X57441671Y-80175970D01*
X57418572Y-80184235D01*
X57394773Y-80190196D01*
X57370505Y-80193796D01*
X57346001Y-80195000D01*
X56445999Y-80195000D01*
X56421495Y-80193796D01*
X56397227Y-80190196D01*
X56373428Y-80184235D01*
X56350329Y-80175970D01*
X56328150Y-80165480D01*
X56307107Y-80152868D01*
X56287401Y-80138253D01*
X56269223Y-80121777D01*
X56252747Y-80103599D01*
X56238132Y-80083893D01*
X56225520Y-80062850D01*
X56215030Y-80040671D01*
X56206765Y-80017572D01*
X56200804Y-79993773D01*
X56197204Y-79969505D01*
X56196000Y-79945001D01*
X56196000Y-79294999D01*
X56197204Y-79270495D01*
X56200804Y-79246227D01*
X56206765Y-79222428D01*
X56215030Y-79199329D01*
X56225520Y-79177150D01*
X56238132Y-79156107D01*
X56252747Y-79136401D01*
X56269223Y-79118223D01*
X56287401Y-79101747D01*
X56307107Y-79087132D01*
X56328150Y-79074520D01*
X56350329Y-79064030D01*
X56373428Y-79055765D01*
X56397227Y-79049804D01*
X56421495Y-79046204D01*
X56445999Y-79045000D01*
X57346001Y-79045000D01*
X57370505Y-79046204D01*
X57370505Y-79046204D01*
G37*
D14*
X56896000Y-79620000D03*
G04 #@! TD*
D15*
G04 #@! TO.C,U_INV1*
X65184000Y-136906000D03*
X65184000Y-138176000D03*
X65184000Y-139446000D03*
X65184000Y-140716000D03*
X59784000Y-140716000D03*
X59784000Y-139446000D03*
X59784000Y-138176000D03*
X59784000Y-136906000D03*
G04 #@! TD*
D17*
G04 #@! TO.C,U_OPTO1*
X88875000Y-84455000D03*
X88875000Y-85725000D03*
X82575000Y-85725000D03*
X82575000Y-84455000D03*
G04 #@! TD*
D16*
G04 #@! TO.C,CP_FAST1*
X90973500Y-90868500D03*
X94573500Y-90868500D03*
G04 #@! TD*
D18*
G04 #@! TO.C,CP_SLOW1*
X98546000Y-90932000D03*
X104146000Y-90932000D03*
G04 #@! TD*
D13*
G04 #@! TO.C,C_BP2*
G36*
X62334505Y-93281204D02*
X62358773Y-93284804D01*
X62382572Y-93290765D01*
X62405671Y-93299030D01*
X62427850Y-93309520D01*
X62448893Y-93322132D01*
X62468599Y-93336747D01*
X62486777Y-93353223D01*
X62503253Y-93371401D01*
X62517868Y-93391107D01*
X62530480Y-93412150D01*
X62540970Y-93434329D01*
X62549235Y-93457428D01*
X62555196Y-93481227D01*
X62558796Y-93505495D01*
X62560000Y-93529999D01*
X62560000Y-94430001D01*
X62558796Y-94454505D01*
X62555196Y-94478773D01*
X62549235Y-94502572D01*
X62540970Y-94525671D01*
X62530480Y-94547850D01*
X62517868Y-94568893D01*
X62503253Y-94588599D01*
X62486777Y-94606777D01*
X62468599Y-94623253D01*
X62448893Y-94637868D01*
X62427850Y-94650480D01*
X62405671Y-94660970D01*
X62382572Y-94669235D01*
X62358773Y-94675196D01*
X62334505Y-94678796D01*
X62310001Y-94680000D01*
X61659999Y-94680000D01*
X61635495Y-94678796D01*
X61611227Y-94675196D01*
X61587428Y-94669235D01*
X61564329Y-94660970D01*
X61542150Y-94650480D01*
X61521107Y-94637868D01*
X61501401Y-94623253D01*
X61483223Y-94606777D01*
X61466747Y-94588599D01*
X61452132Y-94568893D01*
X61439520Y-94547850D01*
X61429030Y-94525671D01*
X61420765Y-94502572D01*
X61414804Y-94478773D01*
X61411204Y-94454505D01*
X61410000Y-94430001D01*
X61410000Y-93529999D01*
X61411204Y-93505495D01*
X61414804Y-93481227D01*
X61420765Y-93457428D01*
X61429030Y-93434329D01*
X61439520Y-93412150D01*
X61452132Y-93391107D01*
X61466747Y-93371401D01*
X61483223Y-93353223D01*
X61501401Y-93336747D01*
X61521107Y-93322132D01*
X61542150Y-93309520D01*
X61564329Y-93299030D01*
X61587428Y-93290765D01*
X61611227Y-93284804D01*
X61635495Y-93281204D01*
X61659999Y-93280000D01*
X62310001Y-93280000D01*
X62334505Y-93281204D01*
X62334505Y-93281204D01*
G37*
D14*
X61985000Y-93980000D03*
D13*
G36*
X60284505Y-93281204D02*
X60308773Y-93284804D01*
X60332572Y-93290765D01*
X60355671Y-93299030D01*
X60377850Y-93309520D01*
X60398893Y-93322132D01*
X60418599Y-93336747D01*
X60436777Y-93353223D01*
X60453253Y-93371401D01*
X60467868Y-93391107D01*
X60480480Y-93412150D01*
X60490970Y-93434329D01*
X60499235Y-93457428D01*
X60505196Y-93481227D01*
X60508796Y-93505495D01*
X60510000Y-93529999D01*
X60510000Y-94430001D01*
X60508796Y-94454505D01*
X60505196Y-94478773D01*
X60499235Y-94502572D01*
X60490970Y-94525671D01*
X60480480Y-94547850D01*
X60467868Y-94568893D01*
X60453253Y-94588599D01*
X60436777Y-94606777D01*
X60418599Y-94623253D01*
X60398893Y-94637868D01*
X60377850Y-94650480D01*
X60355671Y-94660970D01*
X60332572Y-94669235D01*
X60308773Y-94675196D01*
X60284505Y-94678796D01*
X60260001Y-94680000D01*
X59609999Y-94680000D01*
X59585495Y-94678796D01*
X59561227Y-94675196D01*
X59537428Y-94669235D01*
X59514329Y-94660970D01*
X59492150Y-94650480D01*
X59471107Y-94637868D01*
X59451401Y-94623253D01*
X59433223Y-94606777D01*
X59416747Y-94588599D01*
X59402132Y-94568893D01*
X59389520Y-94547850D01*
X59379030Y-94525671D01*
X59370765Y-94502572D01*
X59364804Y-94478773D01*
X59361204Y-94454505D01*
X59360000Y-94430001D01*
X59360000Y-93529999D01*
X59361204Y-93505495D01*
X59364804Y-93481227D01*
X59370765Y-93457428D01*
X59379030Y-93434329D01*
X59389520Y-93412150D01*
X59402132Y-93391107D01*
X59416747Y-93371401D01*
X59433223Y-93353223D01*
X59451401Y-93336747D01*
X59471107Y-93322132D01*
X59492150Y-93309520D01*
X59514329Y-93299030D01*
X59537428Y-93290765D01*
X59561227Y-93284804D01*
X59585495Y-93281204D01*
X59609999Y-93280000D01*
X60260001Y-93280000D01*
X60284505Y-93281204D01*
X60284505Y-93281204D01*
G37*
D14*
X59935000Y-93980000D03*
G04 #@! TD*
D13*
G04 #@! TO.C,R_MODE1*
G36*
X74769505Y-91256204D02*
X74793773Y-91259804D01*
X74817572Y-91265765D01*
X74840671Y-91274030D01*
X74862850Y-91284520D01*
X74883893Y-91297132D01*
X74903599Y-91311747D01*
X74921777Y-91328223D01*
X74938253Y-91346401D01*
X74952868Y-91366107D01*
X74965480Y-91387150D01*
X74975970Y-91409329D01*
X74984235Y-91432428D01*
X74990196Y-91456227D01*
X74993796Y-91480495D01*
X74995000Y-91504999D01*
X74995000Y-92155001D01*
X74993796Y-92179505D01*
X74990196Y-92203773D01*
X74984235Y-92227572D01*
X74975970Y-92250671D01*
X74965480Y-92272850D01*
X74952868Y-92293893D01*
X74938253Y-92313599D01*
X74921777Y-92331777D01*
X74903599Y-92348253D01*
X74883893Y-92362868D01*
X74862850Y-92375480D01*
X74840671Y-92385970D01*
X74817572Y-92394235D01*
X74793773Y-92400196D01*
X74769505Y-92403796D01*
X74745001Y-92405000D01*
X73844999Y-92405000D01*
X73820495Y-92403796D01*
X73796227Y-92400196D01*
X73772428Y-92394235D01*
X73749329Y-92385970D01*
X73727150Y-92375480D01*
X73706107Y-92362868D01*
X73686401Y-92348253D01*
X73668223Y-92331777D01*
X73651747Y-92313599D01*
X73637132Y-92293893D01*
X73624520Y-92272850D01*
X73614030Y-92250671D01*
X73605765Y-92227572D01*
X73599804Y-92203773D01*
X73596204Y-92179505D01*
X73595000Y-92155001D01*
X73595000Y-91504999D01*
X73596204Y-91480495D01*
X73599804Y-91456227D01*
X73605765Y-91432428D01*
X73614030Y-91409329D01*
X73624520Y-91387150D01*
X73637132Y-91366107D01*
X73651747Y-91346401D01*
X73668223Y-91328223D01*
X73686401Y-91311747D01*
X73706107Y-91297132D01*
X73727150Y-91284520D01*
X73749329Y-91274030D01*
X73772428Y-91265765D01*
X73796227Y-91259804D01*
X73820495Y-91256204D01*
X73844999Y-91255000D01*
X74745001Y-91255000D01*
X74769505Y-91256204D01*
X74769505Y-91256204D01*
G37*
D14*
X74295000Y-91830000D03*
D13*
G36*
X74769505Y-89206204D02*
X74793773Y-89209804D01*
X74817572Y-89215765D01*
X74840671Y-89224030D01*
X74862850Y-89234520D01*
X74883893Y-89247132D01*
X74903599Y-89261747D01*
X74921777Y-89278223D01*
X74938253Y-89296401D01*
X74952868Y-89316107D01*
X74965480Y-89337150D01*
X74975970Y-89359329D01*
X74984235Y-89382428D01*
X74990196Y-89406227D01*
X74993796Y-89430495D01*
X74995000Y-89454999D01*
X74995000Y-90105001D01*
X74993796Y-90129505D01*
X74990196Y-90153773D01*
X74984235Y-90177572D01*
X74975970Y-90200671D01*
X74965480Y-90222850D01*
X74952868Y-90243893D01*
X74938253Y-90263599D01*
X74921777Y-90281777D01*
X74903599Y-90298253D01*
X74883893Y-90312868D01*
X74862850Y-90325480D01*
X74840671Y-90335970D01*
X74817572Y-90344235D01*
X74793773Y-90350196D01*
X74769505Y-90353796D01*
X74745001Y-90355000D01*
X73844999Y-90355000D01*
X73820495Y-90353796D01*
X73796227Y-90350196D01*
X73772428Y-90344235D01*
X73749329Y-90335970D01*
X73727150Y-90325480D01*
X73706107Y-90312868D01*
X73686401Y-90298253D01*
X73668223Y-90281777D01*
X73651747Y-90263599D01*
X73637132Y-90243893D01*
X73624520Y-90222850D01*
X73614030Y-90200671D01*
X73605765Y-90177572D01*
X73599804Y-90153773D01*
X73596204Y-90129505D01*
X73595000Y-90105001D01*
X73595000Y-89454999D01*
X73596204Y-89430495D01*
X73599804Y-89406227D01*
X73605765Y-89382428D01*
X73614030Y-89359329D01*
X73624520Y-89337150D01*
X73637132Y-89316107D01*
X73651747Y-89296401D01*
X73668223Y-89278223D01*
X73686401Y-89261747D01*
X73706107Y-89247132D01*
X73727150Y-89234520D01*
X73749329Y-89224030D01*
X73772428Y-89215765D01*
X73796227Y-89209804D01*
X73820495Y-89206204D01*
X73844999Y-89205000D01*
X74745001Y-89205000D01*
X74769505Y-89206204D01*
X74769505Y-89206204D01*
G37*
D14*
X74295000Y-89780000D03*
G04 #@! TD*
D13*
G04 #@! TO.C,R_PD1*
G36*
X103464505Y-128841204D02*
X103488773Y-128844804D01*
X103512572Y-128850765D01*
X103535671Y-128859030D01*
X103557850Y-128869520D01*
X103578893Y-128882132D01*
X103598599Y-128896747D01*
X103616777Y-128913223D01*
X103633253Y-128931401D01*
X103647868Y-128951107D01*
X103660480Y-128972150D01*
X103670970Y-128994329D01*
X103679235Y-129017428D01*
X103685196Y-129041227D01*
X103688796Y-129065495D01*
X103690000Y-129089999D01*
X103690000Y-129990001D01*
X103688796Y-130014505D01*
X103685196Y-130038773D01*
X103679235Y-130062572D01*
X103670970Y-130085671D01*
X103660480Y-130107850D01*
X103647868Y-130128893D01*
X103633253Y-130148599D01*
X103616777Y-130166777D01*
X103598599Y-130183253D01*
X103578893Y-130197868D01*
X103557850Y-130210480D01*
X103535671Y-130220970D01*
X103512572Y-130229235D01*
X103488773Y-130235196D01*
X103464505Y-130238796D01*
X103440001Y-130240000D01*
X102789999Y-130240000D01*
X102765495Y-130238796D01*
X102741227Y-130235196D01*
X102717428Y-130229235D01*
X102694329Y-130220970D01*
X102672150Y-130210480D01*
X102651107Y-130197868D01*
X102631401Y-130183253D01*
X102613223Y-130166777D01*
X102596747Y-130148599D01*
X102582132Y-130128893D01*
X102569520Y-130107850D01*
X102559030Y-130085671D01*
X102550765Y-130062572D01*
X102544804Y-130038773D01*
X102541204Y-130014505D01*
X102540000Y-129990001D01*
X102540000Y-129089999D01*
X102541204Y-129065495D01*
X102544804Y-129041227D01*
X102550765Y-129017428D01*
X102559030Y-128994329D01*
X102569520Y-128972150D01*
X102582132Y-128951107D01*
X102596747Y-128931401D01*
X102613223Y-128913223D01*
X102631401Y-128896747D01*
X102651107Y-128882132D01*
X102672150Y-128869520D01*
X102694329Y-128859030D01*
X102717428Y-128850765D01*
X102741227Y-128844804D01*
X102765495Y-128841204D01*
X102789999Y-128840000D01*
X103440001Y-128840000D01*
X103464505Y-128841204D01*
X103464505Y-128841204D01*
G37*
D14*
X103115000Y-129540000D03*
D13*
G36*
X105514505Y-128841204D02*
X105538773Y-128844804D01*
X105562572Y-128850765D01*
X105585671Y-128859030D01*
X105607850Y-128869520D01*
X105628893Y-128882132D01*
X105648599Y-128896747D01*
X105666777Y-128913223D01*
X105683253Y-128931401D01*
X105697868Y-128951107D01*
X105710480Y-128972150D01*
X105720970Y-128994329D01*
X105729235Y-129017428D01*
X105735196Y-129041227D01*
X105738796Y-129065495D01*
X105740000Y-129089999D01*
X105740000Y-129990001D01*
X105738796Y-130014505D01*
X105735196Y-130038773D01*
X105729235Y-130062572D01*
X105720970Y-130085671D01*
X105710480Y-130107850D01*
X105697868Y-130128893D01*
X105683253Y-130148599D01*
X105666777Y-130166777D01*
X105648599Y-130183253D01*
X105628893Y-130197868D01*
X105607850Y-130210480D01*
X105585671Y-130220970D01*
X105562572Y-130229235D01*
X105538773Y-130235196D01*
X105514505Y-130238796D01*
X105490001Y-130240000D01*
X104839999Y-130240000D01*
X104815495Y-130238796D01*
X104791227Y-130235196D01*
X104767428Y-130229235D01*
X104744329Y-130220970D01*
X104722150Y-130210480D01*
X104701107Y-130197868D01*
X104681401Y-130183253D01*
X104663223Y-130166777D01*
X104646747Y-130148599D01*
X104632132Y-130128893D01*
X104619520Y-130107850D01*
X104609030Y-130085671D01*
X104600765Y-130062572D01*
X104594804Y-130038773D01*
X104591204Y-130014505D01*
X104590000Y-129990001D01*
X104590000Y-129089999D01*
X104591204Y-129065495D01*
X104594804Y-129041227D01*
X104600765Y-129017428D01*
X104609030Y-128994329D01*
X104619520Y-128972150D01*
X104632132Y-128951107D01*
X104646747Y-128931401D01*
X104663223Y-128913223D01*
X104681401Y-128896747D01*
X104701107Y-128882132D01*
X104722150Y-128869520D01*
X104744329Y-128859030D01*
X104767428Y-128850765D01*
X104791227Y-128844804D01*
X104815495Y-128841204D01*
X104839999Y-128840000D01*
X105490001Y-128840000D01*
X105514505Y-128841204D01*
X105514505Y-128841204D01*
G37*
D14*
X105165000Y-129540000D03*
G04 #@! TD*
D19*
G04 #@! TO.C,D_HI1*
X75820000Y-81280000D03*
X79120000Y-81280000D03*
G04 #@! TD*
G04 #@! TO.C,D_HI2*
X86740000Y-81280000D03*
X83440000Y-81280000D03*
G04 #@! TD*
D20*
G04 #@! TO.C,D_HI3*
X104648000Y-81279000D03*
X104648000Y-77979000D03*
G04 #@! TD*
D19*
G04 #@! TO.C,D_LO1*
X82424000Y-72771000D03*
X85724000Y-72771000D03*
G04 #@! TD*
G04 #@! TO.C,D_LO2*
X79120000Y-72771000D03*
X75820000Y-72771000D03*
G04 #@! TD*
D20*
G04 #@! TO.C,D_LO3*
X56896000Y-74042000D03*
X56896000Y-77342000D03*
G04 #@! TD*
D13*
G04 #@! TO.C,R_MLED1*
G36*
X76794505Y-84391204D02*
X76818773Y-84394804D01*
X76842572Y-84400765D01*
X76865671Y-84409030D01*
X76887850Y-84419520D01*
X76908893Y-84432132D01*
X76928599Y-84446747D01*
X76946777Y-84463223D01*
X76963253Y-84481401D01*
X76977868Y-84501107D01*
X76990480Y-84522150D01*
X77000970Y-84544329D01*
X77009235Y-84567428D01*
X77015196Y-84591227D01*
X77018796Y-84615495D01*
X77020000Y-84639999D01*
X77020000Y-85540001D01*
X77018796Y-85564505D01*
X77015196Y-85588773D01*
X77009235Y-85612572D01*
X77000970Y-85635671D01*
X76990480Y-85657850D01*
X76977868Y-85678893D01*
X76963253Y-85698599D01*
X76946777Y-85716777D01*
X76928599Y-85733253D01*
X76908893Y-85747868D01*
X76887850Y-85760480D01*
X76865671Y-85770970D01*
X76842572Y-85779235D01*
X76818773Y-85785196D01*
X76794505Y-85788796D01*
X76770001Y-85790000D01*
X76119999Y-85790000D01*
X76095495Y-85788796D01*
X76071227Y-85785196D01*
X76047428Y-85779235D01*
X76024329Y-85770970D01*
X76002150Y-85760480D01*
X75981107Y-85747868D01*
X75961401Y-85733253D01*
X75943223Y-85716777D01*
X75926747Y-85698599D01*
X75912132Y-85678893D01*
X75899520Y-85657850D01*
X75889030Y-85635671D01*
X75880765Y-85612572D01*
X75874804Y-85588773D01*
X75871204Y-85564505D01*
X75870000Y-85540001D01*
X75870000Y-84639999D01*
X75871204Y-84615495D01*
X75874804Y-84591227D01*
X75880765Y-84567428D01*
X75889030Y-84544329D01*
X75899520Y-84522150D01*
X75912132Y-84501107D01*
X75926747Y-84481401D01*
X75943223Y-84463223D01*
X75961401Y-84446747D01*
X75981107Y-84432132D01*
X76002150Y-84419520D01*
X76024329Y-84409030D01*
X76047428Y-84400765D01*
X76071227Y-84394804D01*
X76095495Y-84391204D01*
X76119999Y-84390000D01*
X76770001Y-84390000D01*
X76794505Y-84391204D01*
X76794505Y-84391204D01*
G37*
D14*
X76445000Y-85090000D03*
D13*
G36*
X78844505Y-84391204D02*
X78868773Y-84394804D01*
X78892572Y-84400765D01*
X78915671Y-84409030D01*
X78937850Y-84419520D01*
X78958893Y-84432132D01*
X78978599Y-84446747D01*
X78996777Y-84463223D01*
X79013253Y-84481401D01*
X79027868Y-84501107D01*
X79040480Y-84522150D01*
X79050970Y-84544329D01*
X79059235Y-84567428D01*
X79065196Y-84591227D01*
X79068796Y-84615495D01*
X79070000Y-84639999D01*
X79070000Y-85540001D01*
X79068796Y-85564505D01*
X79065196Y-85588773D01*
X79059235Y-85612572D01*
X79050970Y-85635671D01*
X79040480Y-85657850D01*
X79027868Y-85678893D01*
X79013253Y-85698599D01*
X78996777Y-85716777D01*
X78978599Y-85733253D01*
X78958893Y-85747868D01*
X78937850Y-85760480D01*
X78915671Y-85770970D01*
X78892572Y-85779235D01*
X78868773Y-85785196D01*
X78844505Y-85788796D01*
X78820001Y-85790000D01*
X78169999Y-85790000D01*
X78145495Y-85788796D01*
X78121227Y-85785196D01*
X78097428Y-85779235D01*
X78074329Y-85770970D01*
X78052150Y-85760480D01*
X78031107Y-85747868D01*
X78011401Y-85733253D01*
X77993223Y-85716777D01*
X77976747Y-85698599D01*
X77962132Y-85678893D01*
X77949520Y-85657850D01*
X77939030Y-85635671D01*
X77930765Y-85612572D01*
X77924804Y-85588773D01*
X77921204Y-85564505D01*
X77920000Y-85540001D01*
X77920000Y-84639999D01*
X77921204Y-84615495D01*
X77924804Y-84591227D01*
X77930765Y-84567428D01*
X77939030Y-84544329D01*
X77949520Y-84522150D01*
X77962132Y-84501107D01*
X77976747Y-84481401D01*
X77993223Y-84463223D01*
X78011401Y-84446747D01*
X78031107Y-84432132D01*
X78052150Y-84419520D01*
X78074329Y-84409030D01*
X78097428Y-84400765D01*
X78121227Y-84394804D01*
X78145495Y-84391204D01*
X78169999Y-84390000D01*
X78820001Y-84390000D01*
X78844505Y-84391204D01*
X78844505Y-84391204D01*
G37*
D14*
X78495000Y-85090000D03*
G04 #@! TD*
M02*
