G04 #@! TF.GenerationSoftware,KiCad,Pcbnew,(5.0.0-3-g5ebb6b6)*
G04 #@! TF.CreationDate,2018-11-29T05:39:13+00:00*
G04 #@! TF.ProjectId,Atomizer,41746F6D697A65722E6B696361645F70,rev?*
G04 #@! TF.SameCoordinates,Original*
G04 #@! TF.FileFunction,Soldermask,Bot*
G04 #@! TF.FilePolarity,Negative*
%FSLAX46Y46*%
G04 Gerber Fmt 4.6, Leading zero omitted, Abs format (unit mm)*
G04 Created by KiCad (PCBNEW (5.0.0-3-g5ebb6b6)) date Thursday, 29 November 2018 at 05:39:13*
%MOMM*%
%LPD*%
G01*
G04 APERTURE LIST*
%ADD10C,2.400000*%
%ADD11C,3.400000*%
%ADD12C,4.400000*%
%ADD13C,2.200000*%
%ADD14O,2.100000X2.100000*%
%ADD15R,2.100000X2.100000*%
%ADD16C,0.100000*%
%ADD17C,1.550000*%
%ADD18O,3.900000X3.400000*%
%ADD19R,2.200000X2.200000*%
%ADD20R,3.900000X3.900000*%
%ADD21C,3.900000*%
%ADD22R,1.898000X1.898000*%
%ADD23C,1.898000*%
%ADD24C,0.254000*%
G04 APERTURE END LIST*
D10*
G04 #@! TO.C,J_IN1*
X100393500Y-112395000D03*
X100393500Y-123825000D03*
D11*
X103568500Y-123825000D03*
X103568500Y-112395000D03*
X90868500Y-112395000D03*
X90868500Y-123825000D03*
G04 #@! TD*
D10*
G04 #@! TO.C,J_OUT1*
X60896500Y-123825000D03*
X60896500Y-112395000D03*
D11*
X57721500Y-112395000D03*
X57721500Y-123825000D03*
X70421500Y-123825000D03*
X70421500Y-112395000D03*
G04 #@! TD*
D12*
G04 #@! TO.C,P_VOL1*
X90460000Y-105290000D03*
X99960000Y-105290000D03*
D13*
X92710000Y-97790000D03*
X95210000Y-97790000D03*
X97710000Y-97790000D03*
G04 #@! TD*
G04 #@! TO.C,P_OSCON1*
X63580000Y-83820000D03*
X66080000Y-83820000D03*
X68580000Y-83820000D03*
D12*
X61330000Y-76320000D03*
X70830000Y-76320000D03*
G04 #@! TD*
D14*
G04 #@! TO.C,J_AUXTOMAIN1*
X95504000Y-154940000D03*
X95504000Y-157480000D03*
X95504000Y-160020000D03*
X95504000Y-162560000D03*
X95504000Y-165100000D03*
X98044000Y-165100000D03*
X98044000Y-162560000D03*
X98044000Y-160020000D03*
X98044000Y-157480000D03*
D15*
X98044000Y-154940000D03*
G04 #@! TD*
D16*
G04 #@! TO.C,R_LPF1*
G36*
X76796071Y-105516623D02*
X76828781Y-105521475D01*
X76860857Y-105529509D01*
X76891991Y-105540649D01*
X76921884Y-105554787D01*
X76950247Y-105571787D01*
X76976807Y-105591485D01*
X77001308Y-105613692D01*
X77023515Y-105638193D01*
X77043213Y-105664753D01*
X77060213Y-105693116D01*
X77074351Y-105723009D01*
X77085491Y-105754143D01*
X77093525Y-105786219D01*
X77098377Y-105818929D01*
X77100000Y-105851956D01*
X77100000Y-106728044D01*
X77098377Y-106761071D01*
X77093525Y-106793781D01*
X77085491Y-106825857D01*
X77074351Y-106856991D01*
X77060213Y-106886884D01*
X77043213Y-106915247D01*
X77023515Y-106941807D01*
X77001308Y-106966308D01*
X76976807Y-106988515D01*
X76950247Y-107008213D01*
X76921884Y-107025213D01*
X76891991Y-107039351D01*
X76860857Y-107050491D01*
X76828781Y-107058525D01*
X76796071Y-107063377D01*
X76763044Y-107065000D01*
X75636956Y-107065000D01*
X75603929Y-107063377D01*
X75571219Y-107058525D01*
X75539143Y-107050491D01*
X75508009Y-107039351D01*
X75478116Y-107025213D01*
X75449753Y-107008213D01*
X75423193Y-106988515D01*
X75398692Y-106966308D01*
X75376485Y-106941807D01*
X75356787Y-106915247D01*
X75339787Y-106886884D01*
X75325649Y-106856991D01*
X75314509Y-106825857D01*
X75306475Y-106793781D01*
X75301623Y-106761071D01*
X75300000Y-106728044D01*
X75300000Y-105851956D01*
X75301623Y-105818929D01*
X75306475Y-105786219D01*
X75314509Y-105754143D01*
X75325649Y-105723009D01*
X75339787Y-105693116D01*
X75356787Y-105664753D01*
X75376485Y-105638193D01*
X75398692Y-105613692D01*
X75423193Y-105591485D01*
X75449753Y-105571787D01*
X75478116Y-105554787D01*
X75508009Y-105540649D01*
X75539143Y-105529509D01*
X75571219Y-105521475D01*
X75603929Y-105516623D01*
X75636956Y-105515000D01*
X76763044Y-105515000D01*
X76796071Y-105516623D01*
X76796071Y-105516623D01*
G37*
D17*
X76200000Y-106290000D03*
D16*
G36*
X76796071Y-107566623D02*
X76828781Y-107571475D01*
X76860857Y-107579509D01*
X76891991Y-107590649D01*
X76921884Y-107604787D01*
X76950247Y-107621787D01*
X76976807Y-107641485D01*
X77001308Y-107663692D01*
X77023515Y-107688193D01*
X77043213Y-107714753D01*
X77060213Y-107743116D01*
X77074351Y-107773009D01*
X77085491Y-107804143D01*
X77093525Y-107836219D01*
X77098377Y-107868929D01*
X77100000Y-107901956D01*
X77100000Y-108778044D01*
X77098377Y-108811071D01*
X77093525Y-108843781D01*
X77085491Y-108875857D01*
X77074351Y-108906991D01*
X77060213Y-108936884D01*
X77043213Y-108965247D01*
X77023515Y-108991807D01*
X77001308Y-109016308D01*
X76976807Y-109038515D01*
X76950247Y-109058213D01*
X76921884Y-109075213D01*
X76891991Y-109089351D01*
X76860857Y-109100491D01*
X76828781Y-109108525D01*
X76796071Y-109113377D01*
X76763044Y-109115000D01*
X75636956Y-109115000D01*
X75603929Y-109113377D01*
X75571219Y-109108525D01*
X75539143Y-109100491D01*
X75508009Y-109089351D01*
X75478116Y-109075213D01*
X75449753Y-109058213D01*
X75423193Y-109038515D01*
X75398692Y-109016308D01*
X75376485Y-108991807D01*
X75356787Y-108965247D01*
X75339787Y-108936884D01*
X75325649Y-108906991D01*
X75314509Y-108875857D01*
X75306475Y-108843781D01*
X75301623Y-108811071D01*
X75300000Y-108778044D01*
X75300000Y-107901956D01*
X75301623Y-107868929D01*
X75306475Y-107836219D01*
X75314509Y-107804143D01*
X75325649Y-107773009D01*
X75339787Y-107743116D01*
X75356787Y-107714753D01*
X75376485Y-107688193D01*
X75398692Y-107663692D01*
X75423193Y-107641485D01*
X75449753Y-107621787D01*
X75478116Y-107604787D01*
X75508009Y-107590649D01*
X75539143Y-107579509D01*
X75571219Y-107571475D01*
X75603929Y-107566623D01*
X75636956Y-107565000D01*
X76763044Y-107565000D01*
X76796071Y-107566623D01*
X76796071Y-107566623D01*
G37*
D17*
X76200000Y-108340000D03*
G04 #@! TD*
D18*
G04 #@! TO.C,SW_EN1*
X85836760Y-164851080D03*
X80563720Y-164838380D03*
X75247500Y-164833300D03*
X85852000Y-160045400D03*
X80556100Y-160045400D03*
X75247500Y-160045400D03*
X85864700Y-155244800D03*
X80556100Y-155244800D03*
X75247500Y-155244800D03*
G04 #@! TD*
D16*
G04 #@! TO.C,R_GAIN1*
G36*
X99667071Y-100257123D02*
X99699781Y-100261975D01*
X99731857Y-100270009D01*
X99762991Y-100281149D01*
X99792884Y-100295287D01*
X99821247Y-100312287D01*
X99847807Y-100331985D01*
X99872308Y-100354192D01*
X99894515Y-100378693D01*
X99914213Y-100405253D01*
X99931213Y-100433616D01*
X99945351Y-100463509D01*
X99956491Y-100494643D01*
X99964525Y-100526719D01*
X99969377Y-100559429D01*
X99971000Y-100592456D01*
X99971000Y-101718544D01*
X99969377Y-101751571D01*
X99964525Y-101784281D01*
X99956491Y-101816357D01*
X99945351Y-101847491D01*
X99931213Y-101877384D01*
X99914213Y-101905747D01*
X99894515Y-101932307D01*
X99872308Y-101956808D01*
X99847807Y-101979015D01*
X99821247Y-101998713D01*
X99792884Y-102015713D01*
X99762991Y-102029851D01*
X99731857Y-102040991D01*
X99699781Y-102049025D01*
X99667071Y-102053877D01*
X99634044Y-102055500D01*
X98757956Y-102055500D01*
X98724929Y-102053877D01*
X98692219Y-102049025D01*
X98660143Y-102040991D01*
X98629009Y-102029851D01*
X98599116Y-102015713D01*
X98570753Y-101998713D01*
X98544193Y-101979015D01*
X98519692Y-101956808D01*
X98497485Y-101932307D01*
X98477787Y-101905747D01*
X98460787Y-101877384D01*
X98446649Y-101847491D01*
X98435509Y-101816357D01*
X98427475Y-101784281D01*
X98422623Y-101751571D01*
X98421000Y-101718544D01*
X98421000Y-100592456D01*
X98422623Y-100559429D01*
X98427475Y-100526719D01*
X98435509Y-100494643D01*
X98446649Y-100463509D01*
X98460787Y-100433616D01*
X98477787Y-100405253D01*
X98497485Y-100378693D01*
X98519692Y-100354192D01*
X98544193Y-100331985D01*
X98570753Y-100312287D01*
X98599116Y-100295287D01*
X98629009Y-100281149D01*
X98660143Y-100270009D01*
X98692219Y-100261975D01*
X98724929Y-100257123D01*
X98757956Y-100255500D01*
X99634044Y-100255500D01*
X99667071Y-100257123D01*
X99667071Y-100257123D01*
G37*
D17*
X99196000Y-101155500D03*
D16*
G36*
X97617071Y-100257123D02*
X97649781Y-100261975D01*
X97681857Y-100270009D01*
X97712991Y-100281149D01*
X97742884Y-100295287D01*
X97771247Y-100312287D01*
X97797807Y-100331985D01*
X97822308Y-100354192D01*
X97844515Y-100378693D01*
X97864213Y-100405253D01*
X97881213Y-100433616D01*
X97895351Y-100463509D01*
X97906491Y-100494643D01*
X97914525Y-100526719D01*
X97919377Y-100559429D01*
X97921000Y-100592456D01*
X97921000Y-101718544D01*
X97919377Y-101751571D01*
X97914525Y-101784281D01*
X97906491Y-101816357D01*
X97895351Y-101847491D01*
X97881213Y-101877384D01*
X97864213Y-101905747D01*
X97844515Y-101932307D01*
X97822308Y-101956808D01*
X97797807Y-101979015D01*
X97771247Y-101998713D01*
X97742884Y-102015713D01*
X97712991Y-102029851D01*
X97681857Y-102040991D01*
X97649781Y-102049025D01*
X97617071Y-102053877D01*
X97584044Y-102055500D01*
X96707956Y-102055500D01*
X96674929Y-102053877D01*
X96642219Y-102049025D01*
X96610143Y-102040991D01*
X96579009Y-102029851D01*
X96549116Y-102015713D01*
X96520753Y-101998713D01*
X96494193Y-101979015D01*
X96469692Y-101956808D01*
X96447485Y-101932307D01*
X96427787Y-101905747D01*
X96410787Y-101877384D01*
X96396649Y-101847491D01*
X96385509Y-101816357D01*
X96377475Y-101784281D01*
X96372623Y-101751571D01*
X96371000Y-101718544D01*
X96371000Y-100592456D01*
X96372623Y-100559429D01*
X96377475Y-100526719D01*
X96385509Y-100494643D01*
X96396649Y-100463509D01*
X96410787Y-100433616D01*
X96427787Y-100405253D01*
X96447485Y-100378693D01*
X96469692Y-100354192D01*
X96494193Y-100331985D01*
X96520753Y-100312287D01*
X96549116Y-100295287D01*
X96579009Y-100281149D01*
X96610143Y-100270009D01*
X96642219Y-100261975D01*
X96674929Y-100257123D01*
X96707956Y-100255500D01*
X97584044Y-100255500D01*
X97617071Y-100257123D01*
X97617071Y-100257123D01*
G37*
D17*
X97146000Y-101155500D03*
G04 #@! TD*
D19*
G04 #@! TO.C,D_LED1*
X80708741Y-105918000D03*
D13*
X80708741Y-108458000D03*
G04 #@! TD*
D20*
G04 #@! TO.C,J_PWR1*
X67310000Y-132715000D03*
D16*
G36*
X62243315Y-130769093D02*
X62325827Y-130781333D01*
X62406742Y-130801601D01*
X62485281Y-130829702D01*
X62560687Y-130865367D01*
X62632235Y-130908251D01*
X62699234Y-130957941D01*
X62761041Y-131013959D01*
X62817059Y-131075766D01*
X62866749Y-131142765D01*
X62909633Y-131214313D01*
X62945298Y-131289719D01*
X62973399Y-131368258D01*
X62993667Y-131449173D01*
X63005907Y-131531685D01*
X63010000Y-131615000D01*
X63010000Y-133815000D01*
X63005907Y-133898315D01*
X62993667Y-133980827D01*
X62973399Y-134061742D01*
X62945298Y-134140281D01*
X62909633Y-134215687D01*
X62866749Y-134287235D01*
X62817059Y-134354234D01*
X62761041Y-134416041D01*
X62699234Y-134472059D01*
X62632235Y-134521749D01*
X62560687Y-134564633D01*
X62485281Y-134600298D01*
X62406742Y-134628399D01*
X62325827Y-134648667D01*
X62243315Y-134660907D01*
X62160000Y-134665000D01*
X60460000Y-134665000D01*
X60376685Y-134660907D01*
X60294173Y-134648667D01*
X60213258Y-134628399D01*
X60134719Y-134600298D01*
X60059313Y-134564633D01*
X59987765Y-134521749D01*
X59920766Y-134472059D01*
X59858959Y-134416041D01*
X59802941Y-134354234D01*
X59753251Y-134287235D01*
X59710367Y-134215687D01*
X59674702Y-134140281D01*
X59646601Y-134061742D01*
X59626333Y-133980827D01*
X59614093Y-133898315D01*
X59610000Y-133815000D01*
X59610000Y-131615000D01*
X59614093Y-131531685D01*
X59626333Y-131449173D01*
X59646601Y-131368258D01*
X59674702Y-131289719D01*
X59710367Y-131214313D01*
X59753251Y-131142765D01*
X59802941Y-131075766D01*
X59858959Y-131013959D01*
X59920766Y-130957941D01*
X59987765Y-130908251D01*
X60059313Y-130865367D01*
X60134719Y-130829702D01*
X60213258Y-130801601D01*
X60294173Y-130781333D01*
X60376685Y-130769093D01*
X60460000Y-130765000D01*
X62160000Y-130765000D01*
X62243315Y-130769093D01*
X62243315Y-130769093D01*
G37*
D11*
X61310000Y-132715000D03*
D16*
G36*
X65380567Y-126069695D02*
X65475213Y-126083734D01*
X65568028Y-126106983D01*
X65658116Y-126139217D01*
X65744612Y-126180127D01*
X65826681Y-126229317D01*
X65903533Y-126286315D01*
X65974429Y-126350571D01*
X66038685Y-126421467D01*
X66095683Y-126498319D01*
X66144873Y-126580388D01*
X66185783Y-126666884D01*
X66218017Y-126756972D01*
X66241266Y-126849787D01*
X66255305Y-126944433D01*
X66260000Y-127040000D01*
X66260000Y-128990000D01*
X66255305Y-129085567D01*
X66241266Y-129180213D01*
X66218017Y-129273028D01*
X66185783Y-129363116D01*
X66144873Y-129449612D01*
X66095683Y-129531681D01*
X66038685Y-129608533D01*
X65974429Y-129679429D01*
X65903533Y-129743685D01*
X65826681Y-129800683D01*
X65744612Y-129849873D01*
X65658116Y-129890783D01*
X65568028Y-129923017D01*
X65475213Y-129946266D01*
X65380567Y-129960305D01*
X65285000Y-129965000D01*
X63335000Y-129965000D01*
X63239433Y-129960305D01*
X63144787Y-129946266D01*
X63051972Y-129923017D01*
X62961884Y-129890783D01*
X62875388Y-129849873D01*
X62793319Y-129800683D01*
X62716467Y-129743685D01*
X62645571Y-129679429D01*
X62581315Y-129608533D01*
X62524317Y-129531681D01*
X62475127Y-129449612D01*
X62434217Y-129363116D01*
X62401983Y-129273028D01*
X62378734Y-129180213D01*
X62364695Y-129085567D01*
X62360000Y-128990000D01*
X62360000Y-127040000D01*
X62364695Y-126944433D01*
X62378734Y-126849787D01*
X62401983Y-126756972D01*
X62434217Y-126666884D01*
X62475127Y-126580388D01*
X62524317Y-126498319D01*
X62581315Y-126421467D01*
X62645571Y-126350571D01*
X62716467Y-126286315D01*
X62793319Y-126229317D01*
X62875388Y-126180127D01*
X62961884Y-126139217D01*
X63051972Y-126106983D01*
X63144787Y-126083734D01*
X63239433Y-126069695D01*
X63335000Y-126065000D01*
X65285000Y-126065000D01*
X65380567Y-126069695D01*
X65380567Y-126069695D01*
G37*
D21*
X64310000Y-128015000D03*
G04 #@! TD*
D13*
G04 #@! TO.C,P_DEPTH1*
X92790000Y-83820000D03*
X95290000Y-83820000D03*
X97790000Y-83820000D03*
D12*
X90540000Y-76320000D03*
X100040000Y-76320000D03*
G04 #@! TD*
G04 #@! TO.C,P_OSCOFF1*
X61250000Y-105290000D03*
X70750000Y-105290000D03*
D13*
X63500000Y-97790000D03*
X66000000Y-97790000D03*
X68500000Y-97790000D03*
G04 #@! TD*
D10*
G04 #@! TO.C,SW_ATTACK1*
X80708741Y-99822000D03*
X83248741Y-99822000D03*
X78168741Y-99822000D03*
G04 #@! TD*
D15*
G04 #@! TO.C,J_MAINTOAUX1*
X86995000Y-128651000D03*
D14*
X84455000Y-128651000D03*
X81915000Y-128651000D03*
X79375000Y-128651000D03*
X76835000Y-128651000D03*
X76835000Y-131191000D03*
X79375000Y-131191000D03*
X81915000Y-131191000D03*
X84455000Y-131191000D03*
X86995000Y-131191000D03*
G04 #@! TD*
D15*
G04 #@! TO.C,J_ICSP1*
X57340500Y-90297000D03*
D14*
X59880500Y-90297000D03*
X57340500Y-87757000D03*
X59880500Y-87757000D03*
X57340500Y-85217000D03*
X59880500Y-85217000D03*
G04 #@! TD*
D22*
G04 #@! TO.C,SW_MODE1*
X83958500Y-93118500D03*
D23*
X83958500Y-88618500D03*
X77458500Y-93118500D03*
X77458500Y-88618500D03*
G04 #@! TD*
D13*
G04 #@! TO.C,D_LEDHI1*
X78295500Y-77216000D03*
D19*
X75755500Y-77216000D03*
G04 #@! TD*
G04 #@! TO.C,D_LEDLO1*
X83312000Y-77216000D03*
D13*
X85852000Y-77216000D03*
G04 #@! TD*
D24*
G36*
X87757000Y-146050000D02*
X79121000Y-146050000D01*
X79121000Y-137287000D01*
X87757000Y-137287000D01*
X87757000Y-146050000D01*
X87757000Y-146050000D01*
G37*
X87757000Y-146050000D02*
X79121000Y-146050000D01*
X79121000Y-137287000D01*
X87757000Y-137287000D01*
X87757000Y-146050000D01*
G36*
X98679000Y-145923000D02*
X90043000Y-145923000D01*
X90043000Y-137287000D01*
X98679000Y-137287000D01*
X98679000Y-145923000D01*
X98679000Y-145923000D01*
G37*
X98679000Y-145923000D02*
X90043000Y-145923000D01*
X90043000Y-137287000D01*
X98679000Y-137287000D01*
X98679000Y-145923000D01*
M02*
