G04 #@! TF.GenerationSoftware,KiCad,Pcbnew,(5.0.0-3-g5ebb6b6)*
G04 #@! TF.CreationDate,2018-11-29T05:39:13+00:00*
G04 #@! TF.ProjectId,Atomizer,41746F6D697A65722E6B696361645F70,rev?*
G04 #@! TF.SameCoordinates,Original*
G04 #@! TF.FileFunction,Paste,Bot*
G04 #@! TF.FilePolarity,Positive*
%FSLAX46Y46*%
G04 Gerber Fmt 4.6, Leading zero omitted, Abs format (unit mm)*
G04 Created by KiCad (PCBNEW (5.0.0-3-g5ebb6b6)) date Thursday, 29 November 2018 at 05:39:13*
%MOMM*%
%LPD*%
G01*
G04 APERTURE LIST*
%ADD10C,0.100000*%
%ADD11C,1.150000*%
G04 APERTURE END LIST*
D10*
G04 #@! TO.C,R_LPF1*
G36*
X76674505Y-105716204D02*
X76698773Y-105719804D01*
X76722572Y-105725765D01*
X76745671Y-105734030D01*
X76767850Y-105744520D01*
X76788893Y-105757132D01*
X76808599Y-105771747D01*
X76826777Y-105788223D01*
X76843253Y-105806401D01*
X76857868Y-105826107D01*
X76870480Y-105847150D01*
X76880970Y-105869329D01*
X76889235Y-105892428D01*
X76895196Y-105916227D01*
X76898796Y-105940495D01*
X76900000Y-105964999D01*
X76900000Y-106615001D01*
X76898796Y-106639505D01*
X76895196Y-106663773D01*
X76889235Y-106687572D01*
X76880970Y-106710671D01*
X76870480Y-106732850D01*
X76857868Y-106753893D01*
X76843253Y-106773599D01*
X76826777Y-106791777D01*
X76808599Y-106808253D01*
X76788893Y-106822868D01*
X76767850Y-106835480D01*
X76745671Y-106845970D01*
X76722572Y-106854235D01*
X76698773Y-106860196D01*
X76674505Y-106863796D01*
X76650001Y-106865000D01*
X75749999Y-106865000D01*
X75725495Y-106863796D01*
X75701227Y-106860196D01*
X75677428Y-106854235D01*
X75654329Y-106845970D01*
X75632150Y-106835480D01*
X75611107Y-106822868D01*
X75591401Y-106808253D01*
X75573223Y-106791777D01*
X75556747Y-106773599D01*
X75542132Y-106753893D01*
X75529520Y-106732850D01*
X75519030Y-106710671D01*
X75510765Y-106687572D01*
X75504804Y-106663773D01*
X75501204Y-106639505D01*
X75500000Y-106615001D01*
X75500000Y-105964999D01*
X75501204Y-105940495D01*
X75504804Y-105916227D01*
X75510765Y-105892428D01*
X75519030Y-105869329D01*
X75529520Y-105847150D01*
X75542132Y-105826107D01*
X75556747Y-105806401D01*
X75573223Y-105788223D01*
X75591401Y-105771747D01*
X75611107Y-105757132D01*
X75632150Y-105744520D01*
X75654329Y-105734030D01*
X75677428Y-105725765D01*
X75701227Y-105719804D01*
X75725495Y-105716204D01*
X75749999Y-105715000D01*
X76650001Y-105715000D01*
X76674505Y-105716204D01*
X76674505Y-105716204D01*
G37*
D11*
X76200000Y-106290000D03*
D10*
G36*
X76674505Y-107766204D02*
X76698773Y-107769804D01*
X76722572Y-107775765D01*
X76745671Y-107784030D01*
X76767850Y-107794520D01*
X76788893Y-107807132D01*
X76808599Y-107821747D01*
X76826777Y-107838223D01*
X76843253Y-107856401D01*
X76857868Y-107876107D01*
X76870480Y-107897150D01*
X76880970Y-107919329D01*
X76889235Y-107942428D01*
X76895196Y-107966227D01*
X76898796Y-107990495D01*
X76900000Y-108014999D01*
X76900000Y-108665001D01*
X76898796Y-108689505D01*
X76895196Y-108713773D01*
X76889235Y-108737572D01*
X76880970Y-108760671D01*
X76870480Y-108782850D01*
X76857868Y-108803893D01*
X76843253Y-108823599D01*
X76826777Y-108841777D01*
X76808599Y-108858253D01*
X76788893Y-108872868D01*
X76767850Y-108885480D01*
X76745671Y-108895970D01*
X76722572Y-108904235D01*
X76698773Y-108910196D01*
X76674505Y-108913796D01*
X76650001Y-108915000D01*
X75749999Y-108915000D01*
X75725495Y-108913796D01*
X75701227Y-108910196D01*
X75677428Y-108904235D01*
X75654329Y-108895970D01*
X75632150Y-108885480D01*
X75611107Y-108872868D01*
X75591401Y-108858253D01*
X75573223Y-108841777D01*
X75556747Y-108823599D01*
X75542132Y-108803893D01*
X75529520Y-108782850D01*
X75519030Y-108760671D01*
X75510765Y-108737572D01*
X75504804Y-108713773D01*
X75501204Y-108689505D01*
X75500000Y-108665001D01*
X75500000Y-108014999D01*
X75501204Y-107990495D01*
X75504804Y-107966227D01*
X75510765Y-107942428D01*
X75519030Y-107919329D01*
X75529520Y-107897150D01*
X75542132Y-107876107D01*
X75556747Y-107856401D01*
X75573223Y-107838223D01*
X75591401Y-107821747D01*
X75611107Y-107807132D01*
X75632150Y-107794520D01*
X75654329Y-107784030D01*
X75677428Y-107775765D01*
X75701227Y-107769804D01*
X75725495Y-107766204D01*
X75749999Y-107765000D01*
X76650001Y-107765000D01*
X76674505Y-107766204D01*
X76674505Y-107766204D01*
G37*
D11*
X76200000Y-108340000D03*
G04 #@! TD*
D10*
G04 #@! TO.C,R_GAIN1*
G36*
X99545505Y-100456704D02*
X99569773Y-100460304D01*
X99593572Y-100466265D01*
X99616671Y-100474530D01*
X99638850Y-100485020D01*
X99659893Y-100497632D01*
X99679599Y-100512247D01*
X99697777Y-100528723D01*
X99714253Y-100546901D01*
X99728868Y-100566607D01*
X99741480Y-100587650D01*
X99751970Y-100609829D01*
X99760235Y-100632928D01*
X99766196Y-100656727D01*
X99769796Y-100680995D01*
X99771000Y-100705499D01*
X99771000Y-101605501D01*
X99769796Y-101630005D01*
X99766196Y-101654273D01*
X99760235Y-101678072D01*
X99751970Y-101701171D01*
X99741480Y-101723350D01*
X99728868Y-101744393D01*
X99714253Y-101764099D01*
X99697777Y-101782277D01*
X99679599Y-101798753D01*
X99659893Y-101813368D01*
X99638850Y-101825980D01*
X99616671Y-101836470D01*
X99593572Y-101844735D01*
X99569773Y-101850696D01*
X99545505Y-101854296D01*
X99521001Y-101855500D01*
X98870999Y-101855500D01*
X98846495Y-101854296D01*
X98822227Y-101850696D01*
X98798428Y-101844735D01*
X98775329Y-101836470D01*
X98753150Y-101825980D01*
X98732107Y-101813368D01*
X98712401Y-101798753D01*
X98694223Y-101782277D01*
X98677747Y-101764099D01*
X98663132Y-101744393D01*
X98650520Y-101723350D01*
X98640030Y-101701171D01*
X98631765Y-101678072D01*
X98625804Y-101654273D01*
X98622204Y-101630005D01*
X98621000Y-101605501D01*
X98621000Y-100705499D01*
X98622204Y-100680995D01*
X98625804Y-100656727D01*
X98631765Y-100632928D01*
X98640030Y-100609829D01*
X98650520Y-100587650D01*
X98663132Y-100566607D01*
X98677747Y-100546901D01*
X98694223Y-100528723D01*
X98712401Y-100512247D01*
X98732107Y-100497632D01*
X98753150Y-100485020D01*
X98775329Y-100474530D01*
X98798428Y-100466265D01*
X98822227Y-100460304D01*
X98846495Y-100456704D01*
X98870999Y-100455500D01*
X99521001Y-100455500D01*
X99545505Y-100456704D01*
X99545505Y-100456704D01*
G37*
D11*
X99196000Y-101155500D03*
D10*
G36*
X97495505Y-100456704D02*
X97519773Y-100460304D01*
X97543572Y-100466265D01*
X97566671Y-100474530D01*
X97588850Y-100485020D01*
X97609893Y-100497632D01*
X97629599Y-100512247D01*
X97647777Y-100528723D01*
X97664253Y-100546901D01*
X97678868Y-100566607D01*
X97691480Y-100587650D01*
X97701970Y-100609829D01*
X97710235Y-100632928D01*
X97716196Y-100656727D01*
X97719796Y-100680995D01*
X97721000Y-100705499D01*
X97721000Y-101605501D01*
X97719796Y-101630005D01*
X97716196Y-101654273D01*
X97710235Y-101678072D01*
X97701970Y-101701171D01*
X97691480Y-101723350D01*
X97678868Y-101744393D01*
X97664253Y-101764099D01*
X97647777Y-101782277D01*
X97629599Y-101798753D01*
X97609893Y-101813368D01*
X97588850Y-101825980D01*
X97566671Y-101836470D01*
X97543572Y-101844735D01*
X97519773Y-101850696D01*
X97495505Y-101854296D01*
X97471001Y-101855500D01*
X96820999Y-101855500D01*
X96796495Y-101854296D01*
X96772227Y-101850696D01*
X96748428Y-101844735D01*
X96725329Y-101836470D01*
X96703150Y-101825980D01*
X96682107Y-101813368D01*
X96662401Y-101798753D01*
X96644223Y-101782277D01*
X96627747Y-101764099D01*
X96613132Y-101744393D01*
X96600520Y-101723350D01*
X96590030Y-101701171D01*
X96581765Y-101678072D01*
X96575804Y-101654273D01*
X96572204Y-101630005D01*
X96571000Y-101605501D01*
X96571000Y-100705499D01*
X96572204Y-100680995D01*
X96575804Y-100656727D01*
X96581765Y-100632928D01*
X96590030Y-100609829D01*
X96600520Y-100587650D01*
X96613132Y-100566607D01*
X96627747Y-100546901D01*
X96644223Y-100528723D01*
X96662401Y-100512247D01*
X96682107Y-100497632D01*
X96703150Y-100485020D01*
X96725329Y-100474530D01*
X96748428Y-100466265D01*
X96772227Y-100460304D01*
X96796495Y-100456704D01*
X96820999Y-100455500D01*
X97471001Y-100455500D01*
X97495505Y-100456704D01*
X97495505Y-100456704D01*
G37*
D11*
X97146000Y-101155500D03*
G04 #@! TD*
M02*
