G04 #@! TF.GenerationSoftware,KiCad,Pcbnew,(5.0.0-3-g5ebb6b6)*
G04 #@! TF.CreationDate,2018-12-28T22:49:47+00:00*
G04 #@! TF.ProjectId,Atomizer,41746F6D697A65722E6B696361645F70,rev?*
G04 #@! TF.SameCoordinates,Original*
G04 #@! TF.FileFunction,Legend,Bot*
G04 #@! TF.FilePolarity,Positive*
%FSLAX46Y46*%
G04 Gerber Fmt 4.6, Leading zero omitted, Abs format (unit mm)*
G04 Created by KiCad (PCBNEW (5.0.0-3-g5ebb6b6)) date Friday, 28 December 2018 at 22:49:47*
%MOMM*%
%LPD*%
G01*
G04 APERTURE LIST*
%ADD10C,0.125000*%
%ADD11C,0.500000*%
%ADD12C,0.200000*%
%ADD13C,0.150000*%
%ADD14C,0.120000*%
G04 APERTURE END LIST*
D10*
X78743809Y-111478190D02*
X78743809Y-110978190D01*
X78577142Y-111335333D01*
X78410476Y-110978190D01*
X78410476Y-111478190D01*
X77958095Y-111478190D02*
X77958095Y-111216285D01*
X77981904Y-111168666D01*
X78029523Y-111144857D01*
X78124761Y-111144857D01*
X78172380Y-111168666D01*
X77958095Y-111454380D02*
X78005714Y-111478190D01*
X78124761Y-111478190D01*
X78172380Y-111454380D01*
X78196190Y-111406761D01*
X78196190Y-111359142D01*
X78172380Y-111311523D01*
X78124761Y-111287714D01*
X78005714Y-111287714D01*
X77958095Y-111263904D01*
X77767619Y-111478190D02*
X77505714Y-111144857D01*
X77767619Y-111144857D02*
X77505714Y-111478190D01*
X76672380Y-111478190D02*
X76958095Y-111478190D01*
X76815238Y-111478190D02*
X76815238Y-110978190D01*
X76862857Y-111049619D01*
X76910476Y-111097238D01*
X76958095Y-111121047D01*
X76458095Y-111478190D02*
X76458095Y-110978190D01*
X76172380Y-111478190D02*
X76386666Y-111192476D01*
X76172380Y-110978190D02*
X76458095Y-111263904D01*
X103897714Y-100944190D02*
X103945333Y-100920380D01*
X103969142Y-100872761D01*
X103969142Y-100444190D01*
X103635809Y-100944190D02*
X103683428Y-100920380D01*
X103707238Y-100896571D01*
X103731047Y-100848952D01*
X103731047Y-100706095D01*
X103707238Y-100658476D01*
X103683428Y-100634666D01*
X103635809Y-100610857D01*
X103564380Y-100610857D01*
X103516761Y-100634666D01*
X103492952Y-100658476D01*
X103469142Y-100706095D01*
X103469142Y-100848952D01*
X103492952Y-100896571D01*
X103516761Y-100920380D01*
X103564380Y-100944190D01*
X103635809Y-100944190D01*
X103302476Y-100610857D02*
X103207238Y-100944190D01*
X103112000Y-100706095D01*
X103016761Y-100944190D01*
X102921523Y-100610857D01*
X102540571Y-100920380D02*
X102588190Y-100944190D01*
X102683428Y-100944190D01*
X102731047Y-100920380D01*
X102754857Y-100872761D01*
X102754857Y-100682285D01*
X102731047Y-100634666D01*
X102683428Y-100610857D01*
X102588190Y-100610857D01*
X102540571Y-100634666D01*
X102516761Y-100682285D01*
X102516761Y-100729904D01*
X102754857Y-100777523D01*
X102302476Y-100944190D02*
X102302476Y-100610857D01*
X102302476Y-100706095D02*
X102278666Y-100658476D01*
X102254857Y-100634666D01*
X102207238Y-100610857D01*
X102159619Y-100610857D01*
X101659619Y-100610857D02*
X101540571Y-100944190D01*
X101421523Y-100610857D01*
X101016761Y-100944190D02*
X101016761Y-100682285D01*
X101040571Y-100634666D01*
X101088190Y-100610857D01*
X101183428Y-100610857D01*
X101231047Y-100634666D01*
X101016761Y-100920380D02*
X101064380Y-100944190D01*
X101183428Y-100944190D01*
X101231047Y-100920380D01*
X101254857Y-100872761D01*
X101254857Y-100825142D01*
X101231047Y-100777523D01*
X101183428Y-100753714D01*
X101064380Y-100753714D01*
X101016761Y-100729904D01*
X100707238Y-100944190D02*
X100754857Y-100920380D01*
X100778666Y-100872761D01*
X100778666Y-100444190D01*
X104159619Y-101819190D02*
X104159619Y-101485857D01*
X104159619Y-101533476D02*
X104135809Y-101509666D01*
X104088190Y-101485857D01*
X104016761Y-101485857D01*
X103969142Y-101509666D01*
X103945333Y-101557285D01*
X103945333Y-101819190D01*
X103945333Y-101557285D02*
X103921523Y-101509666D01*
X103873904Y-101485857D01*
X103802476Y-101485857D01*
X103754857Y-101509666D01*
X103731047Y-101557285D01*
X103731047Y-101819190D01*
X103421523Y-101819190D02*
X103469142Y-101795380D01*
X103492952Y-101771571D01*
X103516761Y-101723952D01*
X103516761Y-101581095D01*
X103492952Y-101533476D01*
X103469142Y-101509666D01*
X103421523Y-101485857D01*
X103350095Y-101485857D01*
X103302476Y-101509666D01*
X103278666Y-101533476D01*
X103254857Y-101581095D01*
X103254857Y-101723952D01*
X103278666Y-101771571D01*
X103302476Y-101795380D01*
X103350095Y-101819190D01*
X103421523Y-101819190D01*
X103040571Y-101819190D02*
X103040571Y-101485857D01*
X103040571Y-101581095D02*
X103016761Y-101533476D01*
X102992952Y-101509666D01*
X102945333Y-101485857D01*
X102897714Y-101485857D01*
X102540571Y-101795380D02*
X102588190Y-101819190D01*
X102683428Y-101819190D01*
X102731047Y-101795380D01*
X102754857Y-101747761D01*
X102754857Y-101557285D01*
X102731047Y-101509666D01*
X102683428Y-101485857D01*
X102588190Y-101485857D01*
X102540571Y-101509666D01*
X102516761Y-101557285D01*
X102516761Y-101604904D01*
X102754857Y-101652523D01*
X101707238Y-101485857D02*
X101707238Y-101890619D01*
X101731047Y-101938238D01*
X101754857Y-101962047D01*
X101802476Y-101985857D01*
X101873904Y-101985857D01*
X101921523Y-101962047D01*
X101707238Y-101795380D02*
X101754857Y-101819190D01*
X101850095Y-101819190D01*
X101897714Y-101795380D01*
X101921523Y-101771571D01*
X101945333Y-101723952D01*
X101945333Y-101581095D01*
X101921523Y-101533476D01*
X101897714Y-101509666D01*
X101850095Y-101485857D01*
X101754857Y-101485857D01*
X101707238Y-101509666D01*
X101254857Y-101819190D02*
X101254857Y-101557285D01*
X101278666Y-101509666D01*
X101326285Y-101485857D01*
X101421523Y-101485857D01*
X101469142Y-101509666D01*
X101254857Y-101795380D02*
X101302476Y-101819190D01*
X101421523Y-101819190D01*
X101469142Y-101795380D01*
X101492952Y-101747761D01*
X101492952Y-101700142D01*
X101469142Y-101652523D01*
X101421523Y-101628714D01*
X101302476Y-101628714D01*
X101254857Y-101604904D01*
X101016761Y-101819190D02*
X101016761Y-101485857D01*
X101016761Y-101319190D02*
X101040571Y-101343000D01*
X101016761Y-101366809D01*
X100992952Y-101343000D01*
X101016761Y-101319190D01*
X101016761Y-101366809D01*
X100778666Y-101485857D02*
X100778666Y-101819190D01*
X100778666Y-101533476D02*
X100754857Y-101509666D01*
X100707238Y-101485857D01*
X100635809Y-101485857D01*
X100588190Y-101509666D01*
X100564380Y-101557285D01*
X100564380Y-101819190D01*
D11*
X55410453Y-90297000D02*
G75*
G03X55410453Y-90297000I-228953J0D01*
G01*
D12*
X87653095Y-126917404D02*
X87653095Y-126117404D01*
X87272142Y-126117404D01*
X87176904Y-126155500D01*
X87129285Y-126193595D01*
X87081666Y-126269785D01*
X87081666Y-126384071D01*
X87129285Y-126460261D01*
X87176904Y-126498357D01*
X87272142Y-126536452D01*
X87653095Y-126536452D01*
X86176904Y-126917404D02*
X86653095Y-126917404D01*
X86653095Y-126117404D01*
X85843571Y-126117404D02*
X85843571Y-126765023D01*
X85795952Y-126841214D01*
X85748333Y-126879309D01*
X85653095Y-126917404D01*
X85462619Y-126917404D01*
X85367380Y-126879309D01*
X85319761Y-126841214D01*
X85272142Y-126765023D01*
X85272142Y-126117404D01*
X84272142Y-126155500D02*
X84367380Y-126117404D01*
X84510238Y-126117404D01*
X84653095Y-126155500D01*
X84748333Y-126231690D01*
X84795952Y-126307880D01*
X84843571Y-126460261D01*
X84843571Y-126574547D01*
X84795952Y-126726928D01*
X84748333Y-126803119D01*
X84653095Y-126879309D01*
X84510238Y-126917404D01*
X84415000Y-126917404D01*
X84272142Y-126879309D01*
X84224523Y-126841214D01*
X84224523Y-126574547D01*
X84415000Y-126574547D01*
X83176904Y-126117404D02*
X82605476Y-126117404D01*
X82891190Y-126917404D02*
X82891190Y-126117404D01*
X82272142Y-126917404D02*
X82272142Y-126117404D01*
X82272142Y-126498357D02*
X81700714Y-126498357D01*
X81700714Y-126917404D02*
X81700714Y-126117404D01*
X81224523Y-126917404D02*
X81224523Y-126117404D01*
X80795952Y-126879309D02*
X80653095Y-126917404D01*
X80415000Y-126917404D01*
X80319761Y-126879309D01*
X80272142Y-126841214D01*
X80224523Y-126765023D01*
X80224523Y-126688833D01*
X80272142Y-126612642D01*
X80319761Y-126574547D01*
X80415000Y-126536452D01*
X80605476Y-126498357D01*
X80700714Y-126460261D01*
X80748333Y-126422166D01*
X80795952Y-126345976D01*
X80795952Y-126269785D01*
X80748333Y-126193595D01*
X80700714Y-126155500D01*
X80605476Y-126117404D01*
X80367380Y-126117404D01*
X80224523Y-126155500D01*
X79081666Y-126879309D02*
X78938809Y-126917404D01*
X78700714Y-126917404D01*
X78605476Y-126879309D01*
X78557857Y-126841214D01*
X78510238Y-126765023D01*
X78510238Y-126688833D01*
X78557857Y-126612642D01*
X78605476Y-126574547D01*
X78700714Y-126536452D01*
X78891190Y-126498357D01*
X78986428Y-126460261D01*
X79034047Y-126422166D01*
X79081666Y-126345976D01*
X79081666Y-126269785D01*
X79034047Y-126193595D01*
X78986428Y-126155500D01*
X78891190Y-126117404D01*
X78653095Y-126117404D01*
X78510238Y-126155500D01*
X78081666Y-126917404D02*
X78081666Y-126117404D01*
X77605476Y-126917404D02*
X77605476Y-126117404D01*
X77367380Y-126117404D01*
X77224523Y-126155500D01*
X77129285Y-126231690D01*
X77081666Y-126307880D01*
X77034047Y-126460261D01*
X77034047Y-126574547D01*
X77081666Y-126726928D01*
X77129285Y-126803119D01*
X77224523Y-126879309D01*
X77367380Y-126917404D01*
X77605476Y-126917404D01*
X76605476Y-126498357D02*
X76272142Y-126498357D01*
X76129285Y-126917404D02*
X76605476Y-126917404D01*
X76605476Y-126117404D01*
X76129285Y-126117404D01*
X103710952Y-87112666D02*
X103234761Y-87112666D01*
X103806190Y-87398380D02*
X103472857Y-86398380D01*
X103139523Y-87398380D01*
X102949047Y-86398380D02*
X102377619Y-86398380D01*
X102663333Y-87398380D02*
X102663333Y-86398380D01*
X101853809Y-86398380D02*
X101663333Y-86398380D01*
X101568095Y-86446000D01*
X101472857Y-86541238D01*
X101425238Y-86731714D01*
X101425238Y-87065047D01*
X101472857Y-87255523D01*
X101568095Y-87350761D01*
X101663333Y-87398380D01*
X101853809Y-87398380D01*
X101949047Y-87350761D01*
X102044285Y-87255523D01*
X102091904Y-87065047D01*
X102091904Y-86731714D01*
X102044285Y-86541238D01*
X101949047Y-86446000D01*
X101853809Y-86398380D01*
X100996666Y-87398380D02*
X100996666Y-86398380D01*
X100663333Y-87112666D01*
X100330000Y-86398380D01*
X100330000Y-87398380D01*
X99853809Y-87398380D02*
X99853809Y-86398380D01*
X99472857Y-86398380D02*
X98806190Y-86398380D01*
X99472857Y-87398380D01*
X98806190Y-87398380D01*
X98425238Y-86874571D02*
X98091904Y-86874571D01*
X97949047Y-87398380D02*
X98425238Y-87398380D01*
X98425238Y-86398380D01*
X97949047Y-86398380D01*
X96949047Y-87398380D02*
X97282380Y-86922190D01*
X97520476Y-87398380D02*
X97520476Y-86398380D01*
X97139523Y-86398380D01*
X97044285Y-86446000D01*
X96996666Y-86493619D01*
X96949047Y-86588857D01*
X96949047Y-86731714D01*
X96996666Y-86826952D01*
X97044285Y-86874571D01*
X97139523Y-86922190D01*
X97520476Y-86922190D01*
X104210952Y-89003142D02*
X104258571Y-89050761D01*
X104401428Y-89098380D01*
X104496666Y-89098380D01*
X104639523Y-89050761D01*
X104734761Y-88955523D01*
X104782380Y-88860285D01*
X104830000Y-88669809D01*
X104830000Y-88526952D01*
X104782380Y-88336476D01*
X104734761Y-88241238D01*
X104639523Y-88146000D01*
X104496666Y-88098380D01*
X104401428Y-88098380D01*
X104258571Y-88146000D01*
X104210952Y-88193619D01*
X103782380Y-89098380D02*
X103782380Y-88098380D01*
X103353809Y-89098380D02*
X103353809Y-88574571D01*
X103401428Y-88479333D01*
X103496666Y-88431714D01*
X103639523Y-88431714D01*
X103734761Y-88479333D01*
X103782380Y-88526952D01*
X102877619Y-89098380D02*
X102877619Y-88431714D01*
X102877619Y-88622190D02*
X102830000Y-88526952D01*
X102782380Y-88479333D01*
X102687142Y-88431714D01*
X102591904Y-88431714D01*
X102258571Y-89098380D02*
X102258571Y-88431714D01*
X102258571Y-88098380D02*
X102306190Y-88146000D01*
X102258571Y-88193619D01*
X102210952Y-88146000D01*
X102258571Y-88098380D01*
X102258571Y-88193619D01*
X101830000Y-89050761D02*
X101734761Y-89098380D01*
X101544285Y-89098380D01*
X101449047Y-89050761D01*
X101401428Y-88955523D01*
X101401428Y-88907904D01*
X101449047Y-88812666D01*
X101544285Y-88765047D01*
X101687142Y-88765047D01*
X101782380Y-88717428D01*
X101830000Y-88622190D01*
X101830000Y-88574571D01*
X101782380Y-88479333D01*
X101687142Y-88431714D01*
X101544285Y-88431714D01*
X101449047Y-88479333D01*
X100258571Y-89050761D02*
X100115714Y-89098380D01*
X99877619Y-89098380D01*
X99782380Y-89050761D01*
X99734761Y-89003142D01*
X99687142Y-88907904D01*
X99687142Y-88812666D01*
X99734761Y-88717428D01*
X99782380Y-88669809D01*
X99877619Y-88622190D01*
X100068095Y-88574571D01*
X100163333Y-88526952D01*
X100210952Y-88479333D01*
X100258571Y-88384095D01*
X100258571Y-88288857D01*
X100210952Y-88193619D01*
X100163333Y-88146000D01*
X100068095Y-88098380D01*
X99830000Y-88098380D01*
X99687142Y-88146000D01*
X98830000Y-88431714D02*
X98830000Y-89098380D01*
X99258571Y-88431714D02*
X99258571Y-88955523D01*
X99210952Y-89050761D01*
X99115714Y-89098380D01*
X98972857Y-89098380D01*
X98877619Y-89050761D01*
X98830000Y-89003142D01*
X98496666Y-88431714D02*
X98115714Y-88431714D01*
X98353809Y-88098380D02*
X98353809Y-88955523D01*
X98306190Y-89050761D01*
X98210952Y-89098380D01*
X98115714Y-89098380D01*
X97925238Y-88431714D02*
X97544285Y-88431714D01*
X97782380Y-88098380D02*
X97782380Y-88955523D01*
X97734761Y-89050761D01*
X97639523Y-89098380D01*
X97544285Y-89098380D01*
X97068095Y-89098380D02*
X97163333Y-89050761D01*
X97210952Y-89003142D01*
X97258571Y-88907904D01*
X97258571Y-88622190D01*
X97210952Y-88526952D01*
X97163333Y-88479333D01*
X97068095Y-88431714D01*
X96925238Y-88431714D01*
X96830000Y-88479333D01*
X96782380Y-88526952D01*
X96734761Y-88622190D01*
X96734761Y-88907904D01*
X96782380Y-89003142D01*
X96830000Y-89050761D01*
X96925238Y-89098380D01*
X97068095Y-89098380D01*
X96306190Y-88431714D02*
X96306190Y-89098380D01*
X96306190Y-88526952D02*
X96258571Y-88479333D01*
X96163333Y-88431714D01*
X96020476Y-88431714D01*
X95925238Y-88479333D01*
X95877619Y-88574571D01*
X95877619Y-89098380D01*
X103544285Y-90798380D02*
X103877619Y-90322190D01*
X104115714Y-90798380D02*
X104115714Y-89798380D01*
X103734761Y-89798380D01*
X103639523Y-89846000D01*
X103591904Y-89893619D01*
X103544285Y-89988857D01*
X103544285Y-90131714D01*
X103591904Y-90226952D01*
X103639523Y-90274571D01*
X103734761Y-90322190D01*
X104115714Y-90322190D01*
X102734761Y-90750761D02*
X102830000Y-90798380D01*
X103020476Y-90798380D01*
X103115714Y-90750761D01*
X103163333Y-90655523D01*
X103163333Y-90274571D01*
X103115714Y-90179333D01*
X103020476Y-90131714D01*
X102830000Y-90131714D01*
X102734761Y-90179333D01*
X102687142Y-90274571D01*
X102687142Y-90369809D01*
X103163333Y-90465047D01*
X102353809Y-90131714D02*
X102115714Y-90798380D01*
X101877619Y-90131714D01*
X101544285Y-90512666D02*
X101068095Y-90512666D01*
X101639523Y-90798380D02*
X101306190Y-89798380D01*
X100972857Y-90798380D01*
X99925238Y-89893619D02*
X99877619Y-89846000D01*
X99782380Y-89798380D01*
X99544285Y-89798380D01*
X99449047Y-89846000D01*
X99401428Y-89893619D01*
X99353809Y-89988857D01*
X99353809Y-90084095D01*
X99401428Y-90226952D01*
X99972857Y-90798380D01*
X99353809Y-90798380D01*
X98734761Y-89798380D02*
X98639523Y-89798380D01*
X98544285Y-89846000D01*
X98496666Y-89893619D01*
X98449047Y-89988857D01*
X98401428Y-90179333D01*
X98401428Y-90417428D01*
X98449047Y-90607904D01*
X98496666Y-90703142D01*
X98544285Y-90750761D01*
X98639523Y-90798380D01*
X98734761Y-90798380D01*
X98830000Y-90750761D01*
X98877619Y-90703142D01*
X98925238Y-90607904D01*
X98972857Y-90417428D01*
X98972857Y-90179333D01*
X98925238Y-89988857D01*
X98877619Y-89893619D01*
X98830000Y-89846000D01*
X98734761Y-89798380D01*
X97449047Y-90798380D02*
X98020476Y-90798380D01*
X97734761Y-90798380D02*
X97734761Y-89798380D01*
X97830000Y-89941238D01*
X97925238Y-90036476D01*
X98020476Y-90084095D01*
X96877619Y-90226952D02*
X96972857Y-90179333D01*
X97020476Y-90131714D01*
X97068095Y-90036476D01*
X97068095Y-89988857D01*
X97020476Y-89893619D01*
X96972857Y-89846000D01*
X96877619Y-89798380D01*
X96687142Y-89798380D01*
X96591904Y-89846000D01*
X96544285Y-89893619D01*
X96496666Y-89988857D01*
X96496666Y-90036476D01*
X96544285Y-90131714D01*
X96591904Y-90179333D01*
X96687142Y-90226952D01*
X96877619Y-90226952D01*
X96972857Y-90274571D01*
X97020476Y-90322190D01*
X97068095Y-90417428D01*
X97068095Y-90607904D01*
X97020476Y-90703142D01*
X96972857Y-90750761D01*
X96877619Y-90798380D01*
X96687142Y-90798380D01*
X96591904Y-90750761D01*
X96544285Y-90703142D01*
X96496666Y-90607904D01*
X96496666Y-90417428D01*
X96544285Y-90322190D01*
X96591904Y-90274571D01*
X96687142Y-90226952D01*
X68912952Y-158232666D02*
X68436761Y-158232666D01*
X69008190Y-158518380D02*
X68674857Y-157518380D01*
X68341523Y-158518380D01*
X68151047Y-157518380D02*
X67579619Y-157518380D01*
X67865333Y-158518380D02*
X67865333Y-157518380D01*
X67055809Y-157518380D02*
X66865333Y-157518380D01*
X66770095Y-157566000D01*
X66674857Y-157661238D01*
X66627238Y-157851714D01*
X66627238Y-158185047D01*
X66674857Y-158375523D01*
X66770095Y-158470761D01*
X66865333Y-158518380D01*
X67055809Y-158518380D01*
X67151047Y-158470761D01*
X67246285Y-158375523D01*
X67293904Y-158185047D01*
X67293904Y-157851714D01*
X67246285Y-157661238D01*
X67151047Y-157566000D01*
X67055809Y-157518380D01*
X66198666Y-158518380D02*
X66198666Y-157518380D01*
X65865333Y-158232666D01*
X65532000Y-157518380D01*
X65532000Y-158518380D01*
X65055809Y-158518380D02*
X65055809Y-157518380D01*
X64674857Y-157518380D02*
X64008190Y-157518380D01*
X64674857Y-158518380D01*
X64008190Y-158518380D01*
X63627238Y-157994571D02*
X63293904Y-157994571D01*
X63151047Y-158518380D02*
X63627238Y-158518380D01*
X63627238Y-157518380D01*
X63151047Y-157518380D01*
X62151047Y-158518380D02*
X62484380Y-158042190D01*
X62722476Y-158518380D02*
X62722476Y-157518380D01*
X62341523Y-157518380D01*
X62246285Y-157566000D01*
X62198666Y-157613619D01*
X62151047Y-157708857D01*
X62151047Y-157851714D01*
X62198666Y-157946952D01*
X62246285Y-157994571D01*
X62341523Y-158042190D01*
X62722476Y-158042190D01*
X69412952Y-160123142D02*
X69460571Y-160170761D01*
X69603428Y-160218380D01*
X69698666Y-160218380D01*
X69841523Y-160170761D01*
X69936761Y-160075523D01*
X69984380Y-159980285D01*
X70032000Y-159789809D01*
X70032000Y-159646952D01*
X69984380Y-159456476D01*
X69936761Y-159361238D01*
X69841523Y-159266000D01*
X69698666Y-159218380D01*
X69603428Y-159218380D01*
X69460571Y-159266000D01*
X69412952Y-159313619D01*
X68984380Y-160218380D02*
X68984380Y-159218380D01*
X68555809Y-160218380D02*
X68555809Y-159694571D01*
X68603428Y-159599333D01*
X68698666Y-159551714D01*
X68841523Y-159551714D01*
X68936761Y-159599333D01*
X68984380Y-159646952D01*
X68079619Y-160218380D02*
X68079619Y-159551714D01*
X68079619Y-159742190D02*
X68032000Y-159646952D01*
X67984380Y-159599333D01*
X67889142Y-159551714D01*
X67793904Y-159551714D01*
X67460571Y-160218380D02*
X67460571Y-159551714D01*
X67460571Y-159218380D02*
X67508190Y-159266000D01*
X67460571Y-159313619D01*
X67412952Y-159266000D01*
X67460571Y-159218380D01*
X67460571Y-159313619D01*
X67032000Y-160170761D02*
X66936761Y-160218380D01*
X66746285Y-160218380D01*
X66651047Y-160170761D01*
X66603428Y-160075523D01*
X66603428Y-160027904D01*
X66651047Y-159932666D01*
X66746285Y-159885047D01*
X66889142Y-159885047D01*
X66984380Y-159837428D01*
X67032000Y-159742190D01*
X67032000Y-159694571D01*
X66984380Y-159599333D01*
X66889142Y-159551714D01*
X66746285Y-159551714D01*
X66651047Y-159599333D01*
X65460571Y-160170761D02*
X65317714Y-160218380D01*
X65079619Y-160218380D01*
X64984380Y-160170761D01*
X64936761Y-160123142D01*
X64889142Y-160027904D01*
X64889142Y-159932666D01*
X64936761Y-159837428D01*
X64984380Y-159789809D01*
X65079619Y-159742190D01*
X65270095Y-159694571D01*
X65365333Y-159646952D01*
X65412952Y-159599333D01*
X65460571Y-159504095D01*
X65460571Y-159408857D01*
X65412952Y-159313619D01*
X65365333Y-159266000D01*
X65270095Y-159218380D01*
X65031999Y-159218380D01*
X64889142Y-159266000D01*
X64031999Y-159551714D02*
X64031999Y-160218380D01*
X64460571Y-159551714D02*
X64460571Y-160075523D01*
X64412952Y-160170761D01*
X64317714Y-160218380D01*
X64174857Y-160218380D01*
X64079619Y-160170761D01*
X64031999Y-160123142D01*
X63698666Y-159551714D02*
X63317714Y-159551714D01*
X63555809Y-159218380D02*
X63555809Y-160075523D01*
X63508190Y-160170761D01*
X63412952Y-160218380D01*
X63317714Y-160218380D01*
X63127238Y-159551714D02*
X62746285Y-159551714D01*
X62984380Y-159218380D02*
X62984380Y-160075523D01*
X62936761Y-160170761D01*
X62841523Y-160218380D01*
X62746285Y-160218380D01*
X62270095Y-160218380D02*
X62365333Y-160170761D01*
X62412952Y-160123142D01*
X62460571Y-160027904D01*
X62460571Y-159742190D01*
X62412952Y-159646952D01*
X62365333Y-159599333D01*
X62270095Y-159551714D01*
X62127238Y-159551714D01*
X62031999Y-159599333D01*
X61984380Y-159646952D01*
X61936761Y-159742190D01*
X61936761Y-160027904D01*
X61984380Y-160123142D01*
X62031999Y-160170761D01*
X62127238Y-160218380D01*
X62270095Y-160218380D01*
X61508190Y-159551714D02*
X61508190Y-160218380D01*
X61508190Y-159646952D02*
X61460571Y-159599333D01*
X61365333Y-159551714D01*
X61222476Y-159551714D01*
X61127238Y-159599333D01*
X61079619Y-159694571D01*
X61079619Y-160218380D01*
X69365333Y-161013619D02*
X69317714Y-160966000D01*
X69222476Y-160918380D01*
X68984380Y-160918380D01*
X68889142Y-160966000D01*
X68841523Y-161013619D01*
X68793904Y-161108857D01*
X68793904Y-161204095D01*
X68841523Y-161346952D01*
X69412952Y-161918380D01*
X68793904Y-161918380D01*
X68174857Y-160918380D02*
X68079619Y-160918380D01*
X67984380Y-160966000D01*
X67936761Y-161013619D01*
X67889142Y-161108857D01*
X67841523Y-161299333D01*
X67841523Y-161537428D01*
X67889142Y-161727904D01*
X67936761Y-161823142D01*
X67984380Y-161870761D01*
X68079619Y-161918380D01*
X68174857Y-161918380D01*
X68270095Y-161870761D01*
X68317714Y-161823142D01*
X68365333Y-161727904D01*
X68412952Y-161537428D01*
X68412952Y-161299333D01*
X68365333Y-161108857D01*
X68317714Y-161013619D01*
X68270095Y-160966000D01*
X68174857Y-160918380D01*
X66889142Y-161918380D02*
X67460571Y-161918380D01*
X67174857Y-161918380D02*
X67174857Y-160918380D01*
X67270095Y-161061238D01*
X67365333Y-161156476D01*
X67460571Y-161204095D01*
X66317714Y-161346952D02*
X66412952Y-161299333D01*
X66460571Y-161251714D01*
X66508190Y-161156476D01*
X66508190Y-161108857D01*
X66460571Y-161013619D01*
X66412952Y-160966000D01*
X66317714Y-160918380D01*
X66127238Y-160918380D01*
X66032000Y-160966000D01*
X65984380Y-161013619D01*
X65936761Y-161108857D01*
X65936761Y-161156476D01*
X65984380Y-161251714D01*
X66032000Y-161299333D01*
X66127238Y-161346952D01*
X66317714Y-161346952D01*
X66412952Y-161394571D01*
X66460571Y-161442190D01*
X66508190Y-161537428D01*
X66508190Y-161727904D01*
X66460571Y-161823142D01*
X66412952Y-161870761D01*
X66317714Y-161918380D01*
X66127238Y-161918380D01*
X66032000Y-161870761D01*
X65984380Y-161823142D01*
X65936761Y-161727904D01*
X65936761Y-161537428D01*
X65984380Y-161442190D01*
X66032000Y-161394571D01*
X66127238Y-161346952D01*
X64174857Y-161918380D02*
X64508190Y-161442190D01*
X64746285Y-161918380D02*
X64746285Y-160918380D01*
X64365333Y-160918380D01*
X64270095Y-160966000D01*
X64222476Y-161013619D01*
X64174857Y-161108857D01*
X64174857Y-161251714D01*
X64222476Y-161346952D01*
X64270095Y-161394571D01*
X64365333Y-161442190D01*
X64746285Y-161442190D01*
X63365333Y-161870761D02*
X63460571Y-161918380D01*
X63651047Y-161918380D01*
X63746285Y-161870761D01*
X63793904Y-161775523D01*
X63793904Y-161394571D01*
X63746285Y-161299333D01*
X63651047Y-161251714D01*
X63460571Y-161251714D01*
X63365333Y-161299333D01*
X63317714Y-161394571D01*
X63317714Y-161489809D01*
X63793904Y-161585047D01*
X62984380Y-161251714D02*
X62746285Y-161918380D01*
X62508190Y-161251714D01*
X62174857Y-161632666D02*
X61698666Y-161632666D01*
X62270095Y-161918380D02*
X61936761Y-160918380D01*
X61603428Y-161918380D01*
D13*
G04 #@! TO.C,J_IN1*
X86233000Y-110490000D02*
X107823000Y-110490000D01*
X86233000Y-125730000D02*
X86233000Y-110490000D01*
X107823000Y-125730000D02*
X86233000Y-125730000D01*
X107823000Y-110490000D02*
X107823000Y-125730000D01*
G04 #@! TO.C,J_OUT1*
X75057000Y-125730000D02*
X53467000Y-125730000D01*
X75057000Y-110490000D02*
X75057000Y-125730000D01*
X53467000Y-110490000D02*
X75057000Y-110490000D01*
X53467000Y-125730000D02*
X53467000Y-110490000D01*
D14*
G04 #@! TO.C,J_AUXTOMAIN1*
X99374000Y-153610000D02*
X98044000Y-153610000D01*
X99374000Y-154940000D02*
X99374000Y-153610000D01*
X96774000Y-153610000D02*
X94174000Y-153610000D01*
X96774000Y-156210000D02*
X96774000Y-153610000D01*
X99374000Y-156210000D02*
X96774000Y-156210000D01*
X94174000Y-153610000D02*
X94174000Y-166430000D01*
X99374000Y-156210000D02*
X99374000Y-166430000D01*
X99374000Y-166430000D02*
X94174000Y-166430000D01*
G04 #@! TO.C,R_LPF1*
X75490000Y-111386252D02*
X75490000Y-110863748D01*
X76910000Y-111386252D02*
X76910000Y-110863748D01*
G04 #@! TO.C,R_GAIN1*
X97909748Y-100445500D02*
X98432252Y-100445500D01*
X97909748Y-101865500D02*
X98432252Y-101865500D01*
G04 #@! TO.C,J_PWR1*
X68410000Y-136465000D02*
X68410000Y-137515000D01*
X67360000Y-137515000D02*
X68410000Y-137515000D01*
X62310000Y-128115000D02*
X53510000Y-128115000D01*
X53510000Y-128115000D02*
X53510000Y-137315000D01*
X68210000Y-130815000D02*
X68210000Y-128115000D01*
X68210000Y-128115000D02*
X66310000Y-128115000D01*
X53510000Y-137315000D02*
X68210000Y-137315000D01*
X68210000Y-137315000D02*
X68210000Y-134715000D01*
G04 #@! TO.C,J_MAINTOAUX1*
X75505000Y-127321000D02*
X75505000Y-132521000D01*
X85725000Y-127321000D02*
X75505000Y-127321000D01*
X88325000Y-132521000D02*
X75505000Y-132521000D01*
X85725000Y-127321000D02*
X85725000Y-129921000D01*
X85725000Y-129921000D02*
X88325000Y-129921000D01*
X88325000Y-129921000D02*
X88325000Y-132521000D01*
X86995000Y-127321000D02*
X88325000Y-127321000D01*
X88325000Y-127321000D02*
X88325000Y-128651000D01*
G04 #@! TO.C,J_ICSP1*
X56010500Y-83887000D02*
X61210500Y-83887000D01*
X56010500Y-89027000D02*
X56010500Y-83887000D01*
X61210500Y-91627000D02*
X61210500Y-83887000D01*
X56010500Y-89027000D02*
X58610500Y-89027000D01*
X58610500Y-89027000D02*
X58610500Y-91627000D01*
X58610500Y-91627000D02*
X61210500Y-91627000D01*
X56010500Y-90297000D02*
X56010500Y-91627000D01*
X56010500Y-91627000D02*
X57340500Y-91627000D01*
G04 #@! TO.C,J_IN1*
D10*
X106148095Y-108946190D02*
X106148095Y-109303333D01*
X106171904Y-109374761D01*
X106219523Y-109422380D01*
X106290952Y-109446190D01*
X106338571Y-109446190D01*
X106029047Y-109493809D02*
X105648095Y-109493809D01*
X105529047Y-109446190D02*
X105529047Y-108946190D01*
X105290952Y-109446190D02*
X105290952Y-108946190D01*
X105005238Y-109446190D01*
X105005238Y-108946190D01*
X104505238Y-109446190D02*
X104790952Y-109446190D01*
X104648095Y-109446190D02*
X104648095Y-108946190D01*
X104695714Y-109017619D01*
X104743333Y-109065238D01*
X104790952Y-109089047D01*
G04 #@! TO.C,J_OUT1*
X56951428Y-108946190D02*
X56951428Y-109303333D01*
X56975238Y-109374761D01*
X57022857Y-109422380D01*
X57094285Y-109446190D01*
X57141904Y-109446190D01*
X56832380Y-109493809D02*
X56451428Y-109493809D01*
X56237142Y-108946190D02*
X56141904Y-108946190D01*
X56094285Y-108970000D01*
X56046666Y-109017619D01*
X56022857Y-109112857D01*
X56022857Y-109279523D01*
X56046666Y-109374761D01*
X56094285Y-109422380D01*
X56141904Y-109446190D01*
X56237142Y-109446190D01*
X56284761Y-109422380D01*
X56332380Y-109374761D01*
X56356190Y-109279523D01*
X56356190Y-109112857D01*
X56332380Y-109017619D01*
X56284761Y-108970000D01*
X56237142Y-108946190D01*
X55808571Y-108946190D02*
X55808571Y-109350952D01*
X55784761Y-109398571D01*
X55760952Y-109422380D01*
X55713333Y-109446190D01*
X55618095Y-109446190D01*
X55570476Y-109422380D01*
X55546666Y-109398571D01*
X55522857Y-109350952D01*
X55522857Y-108946190D01*
X55356190Y-108946190D02*
X55070476Y-108946190D01*
X55213333Y-109446190D02*
X55213333Y-108946190D01*
X54641904Y-109446190D02*
X54927619Y-109446190D01*
X54784761Y-109446190D02*
X54784761Y-108946190D01*
X54832380Y-109017619D01*
X54880000Y-109065238D01*
X54927619Y-109089047D01*
G04 #@! TO.C,J_AUXTOMAIN1*
X99178761Y-166858190D02*
X99178761Y-167215333D01*
X99202571Y-167286761D01*
X99250190Y-167334380D01*
X99321619Y-167358190D01*
X99369238Y-167358190D01*
X99059714Y-167405809D02*
X98678761Y-167405809D01*
X98583523Y-167215333D02*
X98345428Y-167215333D01*
X98631142Y-167358190D02*
X98464476Y-166858190D01*
X98297809Y-167358190D01*
X98131142Y-166858190D02*
X98131142Y-167262952D01*
X98107333Y-167310571D01*
X98083523Y-167334380D01*
X98035904Y-167358190D01*
X97940666Y-167358190D01*
X97893047Y-167334380D01*
X97869238Y-167310571D01*
X97845428Y-167262952D01*
X97845428Y-166858190D01*
X97654952Y-166858190D02*
X97321619Y-167358190D01*
X97321619Y-166858190D02*
X97654952Y-167358190D01*
X97202571Y-166858190D02*
X96916857Y-166858190D01*
X97059714Y-167358190D02*
X97059714Y-166858190D01*
X96654952Y-166858190D02*
X96559714Y-166858190D01*
X96512095Y-166882000D01*
X96464476Y-166929619D01*
X96440666Y-167024857D01*
X96440666Y-167191523D01*
X96464476Y-167286761D01*
X96512095Y-167334380D01*
X96559714Y-167358190D01*
X96654952Y-167358190D01*
X96702571Y-167334380D01*
X96750190Y-167286761D01*
X96774000Y-167191523D01*
X96774000Y-167024857D01*
X96750190Y-166929619D01*
X96702571Y-166882000D01*
X96654952Y-166858190D01*
X96226380Y-167358190D02*
X96226380Y-166858190D01*
X96059714Y-167215333D01*
X95893047Y-166858190D01*
X95893047Y-167358190D01*
X95678761Y-167215333D02*
X95440666Y-167215333D01*
X95726380Y-167358190D02*
X95559714Y-166858190D01*
X95393047Y-167358190D01*
X95226380Y-167358190D02*
X95226380Y-166858190D01*
X94988285Y-167358190D02*
X94988285Y-166858190D01*
X94702571Y-167358190D01*
X94702571Y-166858190D01*
X94202571Y-167358190D02*
X94488285Y-167358190D01*
X94345428Y-167358190D02*
X94345428Y-166858190D01*
X94393047Y-166929619D01*
X94440666Y-166977238D01*
X94488285Y-167001047D01*
G04 #@! TO.C,R_LPF1*
X78410476Y-114145190D02*
X78577142Y-113907095D01*
X78696190Y-114145190D02*
X78696190Y-113645190D01*
X78505714Y-113645190D01*
X78458095Y-113669000D01*
X78434285Y-113692809D01*
X78410476Y-113740428D01*
X78410476Y-113811857D01*
X78434285Y-113859476D01*
X78458095Y-113883285D01*
X78505714Y-113907095D01*
X78696190Y-113907095D01*
X78315238Y-114192809D02*
X77934285Y-114192809D01*
X77577142Y-114145190D02*
X77815238Y-114145190D01*
X77815238Y-113645190D01*
X77410476Y-114145190D02*
X77410476Y-113645190D01*
X77220000Y-113645190D01*
X77172380Y-113669000D01*
X77148571Y-113692809D01*
X77124761Y-113740428D01*
X77124761Y-113811857D01*
X77148571Y-113859476D01*
X77172380Y-113883285D01*
X77220000Y-113907095D01*
X77410476Y-113907095D01*
X76743809Y-113883285D02*
X76910476Y-113883285D01*
X76910476Y-114145190D02*
X76910476Y-113645190D01*
X76672380Y-113645190D01*
X76220000Y-114145190D02*
X76505714Y-114145190D01*
X76362857Y-114145190D02*
X76362857Y-113645190D01*
X76410476Y-113716619D01*
X76458095Y-113764238D01*
X76505714Y-113788047D01*
G04 #@! TO.C,R_GAIN1*
X93702047Y-101381690D02*
X93868714Y-101143595D01*
X93987761Y-101381690D02*
X93987761Y-100881690D01*
X93797285Y-100881690D01*
X93749666Y-100905500D01*
X93725857Y-100929309D01*
X93702047Y-100976928D01*
X93702047Y-101048357D01*
X93725857Y-101095976D01*
X93749666Y-101119785D01*
X93797285Y-101143595D01*
X93987761Y-101143595D01*
X93606809Y-101429309D02*
X93225857Y-101429309D01*
X92844904Y-100905500D02*
X92892523Y-100881690D01*
X92963952Y-100881690D01*
X93035380Y-100905500D01*
X93083000Y-100953119D01*
X93106809Y-101000738D01*
X93130619Y-101095976D01*
X93130619Y-101167404D01*
X93106809Y-101262642D01*
X93083000Y-101310261D01*
X93035380Y-101357880D01*
X92963952Y-101381690D01*
X92916333Y-101381690D01*
X92844904Y-101357880D01*
X92821095Y-101334071D01*
X92821095Y-101167404D01*
X92916333Y-101167404D01*
X92630619Y-101238833D02*
X92392523Y-101238833D01*
X92678238Y-101381690D02*
X92511571Y-100881690D01*
X92344904Y-101381690D01*
X92178238Y-101381690D02*
X92178238Y-100881690D01*
X91940142Y-101381690D02*
X91940142Y-100881690D01*
X91654428Y-101381690D01*
X91654428Y-100881690D01*
X91154428Y-101381690D02*
X91440142Y-101381690D01*
X91297285Y-101381690D02*
X91297285Y-100881690D01*
X91344904Y-100953119D01*
X91392523Y-101000738D01*
X91440142Y-101024547D01*
G04 #@! TO.C,J_PWR1*
X58292857Y-126980190D02*
X58292857Y-127337333D01*
X58316666Y-127408761D01*
X58364285Y-127456380D01*
X58435714Y-127480190D01*
X58483333Y-127480190D01*
X58173809Y-127527809D02*
X57792857Y-127527809D01*
X57673809Y-127480190D02*
X57673809Y-126980190D01*
X57483333Y-126980190D01*
X57435714Y-127004000D01*
X57411904Y-127027809D01*
X57388095Y-127075428D01*
X57388095Y-127146857D01*
X57411904Y-127194476D01*
X57435714Y-127218285D01*
X57483333Y-127242095D01*
X57673809Y-127242095D01*
X57221428Y-126980190D02*
X57102380Y-127480190D01*
X57007142Y-127123047D01*
X56911904Y-127480190D01*
X56792857Y-126980190D01*
X56316666Y-127480190D02*
X56483333Y-127242095D01*
X56602380Y-127480190D02*
X56602380Y-126980190D01*
X56411904Y-126980190D01*
X56364285Y-127004000D01*
X56340476Y-127027809D01*
X56316666Y-127075428D01*
X56316666Y-127146857D01*
X56340476Y-127194476D01*
X56364285Y-127218285D01*
X56411904Y-127242095D01*
X56602380Y-127242095D01*
X55840476Y-127480190D02*
X56126190Y-127480190D01*
X55983333Y-127480190D02*
X55983333Y-126980190D01*
X56030952Y-127051619D01*
X56078571Y-127099238D01*
X56126190Y-127123047D01*
G04 #@! TO.C,J_MAINTOAUX1*
X85081761Y-132758690D02*
X85081761Y-133115833D01*
X85105571Y-133187261D01*
X85153190Y-133234880D01*
X85224619Y-133258690D01*
X85272238Y-133258690D01*
X84962714Y-133306309D02*
X84581761Y-133306309D01*
X84462714Y-133258690D02*
X84462714Y-132758690D01*
X84296047Y-133115833D01*
X84129380Y-132758690D01*
X84129380Y-133258690D01*
X83915095Y-133115833D02*
X83677000Y-133115833D01*
X83962714Y-133258690D02*
X83796047Y-132758690D01*
X83629380Y-133258690D01*
X83462714Y-133258690D02*
X83462714Y-132758690D01*
X83224619Y-133258690D02*
X83224619Y-132758690D01*
X82938904Y-133258690D01*
X82938904Y-132758690D01*
X82772238Y-132758690D02*
X82486523Y-132758690D01*
X82629380Y-133258690D02*
X82629380Y-132758690D01*
X82224619Y-132758690D02*
X82129380Y-132758690D01*
X82081761Y-132782500D01*
X82034142Y-132830119D01*
X82010333Y-132925357D01*
X82010333Y-133092023D01*
X82034142Y-133187261D01*
X82081761Y-133234880D01*
X82129380Y-133258690D01*
X82224619Y-133258690D01*
X82272238Y-133234880D01*
X82319857Y-133187261D01*
X82343666Y-133092023D01*
X82343666Y-132925357D01*
X82319857Y-132830119D01*
X82272238Y-132782500D01*
X82224619Y-132758690D01*
X81819857Y-133115833D02*
X81581761Y-133115833D01*
X81867476Y-133258690D02*
X81700809Y-132758690D01*
X81534142Y-133258690D01*
X81367476Y-132758690D02*
X81367476Y-133163452D01*
X81343666Y-133211071D01*
X81319857Y-133234880D01*
X81272238Y-133258690D01*
X81177000Y-133258690D01*
X81129380Y-133234880D01*
X81105571Y-133211071D01*
X81081761Y-133163452D01*
X81081761Y-132758690D01*
X80891285Y-132758690D02*
X80557952Y-133258690D01*
X80557952Y-132758690D02*
X80891285Y-133258690D01*
X80105571Y-133258690D02*
X80391285Y-133258690D01*
X80248428Y-133258690D02*
X80248428Y-132758690D01*
X80296047Y-132830119D01*
X80343666Y-132877738D01*
X80391285Y-132901547D01*
G04 #@! TO.C,J_ICSP1*
X59824785Y-92353190D02*
X59824785Y-92710333D01*
X59848595Y-92781761D01*
X59896214Y-92829380D01*
X59967642Y-92853190D01*
X60015261Y-92853190D01*
X59705738Y-92900809D02*
X59324785Y-92900809D01*
X59205738Y-92853190D02*
X59205738Y-92353190D01*
X58681928Y-92805571D02*
X58705738Y-92829380D01*
X58777166Y-92853190D01*
X58824785Y-92853190D01*
X58896214Y-92829380D01*
X58943833Y-92781761D01*
X58967642Y-92734142D01*
X58991452Y-92638904D01*
X58991452Y-92567476D01*
X58967642Y-92472238D01*
X58943833Y-92424619D01*
X58896214Y-92377000D01*
X58824785Y-92353190D01*
X58777166Y-92353190D01*
X58705738Y-92377000D01*
X58681928Y-92400809D01*
X58491452Y-92829380D02*
X58420023Y-92853190D01*
X58300976Y-92853190D01*
X58253357Y-92829380D01*
X58229547Y-92805571D01*
X58205738Y-92757952D01*
X58205738Y-92710333D01*
X58229547Y-92662714D01*
X58253357Y-92638904D01*
X58300976Y-92615095D01*
X58396214Y-92591285D01*
X58443833Y-92567476D01*
X58467642Y-92543666D01*
X58491452Y-92496047D01*
X58491452Y-92448428D01*
X58467642Y-92400809D01*
X58443833Y-92377000D01*
X58396214Y-92353190D01*
X58277166Y-92353190D01*
X58205738Y-92377000D01*
X57991452Y-92853190D02*
X57991452Y-92353190D01*
X57800976Y-92353190D01*
X57753357Y-92377000D01*
X57729547Y-92400809D01*
X57705738Y-92448428D01*
X57705738Y-92519857D01*
X57729547Y-92567476D01*
X57753357Y-92591285D01*
X57800976Y-92615095D01*
X57991452Y-92615095D01*
X57229547Y-92853190D02*
X57515261Y-92853190D01*
X57372404Y-92853190D02*
X57372404Y-92353190D01*
X57420023Y-92424619D01*
X57467642Y-92472238D01*
X57515261Y-92496047D01*
G04 #@! TD*
M02*
