M48
;DRILL file {KiCad (5.0.0-3-g5ebb6b6)} date Thursday, 29 November 2018 at 05:39:17
;FORMAT={-:-/ absolute / metric / decimal}
FMAT,2
METRIC,TZ
T1C0.400
T2C0.900
T3C0.990
T4C1.000
T5C1.090
T6C1.500
T7C2.000
%
G90
G05
M71
T1
X55.617Y-138.675
X58.42Y-93.98
X58.42Y-95.885
X61.468Y-139.446
X61.981Y-89.467
X63.5Y-139.446
X68.834Y-141.986
X69.112Y-94.724
X69.256Y-89.494
X72.009Y-95.377
X72.39Y-88.265
X72.771Y-135.89
X75.692Y-133.096
X76.2Y-104.902
X77.978Y-133.096
X78.232Y-102.362
X80.645Y-85.725
X83.058Y-134.366
X83.312Y-102.362
X83.439Y-137.795
X83.439Y-145.415
X84.709Y-137.795
X84.709Y-145.415
X85.852Y-134.366
X85.979Y-137.795
X85.979Y-139.065
X85.979Y-140.335
X85.979Y-142.875
X85.979Y-144.145
X85.979Y-145.415
X87.249Y-137.795
X87.249Y-139.065
X87.249Y-140.335
X87.249Y-142.875
X87.249Y-144.145
X87.249Y-145.415
X90.551Y-137.795
X90.551Y-139.065
X90.551Y-140.335
X90.551Y-141.605
X90.551Y-142.875
X90.551Y-144.145
X90.551Y-145.415
X90.805Y-85.725
X91.821Y-137.795
X91.821Y-139.065
X91.821Y-140.335
X91.821Y-141.605
X91.821Y-142.875
X91.821Y-144.145
X91.821Y-145.415
X92.71Y-130.175
X93.091Y-137.795
X93.091Y-139.065
X93.091Y-145.415
X94.361Y-137.795
X94.361Y-139.065
X94.361Y-145.415
X94.551Y-93.091
X95.21Y-101.155
X99.178Y-135.636
X99.695Y-130.175
X104.146Y-92.482
X104.648Y-76.708
X105.156Y-128.016
X105.156Y-145.796
X106.68Y-136.525
T2
X80.709Y-105.918
X80.709Y-108.458
X83.312Y-77.216
X85.852Y-77.216
X75.755Y-77.216
X78.295Y-77.216
T3
X77.459Y-88.618
X77.459Y-93.118
X83.959Y-88.618
X83.959Y-93.118
T4
X92.71Y-97.79
X95.21Y-97.79
X97.71Y-97.79
X92.79Y-83.82
X95.29Y-83.82
X97.79Y-83.82
X76.835Y-128.651
X76.835Y-131.191
X79.375Y-128.651
X79.375Y-131.191
X81.915Y-128.651
X81.915Y-131.191
X84.455Y-128.651
X84.455Y-131.191
X86.995Y-128.651
X86.995Y-131.191
X95.504Y-154.94
X95.504Y-157.48
X95.504Y-160.02
X95.504Y-162.56
X95.504Y-165.1
X98.044Y-154.94
X98.044Y-157.48
X98.044Y-160.02
X98.044Y-162.56
X98.044Y-165.1
X57.34Y-85.217
X57.34Y-87.757
X57.34Y-90.297
X59.88Y-85.217
X59.88Y-87.757
X59.88Y-90.297
X63.5Y-97.79
X66.Y-97.79
X68.5Y-97.79
X63.58Y-83.82
X66.08Y-83.82
X68.58Y-83.82
T5
X78.169Y-99.822
X80.709Y-99.822
X83.249Y-99.822
T6
X75.248Y-155.245
X75.248Y-160.045
X75.248Y-164.833
X80.556Y-155.245
X80.556Y-160.045
X80.564Y-164.838
X85.837Y-164.851
X85.852Y-160.045
X85.865Y-155.245
T7
X90.868Y-112.395
X90.868Y-123.825
X103.569Y-112.395
X103.569Y-123.825
X57.721Y-112.395
X57.721Y-123.825
X70.421Y-112.395
X70.421Y-123.825
T4
X61.31Y-131.715G85X61.31Y-133.715
G05
X63.31Y-128.015G85X65.31Y-128.015
G05
X67.31Y-131.715G85X67.31Y-133.715
G05
T0
M30
