<?xml version="1.0" standalone="no"?>
 <!DOCTYPE svg PUBLIC "-//W3C//DTD SVG 1.1//EN" 
 "http://www.w3.org/Graphics/SVG/1.1/DTD/svg11.dtd"> 
<svg xmlns="http://www.w3.org/2000/svg" version="1.1" 
    width="7.2263cm" height="11.2624cm" viewBox="0 0 28450 44340 ">
<title>SVG Picture created as Atomizer-B.SilkS.svg date 2019/06/01 17:50:49 </title>
  <desc>Picture generated by PCBNEW </desc>
<g style="fill:#000000; fill-opacity:1;stroke:#000000; stroke-opacity:1;
stroke-linecap:round; stroke-linejoin:round; "
 transform="translate(0 0) scale(1 1)">
</g>
<g style="fill:#000000; fill-opacity:0.0; 
stroke:#000000; stroke-width:-0.000393701; stroke-opacity:1; 
stroke-linecap:round; stroke-linejoin:round;">
</g>
<g style="fill:#840084; fill-opacity:0.0; 
stroke:#840084; stroke-width:-0.000393701; stroke-opacity:1; 
stroke-linecap:round; stroke-linejoin:round;">
</g>
<g style="fill:#840084; fill-opacity:0.0; 
stroke:#840084; stroke-width:49.2126; stroke-opacity:1; 
stroke-linecap:round; stroke-linejoin:round;">
<path d="M13481 19038
L13481 18841
L13415 18982
L13349 18841
L13349 19038
" />
<path d="M13171 19038
L13171 18935
L13181 18916
L13199 18907
L13237 18907
L13256 18916
" />
<path d="M13171 19029
L13190 19038
L13237 19038
L13256 19029
L13265 19010
L13265 18991
L13256 18972
L13237 18963
L13190 18963
L13171 18954
" />
<path d="M13096 19038
L12993 18907
" />
<path d="M13096 18907
L12993 19038
" />
<path d="M12665 19038
L12777 19038
" />
<path d="M12721 19038
L12721 18841
L12740 18869
L12759 18888
L12777 18897
" />
<path d="M12581 19038
L12581 18841
" />
<path d="M12468 19038
L12553 18925
" />
<path d="M12468 18841
L12581 18954
" />
<path d="M23384 14891
L23402 14881
L23412 14863
L23412 14694
" />
<path d="M23281 14891
L23299 14881
L23309 14872
L23318 14853
L23318 14797
L23309 14778
L23299 14769
L23281 14759
L23252 14759
L23234 14769
L23224 14778
L23215 14797
L23215 14853
L23224 14872
L23234 14881
L23252 14891
L23281 14891
" />
<path d="M23149 14759
L23112 14891
L23074 14797
L23037 14891
L22999 14759
" />
<path d="M22849 14881
L22868 14891
L22906 14891
L22924 14881
L22934 14863
L22934 14788
L22924 14769
L22906 14759
L22868 14759
L22849 14769
L22840 14788
L22840 14806
L22934 14825
" />
<path d="M22756 14891
L22756 14759
" />
<path d="M22756 14797
L22746 14778
L22737 14769
L22718 14759
L22699 14759
" />
<path d="M22503 14759
L22456 14891
L22409 14759
" />
<path d="M22249 14891
L22249 14788
L22259 14769
L22278 14759
L22315 14759
L22334 14769
" />
<path d="M22249 14881
L22268 14891
L22315 14891
L22334 14881
L22343 14863
L22343 14844
L22334 14825
L22315 14816
L22268 14816
L22249 14806
" />
<path d="M22128 14891
L22146 14881
L22156 14863
L22156 14694
" />
<path d="M23487 15235
L23487 15104
" />
<path d="M23487 15123
L23477 15113
L23459 15104
L23431 15104
L23412 15113
L23402 15132
L23402 15235
" />
<path d="M23402 15132
L23393 15113
L23374 15104
L23346 15104
L23327 15113
L23318 15132
L23318 15235
" />
<path d="M23196 15235
L23215 15226
L23224 15216
L23234 15198
L23234 15141
L23224 15123
L23215 15113
L23196 15104
L23168 15104
L23149 15113
L23140 15123
L23131 15141
L23131 15198
L23140 15216
L23149 15226
L23168 15235
L23196 15235
" />
<path d="M23046 15235
L23046 15104
" />
<path d="M23046 15141
L23037 15123
L23027 15113
L23009 15104
L22990 15104
" />
<path d="M22849 15226
L22868 15235
L22906 15235
L22924 15226
L22934 15207
L22934 15132
L22924 15113
L22906 15104
L22868 15104
L22849 15113
L22840 15132
L22840 15151
L22934 15170
" />
<path d="M22521 15104
L22521 15263
L22531 15282
L22540 15291
L22559 15301
L22587 15301
L22606 15291
" />
<path d="M22521 15226
L22540 15235
L22577 15235
L22596 15226
L22606 15216
L22615 15198
L22615 15141
L22606 15123
L22596 15113
L22577 15104
L22540 15104
L22521 15113
" />
<path d="M22343 15235
L22343 15132
L22353 15113
L22371 15104
L22409 15104
L22428 15113
" />
<path d="M22343 15226
L22362 15235
L22409 15235
L22428 15226
L22437 15207
L22437 15188
L22428 15170
L22409 15160
L22362 15160
L22343 15151
" />
<path d="M22249 15235
L22249 15104
" />
<path d="M22249 15038
L22259 15048
L22249 15057
L22240 15048
L22249 15038
L22249 15057
" />
<path d="M22156 15104
L22156 15235
" />
<path d="M22156 15123
L22146 15113
L22128 15104
L22099 15104
L22081 15113
L22071 15132
L22071 15235
" />
</g>
<g style="fill:#840084; fill-opacity:0.0; 
stroke:#840084; stroke-width:196.85; stroke-opacity:1; 
stroke-linecap:round; stroke-linejoin:round;">
</g>
<g style="fill:#840084; fill-opacity:1.0; 
stroke:#840084; stroke-width:0; stroke-opacity:1; 
stroke-linecap:round; stroke-linejoin:round;">
<circle cx="4204.53" cy="10699.4" r="188.564" /> 
</g>
<g style="fill:#840084; fill-opacity:0.0; 
stroke:#840084; stroke-width:0; stroke-opacity:1; 
stroke-linecap:round; stroke-linejoin:round;">
</g>
<g style="fill:#840084; fill-opacity:0.0; 
stroke:#840084; stroke-width:78.7402; stroke-opacity:1; 
stroke-linecap:round; stroke-linejoin:round;">
<path d="M16988 25116
L16988 24801
L16838 24801
L16801 24816
L16782 24831
L16763 24861
L16763 24906
L16782 24936
L16801 24951
L16838 24966
L16988 24966
" />
<path d="M16407 25116
L16594 25116
L16594 24801
" />
<path d="M16276 24801
L16276 25056
L16257 25086
L16238 25101
L16201 25116
L16126 25116
L16088 25101
L16069 25086
L16051 25056
L16051 24801
" />
<path d="M15657 24816
L15695 24801
L15751 24801
L15807 24816
L15845 24846
L15863 24876
L15882 24936
L15882 24981
L15863 25041
L15845 25071
L15807 25101
L15751 25116
L15713 25116
L15657 25101
L15638 25086
L15638 24981
L15713 24981
" />
<path d="M15226 24801
L15001 24801
" />
<path d="M15113 25116
L15113 24801
" />
<path d="M14870 25116
L14870 24801
" />
<path d="M14870 24951
L14645 24951
" />
<path d="M14645 25116
L14645 24801
" />
<path d="M14457 25116
L14457 24801
" />
<path d="M14288 25101
L14232 25116
L14138 25116
L14101 25101
L14082 25086
L14063 25056
L14063 25026
L14082 24996
L14101 24981
L14138 24966
L14213 24951
L14251 24936
L14270 24921
L14288 24891
L14288 24861
L14270 24831
L14251 24816
L14213 24801
L14120 24801
L14063 24816
" />
<path d="M13614 25101
L13557 25116
L13464 25116
L13426 25101
L13407 25086
L13389 25056
L13389 25026
L13407 24996
L13426 24981
L13464 24966
L13539 24951
L13576 24936
L13595 24921
L13614 24891
L13614 24861
L13595 24831
L13576 24816
L13539 24801
L13445 24801
L13389 24816
" />
<path d="M13220 25116
L13220 24801
" />
<path d="M13032 25116
L13032 24801
L12939 24801
L12882 24816
L12845 24846
L12826 24876
L12807 24936
L12807 24981
L12826 25041
L12845 25071
L12882 25101
L12939 25116
L13032 25116
" />
<path d="M12639 24951
L12507 24951
" />
<path d="M12451 25116
L12639 25116
L12639 24801
L12451 24801
" />
<path d="M23310 9445
L23123 9445
" />
<path d="M23348 9558
L23216 9164
L23085 9558
" />
<path d="M23010 9164
L22785 9164
" />
<path d="M22898 9558
L22898 9164
" />
<path d="M22579 9164
L22504 9164
L22466 9183
L22429 9220
L22410 9295
L22410 9426
L22429 9501
L22466 9539
L22504 9558
L22579 9558
L22616 9539
L22654 9501
L22673 9426
L22673 9295
L22654 9220
L22616 9183
L22579 9164
" />
<path d="M22241 9558
L22241 9164
L22110 9445
L21979 9164
L21979 9558
" />
<path d="M21792 9558
L21792 9164
" />
<path d="M21642 9164
L21379 9164
L21642 9558
L21379 9558
" />
<path d="M21229 9351
L21098 9351
" />
<path d="M21042 9558
L21229 9558
L21229 9164
L21042 9164
" />
<path d="M20648 9558
L20779 9370
" />
<path d="M20873 9558
L20873 9164
L20723 9164
L20685 9183
L20667 9201
L20648 9239
L20648 9295
L20667 9333
L20685 9351
L20723 9370
L20873 9370
" />
<path d="M23507 10189
L23526 10208
L23582 10227
L23619 10227
L23676 10208
L23713 10171
L23732 10133
L23751 10058
L23751 10002
L23732 9927
L23713 9890
L23676 9852
L23619 9833
L23582 9833
L23526 9852
L23507 9871
" />
<path d="M23338 10227
L23338 9833
" />
<path d="M23170 10227
L23170 10021
L23188 9983
L23226 9965
L23282 9965
L23319 9983
L23338 10002
" />
<path d="M22982 10227
L22982 9965
" />
<path d="M22982 10039
L22963 10002
L22945 9983
L22907 9965
L22870 9965
" />
<path d="M22738 10227
L22738 9965
" />
<path d="M22738 9833
L22757 9852
L22738 9871
L22720 9852
L22738 9833
L22738 9871
" />
<path d="M22570 10208
L22532 10227
L22457 10227
L22420 10208
L22401 10171
L22401 10152
L22420 10114
L22457 10096
L22513 10096
L22551 10077
L22570 10039
L22570 10021
L22551 9983
L22513 9965
L22457 9965
L22420 9983
" />
<path d="M21951 10208
L21895 10227
L21801 10227
L21763 10208
L21745 10189
L21726 10152
L21726 10114
L21745 10077
L21763 10058
L21801 10039
L21876 10021
L21913 10002
L21932 9983
L21951 9946
L21951 9908
L21932 9871
L21913 9852
L21876 9833
L21782 9833
L21726 9852
" />
<path d="M21388 9965
L21388 10227
" />
<path d="M21557 9965
L21557 10171
L21538 10208
L21501 10227
L21445 10227
L21407 10208
L21388 10189
" />
<path d="M21257 9965
L21107 9965
" />
<path d="M21201 9833
L21201 10171
L21182 10208
L21145 10227
L21107 10227
" />
<path d="M21032 9965
L20882 9965
" />
<path d="M20976 9833
L20976 10171
L20957 10208
L20920 10227
L20882 10227
" />
<path d="M20695 10227
L20732 10208
L20751 10189
L20770 10152
L20770 10039
L20751 10002
L20732 9983
L20695 9965
L20639 9965
L20601 9983
L20582 10002
L20564 10039
L20564 10152
L20582 10189
L20601 10208
L20639 10227
L20695 10227
" />
<path d="M20395 9965
L20395 10227
" />
<path d="M20395 10002
L20376 9983
L20339 9965
L20282 9965
L20245 9983
L20226 10021
L20226 10227
" />
<path d="M23273 10896
L23404 10709
" />
<path d="M23498 10896
L23498 10503
L23348 10503
L23310 10521
L23291 10540
L23273 10578
L23273 10634
L23291 10671
L23310 10690
L23348 10709
L23498 10709
" />
<path d="M22954 10878
L22991 10896
L23066 10896
L23104 10878
L23123 10840
L23123 10690
L23104 10653
L23066 10634
L22991 10634
L22954 10653
L22935 10690
L22935 10728
L23123 10765
" />
<path d="M22804 10634
L22710 10896
L22616 10634
" />
<path d="M22335 10690
L22279 10709
L22260 10728
L22241 10765
L22241 10821
L22260 10859
L22279 10878
L22316 10896
L22466 10896
L22466 10503
L22335 10503
L22298 10521
L22279 10540
L22260 10578
L22260 10615
L22279 10653
L22298 10671
L22335 10690
L22466 10690
" />
<path d="M21792 10540
L21773 10521
L21735 10503
L21642 10503
L21604 10521
L21585 10540
L21567 10578
L21567 10615
L21585 10671
L21810 10896
L21567 10896
" />
<path d="M21323 10503
L21285 10503
L21248 10521
L21229 10540
L21210 10578
L21192 10653
L21192 10746
L21210 10821
L21229 10859
L21248 10878
L21285 10896
L21323 10896
L21360 10878
L21379 10859
L21398 10821
L21417 10746
L21417 10653
L21398 10578
L21379 10540
L21360 10521
L21323 10503
" />
<path d="M20817 10896
L21042 10896
" />
<path d="M20929 10896
L20929 10503
L20967 10559
L21004 10596
L21042 10615
" />
<path d="M20629 10896
L20554 10896
L20517 10878
L20498 10859
L20460 10803
L20442 10728
L20442 10578
L20460 10540
L20479 10521
L20517 10503
L20592 10503
L20629 10521
L20648 10540
L20667 10578
L20667 10671
L20648 10709
L20629 10728
L20592 10746
L20517 10746
L20479 10728
L20460 10709
L20442 10671
" />
<path d="M9610 37445
L9423 37445
" />
<path d="M9648 37558
L9516 37164
L9385 37558
" />
<path d="M9310 37164
L9085 37164
" />
<path d="M9198 37558
L9198 37164
" />
<path d="M8879 37164
L8804 37164
L8766 37183
L8729 37220
L8710 37295
L8710 37426
L8729 37501
L8766 37539
L8804 37558
L8879 37558
L8916 37539
L8954 37501
L8973 37426
L8973 37295
L8954 37220
L8916 37183
L8879 37164
" />
<path d="M8541 37558
L8541 37164
L8410 37445
L8279 37164
L8279 37558
" />
<path d="M8092 37558
L8092 37164
" />
<path d="M7942 37164
L7679 37164
L7942 37558
L7679 37558
" />
<path d="M7529 37351
L7398 37351
" />
<path d="M7342 37558
L7529 37558
L7529 37164
L7342 37164
" />
<path d="M6948 37558
L7079 37370
" />
<path d="M7173 37558
L7173 37164
L7023 37164
L6985 37183
L6967 37201
L6948 37239
L6948 37295
L6967 37333
L6985 37351
L7023 37370
L7173 37370
" />
<path d="M9807 38189
L9826 38208
L9882 38227
L9919 38227
L9976 38208
L10013 38171
L10032 38133
L10051 38058
L10051 38002
L10032 37927
L10013 37890
L9976 37852
L9919 37833
L9882 37833
L9826 37852
L9807 37871
" />
<path d="M9638 38227
L9638 37833
" />
<path d="M9470 38227
L9470 38021
L9488 37983
L9526 37965
L9582 37965
L9619 37983
L9638 38002
" />
<path d="M9282 38227
L9282 37965
" />
<path d="M9282 38039
L9263 38002
L9245 37983
L9207 37965
L9170 37965
" />
<path d="M9038 38227
L9038 37965
" />
<path d="M9038 37833
L9057 37852
L9038 37871
L9020 37852
L9038 37833
L9038 37871
" />
<path d="M8870 38208
L8832 38227
L8757 38227
L8720 38208
L8701 38171
L8701 38152
L8720 38114
L8757 38096
L8813 38096
L8851 38077
L8870 38039
L8870 38021
L8851 37983
L8813 37965
L8757 37965
L8720 37983
" />
<path d="M8251 38208
L8195 38227
L8101 38227
L8063 38208
L8045 38189
L8026 38152
L8026 38114
L8045 38077
L8063 38058
L8101 38039
L8176 38021
L8213 38002
L8232 37983
L8251 37946
L8251 37908
L8232 37871
L8213 37852
L8176 37833
L8082 37833
L8026 37852
" />
<path d="M7688 37965
L7688 38227
" />
<path d="M7857 37965
L7857 38171
L7838 38208
L7801 38227
L7745 38227
L7707 38208
L7688 38189
" />
<path d="M7557 37965
L7407 37965
" />
<path d="M7501 37833
L7501 38171
L7482 38208
L7445 38227
L7407 38227
" />
<path d="M7332 37965
L7182 37965
" />
<path d="M7276 37833
L7276 38171
L7257 38208
L7220 38227
L7182 38227
" />
<path d="M6995 38227
L7032 38208
L7051 38189
L7070 38152
L7070 38039
L7051 38002
L7032 37983
L6995 37965
L6939 37965
L6901 37983
L6882 38002
L6864 38039
L6864 38152
L6882 38189
L6901 38208
L6939 38227
L6995 38227
" />
<path d="M6695 37965
L6695 38227
" />
<path d="M6695 38002
L6676 37983
L6639 37965
L6582 37965
L6545 37983
L6526 38021
L6526 38227
" />
<path d="M9788 38540
L9769 38521
L9732 38503
L9638 38503
L9601 38521
L9582 38540
L9563 38578
L9563 38615
L9582 38671
L9807 38896
L9563 38896
" />
<path d="M9320 38503
L9282 38503
L9245 38521
L9226 38540
L9207 38578
L9188 38653
L9188 38746
L9207 38821
L9226 38859
L9245 38878
L9282 38896
L9320 38896
L9357 38878
L9376 38859
L9395 38821
L9413 38746
L9413 38653
L9395 38578
L9376 38540
L9357 38521
L9320 38503
" />
<path d="M8813 38896
L9038 38896
" />
<path d="M8926 38896
L8926 38503
L8963 38559
L9001 38596
L9038 38615
" />
<path d="M8588 38671
L8626 38653
L8645 38634
L8663 38596
L8663 38578
L8645 38540
L8626 38521
L8588 38503
L8513 38503
L8476 38521
L8457 38540
L8438 38578
L8438 38596
L8457 38634
L8476 38653
L8513 38671
L8588 38671
L8626 38690
L8645 38709
L8663 38746
L8663 38821
L8645 38859
L8626 38878
L8588 38896
L8513 38896
L8476 38878
L8457 38859
L8438 38821
L8438 38746
L8457 38709
L8476 38690
L8513 38671
" />
<path d="M7745 38896
L7876 38709
" />
<path d="M7970 38896
L7970 38503
L7820 38503
L7782 38521
L7763 38540
L7745 38578
L7745 38634
L7763 38671
L7782 38690
L7820 38709
L7970 38709
" />
<path d="M7426 38878
L7464 38896
L7538 38896
L7576 38878
L7595 38840
L7595 38690
L7576 38653
L7538 38634
L7464 38634
L7426 38653
L7407 38690
L7407 38728
L7595 38765
" />
<path d="M7276 38634
L7182 38896
L7089 38634
" />
<path d="M6957 38784
L6770 38784
" />
<path d="M6995 38896
L6864 38503
L6732 38896
" />
</g>
<g style="fill:#840084; fill-opacity:0.0; 
stroke:#840084; stroke-width:59.0551; stroke-opacity:1; 
stroke-linecap:round; stroke-linejoin:round;">
<path d="M16429 18649
L24929 18649
" />
<path d="M16429 24649
L16429 18649
" />
<path d="M24929 24649
L16429 24649
" />
<path d="M24929 18649
L24929 24649
" />
<path d="M12029 24649
L3529 24649
" />
<path d="M12029 18649
L12029 24649
" />
<path d="M3529 18649
L12029 18649
" />
<path d="M3529 24649
L3529 18649
" />
</g>
<g style="fill:#840084; fill-opacity:0.0; 
stroke:#840084; stroke-width:47.2441; stroke-opacity:1; 
stroke-linecap:round; stroke-linejoin:round;">
<path d="M21603 35625
L21079 35625
" />
<path d="M21603 36149
L21603 35625
" />
<path d="M20579 35625
L19555 35625
" />
<path d="M20579 36649
L20579 35625
" />
<path d="M21603 36649
L20579 36649
" />
<path d="M19555 35625
L19555 40672
" />
<path d="M21603 36649
L21603 40672
" />
<path d="M21603 40672
L19555 40672
" />
<path d="M12200 19002
L12200 18796
" />
<path d="M12759 19002
L12759 18796
" />
<path d="M21026 14694
L21232 14694
" />
<path d="M21026 15253
L21232 15253
" />
<path d="M9412 28875
L9412 29289
" />
<path d="M8999 29289
L9412 29289
" />
<path d="M7011 25588
L3546 25588
" />
<path d="M3546 25588
L3546 29210
" />
<path d="M9333 26651
L9333 25588
" />
<path d="M9333 25588
L8585 25588
" />
<path d="M3546 29210
L9333 29210
" />
<path d="M9333 29210
L9333 28186
" />
<path d="M12205 25275
L12205 27322
" />
<path d="M16229 25275
L12205 25275
" />
<path d="M17253 27322
L12205 27322
" />
<path d="M16229 25275
L16229 26299
" />
<path d="M16229 26299
L17253 26299
" />
<path d="M17253 26299
L17253 27322
" />
<path d="M16729 25275
L17253 25275
" />
<path d="M17253 25275
L17253 25799
" />
<path d="M4530 8175
L6578 8175
" />
<path d="M4530 10199
L4530 8175
" />
<path d="M6578 11222
L6578 8175
" />
<path d="M4530 10199
L5554 10199
" />
<path d="M5554 10199
L5554 11222
" />
<path d="M5554 11222
L6578 11222
" />
<path d="M4530 10699
L4530 11222
" />
<path d="M4530 11222
L5054 11222
" />
</g>
<g style="fill:#840084; fill-opacity:0.0; 
stroke:#840084; stroke-width:59.0551; stroke-opacity:1; 
stroke-linecap:round; stroke-linejoin:round;">
<path d="M24560 17933
L24560 18214
L24579 18271
L24616 18308
L24673 18327
L24710 18327
" />
<path d="M24466 18364
L24167 18364
" />
<path d="M24073 18327
L24073 17933
" />
<path d="M23885 18327
L23885 17933
L23660 18327
L23660 17933
" />
<path d="M23267 18327
L23492 18327
" />
<path d="M23379 18327
L23379 17933
L23417 17990
L23454 18027
L23492 18046
" />
<path d="M5323 17933
L5323 18214
L5341 18271
L5379 18308
L5435 18327
L5473 18327
" />
<path d="M5229 18364
L4929 18364
" />
<path d="M4760 17933
L4685 17933
L4648 17952
L4610 17990
L4592 18065
L4592 18196
L4610 18271
L4648 18308
L4685 18327
L4760 18327
L4798 18308
L4835 18271
L4854 18196
L4854 18065
L4835 17990
L4798 17952
L4760 17933
" />
<path d="M4423 17933
L4423 18252
L4404 18289
L4385 18308
L4348 18327
L4273 18327
L4235 18308
L4217 18289
L4198 18252
L4198 17933
" />
<path d="M4067 17933
L3842 17933
" />
<path d="M3954 18327
L3954 17933
" />
<path d="M3504 18327
L3729 18327
" />
<path d="M3617 18327
L3617 17933
L3654 17990
L3692 18027
L3729 18046
" />
<path d="M22473 40733
L22473 41014
L22491 41071
L22529 41108
L22585 41127
L22623 41127
" />
<path d="M22379 41164
L22079 41164
" />
<path d="M22004 41014
L21816 41014
" />
<path d="M22041 41127
L21910 40733
L21779 41127
" />
<path d="M21648 40733
L21648 41052
L21629 41089
L21610 41108
L21573 41127
L21498 41127
L21460 41108
L21441 41089
L21423 41052
L21423 40733
" />
<path d="M21273 40733
L21010 41127
" />
<path d="M21010 40733
L21273 41127
" />
<path d="M20916 40733
L20692 40733
" />
<path d="M20804 41127
L20804 40733
" />
<path d="M20485 40733
L20410 40733
L20373 40752
L20335 40790
L20317 40865
L20317 40996
L20335 41071
L20373 41108
L20410 41127
L20485 41127
L20523 41108
L20560 41071
L20579 40996
L20579 40865
L20560 40790
L20523 40752
L20485 40733
" />
<path d="M20148 41127
L20148 40733
L20017 41014
L19885 40733
L19885 41127
" />
<path d="M19717 41014
L19529 41014
" />
<path d="M19754 41127
L19623 40733
L19492 41127
" />
<path d="M19360 41127
L19360 40733
" />
<path d="M19173 41127
L19173 40733
L18948 41127
L18948 40733
" />
<path d="M18554 41127
L18779 41127
" />
<path d="M18667 41127
L18667 40733
L18704 40790
L18742 40827
L18779 40846
" />
<path d="M13720 20177
L13851 19989
" />
<path d="M13945 20177
L13945 19783
L13795 19783
L13757 19802
L13738 19821
L13720 19858
L13720 19915
L13738 19952
L13757 19971
L13795 19989
L13945 19989
" />
<path d="M13645 20214
L13345 20214
" />
<path d="M13063 20177
L13251 20177
L13251 19783
" />
<path d="M12932 20177
L12932 19783
L12782 19783
L12745 19802
L12726 19821
L12707 19858
L12707 19915
L12726 19952
L12745 19971
L12782 19989
L12932 19989
" />
<path d="M12407 19971
L12538 19971
" />
<path d="M12538 20177
L12538 19783
L12351 19783
" />
<path d="M11995 20177
L12220 20177
" />
<path d="M12107 20177
L12107 19783
L12145 19840
L12182 19877
L12220 19896
" />
<path d="M19810 15152
L19941 14964
" />
<path d="M20035 15152
L20035 14758
L19885 14758
L19848 14777
L19829 14796
L19810 14833
L19810 14890
L19829 14927
L19848 14946
L19885 14964
L20035 14964
" />
<path d="M19735 15189
L19435 15189
" />
<path d="M19135 14777
L19173 14758
L19229 14758
L19285 14777
L19323 14815
L19341 14852
L19360 14927
L19360 14983
L19341 15058
L19323 15096
L19285 15133
L19229 15152
L19191 15152
L19135 15133
L19117 15114
L19117 14983
L19191 14983
" />
<path d="M18967 15039
L18779 15039
" />
<path d="M19004 15152
L18873 14758
L18742 15152
" />
<path d="M18610 15152
L18610 14758
" />
<path d="M18423 15152
L18423 14758
L18198 15152
L18198 14758
" />
<path d="M17804 15152
L18029 15152
" />
<path d="M17917 15152
L17917 14758
L17954 14815
L17992 14852
L18029 14871
" />
<path d="M5879 25033
L5879 25314
L5898 25371
L5935 25408
L5991 25427
L6029 25427
" />
<path d="M5785 25464
L5485 25464
" />
<path d="M5391 25427
L5391 25033
L5241 25033
L5204 25052
L5185 25071
L5167 25108
L5167 25165
L5185 25202
L5204 25221
L5241 25239
L5391 25239
" />
<path d="M5035 25033
L4942 25427
L4867 25146
L4792 25427
L4698 25033
" />
<path d="M4323 25427
L4454 25239
" />
<path d="M4548 25427
L4548 25033
L4398 25033
L4360 25052
L4342 25071
L4323 25108
L4323 25165
L4342 25202
L4360 25221
L4398 25239
L4548 25239
" />
<path d="M3948 25427
L4173 25427
" />
<path d="M4060 25427
L4060 25033
L4098 25090
L4135 25127
L4173 25146
" />
<path d="M16923 27308
L16923 27589
L16941 27646
L16979 27683
L17035 27702
L17073 27702
" />
<path d="M16829 27739
L16529 27739
" />
<path d="M16435 27702
L16435 27308
L16304 27589
L16173 27308
L16173 27702
" />
<path d="M16004 27589
L15816 27589
" />
<path d="M16041 27702
L15910 27308
L15779 27702
" />
<path d="M15648 27702
L15648 27308
" />
<path d="M15460 27702
L15460 27308
L15235 27702
L15235 27308
" />
<path d="M15104 27308
L14879 27308
" />
<path d="M14992 27702
L14992 27308
" />
<path d="M14673 27308
L14598 27308
L14560 27327
L14523 27365
L14504 27440
L14504 27571
L14523 27646
L14560 27683
L14598 27702
L14673 27702
L14710 27683
L14748 27646
L14767 27571
L14767 27440
L14748 27365
L14710 27327
L14673 27308
" />
<path d="M14354 27589
L14167 27589
" />
<path d="M14392 27702
L14260 27308
L14129 27702
" />
<path d="M13998 27308
L13998 27627
L13979 27664
L13960 27683
L13923 27702
L13848 27702
L13810 27683
L13792 27664
L13773 27627
L13773 27308
" />
<path d="M13623 27308
L13360 27702
" />
<path d="M13360 27308
L13623 27702
" />
<path d="M13004 27702
L13229 27702
" />
<path d="M13117 27702
L13117 27308
L13154 27365
L13192 27402
L13229 27421
" />
<path d="M6510 11401
L6510 11682
L6529 11738
L6566 11776
L6623 11794
L6660 11794
" />
<path d="M6416 11832
L6116 11832
" />
<path d="M6023 11794
L6023 11401
" />
<path d="M5610 11757
L5629 11776
L5685 11794
L5723 11794
L5779 11776
L5816 11738
L5835 11701
L5854 11626
L5854 11569
L5835 11494
L5816 11457
L5779 11419
L5723 11401
L5685 11401
L5629 11419
L5610 11438
" />
<path d="M5460 11776
L5404 11794
L5310 11794
L5273 11776
L5254 11757
L5235 11719
L5235 11682
L5254 11644
L5273 11626
L5310 11607
L5385 11588
L5423 11569
L5442 11551
L5460 11513
L5460 11476
L5442 11438
L5423 11419
L5385 11401
L5292 11401
L5235 11419
" />
<path d="M5067 11794
L5067 11401
L4917 11401
L4879 11419
L4860 11438
L4842 11476
L4842 11532
L4860 11569
L4879 11588
L4917 11607
L5067 11607
" />
<path d="M4467 11794
L4692 11794
" />
<path d="M4579 11794
L4579 11401
L4617 11457
L4654 11494
L4692 11513
" />
</g> 
</svg>
