<?xml version="1.0" standalone="no"?>
 <!DOCTYPE svg PUBLIC "-//W3C//DTD SVG 1.1//EN" 
 "http://www.w3.org/Graphics/SVG/1.1/DTD/svg11.dtd"> 
<svg xmlns="http://www.w3.org/2000/svg" version="1.1" 
    width="7.2263cm" height="11.2624cm" viewBox="0 0 28450 44340 ">
<title>SVG Picture created as Atomizer-F.SilkS.svg date 2019/06/01 17:50:49 </title>
  <desc>Picture generated by PCBNEW </desc>
<g style="fill:#000000; fill-opacity:1;stroke:#000000; stroke-opacity:1;
stroke-linecap:round; stroke-linejoin:round; "
 transform="translate(0 0) scale(1 1)">
</g>
<g style="fill:#000000; fill-opacity:0.0; 
stroke:#000000; stroke-width:-0.000393701; stroke-opacity:1; 
stroke-linecap:round; stroke-linejoin:round;">
</g>
<g style="fill:#008484; fill-opacity:0.0; 
stroke:#008484; stroke-width:-0.000393701; stroke-opacity:1; 
stroke-linecap:round; stroke-linejoin:round;">
</g>
<g style="fill:#008484; fill-opacity:0.0; 
stroke:#008484; stroke-width:196.85; stroke-opacity:1; 
stroke-linecap:round; stroke-linejoin:round;">
</g>
<g style="fill:#008484; fill-opacity:1.0; 
stroke:#008484; stroke-width:0; stroke-opacity:1; 
stroke-linecap:round; stroke-linejoin:round;">
<circle cx="15679.5" cy="8399.37" r="137.795" /> 
</g>
<g style="fill:#008484; fill-opacity:0.0; 
stroke:#008484; stroke-width:78.7402; stroke-opacity:1; 
stroke-linecap:round; stroke-linejoin:round;">
<circle cx="21229.5" cy="27649.4" r="141.421" /> 
<circle cx="8979.53" cy="11749.4" r="141.421" /> 
</g>
<g style="fill:#008484; fill-opacity:0.0; 
stroke:#008484; stroke-width:196.85; stroke-opacity:1; 
stroke-linecap:round; stroke-linejoin:round;">
<path d="M19679 35199
L21479 35199
" />
</g>
<g style="fill:#008484; fill-opacity:0.0; 
stroke:#008484; stroke-width:78.7402; stroke-opacity:1; 
stroke-linecap:round; stroke-linejoin:round;">
<circle cx="7079.53" cy="28799.4" r="141.421" /> 
<path d="M22322 40408
L22007 40408
L22007 40258
L22022 40220
L22037 40202
L22067 40183
L22112 40183
L22142 40202
L22157 40220
L22172 40258
L22172 40408
" />
<path d="M22322 39827
L22322 40014
L22007 40014
" />
<path d="M22007 39696
L22262 39696
L22292 39677
L22307 39658
L22322 39621
L22322 39546
L22307 39508
L22292 39489
L22262 39471
L22007 39471
" />
<path d="M22022 39077
L22007 39114
L22007 39171
L22022 39227
L22052 39264
L22082 39283
L22142 39302
L22187 39302
L22247 39283
L22277 39264
L22307 39227
L22322 39171
L22322 39133
L22307 39077
L22292 39058
L22187 39058
L22187 39133
" />
<path d="M22007 38646
L22007 38421
" />
<path d="M22322 38533
L22007 38533
" />
<path d="M22322 38289
L22007 38289
" />
<path d="M22157 38289
L22157 38065
" />
<path d="M22322 38065
L22007 38065
" />
<path d="M22322 37877
L22007 37877
" />
<path d="M22307 37708
L22322 37652
L22322 37558
L22307 37521
L22292 37502
L22262 37483
L22232 37483
L22202 37502
L22187 37521
L22172 37558
L22157 37633
L22142 37671
L22127 37690
L22097 37708
L22067 37708
L22037 37690
L22022 37671
L22007 37633
L22007 37540
L22022 37483
" />
<path d="M22307 37033
L22322 36977
L22322 36883
L22307 36846
L22292 36827
L22262 36808
L22232 36808
L22202 36827
L22187 36846
L22172 36883
L22157 36958
L22142 36996
L22127 37015
L22097 37033
L22067 37033
L22037 37015
L22022 36996
L22007 36958
L22007 36865
L22022 36808
" />
<path d="M22322 36640
L22007 36640
" />
<path d="M22322 36452
L22007 36452
L22007 36358
L22022 36302
L22052 36265
L22082 36246
L22142 36227
L22187 36227
L22247 36246
L22277 36265
L22307 36302
L22322 36358
L22322 36452
" />
<path d="M22157 36059
L22157 35927
" />
<path d="M22322 35871
L22322 36059
L22007 36059
L22007 35871
" />
</g>
<g style="fill:#008484; fill-opacity:0.0; 
stroke:#008484; stroke-width:59.0551; stroke-opacity:1; 
stroke-linecap:round; stroke-linejoin:round;">
<path d="M17689 41504
L11189 41504
" />
<path d="M11189 41504
L10689 41504
" />
<path d="M10639 41654
L10639 34654
" />
<path d="M10689 34804
L17689 34804
" />
<path d="M17739 34654
L17739 41654
" />
<path d="M10062 11734
L10062 11653
" />
<path d="M7896 11734
L7896 11615
" />
<path d="M7896 9564
L7896 9682
" />
<path d="M10062 9564
L10062 9682
" />
<path d="M10062 11734
L7896 11734
" />
<path d="M10062 9564
L7896 9564
" />
<path d="M10062 11653
L10751 11653
" />
</g>
<g style="fill:#008484; fill-opacity:0.0; 
stroke:#008484; stroke-width:47.2441; stroke-opacity:1; 
stroke-linecap:round; stroke-linejoin:round;">
<path d="M22392 18558
L17534 18558
" />
<path d="M18637 13995
L17534 13995
" />
<path d="M19620 13995
L19322 13995
" />
<path d="M20605 13995
L20306 13995
" />
<path d="M22392 13995
L21290 13995
" />
<path d="M17534 17371
L17534 18558
" />
<path d="M17534 13995
L17534 15832
" />
<path d="M22392 17371
L22392 18558
" />
<path d="M22392 13995
L22392 15832
" />
<path d="M6066 7802
L6066 5965
" />
<path d="M6066 4426
L6066 3239
" />
<path d="M10924 7802
L10924 5965
" />
<path d="M10924 4426
L10924 3239
" />
<path d="M6066 7802
L7168 7802
" />
<path d="M7853 7802
L8152 7802
" />
<path d="M8838 7802
L9137 7802
" />
<path d="M9822 7802
L10924 7802
" />
<path d="M6066 3239
L10924 3239
" />
<path d="M14254.4 20026.5 A1177.17 1177.17 0.0 0 0 14862.8 17841.5 " />
<path d="M13646.4 17841.5 A1177.17 1177.17 0.0 0 0 14254.8 20026.5 " />
<circle cx="14254.6" cy="18849.4" r="984.252" /> 
<path d="M14862 17841
L13646 17841
" />
<path d="M22318 32341
L19952 32341
" />
<path d="M21432 29656
L19952 29656
" />
<path d="M19952 32341
L19952 31845
" />
<path d="M19952 29656
L19952 30152
" />
<path d="M6582 13178
L6376 13178
" />
<path d="M6582 12619
L6376 12619
" />
<path d="M20728 28269
L20523 28269
" />
<path d="M20728 28828
L20523 28828
" />
<path d="M23376 29178
L23582 29178
" />
<path d="M23376 28619
L23582 28619
" />
<path d="M4676 28769
L4882 28769
" />
<path d="M4676 29328
L4882 29328
" />
<path d="M17566 7802
L17566 5965
" />
<path d="M17566 4426
L17566 3239
" />
<path d="M22424 7802
L22424 5965
" />
<path d="M22424 4426
L22424 3239
" />
<path d="M17566 7802
L18668 7802
" />
<path d="M19353 7802
L19652 7802
" />
<path d="M20338 7802
L20637 7802
" />
<path d="M21322 7802
L22424 7802
" />
<path d="M17566 3239
L22424 3239
" />
<path d="M12102 28369
L11896 28369
" />
<path d="M12102 28928
L11896 28928
" />
<path d="M15482 28928
L15276 28928
" />
<path d="M15482 28369
L15276 28369
" />
<path d="M23376 31619
L23582 31619
" />
<path d="M23376 32178
L23582 32178
" />
<path d="M23582 30178
L23376 30178
" />
<path d="M23582 29619
L23376 29619
" />
<path d="M23582 30619
L23376 30619
" />
<path d="M23582 31178
L23376 31178
" />
</g>
<g style="fill:#008484; fill-opacity:0.0; 
stroke:#008484; stroke-width:59.0551; stroke-opacity:1; 
stroke-linecap:round; stroke-linejoin:round;">
<path d="M22046 27643
L22597 27643
" />
<path d="M22046 25635
L20412 25635
" />
<path d="M22046 27663
L20412 27663
" />
<path d="M22046 25635
L22046 25692
" />
<path d="M20412 25635
L20412 25692
" />
<path d="M20412 27663
L20412 27606
" />
<path d="M22046 27663
L22046 27643
" />
</g>
<g style="fill:#008484; fill-opacity:0.0; 
stroke:#008484; stroke-width:47.2441; stroke-opacity:1; 
stroke-linecap:round; stroke-linejoin:round;">
<path d="M14956 32141
L14956 31645
" />
<path d="M14956 29456
L14956 29952
" />
<path d="M13476 32141
L14956 32141
" />
<path d="M12590 29456
L14956 29456
" />
<path d="M4246 31236
L4246 31433
" />
<path d="M4148 31335
L4345 31335
" />
<path d="M4439 32420
L4858 32839
" />
<path d="M4439 31478
L4858 31059
" />
<path d="M4439 31478
L4439 31532
" />
<path d="M4439 32420
L4439 32366
" />
<path d="M4858 32839
L6219 32839
" />
<path d="M4858 31059
L6219 31059
" />
<path d="M6219 31059
L6219 31532
" />
<path d="M6219 32839
L6219 32366
" />
<path d="M7989 31059
L7989 31532
" />
<path d="M7989 32839
L7989 32366
" />
<path d="M9350 32839
L7989 32839
" />
<path d="M9350 31059
L7989 31059
" />
<path d="M9769 31478
L9769 31532
" />
<path d="M9769 32420
L9769 32366
" />
<path d="M9769 32420
L9350 32839
" />
<path d="M9769 31478
L9350 31059
" />
<path d="M10060 32563
L9863 32563
" />
<path d="M9962 32661
L9962 32465
" />
<path d="M4625 15671
L4625 15877
" />
<path d="M5184 15671
L5184 15877
" />
<path d="M4600 7002
L4600 6796
" />
<path d="M5159 7002
L5159 6796
" />
<path d="M10892 18558
L6034 18558
" />
<path d="M7137 13995
L6034 13995
" />
<path d="M8120 13995
L7822 13995
" />
<path d="M9105 13995
L8806 13995
" />
<path d="M10892 13995
L9790 13995
" />
<path d="M6034 17371
L6034 18558
" />
<path d="M6034 13995
L6034 15832
" />
<path d="M10892 17371
L10892 18558
" />
<path d="M10892 13995
L10892 15832
" />
</g>
<g style="fill:#008484; fill-opacity:0.0; 
stroke:#008484; stroke-width:59.0551; stroke-opacity:1; 
stroke-linecap:round; stroke-linejoin:round;">
<path d="M6262 28805
L5711 28805
" />
<path d="M6262 30813
L7896 30813
" />
<path d="M6262 28785
L7896 28785
" />
<path d="M6262 30813
L6262 30756
" />
<path d="M7896 30813
L7896 30756
" />
<path d="M7896 28785
L7896 28842
" />
<path d="M6262 28785
L6262 28805
" />
</g>
<g style="fill:#008484; fill-opacity:0.0; 
stroke:#008484; stroke-width:47.2441; stroke-opacity:1; 
stroke-linecap:round; stroke-linejoin:round;">
<path d="M17174 8098
L17174 8157
" />
<path d="M15284 8098
L17174 8098
" />
<path d="M15284 8157
L15284 8098
" />
<path d="M15284 9200
L15284 9141
" />
<path d="M17174 9200
L15284 9200
" />
<path d="M17174 9141
L17174 9200
" />
<path d="M15284 8157
L14615 8157
" />
<path d="M19894 11814
L19894 11341
" />
<path d="M19894 10034
L19894 10507
" />
<path d="M18533 10034
L19894 10034
" />
<path d="M18533 11814
L19894 11814
" />
<path d="M18114 11395
L18114 11341
" />
<path d="M18114 10453
L18114 10507
" />
<path d="M18114 10453
L18533 10034
" />
<path d="M18114 11395
L18533 11814
" />
<path d="M17823 10310
L18020 10310
" />
<path d="M17921 10211
L17921 10408
" />
<path d="M23722 12291
L23722 11366
" />
<path d="M23722 9606
L23722 10532
" />
<path d="M21456 9606
L23722 9606
" />
<path d="M21456 12291
L23722 12291
" />
<path d="M21037 11872
L21037 11366
" />
<path d="M21037 10025
L21037 10532
" />
<path d="M21037 10025
L21456 9606
" />
<path d="M21037 11872
L21456 12291
" />
<path d="M20632 10222
L20942 10222
" />
<path d="M20787 10066
L20787 10377
" />
</g>
<g style="fill:#008484; fill-opacity:0.0; 
stroke:#008484; stroke-width:59.0551; stroke-opacity:1; 
stroke-linecap:round; stroke-linejoin:round;">
<path d="M15070.8 13915.7 A975.198 975.198 0.0 1 0 15070.6 14983.4 " />
<path d="M15074 15449
L15074 13449
" />
<path d="M15854 13449
L12654 13449
" />
<path d="M15854 15449
L15854 13449
" />
<path d="M12654 15449
L15854 15449
" />
<path d="M12654 13449
L12654 15449
" />
</g>
<g style="fill:#008484; fill-opacity:0.0; 
stroke:#008484; stroke-width:47.2441; stroke-opacity:1; 
stroke-linecap:round; stroke-linejoin:round;">
<path d="M6582 12428
L6376 12428
" />
<path d="M6582 11869
L6376 11869
" />
<path d="M11450 11002
L11450 10796
" />
<path d="M12009 11002
L12009 10796
" />
<path d="M23376 25869
L23582 25869
" />
<path d="M23376 26428
L23582 26428
" />
<path d="M13865 7543
L12329 7543
" />
<path d="M13865 6755
L12329 6755
" />
<path d="M13865 7543
L13865 6755
" />
<path d="M16865 7543
L16865 6755
" />
<path d="M16865 6755
L15329 6755
" />
<path d="M16865 7543
L15329 7543
" />
<path d="M24073 5613
L24073 7148
" />
<path d="M23285 5613
L23285 7148
" />
<path d="M24073 5613
L23285 5613
" />
<path d="M12190 5974
L12190 6035
" />
<path d="M12190 5062
L12190 5124
" />
<path d="M12394.7 5974.57 A590.551 590.551 0.0 0 0 13214.4 5974.5 " />
<path d="M13214.4 5124.24 A590.551 590.551 0.0 0 0 12394.7 5124.17 " />
<path d="M12190.4 6035.79 A783.465 783.465 0.0 0 0 13462.9 5974.02 " />
<path d="M13462.9 5124.72 A783.465 783.465 0.0 0 0 12190.4 5062.95 " />
<path d="M16437.9 5124.72 A783.465 783.465 0.0 0 0 15165.4 5062.95 " />
<path d="M15165.4 6035.79 A783.465 783.465 0.0 0 0 16437.9 5974.02 " />
<path d="M16189.4 5124.24 A590.551 590.551 0.0 0 0 15369.7 5124.17 " />
<path d="M15369.7 5974.57 A590.551 590.551 0.0 0 0 16189.4 5974.5 " />
<path d="M15165 5062
L15165 5124
" />
<path d="M15165 5974
L15165 6035
" />
<path d="M16465 4193
L14929 4193
" />
<path d="M16465 3405
L14929 3405
" />
<path d="M16465 4193
L16465 3405
" />
<path d="M13865 4193
L13865 3405
" />
<path d="M13865 3405
L12329 3405
" />
<path d="M13865 4193
L12329 4193
" />
<path d="M5273 4063
L4485 4063
" />
<path d="M4485 4063
L4485 5598
" />
<path d="M5273 4063
L5273 5598
" />
<path d="M12876 8369
L13082 8369
" />
<path d="M12876 8928
L13082 8928
" />
<path d="M17976 27369
L18182 27369
" />
<path d="M17976 27928
L18182 27928
" />
<path d="M17800 26052
L17800 25846
" />
<path d="M18359 26052
L18359 25846
" />
</g>
<g style="fill:#008484; fill-opacity:0.0; 
stroke:#008484; stroke-width:50; stroke-opacity:1; 
stroke-linecap:round; stroke-linejoin:round;">
<path d="M13075 10483
L13075 11377
" />
<path d="M13415 9745
L15187 9745
" />
<path d="M15433 10471
L15433 11377
" />
<path d="M13309 12105
L15199 12105
" />
</g>
<g style="fill:#008484; fill-opacity:0.0; 
stroke:#008484; stroke-width:118.11; stroke-opacity:1; 
stroke-linecap:round; stroke-linejoin:round;">
</g>
<g style="fill:#008484; fill-opacity:1.0; 
stroke:#008484; stroke-width:0; stroke-opacity:1; 
stroke-linecap:round; stroke-linejoin:round;">
<circle cx="12373.4" cy="10085" r="98.4252" /> 
</g>
<g style="fill:#008484; fill-opacity:0.0; 
stroke:#008484; stroke-width:0; stroke-opacity:1; 
stroke-linecap:round; stroke-linejoin:round;">
</g>
<g style="fill:#008484; fill-opacity:0.0; 
stroke:#008484; stroke-width:59.0551; stroke-opacity:1; 
stroke-linecap:round; stroke-linejoin:round;">
<path d="M10220 34708
L10276 34727
L10370 34727
L10407 34708
L10426 34689
L10445 34652
L10445 34614
L10426 34577
L10407 34558
L10370 34539
L10295 34521
L10257 34502
L10239 34483
L10220 34446
L10220 34408
L10239 34371
L10257 34352
L10295 34333
L10389 34333
L10445 34352
" />
<path d="M10576 34333
L10670 34727
L10745 34446
L10820 34727
L10913 34333
" />
<path d="M10970 34764
L11270 34764
" />
<path d="M11363 34521
L11495 34521
" />
<path d="M11551 34727
L11363 34727
L11363 34333
L11551 34333
" />
<path d="M11720 34727
L11720 34333
L11945 34727
L11945 34333
" />
<path d="M12338 34727
L12113 34727
" />
<path d="M12226 34727
L12226 34333
L12188 34390
L12151 34427
L12113 34446
" />
<path d="M7826 11933
L7826 12252
L7845 12289
L7864 12308
L7901 12327
L7976 12327
L8014 12308
L8032 12289
L8051 12252
L8051 11933
" />
<path d="M8145 12364
L8445 12364
" />
<path d="M8763 12289
L8745 12308
L8688 12327
L8651 12327
L8595 12308
L8557 12271
L8538 12233
L8520 12158
L8520 12102
L8538 12027
L8557 11990
L8595 11952
L8651 11933
L8688 11933
L8745 11952
L8763 11971
" />
<path d="M9120 12327
L8932 12327
L8932 11933
" />
<path d="M9251 12327
L9251 11933
" />
<path d="M9476 12327
L9307 12102
" />
<path d="M9476 11933
L9251 12158
" />
<path d="M9851 12327
L9626 12327
" />
<path d="M9738 12327
L9738 11933
L9701 11990
L9663 12027
L9626 12046
" />
<path d="M19004 13077
L19004 12683
L19154 12683
L19192 12702
L19210 12721
L19229 12758
L19229 12815
L19210 12852
L19192 12871
L19154 12889
L19004 12889
" />
<path d="M19304 13114
L19604 13114
" />
<path d="M19642 12683
L19773 13077
L19904 12683
" />
<path d="M20110 12683
L20185 12683
L20223 12702
L20260 12740
L20279 12815
L20279 12946
L20260 13021
L20223 13058
L20185 13077
L20110 13077
L20073 13058
L20035 13021
L20017 12946
L20017 12815
L20035 12740
L20073 12702
L20110 12683
" />
<path d="M20635 13077
L20448 13077
L20448 12683
" />
<path d="M20973 13077
L20748 13077
" />
<path d="M20860 13077
L20860 12683
L20823 12740
L20785 12777
L20748 12796
" />
<path d="M7035 9077
L7035 8683
L7185 8683
L7223 8702
L7242 8721
L7260 8758
L7260 8815
L7242 8852
L7223 8871
L7185 8889
L7035 8889
" />
<path d="M7335 9114
L7635 9114
" />
<path d="M7804 8683
L7879 8683
L7917 8702
L7954 8740
L7973 8815
L7973 8946
L7954 9021
L7917 9058
L7879 9077
L7804 9077
L7767 9058
L7729 9021
L7710 8946
L7710 8815
L7729 8740
L7767 8702
L7804 8683
" />
<path d="M8123 9058
L8179 9077
L8273 9077
L8310 9058
L8329 9039
L8348 9002
L8348 8964
L8329 8927
L8310 8908
L8273 8889
L8198 8871
L8160 8852
L8142 8833
L8123 8796
L8123 8758
L8142 8721
L8160 8702
L8198 8683
L8292 8683
L8348 8702
" />
<path d="M8741 9039
L8723 9058
L8667 9077
L8629 9077
L8573 9058
L8535 9021
L8517 8983
L8498 8908
L8498 8852
L8517 8777
L8535 8740
L8573 8702
L8629 8683
L8667 8683
L8723 8702
L8741 8721
" />
<path d="M8985 8683
L9060 8683
L9098 8702
L9135 8740
L9154 8815
L9154 8946
L9135 9021
L9098 9058
L9060 9077
L8985 9077
L8948 9058
L8910 9021
L8891 8946
L8891 8815
L8910 8740
L8948 8702
L8985 8683
" />
<path d="M9323 9077
L9323 8683
L9548 9077
L9548 8683
" />
<path d="M9941 9077
L9716 9077
" />
<path d="M9829 9077
L9829 8683
L9791 8740
L9754 8777
L9716 8796
" />
<path d="M13279 20402
L13279 20008
L13373 20008
L13429 20027
L13467 20065
L13485 20102
L13504 20177
L13504 20233
L13485 20308
L13467 20346
L13429 20383
L13373 20402
L13279 20402
" />
<path d="M13579 20439
L13879 20439
" />
<path d="M14160 20402
L13973 20402
L13973 20008
" />
<path d="M14292 20196
L14423 20196
" />
<path d="M14479 20402
L14292 20402
L14292 20008
L14479 20008
" />
<path d="M14648 20402
L14648 20008
L14741 20008
L14798 20027
L14835 20065
L14854 20102
L14873 20177
L14873 20233
L14854 20308
L14835 20346
L14798 20383
L14741 20402
L14648 20402
" />
<path d="M15248 20402
L15023 20402
" />
<path d="M15135 20402
L15135 20008
L15098 20065
L15060 20102
L15023 20121
" />
<path d="M21051 32608
L21051 32927
L21070 32964
L21089 32983
L21126 33002
L21201 33002
L21239 32983
L21257 32964
L21276 32927
L21276 32608
" />
<path d="M21370 33039
L21670 33039
" />
<path d="M21763 33002
L21763 32608
L21988 33002
L21988 32608
" />
<path d="M22401 33002
L22270 32814
" />
<path d="M22176 33002
L22176 32608
L22326 32608
L22363 32627
L22382 32646
L22401 32683
L22401 32740
L22382 32777
L22363 32796
L22326 32814
L22176 32814
" />
<path d="M22570 32796
L22701 32796
" />
<path d="M22757 33002
L22570 33002
L22570 32608
L22757 32608
" />
<path d="M23132 32627
L23095 32608
L23038 32608
L22982 32627
L22945 32665
L22926 32702
L22907 32777
L22907 32833
L22926 32908
L22945 32946
L22982 32983
L23038 33002
L23076 33002
L23132 32983
L23151 32964
L23151 32833
L23076 32833
" />
<path d="M23526 33002
L23301 33002
" />
<path d="M23413 33002
L23413 32608
L23376 32665
L23338 32702
L23301 32721
" />
<path d="M4120 13039
L4101 13058
L4045 13077
L4007 13077
L3951 13058
L3914 13021
L3895 12983
L3876 12908
L3876 12852
L3895 12777
L3914 12740
L3951 12702
L4007 12683
L4045 12683
L4101 12702
L4120 12721
" />
<path d="M4195 13114
L4495 13114
" />
<path d="M4720 12871
L4776 12889
L4795 12908
L4813 12946
L4813 13002
L4795 13039
L4776 13058
L4738 13077
L4588 13077
L4588 12683
L4720 12683
L4757 12702
L4776 12721
L4795 12758
L4795 12796
L4776 12833
L4757 12852
L4720 12871
L4588 12871
" />
<path d="M4982 13077
L4982 12683
L5132 12683
L5170 12702
L5188 12721
L5207 12758
L5207 12815
L5188 12852
L5170 12871
L5132 12889
L4982 12889
" />
<path d="M5582 13077
L5357 13077
" />
<path d="M5470 13077
L5470 12683
L5432 12740
L5395 12777
L5357 12796
" />
<path d="M18720 28689
L18701 28708
L18645 28727
L18607 28727
L18551 28708
L18514 28671
L18495 28633
L18476 28558
L18476 28502
L18495 28427
L18514 28390
L18551 28352
L18607 28333
L18645 28333
L18701 28352
L18720 28371
" />
<path d="M18795 28764
L19095 28764
" />
<path d="M19320 28521
L19376 28539
L19395 28558
L19413 28596
L19413 28652
L19395 28689
L19376 28708
L19338 28727
L19188 28727
L19188 28333
L19320 28333
L19357 28352
L19376 28371
L19395 28408
L19395 28446
L19376 28483
L19357 28502
L19320 28521
L19188 28521
" />
<path d="M19582 28727
L19582 28333
L19732 28333
L19770 28352
L19788 28371
L19807 28408
L19807 28465
L19788 28502
L19770 28521
L19732 28539
L19582 28539
" />
<path d="M19938 28333
L20182 28333
L20051 28483
L20107 28483
L20145 28502
L20163 28521
L20182 28558
L20182 28652
L20163 28689
L20145 28708
L20107 28727
L19995 28727
L19957 28708
L19938 28689
" />
<path d="M22870 28439
L22851 28458
L22795 28477
L22757 28477
L22701 28458
L22664 28421
L22645 28383
L22626 28308
L22626 28252
L22645 28177
L22664 28140
L22701 28102
L22757 28083
L22795 28083
L22851 28102
L22870 28121
" />
<path d="M22945 28514
L23245 28514
" />
<path d="M23470 28271
L23526 28289
L23545 28308
L23563 28346
L23563 28402
L23545 28439
L23526 28458
L23488 28477
L23338 28477
L23338 28083
L23470 28083
L23507 28102
L23526 28121
L23545 28158
L23545 28196
L23526 28233
L23507 28252
L23470 28271
L23338 28271
" />
<path d="M23732 28477
L23732 28083
L23882 28083
L23920 28102
L23938 28121
L23957 28158
L23957 28215
L23938 28252
L23920 28271
L23882 28289
L23732 28289
" />
<path d="M24295 28215
L24295 28477
" />
<path d="M24201 28065
L24107 28346
L24351 28346
" />
<path d="M4170 28589
L4151 28608
L4095 28627
L4057 28627
L4001 28608
L3964 28571
L3945 28533
L3926 28458
L3926 28402
L3945 28327
L3964 28290
L4001 28252
L4057 28233
L4095 28233
L4151 28252
L4170 28271
" />
<path d="M4245 28664
L4545 28664
" />
<path d="M4770 28421
L4826 28439
L4845 28458
L4863 28496
L4863 28552
L4845 28589
L4826 28608
L4788 28627
L4638 28627
L4638 28233
L4770 28233
L4807 28252
L4826 28271
L4845 28308
L4845 28346
L4826 28383
L4807 28402
L4770 28421
L4638 28421
" />
<path d="M5032 28627
L5032 28233
L5182 28233
L5220 28252
L5238 28271
L5257 28308
L5257 28365
L5238 28402
L5220 28421
L5182 28439
L5032 28439
" />
<path d="M5613 28233
L5426 28233
L5407 28421
L5426 28402
L5463 28383
L5557 28383
L5595 28402
L5613 28421
L5632 28458
L5632 28552
L5613 28589
L5595 28608
L5557 28627
L5463 28627
L5426 28608
L5407 28589
" />
<path d="M18610 9077
L18610 8683
L18760 8683
L18798 8702
L18817 8721
L18835 8758
L18835 8815
L18817 8852
L18798 8871
L18760 8889
L18610 8889
" />
<path d="M18910 9114
L19210 9114
" />
<path d="M19304 9077
L19304 8683
L19398 8683
L19454 8702
L19492 8740
L19510 8777
L19529 8852
L19529 8908
L19510 8983
L19492 9021
L19454 9058
L19398 9077
L19304 9077
" />
<path d="M19698 8871
L19829 8871
" />
<path d="M19885 9077
L19698 9077
L19698 8683
L19885 8683
" />
<path d="M20054 9077
L20054 8683
L20204 8683
L20241 8702
L20260 8721
L20279 8758
L20279 8815
L20260 8852
L20241 8871
L20204 8889
L20054 8889
" />
<path d="M20391 8683
L20616 8683
" />
<path d="M20504 9077
L20504 8683
" />
<path d="M20748 9077
L20748 8683
" />
<path d="M20748 8871
L20973 8871
" />
<path d="M20973 9077
L20973 8683
" />
<path d="M21366 9077
L21141 9077
" />
<path d="M21254 9077
L21254 8683
L21216 8740
L21179 8777
L21141 8796
" />
<path d="M10563 28827
L10432 28639
" />
<path d="M10338 28827
L10338 28433
L10488 28433
L10526 28452
L10545 28471
L10563 28508
L10563 28565
L10545 28602
L10526 28621
L10488 28639
L10338 28639
" />
<path d="M10938 28827
L10713 28827
" />
<path d="M10826 28827
L10826 28433
L10788 28490
L10751 28527
L10713 28546
" />
<path d="M14263 28827
L14132 28639
" />
<path d="M14038 28827
L14038 28433
L14188 28433
L14226 28452
L14245 28471
L14263 28508
L14263 28565
L14245 28602
L14226 28621
L14188 28639
L14038 28639
" />
<path d="M14413 28471
L14432 28452
L14470 28433
L14563 28433
L14601 28452
L14620 28471
L14638 28508
L14638 28546
L14620 28602
L14395 28827
L14638 28827
" />
<path d="M24363 32077
L24232 31889
" />
<path d="M24138 32077
L24138 31683
L24288 31683
L24326 31702
L24345 31721
L24363 31758
L24363 31815
L24345 31852
L24326 31871
L24288 31889
L24138 31889
" />
<path d="M24495 31683
L24738 31683
L24607 31833
L24663 31833
L24701 31852
L24720 31871
L24738 31908
L24738 32002
L24720 32039
L24701 32058
L24663 32077
L24551 32077
L24513 32058
L24495 32039
" />
<path d="M24363 30077
L24232 29889
" />
<path d="M24138 30077
L24138 29683
L24288 29683
L24326 29702
L24345 29721
L24363 29758
L24363 29815
L24345 29852
L24326 29871
L24288 29889
L24138 29889
" />
<path d="M24701 29815
L24701 30077
" />
<path d="M24607 29665
L24513 29946
L24757 29946
" />
<path d="M24363 31027
L24232 30839
" />
<path d="M24138 31027
L24138 30633
L24288 30633
L24326 30652
L24345 30671
L24363 30708
L24363 30765
L24345 30802
L24326 30821
L24288 30839
L24138 30839
" />
<path d="M24720 30633
L24532 30633
L24513 30821
L24532 30802
L24570 30783
L24663 30783
L24701 30802
L24720 30821
L24738 30858
L24738 30952
L24720 30989
L24701 31008
L24663 31027
L24570 31027
L24532 31008
L24513 30989
" />
<path d="M20207 25133
L20207 25452
L20226 25489
L20245 25508
L20282 25527
L20357 25527
L20395 25508
L20414 25489
L20432 25452
L20432 25133
" />
<path d="M20526 25564
L20826 25564
" />
<path d="M21051 25321
L21107 25339
L21126 25358
L21145 25396
L21145 25452
L21126 25489
L21107 25508
L21070 25527
L20920 25527
L20920 25133
L21051 25133
L21088 25152
L21107 25171
L21126 25208
L21126 25246
L21107 25283
L21088 25302
L21051 25321
L20920 25321
" />
<path d="M21313 25133
L21313 25452
L21332 25489
L21351 25508
L21388 25527
L21463 25527
L21501 25508
L21520 25489
L21538 25452
L21538 25133
" />
<path d="M21857 25321
L21726 25321
" />
<path d="M21726 25527
L21726 25133
L21913 25133
" />
<path d="M22270 25527
L22045 25527
" />
<path d="M22157 25527
L22157 25133
L22120 25190
L22082 25227
L22045 25246
" />
<path d="M11485 32608
L11485 32927
L11504 32964
L11523 32983
L11560 33002
L11635 33002
L11673 32983
L11692 32964
L11710 32927
L11710 32608
" />
<path d="M11804 33039
L12104 33039
" />
<path d="M12198 33002
L12198 32608
L12348 32608
L12385 32627
L12404 32646
L12423 32683
L12423 32740
L12404 32777
L12385 32796
L12348 32814
L12198 32814
" />
<path d="M12817 33002
L12685 32814
" />
<path d="M12592 33002
L12592 32608
L12742 32608
L12779 32627
L12798 32646
L12817 32683
L12817 32740
L12798 32777
L12779 32796
L12742 32814
L12592 32814
" />
<path d="M12985 32796
L13116 32796
" />
<path d="M13173 33002
L12985 33002
L12985 32608
L13173 32608
" />
<path d="M13548 32627
L13510 32608
L13454 32608
L13398 32627
L13360 32665
L13341 32702
L13323 32777
L13323 32833
L13341 32908
L13360 32946
L13398 32983
L13454 33002
L13491 33002
L13548 32983
L13566 32964
L13566 32833
L13491 32833
" />
<path d="M13941 33002
L13716 33002
" />
<path d="M13829 33002
L13829 32608
L13791 32665
L13754 32702
L13716 32721
" />
<path d="M4573 33189
L4554 33208
L4498 33227
L4460 33227
L4404 33208
L4367 33171
L4348 33133
L4329 33058
L4329 33002
L4348 32927
L4367 32890
L4404 32852
L4460 32833
L4498 32833
L4554 32852
L4573 32871
" />
<path d="M4742 33227
L4742 32833
L4892 32833
L4929 32852
L4948 32871
L4967 32908
L4967 32965
L4948 33002
L4929 33021
L4892 33039
L4742 33039
" />
<path d="M5042 33264
L5342 33264
" />
<path d="M5435 33227
L5435 32833
" />
<path d="M5623 33227
L5623 32833
L5848 33227
L5848 32833
" />
<path d="M5979 32833
L6110 33227
L6241 32833
" />
<path d="M6579 33227
L6354 33227
" />
<path d="M6466 33227
L6466 32833
L6429 32890
L6391 32927
L6354 32946
" />
<path d="M7823 33189
L7804 33208
L7748 33227
L7710 33227
L7654 33208
L7617 33171
L7598 33133
L7579 33058
L7579 33002
L7598 32927
L7617 32890
L7654 32852
L7710 32833
L7748 32833
L7804 32852
L7823 32871
" />
<path d="M7992 33227
L7992 32833
L8142 32833
L8179 32852
L8198 32871
L8217 32908
L8217 32965
L8198 33002
L8179 33021
L8142 33039
L7992 33039
" />
<path d="M8292 33264
L8592 33264
" />
<path d="M8685 33227
L8685 32833
" />
<path d="M8873 33227
L8873 32833
L9098 33227
L9098 32833
" />
<path d="M9229 32833
L9360 33227
L9491 32833
" />
<path d="M9604 32871
L9623 32852
L9660 32833
L9754 32833
L9791 32852
L9810 32871
L9829 32908
L9829 32946
L9810 33002
L9585 33227
L9829 33227
" />
<path d="M4407 16999
L4220 17130
" />
<path d="M4407 17224
L4013 17224
L4013 17074
L4032 17036
L4051 17017
L4088 16999
L4145 16999
L4182 17017
L4201 17036
L4220 17074
L4220 17224
" />
<path d="M4445 16924
L4445 16624
" />
<path d="M4013 16455
L4013 16380
L4032 16343
L4070 16305
L4145 16286
L4276 16286
L4351 16305
L4388 16343
L4407 16380
L4407 16455
L4388 16493
L4351 16530
L4276 16549
L4145 16549
L4070 16530
L4032 16493
L4013 16455
" />
<path d="M4388 16136
L4407 16080
L4407 15986
L4388 15949
L4370 15930
L4332 15911
L4295 15911
L4257 15930
L4238 15949
L4220 15986
L4201 16061
L4182 16099
L4163 16118
L4126 16136
L4088 16136
L4051 16118
L4032 16099
L4013 16061
L4013 15968
L4032 15911
" />
<path d="M4370 15518
L4388 15536
L4407 15593
L4407 15630
L4388 15686
L4351 15724
L4313 15743
L4238 15761
L4182 15761
L4107 15743
L4070 15724
L4032 15686
L4013 15630
L4013 15593
L4032 15536
L4051 15518
" />
<path d="M4013 15274
L4013 15199
L4032 15161
L4070 15124
L4145 15105
L4276 15105
L4351 15124
L4388 15161
L4407 15199
L4407 15274
L4388 15311
L4351 15349
L4276 15368
L4145 15368
L4070 15349
L4032 15311
L4013 15274
" />
<path d="M4201 14805
L4201 14936
" />
<path d="M4407 14936
L4013 14936
L4013 14749
" />
<path d="M4201 14468
L4201 14599
" />
<path d="M4407 14599
L4013 14599
L4013 14412
" />
<path d="M4407 14055
L4407 14280
" />
<path d="M4407 14168
L4013 14168
L4070 14205
L4107 14243
L4126 14280
" />
<path d="M4408 8117
L4220 8249
" />
<path d="M4408 8342
L4014 8342
L4014 8192
L4033 8155
L4051 8136
L4089 8117
L4145 8117
L4183 8136
L4201 8155
L4220 8192
L4220 8342
" />
<path d="M4445 8042
L4445 7743
" />
<path d="M4014 7574
L4014 7499
L4033 7461
L4070 7424
L4145 7405
L4276 7405
L4351 7424
L4389 7461
L4408 7499
L4408 7574
L4389 7611
L4351 7649
L4276 7668
L4145 7668
L4070 7649
L4033 7611
L4014 7574
" />
<path d="M4389 7255
L4408 7199
L4408 7105
L4389 7068
L4370 7049
L4333 7030
L4295 7030
L4258 7049
L4239 7068
L4220 7105
L4201 7180
L4183 7218
L4164 7236
L4126 7255
L4089 7255
L4051 7236
L4033 7218
L4014 7180
L4014 7086
L4033 7030
" />
<path d="M4370 6636
L4389 6655
L4408 6711
L4408 6749
L4389 6805
L4351 6843
L4314 6861
L4239 6880
L4183 6880
L4108 6861
L4070 6843
L4033 6805
L4014 6749
L4014 6711
L4033 6655
L4051 6636
" />
<path d="M4014 6393
L4014 6318
L4033 6280
L4070 6243
L4145 6224
L4276 6224
L4351 6243
L4389 6280
L4408 6318
L4408 6393
L4389 6430
L4351 6468
L4276 6486
L4145 6486
L4070 6468
L4033 6430
L4014 6393
" />
<path d="M4408 6055
L4014 6055
L4408 5830
L4014 5830
" />
<path d="M4408 5437
L4408 5662
" />
<path d="M4408 5549
L4014 5549
L4070 5587
L4108 5624
L4126 5662
" />
<path d="M6904 13077
L6904 12683
L7054 12683
L7092 12702
L7110 12721
L7129 12758
L7129 12815
L7110 12852
L7092 12871
L7054 12889
L6904 12889
" />
<path d="M7204 13114
L7504 13114
" />
<path d="M7673 12683
L7748 12683
L7785 12702
L7823 12740
L7842 12815
L7842 12946
L7823 13021
L7785 13058
L7748 13077
L7673 13077
L7635 13058
L7598 13021
L7579 12946
L7579 12815
L7598 12740
L7635 12702
L7673 12683
" />
<path d="M7992 13058
L8048 13077
L8142 13077
L8179 13058
L8198 13039
L8217 13002
L8217 12964
L8198 12927
L8179 12908
L8142 12889
L8067 12871
L8029 12852
L8010 12833
L7992 12796
L7992 12758
L8010 12721
L8029 12702
L8067 12683
L8160 12683
L8217 12702
" />
<path d="M8610 13039
L8592 13058
L8535 13077
L8498 13077
L8442 13058
L8404 13021
L8385 12983
L8367 12908
L8367 12852
L8385 12777
L8404 12740
L8442 12702
L8498 12683
L8535 12683
L8592 12702
L8610 12721
" />
<path d="M8854 12683
L8929 12683
L8966 12702
L9004 12740
L9023 12815
L9023 12946
L9004 13021
L8966 13058
L8929 13077
L8854 13077
L8816 13058
L8779 13021
L8760 12946
L8760 12815
L8779 12740
L8816 12702
L8854 12683
" />
<path d="M9323 12871
L9191 12871
" />
<path d="M9191 13077
L9191 12683
L9379 12683
" />
<path d="M9660 12871
L9529 12871
" />
<path d="M9529 13077
L9529 12683
L9716 12683
" />
<path d="M10073 13077
L9848 13077
" />
<path d="M9960 13077
L9960 12683
L9923 12740
L9885 12777
L9848 12796
" />
<path d="M6210 30783
L6210 31102
L6229 31139
L6248 31158
L6285 31177
L6360 31177
L6398 31158
L6417 31139
L6435 31102
L6435 30783
" />
<path d="M6529 31214
L6829 31214
" />
<path d="M6923 31177
L6923 30783
" />
<path d="M7110 31177
L7110 30783
L7335 31177
L7335 30783
" />
<path d="M7466 30783
L7598 31177
L7729 30783
" />
<path d="M8066 31177
L7841 31177
" />
<path d="M7954 31177
L7954 30783
L7916 30840
L7879 30877
L7841 30896
" />
<path d="M15020 9183
L15020 9502
L15039 9539
L15057 9558
L15095 9577
L15170 9577
L15207 9558
L15226 9539
L15245 9502
L15245 9183
" />
<path d="M15339 9614
L15638 9614
" />
<path d="M15807 9183
L15882 9183
L15920 9202
L15957 9240
L15976 9315
L15976 9446
L15957 9521
L15920 9558
L15882 9577
L15807 9577
L15770 9558
L15732 9521
L15713 9446
L15713 9315
L15732 9240
L15770 9202
L15807 9183
" />
<path d="M16145 9577
L16145 9183
L16295 9183
L16332 9202
L16351 9221
L16370 9258
L16370 9315
L16351 9352
L16332 9371
L16295 9389
L16145 9389
" />
<path d="M16482 9183
L16707 9183
" />
<path d="M16595 9577
L16595 9183
" />
<path d="M16913 9183
L16988 9183
L17026 9202
L17063 9240
L17082 9315
L17082 9446
L17063 9521
L17026 9558
L16988 9577
L16913 9577
L16876 9558
L16838 9521
L16820 9446
L16820 9315
L16838 9240
L16876 9202
L16913 9183
" />
<path d="M17457 9577
L17232 9577
" />
<path d="M17345 9577
L17345 9183
L17307 9240
L17270 9277
L17232 9296
" />
<path d="M17892 9964
L17873 9983
L17817 10002
L17779 10002
L17723 9983
L17685 9946
L17667 9908
L17648 9833
L17648 9777
L17667 9702
L17685 9665
L17723 9627
L17779 9608
L17817 9608
L17873 9627
L17892 9646
" />
<path d="M18060 10002
L18060 9608
L18210 9608
L18248 9627
L18267 9646
L18285 9683
L18285 9740
L18267 9777
L18248 9796
L18210 9814
L18060 9814
" />
<path d="M18360 10039
L18660 10039
" />
<path d="M18885 9796
L18754 9796
" />
<path d="M18754 10002
L18754 9608
L18942 9608
" />
<path d="M19073 9889
L19260 9889
" />
<path d="M19035 10002
L19167 9608
L19298 10002
" />
<path d="M19410 9983
L19466 10002
L19560 10002
L19598 9983
L19616 9964
L19635 9927
L19635 9889
L19616 9852
L19598 9833
L19560 9814
L19485 9796
L19448 9777
L19429 9758
L19410 9721
L19410 9683
L19429 9646
L19448 9627
L19485 9608
L19579 9608
L19635 9627
" />
<path d="M19748 9608
L19973 9608
" />
<path d="M19860 10002
L19860 9608
" />
<path d="M20310 10002
L20085 10002
" />
<path d="M20198 10002
L20198 9608
L20160 9665
L20123 9702
L20085 9721
" />
<path d="M21189 9489
L21170 9508
L21114 9527
L21076 9527
L21020 9508
L20982 9471
L20964 9433
L20945 9358
L20945 9302
L20964 9227
L20982 9190
L21020 9152
L21076 9133
L21114 9133
L21170 9152
L21189 9171
" />
<path d="M21357 9527
L21357 9133
L21507 9133
L21545 9152
L21564 9171
L21582 9208
L21582 9265
L21564 9302
L21545 9321
L21507 9339
L21357 9339
" />
<path d="M21657 9564
L21957 9564
" />
<path d="M22032 9508
L22088 9527
L22182 9527
L22220 9508
L22238 9489
L22257 9452
L22257 9414
L22238 9377
L22220 9358
L22182 9339
L22107 9321
L22070 9302
L22051 9283
L22032 9246
L22032 9208
L22051 9171
L22070 9152
L22107 9133
L22201 9133
L22257 9152
" />
<path d="M22613 9527
L22426 9527
L22426 9133
" />
<path d="M22820 9133
L22895 9133
L22932 9152
L22970 9190
L22988 9265
L22988 9396
L22970 9471
L22932 9508
L22895 9527
L22820 9527
L22782 9508
L22745 9471
L22726 9396
L22726 9265
L22745 9190
L22782 9152
L22820 9133
" />
<path d="M23120 9133
L23213 9527
L23288 9246
L23363 9527
L23457 9133
" />
<path d="M23813 9527
L23588 9527
" />
<path d="M23701 9527
L23701 9133
L23663 9190
L23626 9227
L23588 9246
" />
<path d="M12498 13408
L12554 13427
L12648 13427
L12686 13408
L12704 13389
L12723 13352
L12723 13314
L12704 13277
L12686 13258
L12648 13239
L12573 13221
L12536 13202
L12517 13183
L12498 13146
L12498 13108
L12517 13071
L12536 13052
L12573 13033
L12667 13033
L12723 13052
" />
<path d="M12854 13033
L12948 13427
L13023 13146
L13098 13427
L13192 13033
" />
<path d="M13248 13464
L13548 13464
" />
<path d="M13623 13314
L13810 13314
" />
<path d="M13585 13427
L13717 13033
L13848 13427
" />
<path d="M13923 13033
L14148 13033
" />
<path d="M14035 13427
L14035 13033
" />
<path d="M14223 13033
L14448 13033
" />
<path d="M14335 13427
L14335 13033
" />
<path d="M14560 13314
L14748 13314
" />
<path d="M14523 13427
L14654 13033
L14785 13427
" />
<path d="M15142 13389
L15123 13408
L15067 13427
L15029 13427
L14973 13408
L14935 13371
L14917 13333
L14898 13258
L14898 13202
L14917 13127
L14935 13090
L14973 13052
L15029 13033
L15067 13033
L15123 13052
L15142 13071
" />
<path d="M15310 13427
L15310 13033
" />
<path d="M15535 13427
L15366 13202
" />
<path d="M15535 13033
L15310 13258
" />
<path d="M15910 13427
L15685 13427
" />
<path d="M15798 13427
L15798 13033
L15760 13090
L15723 13127
L15685 13146
" />
<path d="M4120 12289
L4101 12308
L4045 12327
L4007 12327
L3951 12308
L3914 12271
L3895 12233
L3876 12158
L3876 12102
L3895 12027
L3914 11990
L3951 11952
L4007 11933
L4045 11933
L4101 11952
L4120 11971
" />
<path d="M4195 12364
L4495 12364
" />
<path d="M4720 12121
L4776 12139
L4795 12158
L4813 12196
L4813 12252
L4795 12289
L4776 12308
L4738 12327
L4588 12327
L4588 11933
L4720 11933
L4757 11952
L4776 11971
L4795 12008
L4795 12046
L4776 12083
L4757 12102
L4720 12121
L4588 12121
" />
<path d="M4982 12327
L4982 11933
L5132 11933
L5170 11952
L5188 11971
L5207 12008
L5207 12065
L5188 12102
L5170 12121
L5132 12139
L4982 12139
" />
<path d="M5357 11971
L5376 11952
L5413 11933
L5507 11933
L5545 11952
L5563 11971
L5582 12008
L5582 12046
L5563 12102
L5338 12327
L5582 12327
" />
<path d="M11357 11871
L11170 12002
" />
<path d="M11357 12096
L10963 12096
L10963 11946
L10982 11908
L11001 11889
L11038 11871
L11095 11871
L11132 11889
L11151 11908
L11170 11946
L11170 12096
" />
<path d="M11395 11796
L11395 11496
" />
<path d="M11357 11402
L10963 11402
L11245 11271
L10963 11139
L11357 11139
" />
<path d="M10963 10877
L10963 10802
L10982 10765
L11020 10727
L11095 10708
L11226 10708
L11301 10727
L11338 10765
L11357 10802
L11357 10877
L11338 10914
L11301 10952
L11226 10971
L11095 10971
L11020 10952
L10982 10914
L10963 10877
" />
<path d="M11357 10540
L10963 10540
L10963 10446
L10982 10390
L11020 10352
L11057 10333
L11132 10315
L11188 10315
L11263 10333
L11301 10352
L11338 10390
L11357 10446
L11357 10540
" />
<path d="M11151 10146
L11151 10015
" />
<path d="M11357 9958
L11357 10146
L10963 10146
L10963 9958
" />
<path d="M11357 9583
L11357 9808
" />
<path d="M11357 9696
L10963 9696
L11020 9733
L11057 9771
L11076 9808
" />
<path d="M22870 26927
L22738 26739
" />
<path d="M22645 26927
L22645 26533
L22795 26533
L22832 26552
L22851 26571
L22870 26608
L22870 26665
L22851 26702
L22832 26721
L22795 26739
L22645 26739
" />
<path d="M22945 26964
L23245 26964
" />
<path d="M23338 26927
L23338 26533
L23488 26533
L23526 26552
L23545 26571
L23563 26608
L23563 26665
L23545 26702
L23526 26721
L23488 26739
L23338 26739
" />
<path d="M23732 26927
L23732 26533
L23826 26533
L23882 26552
L23920 26590
L23938 26627
L23957 26702
L23957 26758
L23938 26833
L23920 26871
L23882 26908
L23826 26927
L23732 26927
" />
<path d="M24332 26927
L24107 26927
" />
<path d="M24220 26927
L24220 26533
L24182 26590
L24145 26627
L24107 26646
" />
<path d="M12263 7902
L12263 7508
L12357 7508
L12413 7527
L12451 7565
L12470 7602
L12488 7677
L12488 7733
L12470 7808
L12451 7846
L12413 7883
L12357 7902
L12263 7902
" />
<path d="M12563 7939
L12863 7939
" />
<path d="M12957 7902
L12957 7508
" />
<path d="M12957 7696
L13182 7696
" />
<path d="M13182 7902
L13182 7508
" />
<path d="M13370 7902
L13370 7508
" />
<path d="M13763 7902
L13538 7902
" />
<path d="M13651 7902
L13651 7508
L13613 7565
L13576 7602
L13538 7621
" />
<path d="M15263 7902
L15263 7508
L15357 7508
L15413 7527
L15451 7565
L15470 7602
L15488 7677
L15488 7733
L15470 7808
L15451 7846
L15413 7883
L15357 7902
L15263 7902
" />
<path d="M15563 7939
L15863 7939
" />
<path d="M15957 7902
L15957 7508
" />
<path d="M15957 7696
L16182 7696
" />
<path d="M16182 7902
L16182 7508
" />
<path d="M16370 7902
L16370 7508
" />
<path d="M16538 7546
L16557 7527
L16595 7508
L16688 7508
L16726 7527
L16745 7546
L16763 7583
L16763 7621
L16745 7677
L16520 7902
L16763 7902
" />
<path d="M22938 7777
L22938 7383
L23032 7383
L23088 7402
L23126 7440
L23145 7477
L23163 7552
L23163 7608
L23145 7683
L23126 7721
L23088 7758
L23032 7777
L22938 7777
" />
<path d="M23238 7814
L23538 7814
" />
<path d="M23632 7777
L23632 7383
" />
<path d="M23632 7571
L23857 7571
" />
<path d="M23857 7777
L23857 7383
" />
<path d="M24045 7777
L24045 7383
" />
<path d="M24195 7383
L24438 7383
L24307 7533
L24363 7533
L24401 7552
L24420 7571
L24438 7608
L24438 7702
L24420 7739
L24401 7758
L24363 7777
L24251 7777
L24213 7758
L24195 7739
" />
<path d="M11732 6774
L11338 6774
L11338 6680
L11357 6624
L11395 6586
L11432 6567
L11507 6549
L11563 6549
L11638 6567
L11676 6586
L11713 6624
L11732 6680
L11732 6774
" />
<path d="M11770 6474
L11770 6174
" />
<path d="M11732 5893
L11732 6080
L11338 6080
" />
<path d="M11526 5761
L11526 5630
" />
<path d="M11732 5574
L11732 5761
L11338 5761
L11338 5574
" />
<path d="M11732 5405
L11338 5405
L11338 5311
L11357 5255
L11395 5218
L11432 5199
L11507 5180
L11563 5180
L11638 5199
L11676 5218
L11713 5255
L11732 5311
L11732 5405
" />
<path d="M11732 5011
L11338 5011
" />
<path d="M11526 5011
L11526 4786
" />
<path d="M11732 4786
L11338 4786
" />
<path d="M11732 4599
L11338 4599
" />
<path d="M11732 4205
L11732 4430
" />
<path d="M11732 4318
L11338 4318
L11395 4355
L11432 4393
L11451 4430
" />
<path d="M14682 6839
L14288 6839
L14288 6746
L14307 6689
L14345 6652
L14382 6633
L14457 6614
L14513 6614
L14588 6633
L14626 6652
L14663 6689
L14682 6746
L14682 6839
" />
<path d="M14720 6539
L14720 6239
" />
<path d="M14682 5958
L14682 6146
L14288 6146
" />
<path d="M14476 5827
L14476 5696
" />
<path d="M14682 5639
L14682 5827
L14288 5827
L14288 5639
" />
<path d="M14682 5471
L14288 5471
L14288 5377
L14307 5321
L14345 5283
L14382 5265
L14457 5246
L14513 5246
L14588 5265
L14626 5283
L14663 5321
L14682 5377
L14682 5471
" />
<path d="M14682 4890
L14682 5077
L14288 5077
" />
<path d="M14288 4683
L14288 4608
L14307 4571
L14345 4533
L14420 4515
L14551 4515
L14626 4533
L14663 4571
L14682 4608
L14682 4683
L14663 4721
L14626 4758
L14551 4777
L14420 4777
L14345 4758
L14307 4721
L14288 4683
" />
<path d="M14682 4140
L14682 4365
" />
<path d="M14682 4252
L14288 4252
L14345 4290
L14382 4327
L14401 4365
" />
<path d="M14798 4527
L14798 4133
L14892 4133
L14948 4152
L14985 4190
L15004 4227
L15023 4302
L15023 4358
L15004 4433
L14985 4471
L14948 4508
L14892 4527
L14798 4527
" />
<path d="M15098 4564
L15398 4564
" />
<path d="M15679 4527
L15492 4527
L15492 4133
" />
<path d="M15885 4133
L15960 4133
L15998 4152
L16035 4190
L16054 4265
L16054 4396
L16035 4471
L15998 4508
L15960 4527
L15885 4527
L15848 4508
L15810 4471
L15792 4396
L15792 4265
L15810 4190
L15848 4152
L15885 4133
" />
<path d="M16429 4527
L16204 4527
" />
<path d="M16316 4527
L16316 4133
L16279 4190
L16241 4227
L16204 4246
" />
<path d="M12173 4527
L12173 4133
L12267 4133
L12323 4152
L12360 4190
L12379 4227
L12398 4302
L12398 4358
L12379 4433
L12360 4471
L12323 4508
L12267 4527
L12173 4527
" />
<path d="M12473 4564
L12773 4564
" />
<path d="M13054 4527
L12867 4527
L12867 4133
" />
<path d="M13260 4133
L13335 4133
L13373 4152
L13410 4190
L13429 4265
L13429 4396
L13410 4471
L13373 4508
L13335 4527
L13260 4527
L13223 4508
L13185 4471
L13167 4396
L13167 4265
L13185 4190
L13223 4152
L13260 4133
" />
<path d="M13579 4171
L13598 4152
L13635 4133
L13729 4133
L13766 4152
L13785 4171
L13804 4208
L13804 4246
L13785 4302
L13560 4527
L13804 4527
" />
<path d="M4407 5755
L4013 5755
L4013 5661
L4032 5605
L4070 5568
L4107 5549
L4182 5530
L4238 5530
L4313 5549
L4351 5568
L4388 5605
L4407 5661
L4407 5755
" />
<path d="M4445 5455
L4445 5155
" />
<path d="M4407 4874
L4407 5061
L4013 5061
" />
<path d="M4013 4668
L4013 4593
L4032 4555
L4070 4518
L4145 4499
L4276 4499
L4351 4518
L4388 4555
L4407 4593
L4407 4668
L4388 4705
L4351 4743
L4276 4761
L4145 4761
L4070 4743
L4032 4705
L4013 4668
" />
<path d="M4013 4368
L4013 4124
L4163 4255
L4163 4199
L4182 4161
L4201 4143
L4238 4124
L4332 4124
L4370 4143
L4388 4161
L4407 4199
L4407 4311
L4388 4349
L4370 4368
" />
<path d="M10504 8827
L10373 8639
" />
<path d="M10279 8827
L10279 8433
L10429 8433
L10467 8452
L10485 8471
L10504 8508
L10504 8565
L10485 8602
L10467 8621
L10429 8639
L10279 8639
" />
<path d="M10579 8864
L10879 8864
" />
<path d="M10973 8827
L10973 8433
L11104 8714
L11235 8433
L11235 8827
" />
<path d="M11610 8827
L11423 8827
L11423 8433
" />
<path d="M11741 8621
L11873 8621
" />
<path d="M11929 8827
L11741 8827
L11741 8433
L11929 8433
" />
<path d="M12098 8827
L12098 8433
L12191 8433
L12248 8452
L12285 8490
L12304 8527
L12323 8602
L12323 8658
L12304 8733
L12285 8771
L12248 8808
L12191 8827
L12098 8827
" />
<path d="M12698 8827
L12473 8827
" />
<path d="M12585 8827
L12585 8433
L12548 8490
L12510 8527
L12473 8546
" />
<path d="M19113 27789
L19095 27808
L19038 27827
L19001 27827
L18945 27808
L18907 27771
L18888 27733
L18870 27658
L18870 27602
L18888 27527
L18907 27490
L18945 27452
L19001 27433
L19038 27433
L19095 27452
L19113 27471
" />
<path d="M19488 27827
L19263 27827
" />
<path d="M19376 27827
L19376 27433
L19338 27490
L19301 27527
L19263 27546
" />
<path d="M18013 27127
L17882 26939
" />
<path d="M17788 27127
L17788 26733
L17938 26733
L17976 26752
L17995 26771
L18013 26808
L18013 26865
L17995 26902
L17976 26921
L17938 26939
L17788 26939
" />
<path d="M18351 26733
L18276 26733
L18238 26752
L18220 26771
L18182 26827
L18163 26902
L18163 27052
L18182 27089
L18201 27108
L18238 27127
L18313 27127
L18351 27108
L18370 27089
L18388 27052
L18388 26958
L18370 26921
L18351 26902
L18313 26883
L18238 26883
L18201 26902
L18182 26921
L18163 26958
" />
<path d="M11599 9545
L11655 9564
L11749 9564
L11786 9545
L11805 9526
L11824 9489
L11824 9451
L11805 9414
L11786 9395
L11749 9376
L11674 9357
L11636 9339
L11617 9320
L11599 9282
L11599 9245
L11617 9207
L11636 9189
L11674 9170
L11767 9170
L11824 9189
" />
<path d="M11955 9170
L12049 9564
L12124 9282
L12199 9564
L12292 9170
" />
<path d="M12349 9601
L12648 9601
" />
<path d="M12742 9564
L12742 9170
L12873 9451
L13005 9170
L13005 9564
" />
<path d="M13267 9170
L13342 9170
L13380 9189
L13417 9226
L13436 9301
L13436 9432
L13417 9507
L13380 9545
L13342 9564
L13267 9564
L13230 9545
L13192 9507
L13173 9432
L13173 9301
L13192 9226
L13230 9189
L13267 9170
" />
<path d="M13605 9564
L13605 9170
L13698 9170
L13755 9189
L13792 9226
L13811 9264
L13830 9339
L13830 9395
L13811 9470
L13792 9507
L13755 9545
L13698 9564
L13605 9564
" />
<path d="M13998 9357
L14130 9357
" />
<path d="M14186 9564
L13998 9564
L13998 9170
L14186 9170
" />
<path d="M14561 9564
L14336 9564
" />
<path d="M14448 9564
L14448 9170
L14411 9226
L14373 9264
L14336 9282
" />
<path d="M11324 12559
L11099 12559
" />
<path d="M11212 12559
L11212 12165
L11174 12221
L11137 12259
L11099 12278
" />
<path d="M11493 12409
L11793 12409
" />
<path d="M12187 12559
L11962 12559
" />
<path d="M12074 12559
L12074 12165
L12037 12221
L11999 12259
L11962 12278
" />
<path d="M12412 12334
L12374 12315
L12355 12296
L12337 12259
L12337 12240
L12355 12203
L12374 12184
L12412 12165
L12487 12165
L12524 12184
L12543 12203
L12562 12240
L12562 12259
L12543 12296
L12524 12315
L12487 12334
L12412 12334
L12374 12353
L12355 12371
L12337 12409
L12337 12484
L12355 12521
L12374 12540
L12412 12559
L12487 12559
L12524 12540
L12543 12521
L12562 12484
L12562 12409
L12543 12371
L12524 12353
L12487 12334
" />
<path d="M12712 12203
L12730 12184
L12768 12165
L12862 12165
L12899 12184
L12918 12203
L12937 12240
L12937 12278
L12918 12334
L12693 12559
L12937 12559
" />
<path d="M13293 12165
L13105 12165
L13087 12353
L13105 12334
L13143 12315
L13237 12315
L13274 12334
L13293 12353
L13311 12390
L13311 12484
L13293 12521
L13274 12540
L13237 12559
L13143 12559
L13105 12540
L13087 12521
" />
<path d="M13499 12559
L13574 12559
L13611 12540
L13630 12521
L13668 12465
L13686 12390
L13686 12240
L13668 12203
L13649 12184
L13611 12165
L13536 12165
L13499 12184
L13480 12203
L13461 12240
L13461 12334
L13480 12371
L13499 12390
L13536 12409
L13611 12409
L13649 12390
L13668 12371
L13686 12334
" />
<path d="M14061 12559
L13836 12559
" />
<path d="M13949 12559
L13949 12165
L13911 12221
L13874 12259
L13836 12278
" />
<path d="M14305 12165
L14343 12165
L14380 12184
L14399 12203
L14418 12240
L14436 12315
L14436 12409
L14418 12484
L14399 12521
L14380 12540
L14343 12559
L14305 12559
L14268 12540
L14249 12521
L14230 12484
L14211 12409
L14211 12315
L14230 12240
L14249 12203
L14268 12184
L14305 12165
" />
<path d="M14605 12409
L14905 12409
" />
<path d="M15261 12296
L15261 12559
" />
<path d="M15168 12146
L15074 12428
L15317 12428
" />
</g> 
</svg>
