G04 #@! TF.GenerationSoftware,KiCad,Pcbnew,(5.0.0-3-g5ebb6b6)*
G04 #@! TF.CreationDate,2018-11-16T00:35:09+00:00*
G04 #@! TF.ProjectId,555PWMTremolo,35353550574D5472656D6F6C6F2E6B69,rev?*
G04 #@! TF.SameCoordinates,Original*
G04 #@! TF.FileFunction,Paste,Top*
G04 #@! TF.FilePolarity,Positive*
%FSLAX46Y46*%
G04 Gerber Fmt 4.6, Leading zero omitted, Abs format (unit mm)*
G04 Created by KiCad (PCBNEW (5.0.0-3-g5ebb6b6)) date Friday, 16 November 2018 at 00:35:09*
%MOMM*%
%LPD*%
G01*
G04 APERTURE LIST*
%ADD10R,2.000000X1.500000*%
%ADD11R,2.000000X3.800000*%
%ADD12C,0.100000*%
%ADD13C,1.150000*%
%ADD14R,0.600000X1.550000*%
%ADD15R,2.600000X1.600000*%
%ADD16R,1.550000X0.600000*%
%ADD17R,2.000000X0.640000*%
%ADD18R,3.500000X1.600000*%
G04 APERTURE END LIST*
D10*
G04 #@! TO.C,U_NREG1*
X100241500Y-144159000D03*
X100241500Y-139559000D03*
X100241500Y-141859000D03*
D11*
X93941500Y-141859000D03*
G04 #@! TD*
D12*
G04 #@! TO.C,C_BP1*
G36*
X70578505Y-87573204D02*
X70602773Y-87576804D01*
X70626572Y-87582765D01*
X70649671Y-87591030D01*
X70671850Y-87601520D01*
X70692893Y-87614132D01*
X70712599Y-87628747D01*
X70730777Y-87645223D01*
X70747253Y-87663401D01*
X70761868Y-87683107D01*
X70774480Y-87704150D01*
X70784970Y-87726329D01*
X70793235Y-87749428D01*
X70799196Y-87773227D01*
X70802796Y-87797495D01*
X70804000Y-87821999D01*
X70804000Y-88472001D01*
X70802796Y-88496505D01*
X70799196Y-88520773D01*
X70793235Y-88544572D01*
X70784970Y-88567671D01*
X70774480Y-88589850D01*
X70761868Y-88610893D01*
X70747253Y-88630599D01*
X70730777Y-88648777D01*
X70712599Y-88665253D01*
X70692893Y-88679868D01*
X70671850Y-88692480D01*
X70649671Y-88702970D01*
X70626572Y-88711235D01*
X70602773Y-88717196D01*
X70578505Y-88720796D01*
X70554001Y-88722000D01*
X69653999Y-88722000D01*
X69629495Y-88720796D01*
X69605227Y-88717196D01*
X69581428Y-88711235D01*
X69558329Y-88702970D01*
X69536150Y-88692480D01*
X69515107Y-88679868D01*
X69495401Y-88665253D01*
X69477223Y-88648777D01*
X69460747Y-88630599D01*
X69446132Y-88610893D01*
X69433520Y-88589850D01*
X69423030Y-88567671D01*
X69414765Y-88544572D01*
X69408804Y-88520773D01*
X69405204Y-88496505D01*
X69404000Y-88472001D01*
X69404000Y-87821999D01*
X69405204Y-87797495D01*
X69408804Y-87773227D01*
X69414765Y-87749428D01*
X69423030Y-87726329D01*
X69433520Y-87704150D01*
X69446132Y-87683107D01*
X69460747Y-87663401D01*
X69477223Y-87645223D01*
X69495401Y-87628747D01*
X69515107Y-87614132D01*
X69536150Y-87601520D01*
X69558329Y-87591030D01*
X69581428Y-87582765D01*
X69605227Y-87576804D01*
X69629495Y-87573204D01*
X69653999Y-87572000D01*
X70554001Y-87572000D01*
X70578505Y-87573204D01*
X70578505Y-87573204D01*
G37*
D13*
X70104000Y-88147000D03*
D12*
G36*
X70578505Y-85523204D02*
X70602773Y-85526804D01*
X70626572Y-85532765D01*
X70649671Y-85541030D01*
X70671850Y-85551520D01*
X70692893Y-85564132D01*
X70712599Y-85578747D01*
X70730777Y-85595223D01*
X70747253Y-85613401D01*
X70761868Y-85633107D01*
X70774480Y-85654150D01*
X70784970Y-85676329D01*
X70793235Y-85699428D01*
X70799196Y-85723227D01*
X70802796Y-85747495D01*
X70804000Y-85771999D01*
X70804000Y-86422001D01*
X70802796Y-86446505D01*
X70799196Y-86470773D01*
X70793235Y-86494572D01*
X70784970Y-86517671D01*
X70774480Y-86539850D01*
X70761868Y-86560893D01*
X70747253Y-86580599D01*
X70730777Y-86598777D01*
X70712599Y-86615253D01*
X70692893Y-86629868D01*
X70671850Y-86642480D01*
X70649671Y-86652970D01*
X70626572Y-86661235D01*
X70602773Y-86667196D01*
X70578505Y-86670796D01*
X70554001Y-86672000D01*
X69653999Y-86672000D01*
X69629495Y-86670796D01*
X69605227Y-86667196D01*
X69581428Y-86661235D01*
X69558329Y-86652970D01*
X69536150Y-86642480D01*
X69515107Y-86629868D01*
X69495401Y-86615253D01*
X69477223Y-86598777D01*
X69460747Y-86580599D01*
X69446132Y-86560893D01*
X69433520Y-86539850D01*
X69423030Y-86517671D01*
X69414765Y-86494572D01*
X69408804Y-86470773D01*
X69405204Y-86446505D01*
X69404000Y-86422001D01*
X69404000Y-85771999D01*
X69405204Y-85747495D01*
X69408804Y-85723227D01*
X69414765Y-85699428D01*
X69423030Y-85676329D01*
X69433520Y-85654150D01*
X69446132Y-85633107D01*
X69460747Y-85613401D01*
X69477223Y-85595223D01*
X69495401Y-85578747D01*
X69515107Y-85564132D01*
X69536150Y-85551520D01*
X69558329Y-85541030D01*
X69581428Y-85532765D01*
X69605227Y-85526804D01*
X69629495Y-85523204D01*
X69653999Y-85522000D01*
X70554001Y-85522000D01*
X70578505Y-85523204D01*
X70578505Y-85523204D01*
G37*
D13*
X70104000Y-86097000D03*
G04 #@! TD*
D12*
G04 #@! TO.C,C_BP3*
G36*
X78198505Y-103956204D02*
X78222773Y-103959804D01*
X78246572Y-103965765D01*
X78269671Y-103974030D01*
X78291850Y-103984520D01*
X78312893Y-103997132D01*
X78332599Y-104011747D01*
X78350777Y-104028223D01*
X78367253Y-104046401D01*
X78381868Y-104066107D01*
X78394480Y-104087150D01*
X78404970Y-104109329D01*
X78413235Y-104132428D01*
X78419196Y-104156227D01*
X78422796Y-104180495D01*
X78424000Y-104204999D01*
X78424000Y-104855001D01*
X78422796Y-104879505D01*
X78419196Y-104903773D01*
X78413235Y-104927572D01*
X78404970Y-104950671D01*
X78394480Y-104972850D01*
X78381868Y-104993893D01*
X78367253Y-105013599D01*
X78350777Y-105031777D01*
X78332599Y-105048253D01*
X78312893Y-105062868D01*
X78291850Y-105075480D01*
X78269671Y-105085970D01*
X78246572Y-105094235D01*
X78222773Y-105100196D01*
X78198505Y-105103796D01*
X78174001Y-105105000D01*
X77273999Y-105105000D01*
X77249495Y-105103796D01*
X77225227Y-105100196D01*
X77201428Y-105094235D01*
X77178329Y-105085970D01*
X77156150Y-105075480D01*
X77135107Y-105062868D01*
X77115401Y-105048253D01*
X77097223Y-105031777D01*
X77080747Y-105013599D01*
X77066132Y-104993893D01*
X77053520Y-104972850D01*
X77043030Y-104950671D01*
X77034765Y-104927572D01*
X77028804Y-104903773D01*
X77025204Y-104879505D01*
X77024000Y-104855001D01*
X77024000Y-104204999D01*
X77025204Y-104180495D01*
X77028804Y-104156227D01*
X77034765Y-104132428D01*
X77043030Y-104109329D01*
X77053520Y-104087150D01*
X77066132Y-104066107D01*
X77080747Y-104046401D01*
X77097223Y-104028223D01*
X77115401Y-104011747D01*
X77135107Y-103997132D01*
X77156150Y-103984520D01*
X77178329Y-103974030D01*
X77201428Y-103965765D01*
X77225227Y-103959804D01*
X77249495Y-103956204D01*
X77273999Y-103955000D01*
X78174001Y-103955000D01*
X78198505Y-103956204D01*
X78198505Y-103956204D01*
G37*
D13*
X77724000Y-104530000D03*
D12*
G36*
X78198505Y-101906204D02*
X78222773Y-101909804D01*
X78246572Y-101915765D01*
X78269671Y-101924030D01*
X78291850Y-101934520D01*
X78312893Y-101947132D01*
X78332599Y-101961747D01*
X78350777Y-101978223D01*
X78367253Y-101996401D01*
X78381868Y-102016107D01*
X78394480Y-102037150D01*
X78404970Y-102059329D01*
X78413235Y-102082428D01*
X78419196Y-102106227D01*
X78422796Y-102130495D01*
X78424000Y-102154999D01*
X78424000Y-102805001D01*
X78422796Y-102829505D01*
X78419196Y-102853773D01*
X78413235Y-102877572D01*
X78404970Y-102900671D01*
X78394480Y-102922850D01*
X78381868Y-102943893D01*
X78367253Y-102963599D01*
X78350777Y-102981777D01*
X78332599Y-102998253D01*
X78312893Y-103012868D01*
X78291850Y-103025480D01*
X78269671Y-103035970D01*
X78246572Y-103044235D01*
X78222773Y-103050196D01*
X78198505Y-103053796D01*
X78174001Y-103055000D01*
X77273999Y-103055000D01*
X77249495Y-103053796D01*
X77225227Y-103050196D01*
X77201428Y-103044235D01*
X77178329Y-103035970D01*
X77156150Y-103025480D01*
X77135107Y-103012868D01*
X77115401Y-102998253D01*
X77097223Y-102981777D01*
X77080747Y-102963599D01*
X77066132Y-102943893D01*
X77053520Y-102922850D01*
X77043030Y-102900671D01*
X77034765Y-102877572D01*
X77028804Y-102853773D01*
X77025204Y-102829505D01*
X77024000Y-102805001D01*
X77024000Y-102154999D01*
X77025204Y-102130495D01*
X77028804Y-102106227D01*
X77034765Y-102082428D01*
X77043030Y-102059329D01*
X77053520Y-102037150D01*
X77066132Y-102016107D01*
X77080747Y-101996401D01*
X77097223Y-101978223D01*
X77115401Y-101961747D01*
X77135107Y-101947132D01*
X77156150Y-101934520D01*
X77178329Y-101924030D01*
X77201428Y-101915765D01*
X77225227Y-101909804D01*
X77249495Y-101906204D01*
X77273999Y-101905000D01*
X78174001Y-101905000D01*
X78198505Y-101906204D01*
X78198505Y-101906204D01*
G37*
D13*
X77724000Y-102480000D03*
G04 #@! TD*
D12*
G04 #@! TO.C,C_BP4*
G36*
X82008505Y-117164204D02*
X82032773Y-117167804D01*
X82056572Y-117173765D01*
X82079671Y-117182030D01*
X82101850Y-117192520D01*
X82122893Y-117205132D01*
X82142599Y-117219747D01*
X82160777Y-117236223D01*
X82177253Y-117254401D01*
X82191868Y-117274107D01*
X82204480Y-117295150D01*
X82214970Y-117317329D01*
X82223235Y-117340428D01*
X82229196Y-117364227D01*
X82232796Y-117388495D01*
X82234000Y-117412999D01*
X82234000Y-118063001D01*
X82232796Y-118087505D01*
X82229196Y-118111773D01*
X82223235Y-118135572D01*
X82214970Y-118158671D01*
X82204480Y-118180850D01*
X82191868Y-118201893D01*
X82177253Y-118221599D01*
X82160777Y-118239777D01*
X82142599Y-118256253D01*
X82122893Y-118270868D01*
X82101850Y-118283480D01*
X82079671Y-118293970D01*
X82056572Y-118302235D01*
X82032773Y-118308196D01*
X82008505Y-118311796D01*
X81984001Y-118313000D01*
X81083999Y-118313000D01*
X81059495Y-118311796D01*
X81035227Y-118308196D01*
X81011428Y-118302235D01*
X80988329Y-118293970D01*
X80966150Y-118283480D01*
X80945107Y-118270868D01*
X80925401Y-118256253D01*
X80907223Y-118239777D01*
X80890747Y-118221599D01*
X80876132Y-118201893D01*
X80863520Y-118180850D01*
X80853030Y-118158671D01*
X80844765Y-118135572D01*
X80838804Y-118111773D01*
X80835204Y-118087505D01*
X80834000Y-118063001D01*
X80834000Y-117412999D01*
X80835204Y-117388495D01*
X80838804Y-117364227D01*
X80844765Y-117340428D01*
X80853030Y-117317329D01*
X80863520Y-117295150D01*
X80876132Y-117274107D01*
X80890747Y-117254401D01*
X80907223Y-117236223D01*
X80925401Y-117219747D01*
X80945107Y-117205132D01*
X80966150Y-117192520D01*
X80988329Y-117182030D01*
X81011428Y-117173765D01*
X81035227Y-117167804D01*
X81059495Y-117164204D01*
X81083999Y-117163000D01*
X81984001Y-117163000D01*
X82008505Y-117164204D01*
X82008505Y-117164204D01*
G37*
D13*
X81534000Y-117738000D03*
D12*
G36*
X82008505Y-115114204D02*
X82032773Y-115117804D01*
X82056572Y-115123765D01*
X82079671Y-115132030D01*
X82101850Y-115142520D01*
X82122893Y-115155132D01*
X82142599Y-115169747D01*
X82160777Y-115186223D01*
X82177253Y-115204401D01*
X82191868Y-115224107D01*
X82204480Y-115245150D01*
X82214970Y-115267329D01*
X82223235Y-115290428D01*
X82229196Y-115314227D01*
X82232796Y-115338495D01*
X82234000Y-115362999D01*
X82234000Y-116013001D01*
X82232796Y-116037505D01*
X82229196Y-116061773D01*
X82223235Y-116085572D01*
X82214970Y-116108671D01*
X82204480Y-116130850D01*
X82191868Y-116151893D01*
X82177253Y-116171599D01*
X82160777Y-116189777D01*
X82142599Y-116206253D01*
X82122893Y-116220868D01*
X82101850Y-116233480D01*
X82079671Y-116243970D01*
X82056572Y-116252235D01*
X82032773Y-116258196D01*
X82008505Y-116261796D01*
X81984001Y-116263000D01*
X81083999Y-116263000D01*
X81059495Y-116261796D01*
X81035227Y-116258196D01*
X81011428Y-116252235D01*
X80988329Y-116243970D01*
X80966150Y-116233480D01*
X80945107Y-116220868D01*
X80925401Y-116206253D01*
X80907223Y-116189777D01*
X80890747Y-116171599D01*
X80876132Y-116151893D01*
X80863520Y-116130850D01*
X80853030Y-116108671D01*
X80844765Y-116085572D01*
X80838804Y-116061773D01*
X80835204Y-116037505D01*
X80834000Y-116013001D01*
X80834000Y-115362999D01*
X80835204Y-115338495D01*
X80838804Y-115314227D01*
X80844765Y-115290428D01*
X80853030Y-115267329D01*
X80863520Y-115245150D01*
X80876132Y-115224107D01*
X80890747Y-115204401D01*
X80907223Y-115186223D01*
X80925401Y-115169747D01*
X80945107Y-115155132D01*
X80966150Y-115142520D01*
X80988329Y-115132030D01*
X81011428Y-115123765D01*
X81035227Y-115117804D01*
X81059495Y-115114204D01*
X81083999Y-115113000D01*
X81984001Y-115113000D01*
X82008505Y-115114204D01*
X82008505Y-115114204D01*
G37*
D13*
X81534000Y-115688000D03*
G04 #@! TD*
D12*
G04 #@! TO.C,C_BP5*
G36*
X55966505Y-136207204D02*
X55990773Y-136210804D01*
X56014572Y-136216765D01*
X56037671Y-136225030D01*
X56059850Y-136235520D01*
X56080893Y-136248132D01*
X56100599Y-136262747D01*
X56118777Y-136279223D01*
X56135253Y-136297401D01*
X56149868Y-136317107D01*
X56162480Y-136338150D01*
X56172970Y-136360329D01*
X56181235Y-136383428D01*
X56187196Y-136407227D01*
X56190796Y-136431495D01*
X56192000Y-136455999D01*
X56192000Y-137356001D01*
X56190796Y-137380505D01*
X56187196Y-137404773D01*
X56181235Y-137428572D01*
X56172970Y-137451671D01*
X56162480Y-137473850D01*
X56149868Y-137494893D01*
X56135253Y-137514599D01*
X56118777Y-137532777D01*
X56100599Y-137549253D01*
X56080893Y-137563868D01*
X56059850Y-137576480D01*
X56037671Y-137586970D01*
X56014572Y-137595235D01*
X55990773Y-137601196D01*
X55966505Y-137604796D01*
X55942001Y-137606000D01*
X55291999Y-137606000D01*
X55267495Y-137604796D01*
X55243227Y-137601196D01*
X55219428Y-137595235D01*
X55196329Y-137586970D01*
X55174150Y-137576480D01*
X55153107Y-137563868D01*
X55133401Y-137549253D01*
X55115223Y-137532777D01*
X55098747Y-137514599D01*
X55084132Y-137494893D01*
X55071520Y-137473850D01*
X55061030Y-137451671D01*
X55052765Y-137428572D01*
X55046804Y-137404773D01*
X55043204Y-137380505D01*
X55042000Y-137356001D01*
X55042000Y-136455999D01*
X55043204Y-136431495D01*
X55046804Y-136407227D01*
X55052765Y-136383428D01*
X55061030Y-136360329D01*
X55071520Y-136338150D01*
X55084132Y-136317107D01*
X55098747Y-136297401D01*
X55115223Y-136279223D01*
X55133401Y-136262747D01*
X55153107Y-136248132D01*
X55174150Y-136235520D01*
X55196329Y-136225030D01*
X55219428Y-136216765D01*
X55243227Y-136210804D01*
X55267495Y-136207204D01*
X55291999Y-136206000D01*
X55942001Y-136206000D01*
X55966505Y-136207204D01*
X55966505Y-136207204D01*
G37*
D13*
X55617000Y-136906000D03*
D12*
G36*
X58016505Y-136207204D02*
X58040773Y-136210804D01*
X58064572Y-136216765D01*
X58087671Y-136225030D01*
X58109850Y-136235520D01*
X58130893Y-136248132D01*
X58150599Y-136262747D01*
X58168777Y-136279223D01*
X58185253Y-136297401D01*
X58199868Y-136317107D01*
X58212480Y-136338150D01*
X58222970Y-136360329D01*
X58231235Y-136383428D01*
X58237196Y-136407227D01*
X58240796Y-136431495D01*
X58242000Y-136455999D01*
X58242000Y-137356001D01*
X58240796Y-137380505D01*
X58237196Y-137404773D01*
X58231235Y-137428572D01*
X58222970Y-137451671D01*
X58212480Y-137473850D01*
X58199868Y-137494893D01*
X58185253Y-137514599D01*
X58168777Y-137532777D01*
X58150599Y-137549253D01*
X58130893Y-137563868D01*
X58109850Y-137576480D01*
X58087671Y-137586970D01*
X58064572Y-137595235D01*
X58040773Y-137601196D01*
X58016505Y-137604796D01*
X57992001Y-137606000D01*
X57341999Y-137606000D01*
X57317495Y-137604796D01*
X57293227Y-137601196D01*
X57269428Y-137595235D01*
X57246329Y-137586970D01*
X57224150Y-137576480D01*
X57203107Y-137563868D01*
X57183401Y-137549253D01*
X57165223Y-137532777D01*
X57148747Y-137514599D01*
X57134132Y-137494893D01*
X57121520Y-137473850D01*
X57111030Y-137451671D01*
X57102765Y-137428572D01*
X57096804Y-137404773D01*
X57093204Y-137380505D01*
X57092000Y-137356001D01*
X57092000Y-136455999D01*
X57093204Y-136431495D01*
X57096804Y-136407227D01*
X57102765Y-136383428D01*
X57111030Y-136360329D01*
X57121520Y-136338150D01*
X57134132Y-136317107D01*
X57148747Y-136297401D01*
X57165223Y-136279223D01*
X57183401Y-136262747D01*
X57203107Y-136248132D01*
X57224150Y-136235520D01*
X57246329Y-136225030D01*
X57269428Y-136216765D01*
X57293227Y-136210804D01*
X57317495Y-136207204D01*
X57341999Y-136206000D01*
X57992001Y-136206000D01*
X58016505Y-136207204D01*
X58016505Y-136207204D01*
G37*
D13*
X57667000Y-136906000D03*
G04 #@! TD*
D12*
G04 #@! TO.C,R1*
G36*
X74305305Y-134937204D02*
X74329573Y-134940804D01*
X74353372Y-134946765D01*
X74376471Y-134955030D01*
X74398650Y-134965520D01*
X74419693Y-134978132D01*
X74439399Y-134992747D01*
X74457577Y-135009223D01*
X74474053Y-135027401D01*
X74488668Y-135047107D01*
X74501280Y-135068150D01*
X74511770Y-135090329D01*
X74520035Y-135113428D01*
X74525996Y-135137227D01*
X74529596Y-135161495D01*
X74530800Y-135185999D01*
X74530800Y-136086001D01*
X74529596Y-136110505D01*
X74525996Y-136134773D01*
X74520035Y-136158572D01*
X74511770Y-136181671D01*
X74501280Y-136203850D01*
X74488668Y-136224893D01*
X74474053Y-136244599D01*
X74457577Y-136262777D01*
X74439399Y-136279253D01*
X74419693Y-136293868D01*
X74398650Y-136306480D01*
X74376471Y-136316970D01*
X74353372Y-136325235D01*
X74329573Y-136331196D01*
X74305305Y-136334796D01*
X74280801Y-136336000D01*
X73630799Y-136336000D01*
X73606295Y-136334796D01*
X73582027Y-136331196D01*
X73558228Y-136325235D01*
X73535129Y-136316970D01*
X73512950Y-136306480D01*
X73491907Y-136293868D01*
X73472201Y-136279253D01*
X73454023Y-136262777D01*
X73437547Y-136244599D01*
X73422932Y-136224893D01*
X73410320Y-136203850D01*
X73399830Y-136181671D01*
X73391565Y-136158572D01*
X73385604Y-136134773D01*
X73382004Y-136110505D01*
X73380800Y-136086001D01*
X73380800Y-135185999D01*
X73382004Y-135161495D01*
X73385604Y-135137227D01*
X73391565Y-135113428D01*
X73399830Y-135090329D01*
X73410320Y-135068150D01*
X73422932Y-135047107D01*
X73437547Y-135027401D01*
X73454023Y-135009223D01*
X73472201Y-134992747D01*
X73491907Y-134978132D01*
X73512950Y-134965520D01*
X73535129Y-134955030D01*
X73558228Y-134946765D01*
X73582027Y-134940804D01*
X73606295Y-134937204D01*
X73630799Y-134936000D01*
X74280801Y-134936000D01*
X74305305Y-134937204D01*
X74305305Y-134937204D01*
G37*
D13*
X73955800Y-135636000D03*
D12*
G36*
X76355305Y-134937204D02*
X76379573Y-134940804D01*
X76403372Y-134946765D01*
X76426471Y-134955030D01*
X76448650Y-134965520D01*
X76469693Y-134978132D01*
X76489399Y-134992747D01*
X76507577Y-135009223D01*
X76524053Y-135027401D01*
X76538668Y-135047107D01*
X76551280Y-135068150D01*
X76561770Y-135090329D01*
X76570035Y-135113428D01*
X76575996Y-135137227D01*
X76579596Y-135161495D01*
X76580800Y-135185999D01*
X76580800Y-136086001D01*
X76579596Y-136110505D01*
X76575996Y-136134773D01*
X76570035Y-136158572D01*
X76561770Y-136181671D01*
X76551280Y-136203850D01*
X76538668Y-136224893D01*
X76524053Y-136244599D01*
X76507577Y-136262777D01*
X76489399Y-136279253D01*
X76469693Y-136293868D01*
X76448650Y-136306480D01*
X76426471Y-136316970D01*
X76403372Y-136325235D01*
X76379573Y-136331196D01*
X76355305Y-136334796D01*
X76330801Y-136336000D01*
X75680799Y-136336000D01*
X75656295Y-136334796D01*
X75632027Y-136331196D01*
X75608228Y-136325235D01*
X75585129Y-136316970D01*
X75562950Y-136306480D01*
X75541907Y-136293868D01*
X75522201Y-136279253D01*
X75504023Y-136262777D01*
X75487547Y-136244599D01*
X75472932Y-136224893D01*
X75460320Y-136203850D01*
X75449830Y-136181671D01*
X75441565Y-136158572D01*
X75435604Y-136134773D01*
X75432004Y-136110505D01*
X75430800Y-136086001D01*
X75430800Y-135185999D01*
X75432004Y-135161495D01*
X75435604Y-135137227D01*
X75441565Y-135113428D01*
X75449830Y-135090329D01*
X75460320Y-135068150D01*
X75472932Y-135047107D01*
X75487547Y-135027401D01*
X75504023Y-135009223D01*
X75522201Y-134992747D01*
X75541907Y-134978132D01*
X75562950Y-134965520D01*
X75585129Y-134955030D01*
X75608228Y-134946765D01*
X75632027Y-134940804D01*
X75656295Y-134937204D01*
X75680799Y-134936000D01*
X76330801Y-134936000D01*
X76355305Y-134937204D01*
X76355305Y-134937204D01*
G37*
D13*
X76005800Y-135636000D03*
G04 #@! TD*
D12*
G04 #@! TO.C,R2*
G36*
X84940505Y-134937204D02*
X84964773Y-134940804D01*
X84988572Y-134946765D01*
X85011671Y-134955030D01*
X85033850Y-134965520D01*
X85054893Y-134978132D01*
X85074599Y-134992747D01*
X85092777Y-135009223D01*
X85109253Y-135027401D01*
X85123868Y-135047107D01*
X85136480Y-135068150D01*
X85146970Y-135090329D01*
X85155235Y-135113428D01*
X85161196Y-135137227D01*
X85164796Y-135161495D01*
X85166000Y-135185999D01*
X85166000Y-136086001D01*
X85164796Y-136110505D01*
X85161196Y-136134773D01*
X85155235Y-136158572D01*
X85146970Y-136181671D01*
X85136480Y-136203850D01*
X85123868Y-136224893D01*
X85109253Y-136244599D01*
X85092777Y-136262777D01*
X85074599Y-136279253D01*
X85054893Y-136293868D01*
X85033850Y-136306480D01*
X85011671Y-136316970D01*
X84988572Y-136325235D01*
X84964773Y-136331196D01*
X84940505Y-136334796D01*
X84916001Y-136336000D01*
X84265999Y-136336000D01*
X84241495Y-136334796D01*
X84217227Y-136331196D01*
X84193428Y-136325235D01*
X84170329Y-136316970D01*
X84148150Y-136306480D01*
X84127107Y-136293868D01*
X84107401Y-136279253D01*
X84089223Y-136262777D01*
X84072747Y-136244599D01*
X84058132Y-136224893D01*
X84045520Y-136203850D01*
X84035030Y-136181671D01*
X84026765Y-136158572D01*
X84020804Y-136134773D01*
X84017204Y-136110505D01*
X84016000Y-136086001D01*
X84016000Y-135185999D01*
X84017204Y-135161495D01*
X84020804Y-135137227D01*
X84026765Y-135113428D01*
X84035030Y-135090329D01*
X84045520Y-135068150D01*
X84058132Y-135047107D01*
X84072747Y-135027401D01*
X84089223Y-135009223D01*
X84107401Y-134992747D01*
X84127107Y-134978132D01*
X84148150Y-134965520D01*
X84170329Y-134955030D01*
X84193428Y-134946765D01*
X84217227Y-134940804D01*
X84241495Y-134937204D01*
X84265999Y-134936000D01*
X84916001Y-134936000D01*
X84940505Y-134937204D01*
X84940505Y-134937204D01*
G37*
D13*
X84591000Y-135636000D03*
D12*
G36*
X82890505Y-134937204D02*
X82914773Y-134940804D01*
X82938572Y-134946765D01*
X82961671Y-134955030D01*
X82983850Y-134965520D01*
X83004893Y-134978132D01*
X83024599Y-134992747D01*
X83042777Y-135009223D01*
X83059253Y-135027401D01*
X83073868Y-135047107D01*
X83086480Y-135068150D01*
X83096970Y-135090329D01*
X83105235Y-135113428D01*
X83111196Y-135137227D01*
X83114796Y-135161495D01*
X83116000Y-135185999D01*
X83116000Y-136086001D01*
X83114796Y-136110505D01*
X83111196Y-136134773D01*
X83105235Y-136158572D01*
X83096970Y-136181671D01*
X83086480Y-136203850D01*
X83073868Y-136224893D01*
X83059253Y-136244599D01*
X83042777Y-136262777D01*
X83024599Y-136279253D01*
X83004893Y-136293868D01*
X82983850Y-136306480D01*
X82961671Y-136316970D01*
X82938572Y-136325235D01*
X82914773Y-136331196D01*
X82890505Y-136334796D01*
X82866001Y-136336000D01*
X82215999Y-136336000D01*
X82191495Y-136334796D01*
X82167227Y-136331196D01*
X82143428Y-136325235D01*
X82120329Y-136316970D01*
X82098150Y-136306480D01*
X82077107Y-136293868D01*
X82057401Y-136279253D01*
X82039223Y-136262777D01*
X82022747Y-136244599D01*
X82008132Y-136224893D01*
X81995520Y-136203850D01*
X81985030Y-136181671D01*
X81976765Y-136158572D01*
X81970804Y-136134773D01*
X81967204Y-136110505D01*
X81966000Y-136086001D01*
X81966000Y-135185999D01*
X81967204Y-135161495D01*
X81970804Y-135137227D01*
X81976765Y-135113428D01*
X81985030Y-135090329D01*
X81995520Y-135068150D01*
X82008132Y-135047107D01*
X82022747Y-135027401D01*
X82039223Y-135009223D01*
X82057401Y-134992747D01*
X82077107Y-134978132D01*
X82098150Y-134965520D01*
X82120329Y-134955030D01*
X82143428Y-134946765D01*
X82167227Y-134940804D01*
X82191495Y-134937204D01*
X82215999Y-134936000D01*
X82866001Y-134936000D01*
X82890505Y-134937204D01*
X82890505Y-134937204D01*
G37*
D13*
X82541000Y-135636000D03*
G04 #@! TD*
D12*
G04 #@! TO.C,R3*
G36*
X102956505Y-133286204D02*
X102980773Y-133289804D01*
X103004572Y-133295765D01*
X103027671Y-133304030D01*
X103049850Y-133314520D01*
X103070893Y-133327132D01*
X103090599Y-133341747D01*
X103108777Y-133358223D01*
X103125253Y-133376401D01*
X103139868Y-133396107D01*
X103152480Y-133417150D01*
X103162970Y-133439329D01*
X103171235Y-133462428D01*
X103177196Y-133486227D01*
X103180796Y-133510495D01*
X103182000Y-133534999D01*
X103182000Y-134435001D01*
X103180796Y-134459505D01*
X103177196Y-134483773D01*
X103171235Y-134507572D01*
X103162970Y-134530671D01*
X103152480Y-134552850D01*
X103139868Y-134573893D01*
X103125253Y-134593599D01*
X103108777Y-134611777D01*
X103090599Y-134628253D01*
X103070893Y-134642868D01*
X103049850Y-134655480D01*
X103027671Y-134665970D01*
X103004572Y-134674235D01*
X102980773Y-134680196D01*
X102956505Y-134683796D01*
X102932001Y-134685000D01*
X102281999Y-134685000D01*
X102257495Y-134683796D01*
X102233227Y-134680196D01*
X102209428Y-134674235D01*
X102186329Y-134665970D01*
X102164150Y-134655480D01*
X102143107Y-134642868D01*
X102123401Y-134628253D01*
X102105223Y-134611777D01*
X102088747Y-134593599D01*
X102074132Y-134573893D01*
X102061520Y-134552850D01*
X102051030Y-134530671D01*
X102042765Y-134507572D01*
X102036804Y-134483773D01*
X102033204Y-134459505D01*
X102032000Y-134435001D01*
X102032000Y-133534999D01*
X102033204Y-133510495D01*
X102036804Y-133486227D01*
X102042765Y-133462428D01*
X102051030Y-133439329D01*
X102061520Y-133417150D01*
X102074132Y-133396107D01*
X102088747Y-133376401D01*
X102105223Y-133358223D01*
X102123401Y-133341747D01*
X102143107Y-133327132D01*
X102164150Y-133314520D01*
X102186329Y-133304030D01*
X102209428Y-133295765D01*
X102233227Y-133289804D01*
X102257495Y-133286204D01*
X102281999Y-133285000D01*
X102932001Y-133285000D01*
X102956505Y-133286204D01*
X102956505Y-133286204D01*
G37*
D13*
X102607000Y-133985000D03*
D12*
G36*
X105006505Y-133286204D02*
X105030773Y-133289804D01*
X105054572Y-133295765D01*
X105077671Y-133304030D01*
X105099850Y-133314520D01*
X105120893Y-133327132D01*
X105140599Y-133341747D01*
X105158777Y-133358223D01*
X105175253Y-133376401D01*
X105189868Y-133396107D01*
X105202480Y-133417150D01*
X105212970Y-133439329D01*
X105221235Y-133462428D01*
X105227196Y-133486227D01*
X105230796Y-133510495D01*
X105232000Y-133534999D01*
X105232000Y-134435001D01*
X105230796Y-134459505D01*
X105227196Y-134483773D01*
X105221235Y-134507572D01*
X105212970Y-134530671D01*
X105202480Y-134552850D01*
X105189868Y-134573893D01*
X105175253Y-134593599D01*
X105158777Y-134611777D01*
X105140599Y-134628253D01*
X105120893Y-134642868D01*
X105099850Y-134655480D01*
X105077671Y-134665970D01*
X105054572Y-134674235D01*
X105030773Y-134680196D01*
X105006505Y-134683796D01*
X104982001Y-134685000D01*
X104331999Y-134685000D01*
X104307495Y-134683796D01*
X104283227Y-134680196D01*
X104259428Y-134674235D01*
X104236329Y-134665970D01*
X104214150Y-134655480D01*
X104193107Y-134642868D01*
X104173401Y-134628253D01*
X104155223Y-134611777D01*
X104138747Y-134593599D01*
X104124132Y-134573893D01*
X104111520Y-134552850D01*
X104101030Y-134530671D01*
X104092765Y-134507572D01*
X104086804Y-134483773D01*
X104083204Y-134459505D01*
X104082000Y-134435001D01*
X104082000Y-133534999D01*
X104083204Y-133510495D01*
X104086804Y-133486227D01*
X104092765Y-133462428D01*
X104101030Y-133439329D01*
X104111520Y-133417150D01*
X104124132Y-133396107D01*
X104138747Y-133376401D01*
X104155223Y-133358223D01*
X104173401Y-133341747D01*
X104193107Y-133327132D01*
X104214150Y-133314520D01*
X104236329Y-133304030D01*
X104259428Y-133295765D01*
X104283227Y-133289804D01*
X104307495Y-133286204D01*
X104331999Y-133285000D01*
X104982001Y-133285000D01*
X105006505Y-133286204D01*
X105006505Y-133286204D01*
G37*
D13*
X104657000Y-133985000D03*
G04 #@! TD*
D12*
G04 #@! TO.C,R4*
G36*
X95354505Y-133159204D02*
X95378773Y-133162804D01*
X95402572Y-133168765D01*
X95425671Y-133177030D01*
X95447850Y-133187520D01*
X95468893Y-133200132D01*
X95488599Y-133214747D01*
X95506777Y-133231223D01*
X95523253Y-133249401D01*
X95537868Y-133269107D01*
X95550480Y-133290150D01*
X95560970Y-133312329D01*
X95569235Y-133335428D01*
X95575196Y-133359227D01*
X95578796Y-133383495D01*
X95580000Y-133407999D01*
X95580000Y-134308001D01*
X95578796Y-134332505D01*
X95575196Y-134356773D01*
X95569235Y-134380572D01*
X95560970Y-134403671D01*
X95550480Y-134425850D01*
X95537868Y-134446893D01*
X95523253Y-134466599D01*
X95506777Y-134484777D01*
X95488599Y-134501253D01*
X95468893Y-134515868D01*
X95447850Y-134528480D01*
X95425671Y-134538970D01*
X95402572Y-134547235D01*
X95378773Y-134553196D01*
X95354505Y-134556796D01*
X95330001Y-134558000D01*
X94679999Y-134558000D01*
X94655495Y-134556796D01*
X94631227Y-134553196D01*
X94607428Y-134547235D01*
X94584329Y-134538970D01*
X94562150Y-134528480D01*
X94541107Y-134515868D01*
X94521401Y-134501253D01*
X94503223Y-134484777D01*
X94486747Y-134466599D01*
X94472132Y-134446893D01*
X94459520Y-134425850D01*
X94449030Y-134403671D01*
X94440765Y-134380572D01*
X94434804Y-134356773D01*
X94431204Y-134332505D01*
X94430000Y-134308001D01*
X94430000Y-133407999D01*
X94431204Y-133383495D01*
X94434804Y-133359227D01*
X94440765Y-133335428D01*
X94449030Y-133312329D01*
X94459520Y-133290150D01*
X94472132Y-133269107D01*
X94486747Y-133249401D01*
X94503223Y-133231223D01*
X94521401Y-133214747D01*
X94541107Y-133200132D01*
X94562150Y-133187520D01*
X94584329Y-133177030D01*
X94607428Y-133168765D01*
X94631227Y-133162804D01*
X94655495Y-133159204D01*
X94679999Y-133158000D01*
X95330001Y-133158000D01*
X95354505Y-133159204D01*
X95354505Y-133159204D01*
G37*
D13*
X95005000Y-133858000D03*
D12*
G36*
X93304505Y-133159204D02*
X93328773Y-133162804D01*
X93352572Y-133168765D01*
X93375671Y-133177030D01*
X93397850Y-133187520D01*
X93418893Y-133200132D01*
X93438599Y-133214747D01*
X93456777Y-133231223D01*
X93473253Y-133249401D01*
X93487868Y-133269107D01*
X93500480Y-133290150D01*
X93510970Y-133312329D01*
X93519235Y-133335428D01*
X93525196Y-133359227D01*
X93528796Y-133383495D01*
X93530000Y-133407999D01*
X93530000Y-134308001D01*
X93528796Y-134332505D01*
X93525196Y-134356773D01*
X93519235Y-134380572D01*
X93510970Y-134403671D01*
X93500480Y-134425850D01*
X93487868Y-134446893D01*
X93473253Y-134466599D01*
X93456777Y-134484777D01*
X93438599Y-134501253D01*
X93418893Y-134515868D01*
X93397850Y-134528480D01*
X93375671Y-134538970D01*
X93352572Y-134547235D01*
X93328773Y-134553196D01*
X93304505Y-134556796D01*
X93280001Y-134558000D01*
X92629999Y-134558000D01*
X92605495Y-134556796D01*
X92581227Y-134553196D01*
X92557428Y-134547235D01*
X92534329Y-134538970D01*
X92512150Y-134528480D01*
X92491107Y-134515868D01*
X92471401Y-134501253D01*
X92453223Y-134484777D01*
X92436747Y-134466599D01*
X92422132Y-134446893D01*
X92409520Y-134425850D01*
X92399030Y-134403671D01*
X92390765Y-134380572D01*
X92384804Y-134356773D01*
X92381204Y-134332505D01*
X92380000Y-134308001D01*
X92380000Y-133407999D01*
X92381204Y-133383495D01*
X92384804Y-133359227D01*
X92390765Y-133335428D01*
X92399030Y-133312329D01*
X92409520Y-133290150D01*
X92422132Y-133269107D01*
X92436747Y-133249401D01*
X92453223Y-133231223D01*
X92471401Y-133214747D01*
X92491107Y-133200132D01*
X92512150Y-133187520D01*
X92534329Y-133177030D01*
X92557428Y-133168765D01*
X92581227Y-133162804D01*
X92605495Y-133159204D01*
X92629999Y-133158000D01*
X93280001Y-133158000D01*
X93304505Y-133159204D01*
X93304505Y-133159204D01*
G37*
D13*
X92955000Y-133858000D03*
G04 #@! TD*
D12*
G04 #@! TO.C,R5*
G36*
X100434505Y-133159204D02*
X100458773Y-133162804D01*
X100482572Y-133168765D01*
X100505671Y-133177030D01*
X100527850Y-133187520D01*
X100548893Y-133200132D01*
X100568599Y-133214747D01*
X100586777Y-133231223D01*
X100603253Y-133249401D01*
X100617868Y-133269107D01*
X100630480Y-133290150D01*
X100640970Y-133312329D01*
X100649235Y-133335428D01*
X100655196Y-133359227D01*
X100658796Y-133383495D01*
X100660000Y-133407999D01*
X100660000Y-134308001D01*
X100658796Y-134332505D01*
X100655196Y-134356773D01*
X100649235Y-134380572D01*
X100640970Y-134403671D01*
X100630480Y-134425850D01*
X100617868Y-134446893D01*
X100603253Y-134466599D01*
X100586777Y-134484777D01*
X100568599Y-134501253D01*
X100548893Y-134515868D01*
X100527850Y-134528480D01*
X100505671Y-134538970D01*
X100482572Y-134547235D01*
X100458773Y-134553196D01*
X100434505Y-134556796D01*
X100410001Y-134558000D01*
X99759999Y-134558000D01*
X99735495Y-134556796D01*
X99711227Y-134553196D01*
X99687428Y-134547235D01*
X99664329Y-134538970D01*
X99642150Y-134528480D01*
X99621107Y-134515868D01*
X99601401Y-134501253D01*
X99583223Y-134484777D01*
X99566747Y-134466599D01*
X99552132Y-134446893D01*
X99539520Y-134425850D01*
X99529030Y-134403671D01*
X99520765Y-134380572D01*
X99514804Y-134356773D01*
X99511204Y-134332505D01*
X99510000Y-134308001D01*
X99510000Y-133407999D01*
X99511204Y-133383495D01*
X99514804Y-133359227D01*
X99520765Y-133335428D01*
X99529030Y-133312329D01*
X99539520Y-133290150D01*
X99552132Y-133269107D01*
X99566747Y-133249401D01*
X99583223Y-133231223D01*
X99601401Y-133214747D01*
X99621107Y-133200132D01*
X99642150Y-133187520D01*
X99664329Y-133177030D01*
X99687428Y-133168765D01*
X99711227Y-133162804D01*
X99735495Y-133159204D01*
X99759999Y-133158000D01*
X100410001Y-133158000D01*
X100434505Y-133159204D01*
X100434505Y-133159204D01*
G37*
D13*
X100085000Y-133858000D03*
D12*
G36*
X98384505Y-133159204D02*
X98408773Y-133162804D01*
X98432572Y-133168765D01*
X98455671Y-133177030D01*
X98477850Y-133187520D01*
X98498893Y-133200132D01*
X98518599Y-133214747D01*
X98536777Y-133231223D01*
X98553253Y-133249401D01*
X98567868Y-133269107D01*
X98580480Y-133290150D01*
X98590970Y-133312329D01*
X98599235Y-133335428D01*
X98605196Y-133359227D01*
X98608796Y-133383495D01*
X98610000Y-133407999D01*
X98610000Y-134308001D01*
X98608796Y-134332505D01*
X98605196Y-134356773D01*
X98599235Y-134380572D01*
X98590970Y-134403671D01*
X98580480Y-134425850D01*
X98567868Y-134446893D01*
X98553253Y-134466599D01*
X98536777Y-134484777D01*
X98518599Y-134501253D01*
X98498893Y-134515868D01*
X98477850Y-134528480D01*
X98455671Y-134538970D01*
X98432572Y-134547235D01*
X98408773Y-134553196D01*
X98384505Y-134556796D01*
X98360001Y-134558000D01*
X97709999Y-134558000D01*
X97685495Y-134556796D01*
X97661227Y-134553196D01*
X97637428Y-134547235D01*
X97614329Y-134538970D01*
X97592150Y-134528480D01*
X97571107Y-134515868D01*
X97551401Y-134501253D01*
X97533223Y-134484777D01*
X97516747Y-134466599D01*
X97502132Y-134446893D01*
X97489520Y-134425850D01*
X97479030Y-134403671D01*
X97470765Y-134380572D01*
X97464804Y-134356773D01*
X97461204Y-134332505D01*
X97460000Y-134308001D01*
X97460000Y-133407999D01*
X97461204Y-133383495D01*
X97464804Y-133359227D01*
X97470765Y-133335428D01*
X97479030Y-133312329D01*
X97489520Y-133290150D01*
X97502132Y-133269107D01*
X97516747Y-133249401D01*
X97533223Y-133231223D01*
X97551401Y-133214747D01*
X97571107Y-133200132D01*
X97592150Y-133187520D01*
X97614329Y-133177030D01*
X97637428Y-133168765D01*
X97661227Y-133162804D01*
X97685495Y-133159204D01*
X97709999Y-133158000D01*
X98360001Y-133158000D01*
X98384505Y-133159204D01*
X98384505Y-133159204D01*
G37*
D13*
X98035000Y-133858000D03*
G04 #@! TD*
D14*
G04 #@! TO.C,U_BUF1*
X77724000Y-107536000D03*
X78994000Y-107536000D03*
X80264000Y-107536000D03*
X81534000Y-107536000D03*
X81534000Y-112936000D03*
X80264000Y-112936000D03*
X78994000Y-112936000D03*
X77724000Y-112936000D03*
G04 #@! TD*
D11*
G04 #@! TO.C,U_PREG1*
X83731500Y-141351000D03*
D10*
X77431500Y-141351000D03*
X77431500Y-143651000D03*
X77431500Y-139051000D03*
G04 #@! TD*
D15*
G04 #@! TO.C,CP_INV1*
X59839000Y-144272000D03*
X56239000Y-144272000D03*
G04 #@! TD*
G04 #@! TO.C,CP_INV2*
X68856000Y-144272000D03*
X65256000Y-144272000D03*
G04 #@! TD*
D12*
G04 #@! TO.C,C_OSC2*
G36*
X71467505Y-91365204D02*
X71491773Y-91368804D01*
X71515572Y-91374765D01*
X71538671Y-91383030D01*
X71560850Y-91393520D01*
X71581893Y-91406132D01*
X71601599Y-91420747D01*
X71619777Y-91437223D01*
X71636253Y-91455401D01*
X71650868Y-91475107D01*
X71663480Y-91496150D01*
X71673970Y-91518329D01*
X71682235Y-91541428D01*
X71688196Y-91565227D01*
X71691796Y-91589495D01*
X71693000Y-91613999D01*
X71693000Y-92264001D01*
X71691796Y-92288505D01*
X71688196Y-92312773D01*
X71682235Y-92336572D01*
X71673970Y-92359671D01*
X71663480Y-92381850D01*
X71650868Y-92402893D01*
X71636253Y-92422599D01*
X71619777Y-92440777D01*
X71601599Y-92457253D01*
X71581893Y-92471868D01*
X71560850Y-92484480D01*
X71538671Y-92494970D01*
X71515572Y-92503235D01*
X71491773Y-92509196D01*
X71467505Y-92512796D01*
X71443001Y-92514000D01*
X70542999Y-92514000D01*
X70518495Y-92512796D01*
X70494227Y-92509196D01*
X70470428Y-92503235D01*
X70447329Y-92494970D01*
X70425150Y-92484480D01*
X70404107Y-92471868D01*
X70384401Y-92457253D01*
X70366223Y-92440777D01*
X70349747Y-92422599D01*
X70335132Y-92402893D01*
X70322520Y-92381850D01*
X70312030Y-92359671D01*
X70303765Y-92336572D01*
X70297804Y-92312773D01*
X70294204Y-92288505D01*
X70293000Y-92264001D01*
X70293000Y-91613999D01*
X70294204Y-91589495D01*
X70297804Y-91565227D01*
X70303765Y-91541428D01*
X70312030Y-91518329D01*
X70322520Y-91496150D01*
X70335132Y-91475107D01*
X70349747Y-91455401D01*
X70366223Y-91437223D01*
X70384401Y-91420747D01*
X70404107Y-91406132D01*
X70425150Y-91393520D01*
X70447329Y-91383030D01*
X70470428Y-91374765D01*
X70494227Y-91368804D01*
X70518495Y-91365204D01*
X70542999Y-91364000D01*
X71443001Y-91364000D01*
X71467505Y-91365204D01*
X71467505Y-91365204D01*
G37*
D13*
X70993000Y-91939000D03*
D12*
G36*
X71467910Y-93415202D02*
X71492135Y-93418795D01*
X71515891Y-93424746D01*
X71538949Y-93432996D01*
X71561087Y-93443467D01*
X71582093Y-93456057D01*
X71601763Y-93470645D01*
X71619908Y-93487092D01*
X71636355Y-93505237D01*
X71650943Y-93524907D01*
X71663533Y-93545913D01*
X71674004Y-93568051D01*
X71682254Y-93591109D01*
X71688205Y-93614865D01*
X71691798Y-93639090D01*
X71693000Y-93663550D01*
X71693000Y-94314450D01*
X71691798Y-94338910D01*
X71688205Y-94363135D01*
X71682254Y-94386891D01*
X71674004Y-94409949D01*
X71663533Y-94432087D01*
X71650943Y-94453093D01*
X71636355Y-94472763D01*
X71619908Y-94490908D01*
X71601763Y-94507355D01*
X71582093Y-94521943D01*
X71561087Y-94534533D01*
X71538949Y-94545004D01*
X71515891Y-94553254D01*
X71492135Y-94559205D01*
X71467910Y-94562798D01*
X71443450Y-94564000D01*
X70542550Y-94564000D01*
X70518090Y-94562798D01*
X70493865Y-94559205D01*
X70470109Y-94553254D01*
X70447051Y-94545004D01*
X70424913Y-94534533D01*
X70403907Y-94521943D01*
X70384237Y-94507355D01*
X70366092Y-94490908D01*
X70349645Y-94472763D01*
X70335057Y-94453093D01*
X70322467Y-94432087D01*
X70311996Y-94409949D01*
X70303746Y-94386891D01*
X70297795Y-94363135D01*
X70294202Y-94338910D01*
X70293000Y-94314450D01*
X70293000Y-93663550D01*
X70294202Y-93639090D01*
X70297795Y-93614865D01*
X70303746Y-93591109D01*
X70311996Y-93568051D01*
X70322467Y-93545913D01*
X70335057Y-93524907D01*
X70349645Y-93505237D01*
X70366092Y-93487092D01*
X70384237Y-93470645D01*
X70403907Y-93456057D01*
X70424913Y-93443467D01*
X70447051Y-93432996D01*
X70470109Y-93424746D01*
X70493865Y-93418795D01*
X70518090Y-93415202D01*
X70542550Y-93414000D01*
X71443450Y-93414000D01*
X71467910Y-93415202D01*
X71467910Y-93415202D01*
G37*
D13*
X70993000Y-93989000D03*
G04 #@! TD*
D12*
G04 #@! TO.C,R_OSCOFF1*
G36*
X64348505Y-94043204D02*
X64372773Y-94046804D01*
X64396572Y-94052765D01*
X64419671Y-94061030D01*
X64441850Y-94071520D01*
X64462893Y-94084132D01*
X64482599Y-94098747D01*
X64500777Y-94115223D01*
X64517253Y-94133401D01*
X64531868Y-94153107D01*
X64544480Y-94174150D01*
X64554970Y-94196329D01*
X64563235Y-94219428D01*
X64569196Y-94243227D01*
X64572796Y-94267495D01*
X64574000Y-94291999D01*
X64574000Y-95192001D01*
X64572796Y-95216505D01*
X64569196Y-95240773D01*
X64563235Y-95264572D01*
X64554970Y-95287671D01*
X64544480Y-95309850D01*
X64531868Y-95330893D01*
X64517253Y-95350599D01*
X64500777Y-95368777D01*
X64482599Y-95385253D01*
X64462893Y-95399868D01*
X64441850Y-95412480D01*
X64419671Y-95422970D01*
X64396572Y-95431235D01*
X64372773Y-95437196D01*
X64348505Y-95440796D01*
X64324001Y-95442000D01*
X63673999Y-95442000D01*
X63649495Y-95440796D01*
X63625227Y-95437196D01*
X63601428Y-95431235D01*
X63578329Y-95422970D01*
X63556150Y-95412480D01*
X63535107Y-95399868D01*
X63515401Y-95385253D01*
X63497223Y-95368777D01*
X63480747Y-95350599D01*
X63466132Y-95330893D01*
X63453520Y-95309850D01*
X63443030Y-95287671D01*
X63434765Y-95264572D01*
X63428804Y-95240773D01*
X63425204Y-95216505D01*
X63424000Y-95192001D01*
X63424000Y-94291999D01*
X63425204Y-94267495D01*
X63428804Y-94243227D01*
X63434765Y-94219428D01*
X63443030Y-94196329D01*
X63453520Y-94174150D01*
X63466132Y-94153107D01*
X63480747Y-94133401D01*
X63497223Y-94115223D01*
X63515401Y-94098747D01*
X63535107Y-94084132D01*
X63556150Y-94071520D01*
X63578329Y-94061030D01*
X63601428Y-94052765D01*
X63625227Y-94046804D01*
X63649495Y-94043204D01*
X63673999Y-94042000D01*
X64324001Y-94042000D01*
X64348505Y-94043204D01*
X64348505Y-94043204D01*
G37*
D13*
X63999000Y-94742000D03*
D12*
G36*
X66398505Y-94043204D02*
X66422773Y-94046804D01*
X66446572Y-94052765D01*
X66469671Y-94061030D01*
X66491850Y-94071520D01*
X66512893Y-94084132D01*
X66532599Y-94098747D01*
X66550777Y-94115223D01*
X66567253Y-94133401D01*
X66581868Y-94153107D01*
X66594480Y-94174150D01*
X66604970Y-94196329D01*
X66613235Y-94219428D01*
X66619196Y-94243227D01*
X66622796Y-94267495D01*
X66624000Y-94291999D01*
X66624000Y-95192001D01*
X66622796Y-95216505D01*
X66619196Y-95240773D01*
X66613235Y-95264572D01*
X66604970Y-95287671D01*
X66594480Y-95309850D01*
X66581868Y-95330893D01*
X66567253Y-95350599D01*
X66550777Y-95368777D01*
X66532599Y-95385253D01*
X66512893Y-95399868D01*
X66491850Y-95412480D01*
X66469671Y-95422970D01*
X66446572Y-95431235D01*
X66422773Y-95437196D01*
X66398505Y-95440796D01*
X66374001Y-95442000D01*
X65723999Y-95442000D01*
X65699495Y-95440796D01*
X65675227Y-95437196D01*
X65651428Y-95431235D01*
X65628329Y-95422970D01*
X65606150Y-95412480D01*
X65585107Y-95399868D01*
X65565401Y-95385253D01*
X65547223Y-95368777D01*
X65530747Y-95350599D01*
X65516132Y-95330893D01*
X65503520Y-95309850D01*
X65493030Y-95287671D01*
X65484765Y-95264572D01*
X65478804Y-95240773D01*
X65475204Y-95216505D01*
X65474000Y-95192001D01*
X65474000Y-94291999D01*
X65475204Y-94267495D01*
X65478804Y-94243227D01*
X65484765Y-94219428D01*
X65493030Y-94196329D01*
X65503520Y-94174150D01*
X65516132Y-94153107D01*
X65530747Y-94133401D01*
X65547223Y-94115223D01*
X65565401Y-94098747D01*
X65585107Y-94084132D01*
X65606150Y-94071520D01*
X65628329Y-94061030D01*
X65651428Y-94052765D01*
X65675227Y-94046804D01*
X65699495Y-94043204D01*
X65723999Y-94042000D01*
X66374001Y-94042000D01*
X66398505Y-94043204D01*
X66398505Y-94043204D01*
G37*
D13*
X66049000Y-94742000D03*
G04 #@! TD*
D12*
G04 #@! TO.C,R_OSCON1*
G36*
X57998505Y-88709204D02*
X58022773Y-88712804D01*
X58046572Y-88718765D01*
X58069671Y-88727030D01*
X58091850Y-88737520D01*
X58112893Y-88750132D01*
X58132599Y-88764747D01*
X58150777Y-88781223D01*
X58167253Y-88799401D01*
X58181868Y-88819107D01*
X58194480Y-88840150D01*
X58204970Y-88862329D01*
X58213235Y-88885428D01*
X58219196Y-88909227D01*
X58222796Y-88933495D01*
X58224000Y-88957999D01*
X58224000Y-89858001D01*
X58222796Y-89882505D01*
X58219196Y-89906773D01*
X58213235Y-89930572D01*
X58204970Y-89953671D01*
X58194480Y-89975850D01*
X58181868Y-89996893D01*
X58167253Y-90016599D01*
X58150777Y-90034777D01*
X58132599Y-90051253D01*
X58112893Y-90065868D01*
X58091850Y-90078480D01*
X58069671Y-90088970D01*
X58046572Y-90097235D01*
X58022773Y-90103196D01*
X57998505Y-90106796D01*
X57974001Y-90108000D01*
X57323999Y-90108000D01*
X57299495Y-90106796D01*
X57275227Y-90103196D01*
X57251428Y-90097235D01*
X57228329Y-90088970D01*
X57206150Y-90078480D01*
X57185107Y-90065868D01*
X57165401Y-90051253D01*
X57147223Y-90034777D01*
X57130747Y-90016599D01*
X57116132Y-89996893D01*
X57103520Y-89975850D01*
X57093030Y-89953671D01*
X57084765Y-89930572D01*
X57078804Y-89906773D01*
X57075204Y-89882505D01*
X57074000Y-89858001D01*
X57074000Y-88957999D01*
X57075204Y-88933495D01*
X57078804Y-88909227D01*
X57084765Y-88885428D01*
X57093030Y-88862329D01*
X57103520Y-88840150D01*
X57116132Y-88819107D01*
X57130747Y-88799401D01*
X57147223Y-88781223D01*
X57165401Y-88764747D01*
X57185107Y-88750132D01*
X57206150Y-88737520D01*
X57228329Y-88727030D01*
X57251428Y-88718765D01*
X57275227Y-88712804D01*
X57299495Y-88709204D01*
X57323999Y-88708000D01*
X57974001Y-88708000D01*
X57998505Y-88709204D01*
X57998505Y-88709204D01*
G37*
D13*
X57649000Y-89408000D03*
D12*
G36*
X60048505Y-88709204D02*
X60072773Y-88712804D01*
X60096572Y-88718765D01*
X60119671Y-88727030D01*
X60141850Y-88737520D01*
X60162893Y-88750132D01*
X60182599Y-88764747D01*
X60200777Y-88781223D01*
X60217253Y-88799401D01*
X60231868Y-88819107D01*
X60244480Y-88840150D01*
X60254970Y-88862329D01*
X60263235Y-88885428D01*
X60269196Y-88909227D01*
X60272796Y-88933495D01*
X60274000Y-88957999D01*
X60274000Y-89858001D01*
X60272796Y-89882505D01*
X60269196Y-89906773D01*
X60263235Y-89930572D01*
X60254970Y-89953671D01*
X60244480Y-89975850D01*
X60231868Y-89996893D01*
X60217253Y-90016599D01*
X60200777Y-90034777D01*
X60182599Y-90051253D01*
X60162893Y-90065868D01*
X60141850Y-90078480D01*
X60119671Y-90088970D01*
X60096572Y-90097235D01*
X60072773Y-90103196D01*
X60048505Y-90106796D01*
X60024001Y-90108000D01*
X59373999Y-90108000D01*
X59349495Y-90106796D01*
X59325227Y-90103196D01*
X59301428Y-90097235D01*
X59278329Y-90088970D01*
X59256150Y-90078480D01*
X59235107Y-90065868D01*
X59215401Y-90051253D01*
X59197223Y-90034777D01*
X59180747Y-90016599D01*
X59166132Y-89996893D01*
X59153520Y-89975850D01*
X59143030Y-89953671D01*
X59134765Y-89930572D01*
X59128804Y-89906773D01*
X59125204Y-89882505D01*
X59124000Y-89858001D01*
X59124000Y-88957999D01*
X59125204Y-88933495D01*
X59128804Y-88909227D01*
X59134765Y-88885428D01*
X59143030Y-88862329D01*
X59153520Y-88840150D01*
X59166132Y-88819107D01*
X59180747Y-88799401D01*
X59197223Y-88781223D01*
X59215401Y-88764747D01*
X59235107Y-88750132D01*
X59256150Y-88737520D01*
X59278329Y-88727030D01*
X59301428Y-88718765D01*
X59325227Y-88712804D01*
X59349495Y-88709204D01*
X59373999Y-88708000D01*
X60024001Y-88708000D01*
X60048505Y-88709204D01*
X60048505Y-88709204D01*
G37*
D13*
X59699000Y-89408000D03*
G04 #@! TD*
D16*
G04 #@! TO.C,U_OSC1*
X62324000Y-88138000D03*
X62324000Y-89408000D03*
X62324000Y-90678000D03*
X62324000Y-91948000D03*
X67724000Y-91948000D03*
X67724000Y-90678000D03*
X67724000Y-89408000D03*
X67724000Y-88138000D03*
G04 #@! TD*
G04 #@! TO.C,U_INV1*
X65184000Y-136906000D03*
X65184000Y-138176000D03*
X65184000Y-139446000D03*
X65184000Y-140716000D03*
X59784000Y-140716000D03*
X59784000Y-139446000D03*
X59784000Y-138176000D03*
X59784000Y-136906000D03*
G04 #@! TD*
D17*
G04 #@! TO.C,U_OPTO1*
X83795000Y-73660000D03*
X83795000Y-74930000D03*
X77495000Y-74930000D03*
X77495000Y-73660000D03*
G04 #@! TD*
D15*
G04 #@! TO.C,CP_FAST1*
X81766000Y-91440000D03*
X85366000Y-91440000D03*
G04 #@! TD*
D18*
G04 #@! TO.C,CP_SLOW1*
X92450000Y-90678000D03*
X98050000Y-90678000D03*
G04 #@! TD*
D12*
G04 #@! TO.C,C_BP2*
G36*
X73626505Y-87573204D02*
X73650773Y-87576804D01*
X73674572Y-87582765D01*
X73697671Y-87591030D01*
X73719850Y-87601520D01*
X73740893Y-87614132D01*
X73760599Y-87628747D01*
X73778777Y-87645223D01*
X73795253Y-87663401D01*
X73809868Y-87683107D01*
X73822480Y-87704150D01*
X73832970Y-87726329D01*
X73841235Y-87749428D01*
X73847196Y-87773227D01*
X73850796Y-87797495D01*
X73852000Y-87821999D01*
X73852000Y-88472001D01*
X73850796Y-88496505D01*
X73847196Y-88520773D01*
X73841235Y-88544572D01*
X73832970Y-88567671D01*
X73822480Y-88589850D01*
X73809868Y-88610893D01*
X73795253Y-88630599D01*
X73778777Y-88648777D01*
X73760599Y-88665253D01*
X73740893Y-88679868D01*
X73719850Y-88692480D01*
X73697671Y-88702970D01*
X73674572Y-88711235D01*
X73650773Y-88717196D01*
X73626505Y-88720796D01*
X73602001Y-88722000D01*
X72701999Y-88722000D01*
X72677495Y-88720796D01*
X72653227Y-88717196D01*
X72629428Y-88711235D01*
X72606329Y-88702970D01*
X72584150Y-88692480D01*
X72563107Y-88679868D01*
X72543401Y-88665253D01*
X72525223Y-88648777D01*
X72508747Y-88630599D01*
X72494132Y-88610893D01*
X72481520Y-88589850D01*
X72471030Y-88567671D01*
X72462765Y-88544572D01*
X72456804Y-88520773D01*
X72453204Y-88496505D01*
X72452000Y-88472001D01*
X72452000Y-87821999D01*
X72453204Y-87797495D01*
X72456804Y-87773227D01*
X72462765Y-87749428D01*
X72471030Y-87726329D01*
X72481520Y-87704150D01*
X72494132Y-87683107D01*
X72508747Y-87663401D01*
X72525223Y-87645223D01*
X72543401Y-87628747D01*
X72563107Y-87614132D01*
X72584150Y-87601520D01*
X72606329Y-87591030D01*
X72629428Y-87582765D01*
X72653227Y-87576804D01*
X72677495Y-87573204D01*
X72701999Y-87572000D01*
X73602001Y-87572000D01*
X73626505Y-87573204D01*
X73626505Y-87573204D01*
G37*
D13*
X73152000Y-88147000D03*
D12*
G36*
X73626505Y-85523204D02*
X73650773Y-85526804D01*
X73674572Y-85532765D01*
X73697671Y-85541030D01*
X73719850Y-85551520D01*
X73740893Y-85564132D01*
X73760599Y-85578747D01*
X73778777Y-85595223D01*
X73795253Y-85613401D01*
X73809868Y-85633107D01*
X73822480Y-85654150D01*
X73832970Y-85676329D01*
X73841235Y-85699428D01*
X73847196Y-85723227D01*
X73850796Y-85747495D01*
X73852000Y-85771999D01*
X73852000Y-86422001D01*
X73850796Y-86446505D01*
X73847196Y-86470773D01*
X73841235Y-86494572D01*
X73832970Y-86517671D01*
X73822480Y-86539850D01*
X73809868Y-86560893D01*
X73795253Y-86580599D01*
X73778777Y-86598777D01*
X73760599Y-86615253D01*
X73740893Y-86629868D01*
X73719850Y-86642480D01*
X73697671Y-86652970D01*
X73674572Y-86661235D01*
X73650773Y-86667196D01*
X73626505Y-86670796D01*
X73602001Y-86672000D01*
X72701999Y-86672000D01*
X72677495Y-86670796D01*
X72653227Y-86667196D01*
X72629428Y-86661235D01*
X72606329Y-86652970D01*
X72584150Y-86642480D01*
X72563107Y-86629868D01*
X72543401Y-86615253D01*
X72525223Y-86598777D01*
X72508747Y-86580599D01*
X72494132Y-86560893D01*
X72481520Y-86539850D01*
X72471030Y-86517671D01*
X72462765Y-86494572D01*
X72456804Y-86470773D01*
X72453204Y-86446505D01*
X72452000Y-86422001D01*
X72452000Y-85771999D01*
X72453204Y-85747495D01*
X72456804Y-85723227D01*
X72462765Y-85699428D01*
X72471030Y-85676329D01*
X72481520Y-85654150D01*
X72494132Y-85633107D01*
X72508747Y-85613401D01*
X72525223Y-85595223D01*
X72543401Y-85578747D01*
X72563107Y-85564132D01*
X72584150Y-85551520D01*
X72606329Y-85541030D01*
X72629428Y-85532765D01*
X72653227Y-85526804D01*
X72677495Y-85523204D01*
X72701999Y-85522000D01*
X73602001Y-85522000D01*
X73626505Y-85523204D01*
X73626505Y-85523204D01*
G37*
D13*
X73152000Y-86097000D03*
G04 #@! TD*
M02*
