G04 #@! TF.FileFunction,Copper,L2,Bot,Signal*
%FSLAX46Y46*%
G04 Gerber Fmt 4.6, Leading zero omitted, Abs format (unit mm)*
G04 Created by KiCad (PCBNEW 4.0.6) date 01/08/18 00:35:12*
%MOMM*%
%LPD*%
G01*
G04 APERTURE LIST*
%ADD10C,0.100000*%
%ADD11C,0.150000*%
%ADD12C,2.000000*%
%ADD13C,3.000000*%
%ADD14R,2.000000X2.000000*%
%ADD15R,0.900000X0.800000*%
%ADD16O,5.000000X4.000000*%
%ADD17C,2.499360*%
%ADD18R,0.450000X0.600000*%
%ADD19R,0.800000X0.900000*%
%ADD20O,3.500000X4.000000*%
%ADD21R,3.500000X3.500000*%
%ADD22R,1.700000X1.700000*%
%ADD23O,1.700000X1.700000*%
%ADD24R,1.250000X1.500000*%
%ADD25R,1.500000X1.250000*%
%ADD26C,0.600000*%
%ADD27C,0.250000*%
%ADD28C,0.500000*%
%ADD29C,1.000000*%
G04 APERTURE END LIST*
D10*
D11*
X87376000Y-148336000D02*
X87376000Y-77216000D01*
X111379000Y-155321000D02*
X94361000Y-155321000D01*
X118364000Y-77216000D02*
X118364000Y-148336000D01*
X111252000Y-70231000D02*
X94361000Y-70231000D01*
X87388700Y-156108400D02*
X87388700Y-172491400D01*
X118376700Y-172491400D02*
X118376700Y-156108400D01*
X118376700Y-172491400D02*
X87388700Y-172491400D01*
X87388700Y-156108400D02*
X118376700Y-156108400D01*
X118364000Y-148336000D02*
X118364000Y-148209000D01*
X111379000Y-148336000D02*
X118364000Y-148336000D01*
X111379000Y-155321000D02*
X111379000Y-148336000D01*
X94361000Y-148336000D02*
X94361000Y-155321000D01*
X87376000Y-148336000D02*
X94361000Y-148336000D01*
X94361000Y-77216000D02*
X87376000Y-77216000D01*
X94361000Y-70231000D02*
X94361000Y-77216000D01*
X111252000Y-77216000D02*
X111252000Y-70231000D01*
X118364000Y-77216000D02*
X111252000Y-77216000D01*
D12*
X94326700Y-169316400D03*
X96826700Y-169316400D03*
X99326700Y-169316400D03*
D13*
X92426700Y-162316400D03*
X101226700Y-162316400D03*
D14*
X102882700Y-169062400D03*
D12*
X102882700Y-166522400D03*
X106391700Y-169316400D03*
X108891700Y-169316400D03*
X111391700Y-169316400D03*
D13*
X104491700Y-162316400D03*
X113291700Y-162316400D03*
D15*
X93488000Y-90675500D03*
X93488000Y-88775500D03*
X95488000Y-89725500D03*
D16*
X100434000Y-134492000D03*
X100434000Y-118492000D03*
X113434000Y-118492000D03*
X113411000Y-134492000D03*
X105306000Y-99696000D03*
X105306000Y-115696000D03*
X92306000Y-115696000D03*
X92329000Y-99696000D03*
D17*
X110871000Y-79502000D03*
D18*
X95631000Y-77123000D03*
X95631000Y-75023000D03*
D19*
X114747000Y-144542000D03*
X116647000Y-144542000D03*
X115697000Y-146542000D03*
D15*
X108410500Y-85468500D03*
X108410500Y-83568500D03*
X110410500Y-84518500D03*
D19*
X90871000Y-110252000D03*
X92771000Y-110252000D03*
X91821000Y-112252000D03*
D20*
X98270000Y-150661000D03*
X98270000Y-145161000D03*
X98270000Y-139661000D03*
X102870000Y-150661000D03*
X102870000Y-145161000D03*
X102870000Y-139661000D03*
X107470000Y-150661000D03*
X107470000Y-145161000D03*
X107470000Y-139661000D03*
D21*
X103886000Y-78740000D03*
X103886000Y-72740000D03*
X99186000Y-75740000D03*
D14*
X89166700Y-168681400D03*
D12*
X89166700Y-166141400D03*
X89166700Y-163601400D03*
X89166700Y-161061400D03*
D14*
X116598700Y-168681400D03*
D12*
X116598700Y-166141400D03*
X116598700Y-163601400D03*
X116598700Y-161061400D03*
D22*
X89154000Y-93345000D03*
D23*
X89154000Y-90805000D03*
X89154000Y-88265000D03*
X89154000Y-85725000D03*
D22*
X116586000Y-93345000D03*
D23*
X116586000Y-90805000D03*
X116586000Y-88265000D03*
X116586000Y-85725000D03*
D24*
X90170000Y-142768000D03*
X90170000Y-145268000D03*
D25*
X103398000Y-90932000D03*
X105898000Y-90932000D03*
X99207000Y-83883500D03*
X101707000Y-83883500D03*
D24*
X105283000Y-87546500D03*
X105283000Y-85046500D03*
D25*
X115296000Y-130302000D03*
X112796000Y-130302000D03*
X89872500Y-130175000D03*
X92372500Y-130175000D03*
D24*
X108839000Y-102763000D03*
X108839000Y-105263000D03*
X95250000Y-84181000D03*
X95250000Y-81681000D03*
X96012000Y-103866000D03*
X96012000Y-101366000D03*
D25*
X115296000Y-127000000D03*
X112796000Y-127000000D03*
D24*
X92837000Y-143236000D03*
X92837000Y-140736000D03*
X90106500Y-137751500D03*
X90106500Y-140251500D03*
X113157000Y-94635000D03*
X113157000Y-97135000D03*
X116649500Y-142347000D03*
X116649500Y-139847000D03*
D25*
X108160500Y-87630000D03*
X110660500Y-87630000D03*
D24*
X92329000Y-125583000D03*
X92329000Y-123083000D03*
X90170000Y-132735000D03*
X90170000Y-135235000D03*
X108597700Y-160914400D03*
X108597700Y-158414400D03*
X94742000Y-125583000D03*
X94742000Y-123083000D03*
X89789000Y-103779000D03*
X89789000Y-106279000D03*
X96012000Y-109263500D03*
X96012000Y-106763500D03*
D25*
X93238000Y-86487000D03*
X95738000Y-86487000D03*
X99207000Y-86296500D03*
X101707000Y-86296500D03*
X101707000Y-88900000D03*
X99207000Y-88900000D03*
D24*
X96139000Y-92222000D03*
X96139000Y-94722000D03*
D26*
X111404400Y-96824800D03*
X106908600Y-92329000D03*
X113157000Y-142367000D03*
X109855000Y-142367000D03*
X97536000Y-79121000D03*
X97536000Y-95758000D03*
X111252000Y-130302000D03*
X93789500Y-130302000D03*
X99822000Y-112268000D03*
X94869000Y-112268000D03*
X114554000Y-112268000D03*
X107188000Y-112268000D03*
X113093500Y-93345000D03*
X113093500Y-83439000D03*
X97536000Y-123952000D03*
X97536000Y-126746000D03*
X96012000Y-114046000D03*
X100584000Y-113919000D03*
X100330000Y-126746000D03*
X100330000Y-121539000D03*
X103886000Y-122555000D03*
X103886000Y-126619000D03*
X109855000Y-109601000D03*
X102108000Y-101854000D03*
X106095800Y-81940400D03*
X108305600Y-81940400D03*
X93446600Y-81940400D03*
X91516200Y-81940400D03*
X91871800Y-93370400D03*
X94538800Y-94411800D03*
D27*
X108839000Y-154305000D02*
X97282000Y-154305000D01*
X97282000Y-154305000D02*
X95250000Y-152273000D01*
X108839000Y-154305000D02*
X110744000Y-152400000D01*
X94996000Y-147828000D02*
X95250000Y-148082000D01*
X95250000Y-148082000D02*
X95250000Y-152273000D01*
X112284000Y-146542000D02*
X115697000Y-146542000D01*
X110744000Y-148082000D02*
X110744000Y-152400000D01*
X112284000Y-146542000D02*
X110744000Y-148082000D01*
X94996000Y-147828000D02*
X94869000Y-147701000D01*
X88265000Y-143256000D02*
X88265000Y-146304000D01*
X88503000Y-143018000D02*
X88265000Y-143256000D01*
X90170000Y-143018000D02*
X88503000Y-143018000D01*
X94996000Y-147828000D02*
X94869000Y-147701000D01*
X94869000Y-147701000D02*
X93853000Y-146685000D01*
X93853000Y-146685000D02*
X88646000Y-146685000D01*
X88646000Y-146685000D02*
X88265000Y-146304000D01*
D28*
X92837000Y-142936000D02*
X90252000Y-142936000D01*
X90252000Y-142936000D02*
X90170000Y-142854000D01*
X90170000Y-142854000D02*
X90106500Y-139951500D01*
X112796000Y-127000000D02*
X110998000Y-127000000D01*
X110998000Y-127000000D02*
X110299500Y-127698500D01*
X109982000Y-128841500D02*
X109982000Y-128016000D01*
X109982000Y-128016000D02*
X110299500Y-127698500D01*
X110299500Y-127698500D02*
X110998000Y-127000000D01*
X110998000Y-127000000D02*
X112796000Y-127000000D01*
D27*
X110045500Y-147637500D02*
X110045500Y-151955500D01*
X110045500Y-151955500D02*
X109728000Y-152273000D01*
X112014000Y-145669000D02*
X110045500Y-147637500D01*
X105156000Y-153670000D02*
X105283000Y-153670000D01*
X108331000Y-153670000D02*
X105283000Y-153670000D01*
X109728000Y-152273000D02*
X108331000Y-153670000D01*
D28*
X112014000Y-137795000D02*
X109982000Y-135763000D01*
X109982000Y-135763000D02*
X109982000Y-128841500D01*
X112014000Y-145669000D02*
X112014000Y-137795000D01*
D27*
X107470000Y-145161000D02*
X107470000Y-145895000D01*
X107470000Y-145895000D02*
X105156000Y-148209000D01*
X105156000Y-153670000D02*
X105156000Y-148209000D01*
X95885000Y-147574000D02*
X95885000Y-151638000D01*
X95885000Y-151638000D02*
X96139000Y-151892000D01*
X96139000Y-151892000D02*
X95885000Y-151638000D01*
X97917000Y-153670000D02*
X105156000Y-153670000D01*
X95885000Y-147574000D02*
X93329000Y-145018000D01*
D28*
X93329000Y-145018000D02*
X90170000Y-145018000D01*
D27*
X97917000Y-153670000D02*
X96139000Y-151892000D01*
D28*
X101707000Y-83883500D02*
X102806500Y-83883500D01*
X103398000Y-84475000D02*
X103398000Y-90932000D01*
X102806500Y-83883500D02*
X103398000Y-84475000D01*
X103398000Y-90932000D02*
X103398000Y-91420000D01*
X103398000Y-91420000D02*
X102596000Y-92222000D01*
X102596000Y-92222000D02*
X96139000Y-92222000D01*
X101874000Y-84050500D02*
X101707000Y-83883500D01*
X103455000Y-91125000D02*
X103648000Y-90932000D01*
X101362000Y-83978500D02*
X101457000Y-83883500D01*
X96012000Y-92395000D02*
X96139000Y-92522000D01*
X105898000Y-90932000D02*
X105898000Y-88161500D01*
X105898000Y-88161500D02*
X105283000Y-87546500D01*
X105648000Y-90932000D02*
X106908600Y-92329000D01*
X111414600Y-96835000D02*
X113157000Y-96835000D01*
X111404400Y-96824800D02*
X111414600Y-96835000D01*
X105013000Y-87566500D02*
X105283000Y-87296500D01*
X105140000Y-87439500D02*
X105283000Y-87296500D01*
X108160500Y-87630000D02*
X107950000Y-87630000D01*
X107950000Y-87630000D02*
X106870500Y-86550500D01*
X106870500Y-86550500D02*
X106870500Y-85534500D01*
X106870500Y-85534500D02*
X106382500Y-85046500D01*
X106382500Y-85046500D02*
X105283000Y-85046500D01*
X108444500Y-87646000D02*
X108460500Y-87630000D01*
X108460500Y-87630000D02*
X108460500Y-85518500D01*
X108460500Y-85518500D02*
X108410500Y-85468500D01*
X105238000Y-85341500D02*
X105283000Y-85296500D01*
X108505500Y-87675000D02*
X108460500Y-87630000D01*
X97536000Y-95758000D02*
X97536000Y-115697000D01*
X94742000Y-125583000D02*
X92329000Y-125583000D01*
D27*
X105156000Y-145796000D02*
X105156000Y-147066000D01*
X105156000Y-147066000D02*
X102870000Y-149352000D01*
X102870000Y-149352000D02*
X102870000Y-150661000D01*
X105156000Y-142367000D02*
X109855000Y-142367000D01*
D28*
X114747000Y-143195000D02*
X114747000Y-144542000D01*
X113919000Y-142367000D02*
X114747000Y-143195000D01*
X113157000Y-142367000D02*
X113919000Y-142367000D01*
D27*
X105156000Y-137414000D02*
X105283000Y-137414000D01*
X105156000Y-145796000D02*
X105156000Y-142367000D01*
X105156000Y-142367000D02*
X105156000Y-137414000D01*
D28*
X97536000Y-79121000D02*
X96393000Y-79121000D01*
X95631000Y-78359000D02*
X95631000Y-77123000D01*
X96393000Y-79121000D02*
X95631000Y-78359000D01*
D27*
X100291000Y-147955000D02*
X97409000Y-147955000D01*
D28*
X94935000Y-141036000D02*
X92837000Y-141036000D01*
X95758000Y-141859000D02*
X94935000Y-141036000D01*
X95758000Y-146304000D02*
X95758000Y-141859000D01*
D27*
X97409000Y-147955000D02*
X95758000Y-146304000D01*
D28*
X99123500Y-122237500D02*
X99123500Y-125283000D01*
X99060000Y-125222000D02*
X99060000Y-125283000D01*
X99062500Y-125222000D02*
X99060000Y-125222000D01*
X99123500Y-125283000D02*
X99062500Y-125222000D01*
X105283000Y-137414000D02*
X105283000Y-137414000D01*
X105283000Y-137414000D02*
X105283000Y-125603000D01*
X105283000Y-125603000D02*
X104963000Y-125283000D01*
X99060000Y-125283000D02*
X104963000Y-125283000D01*
D27*
X100291000Y-147955000D02*
X102870000Y-150661000D01*
D28*
X94742000Y-125283000D02*
X99060000Y-125283000D01*
X97536000Y-115697000D02*
X96901000Y-116332000D01*
X96901000Y-116332000D02*
X96901000Y-120015000D01*
X96901000Y-120015000D02*
X99123500Y-122237500D01*
X93789500Y-130302000D02*
X92249500Y-130302000D01*
X92249500Y-130302000D02*
X92122500Y-130175000D01*
X113046000Y-130302000D02*
X111252000Y-130302000D01*
X89872500Y-130175000D02*
X89872500Y-120249000D01*
X89872500Y-120249000D02*
X89916000Y-120205500D01*
X90122500Y-130175000D02*
X90122500Y-132987500D01*
X90122500Y-132987500D02*
X90170000Y-133035000D01*
X92329000Y-123383000D02*
X92329000Y-122618500D01*
X92329000Y-122618500D02*
X90170000Y-120459500D01*
X89344500Y-119634000D02*
X88011000Y-119634000D01*
X90170000Y-120459500D02*
X89916000Y-120205500D01*
X89916000Y-120205500D02*
X89344500Y-119634000D01*
X88011000Y-112776000D02*
X88011000Y-119634000D01*
X90535000Y-110252000D02*
X88011000Y-112776000D01*
X90871000Y-110252000D02*
X90535000Y-110252000D01*
X94742000Y-123383000D02*
X94742000Y-122555000D01*
X90678000Y-118491000D02*
X89027000Y-118491000D01*
X94742000Y-122555000D02*
X90678000Y-118491000D01*
X89027000Y-113919000D02*
X89027000Y-118491000D01*
X90694000Y-112252000D02*
X89027000Y-113919000D01*
X91821000Y-112252000D02*
X90694000Y-112252000D01*
X91821000Y-112252000D02*
X94853000Y-112252000D01*
X107077000Y-105013000D02*
X108839000Y-105013000D01*
X99822000Y-112268000D02*
X107077000Y-105013000D01*
X94853000Y-112252000D02*
X94869000Y-112268000D01*
X95250000Y-84181000D02*
X96309500Y-84181000D01*
X98425000Y-86296500D02*
X99507000Y-86296500D01*
X96309500Y-84181000D02*
X98425000Y-86296500D01*
X99507000Y-86296500D02*
X99507000Y-86235500D01*
X89789000Y-103779000D02*
X95925000Y-103779000D01*
X95925000Y-103779000D02*
X96012000Y-103866000D01*
X96012000Y-107063500D02*
X96012000Y-103616000D01*
X96012000Y-101366000D02*
X96012000Y-98044000D01*
X96012000Y-98044000D02*
X94932500Y-96964500D01*
X93488000Y-90675500D02*
X93488000Y-95520000D01*
X93488000Y-95520000D02*
X94932500Y-96964500D01*
X108410500Y-83568500D02*
X107889000Y-83568500D01*
X107315000Y-82994500D02*
X107315000Y-79502000D01*
X107889000Y-83568500D02*
X107315000Y-82994500D01*
X115296000Y-127000000D02*
X115296000Y-120354000D01*
X115296000Y-120354000D02*
X113434000Y-118492000D01*
X115296000Y-127000000D02*
X116459000Y-127000000D01*
X116459000Y-127000000D02*
X117475000Y-128016000D01*
X90170000Y-135235000D02*
X93682500Y-135235000D01*
X93682500Y-135235000D02*
X95250000Y-133667500D01*
X116649500Y-140147000D02*
X116649500Y-139128500D01*
X115697000Y-127000000D02*
X114996000Y-127000000D01*
X117475000Y-138303000D02*
X117475000Y-128016000D01*
X116649500Y-139128500D02*
X117475000Y-138303000D01*
X93488000Y-88775500D02*
X89664500Y-88775500D01*
X89664500Y-88775500D02*
X89154000Y-88265000D01*
X113093500Y-83439000D02*
X113093500Y-81724500D01*
X113093500Y-81724500D02*
X110871000Y-79502000D01*
X92519500Y-83058000D02*
X92519500Y-80137000D01*
X93538000Y-84076500D02*
X93538000Y-86487000D01*
X92519500Y-83058000D02*
X93538000Y-84076500D01*
X89474000Y-88585000D02*
X89154000Y-88265000D01*
X114554000Y-112268000D02*
X116586000Y-112268000D01*
X116586000Y-112268000D02*
X116586000Y-112141000D01*
X100584000Y-113919000D02*
X100584000Y-113601500D01*
X101917500Y-112268000D02*
X107188000Y-112268000D01*
X100584000Y-113601500D02*
X101917500Y-112268000D01*
X97536000Y-122809000D02*
X92306000Y-117579000D01*
X97536000Y-123952000D02*
X97536000Y-122809000D01*
X95250000Y-129032000D02*
X97536000Y-126746000D01*
X95250000Y-133667500D02*
X95250000Y-129032000D01*
X92306000Y-117579000D02*
X92306000Y-115696000D01*
X114996000Y-127000000D02*
X114996000Y-127442000D01*
X90106500Y-138051500D02*
X90170000Y-134935000D01*
X96012000Y-114046000D02*
X96012000Y-108963500D01*
X92456000Y-115546000D02*
X96012000Y-114046000D01*
X92456000Y-115546000D02*
X92306000Y-115696000D01*
X92306000Y-115696000D02*
X92306000Y-113942000D01*
X92519500Y-80137000D02*
X102108000Y-80137000D01*
X102108000Y-80137000D02*
X103886000Y-78740000D01*
X93488000Y-88775500D02*
X93488000Y-86537000D01*
X93488000Y-86537000D02*
X93538000Y-86487000D01*
X113093500Y-93345000D02*
X116586000Y-93345000D01*
X113434000Y-118492000D02*
X113434000Y-117325000D01*
X113434000Y-117325000D02*
X116586000Y-114173000D01*
X116586000Y-114173000D02*
X116586000Y-112141000D01*
X116586000Y-112141000D02*
X116586000Y-93345000D01*
X113157000Y-94935000D02*
X113154500Y-93406000D01*
X113154500Y-93406000D02*
X113093500Y-93345000D01*
X110871000Y-79502000D02*
X110871000Y-80264000D01*
X103886000Y-78740000D02*
X103886000Y-80264000D01*
X93422000Y-88709500D02*
X93488000Y-88775500D01*
X110871000Y-79502000D02*
X107315000Y-79502000D01*
X107315000Y-79502000D02*
X104648000Y-79502000D01*
X104648000Y-79502000D02*
X103886000Y-78740000D01*
X113030000Y-94808000D02*
X113157000Y-94935000D01*
X95631000Y-75023000D02*
X95631000Y-73533000D01*
X96424000Y-72740000D02*
X103886000Y-72740000D01*
X95631000Y-73533000D02*
X96424000Y-72740000D01*
X102870000Y-145161000D02*
X102870000Y-144780000D01*
D27*
X102870000Y-144780000D02*
X100584000Y-142359529D01*
X100584000Y-142359529D02*
X100584000Y-138176000D01*
X100584000Y-138176000D02*
X99441000Y-137033000D01*
X99441000Y-137033000D02*
X98425000Y-137033000D01*
X98425000Y-137033000D02*
X97028000Y-135636000D01*
D28*
X97028000Y-135636000D02*
X97028000Y-131064000D01*
X97028000Y-131064000D02*
X100330000Y-127762000D01*
X100330000Y-127762000D02*
X100330000Y-126746000D01*
X100330000Y-121539000D02*
X100434000Y-121435000D01*
X100434000Y-121435000D02*
X100434000Y-118492000D01*
X102870000Y-139661000D02*
X102870000Y-137795000D01*
X102870000Y-137795000D02*
X103886000Y-136779000D01*
X103886000Y-136779000D02*
X103886000Y-126619000D01*
X103886000Y-122555000D02*
X103886000Y-121285000D01*
X103886000Y-121285000D02*
X105306000Y-119865000D01*
X105306000Y-119865000D02*
X105306000Y-115696000D01*
X95488000Y-89725500D02*
X96812100Y-89725500D01*
X96812100Y-89725500D02*
X97703600Y-90617000D01*
X101407000Y-90617000D02*
X97703600Y-90617000D01*
X101407000Y-90617000D02*
X101407000Y-88900000D01*
X101407000Y-88900000D02*
X101407000Y-86296500D01*
X101407000Y-88900000D02*
X101407000Y-88889800D01*
X101280000Y-86423500D02*
X101407000Y-86296500D01*
X95488000Y-89725500D02*
X95631000Y-89725500D01*
X101407000Y-88900000D02*
X101407000Y-88453000D01*
X99507000Y-88900000D02*
X98742500Y-88900000D01*
X96329500Y-86487000D02*
X95438000Y-86487000D01*
X98742500Y-88900000D02*
X96329500Y-86487000D01*
X99507000Y-88900000D02*
X99507000Y-89027000D01*
D29*
X98270000Y-145161000D02*
X98270000Y-139661000D01*
D28*
X116647000Y-144542000D02*
X116647000Y-142049500D01*
X116647000Y-142049500D02*
X116649500Y-142047000D01*
X115046000Y-130302000D02*
X115951000Y-130302000D01*
X115951000Y-130302000D02*
X116586000Y-130937000D01*
X116586000Y-130937000D02*
X116586000Y-137541000D01*
X116586000Y-137541000D02*
X114808000Y-139319000D01*
X114808000Y-139319000D02*
X114808000Y-141097000D01*
X114808000Y-141097000D02*
X115758000Y-142047000D01*
X115758000Y-142047000D02*
X116649500Y-142047000D01*
X114869000Y-130125000D02*
X115046000Y-130302000D01*
X116583500Y-142113000D02*
X116649500Y-142047000D01*
X108597700Y-160614400D02*
X108597700Y-162966400D01*
X105041700Y-166522400D02*
X102882700Y-166522400D01*
X108597700Y-162966400D02*
X105041700Y-166522400D01*
D27*
X110871000Y-145669000D02*
X110871000Y-145796000D01*
X110871000Y-145796000D02*
X107470000Y-149197000D01*
D28*
X108839000Y-119253000D02*
X109855000Y-118237000D01*
X108839000Y-136144000D02*
X108839000Y-119253000D01*
X109855000Y-118237000D02*
X109855000Y-109601000D01*
X102108000Y-101854000D02*
X101346000Y-101092000D01*
X101346000Y-101092000D02*
X101346000Y-99314000D01*
X107470000Y-150661000D02*
X107470000Y-148943000D01*
X110871000Y-145669000D02*
X110871000Y-138176000D01*
X110871000Y-138176000D02*
X108839000Y-136144000D01*
X114935000Y-85725000D02*
X116586000Y-85725000D01*
X101346000Y-99314000D02*
X114935000Y-85725000D01*
X102882700Y-169062400D02*
X102247700Y-169062400D01*
X102247700Y-169062400D02*
X95516700Y-162331400D01*
X95516700Y-162331400D02*
X95516700Y-160426400D01*
X95516700Y-160426400D02*
X94119700Y-159029400D01*
X94119700Y-159029400D02*
X90436700Y-159029400D01*
X90436700Y-159029400D02*
X89166700Y-160553400D01*
X89166700Y-160553400D02*
X89166700Y-161061400D01*
X99250500Y-81931000D02*
X99250500Y-83840000D01*
X99250500Y-83840000D02*
X99207000Y-83883500D01*
X108305600Y-81940400D02*
X109943900Y-81940400D01*
X110410500Y-82407000D02*
X110410500Y-84518500D01*
X109943900Y-81940400D02*
X110410500Y-82407000D01*
X95250000Y-81931000D02*
X99250500Y-81931000D01*
X99250500Y-81931000D02*
X100990400Y-81931000D01*
X100990400Y-81931000D02*
X106086400Y-81931000D01*
X106086400Y-81931000D02*
X106095800Y-81940400D01*
X89154000Y-85725000D02*
X89154000Y-83134200D01*
X93456000Y-81931000D02*
X95250000Y-81931000D01*
X93446600Y-81940400D02*
X93456000Y-81931000D01*
X90347800Y-81940400D02*
X91516200Y-81940400D01*
X89154000Y-83134200D02*
X90347800Y-81940400D01*
X110410500Y-84518500D02*
X110410500Y-87580000D01*
X110410500Y-87580000D02*
X110360500Y-87630000D01*
X110614500Y-84722500D02*
X110410500Y-84518500D01*
X99568000Y-83772500D02*
X99457000Y-83883500D01*
X108648500Y-117792500D02*
X108648500Y-108267500D01*
X108648500Y-108267500D02*
X110617000Y-106299000D01*
X108712000Y-96266000D02*
X108712000Y-95504000D01*
X110617000Y-106299000D02*
X110617000Y-98171000D01*
X110617000Y-98171000D02*
X108712000Y-96266000D01*
X108712000Y-95504000D02*
X113411000Y-90805000D01*
X107597000Y-118844000D02*
X108648500Y-117792500D01*
X113411000Y-90805000D02*
X116586000Y-90805000D01*
X107470000Y-139661000D02*
X107597000Y-118844000D01*
X108839000Y-103013000D02*
X108839000Y-98298000D01*
X114046000Y-88265000D02*
X116586000Y-88265000D01*
X107442000Y-94869000D02*
X114046000Y-88265000D01*
X107442000Y-96901000D02*
X107442000Y-94869000D01*
X108839000Y-98298000D02*
X107442000Y-96901000D01*
X96139000Y-94422000D02*
X94549000Y-94422000D01*
X91846400Y-93345000D02*
X89154000Y-93345000D01*
X91871800Y-93370400D02*
X91846400Y-93345000D01*
X94549000Y-94422000D02*
X94538800Y-94411800D01*
X96202500Y-94485500D02*
X96139000Y-94422000D01*
X89154000Y-93345000D02*
X89154000Y-90805000D01*
X89281000Y-93472000D02*
X89154000Y-93345000D01*
X92771000Y-110252000D02*
X92771000Y-107503000D01*
X91247000Y-105979000D02*
X89789000Y-105979000D01*
X92771000Y-107503000D02*
X91247000Y-105979000D01*
X89166700Y-168681400D02*
X90944700Y-168681400D01*
X91579700Y-169316400D02*
X94326700Y-169316400D01*
X90944700Y-168681400D02*
X91579700Y-169316400D01*
X89166700Y-166141400D02*
X90309700Y-166141400D01*
X96826700Y-167959400D02*
X96826700Y-169316400D01*
X96151700Y-167284400D02*
X96826700Y-167959400D01*
X91452700Y-167284400D02*
X96151700Y-167284400D01*
X90309700Y-166141400D02*
X91452700Y-167284400D01*
X89166700Y-163601400D02*
X89801700Y-163601400D01*
X89801700Y-163601400D02*
X91579700Y-165633400D01*
X91579700Y-165633400D02*
X97548700Y-165633400D01*
X97548700Y-165633400D02*
X99326700Y-167411400D01*
X99326700Y-167411400D02*
X99326700Y-169316400D01*
X106391700Y-169316400D02*
X106391700Y-170920400D01*
X116598700Y-170776900D02*
X116598700Y-168681400D01*
X115582700Y-171792900D02*
X116598700Y-170776900D01*
X107264200Y-171792900D02*
X115582700Y-171792900D01*
X106391700Y-170920400D02*
X107264200Y-171792900D01*
X116598700Y-168681400D02*
X116598700Y-169062400D01*
X109486700Y-170967400D02*
X112661700Y-170967400D01*
X116598700Y-166141400D02*
X115709700Y-166141400D01*
X113550700Y-170078400D02*
X112661700Y-170967400D01*
X113550700Y-168300400D02*
X113550700Y-170078400D01*
X115709700Y-166141400D02*
X113550700Y-168300400D01*
X108891700Y-170372400D02*
X108891700Y-169316400D01*
X109486700Y-170967400D02*
X108891700Y-170372400D01*
X116598700Y-163601400D02*
X115836700Y-163601400D01*
X115836700Y-163601400D02*
X113931700Y-165760400D01*
X113931700Y-165760400D02*
X112153700Y-165760400D01*
X112153700Y-165760400D02*
X111391700Y-166522400D01*
X111391700Y-166522400D02*
X111391700Y-169316400D01*
X108597700Y-158714400D02*
X114505700Y-158714400D01*
X114505700Y-158714400D02*
X116598700Y-161061400D01*
X116598700Y-161061400D02*
X116598700Y-160807400D01*
M02*
