G04 #@! TF.FileFunction,Legend,Bot*
%FSLAX46Y46*%
G04 Gerber Fmt 4.6, Leading zero omitted, Abs format (unit mm)*
G04 Created by KiCad (PCBNEW 4.0.6) date 01/08/18 00:35:12*
%MOMM*%
%LPD*%
G01*
G04 APERTURE LIST*
%ADD10C,0.100000*%
%ADD11C,0.150000*%
%ADD12C,0.120000*%
%ADD13C,2.400000*%
%ADD14C,3.400000*%
%ADD15R,2.400000X2.400000*%
%ADD16R,1.300000X1.200000*%
%ADD17O,5.400000X4.400000*%
%ADD18C,2.899360*%
%ADD19R,0.850000X1.000000*%
%ADD20R,1.200000X1.300000*%
%ADD21O,3.900000X4.400000*%
%ADD22R,3.900000X3.900000*%
%ADD23R,2.100000X2.100000*%
%ADD24O,2.100000X2.100000*%
%ADD25R,1.650000X1.900000*%
%ADD26R,1.900000X1.650000*%
%ADD27C,1.000000*%
G04 APERTURE END LIST*
D10*
D11*
X87376000Y-148336000D02*
X87376000Y-77216000D01*
X111379000Y-155321000D02*
X94361000Y-155321000D01*
X118364000Y-77216000D02*
X118364000Y-148336000D01*
X111252000Y-70231000D02*
X94361000Y-70231000D01*
X87388700Y-156108400D02*
X87388700Y-172491400D01*
X118376700Y-172491400D02*
X118376700Y-156108400D01*
X118376700Y-172491400D02*
X87388700Y-172491400D01*
X87388700Y-156108400D02*
X118376700Y-156108400D01*
X118364000Y-148336000D02*
X118364000Y-148209000D01*
X111379000Y-148336000D02*
X118364000Y-148336000D01*
X111379000Y-155321000D02*
X111379000Y-148336000D01*
X94361000Y-148336000D02*
X94361000Y-155321000D01*
X87376000Y-148336000D02*
X94361000Y-148336000D01*
X94361000Y-77216000D02*
X87376000Y-77216000D01*
X94361000Y-70231000D02*
X94361000Y-77216000D01*
X111252000Y-77216000D02*
X111252000Y-70231000D01*
X118364000Y-77216000D02*
X111252000Y-77216000D01*
D12*
X95248000Y-88145500D02*
X95248000Y-89075500D01*
X95248000Y-91305500D02*
X95248000Y-90375500D01*
X95248000Y-91305500D02*
X93088000Y-91305500D01*
X95248000Y-88145500D02*
X93788000Y-88145500D01*
X96481000Y-77573000D02*
X94781000Y-77573000D01*
X94781000Y-77573000D02*
X94781000Y-75023000D01*
X96481000Y-77573000D02*
X96481000Y-75023000D01*
X117277000Y-146302000D02*
X116347000Y-146302000D01*
X114117000Y-146302000D02*
X115047000Y-146302000D01*
X114117000Y-146302000D02*
X114117000Y-144142000D01*
X117277000Y-146302000D02*
X117277000Y-144842000D01*
X110170500Y-82938500D02*
X110170500Y-83868500D01*
X110170500Y-86098500D02*
X110170500Y-85168500D01*
X110170500Y-86098500D02*
X108010500Y-86098500D01*
X110170500Y-82938500D02*
X108710500Y-82938500D01*
X93401000Y-112012000D02*
X92471000Y-112012000D01*
X90241000Y-112012000D02*
X91171000Y-112012000D01*
X90241000Y-112012000D02*
X90241000Y-109852000D01*
X93401000Y-112012000D02*
X93401000Y-110552000D01*
X89320000Y-144518000D02*
X89320000Y-143518000D01*
X91020000Y-143518000D02*
X91020000Y-144518000D01*
X105148000Y-91782000D02*
X104148000Y-91782000D01*
X104148000Y-90082000D02*
X105148000Y-90082000D01*
X100957000Y-84733500D02*
X99957000Y-84733500D01*
X99957000Y-83033500D02*
X100957000Y-83033500D01*
X106133000Y-85796500D02*
X106133000Y-86796500D01*
X104433000Y-86796500D02*
X104433000Y-85796500D01*
X113546000Y-129452000D02*
X114546000Y-129452000D01*
X114546000Y-131152000D02*
X113546000Y-131152000D01*
X91622500Y-131025000D02*
X90622500Y-131025000D01*
X90622500Y-129325000D02*
X91622500Y-129325000D01*
X107989000Y-104513000D02*
X107989000Y-103513000D01*
X109689000Y-103513000D02*
X109689000Y-104513000D01*
X96100000Y-82431000D02*
X96100000Y-83431000D01*
X94400000Y-83431000D02*
X94400000Y-82431000D01*
X96862000Y-102116000D02*
X96862000Y-103116000D01*
X95162000Y-103116000D02*
X95162000Y-102116000D01*
X113546000Y-126150000D02*
X114546000Y-126150000D01*
X114546000Y-127850000D02*
X113546000Y-127850000D01*
X93687000Y-141486000D02*
X93687000Y-142486000D01*
X91987000Y-142486000D02*
X91987000Y-141486000D01*
X89256500Y-139501500D02*
X89256500Y-138501500D01*
X90956500Y-138501500D02*
X90956500Y-139501500D01*
X112307000Y-96385000D02*
X112307000Y-95385000D01*
X114007000Y-95385000D02*
X114007000Y-96385000D01*
X117499500Y-140597000D02*
X117499500Y-141597000D01*
X115799500Y-141597000D02*
X115799500Y-140597000D01*
X109910500Y-88480000D02*
X108910500Y-88480000D01*
X108910500Y-86780000D02*
X109910500Y-86780000D01*
X93179000Y-123833000D02*
X93179000Y-124833000D01*
X91479000Y-124833000D02*
X91479000Y-123833000D01*
X89320000Y-134485000D02*
X89320000Y-133485000D01*
X91020000Y-133485000D02*
X91020000Y-134485000D01*
X109447700Y-159164400D02*
X109447700Y-160164400D01*
X107747700Y-160164400D02*
X107747700Y-159164400D01*
X95592000Y-123833000D02*
X95592000Y-124833000D01*
X93892000Y-124833000D02*
X93892000Y-123833000D01*
X88939000Y-105529000D02*
X88939000Y-104529000D01*
X90639000Y-104529000D02*
X90639000Y-105529000D01*
X96862000Y-107513500D02*
X96862000Y-108513500D01*
X95162000Y-108513500D02*
X95162000Y-107513500D01*
X94988000Y-87337000D02*
X93988000Y-87337000D01*
X93988000Y-85637000D02*
X94988000Y-85637000D01*
X100957000Y-87146500D02*
X99957000Y-87146500D01*
X99957000Y-85446500D02*
X100957000Y-85446500D01*
X99957000Y-88050000D02*
X100957000Y-88050000D01*
X100957000Y-89750000D02*
X99957000Y-89750000D01*
X95289000Y-93972000D02*
X95289000Y-92972000D01*
X96989000Y-92972000D02*
X96989000Y-93972000D01*
D11*
X98202571Y-157551381D02*
X98535905Y-157075190D01*
X98774000Y-157551381D02*
X98774000Y-156551381D01*
X98393047Y-156551381D01*
X98297809Y-156599000D01*
X98250190Y-156646619D01*
X98202571Y-156741857D01*
X98202571Y-156884714D01*
X98250190Y-156979952D01*
X98297809Y-157027571D01*
X98393047Y-157075190D01*
X98774000Y-157075190D01*
X97821619Y-157265667D02*
X97345428Y-157265667D01*
X97916857Y-157551381D02*
X97583524Y-156551381D01*
X97250190Y-157551381D01*
X97059714Y-156551381D02*
X96488285Y-156551381D01*
X96774000Y-157551381D02*
X96774000Y-156551381D01*
X96154952Y-157027571D02*
X95821618Y-157027571D01*
X95678761Y-157551381D02*
X96154952Y-157551381D01*
X96154952Y-156551381D01*
X95678761Y-156551381D01*
X94726380Y-157551381D02*
X95297809Y-157551381D01*
X95012095Y-157551381D02*
X95012095Y-156551381D01*
X95107333Y-156694238D01*
X95202571Y-156789476D01*
X95297809Y-156837095D01*
X110958095Y-156551381D02*
X110624762Y-157551381D01*
X110291428Y-156551381D01*
X109767619Y-156551381D02*
X109577142Y-156551381D01*
X109481904Y-156599000D01*
X109386666Y-156694238D01*
X109339047Y-156884714D01*
X109339047Y-157218048D01*
X109386666Y-157408524D01*
X109481904Y-157503762D01*
X109577142Y-157551381D01*
X109767619Y-157551381D01*
X109862857Y-157503762D01*
X109958095Y-157408524D01*
X110005714Y-157218048D01*
X110005714Y-156884714D01*
X109958095Y-156694238D01*
X109862857Y-156599000D01*
X109767619Y-156551381D01*
X108434285Y-157551381D02*
X108910476Y-157551381D01*
X108910476Y-156551381D01*
X107577142Y-157551381D02*
X108148571Y-157551381D01*
X107862857Y-157551381D02*
X107862857Y-156551381D01*
X107958095Y-156694238D01*
X108053333Y-156789476D01*
X108148571Y-156837095D01*
X92622619Y-90138262D02*
X92575000Y-90043024D01*
X92479762Y-89947786D01*
X92336905Y-89804929D01*
X92289286Y-89709690D01*
X92289286Y-89614452D01*
X92527381Y-89662071D02*
X92479762Y-89566833D01*
X92384524Y-89471595D01*
X92194048Y-89423976D01*
X91860714Y-89423976D01*
X91670238Y-89471595D01*
X91575000Y-89566833D01*
X91527381Y-89662071D01*
X91527381Y-89852548D01*
X91575000Y-89947786D01*
X91670238Y-90043024D01*
X91860714Y-90090643D01*
X92194048Y-90090643D01*
X92384524Y-90043024D01*
X92479762Y-89947786D01*
X92527381Y-89852548D01*
X92527381Y-89662071D01*
X91860714Y-90947786D02*
X92527381Y-90947786D01*
X91479762Y-90709690D02*
X92194048Y-90471595D01*
X92194048Y-91090643D01*
X94762581Y-77773305D02*
X93762581Y-77773305D01*
X93762581Y-78011400D01*
X93810200Y-78154258D01*
X93905438Y-78249496D01*
X94000676Y-78297115D01*
X94191152Y-78344734D01*
X94334010Y-78344734D01*
X94524486Y-78297115D01*
X94619724Y-78249496D01*
X94714962Y-78154258D01*
X94762581Y-78011400D01*
X94762581Y-77773305D01*
X93857819Y-78725686D02*
X93810200Y-78773305D01*
X93762581Y-78868543D01*
X93762581Y-79106639D01*
X93810200Y-79201877D01*
X93857819Y-79249496D01*
X93953057Y-79297115D01*
X94048295Y-79297115D01*
X94191152Y-79249496D01*
X94762581Y-78678067D01*
X94762581Y-79297115D01*
X113857019Y-144989562D02*
X113809400Y-144894324D01*
X113714162Y-144799086D01*
X113571305Y-144656229D01*
X113523686Y-144560990D01*
X113523686Y-144465752D01*
X113761781Y-144513371D02*
X113714162Y-144418133D01*
X113618924Y-144322895D01*
X113428448Y-144275276D01*
X113095114Y-144275276D01*
X112904638Y-144322895D01*
X112809400Y-144418133D01*
X112761781Y-144513371D01*
X112761781Y-144703848D01*
X112809400Y-144799086D01*
X112904638Y-144894324D01*
X113095114Y-144941943D01*
X113428448Y-144941943D01*
X113618924Y-144894324D01*
X113714162Y-144799086D01*
X113761781Y-144703848D01*
X113761781Y-144513371D01*
X113761781Y-145894324D02*
X113761781Y-145322895D01*
X113761781Y-145608609D02*
X112761781Y-145608609D01*
X112904638Y-145513371D01*
X112999876Y-145418133D01*
X113047495Y-145322895D01*
X112147338Y-85116919D02*
X112242576Y-85069300D01*
X112337814Y-84974062D01*
X112480671Y-84831205D01*
X112575910Y-84783586D01*
X112671148Y-84783586D01*
X112623529Y-85021681D02*
X112718767Y-84974062D01*
X112814005Y-84878824D01*
X112861624Y-84688348D01*
X112861624Y-84355014D01*
X112814005Y-84164538D01*
X112718767Y-84069300D01*
X112623529Y-84021681D01*
X112433052Y-84021681D01*
X112337814Y-84069300D01*
X112242576Y-84164538D01*
X112194957Y-84355014D01*
X112194957Y-84688348D01*
X112242576Y-84878824D01*
X112337814Y-84974062D01*
X112433052Y-85021681D01*
X112623529Y-85021681D01*
X111814005Y-84116919D02*
X111766386Y-84069300D01*
X111671148Y-84021681D01*
X111433052Y-84021681D01*
X111337814Y-84069300D01*
X111290195Y-84116919D01*
X111242576Y-84212157D01*
X111242576Y-84307395D01*
X111290195Y-84450252D01*
X111861624Y-85021681D01*
X111242576Y-85021681D01*
X94807019Y-110699562D02*
X94759400Y-110604324D01*
X94664162Y-110509086D01*
X94521305Y-110366229D01*
X94473686Y-110270990D01*
X94473686Y-110175752D01*
X94711781Y-110223371D02*
X94664162Y-110128133D01*
X94568924Y-110032895D01*
X94378448Y-109985276D01*
X94045114Y-109985276D01*
X93854638Y-110032895D01*
X93759400Y-110128133D01*
X93711781Y-110223371D01*
X93711781Y-110413848D01*
X93759400Y-110509086D01*
X93854638Y-110604324D01*
X94045114Y-110651943D01*
X94378448Y-110651943D01*
X94568924Y-110604324D01*
X94664162Y-110509086D01*
X94711781Y-110413848D01*
X94711781Y-110223371D01*
X93711781Y-110985276D02*
X93711781Y-111604324D01*
X94092733Y-111270990D01*
X94092733Y-111413848D01*
X94140352Y-111509086D01*
X94187971Y-111556705D01*
X94283210Y-111604324D01*
X94521305Y-111604324D01*
X94616543Y-111556705D01*
X94664162Y-111509086D01*
X94711781Y-111413848D01*
X94711781Y-111128133D01*
X94664162Y-111032895D01*
X94616543Y-110985276D01*
X88777143Y-143851334D02*
X88824762Y-143803715D01*
X88872381Y-143660858D01*
X88872381Y-143565620D01*
X88824762Y-143422762D01*
X88729524Y-143327524D01*
X88634286Y-143279905D01*
X88443810Y-143232286D01*
X88300952Y-143232286D01*
X88110476Y-143279905D01*
X88015238Y-143327524D01*
X87920000Y-143422762D01*
X87872381Y-143565620D01*
X87872381Y-143660858D01*
X87920000Y-143803715D01*
X87967619Y-143851334D01*
X88872381Y-144803715D02*
X88872381Y-144232286D01*
X88872381Y-144518000D02*
X87872381Y-144518000D01*
X88015238Y-144422762D01*
X88110476Y-144327524D01*
X88158095Y-144232286D01*
X104814666Y-93039143D02*
X104862285Y-93086762D01*
X105005142Y-93134381D01*
X105100380Y-93134381D01*
X105243238Y-93086762D01*
X105338476Y-92991524D01*
X105386095Y-92896286D01*
X105433714Y-92705810D01*
X105433714Y-92562952D01*
X105386095Y-92372476D01*
X105338476Y-92277238D01*
X105243238Y-92182000D01*
X105100380Y-92134381D01*
X105005142Y-92134381D01*
X104862285Y-92182000D01*
X104814666Y-92229619D01*
X104433714Y-92229619D02*
X104386095Y-92182000D01*
X104290857Y-92134381D01*
X104052761Y-92134381D01*
X103957523Y-92182000D01*
X103909904Y-92229619D01*
X103862285Y-92324857D01*
X103862285Y-92420095D01*
X103909904Y-92562952D01*
X104481333Y-93134381D01*
X103862285Y-93134381D01*
X100623666Y-85990643D02*
X100671285Y-86038262D01*
X100814142Y-86085881D01*
X100909380Y-86085881D01*
X101052238Y-86038262D01*
X101147476Y-85943024D01*
X101195095Y-85847786D01*
X101242714Y-85657310D01*
X101242714Y-85514452D01*
X101195095Y-85323976D01*
X101147476Y-85228738D01*
X101052238Y-85133500D01*
X100909380Y-85085881D01*
X100814142Y-85085881D01*
X100671285Y-85133500D01*
X100623666Y-85181119D01*
X100290333Y-85085881D02*
X99671285Y-85085881D01*
X100004619Y-85466833D01*
X99861761Y-85466833D01*
X99766523Y-85514452D01*
X99718904Y-85562071D01*
X99671285Y-85657310D01*
X99671285Y-85895405D01*
X99718904Y-85990643D01*
X99766523Y-86038262D01*
X99861761Y-86085881D01*
X100147476Y-86085881D01*
X100242714Y-86038262D01*
X100290333Y-85990643D01*
X107390143Y-86129834D02*
X107437762Y-86082215D01*
X107485381Y-85939358D01*
X107485381Y-85844120D01*
X107437762Y-85701262D01*
X107342524Y-85606024D01*
X107247286Y-85558405D01*
X107056810Y-85510786D01*
X106913952Y-85510786D01*
X106723476Y-85558405D01*
X106628238Y-85606024D01*
X106533000Y-85701262D01*
X106485381Y-85844120D01*
X106485381Y-85939358D01*
X106533000Y-86082215D01*
X106580619Y-86129834D01*
X106818714Y-86986977D02*
X107485381Y-86986977D01*
X106437762Y-86748881D02*
X107152048Y-86510786D01*
X107152048Y-87129834D01*
X114212666Y-128909143D02*
X114260285Y-128956762D01*
X114403142Y-129004381D01*
X114498380Y-129004381D01*
X114641238Y-128956762D01*
X114736476Y-128861524D01*
X114784095Y-128766286D01*
X114831714Y-128575810D01*
X114831714Y-128432952D01*
X114784095Y-128242476D01*
X114736476Y-128147238D01*
X114641238Y-128052000D01*
X114498380Y-128004381D01*
X114403142Y-128004381D01*
X114260285Y-128052000D01*
X114212666Y-128099619D01*
X113307904Y-128004381D02*
X113784095Y-128004381D01*
X113831714Y-128480571D01*
X113784095Y-128432952D01*
X113688857Y-128385333D01*
X113450761Y-128385333D01*
X113355523Y-128432952D01*
X113307904Y-128480571D01*
X113260285Y-128575810D01*
X113260285Y-128813905D01*
X113307904Y-128909143D01*
X113355523Y-128956762D01*
X113450761Y-129004381D01*
X113688857Y-129004381D01*
X113784095Y-128956762D01*
X113831714Y-128909143D01*
X91289166Y-132282143D02*
X91336785Y-132329762D01*
X91479642Y-132377381D01*
X91574880Y-132377381D01*
X91717738Y-132329762D01*
X91812976Y-132234524D01*
X91860595Y-132139286D01*
X91908214Y-131948810D01*
X91908214Y-131805952D01*
X91860595Y-131615476D01*
X91812976Y-131520238D01*
X91717738Y-131425000D01*
X91574880Y-131377381D01*
X91479642Y-131377381D01*
X91336785Y-131425000D01*
X91289166Y-131472619D01*
X90432023Y-131377381D02*
X90622500Y-131377381D01*
X90717738Y-131425000D01*
X90765357Y-131472619D01*
X90860595Y-131615476D01*
X90908214Y-131805952D01*
X90908214Y-132186905D01*
X90860595Y-132282143D01*
X90812976Y-132329762D01*
X90717738Y-132377381D01*
X90527261Y-132377381D01*
X90432023Y-132329762D01*
X90384404Y-132282143D01*
X90336785Y-132186905D01*
X90336785Y-131948810D01*
X90384404Y-131853571D01*
X90432023Y-131805952D01*
X90527261Y-131758333D01*
X90717738Y-131758333D01*
X90812976Y-131805952D01*
X90860595Y-131853571D01*
X90908214Y-131948810D01*
X107446143Y-103846334D02*
X107493762Y-103798715D01*
X107541381Y-103655858D01*
X107541381Y-103560620D01*
X107493762Y-103417762D01*
X107398524Y-103322524D01*
X107303286Y-103274905D01*
X107112810Y-103227286D01*
X106969952Y-103227286D01*
X106779476Y-103274905D01*
X106684238Y-103322524D01*
X106589000Y-103417762D01*
X106541381Y-103560620D01*
X106541381Y-103655858D01*
X106589000Y-103798715D01*
X106636619Y-103846334D01*
X106541381Y-104179667D02*
X106541381Y-104846334D01*
X107541381Y-104417762D01*
X97357143Y-82764334D02*
X97404762Y-82716715D01*
X97452381Y-82573858D01*
X97452381Y-82478620D01*
X97404762Y-82335762D01*
X97309524Y-82240524D01*
X97214286Y-82192905D01*
X97023810Y-82145286D01*
X96880952Y-82145286D01*
X96690476Y-82192905D01*
X96595238Y-82240524D01*
X96500000Y-82335762D01*
X96452381Y-82478620D01*
X96452381Y-82573858D01*
X96500000Y-82716715D01*
X96547619Y-82764334D01*
X96880952Y-83335762D02*
X96833333Y-83240524D01*
X96785714Y-83192905D01*
X96690476Y-83145286D01*
X96642857Y-83145286D01*
X96547619Y-83192905D01*
X96500000Y-83240524D01*
X96452381Y-83335762D01*
X96452381Y-83526239D01*
X96500000Y-83621477D01*
X96547619Y-83669096D01*
X96642857Y-83716715D01*
X96690476Y-83716715D01*
X96785714Y-83669096D01*
X96833333Y-83621477D01*
X96880952Y-83526239D01*
X96880952Y-83335762D01*
X96928571Y-83240524D01*
X96976190Y-83192905D01*
X97071429Y-83145286D01*
X97261905Y-83145286D01*
X97357143Y-83192905D01*
X97404762Y-83240524D01*
X97452381Y-83335762D01*
X97452381Y-83526239D01*
X97404762Y-83621477D01*
X97357143Y-83669096D01*
X97261905Y-83716715D01*
X97071429Y-83716715D01*
X96976190Y-83669096D01*
X96928571Y-83621477D01*
X96880952Y-83526239D01*
X98119143Y-102449334D02*
X98166762Y-102401715D01*
X98214381Y-102258858D01*
X98214381Y-102163620D01*
X98166762Y-102020762D01*
X98071524Y-101925524D01*
X97976286Y-101877905D01*
X97785810Y-101830286D01*
X97642952Y-101830286D01*
X97452476Y-101877905D01*
X97357238Y-101925524D01*
X97262000Y-102020762D01*
X97214381Y-102163620D01*
X97214381Y-102258858D01*
X97262000Y-102401715D01*
X97309619Y-102449334D01*
X98214381Y-102925524D02*
X98214381Y-103116000D01*
X98166762Y-103211239D01*
X98119143Y-103258858D01*
X97976286Y-103354096D01*
X97785810Y-103401715D01*
X97404857Y-103401715D01*
X97309619Y-103354096D01*
X97262000Y-103306477D01*
X97214381Y-103211239D01*
X97214381Y-103020762D01*
X97262000Y-102925524D01*
X97309619Y-102877905D01*
X97404857Y-102830286D01*
X97642952Y-102830286D01*
X97738190Y-102877905D01*
X97785810Y-102925524D01*
X97833429Y-103020762D01*
X97833429Y-103211239D01*
X97785810Y-103306477D01*
X97738190Y-103354096D01*
X97642952Y-103401715D01*
X114212666Y-125702381D02*
X114546000Y-125226190D01*
X114784095Y-125702381D02*
X114784095Y-124702381D01*
X114403142Y-124702381D01*
X114307904Y-124750000D01*
X114260285Y-124797619D01*
X114212666Y-124892857D01*
X114212666Y-125035714D01*
X114260285Y-125130952D01*
X114307904Y-125178571D01*
X114403142Y-125226190D01*
X114784095Y-125226190D01*
X113260285Y-125702381D02*
X113831714Y-125702381D01*
X113546000Y-125702381D02*
X113546000Y-124702381D01*
X113641238Y-124845238D01*
X113736476Y-124940476D01*
X113831714Y-124988095D01*
X95039381Y-141819334D02*
X94563190Y-141486000D01*
X95039381Y-141247905D02*
X94039381Y-141247905D01*
X94039381Y-141628858D01*
X94087000Y-141724096D01*
X94134619Y-141771715D01*
X94229857Y-141819334D01*
X94372714Y-141819334D01*
X94467952Y-141771715D01*
X94515571Y-141724096D01*
X94563190Y-141628858D01*
X94563190Y-141247905D01*
X94134619Y-142200286D02*
X94087000Y-142247905D01*
X94039381Y-142343143D01*
X94039381Y-142581239D01*
X94087000Y-142676477D01*
X94134619Y-142724096D01*
X94229857Y-142771715D01*
X94325095Y-142771715D01*
X94467952Y-142724096D01*
X95039381Y-142152667D01*
X95039381Y-142771715D01*
X88808881Y-138834834D02*
X88332690Y-138501500D01*
X88808881Y-138263405D02*
X87808881Y-138263405D01*
X87808881Y-138644358D01*
X87856500Y-138739596D01*
X87904119Y-138787215D01*
X87999357Y-138834834D01*
X88142214Y-138834834D01*
X88237452Y-138787215D01*
X88285071Y-138739596D01*
X88332690Y-138644358D01*
X88332690Y-138263405D01*
X87808881Y-139168167D02*
X87808881Y-139787215D01*
X88189833Y-139453881D01*
X88189833Y-139596739D01*
X88237452Y-139691977D01*
X88285071Y-139739596D01*
X88380310Y-139787215D01*
X88618405Y-139787215D01*
X88713643Y-139739596D01*
X88761262Y-139691977D01*
X88808881Y-139596739D01*
X88808881Y-139311024D01*
X88761262Y-139215786D01*
X88713643Y-139168167D01*
X111859381Y-95718334D02*
X111383190Y-95385000D01*
X111859381Y-95146905D02*
X110859381Y-95146905D01*
X110859381Y-95527858D01*
X110907000Y-95623096D01*
X110954619Y-95670715D01*
X111049857Y-95718334D01*
X111192714Y-95718334D01*
X111287952Y-95670715D01*
X111335571Y-95623096D01*
X111383190Y-95527858D01*
X111383190Y-95146905D01*
X111192714Y-96575477D02*
X111859381Y-96575477D01*
X110811762Y-96337381D02*
X111526048Y-96099286D01*
X111526048Y-96718334D01*
X118851881Y-140930334D02*
X118375690Y-140597000D01*
X118851881Y-140358905D02*
X117851881Y-140358905D01*
X117851881Y-140739858D01*
X117899500Y-140835096D01*
X117947119Y-140882715D01*
X118042357Y-140930334D01*
X118185214Y-140930334D01*
X118280452Y-140882715D01*
X118328071Y-140835096D01*
X118375690Y-140739858D01*
X118375690Y-140358905D01*
X117851881Y-141835096D02*
X117851881Y-141358905D01*
X118328071Y-141311286D01*
X118280452Y-141358905D01*
X118232833Y-141454143D01*
X118232833Y-141692239D01*
X118280452Y-141787477D01*
X118328071Y-141835096D01*
X118423310Y-141882715D01*
X118661405Y-141882715D01*
X118756643Y-141835096D01*
X118804262Y-141787477D01*
X118851881Y-141692239D01*
X118851881Y-141454143D01*
X118804262Y-141358905D01*
X118756643Y-141311286D01*
X109577166Y-89832381D02*
X109910500Y-89356190D01*
X110148595Y-89832381D02*
X110148595Y-88832381D01*
X109767642Y-88832381D01*
X109672404Y-88880000D01*
X109624785Y-88927619D01*
X109577166Y-89022857D01*
X109577166Y-89165714D01*
X109624785Y-89260952D01*
X109672404Y-89308571D01*
X109767642Y-89356190D01*
X110148595Y-89356190D01*
X108720023Y-88832381D02*
X108910500Y-88832381D01*
X109005738Y-88880000D01*
X109053357Y-88927619D01*
X109148595Y-89070476D01*
X109196214Y-89260952D01*
X109196214Y-89641905D01*
X109148595Y-89737143D01*
X109100976Y-89784762D01*
X109005738Y-89832381D01*
X108815261Y-89832381D01*
X108720023Y-89784762D01*
X108672404Y-89737143D01*
X108624785Y-89641905D01*
X108624785Y-89403810D01*
X108672404Y-89308571D01*
X108720023Y-89260952D01*
X108815261Y-89213333D01*
X109005738Y-89213333D01*
X109100976Y-89260952D01*
X109148595Y-89308571D01*
X109196214Y-89403810D01*
X94531381Y-124166334D02*
X94055190Y-123833000D01*
X94531381Y-123594905D02*
X93531381Y-123594905D01*
X93531381Y-123975858D01*
X93579000Y-124071096D01*
X93626619Y-124118715D01*
X93721857Y-124166334D01*
X93864714Y-124166334D01*
X93959952Y-124118715D01*
X94007571Y-124071096D01*
X94055190Y-123975858D01*
X94055190Y-123594905D01*
X93531381Y-124499667D02*
X93531381Y-125166334D01*
X94531381Y-124737762D01*
X88872381Y-133818334D02*
X88396190Y-133485000D01*
X88872381Y-133246905D02*
X87872381Y-133246905D01*
X87872381Y-133627858D01*
X87920000Y-133723096D01*
X87967619Y-133770715D01*
X88062857Y-133818334D01*
X88205714Y-133818334D01*
X88300952Y-133770715D01*
X88348571Y-133723096D01*
X88396190Y-133627858D01*
X88396190Y-133246905D01*
X88300952Y-134389762D02*
X88253333Y-134294524D01*
X88205714Y-134246905D01*
X88110476Y-134199286D01*
X88062857Y-134199286D01*
X87967619Y-134246905D01*
X87920000Y-134294524D01*
X87872381Y-134389762D01*
X87872381Y-134580239D01*
X87920000Y-134675477D01*
X87967619Y-134723096D01*
X88062857Y-134770715D01*
X88110476Y-134770715D01*
X88205714Y-134723096D01*
X88253333Y-134675477D01*
X88300952Y-134580239D01*
X88300952Y-134389762D01*
X88348571Y-134294524D01*
X88396190Y-134246905D01*
X88491429Y-134199286D01*
X88681905Y-134199286D01*
X88777143Y-134246905D01*
X88824762Y-134294524D01*
X88872381Y-134389762D01*
X88872381Y-134580239D01*
X88824762Y-134675477D01*
X88777143Y-134723096D01*
X88681905Y-134770715D01*
X88491429Y-134770715D01*
X88396190Y-134723096D01*
X88348571Y-134675477D01*
X88300952Y-134580239D01*
X110800081Y-159497734D02*
X110323890Y-159164400D01*
X110800081Y-158926305D02*
X109800081Y-158926305D01*
X109800081Y-159307258D01*
X109847700Y-159402496D01*
X109895319Y-159450115D01*
X109990557Y-159497734D01*
X110133414Y-159497734D01*
X110228652Y-159450115D01*
X110276271Y-159402496D01*
X110323890Y-159307258D01*
X110323890Y-158926305D01*
X110800081Y-159973924D02*
X110800081Y-160164400D01*
X110752462Y-160259639D01*
X110704843Y-160307258D01*
X110561986Y-160402496D01*
X110371510Y-160450115D01*
X109990557Y-160450115D01*
X109895319Y-160402496D01*
X109847700Y-160354877D01*
X109800081Y-160259639D01*
X109800081Y-160069162D01*
X109847700Y-159973924D01*
X109895319Y-159926305D01*
X109990557Y-159878686D01*
X110228652Y-159878686D01*
X110323890Y-159926305D01*
X110371510Y-159973924D01*
X110419129Y-160069162D01*
X110419129Y-160259639D01*
X110371510Y-160354877D01*
X110323890Y-160402496D01*
X110228652Y-160450115D01*
X96944381Y-123690143D02*
X96468190Y-123356809D01*
X96944381Y-123118714D02*
X95944381Y-123118714D01*
X95944381Y-123499667D01*
X95992000Y-123594905D01*
X96039619Y-123642524D01*
X96134857Y-123690143D01*
X96277714Y-123690143D01*
X96372952Y-123642524D01*
X96420571Y-123594905D01*
X96468190Y-123499667D01*
X96468190Y-123118714D01*
X96944381Y-124642524D02*
X96944381Y-124071095D01*
X96944381Y-124356809D02*
X95944381Y-124356809D01*
X96087238Y-124261571D01*
X96182476Y-124166333D01*
X96230095Y-124071095D01*
X95944381Y-125261571D02*
X95944381Y-125356810D01*
X95992000Y-125452048D01*
X96039619Y-125499667D01*
X96134857Y-125547286D01*
X96325333Y-125594905D01*
X96563429Y-125594905D01*
X96753905Y-125547286D01*
X96849143Y-125499667D01*
X96896762Y-125452048D01*
X96944381Y-125356810D01*
X96944381Y-125261571D01*
X96896762Y-125166333D01*
X96849143Y-125118714D01*
X96753905Y-125071095D01*
X96563429Y-125023476D01*
X96325333Y-125023476D01*
X96134857Y-125071095D01*
X96039619Y-125118714D01*
X95992000Y-125166333D01*
X95944381Y-125261571D01*
X88491381Y-104386143D02*
X88015190Y-104052809D01*
X88491381Y-103814714D02*
X87491381Y-103814714D01*
X87491381Y-104195667D01*
X87539000Y-104290905D01*
X87586619Y-104338524D01*
X87681857Y-104386143D01*
X87824714Y-104386143D01*
X87919952Y-104338524D01*
X87967571Y-104290905D01*
X88015190Y-104195667D01*
X88015190Y-103814714D01*
X88491381Y-105338524D02*
X88491381Y-104767095D01*
X88491381Y-105052809D02*
X87491381Y-105052809D01*
X87634238Y-104957571D01*
X87729476Y-104862333D01*
X87777095Y-104767095D01*
X88491381Y-106290905D02*
X88491381Y-105719476D01*
X88491381Y-106005190D02*
X87491381Y-106005190D01*
X87634238Y-105909952D01*
X87729476Y-105814714D01*
X87777095Y-105719476D01*
X98214381Y-107370643D02*
X97738190Y-107037309D01*
X98214381Y-106799214D02*
X97214381Y-106799214D01*
X97214381Y-107180167D01*
X97262000Y-107275405D01*
X97309619Y-107323024D01*
X97404857Y-107370643D01*
X97547714Y-107370643D01*
X97642952Y-107323024D01*
X97690571Y-107275405D01*
X97738190Y-107180167D01*
X97738190Y-106799214D01*
X98214381Y-108323024D02*
X98214381Y-107751595D01*
X98214381Y-108037309D02*
X97214381Y-108037309D01*
X97357238Y-107942071D01*
X97452476Y-107846833D01*
X97500095Y-107751595D01*
X97309619Y-108703976D02*
X97262000Y-108751595D01*
X97214381Y-108846833D01*
X97214381Y-109084929D01*
X97262000Y-109180167D01*
X97309619Y-109227786D01*
X97404857Y-109275405D01*
X97500095Y-109275405D01*
X97642952Y-109227786D01*
X98214381Y-108656357D01*
X98214381Y-109275405D01*
X95130857Y-88689381D02*
X95464191Y-88213190D01*
X95702286Y-88689381D02*
X95702286Y-87689381D01*
X95321333Y-87689381D01*
X95226095Y-87737000D01*
X95178476Y-87784619D01*
X95130857Y-87879857D01*
X95130857Y-88022714D01*
X95178476Y-88117952D01*
X95226095Y-88165571D01*
X95321333Y-88213190D01*
X95702286Y-88213190D01*
X94178476Y-88689381D02*
X94749905Y-88689381D01*
X94464191Y-88689381D02*
X94464191Y-87689381D01*
X94559429Y-87832238D01*
X94654667Y-87927476D01*
X94749905Y-87975095D01*
X93845143Y-87689381D02*
X93226095Y-87689381D01*
X93559429Y-88070333D01*
X93416571Y-88070333D01*
X93321333Y-88117952D01*
X93273714Y-88165571D01*
X93226095Y-88260810D01*
X93226095Y-88498905D01*
X93273714Y-88594143D01*
X93321333Y-88641762D01*
X93416571Y-88689381D01*
X93702286Y-88689381D01*
X93797524Y-88641762D01*
X93845143Y-88594143D01*
X101099857Y-88498881D02*
X101433191Y-88022690D01*
X101671286Y-88498881D02*
X101671286Y-87498881D01*
X101290333Y-87498881D01*
X101195095Y-87546500D01*
X101147476Y-87594119D01*
X101099857Y-87689357D01*
X101099857Y-87832214D01*
X101147476Y-87927452D01*
X101195095Y-87975071D01*
X101290333Y-88022690D01*
X101671286Y-88022690D01*
X100147476Y-88498881D02*
X100718905Y-88498881D01*
X100433191Y-88498881D02*
X100433191Y-87498881D01*
X100528429Y-87641738D01*
X100623667Y-87736976D01*
X100718905Y-87784595D01*
X99290333Y-87832214D02*
X99290333Y-88498881D01*
X99528429Y-87451262D02*
X99766524Y-88165548D01*
X99147476Y-88165548D01*
X101099857Y-87602381D02*
X101433191Y-87126190D01*
X101671286Y-87602381D02*
X101671286Y-86602381D01*
X101290333Y-86602381D01*
X101195095Y-86650000D01*
X101147476Y-86697619D01*
X101099857Y-86792857D01*
X101099857Y-86935714D01*
X101147476Y-87030952D01*
X101195095Y-87078571D01*
X101290333Y-87126190D01*
X101671286Y-87126190D01*
X100147476Y-87602381D02*
X100718905Y-87602381D01*
X100433191Y-87602381D02*
X100433191Y-86602381D01*
X100528429Y-86745238D01*
X100623667Y-86840476D01*
X100718905Y-86888095D01*
X99242714Y-86602381D02*
X99718905Y-86602381D01*
X99766524Y-87078571D01*
X99718905Y-87030952D01*
X99623667Y-86983333D01*
X99385571Y-86983333D01*
X99290333Y-87030952D01*
X99242714Y-87078571D01*
X99195095Y-87173810D01*
X99195095Y-87411905D01*
X99242714Y-87507143D01*
X99290333Y-87554762D01*
X99385571Y-87602381D01*
X99623667Y-87602381D01*
X99718905Y-87554762D01*
X99766524Y-87507143D01*
X94841381Y-92829143D02*
X94365190Y-92495809D01*
X94841381Y-92257714D02*
X93841381Y-92257714D01*
X93841381Y-92638667D01*
X93889000Y-92733905D01*
X93936619Y-92781524D01*
X94031857Y-92829143D01*
X94174714Y-92829143D01*
X94269952Y-92781524D01*
X94317571Y-92733905D01*
X94365190Y-92638667D01*
X94365190Y-92257714D01*
X94841381Y-93781524D02*
X94841381Y-93210095D01*
X94841381Y-93495809D02*
X93841381Y-93495809D01*
X93984238Y-93400571D01*
X94079476Y-93305333D01*
X94127095Y-93210095D01*
X93841381Y-94638667D02*
X93841381Y-94448190D01*
X93889000Y-94352952D01*
X93936619Y-94305333D01*
X94079476Y-94210095D01*
X94269952Y-94162476D01*
X94650905Y-94162476D01*
X94746143Y-94210095D01*
X94793762Y-94257714D01*
X94841381Y-94352952D01*
X94841381Y-94543429D01*
X94793762Y-94638667D01*
X94746143Y-94686286D01*
X94650905Y-94733905D01*
X94412810Y-94733905D01*
X94317571Y-94686286D01*
X94269952Y-94638667D01*
X94222333Y-94543429D01*
X94222333Y-94352952D01*
X94269952Y-94257714D01*
X94317571Y-94210095D01*
X94412810Y-94162476D01*
%LPC*%
D13*
X94326700Y-169316400D03*
X96826700Y-169316400D03*
X99326700Y-169316400D03*
D14*
X92426700Y-162316400D03*
X101226700Y-162316400D03*
D15*
X102882700Y-169062400D03*
D13*
X102882700Y-166522400D03*
X106391700Y-169316400D03*
X108891700Y-169316400D03*
X111391700Y-169316400D03*
D14*
X104491700Y-162316400D03*
X113291700Y-162316400D03*
D16*
X93488000Y-90675500D03*
X93488000Y-88775500D03*
X95488000Y-89725500D03*
D17*
X100434000Y-134492000D03*
X100434000Y-118492000D03*
X113434000Y-118492000D03*
X113411000Y-134492000D03*
X105306000Y-99696000D03*
X105306000Y-115696000D03*
X92306000Y-115696000D03*
X92329000Y-99696000D03*
D18*
X110871000Y-79502000D03*
D19*
X95631000Y-77123000D03*
X95631000Y-75023000D03*
D20*
X114747000Y-144542000D03*
X116647000Y-144542000D03*
X115697000Y-146542000D03*
D16*
X108410500Y-85468500D03*
X108410500Y-83568500D03*
X110410500Y-84518500D03*
D20*
X90871000Y-110252000D03*
X92771000Y-110252000D03*
X91821000Y-112252000D03*
D21*
X98270000Y-150661000D03*
X98270000Y-145161000D03*
X98270000Y-139661000D03*
X102870000Y-150661000D03*
X102870000Y-145161000D03*
X102870000Y-139661000D03*
X107470000Y-150661000D03*
X107470000Y-145161000D03*
X107470000Y-139661000D03*
D22*
X103886000Y-78740000D03*
X103886000Y-72740000D03*
X99186000Y-75740000D03*
D15*
X89166700Y-168681400D03*
D13*
X89166700Y-166141400D03*
X89166700Y-163601400D03*
X89166700Y-161061400D03*
D15*
X116598700Y-168681400D03*
D13*
X116598700Y-166141400D03*
X116598700Y-163601400D03*
X116598700Y-161061400D03*
D23*
X89154000Y-93345000D03*
D24*
X89154000Y-90805000D03*
X89154000Y-88265000D03*
X89154000Y-85725000D03*
D23*
X116586000Y-93345000D03*
D24*
X116586000Y-90805000D03*
X116586000Y-88265000D03*
X116586000Y-85725000D03*
D25*
X90170000Y-142768000D03*
X90170000Y-145268000D03*
D26*
X103398000Y-90932000D03*
X105898000Y-90932000D03*
X99207000Y-83883500D03*
X101707000Y-83883500D03*
D25*
X105283000Y-87546500D03*
X105283000Y-85046500D03*
D26*
X115296000Y-130302000D03*
X112796000Y-130302000D03*
X89872500Y-130175000D03*
X92372500Y-130175000D03*
D25*
X108839000Y-102763000D03*
X108839000Y-105263000D03*
X95250000Y-84181000D03*
X95250000Y-81681000D03*
X96012000Y-103866000D03*
X96012000Y-101366000D03*
D26*
X115296000Y-127000000D03*
X112796000Y-127000000D03*
D25*
X92837000Y-143236000D03*
X92837000Y-140736000D03*
X90106500Y-137751500D03*
X90106500Y-140251500D03*
X113157000Y-94635000D03*
X113157000Y-97135000D03*
X116649500Y-142347000D03*
X116649500Y-139847000D03*
D26*
X108160500Y-87630000D03*
X110660500Y-87630000D03*
D25*
X92329000Y-125583000D03*
X92329000Y-123083000D03*
X90170000Y-132735000D03*
X90170000Y-135235000D03*
X108597700Y-160914400D03*
X108597700Y-158414400D03*
X94742000Y-125583000D03*
X94742000Y-123083000D03*
X89789000Y-103779000D03*
X89789000Y-106279000D03*
X96012000Y-109263500D03*
X96012000Y-106763500D03*
D26*
X93238000Y-86487000D03*
X95738000Y-86487000D03*
X99207000Y-86296500D03*
X101707000Y-86296500D03*
X101707000Y-88900000D03*
X99207000Y-88900000D03*
D25*
X96139000Y-92222000D03*
X96139000Y-94722000D03*
D27*
X111404400Y-96824800D03*
X106908600Y-92329000D03*
X113157000Y-142367000D03*
X109855000Y-142367000D03*
X97536000Y-79121000D03*
X97536000Y-95758000D03*
X111252000Y-130302000D03*
X93789500Y-130302000D03*
X99822000Y-112268000D03*
X94869000Y-112268000D03*
X114554000Y-112268000D03*
X107188000Y-112268000D03*
X113093500Y-93345000D03*
X113093500Y-83439000D03*
X97536000Y-123952000D03*
X97536000Y-126746000D03*
X96012000Y-114046000D03*
X100584000Y-113919000D03*
X100330000Y-126746000D03*
X100330000Y-121539000D03*
X103886000Y-122555000D03*
X103886000Y-126619000D03*
X109855000Y-109601000D03*
X102108000Y-101854000D03*
X106095800Y-81940400D03*
X108305600Y-81940400D03*
X93446600Y-81940400D03*
X91516200Y-81940400D03*
X91871800Y-93370400D03*
X94538800Y-94411800D03*
M02*
