M48
;DRILL file {KiCad 4.0.6} date 01/08/18 00:35:14
;FORMAT={-:-/ absolute / metric / decimal}
FMAT,2
METRIC,TZ
T1C0.400
T2C1.000
T3C1.001
T4C2.000
T5C2.000
%
G90
G05
M71
T1
X91.516Y-81.94
X91.872Y-93.37
X93.447Y-81.94
X93.789Y-130.302
X94.539Y-94.412
X94.869Y-112.268
X96.012Y-114.046
X97.536Y-79.121
X97.536Y-95.758
X97.536Y-123.952
X97.536Y-126.746
X99.822Y-112.268
X100.33Y-121.539
X100.33Y-126.746
X100.584Y-113.919
X102.108Y-101.854
X103.886Y-122.555
X103.886Y-126.619
X106.096Y-81.94
X106.909Y-92.329
X107.188Y-112.268
X108.306Y-81.94
X109.855Y-109.601
X109.855Y-142.367
X111.252Y-130.302
X111.404Y-96.825
X113.093Y-83.439
X113.093Y-93.345
X113.157Y-142.367
X114.554Y-112.268
T2
X89.154Y-85.725
X89.154Y-88.265
X89.154Y-90.805
X89.154Y-93.345
X89.167Y-161.061
X89.167Y-163.601
X89.167Y-166.141
X89.167Y-168.681
X94.327Y-169.316
X96.827Y-169.316
X99.327Y-169.316
X102.883Y-166.522
X102.883Y-169.062
X106.392Y-169.316
X108.892Y-169.316
X111.392Y-169.316
X116.586Y-85.725
X116.586Y-88.265
X116.586Y-90.805
X116.586Y-93.345
X116.599Y-161.061
X116.599Y-163.601
X116.599Y-166.141
X116.599Y-168.681
T3
X110.871Y-79.502
T4
X92.306Y-115.696
X92.329Y-99.696
X98.27Y-139.661
X98.27Y-145.161
X98.27Y-150.661
X100.434Y-118.492
X100.434Y-134.492
X102.87Y-139.661
X102.87Y-145.161
X102.87Y-150.661
X105.306Y-99.696
X105.306Y-115.696
X107.47Y-139.661
X107.47Y-145.161
X107.47Y-150.661
X113.411Y-134.492
X113.434Y-118.492
T5
X92.427Y-162.316
X101.227Y-162.316
X104.492Y-162.316
X113.292Y-162.316
T2
X99.186Y-74.74G85X99.186Y-76.74
G05
X104.886Y-72.74G85X102.886Y-72.74
G05
X104.886Y-78.74G85X102.886Y-78.74
G05
T0
M30
