G04 #@! TF.FileFunction,Soldermask,Bot*
%FSLAX46Y46*%
G04 Gerber Fmt 4.6, Leading zero omitted, Abs format (unit mm)*
G04 Created by KiCad (PCBNEW 4.0.6) date 01/08/18 00:35:12*
%MOMM*%
%LPD*%
G01*
G04 APERTURE LIST*
%ADD10C,0.100000*%
%ADD11C,0.150000*%
%ADD12C,2.400000*%
%ADD13C,3.400000*%
%ADD14R,2.400000X2.400000*%
%ADD15R,1.300000X1.200000*%
%ADD16O,5.400000X4.400000*%
%ADD17C,2.899360*%
%ADD18R,0.850000X1.000000*%
%ADD19R,1.200000X1.300000*%
%ADD20O,3.900000X4.400000*%
%ADD21R,3.900000X3.900000*%
%ADD22R,2.100000X2.100000*%
%ADD23O,2.100000X2.100000*%
%ADD24R,1.650000X1.900000*%
%ADD25R,1.900000X1.650000*%
%ADD26C,1.000000*%
G04 APERTURE END LIST*
D10*
D11*
X87376000Y-148336000D02*
X87376000Y-77216000D01*
X111379000Y-155321000D02*
X94361000Y-155321000D01*
X118364000Y-77216000D02*
X118364000Y-148336000D01*
X111252000Y-70231000D02*
X94361000Y-70231000D01*
X87388700Y-156108400D02*
X87388700Y-172491400D01*
X118376700Y-172491400D02*
X118376700Y-156108400D01*
X118376700Y-172491400D02*
X87388700Y-172491400D01*
X87388700Y-156108400D02*
X118376700Y-156108400D01*
X118364000Y-148336000D02*
X118364000Y-148209000D01*
X111379000Y-148336000D02*
X118364000Y-148336000D01*
X111379000Y-155321000D02*
X111379000Y-148336000D01*
X94361000Y-148336000D02*
X94361000Y-155321000D01*
X87376000Y-148336000D02*
X94361000Y-148336000D01*
X94361000Y-77216000D02*
X87376000Y-77216000D01*
X94361000Y-70231000D02*
X94361000Y-77216000D01*
X111252000Y-77216000D02*
X111252000Y-70231000D01*
X118364000Y-77216000D02*
X111252000Y-77216000D01*
D12*
X94326700Y-169316400D03*
X96826700Y-169316400D03*
X99326700Y-169316400D03*
D13*
X92426700Y-162316400D03*
X101226700Y-162316400D03*
D14*
X102882700Y-169062400D03*
D12*
X102882700Y-166522400D03*
X106391700Y-169316400D03*
X108891700Y-169316400D03*
X111391700Y-169316400D03*
D13*
X104491700Y-162316400D03*
X113291700Y-162316400D03*
D15*
X93488000Y-90675500D03*
X93488000Y-88775500D03*
X95488000Y-89725500D03*
D16*
X100434000Y-134492000D03*
X100434000Y-118492000D03*
X113434000Y-118492000D03*
X113411000Y-134492000D03*
X105306000Y-99696000D03*
X105306000Y-115696000D03*
X92306000Y-115696000D03*
X92329000Y-99696000D03*
D17*
X110871000Y-79502000D03*
D18*
X95631000Y-77123000D03*
X95631000Y-75023000D03*
D19*
X114747000Y-144542000D03*
X116647000Y-144542000D03*
X115697000Y-146542000D03*
D15*
X108410500Y-85468500D03*
X108410500Y-83568500D03*
X110410500Y-84518500D03*
D19*
X90871000Y-110252000D03*
X92771000Y-110252000D03*
X91821000Y-112252000D03*
D20*
X98270000Y-150661000D03*
X98270000Y-145161000D03*
X98270000Y-139661000D03*
X102870000Y-150661000D03*
X102870000Y-145161000D03*
X102870000Y-139661000D03*
X107470000Y-150661000D03*
X107470000Y-145161000D03*
X107470000Y-139661000D03*
D21*
X103886000Y-78740000D03*
X103886000Y-72740000D03*
X99186000Y-75740000D03*
D14*
X89166700Y-168681400D03*
D12*
X89166700Y-166141400D03*
X89166700Y-163601400D03*
X89166700Y-161061400D03*
D14*
X116598700Y-168681400D03*
D12*
X116598700Y-166141400D03*
X116598700Y-163601400D03*
X116598700Y-161061400D03*
D22*
X89154000Y-93345000D03*
D23*
X89154000Y-90805000D03*
X89154000Y-88265000D03*
X89154000Y-85725000D03*
D22*
X116586000Y-93345000D03*
D23*
X116586000Y-90805000D03*
X116586000Y-88265000D03*
X116586000Y-85725000D03*
D24*
X90170000Y-142768000D03*
X90170000Y-145268000D03*
D25*
X103398000Y-90932000D03*
X105898000Y-90932000D03*
X99207000Y-83883500D03*
X101707000Y-83883500D03*
D24*
X105283000Y-87546500D03*
X105283000Y-85046500D03*
D25*
X115296000Y-130302000D03*
X112796000Y-130302000D03*
X89872500Y-130175000D03*
X92372500Y-130175000D03*
D24*
X108839000Y-102763000D03*
X108839000Y-105263000D03*
X95250000Y-84181000D03*
X95250000Y-81681000D03*
X96012000Y-103866000D03*
X96012000Y-101366000D03*
D25*
X115296000Y-127000000D03*
X112796000Y-127000000D03*
D24*
X92837000Y-143236000D03*
X92837000Y-140736000D03*
X90106500Y-137751500D03*
X90106500Y-140251500D03*
X113157000Y-94635000D03*
X113157000Y-97135000D03*
X116649500Y-142347000D03*
X116649500Y-139847000D03*
D25*
X108160500Y-87630000D03*
X110660500Y-87630000D03*
D24*
X92329000Y-125583000D03*
X92329000Y-123083000D03*
X90170000Y-132735000D03*
X90170000Y-135235000D03*
X108597700Y-160914400D03*
X108597700Y-158414400D03*
X94742000Y-125583000D03*
X94742000Y-123083000D03*
X89789000Y-103779000D03*
X89789000Y-106279000D03*
X96012000Y-109263500D03*
X96012000Y-106763500D03*
D25*
X93238000Y-86487000D03*
X95738000Y-86487000D03*
X99207000Y-86296500D03*
X101707000Y-86296500D03*
X101707000Y-88900000D03*
X99207000Y-88900000D03*
D24*
X96139000Y-92222000D03*
X96139000Y-94722000D03*
D26*
X111404400Y-96824800D03*
X106908600Y-92329000D03*
X113157000Y-142367000D03*
X109855000Y-142367000D03*
X97536000Y-79121000D03*
X97536000Y-95758000D03*
X111252000Y-130302000D03*
X93789500Y-130302000D03*
X99822000Y-112268000D03*
X94869000Y-112268000D03*
X114554000Y-112268000D03*
X107188000Y-112268000D03*
X113093500Y-93345000D03*
X113093500Y-83439000D03*
X97536000Y-123952000D03*
X97536000Y-126746000D03*
X96012000Y-114046000D03*
X100584000Y-113919000D03*
X100330000Y-126746000D03*
X100330000Y-121539000D03*
X103886000Y-122555000D03*
X103886000Y-126619000D03*
X109855000Y-109601000D03*
X102108000Y-101854000D03*
X106095800Y-81940400D03*
X108305600Y-81940400D03*
X93446600Y-81940400D03*
X91516200Y-81940400D03*
X91871800Y-93370400D03*
X94538800Y-94411800D03*
M02*
