G04 #@! TF.FileFunction,Soldermask,Top*
%FSLAX46Y46*%
G04 Gerber Fmt 4.6, Leading zero omitted, Abs format (unit mm)*
G04 Created by KiCad (PCBNEW 4.0.6) date 01/08/18 00:35:12*
%MOMM*%
%LPD*%
G01*
G04 APERTURE LIST*
%ADD10C,0.100000*%
%ADD11C,0.150000*%
%ADD12C,2.400000*%
%ADD13C,3.400000*%
%ADD14R,2.400000X2.400000*%
%ADD15O,5.400000X4.400000*%
%ADD16C,2.899360*%
%ADD17O,3.900000X4.400000*%
%ADD18R,3.900000X3.900000*%
%ADD19R,2.100000X2.100000*%
%ADD20O,2.100000X2.100000*%
%ADD21C,1.000000*%
G04 APERTURE END LIST*
D10*
D11*
X87376000Y-148336000D02*
X87376000Y-77216000D01*
X111379000Y-155321000D02*
X94361000Y-155321000D01*
X118364000Y-77216000D02*
X118364000Y-148336000D01*
X111252000Y-70231000D02*
X94361000Y-70231000D01*
X87388700Y-156108400D02*
X87388700Y-172491400D01*
X118376700Y-172491400D02*
X118376700Y-156108400D01*
X118376700Y-172491400D02*
X87388700Y-172491400D01*
X87388700Y-156108400D02*
X118376700Y-156108400D01*
X118364000Y-148336000D02*
X118364000Y-148209000D01*
X111379000Y-148336000D02*
X118364000Y-148336000D01*
X111379000Y-155321000D02*
X111379000Y-148336000D01*
X94361000Y-148336000D02*
X94361000Y-155321000D01*
X87376000Y-148336000D02*
X94361000Y-148336000D01*
X94361000Y-77216000D02*
X87376000Y-77216000D01*
X94361000Y-70231000D02*
X94361000Y-77216000D01*
X111252000Y-77216000D02*
X111252000Y-70231000D01*
X118364000Y-77216000D02*
X111252000Y-77216000D01*
D12*
X94326700Y-169316400D03*
X96826700Y-169316400D03*
X99326700Y-169316400D03*
D13*
X92426700Y-162316400D03*
X101226700Y-162316400D03*
D14*
X102882700Y-169062400D03*
D12*
X102882700Y-166522400D03*
X106391700Y-169316400D03*
X108891700Y-169316400D03*
X111391700Y-169316400D03*
D13*
X104491700Y-162316400D03*
X113291700Y-162316400D03*
D15*
X100434000Y-134492000D03*
X100434000Y-118492000D03*
X113434000Y-118492000D03*
X113411000Y-134492000D03*
X105306000Y-99696000D03*
X105306000Y-115696000D03*
X92306000Y-115696000D03*
X92329000Y-99696000D03*
D16*
X110871000Y-79502000D03*
D17*
X98270000Y-150661000D03*
X98270000Y-145161000D03*
X98270000Y-139661000D03*
X102870000Y-150661000D03*
X102870000Y-145161000D03*
X102870000Y-139661000D03*
X107470000Y-150661000D03*
X107470000Y-145161000D03*
X107470000Y-139661000D03*
D18*
X103886000Y-78740000D03*
X103886000Y-72740000D03*
X99186000Y-75740000D03*
D14*
X89166700Y-168681400D03*
D12*
X89166700Y-166141400D03*
X89166700Y-163601400D03*
X89166700Y-161061400D03*
D14*
X116598700Y-168681400D03*
D12*
X116598700Y-166141400D03*
X116598700Y-163601400D03*
X116598700Y-161061400D03*
D19*
X89154000Y-93345000D03*
D20*
X89154000Y-90805000D03*
X89154000Y-88265000D03*
X89154000Y-85725000D03*
D19*
X116586000Y-93345000D03*
D20*
X116586000Y-90805000D03*
X116586000Y-88265000D03*
X116586000Y-85725000D03*
D21*
X111404400Y-96824800D03*
X106908600Y-92329000D03*
X113157000Y-142367000D03*
X109855000Y-142367000D03*
X97536000Y-79121000D03*
X97536000Y-95758000D03*
X111252000Y-130302000D03*
X93789500Y-130302000D03*
X99822000Y-112268000D03*
X94869000Y-112268000D03*
X114554000Y-112268000D03*
X107188000Y-112268000D03*
X113093500Y-93345000D03*
X113093500Y-83439000D03*
X97536000Y-123952000D03*
X97536000Y-126746000D03*
X96012000Y-114046000D03*
X100584000Y-113919000D03*
X100330000Y-126746000D03*
X100330000Y-121539000D03*
X103886000Y-122555000D03*
X103886000Y-126619000D03*
X109855000Y-109601000D03*
X102108000Y-101854000D03*
X106095800Y-81940400D03*
X108305600Y-81940400D03*
X93446600Y-81940400D03*
X91516200Y-81940400D03*
X91871800Y-93370400D03*
X94538800Y-94411800D03*
M02*
