G04 #@! TF.FileFunction,Soldermask,Top*
%FSLAX46Y46*%
G04 Gerber Fmt 4.6, Leading zero omitted, Abs format (unit mm)*
G04 Created by KiCad (PCBNEW 4.0.6) date 12/28/17 16:04:21*
%MOMM*%
%LPD*%
G01*
G04 APERTURE LIST*
%ADD10C,0.100000*%
%ADD11C,2.400000*%
%ADD12C,3.400000*%
%ADD13R,2.400000X2.400000*%
%ADD14O,5.400000X4.400000*%
%ADD15C,2.899360*%
%ADD16O,3.900000X4.400000*%
%ADD17R,3.900000X3.900000*%
%ADD18R,2.100000X2.100000*%
%ADD19O,2.100000X2.100000*%
G04 APERTURE END LIST*
D10*
D11*
X127473700Y-86893400D03*
X129973700Y-86893400D03*
X132473700Y-86893400D03*
D12*
X125573700Y-79893400D03*
X134373700Y-79893400D03*
D13*
X136029700Y-86639400D03*
D11*
X136029700Y-84099400D03*
X139538700Y-86893400D03*
X142038700Y-86893400D03*
X144538700Y-86893400D03*
D12*
X137638700Y-79893400D03*
X146438700Y-79893400D03*
D14*
X100434000Y-134492000D03*
X100434000Y-118492000D03*
X113434000Y-118492000D03*
X113411000Y-134492000D03*
X105306000Y-99696000D03*
X105306000Y-115696000D03*
X92306000Y-115696000D03*
X92329000Y-99696000D03*
D15*
X110871000Y-79502000D03*
D16*
X98270000Y-150661000D03*
X98270000Y-145161000D03*
X98270000Y-139661000D03*
X102870000Y-150661000D03*
X102870000Y-145161000D03*
X102870000Y-139661000D03*
X107470000Y-150661000D03*
X107470000Y-145161000D03*
X107470000Y-139661000D03*
D17*
X103886000Y-78740000D03*
X103886000Y-72740000D03*
X99186000Y-75740000D03*
D13*
X122313700Y-86258400D03*
D11*
X122313700Y-83718400D03*
X122313700Y-81178400D03*
X122313700Y-78638400D03*
D13*
X149745700Y-86258400D03*
D11*
X149745700Y-83718400D03*
X149745700Y-81178400D03*
X149745700Y-78638400D03*
D18*
X89154000Y-93345000D03*
D19*
X89154000Y-90805000D03*
X89154000Y-88265000D03*
X89154000Y-85725000D03*
D18*
X116586000Y-93345000D03*
D19*
X116586000Y-90805000D03*
X116586000Y-88265000D03*
X116586000Y-85725000D03*
M02*
