M48
;DRILL file {KiCad 4.0.6} date 12/28/17 16:04:23
;FORMAT={-:-/ absolute / inch / decimal}
FMAT,2
INCH,TZ
T1C0.016
T2C0.039
T3C0.039
T4C0.079
T5C0.079
%
G90
G05
M72
T1
X3.603Y-3.226
X3.617Y-3.676
X3.63Y-5.13
X3.679Y-3.226
X3.722Y-3.717
X3.735Y-4.42
X3.79Y-4.49
X3.84Y-4.88
X3.84Y-4.99
X3.855Y-3.115
X3.855Y-3.77
X3.93Y-4.42
X3.95Y-4.785
X3.95Y-4.99
X3.96Y-4.485
X4.02Y-4.01
X4.09Y-4.825
X4.09Y-4.985
X4.177Y-3.226
X4.209Y-3.635
X4.22Y-4.42
X4.264Y-3.226
X4.325Y-4.315
X4.325Y-5.605
X4.38Y-5.13
X4.386Y-3.812
X4.4525Y-3.285
X4.4525Y-3.675
X4.455Y-5.605
X4.51Y-4.42
T2
X3.51Y-3.375
X3.51Y-3.475
X3.51Y-3.575
X3.51Y-3.675
X4.59Y-3.375
X4.59Y-3.475
X4.59Y-3.575
X4.59Y-3.675
X4.8155Y-3.096
X4.8155Y-3.196
X4.8155Y-3.296
X4.8155Y-3.396
X5.0186Y-3.421
X5.1171Y-3.421
X5.2155Y-3.421
X5.3555Y-3.311
X5.3555Y-3.411
X5.4936Y-3.421
X5.5921Y-3.421
X5.6905Y-3.421
X5.8955Y-3.096
X5.8955Y-3.196
X5.8955Y-3.296
X5.8955Y-3.396
T3
X4.365Y-3.13
T4
X3.6341Y-4.555
X3.635Y-3.925
X3.8689Y-5.4985
X3.8689Y-5.715
X3.8689Y-5.9315
X3.9541Y-4.665
X3.9541Y-5.295
X4.05Y-5.4985
X4.05Y-5.715
X4.05Y-5.9315
X4.1459Y-3.925
X4.1459Y-4.555
X4.2311Y-5.4985
X4.2311Y-5.715
X4.2311Y-5.9315
X4.465Y-5.295
X4.4659Y-4.665
T5
X4.9438Y-3.1454
X5.2903Y-3.1454
X5.4188Y-3.1454
X5.7653Y-3.1454
T2
X3.905Y-2.9425G85X3.905Y-3.0213
G05
X4.1294Y-2.8638G85X4.0506Y-2.8638
G05
X4.1294Y-3.1G85X4.0506Y-3.1
G05
T0
M30
