<?xml version="1.0" standalone="no"?>
 <!DOCTYPE svg PUBLIC "-//W3C//DTD SVG 1.1//EN" 
 "http://www.w3.org/Graphics/SVG/1.1/DTD/svg11.dtd"> 
<svg xmlns="http://www.w3.org/2000/svg" version="1.1" 
    width="29.7002cm" height="21.0007cm" viewBox="0 0 116930 82680 ">
<title>SVG Picture created as Atomizer_3PDT-Atomizer_3PDT.svg date 2018/12/31 11:31:30 </title>
  <desc>Picture generated by Eeschema-SVG </desc>
<g style="fill:#000000; fill-opacity:1;stroke:#000000; stroke-opacity:1;
stroke-linecap:round; stroke-linejoin:round; "
 transform="translate(0 0) scale(1 1)">
</g>
<g style="fill:#000000; fill-opacity:0.0; 
stroke:#000000; stroke-width:-10; stroke-opacity:1; 
stroke-linecap:round; stroke-linejoin:round;">
</g>
<g style="fill:#840000; fill-opacity:0.0; 
stroke:#840000; stroke-width:-10; stroke-opacity:1; 
stroke-linecap:round; stroke-linejoin:round;">
</g>
<g style="fill:#840000; fill-opacity:0.0; 
stroke:#840000; stroke-width:100; stroke-opacity:1; 
stroke-linecap:round; stroke-linejoin:round;">
</g>
<g style="fill:#840000; fill-opacity:0.0; 
stroke:#840000; stroke-width:60; stroke-opacity:1; 
stroke-linecap:round; stroke-linejoin:round;">
<rect x="69690" y="65360" width="42520" height="12600" rx="0" />
</g>
<g style="fill:#840000; fill-opacity:0.0; 
stroke:#840000; stroke-width:100; stroke-opacity:1; 
stroke-linecap:round; stroke-linejoin:round;">
</g>
<g style="fill:#840000; fill-opacity:0.0; 
stroke:#840000; stroke-width:60; stroke-opacity:1; 
stroke-linecap:round; stroke-linejoin:round;">
<rect x="3940" y="3940" width="109050" height="74800" rx="0" />
</g>
<g style="fill:#840000; fill-opacity:0.0; 
stroke:#840000; stroke-width:100; stroke-opacity:1; 
stroke-linecap:round; stroke-linejoin:round;">
</g>
<g style="fill:#840000; fill-opacity:0.0; 
stroke:#840000; stroke-width:60; stroke-opacity:1; 
stroke-linecap:round; stroke-linejoin:round;">
<rect x="4720" y="4720" width="107490" height="73240" rx="0" />
</g>
<g style="fill:#840000; fill-opacity:0.0; 
stroke:#840000; stroke-width:100; stroke-opacity:1; 
stroke-linecap:round; stroke-linejoin:round;">
</g>
<g style="fill:#840000; fill-opacity:0.0; 
stroke:#840000; stroke-width:60; stroke-opacity:1; 
stroke-linecap:round; stroke-linejoin:round;">
<path d="M23620 4720
L23620 3940
" />
</g>
<g style="fill:#840000; fill-opacity:0.0; 
stroke:#840000; stroke-width:100; stroke-opacity:1; 
stroke-linecap:round; stroke-linejoin:round;">
</g>
<g style="fill:#840000; fill-opacity:0.0; 
stroke:#840000; stroke-width:60; stroke-opacity:1; 
stroke-linecap:round; stroke-linejoin:round;">
<path d="M43310 4720
L43310 3940
" />
</g>
<g style="fill:#840000; fill-opacity:0.0; 
stroke:#840000; stroke-width:100; stroke-opacity:1; 
stroke-linecap:round; stroke-linejoin:round;">
</g>
<g style="fill:#840000; fill-opacity:0.0; 
stroke:#840000; stroke-width:60; stroke-opacity:1; 
stroke-linecap:round; stroke-linejoin:round;">
<path d="M62990 4720
L62990 3940
" />
</g>
<g style="fill:#840000; fill-opacity:0.0; 
stroke:#840000; stroke-width:100; stroke-opacity:1; 
stroke-linecap:round; stroke-linejoin:round;">
</g>
<g style="fill:#840000; fill-opacity:0.0; 
stroke:#840000; stroke-width:60; stroke-opacity:1; 
stroke-linecap:round; stroke-linejoin:round;">
<path d="M82680 4720
L82680 3940
" />
</g>
<g style="fill:#840000; fill-opacity:0.0; 
stroke:#840000; stroke-width:100; stroke-opacity:1; 
stroke-linecap:round; stroke-linejoin:round;">
</g>
<g style="fill:#840000; fill-opacity:0.0; 
stroke:#840000; stroke-width:60; stroke-opacity:1; 
stroke-linecap:round; stroke-linejoin:round;">
<path d="M102360 4720
L102360 3940
" />
</g>
<g style="fill:#840000; fill-opacity:0.0; 
stroke:#840000; stroke-width:100; stroke-opacity:1; 
stroke-linecap:round; stroke-linejoin:round;">
</g>
<g style="fill:#840000; fill-opacity:0.0; 
stroke:#840000; stroke-width:60; stroke-opacity:1; 
stroke-linecap:round; stroke-linejoin:round;">
<path d="M14190 4560
L13900 4560
" />
<path d="M14050 4560
L14050 4050
L14000 4120
L13950 4170
L13900 4190
" />
</g>
<g style="fill:#840000; fill-opacity:0.0; 
stroke:#840000; stroke-width:100; stroke-opacity:1; 
stroke-linecap:round; stroke-linejoin:round;">
</g>
<g style="fill:#840000; fill-opacity:0.0; 
stroke:#840000; stroke-width:60; stroke-opacity:1; 
stroke-linecap:round; stroke-linejoin:round;">
<path d="M33580 4090
L33610 4070
L33660 4050
L33780 4050
L33830 4070
L33850 4090
L33870 4140
L33870 4190
L33850 4260
L33560 4560
L33870 4560
" />
</g>
<g style="fill:#840000; fill-opacity:0.0; 
stroke:#840000; stroke-width:100; stroke-opacity:1; 
stroke-linecap:round; stroke-linejoin:round;">
</g>
<g style="fill:#840000; fill-opacity:0.0; 
stroke:#840000; stroke-width:60; stroke-opacity:1; 
stroke-linecap:round; stroke-linejoin:round;">
<path d="M53250 4050
L53560 4050
L53390 4240
L53470 4240
L53520 4260
L53540 4290
L53560 4340
L53560 4460
L53540 4510
L53520 4530
L53470 4560
L53320 4560
L53270 4530
L53250 4510
" />
</g>
<g style="fill:#840000; fill-opacity:0.0; 
stroke:#840000; stroke-width:100; stroke-opacity:1; 
stroke-linecap:round; stroke-linejoin:round;">
</g>
<g style="fill:#840000; fill-opacity:0.0; 
stroke:#840000; stroke-width:60; stroke-opacity:1; 
stroke-linecap:round; stroke-linejoin:round;">
<path d="M73200 4220
L73200 4560
" />
<path d="M73070 4020
L72950 4390
L73270 4390
" />
</g>
<g style="fill:#840000; fill-opacity:0.0; 
stroke:#840000; stroke-width:100; stroke-opacity:1; 
stroke-linecap:round; stroke-linejoin:round;">
</g>
<g style="fill:#840000; fill-opacity:0.0; 
stroke:#840000; stroke-width:60; stroke-opacity:1; 
stroke-linecap:round; stroke-linejoin:round;">
<path d="M92910 4050
L92670 4050
L92640 4290
L92670 4260
L92720 4240
L92840 4240
L92890 4260
L92910 4290
L92930 4340
L92930 4460
L92910 4510
L92890 4530
L92840 4560
L92720 4560
L92670 4530
L92640 4510
" />
</g>
<g style="fill:#840000; fill-opacity:0.0; 
stroke:#840000; stroke-width:100; stroke-opacity:1; 
stroke-linecap:round; stroke-linejoin:round;">
</g>
<g style="fill:#840000; fill-opacity:0.0; 
stroke:#840000; stroke-width:60; stroke-opacity:1; 
stroke-linecap:round; stroke-linejoin:round;">
<path d="M112570 4050
L112470 4050
L112420 4070
L112400 4090
L112350 4170
L112320 4260
L112320 4460
L112350 4510
L112370 4530
L112420 4560
L112520 4560
L112570 4530
L112590 4510
L112610 4460
L112610 4340
L112590 4290
L112570 4260
L112520 4240
L112420 4240
L112370 4260
L112350 4290
L112320 4340
" />
</g>
<g style="fill:#840000; fill-opacity:0.0; 
stroke:#840000; stroke-width:100; stroke-opacity:1; 
stroke-linecap:round; stroke-linejoin:round;">
</g>
<g style="fill:#840000; fill-opacity:0.0; 
stroke:#840000; stroke-width:60; stroke-opacity:1; 
stroke-linecap:round; stroke-linejoin:round;">
<path d="M23620 77960
L23620 78740
" />
</g>
<g style="fill:#840000; fill-opacity:0.0; 
stroke:#840000; stroke-width:100; stroke-opacity:1; 
stroke-linecap:round; stroke-linejoin:round;">
</g>
<g style="fill:#840000; fill-opacity:0.0; 
stroke:#840000; stroke-width:60; stroke-opacity:1; 
stroke-linecap:round; stroke-linejoin:round;">
<path d="M43310 77960
L43310 78740
" />
</g>
<g style="fill:#840000; fill-opacity:0.0; 
stroke:#840000; stroke-width:100; stroke-opacity:1; 
stroke-linecap:round; stroke-linejoin:round;">
</g>
<g style="fill:#840000; fill-opacity:0.0; 
stroke:#840000; stroke-width:60; stroke-opacity:1; 
stroke-linecap:round; stroke-linejoin:round;">
<path d="M62990 77960
L62990 78740
" />
</g>
<g style="fill:#840000; fill-opacity:0.0; 
stroke:#840000; stroke-width:100; stroke-opacity:1; 
stroke-linecap:round; stroke-linejoin:round;">
</g>
<g style="fill:#840000; fill-opacity:0.0; 
stroke:#840000; stroke-width:60; stroke-opacity:1; 
stroke-linecap:round; stroke-linejoin:round;">
<path d="M82680 77960
L82680 78740
" />
</g>
<g style="fill:#840000; fill-opacity:0.0; 
stroke:#840000; stroke-width:100; stroke-opacity:1; 
stroke-linecap:round; stroke-linejoin:round;">
</g>
<g style="fill:#840000; fill-opacity:0.0; 
stroke:#840000; stroke-width:60; stroke-opacity:1; 
stroke-linecap:round; stroke-linejoin:round;">
<path d="M102360 77960
L102360 78740
" />
</g>
<g style="fill:#840000; fill-opacity:0.0; 
stroke:#840000; stroke-width:100; stroke-opacity:1; 
stroke-linecap:round; stroke-linejoin:round;">
</g>
<g style="fill:#840000; fill-opacity:0.0; 
stroke:#840000; stroke-width:60; stroke-opacity:1; 
stroke-linecap:round; stroke-linejoin:round;">
<path d="M14190 78580
L13900 78580
" />
<path d="M14050 78580
L14050 78070
L14000 78140
L13950 78190
L13900 78210
" />
</g>
<g style="fill:#840000; fill-opacity:0.0; 
stroke:#840000; stroke-width:100; stroke-opacity:1; 
stroke-linecap:round; stroke-linejoin:round;">
</g>
<g style="fill:#840000; fill-opacity:0.0; 
stroke:#840000; stroke-width:60; stroke-opacity:1; 
stroke-linecap:round; stroke-linejoin:round;">
<path d="M33580 78110
L33610 78090
L33660 78070
L33780 78070
L33830 78090
L33850 78110
L33870 78160
L33870 78210
L33850 78280
L33560 78580
L33870 78580
" />
</g>
<g style="fill:#840000; fill-opacity:0.0; 
stroke:#840000; stroke-width:100; stroke-opacity:1; 
stroke-linecap:round; stroke-linejoin:round;">
</g>
<g style="fill:#840000; fill-opacity:0.0; 
stroke:#840000; stroke-width:60; stroke-opacity:1; 
stroke-linecap:round; stroke-linejoin:round;">
<path d="M53250 78070
L53560 78070
L53390 78260
L53470 78260
L53520 78280
L53540 78310
L53560 78360
L53560 78480
L53540 78530
L53520 78550
L53470 78580
L53320 78580
L53270 78550
L53250 78530
" />
</g>
<g style="fill:#840000; fill-opacity:0.0; 
stroke:#840000; stroke-width:100; stroke-opacity:1; 
stroke-linecap:round; stroke-linejoin:round;">
</g>
<g style="fill:#840000; fill-opacity:0.0; 
stroke:#840000; stroke-width:60; stroke-opacity:1; 
stroke-linecap:round; stroke-linejoin:round;">
<path d="M73200 78240
L73200 78580
" />
<path d="M73070 78040
L72950 78410
L73270 78410
" />
</g>
<g style="fill:#840000; fill-opacity:0.0; 
stroke:#840000; stroke-width:100; stroke-opacity:1; 
stroke-linecap:round; stroke-linejoin:round;">
</g>
<g style="fill:#840000; fill-opacity:0.0; 
stroke:#840000; stroke-width:60; stroke-opacity:1; 
stroke-linecap:round; stroke-linejoin:round;">
<path d="M92910 78070
L92670 78070
L92640 78310
L92670 78280
L92720 78260
L92840 78260
L92890 78280
L92910 78310
L92930 78360
L92930 78480
L92910 78530
L92890 78550
L92840 78580
L92720 78580
L92670 78550
L92640 78530
" />
</g>
<g style="fill:#840000; fill-opacity:0.0; 
stroke:#840000; stroke-width:100; stroke-opacity:1; 
stroke-linecap:round; stroke-linejoin:round;">
</g>
<g style="fill:#840000; fill-opacity:0.0; 
stroke:#840000; stroke-width:60; stroke-opacity:1; 
stroke-linecap:round; stroke-linejoin:round;">
<path d="M112570 78070
L112470 78070
L112420 78090
L112400 78110
L112350 78190
L112320 78280
L112320 78480
L112350 78530
L112370 78550
L112420 78580
L112520 78580
L112570 78550
L112590 78530
L112610 78480
L112610 78360
L112590 78310
L112570 78280
L112520 78260
L112420 78260
L112370 78280
L112350 78310
L112320 78360
" />
</g>
<g style="fill:#840000; fill-opacity:0.0; 
stroke:#840000; stroke-width:100; stroke-opacity:1; 
stroke-linecap:round; stroke-linejoin:round;">
</g>
<g style="fill:#840000; fill-opacity:0.0; 
stroke:#840000; stroke-width:60; stroke-opacity:1; 
stroke-linecap:round; stroke-linejoin:round;">
<path d="M3940 23620
L4720 23620
" />
</g>
<g style="fill:#840000; fill-opacity:0.0; 
stroke:#840000; stroke-width:100; stroke-opacity:1; 
stroke-linecap:round; stroke-linejoin:round;">
</g>
<g style="fill:#840000; fill-opacity:0.0; 
stroke:#840000; stroke-width:60; stroke-opacity:1; 
stroke-linecap:round; stroke-linejoin:round;">
<path d="M3940 43310
L4720 43310
" />
</g>
<g style="fill:#840000; fill-opacity:0.0; 
stroke:#840000; stroke-width:100; stroke-opacity:1; 
stroke-linecap:round; stroke-linejoin:round;">
</g>
<g style="fill:#840000; fill-opacity:0.0; 
stroke:#840000; stroke-width:60; stroke-opacity:1; 
stroke-linecap:round; stroke-linejoin:round;">
<path d="M3940 62990
L4720 62990
" />
</g>
<g style="fill:#840000; fill-opacity:0.0; 
stroke:#840000; stroke-width:100; stroke-opacity:1; 
stroke-linecap:round; stroke-linejoin:round;">
</g>
<g style="fill:#840000; fill-opacity:0.0; 
stroke:#840000; stroke-width:60; stroke-opacity:1; 
stroke-linecap:round; stroke-linejoin:round;">
<path d="M4200 13860
L4450 13860
" />
<path d="M4160 14010
L4330 13500
L4500 14010
" />
</g>
<g style="fill:#840000; fill-opacity:0.0; 
stroke:#840000; stroke-width:100; stroke-opacity:1; 
stroke-linecap:round; stroke-linejoin:round;">
</g>
<g style="fill:#840000; fill-opacity:0.0; 
stroke:#840000; stroke-width:60; stroke-opacity:1; 
stroke-linecap:round; stroke-linejoin:round;">
<path d="M4360 33420
L4430 33440
L4460 33470
L4480 33520
L4480 33590
L4460 33640
L4430 33660
L4390 33690
L4190 33690
L4190 33180
L4360 33180
L4410 33200
L4430 33220
L4460 33270
L4460 33320
L4430 33370
L4410 33390
L4360 33420
L4190 33420
" />
</g>
<g style="fill:#840000; fill-opacity:0.0; 
stroke:#840000; stroke-width:100; stroke-opacity:1; 
stroke-linecap:round; stroke-linejoin:round;">
</g>
<g style="fill:#840000; fill-opacity:0.0; 
stroke:#840000; stroke-width:60; stroke-opacity:1; 
stroke-linecap:round; stroke-linejoin:round;">
<path d="M4480 53330
L4460 53350
L4390 53380
L4340 53380
L4260 53350
L4220 53300
L4190 53250
L4170 53160
L4170 53080
L4190 52990
L4220 52940
L4260 52890
L4340 52870
L4390 52870
L4460 52890
L4480 52910
" />
</g>
<g style="fill:#840000; fill-opacity:0.0; 
stroke:#840000; stroke-width:100; stroke-opacity:1; 
stroke-linecap:round; stroke-linejoin:round;">
</g>
<g style="fill:#840000; fill-opacity:0.0; 
stroke:#840000; stroke-width:60; stroke-opacity:1; 
stroke-linecap:round; stroke-linejoin:round;">
<path d="M4190 73060
L4190 72550
L4310 72550
L4390 72570
L4430 72620
L4460 72670
L4480 72760
L4480 72840
L4460 72930
L4430 72980
L4390 73030
L4310 73060
L4190 73060
" />
</g>
<g style="fill:#840000; fill-opacity:0.0; 
stroke:#840000; stroke-width:100; stroke-opacity:1; 
stroke-linecap:round; stroke-linejoin:round;">
</g>
<g style="fill:#840000; fill-opacity:0.0; 
stroke:#840000; stroke-width:60; stroke-opacity:1; 
stroke-linecap:round; stroke-linejoin:round;">
<path d="M112990 23620
L112210 23620
" />
</g>
<g style="fill:#840000; fill-opacity:0.0; 
stroke:#840000; stroke-width:100; stroke-opacity:1; 
stroke-linecap:round; stroke-linejoin:round;">
</g>
<g style="fill:#840000; fill-opacity:0.0; 
stroke:#840000; stroke-width:60; stroke-opacity:1; 
stroke-linecap:round; stroke-linejoin:round;">
<path d="M112990 43310
L112210 43310
" />
</g>
<g style="fill:#840000; fill-opacity:0.0; 
stroke:#840000; stroke-width:100; stroke-opacity:1; 
stroke-linecap:round; stroke-linejoin:round;">
</g>
<g style="fill:#840000; fill-opacity:0.0; 
stroke:#840000; stroke-width:60; stroke-opacity:1; 
stroke-linecap:round; stroke-linejoin:round;">
<path d="M112990 62990
L112210 62990
" />
</g>
<g style="fill:#840000; fill-opacity:0.0; 
stroke:#840000; stroke-width:100; stroke-opacity:1; 
stroke-linecap:round; stroke-linejoin:round;">
</g>
<g style="fill:#840000; fill-opacity:0.0; 
stroke:#840000; stroke-width:60; stroke-opacity:1; 
stroke-linecap:round; stroke-linejoin:round;">
<path d="M112470 13860
L112720 13860
" />
<path d="M112430 14010
L112600 13500
L112770 14010
" />
</g>
<g style="fill:#840000; fill-opacity:0.0; 
stroke:#840000; stroke-width:100; stroke-opacity:1; 
stroke-linecap:round; stroke-linejoin:round;">
</g>
<g style="fill:#840000; fill-opacity:0.0; 
stroke:#840000; stroke-width:60; stroke-opacity:1; 
stroke-linecap:round; stroke-linejoin:round;">
<path d="M112630 33420
L112700 33440
L112730 33470
L112750 33520
L112750 33590
L112730 33640
L112700 33660
L112660 33690
L112460 33690
L112460 33180
L112630 33180
L112680 33200
L112700 33220
L112730 33270
L112730 33320
L112700 33370
L112680 33390
L112630 33420
L112460 33420
" />
</g>
<g style="fill:#840000; fill-opacity:0.0; 
stroke:#840000; stroke-width:100; stroke-opacity:1; 
stroke-linecap:round; stroke-linejoin:round;">
</g>
<g style="fill:#840000; fill-opacity:0.0; 
stroke:#840000; stroke-width:60; stroke-opacity:1; 
stroke-linecap:round; stroke-linejoin:round;">
<path d="M112750 53330
L112730 53350
L112660 53380
L112610 53380
L112530 53350
L112490 53300
L112460 53250
L112440 53160
L112440 53080
L112460 52990
L112490 52940
L112530 52890
L112610 52870
L112660 52870
L112730 52890
L112750 52910
" />
</g>
<g style="fill:#840000; fill-opacity:0.0; 
stroke:#840000; stroke-width:100; stroke-opacity:1; 
stroke-linecap:round; stroke-linejoin:round;">
</g>
<g style="fill:#840000; fill-opacity:0.0; 
stroke:#840000; stroke-width:60; stroke-opacity:1; 
stroke-linecap:round; stroke-linejoin:round;">
<path d="M112460 73060
L112460 72550
L112580 72550
L112660 72570
L112700 72620
L112730 72670
L112750 72760
L112750 72840
L112730 72930
L112700 72980
L112660 73030
L112580 73060
L112460 73060
" />
</g>
<g style="fill:#840000; fill-opacity:0.0; 
stroke:#840000; stroke-width:100; stroke-opacity:1; 
stroke-linecap:round; stroke-linejoin:round;">
</g>
<g style="fill:#840000; fill-opacity:0.0; 
stroke:#840000; stroke-width:60; stroke-opacity:1; 
stroke-linecap:round; stroke-linejoin:round;">
<path d="M78910 76290
L78910 75700
L79050 75700
L79130 75730
L79190 75790
L79210 75840
L79240 75950
L79240 76040
L79210 76150
L79190 76210
L79130 76260
L79050 76290
L78910 76290
" />
<path d="M79750 76290
L79750 75980
L79720 75930
L79660 75900
L79550 75900
L79500 75930
" />
<path d="M79750 76260
L79690 76290
L79550 76290
L79500 76260
L79470 76210
L79470 76150
L79500 76100
L79550 76070
L79690 76070
L79750 76040
" />
<path d="M79950 75900
L80170 75900
" />
<path d="M80030 75700
L80030 76210
L80060 76260
L80110 76290
L80170 76290
" />
<path d="M80590 76260
L80540 76290
L80420 76290
L80370 76260
L80340 76210
L80340 75980
L80370 75930
L80420 75900
L80540 75900
L80590 75930
L80620 75980
L80620 76040
L80340 76100
" />
<path d="M80870 76240
L80900 76260
L80870 76290
L80840 76260
L80870 76240
L80870 76290
" />
<path d="M80870 75930
L80900 75950
L80870 75980
L80840 75950
L80870 75930
L80870 75980
" />
</g>
<g style="fill:#840000; fill-opacity:0.0; 
stroke:#840000; stroke-width:100; stroke-opacity:1; 
stroke-linecap:round; stroke-linejoin:round;">
</g>
<g style="fill:#840000; fill-opacity:0.0; 
stroke:#840000; stroke-width:60; stroke-opacity:1; 
stroke-linecap:round; stroke-linejoin:round;">
<path d="M69690 76580
L112210 76580
" />
</g>
<g style="fill:#840000; fill-opacity:0.0; 
stroke:#840000; stroke-width:100; stroke-opacity:1; 
stroke-linecap:round; stroke-linejoin:round;">
</g>
<g style="fill:#840000; fill-opacity:0.0; 
stroke:#840000; stroke-width:60; stroke-opacity:1; 
stroke-linecap:round; stroke-linejoin:round;">
<path d="M70250 77390
L70250 76800
" />
<path d="M70580 77390
L70330 77050
" />
<path d="M70580 76800
L70250 77140
" />
<path d="M70840 77390
L70840 77000
" />
<path d="M70840 76800
L70810 76830
L70840 76860
L70860 76830
L70840 76800
L70840 76860
" />
<path d="M71450 77340
L71430 77360
L71340 77390
L71290 77390
L71200 77360
L71140 77310
L71120 77250
L71090 77140
L71090 77050
L71120 76940
L71140 76890
L71200 76830
L71290 76800
L71340 76800
L71430 76830
L71450 76860
" />
<path d="M71960 77390
L71960 77080
L71930 77030
L71880 77000
L71760 77000
L71710 77030
" />
<path d="M71960 77360
L71900 77390
L71760 77390
L71710 77360
L71680 77310
L71680 77250
L71710 77200
L71760 77170
L71900 77170
L71960 77140
" />
<path d="M72490 77390
L72490 76800
" />
<path d="M72490 77360
L72440 77390
L72320 77390
L72270 77360
L72240 77340
L72210 77280
L72210 77110
L72240 77050
L72270 77030
L72320 77000
L72440 77000
L72490 77030
" />
<path d="M73220 77080
L73420 77080
" />
<path d="M73500 77390
L73220 77390
L73220 76800
L73500 76800
" />
<path d="M73760 77340
L73790 77360
L73760 77390
L73730 77360
L73760 77340
L73760 77390
" />
<path d="M74040 77390
L74040 76800
L74180 76800
L74260 76830
L74320 76890
L74350 76940
L74380 77050
L74380 77140
L74350 77250
L74320 77310
L74260 77360
L74180 77390
L74040 77390
" />
<path d="M74630 77340
L74660 77360
L74630 77390
L74600 77360
L74630 77340
L74630 77390
" />
<path d="M74880 77220
L75160 77220
" />
<path d="M74830 77390
L75020 76800
L75220 77390
" />
<path d="M75420 77340
L75440 77360
L75420 77390
L75390 77360
L75420 77340
L75420 77390
" />
<path d="M76600 77390
L76600 76800
" />
<path d="M76650 77170
L76820 77390
" />
<path d="M76820 77000
L76600 77220
" />
<path d="M77070 77390
L77070 77000
" />
<path d="M77070 76800
L77040 76830
L77070 76860
L77100 76830
L77070 76800
L77070 76860
" />
<path d="M77610 77360
L77550 77390
L77440 77390
L77380 77360
L77350 77340
L77330 77280
L77330 77110
L77350 77050
L77380 77030
L77440 77000
L77550 77000
L77610 77030
" />
<path d="M78110 77390
L78110 77080
L78080 77030
L78030 77000
L77920 77000
L77860 77030
" />
<path d="M78110 77360
L78060 77390
L77920 77390
L77860 77360
L77830 77310
L77830 77250
L77860 77200
L77920 77170
L78060 77170
L78110 77140
" />
<path d="M78650 77390
L78650 76800
" />
<path d="M78650 77360
L78590 77390
L78480 77390
L78420 77360
L78390 77340
L78370 77280
L78370 77110
L78390 77050
L78420 77030
L78480 77000
L78590 77000
L78650 77030
" />
<path d="M79550 77620
L79520 77590
L79460 77500
L79430 77450
L79400 77360
L79380 77220
L79380 77110
L79400 76970
L79430 76890
L79460 76830
L79520 76750
L79550 76720
" />
<path d="M80050 76800
L79770 76800
L79740 77080
L79770 77050
L79830 77030
L79970 77030
L80020 77050
L80050 77080
L80080 77140
L80080 77280
L80050 77340
L80020 77360
L79970 77390
L79830 77390
L79770 77360
L79740 77340
" />
<path d="M80330 77340
L80360 77360
L80330 77390
L80300 77360
L80330 77340
L80330 77390
" />
<path d="M80730 76800
L80780 76800
L80840 76830
L80870 76860
L80890 76910
L80920 77030
L80920 77170
L80890 77280
L80870 77340
L80840 77360
L80780 77390
L80730 77390
L80670 77360
L80640 77340
L80610 77280
L80580 77170
L80580 77030
L80610 76910
L80640 76860
L80670 76830
L80730 76800
" />
<path d="M81170 77340
L81200 77360
L81170 77390
L81150 77360
L81170 77340
L81170 77390
" />
<path d="M81570 76800
L81620 76800
L81680 76830
L81710 76860
L81740 76910
L81760 77030
L81760 77170
L81740 77280
L81710 77340
L81680 77360
L81620 77390
L81570 77390
L81510 77360
L81480 77340
L81460 77280
L81430 77170
L81430 77030
L81460 76910
L81480 76860
L81510 76830
L81570 76800
" />
<path d="M81960 77620
L81990 77590
L82050 77500
L82070 77450
L82100 77360
L82130 77220
L82130 77110
L82100 76970
L82070 76890
L82050 76830
L81990 76750
L81960 76720
" />
</g>
<g style="fill:#840000; fill-opacity:0.0; 
stroke:#840000; stroke-width:100; stroke-opacity:1; 
stroke-linecap:round; stroke-linejoin:round;">
</g>
<g style="fill:#840000; fill-opacity:0.0; 
stroke:#840000; stroke-width:60; stroke-opacity:1; 
stroke-linecap:round; stroke-linejoin:round;">
<path d="M69690 75400
L112210 75400
" />
</g>
<g style="fill:#840000; fill-opacity:0.0; 
stroke:#840000; stroke-width:100; stroke-opacity:1; 
stroke-linecap:round; stroke-linejoin:round;">
</g>
<g style="fill:#840000; fill-opacity:0.0; 
stroke:#840000; stroke-width:120; stroke-opacity:1; 
stroke-linecap:round; stroke-linejoin:round;">
<path d="M104090 76290
L103890 76010
" />
<path d="M103750 76290
L103750 75700
L103980 75700
L104030 75730
L104060 75760
L104090 75810
L104090 75900
L104060 75950
L104030 75980
L103980 76010
L103750 76010
" />
<path d="M104570 76260
L104510 76290
L104400 76290
L104340 76260
L104320 76210
L104320 75980
L104340 75930
L104400 75900
L104510 75900
L104570 75930
L104600 75980
L104600 76040
L104320 76100
" />
<path d="M104790 75900
L104930 76290
L105070 75900
" />
<path d="M105300 76240
L105330 76260
L105300 76290
L105270 76260
L105300 76240
L105300 76290
" />
<path d="M105300 75930
L105330 75950
L105300 75980
L105270 75950
L105300 75930
L105300 75980
" />
</g>
<g style="fill:#840000; fill-opacity:0.0; 
stroke:#840000; stroke-width:100; stroke-opacity:1; 
stroke-linecap:round; stroke-linejoin:round;">
</g>
<g style="fill:#840000; fill-opacity:0.0; 
stroke:#840000; stroke-width:60; stroke-opacity:1; 
stroke-linecap:round; stroke-linejoin:round;">
<path d="M70220 76260
L70300 76290
L70440 76290
L70500 76260
L70530 76240
L70550 76180
L70550 76120
L70530 76070
L70500 76040
L70440 76010
L70330 75980
L70270 75950
L70250 75930
L70220 75870
L70220 75810
L70250 75760
L70270 75730
L70330 75700
L70470 75700
L70550 75730
" />
<path d="M70810 76290
L70810 75900
" />
<path d="M70810 75700
L70780 75730
L70810 75760
L70840 75730
L70810 75700
L70810 75760
" />
<path d="M71030 75900
L71340 75900
L71030 76290
L71340 76290
" />
<path d="M71790 76260
L71730 76290
L71620 76290
L71570 76260
L71540 76210
L71540 75980
L71570 75930
L71620 75900
L71730 75900
L71790 75930
L71820 75980
L71820 76040
L71540 76100
" />
<path d="M72070 76240
L72100 76260
L72070 76290
L72040 76260
L72070 76240
L72070 76290
" />
<path d="M72070 75930
L72100 75950
L72070 75980
L72040 75950
L72070 75930
L72070 75980
" />
<path d="M72770 76120
L73060 76120
" />
<path d="M72720 76290
L72910 75700
L73110 76290
" />
<path d="M73560 75900
L73560 76290
" />
<path d="M73420 75670
L73280 76100
L73650 76100
" />
</g>
<g style="fill:#840000; fill-opacity:0.0; 
stroke:#840000; stroke-width:100; stroke-opacity:1; 
stroke-linecap:round; stroke-linejoin:round;">
</g>
<g style="fill:#840000; fill-opacity:0.0; 
stroke:#840000; stroke-width:60; stroke-opacity:1; 
stroke-linecap:round; stroke-linejoin:round;">
<path d="M103710 77390
L103710 76800
" />
<path d="M104240 77390
L104240 76800
" />
<path d="M104240 77360
L104180 77390
L104070 77390
L104010 77360
L103990 77340
L103960 77280
L103960 77110
L103990 77050
L104010 77030
L104070 77000
L104180 77000
L104240 77030
" />
<path d="M104520 77340
L104550 77360
L104520 77390
L104490 77360
L104520 77340
L104520 77390
" />
<path d="M104520 77030
L104550 77050
L104520 77080
L104490 77050
L104520 77030
L104520 77080
" />
<path d="M105190 76800
L105560 76800
L105360 77030
L105450 77030
L105500 77050
L105530 77080
L105560 77140
L105560 77280
L105530 77340
L105500 77360
L105450 77390
L105280 77390
L105220 77360
L105190 77340
" />
<path d="M106230 76770
L105730 77530
" />
<path d="M106370 76800
L106740 76800
L106540 77030
L106630 77030
L106680 77050
L106710 77080
L106740 77140
L106740 77280
L106710 77340
L106680 77360
L106630 77390
L106460 77390
L106400 77360
L106370 77340
" />
</g>
<g style="fill:#840000; fill-opacity:0.0; 
stroke:#840000; stroke-width:100; stroke-opacity:1; 
stroke-linecap:round; stroke-linejoin:round;">
</g>
<g style="fill:#840000; fill-opacity:0.0; 
stroke:#840000; stroke-width:60; stroke-opacity:1; 
stroke-linecap:round; stroke-linejoin:round;">
<path d="M69690 73820
L112210 73820
" />
</g>
<g style="fill:#840000; fill-opacity:0.0; 
stroke:#840000; stroke-width:100; stroke-opacity:1; 
stroke-linecap:round; stroke-linejoin:round;">
</g>
<g style="fill:#840000; fill-opacity:0.0; 
stroke:#840000; stroke-width:160; stroke-opacity:1; 
stroke-linecap:round; stroke-linejoin:round;">
<path d="M70360 74090
L70810 74090
" />
<path d="M70480 74880
L70580 74090
" />
<path d="M70970 74880
L71040 74360
" />
<path d="M71070 74090
L71030 74130
L71060 74170
L71110 74130
L71070 74090
L71060 74170
" />
<path d="M71300 74360
L71600 74360
" />
<path d="M71450 74090
L71360 74770
L71390 74840
L71460 74880
L71540 74880
" />
<path d="M71910 74880
L71840 74840
L71820 74770
L71900 74090
" />
<path d="M72520 74840
L72440 74880
L72290 74880
L72220 74840
L72190 74770
L72230 74470
L72280 74390
L72360 74360
L72510 74360
L72580 74390
L72610 74470
L72600 74540
L72210 74620
" />
<path d="M72900 74810
L72930 74840
L72890 74880
L72860 74840
L72900 74810
L72890 74880
" />
<path d="M72950 74390
L72990 74430
L72940 74470
L72910 74430
L72950 74390
L72940 74470
" />
</g>
<g style="fill:#840000; fill-opacity:0.0; 
stroke:#840000; stroke-width:100; stroke-opacity:1; 
stroke-linecap:round; stroke-linejoin:round;">
</g>
<g style="fill:#840000; fill-opacity:0.0; 
stroke:#840000; stroke-width:60; stroke-opacity:1; 
stroke-linecap:round; stroke-linejoin:round;">
<path d="M70440 73060
L70250 73060
" />
<path d="M70250 73370
L70250 72780
L70530 72780
" />
<path d="M70750 73370
L70750 72980
" />
<path d="M70750 72780
L70720 72810
L70750 72840
L70780 72810
L70750 72780
L70750 72840
" />
<path d="M71120 73370
L71060 73340
L71030 73290
L71030 72780
" />
<path d="M71570 73340
L71510 73370
L71400 73370
L71340 73340
L71310 73290
L71310 73060
L71340 73010
L71400 72980
L71510 72980
L71570 73010
L71590 73060
L71590 73120
L71310 73180
" />
<path d="M71850 73320
L71880 73340
L71850 73370
L71820 73340
L71850 73320
L71850 73370
" />
<path d="M71850 73010
L71880 73030
L71850 73060
L71820 73030
L71850 73010
L71850 73060
" />
<path d="M72550 73200
L72830 73200
" />
<path d="M72490 73370
L72690 72780
L72890 73370
" />
<path d="M73000 72980
L73220 72980
" />
<path d="M73080 72780
L73080 73290
L73110 73340
L73170 73370
L73220 73370
" />
<path d="M73500 73370
L73450 73340
L73420 73320
L73390 73260
L73390 73090
L73420 73030
L73450 73010
L73500 72980
L73590 72980
L73650 73010
L73670 73030
L73700 73090
L73700 73260
L73670 73320
L73650 73340
L73590 73370
L73500 73370
" />
<path d="M73950 73370
L73950 72980
" />
<path d="M73950 73030
L73980 73010
L74040 72980
L74120 72980
L74180 73010
L74210 73060
L74210 73370
" />
<path d="M74210 73060
L74240 73010
L74290 72980
L74380 72980
L74430 73010
L74460 73060
L74460 73370
" />
<path d="M74740 73370
L74740 72980
" />
<path d="M74740 72780
L74710 72810
L74740 72840
L74770 72810
L74740 72780
L74740 72840
" />
<path d="M74970 72980
L75270 72980
L74970 73370
L75270 73370
" />
<path d="M75720 73340
L75670 73370
L75560 73370
L75500 73340
L75470 73290
L75470 73060
L75500 73010
L75560 72980
L75670 72980
L75720 73010
L75750 73060
L75750 73120
L75470 73180
" />
<path d="M76010 73370
L76010 72980
" />
<path d="M76010 73090
L76030 73030
L76060 73010
L76120 72980
L76170 72980
" />
<path d="M76230 73430
L76680 73430
" />
<path d="M76760 72780
L77130 72780
L76930 73010
L77020 73010
L77070 73030
L77100 73060
L77130 73120
L77130 73260
L77100 73320
L77070 73340
L77020 73370
L76850 73370
L76790 73340
L76760 73320
" />
<path d="M77380 73370
L77380 72780
L77610 72780
L77660 72810
L77690 72840
L77720 72890
L77720 72980
L77690 73030
L77660 73060
L77610 73090
L77380 73090
" />
<path d="M77970 73370
L77970 72780
L78110 72780
L78200 72810
L78250 72870
L78280 72920
L78310 73030
L78310 73120
L78280 73230
L78250 73290
L78200 73340
L78110 73370
L77970 73370
" />
<path d="M78480 72780
L78810 72780
" />
<path d="M78650 73370
L78650 72780
" />
<path d="M79010 73320
L79040 73340
L79010 73370
L78980 73340
L79010 73320
L79010 73370
" />
<path d="M79260 73340
L79320 73370
L79430 73370
L79490 73340
L79520 73290
L79520 73260
L79490 73200
L79430 73180
L79350 73180
L79290 73150
L79260 73090
L79260 73060
L79290 73010
L79350 72980
L79430 72980
L79490 73010
" />
<path d="M80020 73340
L79970 73370
L79850 73370
L79800 73340
L79770 73320
L79740 73260
L79740 73090
L79770 73030
L79800 73010
L79850 72980
L79970 72980
L80020 73010
" />
<path d="M80280 73370
L80280 72780
" />
<path d="M80530 73370
L80530 73060
L80500 73010
L80440 72980
L80360 72980
L80300 73010
L80280 73030
" />
</g>
<g style="fill:#840000; fill-opacity:0.0; 
stroke:#840000; stroke-width:100; stroke-opacity:1; 
stroke-linecap:round; stroke-linejoin:round;">
</g>
<g style="fill:#840000; fill-opacity:0.0; 
stroke:#840000; stroke-width:60; stroke-opacity:1; 
stroke-linecap:round; stroke-linejoin:round;">
<path d="M69690 71460
L112210 71460
" />
</g>
<g style="fill:#840000; fill-opacity:0.0; 
stroke:#840000; stroke-width:100; stroke-opacity:1; 
stroke-linecap:round; stroke-linejoin:round;">
</g>
<g style="fill:#840000; fill-opacity:0.0; 
stroke:#840000; stroke-width:60; stroke-opacity:1; 
stroke-linecap:round; stroke-linejoin:round;">
<path d="M70220 72280
L70300 72310
L70440 72310
L70500 72280
L70530 72260
L70550 72200
L70550 72140
L70530 72090
L70500 72060
L70440 72030
L70330 72000
L70270 71970
L70250 71950
L70220 71890
L70220 71830
L70250 71780
L70270 71750
L70330 71720
L70470 71720
L70550 71750
" />
<path d="M70810 72310
L70810 71720
" />
<path d="M71060 72310
L71060 72000
L71030 71950
L70980 71920
L70890 71920
L70840 71950
L70810 71970
" />
<path d="M71570 72280
L71510 72310
L71400 72310
L71340 72280
L71310 72230
L71310 72000
L71340 71950
L71400 71920
L71510 71920
L71570 71950
L71590 72000
L71590 72060
L71310 72120
" />
<path d="M72070 72280
L72020 72310
L71900 72310
L71850 72280
L71820 72230
L71820 72000
L71850 71950
L71900 71920
L72020 71920
L72070 71950
L72100 72000
L72100 72060
L71820 72120
" />
<path d="M72270 71920
L72490 71920
" />
<path d="M72350 71720
L72350 72230
L72380 72280
L72440 72310
L72490 72310
" />
<path d="M72690 72260
L72720 72280
L72690 72310
L72660 72280
L72690 72260
L72690 72310
" />
<path d="M72690 71950
L72720 71970
L72690 72000
L72660 71970
L72690 71950
L72690 72000
" />
<path d="M73840 71690
L73340 72450
" />
<path d="M74010 72140
L74290 72140
" />
<path d="M73950 72310
L74150 71720
L74350 72310
" />
<path d="M74460 71920
L74680 71920
" />
<path d="M74540 71720
L74540 72230
L74570 72280
L74630 72310
L74680 72310
" />
<path d="M74970 72310
L74910 72280
L74880 72260
L74850 72200
L74850 72030
L74880 71970
L74910 71950
L74970 71920
L75050 71920
L75110 71950
L75130 71970
L75160 72030
L75160 72200
L75130 72260
L75110 72280
L75050 72310
L74970 72310
" />
<path d="M75420 72310
L75420 71920
" />
<path d="M75420 71970
L75440 71950
L75500 71920
L75580 71920
L75640 71950
L75670 72000
L75670 72310
" />
<path d="M75670 72000
L75700 71950
L75750 71920
L75840 71920
L75890 71950
L75920 72000
L75920 72310
" />
<path d="M76200 72310
L76200 71920
" />
<path d="M76200 71720
L76170 71750
L76200 71780
L76230 71750
L76200 71720
L76200 71780
" />
<path d="M76430 71920
L76740 71920
L76430 72310
L76740 72310
" />
<path d="M77190 72280
L77130 72310
L77020 72310
L76960 72280
L76930 72230
L76930 72000
L76960 71950
L77020 71920
L77130 71920
L77190 71950
L77210 72000
L77210 72060
L76930 72120
" />
<path d="M77470 72310
L77470 71920
" />
<path d="M77470 72030
L77490 71970
L77520 71950
L77580 71920
L77630 71920
" />
<path d="M77690 72370
L78140 72370
" />
<path d="M78220 71720
L78590 71720
L78390 71950
L78480 71950
L78530 71970
L78560 72000
L78590 72060
L78590 72200
L78560 72260
L78530 72280
L78480 72310
L78310 72310
L78250 72280
L78220 72260
" />
<path d="M78840 72310
L78840 71720
L79070 71720
L79120 71750
L79150 71780
L79180 71830
L79180 71920
L79150 71970
L79120 72000
L79070 72030
L78840 72030
" />
<path d="M79430 72310
L79430 71720
L79570 71720
L79660 71750
L79710 71810
L79740 71860
L79770 71970
L79770 72060
L79740 72170
L79710 72230
L79660 72280
L79570 72310
L79430 72310
" />
<path d="M79940 71720
L80280 71720
" />
<path d="M80110 72310
L80110 71720
" />
<path d="M80890 71690
L80390 72450
" />
</g>
<g style="fill:#840000; fill-opacity:0.0; 
stroke:#840000; stroke-width:100; stroke-opacity:1; 
stroke-linecap:round; stroke-linejoin:round;">
</g>
<g style="fill:#840000; fill-opacity:0.0; 
stroke:#840000; stroke-width:60; stroke-opacity:1; 
stroke-linecap:round; stroke-linejoin:round;">
<path d="M77560 75400
L77560 76580
" />
</g>
<g style="fill:#840000; fill-opacity:0.0; 
stroke:#840000; stroke-width:100; stroke-opacity:1; 
stroke-linecap:round; stroke-linejoin:round;">
</g>
<g style="fill:#840000; fill-opacity:0.0; 
stroke:#840000; stroke-width:60; stroke-opacity:1; 
stroke-linecap:round; stroke-linejoin:round;">
<path d="M102760 75400
L102760 77960
" />
</g>
<g style="fill:#840000; fill-opacity:0.0; 
stroke:#840000; stroke-width:0; stroke-opacity:1; 
stroke-linecap:round; stroke-linejoin:round;">
</g>
<g style="fill:#840000; fill-opacity:0.0; 
stroke:#840000; stroke-width:40; stroke-opacity:1; 
stroke-linecap:round; stroke-linejoin:round;">
<circle cx="82200" cy="29000" r="200" /> 
<circle cx="83800" cy="30000" r="200" /> 
<circle cx="83800" cy="28000" r="200" /> 
<polyline fill="none;"
points="82400,28900
83650,28100
" /> 
<path d="M84000 28000
L85000 28000
" />
<path d="M84640 28550
L84350 28550
" />
<path d="M84500 28550
L84500 28050
L84450 28120
L84400 28170
L84350 28190
" />
<path d="M82000 29000
L81000 29000
" />
<path d="M81350 29100
L81380 29080
L81420 29050
L81540 29050
L81590 29080
L81610 29100
L81640 29150
L81640 29190
L81610 29270
L81330 29550
L81640 29550
" />
<path d="M84000 30000
L85000 30000
" />
<path d="M84330 30050
L84640 30050
L84470 30240
L84540 30240
L84590 30270
L84610 30290
L84640 30340
L84640 30460
L84610 30500
L84590 30530
L84540 30550
L84400 30550
L84350 30530
L84330 30500
" />
</g>
<g style="fill:#008484; fill-opacity:0.0; 
stroke:#008484; stroke-width:40; stroke-opacity:1; 
stroke-linecap:round; stroke-linejoin:round;">
<path d="M81440 26370
L81510 26390
L81630 26390
L81670 26370
L81700 26340
L81720 26300
L81720 26250
L81700 26200
L81670 26180
L81630 26150
L81530 26130
L81480 26110
L81460 26080
L81440 26030
L81440 25990
L81460 25940
L81480 25920
L81530 25890
L81650 25890
L81720 25920
" />
<path d="M81890 25890
L82010 26390
L82100 26030
L82200 26390
L82320 25890
" />
<path d="M82390 26440
L82770 26440
" />
<path d="M82890 26130
L83050 26130
" />
<path d="M83130 26390
L82890 26390
L82890 25890
L83130 25890
" />
<path d="M83340 26390
L83340 25890
L83630 26390
L83630 25890
" />
<path d="M84130 26390
L83840 26390
" />
<path d="M83980 26390
L83980 25890
L83940 25960
L83890 26010
L83840 26030
" />
<path d="M84320 26250
L84550 26250
" />
<path d="M84270 26390
L84440 25890
L84600 26390
" />
<path d="M80160 27280
L80230 27300
L80350 27300
L80400 27280
L80420 27250
L80450 27210
L80450 27160
L80420 27110
L80400 27090
L80350 27060
L80260 27040
L80210 27020
L80190 26990
L80160 26940
L80160 26900
L80190 26850
L80210 26830
L80260 26800
L80380 26800
L80450 26830
" />
<path d="M80610 26800
L80730 27300
L80830 26940
L80920 27300
L81040 26800
" />
<path d="M81110 27350
L81500 27350
" />
<path d="M81570 26800
L81880 26800
L81710 26990
L81780 26990
L81830 27020
L81850 27040
L81880 27090
L81880 27210
L81850 27250
L81830 27280
L81780 27300
L81640 27300
L81590 27280
L81570 27250
" />
<path d="M82090 27300
L82090 26800
L82280 26800
L82330 26830
L82350 26850
L82380 26900
L82380 26970
L82350 27020
L82330 27040
L82280 27060
L82090 27060
" />
<path d="M82590 27300
L82590 26800
L82710 26800
L82780 26830
L82830 26870
L82850 26920
L82880 27020
L82880 27090
L82850 27180
L82830 27230
L82780 27280
L82710 27300
L82590 27300
" />
<path d="M83020 26800
L83300 26800
" />
<path d="M83160 27300
L83160 26800
" />
<path d="M83350 27350
L83730 27350
" />
<path d="M83920 27300
L83880 27280
L83850 27250
L83830 27210
L83830 27060
L83850 27020
L83880 26990
L83920 26970
L84000 26970
L84040 26990
L84070 27020
L84090 27060
L84090 27210
L84070 27250
L84040 27280
L84000 27300
L83920 27300
" />
<path d="M84300 26970
L84300 27300
" />
<path d="M84300 27020
L84330 26990
L84380 26970
L84450 26970
L84500 26990
L84520 27040
L84520 27300
" />
<path d="M84640 27350
L85020 27350
" />
<path d="M85210 27300
L85160 27280
L85140 27250
L85110 27210
L85110 27060
L85140 27020
L85160 26990
L85210 26970
L85280 26970
L85330 26990
L85350 27020
L85380 27060
L85380 27210
L85350 27250
L85330 27280
L85280 27300
L85210 27300
" />
<path d="M85590 26970
L85590 27300
" />
<path d="M85590 27020
L85610 26990
L85660 26970
L85730 26970
L85780 26990
L85800 27040
L85800 27300
" />
</g>
<g style="fill:#008484; fill-opacity:0.0; 
stroke:#008484; stroke-width:0; stroke-opacity:1; 
stroke-linecap:round; stroke-linejoin:round;">
</g>
<g style="fill:#840000; fill-opacity:0.0; 
stroke:#840000; stroke-width:0; stroke-opacity:1; 
stroke-linecap:round; stroke-linejoin:round;">
</g>
<g style="fill:#840000; fill-opacity:0.0; 
stroke:#840000; stroke-width:40; stroke-opacity:1; 
stroke-linecap:round; stroke-linejoin:round;">
<circle cx="82200" cy="35000" r="200" /> 
<circle cx="83800" cy="36000" r="200" /> 
<circle cx="83800" cy="34000" r="200" /> 
<polyline fill="none;"
points="82400,34900
83650,34100
" /> 
<path d="M84000 34000
L85000 34000
" />
<path d="M84590 34220
L84590 34550
" />
<path d="M84470 34030
L84350 34380
L84660 34380
" />
<path d="M82000 35000
L81000 35000
" />
<path d="M81610 35050
L81380 35050
L81350 35290
L81380 35270
L81420 35240
L81540 35240
L81590 35270
L81610 35290
L81640 35340
L81640 35460
L81610 35500
L81590 35530
L81540 35550
L81420 35550
L81380 35530
L81350 35500
" />
<path d="M84000 36000
L85000 36000
" />
<path d="M84590 36050
L84500 36050
L84450 36080
L84420 36100
L84380 36170
L84350 36270
L84350 36460
L84380 36500
L84400 36530
L84450 36550
L84540 36550
L84590 36530
L84610 36500
L84640 36460
L84640 36340
L84610 36290
L84590 36270
L84540 36240
L84450 36240
L84400 36270
L84380 36290
L84350 36340
" />
</g>
<g style="fill:#008484; fill-opacity:0.0; 
stroke:#008484; stroke-width:40; stroke-opacity:1; 
stroke-linecap:round; stroke-linejoin:round;">
<path d="M81400 32370
L81470 32390
L81590 32390
L81640 32370
L81660 32340
L81690 32300
L81690 32250
L81660 32200
L81640 32180
L81590 32150
L81500 32130
L81450 32110
L81420 32080
L81400 32030
L81400 31990
L81420 31940
L81450 31920
L81500 31890
L81610 31890
L81690 31920
" />
<path d="M81850 31890
L81970 32390
L82070 32030
L82160 32390
L82280 31890
" />
<path d="M82350 32440
L82730 32440
" />
<path d="M82850 32130
L83020 32130
" />
<path d="M83090 32390
L82850 32390
L82850 31890
L83090 31890
" />
<path d="M83300 32390
L83300 31890
L83590 32390
L83590 31890
" />
<path d="M84090 32390
L83800 32390
" />
<path d="M83950 32390
L83950 31890
L83900 31960
L83850 32010
L83800 32030
" />
<path d="M84470 32130
L84540 32150
L84570 32180
L84590 32220
L84590 32300
L84570 32340
L84540 32370
L84500 32390
L84300 32390
L84300 31890
L84470 31890
L84520 31920
L84540 31940
L84570 31990
L84570 32030
L84540 32080
L84520 32110
L84470 32130
L84300 32130
" />
<path d="M80160 33280
L80230 33300
L80350 33300
L80400 33280
L80420 33250
L80450 33210
L80450 33160
L80420 33110
L80400 33090
L80350 33060
L80260 33040
L80210 33020
L80190 32990
L80160 32940
L80160 32900
L80190 32850
L80210 32830
L80260 32800
L80380 32800
L80450 32830
" />
<path d="M80610 32800
L80730 33300
L80830 32940
L80920 33300
L81040 32800
" />
<path d="M81110 33350
L81500 33350
" />
<path d="M81570 32800
L81880 32800
L81710 32990
L81780 32990
L81830 33020
L81850 33040
L81880 33090
L81880 33210
L81850 33250
L81830 33280
L81780 33300
L81640 33300
L81590 33280
L81570 33250
" />
<path d="M82090 33300
L82090 32800
L82280 32800
L82330 32830
L82350 32850
L82380 32900
L82380 32970
L82350 33020
L82330 33040
L82280 33060
L82090 33060
" />
<path d="M82590 33300
L82590 32800
L82710 32800
L82780 32830
L82830 32870
L82850 32920
L82880 33020
L82880 33090
L82850 33180
L82830 33230
L82780 33280
L82710 33300
L82590 33300
" />
<path d="M83020 32800
L83300 32800
" />
<path d="M83160 33300
L83160 32800
" />
<path d="M83350 33350
L83730 33350
" />
<path d="M83920 33300
L83880 33280
L83850 33250
L83830 33210
L83830 33060
L83850 33020
L83880 32990
L83920 32970
L84000 32970
L84040 32990
L84070 33020
L84090 33060
L84090 33210
L84070 33250
L84040 33280
L84000 33300
L83920 33300
" />
<path d="M84300 32970
L84300 33300
" />
<path d="M84300 33020
L84330 32990
L84380 32970
L84450 32970
L84500 32990
L84520 33040
L84520 33300
" />
<path d="M84640 33350
L85020 33350
" />
<path d="M85210 33300
L85160 33280
L85140 33250
L85110 33210
L85110 33060
L85140 33020
L85160 32990
L85210 32970
L85280 32970
L85330 32990
L85350 33020
L85380 33060
L85380 33210
L85350 33250
L85330 33280
L85280 33300
L85210 33300
" />
<path d="M85590 32970
L85590 33300
" />
<path d="M85590 33020
L85610 32990
L85660 32970
L85730 32970
L85780 32990
L85800 33040
L85800 33300
" />
</g>
<g style="fill:#008484; fill-opacity:0.0; 
stroke:#008484; stroke-width:0; stroke-opacity:1; 
stroke-linecap:round; stroke-linejoin:round;">
</g>
<g style="fill:#840000; fill-opacity:0.0; 
stroke:#840000; stroke-width:0; stroke-opacity:1; 
stroke-linecap:round; stroke-linejoin:round;">
</g>
<g style="fill:#840000; fill-opacity:0.0; 
stroke:#840000; stroke-width:40; stroke-opacity:1; 
stroke-linecap:round; stroke-linejoin:round;">
<circle cx="82200" cy="41000" r="200" /> 
<circle cx="83800" cy="42000" r="200" /> 
<circle cx="83800" cy="40000" r="200" /> 
<polyline fill="none;"
points="82400,40900
83650,40100
" /> 
<path d="M84000 40000
L85000 40000
" />
<path d="M84330 40050
L84660 40050
L84450 40550
" />
<path d="M82000 41000
L81000 41000
" />
<path d="M81450 41270
L81400 41240
L81380 41220
L81350 41170
L81350 41150
L81380 41100
L81400 41080
L81450 41050
L81540 41050
L81590 41080
L81610 41100
L81640 41150
L81640 41170
L81610 41220
L81590 41240
L81540 41270
L81450 41270
L81400 41290
L81380 41310
L81350 41360
L81350 41460
L81380 41500
L81400 41530
L81450 41550
L81540 41550
L81590 41530
L81610 41500
L81640 41460
L81640 41360
L81610 41310
L81590 41290
L81540 41270
" />
<path d="M84000 42000
L85000 42000
" />
<path d="M84400 42550
L84500 42550
L84540 42530
L84570 42500
L84610 42430
L84640 42340
L84640 42150
L84610 42100
L84590 42080
L84540 42050
L84450 42050
L84400 42080
L84380 42100
L84350 42150
L84350 42270
L84380 42310
L84400 42340
L84450 42360
L84540 42360
L84590 42340
L84610 42310
L84640 42270
" />
</g>
<g style="fill:#008484; fill-opacity:0.0; 
stroke:#008484; stroke-width:40; stroke-opacity:1; 
stroke-linecap:round; stroke-linejoin:round;">
<path d="M81400 38370
L81470 38390
L81590 38390
L81640 38370
L81660 38340
L81690 38300
L81690 38250
L81660 38200
L81640 38180
L81590 38150
L81500 38130
L81450 38110
L81420 38080
L81400 38030
L81400 37990
L81420 37940
L81450 37920
L81500 37890
L81610 37890
L81690 37920
" />
<path d="M81850 37890
L81970 38390
L82070 38030
L82160 38390
L82280 37890
" />
<path d="M82350 38440
L82730 38440
" />
<path d="M82850 38130
L83020 38130
" />
<path d="M83090 38390
L82850 38390
L82850 37890
L83090 37890
" />
<path d="M83300 38390
L83300 37890
L83590 38390
L83590 37890
" />
<path d="M84090 38390
L83800 38390
" />
<path d="M83950 38390
L83950 37890
L83900 37960
L83850 38010
L83800 38030
" />
<path d="M84590 38340
L84570 38370
L84500 38390
L84450 38390
L84380 38370
L84330 38320
L84300 38270
L84280 38180
L84280 38110
L84300 38010
L84330 37960
L84380 37920
L84450 37890
L84500 37890
L84570 37920
L84590 37940
" />
<path d="M80160 39280
L80230 39300
L80350 39300
L80400 39280
L80420 39250
L80450 39210
L80450 39160
L80420 39110
L80400 39090
L80350 39060
L80260 39040
L80210 39020
L80190 38990
L80160 38940
L80160 38900
L80190 38850
L80210 38830
L80260 38800
L80380 38800
L80450 38830
" />
<path d="M80610 38800
L80730 39300
L80830 38940
L80920 39300
L81040 38800
" />
<path d="M81110 39350
L81500 39350
" />
<path d="M81570 38800
L81880 38800
L81710 38990
L81780 38990
L81830 39020
L81850 39040
L81880 39090
L81880 39210
L81850 39250
L81830 39280
L81780 39300
L81640 39300
L81590 39280
L81570 39250
" />
<path d="M82090 39300
L82090 38800
L82280 38800
L82330 38830
L82350 38850
L82380 38900
L82380 38970
L82350 39020
L82330 39040
L82280 39060
L82090 39060
" />
<path d="M82590 39300
L82590 38800
L82710 38800
L82780 38830
L82830 38870
L82850 38920
L82880 39020
L82880 39090
L82850 39180
L82830 39230
L82780 39280
L82710 39300
L82590 39300
" />
<path d="M83020 38800
L83300 38800
" />
<path d="M83160 39300
L83160 38800
" />
<path d="M83350 39350
L83730 39350
" />
<path d="M83920 39300
L83880 39280
L83850 39250
L83830 39210
L83830 39060
L83850 39020
L83880 38990
L83920 38970
L84000 38970
L84040 38990
L84070 39020
L84090 39060
L84090 39210
L84070 39250
L84040 39280
L84000 39300
L83920 39300
" />
<path d="M84300 38970
L84300 39300
" />
<path d="M84300 39020
L84330 38990
L84380 38970
L84450 38970
L84500 38990
L84520 39040
L84520 39300
" />
<path d="M84640 39350
L85020 39350
" />
<path d="M85210 39300
L85160 39280
L85140 39250
L85110 39210
L85110 39060
L85140 39020
L85160 38990
L85210 38970
L85280 38970
L85330 38990
L85350 39020
L85380 39060
L85380 39210
L85350 39250
L85330 39280
L85280 39300
L85210 39300
" />
<path d="M85590 38970
L85590 39300
" />
<path d="M85590 39020
L85610 38990
L85660 38970
L85730 38970
L85780 38990
L85800 39040
L85800 39300
" />
</g>
<g style="fill:#848400; fill-opacity:0.0; 
stroke:#848400; stroke-width:40; stroke-opacity:1; 
stroke-linecap:round; stroke-linejoin:round;">
<path d="M29750 32720
L30060 32720
L29900 32910
L29970 32910
L30010 32940
L30040 32960
L30060 33010
L30060 33130
L30040 33170
L30010 33200
L29970 33220
L29820 33220
L29780 33200
L29750 33170
" />
<path d="M30280 33220
L30280 32720
L30470 32720
L30510 32750
L30540 32770
L30560 32820
L30560 32890
L30540 32940
L30510 32960
L30470 32980
L30280 32980
" />
<path d="M30780 33220
L30780 32720
L30900 32720
L30970 32750
L31010 32790
L31040 32840
L31060 32940
L31060 33010
L31040 33100
L31010 33150
L30970 33200
L30900 33220
L30780 33220
" />
<path d="M31200 32720
L31490 32720
" />
<path d="M31350 33220
L31350 32720
" />
<path d="M31540 33270
L31920 33270
" />
<path d="M32010 32770
L32040 32750
L32090 32720
L32200 32720
L32250 32750
L32280 32770
L32300 32820
L32300 32860
L32280 32940
L31990 33220
L32300 33220
" />
</g>
<g style="fill:#848400; fill-opacity:0.0; 
stroke:#848400; stroke-width:100; stroke-opacity:1; 
stroke-linecap:round; stroke-linejoin:round;">
<polyline fill="none;"
points="33000,33000
32750,32750
32500,32750
32500,33250
32750,33250
33000,33000
" /> 
</g>
<g style="fill:#848400; fill-opacity:0.0; 
stroke:#848400; stroke-width:40; stroke-opacity:1; 
stroke-linecap:round; stroke-linejoin:round;">
<path d="M29750 35720
L30060 35720
L29900 35910
L29970 35910
L30010 35940
L30040 35960
L30060 36010
L30060 36130
L30040 36170
L30010 36200
L29970 36220
L29820 36220
L29780 36200
L29750 36170
" />
<path d="M30280 36220
L30280 35720
L30470 35720
L30510 35750
L30540 35770
L30560 35820
L30560 35890
L30540 35940
L30510 35960
L30470 35980
L30280 35980
" />
<path d="M30780 36220
L30780 35720
L30900 35720
L30970 35750
L31010 35790
L31040 35840
L31060 35940
L31060 36010
L31040 36100
L31010 36150
L30970 36200
L30900 36220
L30780 36220
" />
<path d="M31200 35720
L31490 35720
" />
<path d="M31350 36220
L31350 35720
" />
<path d="M31540 36270
L31920 36270
" />
<path d="M32280 35720
L32040 35720
L32010 35960
L32040 35940
L32090 35910
L32200 35910
L32250 35940
L32280 35960
L32300 36010
L32300 36130
L32280 36170
L32250 36200
L32200 36220
L32090 36220
L32040 36200
L32010 36170
" />
</g>
<g style="fill:#848400; fill-opacity:0.0; 
stroke:#848400; stroke-width:100; stroke-opacity:1; 
stroke-linecap:round; stroke-linejoin:round;">
<polyline fill="none;"
points="33000,36000
32750,35750
32500,35750
32500,36250
32750,36250
33000,36000
" /> 
</g>
<g style="fill:#848400; fill-opacity:0.0; 
stroke:#848400; stroke-width:40; stroke-opacity:1; 
stroke-linecap:round; stroke-linejoin:round;">
<path d="M40670 34720
L40980 34720
L40810 34910
L40880 34910
L40930 34940
L40950 34960
L40980 35010
L40980 35130
L40950 35170
L40930 35200
L40880 35220
L40740 35220
L40690 35200
L40670 35170
" />
<path d="M41190 35220
L41190 34720
L41380 34720
L41430 34750
L41450 34770
L41480 34820
L41480 34890
L41450 34940
L41430 34960
L41380 34980
L41190 34980
" />
<path d="M41690 35220
L41690 34720
L41810 34720
L41880 34750
L41930 34790
L41950 34840
L41980 34940
L41980 35010
L41950 35100
L41930 35150
L41880 35200
L41810 35220
L41690 35220
" />
<path d="M42120 34720
L42400 34720
" />
<path d="M42260 35220
L42260 34720
" />
<path d="M42450 35270
L42830 35270
" />
<path d="M42900 34720
L43240 34720
L43020 35220
" />
</g>
<g style="fill:#848400; fill-opacity:0.0; 
stroke:#848400; stroke-width:100; stroke-opacity:1; 
stroke-linecap:round; stroke-linejoin:round;">
<polyline fill="none;"
points="40000,35000
40250,35250
40500,35250
40500,34750
40250,34750
40000,35000
" /> 
</g>
<g style="fill:#848400; fill-opacity:0.0; 
stroke:#848400; stroke-width:40; stroke-opacity:1; 
stroke-linecap:round; stroke-linejoin:round;">
<path d="M40670 33720
L40980 33720
L40810 33910
L40880 33910
L40930 33940
L40950 33960
L40980 34010
L40980 34130
L40950 34170
L40930 34200
L40880 34220
L40740 34220
L40690 34200
L40670 34170
" />
<path d="M41190 34220
L41190 33720
L41380 33720
L41430 33750
L41450 33770
L41480 33820
L41480 33890
L41450 33940
L41430 33960
L41380 33980
L41190 33980
" />
<path d="M41690 34220
L41690 33720
L41810 33720
L41880 33750
L41930 33790
L41950 33840
L41980 33940
L41980 34010
L41950 34100
L41930 34150
L41880 34200
L41810 34220
L41690 34220
" />
<path d="M42120 33720
L42400 33720
" />
<path d="M42260 34220
L42260 33720
" />
<path d="M42450 34270
L42830 34270
" />
<path d="M43020 33940
L42980 33910
L42950 33890
L42930 33840
L42930 33820
L42950 33770
L42980 33750
L43020 33720
L43120 33720
L43170 33750
L43190 33770
L43210 33820
L43210 33840
L43190 33890
L43170 33910
L43120 33940
L43020 33940
L42980 33960
L42950 33980
L42930 34030
L42930 34130
L42950 34170
L42980 34200
L43020 34220
L43120 34220
L43170 34200
L43190 34170
L43210 34130
L43210 34030
L43190 33980
L43170 33960
L43120 33940
" />
</g>
<g style="fill:#848400; fill-opacity:0.0; 
stroke:#848400; stroke-width:100; stroke-opacity:1; 
stroke-linecap:round; stroke-linejoin:round;">
<polyline fill="none;"
points="40000,34000
40250,34250
40500,34250
40500,33750
40250,33750
40000,34000
" /> 
</g>
<g style="fill:#848400; fill-opacity:0.0; 
stroke:#848400; stroke-width:40; stroke-opacity:1; 
stroke-linecap:round; stroke-linejoin:round;">
<path d="M40670 32720
L40980 32720
L40810 32910
L40880 32910
L40930 32940
L40950 32960
L40980 33010
L40980 33130
L40950 33170
L40930 33200
L40880 33220
L40740 33220
L40690 33200
L40670 33170
" />
<path d="M41190 33220
L41190 32720
L41380 32720
L41430 32750
L41450 32770
L41480 32820
L41480 32890
L41450 32940
L41430 32960
L41380 32980
L41190 32980
" />
<path d="M41690 33220
L41690 32720
L41810 32720
L41880 32750
L41930 32790
L41950 32840
L41980 32940
L41980 33010
L41950 33100
L41930 33150
L41880 33200
L41810 33220
L41690 33220
" />
<path d="M42120 32720
L42400 32720
" />
<path d="M42260 33220
L42260 32720
" />
<path d="M42450 33270
L42830 33270
" />
<path d="M42980 33220
L43070 33220
L43120 33200
L43140 33170
L43190 33100
L43210 33010
L43210 32820
L43190 32770
L43170 32750
L43120 32720
L43020 32720
L42980 32750
L42950 32770
L42930 32820
L42930 32940
L42950 32980
L42980 33010
L43020 33030
L43120 33030
L43170 33010
L43190 32980
L43210 32940
" />
</g>
<g style="fill:#848400; fill-opacity:0.0; 
stroke:#848400; stroke-width:100; stroke-opacity:1; 
stroke-linecap:round; stroke-linejoin:round;">
<polyline fill="none;"
points="40000,33000
40250,33250
40500,33250
40500,32750
40250,32750
40000,33000
" /> 
</g>
<g style="fill:#848400; fill-opacity:0.0; 
stroke:#848400; stroke-width:40; stroke-opacity:1; 
stroke-linecap:round; stroke-linejoin:round;">
<path d="M40670 35720
L40980 35720
L40810 35910
L40880 35910
L40930 35940
L40950 35960
L40980 36010
L40980 36130
L40950 36170
L40930 36200
L40880 36220
L40740 36220
L40690 36200
L40670 36170
" />
<path d="M41190 36220
L41190 35720
L41380 35720
L41430 35750
L41450 35770
L41480 35820
L41480 35890
L41450 35940
L41430 35960
L41380 35980
L41190 35980
" />
<path d="M41690 36220
L41690 35720
L41810 35720
L41880 35750
L41930 35790
L41950 35840
L41980 35940
L41980 36010
L41950 36100
L41930 36150
L41880 36200
L41810 36220
L41690 36220
" />
<path d="M42120 35720
L42400 35720
" />
<path d="M42260 36220
L42260 35720
" />
<path d="M42450 36270
L42830 36270
" />
<path d="M43170 35720
L43070 35720
L43020 35750
L43000 35770
L42950 35840
L42930 35940
L42930 36130
L42950 36170
L42980 36200
L43020 36220
L43120 36220
L43170 36200
L43190 36170
L43210 36130
L43210 36010
L43190 35960
L43170 35940
L43120 35910
L43020 35910
L42980 35940
L42950 35960
L42930 36010
" />
</g>
<g style="fill:#848400; fill-opacity:0.0; 
stroke:#848400; stroke-width:100; stroke-opacity:1; 
stroke-linecap:round; stroke-linejoin:round;">
<polyline fill="none;"
points="40000,36000
40250,36250
40500,36250
40500,35750
40250,35750
40000,36000
" /> 
</g>
<g style="fill:#848400; fill-opacity:0.0; 
stroke:#848400; stroke-width:40; stroke-opacity:1; 
stroke-linecap:round; stroke-linejoin:round;">
<path d="M29750 34720
L30060 34720
L29900 34910
L29970 34910
L30010 34940
L30040 34960
L30060 35010
L30060 35130
L30040 35170
L30010 35200
L29970 35220
L29820 35220
L29780 35200
L29750 35170
" />
<path d="M30280 35220
L30280 34720
L30470 34720
L30510 34750
L30540 34770
L30560 34820
L30560 34890
L30540 34940
L30510 34960
L30470 34980
L30280 34980
" />
<path d="M30780 35220
L30780 34720
L30900 34720
L30970 34750
L31010 34790
L31040 34840
L31060 34940
L31060 35010
L31040 35100
L31010 35150
L30970 35200
L30900 35220
L30780 35220
" />
<path d="M31200 34720
L31490 34720
" />
<path d="M31350 35220
L31350 34720
" />
<path d="M31540 35270
L31920 35270
" />
<path d="M32250 34890
L32250 35220
" />
<path d="M32130 34700
L32010 35050
L32320 35050
" />
</g>
<g style="fill:#848400; fill-opacity:0.0; 
stroke:#848400; stroke-width:100; stroke-opacity:1; 
stroke-linecap:round; stroke-linejoin:round;">
<polyline fill="none;"
points="33000,35000
32750,34750
32500,34750
32500,35250
32750,35250
33000,35000
" /> 
</g>
<g style="fill:#848400; fill-opacity:0.0; 
stroke:#848400; stroke-width:40; stroke-opacity:1; 
stroke-linecap:round; stroke-linejoin:round;">
<path d="M29750 33720
L30060 33720
L29900 33910
L29970 33910
L30010 33940
L30040 33960
L30060 34010
L30060 34130
L30040 34170
L30010 34200
L29970 34220
L29820 34220
L29780 34200
L29750 34170
" />
<path d="M30280 34220
L30280 33720
L30470 33720
L30510 33750
L30540 33770
L30560 33820
L30560 33890
L30540 33940
L30510 33960
L30470 33980
L30280 33980
" />
<path d="M30780 34220
L30780 33720
L30900 33720
L30970 33750
L31010 33790
L31040 33840
L31060 33940
L31060 34010
L31040 34100
L31010 34150
L30970 34200
L30900 34220
L30780 34220
" />
<path d="M31200 33720
L31490 33720
" />
<path d="M31350 34220
L31350 33720
" />
<path d="M31540 34270
L31920 34270
" />
<path d="M31990 33720
L32300 33720
L32130 33910
L32200 33910
L32250 33940
L32280 33960
L32300 34010
L32300 34130
L32280 34170
L32250 34200
L32200 34220
L32060 34220
L32010 34200
L31990 34170
" />
</g>
<g style="fill:#848400; fill-opacity:0.0; 
stroke:#848400; stroke-width:100; stroke-opacity:1; 
stroke-linecap:round; stroke-linejoin:round;">
<polyline fill="none;"
points="33000,34000
32750,33750
32500,33750
32500,34250
32750,34250
33000,34000
" /> 
</g>
<g style="fill:#848400; fill-opacity:0.0; 
stroke:#848400; stroke-width:40; stroke-opacity:1; 
stroke-linecap:round; stroke-linejoin:round;">
<path d="M29750 31720
L30060 31720
L29900 31910
L29970 31910
L30010 31940
L30040 31960
L30060 32010
L30060 32130
L30040 32170
L30010 32200
L29970 32220
L29820 32220
L29780 32200
L29750 32170
" />
<path d="M30280 32220
L30280 31720
L30470 31720
L30510 31750
L30540 31770
L30560 31820
L30560 31890
L30540 31940
L30510 31960
L30470 31980
L30280 31980
" />
<path d="M30780 32220
L30780 31720
L30900 31720
L30970 31750
L31010 31790
L31040 31840
L31060 31940
L31060 32010
L31040 32100
L31010 32150
L30970 32200
L30900 32220
L30780 32220
" />
<path d="M31200 31720
L31490 31720
" />
<path d="M31350 32220
L31350 31720
" />
<path d="M31540 32270
L31920 32270
" />
<path d="M32300 32220
L32010 32220
" />
<path d="M32160 32220
L32160 31720
L32110 31790
L32060 31840
L32010 31860
" />
</g>
<g style="fill:#848400; fill-opacity:0.0; 
stroke:#848400; stroke-width:100; stroke-opacity:1; 
stroke-linecap:round; stroke-linejoin:round;">
<polyline fill="none;"
points="33000,32000
32750,31750
32500,31750
32500,32250
32750,32250
33000,32000
" /> 
</g>
<g style="fill:#848400; fill-opacity:0.0; 
stroke:#848400; stroke-width:40; stroke-opacity:1; 
stroke-linecap:round; stroke-linejoin:round;">
</g>
<g style="fill:#008400; fill-opacity:0.0; 
stroke:#008400; stroke-width:40; stroke-opacity:1; 
stroke-linecap:round; stroke-linejoin:round;">
<path d="M33000 33000
L34000 33000
" />
<path d="M34000 36000
L33000 36000
" />
<path d="M40000 34000
L39000 34000
" />
<path d="M39000 33000
L40000 33000
" />
<path d="M40000 35000
L39000 35000
" />
<path d="M39000 36000
L40000 36000
" />
<path d="M33000 35000
L34000 35000
" />
<path d="M34000 34000
L33000 34000
" />
<path d="M33000 32000
L34000 32000
" />
<path d="M52000 32000
L45500 32000
" />
<path d="M52000 33000
L45500 33000
" />
<path d="M52000 34000
L45500 34000
" />
<path d="M52000 35000
L45500 35000
" />
<path d="M52000 36000
L45500 36000
" />
<path d="M57000 36000
L62000 36000
" />
<path d="M57000 35000
L62000 35000
" />
<path d="M57000 34000
L62000 34000
" />
<path d="M57000 33000
L62000 33000
" />
<path d="M81000 29000
L78000 29000
" />
<path d="M81000 35000
L78000 35000
" />
<path d="M81000 41000
L78000 41000
" />
<path d="M85000 42000
L88000 42000
" />
<path d="M85000 40000
L88000 40000
" />
<path d="M85000 36000
L88000 36000
" />
<path d="M85000 34000
L88000 34000
" />
<path d="M85000 30000
L88000 30000
" />
<path d="M85000 28000
L88000 28000
" />
</g>
<g style="fill:#000000; fill-opacity:0.0; 
stroke:#000000; stroke-width:40; stroke-opacity:1; 
stroke-linecap:round; stroke-linejoin:round;">
<path d="M45590 31390
L45900 31390
L45730 31580
L45800 31580
L45850 31610
L45870 31630
L45900 31680
L45900 31800
L45870 31840
L45850 31870
L45800 31890
L45660 31890
L45610 31870
L45590 31840
" />
<path d="M46110 31890
L46110 31390
L46300 31390
L46350 31420
L46370 31440
L46400 31490
L46400 31560
L46370 31610
L46350 31630
L46300 31650
L46110 31650
" />
<path d="M46610 31890
L46610 31390
L46730 31390
L46800 31420
L46850 31460
L46870 31510
L46900 31610
L46900 31680
L46870 31770
L46850 31820
L46800 31870
L46730 31890
L46610 31890
" />
<path d="M47040 31390
L47320 31390
" />
<path d="M47180 31890
L47180 31390
" />
<path d="M47370 31940
L47750 31940
" />
<path d="M48130 31890
L47850 31890
" />
<path d="M47990 31890
L47990 31390
L47940 31460
L47900 31510
L47850 31530
" />
<path d="M48230 31940
L48610 31940
" />
<path d="M48730 31890
L48730 31390
" />
<path d="M48970 31890
L48970 31390
L49250 31890
L49250 31390
" />
<path d="M49420 31390
L49710 31390
" />
<path d="M49560 31890
L49560 31390
" />
<path d="M45590 32390
L45900 32390
L45730 32580
L45800 32580
L45850 32610
L45870 32630
L45900 32680
L45900 32800
L45870 32840
L45850 32870
L45800 32890
L45660 32890
L45610 32870
L45590 32840
" />
<path d="M46110 32890
L46110 32390
L46300 32390
L46350 32420
L46370 32440
L46400 32490
L46400 32560
L46370 32610
L46350 32630
L46300 32650
L46110 32650
" />
<path d="M46610 32890
L46610 32390
L46730 32390
L46800 32420
L46850 32460
L46870 32510
L46900 32610
L46900 32680
L46870 32770
L46850 32820
L46800 32870
L46730 32890
L46610 32890
" />
<path d="M47040 32390
L47320 32390
" />
<path d="M47180 32890
L47180 32390
" />
<path d="M47370 32940
L47750 32940
" />
<path d="M47850 32440
L47870 32420
L47920 32390
L48040 32390
L48090 32420
L48110 32440
L48130 32490
L48130 32530
L48110 32610
L47820 32890
L48130 32890
" />
<path d="M48230 32940
L48610 32940
" />
<path d="M48730 32890
L48730 32390
" />
<path d="M48970 32890
L48970 32390
L49250 32890
L49250 32390
" />
<path d="M49420 32390
L49710 32390
" />
<path d="M49560 32890
L49560 32390
" />
<path d="M45590 33390
L45900 33390
L45730 33580
L45800 33580
L45850 33610
L45870 33630
L45900 33680
L45900 33800
L45870 33840
L45850 33870
L45800 33890
L45660 33890
L45610 33870
L45590 33840
" />
<path d="M46110 33890
L46110 33390
L46300 33390
L46350 33420
L46370 33440
L46400 33490
L46400 33560
L46370 33610
L46350 33630
L46300 33650
L46110 33650
" />
<path d="M46610 33890
L46610 33390
L46730 33390
L46800 33420
L46850 33460
L46870 33510
L46900 33610
L46900 33680
L46870 33770
L46850 33820
L46800 33870
L46730 33890
L46610 33890
" />
<path d="M47040 33390
L47320 33390
" />
<path d="M47180 33890
L47180 33390
" />
<path d="M47370 33940
L47750 33940
" />
<path d="M47820 33390
L48130 33390
L47970 33580
L48040 33580
L48090 33610
L48110 33630
L48130 33680
L48130 33800
L48110 33840
L48090 33870
L48040 33890
L47900 33890
L47850 33870
L47820 33840
" />
<path d="M48230 33940
L48610 33940
" />
<path d="M48730 33890
L48730 33390
" />
<path d="M48970 33890
L48970 33390
L49250 33890
L49250 33390
" />
<path d="M49420 33390
L49710 33390
" />
<path d="M49560 33890
L49560 33390
" />
<path d="M45590 34390
L45900 34390
L45730 34580
L45800 34580
L45850 34610
L45870 34630
L45900 34680
L45900 34800
L45870 34840
L45850 34870
L45800 34890
L45660 34890
L45610 34870
L45590 34840
" />
<path d="M46110 34890
L46110 34390
L46300 34390
L46350 34420
L46370 34440
L46400 34490
L46400 34560
L46370 34610
L46350 34630
L46300 34650
L46110 34650
" />
<path d="M46610 34890
L46610 34390
L46730 34390
L46800 34420
L46850 34460
L46870 34510
L46900 34610
L46900 34680
L46870 34770
L46850 34820
L46800 34870
L46730 34890
L46610 34890
" />
<path d="M47040 34390
L47320 34390
" />
<path d="M47180 34890
L47180 34390
" />
<path d="M47370 34940
L47750 34940
" />
<path d="M48090 34560
L48090 34890
" />
<path d="M47970 34370
L47850 34720
L48160 34720
" />
<path d="M48230 34940
L48610 34940
" />
<path d="M48730 34890
L48730 34390
" />
<path d="M48970 34890
L48970 34390
L49250 34890
L49250 34390
" />
<path d="M49420 34390
L49710 34390
" />
<path d="M49560 34890
L49560 34390
" />
<path d="M45590 35390
L45900 35390
L45730 35580
L45800 35580
L45850 35610
L45870 35630
L45900 35680
L45900 35800
L45870 35840
L45850 35870
L45800 35890
L45660 35890
L45610 35870
L45590 35840
" />
<path d="M46110 35890
L46110 35390
L46300 35390
L46350 35420
L46370 35440
L46400 35490
L46400 35560
L46370 35610
L46350 35630
L46300 35650
L46110 35650
" />
<path d="M46610 35890
L46610 35390
L46730 35390
L46800 35420
L46850 35460
L46870 35510
L46900 35610
L46900 35680
L46870 35770
L46850 35820
L46800 35870
L46730 35890
L46610 35890
" />
<path d="M47040 35390
L47320 35390
" />
<path d="M47180 35890
L47180 35390
" />
<path d="M47370 35940
L47750 35940
" />
<path d="M48110 35390
L47870 35390
L47850 35630
L47870 35610
L47920 35580
L48040 35580
L48090 35610
L48110 35630
L48130 35680
L48130 35800
L48110 35840
L48090 35870
L48040 35890
L47920 35890
L47870 35870
L47850 35840
" />
<path d="M48230 35940
L48610 35940
" />
<path d="M48730 35890
L48730 35390
" />
<path d="M48970 35890
L48970 35390
L49250 35890
L49250 35390
" />
<path d="M49420 35390
L49710 35390
" />
<path d="M49560 35890
L49560 35390
" />
<path d="M57810 35390
L58120 35390
L57950 35580
L58020 35580
L58070 35610
L58090 35630
L58120 35680
L58120 35800
L58090 35840
L58070 35870
L58020 35890
L57880 35890
L57830 35870
L57810 35840
" />
<path d="M58330 35890
L58330 35390
L58520 35390
L58570 35420
L58590 35440
L58620 35490
L58620 35560
L58590 35610
L58570 35630
L58520 35650
L58330 35650
" />
<path d="M58830 35890
L58830 35390
L58950 35390
L59020 35420
L59070 35460
L59090 35510
L59120 35610
L59120 35680
L59090 35770
L59070 35820
L59020 35870
L58950 35890
L58830 35890
" />
<path d="M59260 35390
L59550 35390
" />
<path d="M59400 35890
L59400 35390
" />
<path d="M59590 35940
L59980 35940
" />
<path d="M60310 35390
L60210 35390
L60170 35420
L60140 35440
L60090 35510
L60070 35610
L60070 35800
L60090 35840
L60120 35870
L60170 35890
L60260 35890
L60310 35870
L60330 35840
L60360 35800
L60360 35680
L60330 35630
L60310 35610
L60260 35580
L60170 35580
L60120 35610
L60090 35630
L60070 35680
" />
<path d="M60450 35940
L60830 35940
" />
<path d="M60950 35890
L60950 35390
" />
<path d="M61190 35890
L61190 35390
L61480 35890
L61480 35390
" />
<path d="M61640 35390
L61930 35390
" />
<path d="M61780 35890
L61780 35390
" />
<path d="M57810 34390
L58120 34390
L57950 34580
L58020 34580
L58070 34610
L58090 34630
L58120 34680
L58120 34800
L58090 34840
L58070 34870
L58020 34890
L57880 34890
L57830 34870
L57810 34840
" />
<path d="M58330 34890
L58330 34390
L58520 34390
L58570 34420
L58590 34440
L58620 34490
L58620 34560
L58590 34610
L58570 34630
L58520 34650
L58330 34650
" />
<path d="M58830 34890
L58830 34390
L58950 34390
L59020 34420
L59070 34460
L59090 34510
L59120 34610
L59120 34680
L59090 34770
L59070 34820
L59020 34870
L58950 34890
L58830 34890
" />
<path d="M59260 34390
L59550 34390
" />
<path d="M59400 34890
L59400 34390
" />
<path d="M59590 34940
L59980 34940
" />
<path d="M60050 34390
L60380 34390
L60170 34890
" />
<path d="M60450 34940
L60830 34940
" />
<path d="M60950 34890
L60950 34390
" />
<path d="M61190 34890
L61190 34390
L61480 34890
L61480 34390
" />
<path d="M61640 34390
L61930 34390
" />
<path d="M61780 34890
L61780 34390
" />
<path d="M57810 33390
L58120 33390
L57950 33580
L58020 33580
L58070 33610
L58090 33630
L58120 33680
L58120 33800
L58090 33840
L58070 33870
L58020 33890
L57880 33890
L57830 33870
L57810 33840
" />
<path d="M58330 33890
L58330 33390
L58520 33390
L58570 33420
L58590 33440
L58620 33490
L58620 33560
L58590 33610
L58570 33630
L58520 33650
L58330 33650
" />
<path d="M58830 33890
L58830 33390
L58950 33390
L59020 33420
L59070 33460
L59090 33510
L59120 33610
L59120 33680
L59090 33770
L59070 33820
L59020 33870
L58950 33890
L58830 33890
" />
<path d="M59260 33390
L59550 33390
" />
<path d="M59400 33890
L59400 33390
" />
<path d="M59590 33940
L59980 33940
" />
<path d="M60170 33610
L60120 33580
L60090 33560
L60070 33510
L60070 33490
L60090 33440
L60120 33420
L60170 33390
L60260 33390
L60310 33420
L60330 33440
L60360 33490
L60360 33510
L60330 33560
L60310 33580
L60260 33610
L60170 33610
L60120 33630
L60090 33650
L60070 33700
L60070 33800
L60090 33840
L60120 33870
L60170 33890
L60260 33890
L60310 33870
L60330 33840
L60360 33800
L60360 33700
L60330 33650
L60310 33630
L60260 33610
" />
<path d="M60450 33940
L60830 33940
" />
<path d="M60950 33890
L60950 33390
" />
<path d="M61190 33890
L61190 33390
L61480 33890
L61480 33390
" />
<path d="M61640 33390
L61930 33390
" />
<path d="M61780 33890
L61780 33390
" />
<path d="M57810 32390
L58120 32390
L57950 32580
L58020 32580
L58070 32610
L58090 32630
L58120 32680
L58120 32800
L58090 32840
L58070 32870
L58020 32890
L57880 32890
L57830 32870
L57810 32840
" />
<path d="M58330 32890
L58330 32390
L58520 32390
L58570 32420
L58590 32440
L58620 32490
L58620 32560
L58590 32610
L58570 32630
L58520 32650
L58330 32650
" />
<path d="M58830 32890
L58830 32390
L58950 32390
L59020 32420
L59070 32460
L59090 32510
L59120 32610
L59120 32680
L59090 32770
L59070 32820
L59020 32870
L58950 32890
L58830 32890
" />
<path d="M59260 32390
L59550 32390
" />
<path d="M59400 32890
L59400 32390
" />
<path d="M59590 32940
L59980 32940
" />
<path d="M60120 32890
L60210 32890
L60260 32870
L60280 32840
L60330 32770
L60360 32680
L60360 32490
L60330 32440
L60310 32420
L60260 32390
L60170 32390
L60120 32420
L60090 32440
L60070 32490
L60070 32610
L60090 32650
L60120 32680
L60170 32700
L60260 32700
L60310 32680
L60330 32650
L60360 32610
" />
<path d="M60450 32940
L60830 32940
" />
<path d="M60950 32890
L60950 32390
" />
<path d="M61190 32890
L61190 32390
L61480 32890
L61480 32390
" />
<path d="M61640 32390
L61930 32390
" />
<path d="M61780 32890
L61780 32390
" />
<path d="M73810 28390
L74120 28390
L73950 28580
L74020 28580
L74070 28610
L74090 28630
L74120 28680
L74120 28800
L74090 28840
L74070 28870
L74020 28890
L73880 28890
L73830 28870
L73810 28840
" />
<path d="M74330 28890
L74330 28390
L74520 28390
L74570 28420
L74590 28440
L74620 28490
L74620 28560
L74590 28610
L74570 28630
L74520 28650
L74330 28650
" />
<path d="M74830 28890
L74830 28390
L74950 28390
L75020 28420
L75070 28460
L75090 28510
L75120 28610
L75120 28680
L75090 28770
L75070 28820
L75020 28870
L74950 28890
L74830 28890
" />
<path d="M75260 28390
L75550 28390
" />
<path d="M75400 28890
L75400 28390
" />
<path d="M75590 28940
L75980 28940
" />
<path d="M76070 28440
L76090 28420
L76140 28390
L76260 28390
L76310 28420
L76330 28440
L76360 28490
L76360 28530
L76330 28610
L76050 28890
L76360 28890
" />
<path d="M76450 28940
L76830 28940
" />
<path d="M76950 28890
L76950 28390
" />
<path d="M77190 28890
L77190 28390
L77480 28890
L77480 28390
" />
<path d="M77640 28390
L77930 28390
" />
<path d="M77780 28890
L77780 28390
" />
<path d="M73810 34390
L74120 34390
L73950 34580
L74020 34580
L74070 34610
L74090 34630
L74120 34680
L74120 34800
L74090 34840
L74070 34870
L74020 34890
L73880 34890
L73830 34870
L73810 34840
" />
<path d="M74330 34890
L74330 34390
L74520 34390
L74570 34420
L74590 34440
L74620 34490
L74620 34560
L74590 34610
L74570 34630
L74520 34650
L74330 34650
" />
<path d="M74830 34890
L74830 34390
L74950 34390
L75020 34420
L75070 34460
L75090 34510
L75120 34610
L75120 34680
L75090 34770
L75070 34820
L75020 34870
L74950 34890
L74830 34890
" />
<path d="M75260 34390
L75550 34390
" />
<path d="M75400 34890
L75400 34390
" />
<path d="M75590 34940
L75980 34940
" />
<path d="M76330 34390
L76090 34390
L76070 34630
L76090 34610
L76140 34580
L76260 34580
L76310 34610
L76330 34630
L76360 34680
L76360 34800
L76330 34840
L76310 34870
L76260 34890
L76140 34890
L76090 34870
L76070 34840
" />
<path d="M76450 34940
L76830 34940
" />
<path d="M76950 34890
L76950 34390
" />
<path d="M77190 34890
L77190 34390
L77480 34890
L77480 34390
" />
<path d="M77640 34390
L77930 34390
" />
<path d="M77780 34890
L77780 34390
" />
<path d="M73810 40390
L74120 40390
L73950 40580
L74020 40580
L74070 40610
L74090 40630
L74120 40680
L74120 40800
L74090 40840
L74070 40870
L74020 40890
L73880 40890
L73830 40870
L73810 40840
" />
<path d="M74330 40890
L74330 40390
L74520 40390
L74570 40420
L74590 40440
L74620 40490
L74620 40560
L74590 40610
L74570 40630
L74520 40650
L74330 40650
" />
<path d="M74830 40890
L74830 40390
L74950 40390
L75020 40420
L75070 40460
L75090 40510
L75120 40610
L75120 40680
L75090 40770
L75070 40820
L75020 40870
L74950 40890
L74830 40890
" />
<path d="M75260 40390
L75550 40390
" />
<path d="M75400 40890
L75400 40390
" />
<path d="M75590 40940
L75980 40940
" />
<path d="M76170 40610
L76120 40580
L76090 40560
L76070 40510
L76070 40490
L76090 40440
L76120 40420
L76170 40390
L76260 40390
L76310 40420
L76330 40440
L76360 40490
L76360 40510
L76330 40560
L76310 40580
L76260 40610
L76170 40610
L76120 40630
L76090 40650
L76070 40700
L76070 40800
L76090 40840
L76120 40870
L76170 40890
L76260 40890
L76310 40870
L76330 40840
L76360 40800
L76360 40700
L76330 40650
L76310 40630
L76260 40610
" />
<path d="M76450 40940
L76830 40940
" />
<path d="M76950 40890
L76950 40390
" />
<path d="M77190 40890
L77190 40390
L77480 40890
L77480 40390
" />
<path d="M77640 40390
L77930 40390
" />
<path d="M77780 40890
L77780 40390
" />
<path d="M88090 27390
L88400 27390
L88230 27580
L88300 27580
L88350 27610
L88370 27630
L88400 27680
L88400 27800
L88370 27840
L88350 27870
L88300 27890
L88160 27890
L88110 27870
L88090 27840
" />
<path d="M88610 27890
L88610 27390
L88800 27390
L88850 27420
L88870 27440
L88900 27490
L88900 27560
L88870 27610
L88850 27630
L88800 27650
L88610 27650
" />
<path d="M89110 27890
L89110 27390
L89230 27390
L89300 27420
L89350 27460
L89370 27510
L89400 27610
L89400 27680
L89370 27770
L89350 27820
L89300 27870
L89230 27890
L89110 27890
" />
<path d="M89540 27390
L89820 27390
" />
<path d="M89680 27890
L89680 27390
" />
<path d="M89870 27940
L90250 27940
" />
<path d="M90630 27890
L90350 27890
" />
<path d="M90490 27890
L90490 27390
L90440 27460
L90400 27510
L90350 27530
" />
<path d="M90730 27940
L91110 27940
" />
<path d="M91230 27890
L91230 27390
" />
<path d="M91470 27890
L91470 27390
L91750 27890
L91750 27390
" />
<path d="M91920 27390
L92210 27390
" />
<path d="M92060 27890
L92060 27390
" />
<path d="M88090 29390
L88400 29390
L88230 29580
L88300 29580
L88350 29610
L88370 29630
L88400 29680
L88400 29800
L88370 29840
L88350 29870
L88300 29890
L88160 29890
L88110 29870
L88090 29840
" />
<path d="M88610 29890
L88610 29390
L88800 29390
L88850 29420
L88870 29440
L88900 29490
L88900 29560
L88870 29610
L88850 29630
L88800 29650
L88610 29650
" />
<path d="M89110 29890
L89110 29390
L89230 29390
L89300 29420
L89350 29460
L89370 29510
L89400 29610
L89400 29680
L89370 29770
L89350 29820
L89300 29870
L89230 29890
L89110 29890
" />
<path d="M89540 29390
L89820 29390
" />
<path d="M89680 29890
L89680 29390
" />
<path d="M89870 29940
L90250 29940
" />
<path d="M90320 29390
L90630 29390
L90470 29580
L90540 29580
L90590 29610
L90610 29630
L90630 29680
L90630 29800
L90610 29840
L90590 29870
L90540 29890
L90400 29890
L90350 29870
L90320 29840
" />
<path d="M90730 29940
L91110 29940
" />
<path d="M91230 29890
L91230 29390
" />
<path d="M91470 29890
L91470 29390
L91750 29890
L91750 29390
" />
<path d="M91920 29390
L92210 29390
" />
<path d="M92060 29890
L92060 29390
" />
<path d="M88090 33390
L88400 33390
L88230 33580
L88300 33580
L88350 33610
L88370 33630
L88400 33680
L88400 33800
L88370 33840
L88350 33870
L88300 33890
L88160 33890
L88110 33870
L88090 33840
" />
<path d="M88610 33890
L88610 33390
L88800 33390
L88850 33420
L88870 33440
L88900 33490
L88900 33560
L88870 33610
L88850 33630
L88800 33650
L88610 33650
" />
<path d="M89110 33890
L89110 33390
L89230 33390
L89300 33420
L89350 33460
L89370 33510
L89400 33610
L89400 33680
L89370 33770
L89350 33820
L89300 33870
L89230 33890
L89110 33890
" />
<path d="M89540 33390
L89820 33390
" />
<path d="M89680 33890
L89680 33390
" />
<path d="M89870 33940
L90250 33940
" />
<path d="M90590 33560
L90590 33890
" />
<path d="M90470 33370
L90350 33720
L90660 33720
" />
<path d="M90730 33940
L91110 33940
" />
<path d="M91230 33890
L91230 33390
" />
<path d="M91470 33890
L91470 33390
L91750 33890
L91750 33390
" />
<path d="M91920 33390
L92210 33390
" />
<path d="M92060 33890
L92060 33390
" />
<path d="M88090 35390
L88400 35390
L88230 35580
L88300 35580
L88350 35610
L88370 35630
L88400 35680
L88400 35800
L88370 35840
L88350 35870
L88300 35890
L88160 35890
L88110 35870
L88090 35840
" />
<path d="M88610 35890
L88610 35390
L88800 35390
L88850 35420
L88870 35440
L88900 35490
L88900 35560
L88870 35610
L88850 35630
L88800 35650
L88610 35650
" />
<path d="M89110 35890
L89110 35390
L89230 35390
L89300 35420
L89350 35460
L89370 35510
L89400 35610
L89400 35680
L89370 35770
L89350 35820
L89300 35870
L89230 35890
L89110 35890
" />
<path d="M89540 35390
L89820 35390
" />
<path d="M89680 35890
L89680 35390
" />
<path d="M89870 35940
L90250 35940
" />
<path d="M90590 35390
L90490 35390
L90440 35420
L90420 35440
L90370 35510
L90350 35610
L90350 35800
L90370 35840
L90400 35870
L90440 35890
L90540 35890
L90590 35870
L90610 35840
L90630 35800
L90630 35680
L90610 35630
L90590 35610
L90540 35580
L90440 35580
L90400 35610
L90370 35630
L90350 35680
" />
<path d="M90730 35940
L91110 35940
" />
<path d="M91230 35890
L91230 35390
" />
<path d="M91470 35890
L91470 35390
L91750 35890
L91750 35390
" />
<path d="M91920 35390
L92210 35390
" />
<path d="M92060 35890
L92060 35390
" />
<path d="M88090 39390
L88400 39390
L88230 39580
L88300 39580
L88350 39610
L88370 39630
L88400 39680
L88400 39800
L88370 39840
L88350 39870
L88300 39890
L88160 39890
L88110 39870
L88090 39840
" />
<path d="M88610 39890
L88610 39390
L88800 39390
L88850 39420
L88870 39440
L88900 39490
L88900 39560
L88870 39610
L88850 39630
L88800 39650
L88610 39650
" />
<path d="M89110 39890
L89110 39390
L89230 39390
L89300 39420
L89350 39460
L89370 39510
L89400 39610
L89400 39680
L89370 39770
L89350 39820
L89300 39870
L89230 39890
L89110 39890
" />
<path d="M89540 39390
L89820 39390
" />
<path d="M89680 39890
L89680 39390
" />
<path d="M89870 39940
L90250 39940
" />
<path d="M90320 39390
L90660 39390
L90440 39890
" />
<path d="M90730 39940
L91110 39940
" />
<path d="M91230 39890
L91230 39390
" />
<path d="M91470 39890
L91470 39390
L91750 39890
L91750 39390
" />
<path d="M91920 39390
L92210 39390
" />
<path d="M92060 39890
L92060 39390
" />
<path d="M88090 41390
L88400 41390
L88230 41580
L88300 41580
L88350 41610
L88370 41630
L88400 41680
L88400 41800
L88370 41840
L88350 41870
L88300 41890
L88160 41890
L88110 41870
L88090 41840
" />
<path d="M88610 41890
L88610 41390
L88800 41390
L88850 41420
L88870 41440
L88900 41490
L88900 41560
L88870 41610
L88850 41630
L88800 41650
L88610 41650
" />
<path d="M89110 41890
L89110 41390
L89230 41390
L89300 41420
L89350 41460
L89370 41510
L89400 41610
L89400 41680
L89370 41770
L89350 41820
L89300 41870
L89230 41890
L89110 41890
" />
<path d="M89540 41390
L89820 41390
" />
<path d="M89680 41890
L89680 41390
" />
<path d="M89870 41940
L90250 41940
" />
<path d="M90400 41890
L90490 41890
L90540 41870
L90560 41840
L90610 41770
L90630 41680
L90630 41490
L90610 41440
L90590 41420
L90540 41390
L90440 41390
L90400 41420
L90370 41440
L90350 41490
L90350 41610
L90370 41650
L90400 41680
L90440 41700
L90540 41700
L90590 41680
L90610 41650
L90630 41610
" />
<path d="M90730 41940
L91110 41940
" />
<path d="M91230 41890
L91230 41390
" />
<path d="M91470 41890
L91470 41390
L91750 41890
L91750 41390
" />
<path d="M91920 41390
L92210 41390
" />
<path d="M92060 41890
L92060 41390
" />
</g>
<g style="fill:#000000; fill-opacity:0.0; 
stroke:#000000; stroke-width:0; stroke-opacity:1; 
stroke-linecap:round; stroke-linejoin:round;">
</g>
<g style="fill:#840000; fill-opacity:0.0; 
stroke:#840000; stroke-width:0; stroke-opacity:1; 
stroke-linecap:round; stroke-linejoin:round;">
</g>
<g style="fill:#FFFFC2; fill-opacity:0.0; 
stroke:#FFFFC2; stroke-width:0; stroke-opacity:1; 
stroke-linecap:round; stroke-linejoin:round;">
</g>
<g style="fill:#FFFFC2; fill-opacity:0.6; 
stroke:#FFFFC2; stroke-width:0; stroke-opacity:1; 
stroke-linecap:round; stroke-linejoin:round;">
<rect x="35500" y="31500" width="2000" height="5000" rx="0" />
</g>
<g style="fill:#840000; fill-opacity:0.6; 
stroke:#840000; stroke-width:0; stroke-opacity:1; 
stroke-linecap:round; stroke-linejoin:round;">
</g>
<g style="fill:#840000; fill-opacity:0.0; 
stroke:#840000; stroke-width:100; stroke-opacity:1; 
stroke-linecap:round; stroke-linejoin:round;">
<rect x="35500" y="31500" width="2000" height="5000" rx="0" />
</g>
<g style="fill:#840000; fill-opacity:0.0; 
stroke:#840000; stroke-width:60; stroke-opacity:1; 
stroke-linecap:round; stroke-linejoin:round;">
<rect x="35500" y="35950" width="500" height="100" rx="0" />
<rect x="35500" y="34950" width="500" height="100" rx="0" />
<rect x="35500" y="33950" width="500" height="100" rx="0" />
<rect x="35500" y="32950" width="500" height="100" rx="0" />
<rect x="35500" y="31950" width="500" height="100" rx="0" />
<rect x="37000" y="35950" width="500" height="100" rx="0" />
<rect x="37000" y="34950" width="500" height="100" rx="0" />
<rect x="37000" y="33950" width="500" height="100" rx="0" />
<rect x="37000" y="32950" width="500" height="100" rx="0" />
<rect x="37000" y="31950" width="500" height="100" rx="0" />
</g>
<g style="fill:#840000; fill-opacity:0.0; 
stroke:#840000; stroke-width:40; stroke-opacity:1; 
stroke-linecap:round; stroke-linejoin:round;">
<path d="M35500 32000
L34000 32000
" />
<path d="M34890 31890
L34600 31890
" />
<path d="M34750 31890
L34750 31390
L34700 31460
L34650 31510
L34600 31530
" />
<path d="M37500 32000
L39000 32000
" />
<path d="M38150 31890
L37860 31890
" />
<path d="M38010 31890
L38010 31390
L37960 31460
L37910 31510
L37860 31530
" />
<path d="M38460 31390
L38510 31390
L38550 31420
L38580 31440
L38600 31490
L38630 31580
L38630 31700
L38600 31800
L38580 31840
L38550 31870
L38510 31890
L38460 31890
L38410 31870
L38390 31840
L38360 31800
L38340 31700
L38340 31580
L38360 31490
L38390 31440
L38410 31420
L38460 31390
" />
<path d="M35500 33000
L34000 33000
" />
<path d="M34600 32440
L34630 32420
L34670 32390
L34790 32390
L34840 32420
L34860 32440
L34890 32490
L34890 32530
L34860 32610
L34580 32890
L34890 32890
" />
<path d="M35500 34000
L34000 34000
" />
<path d="M34580 33390
L34890 33390
L34720 33580
L34790 33580
L34840 33610
L34860 33630
L34890 33680
L34890 33800
L34860 33840
L34840 33870
L34790 33890
L34650 33890
L34600 33870
L34580 33840
" />
<path d="M35500 35000
L34000 35000
" />
<path d="M34840 34560
L34840 34890
" />
<path d="M34720 34370
L34600 34720
L34910 34720
" />
<path d="M35500 36000
L34000 36000
" />
<path d="M34860 35390
L34630 35390
L34600 35630
L34630 35610
L34670 35580
L34790 35580
L34840 35610
L34860 35630
L34890 35680
L34890 35800
L34860 35840
L34840 35870
L34790 35890
L34670 35890
L34630 35870
L34600 35840
" />
<path d="M37500 36000
L39000 36000
" />
<path d="M38340 35390
L38250 35390
L38200 35420
L38170 35440
L38130 35510
L38100 35610
L38100 35800
L38130 35840
L38150 35870
L38200 35890
L38290 35890
L38340 35870
L38360 35840
L38390 35800
L38390 35680
L38360 35630
L38340 35610
L38290 35580
L38200 35580
L38150 35610
L38130 35630
L38100 35680
" />
<path d="M37500 35000
L39000 35000
" />
<path d="M38080 34390
L38410 34390
L38200 34890
" />
<path d="M37500 34000
L39000 34000
" />
<path d="M38200 33610
L38150 33580
L38130 33560
L38100 33510
L38100 33490
L38130 33440
L38150 33420
L38200 33390
L38290 33390
L38340 33420
L38360 33440
L38390 33490
L38390 33510
L38360 33560
L38340 33580
L38290 33610
L38200 33610
L38150 33630
L38130 33650
L38100 33700
L38100 33800
L38130 33840
L38150 33870
L38200 33890
L38290 33890
L38340 33870
L38360 33840
L38390 33800
L38390 33700
L38360 33650
L38340 33630
L38290 33610
" />
<path d="M37500 33000
L39000 33000
" />
<path d="M38150 32890
L38250 32890
L38290 32870
L38320 32840
L38360 32770
L38390 32680
L38390 32490
L38360 32440
L38340 32420
L38290 32390
L38200 32390
L38150 32420
L38130 32440
L38100 32490
L38100 32610
L38130 32650
L38150 32680
L38200 32700
L38290 32700
L38340 32680
L38360 32650
L38390 32610
" />
</g>
<g style="fill:#008484; fill-opacity:0.0; 
stroke:#008484; stroke-width:40; stroke-opacity:1; 
stroke-linecap:round; stroke-linejoin:round;">
<path d="M34090 30490
L34090 30850
L34070 30920
L34020 30970
L33950 30990
L33900 30990
" />
<path d="M34210 31040
L34590 31040
" />
<path d="M34710 30990
L34710 30490
L34880 30850
L35040 30490
L35040 30990
" />
<path d="M35260 30850
L35500 30850
" />
<path d="M35210 30990
L35380 30490
L35540 30990
" />
<path d="M35710 30990
L35710 30490
" />
<path d="M35950 30990
L35950 30490
L36230 30990
L36230 30490
" />
<path d="M36400 30490
L36690 30490
" />
<path d="M36540 30990
L36540 30490
" />
<path d="M36950 30490
L37040 30490
L37090 30520
L37140 30560
L37160 30660
L37160 30820
L37140 30920
L37090 30970
L37040 30990
L36950 30990
L36900 30970
L36850 30920
L36830 30820
L36830 30660
L36850 30560
L36900 30520
L36950 30490
" />
<path d="M37350 30850
L37590 30850
" />
<path d="M37300 30990
L37470 30490
L37640 30990
" />
<path d="M37800 30490
L37800 30900
L37830 30940
L37850 30970
L37900 30990
L38000 30990
L38040 30970
L38070 30940
L38090 30900
L38090 30490
" />
<path d="M38280 30490
L38610 30990
" />
<path d="M38610 30490
L38280 30990
" />
<path d="M39070 30990
L38780 30990
" />
<path d="M38920 30990
L38920 30490
L38880 30560
L38830 30610
L38780 30630
" />
</g>
<g style="fill:#008484; fill-opacity:0.0; 
stroke:#008484; stroke-width:0; stroke-opacity:1; 
stroke-linecap:round; stroke-linejoin:round;">
</g>
<g style="fill:#840000; fill-opacity:0.0; 
stroke:#840000; stroke-width:0; stroke-opacity:1; 
stroke-linecap:round; stroke-linejoin:round;">
</g>
<g style="fill:#FFFFC2; fill-opacity:0.0; 
stroke:#FFFFC2; stroke-width:0; stroke-opacity:1; 
stroke-linecap:round; stroke-linejoin:round;">
</g>
<g style="fill:#FFFFC2; fill-opacity:0.6; 
stroke:#FFFFC2; stroke-width:0; stroke-opacity:1; 
stroke-linecap:round; stroke-linejoin:round;">
<rect x="53500" y="31500" width="2000" height="5000" rx="0" />
</g>
<g style="fill:#840000; fill-opacity:0.6; 
stroke:#840000; stroke-width:0; stroke-opacity:1; 
stroke-linecap:round; stroke-linejoin:round;">
</g>
<g style="fill:#840000; fill-opacity:0.0; 
stroke:#840000; stroke-width:100; stroke-opacity:1; 
stroke-linecap:round; stroke-linejoin:round;">
<rect x="53500" y="31500" width="2000" height="5000" rx="0" />
</g>
<g style="fill:#840000; fill-opacity:0.0; 
stroke:#840000; stroke-width:60; stroke-opacity:1; 
stroke-linecap:round; stroke-linejoin:round;">
<rect x="53500" y="35950" width="500" height="100" rx="0" />
<rect x="53500" y="34950" width="500" height="100" rx="0" />
<rect x="53500" y="33950" width="500" height="100" rx="0" />
<rect x="53500" y="32950" width="500" height="100" rx="0" />
<rect x="53500" y="31950" width="500" height="100" rx="0" />
<rect x="55000" y="35950" width="500" height="100" rx="0" />
<rect x="55000" y="34950" width="500" height="100" rx="0" />
<rect x="55000" y="33950" width="500" height="100" rx="0" />
<rect x="55000" y="32950" width="500" height="100" rx="0" />
<rect x="55000" y="31950" width="500" height="100" rx="0" />
</g>
<g style="fill:#840000; fill-opacity:0.0; 
stroke:#840000; stroke-width:40; stroke-opacity:1; 
stroke-linecap:round; stroke-linejoin:round;">
<path d="M53500 32000
L52000 32000
" />
<path d="M52890 31890
L52600 31890
" />
<path d="M52750 31890
L52750 31390
L52700 31460
L52650 31510
L52600 31530
" />
<path d="M55500 32000
L57000 32000
" />
<path d="M56150 31890
L55860 31890
" />
<path d="M56010 31890
L56010 31390
L55960 31460
L55910 31510
L55860 31530
" />
<path d="M56460 31390
L56510 31390
L56550 31420
L56580 31440
L56600 31490
L56630 31580
L56630 31700
L56600 31800
L56580 31840
L56550 31870
L56510 31890
L56460 31890
L56410 31870
L56390 31840
L56360 31800
L56340 31700
L56340 31580
L56360 31490
L56390 31440
L56410 31420
L56460 31390
" />
<path d="M53500 33000
L52000 33000
" />
<path d="M52600 32440
L52630 32420
L52670 32390
L52790 32390
L52840 32420
L52860 32440
L52890 32490
L52890 32530
L52860 32610
L52580 32890
L52890 32890
" />
<path d="M53500 34000
L52000 34000
" />
<path d="M52580 33390
L52890 33390
L52720 33580
L52790 33580
L52840 33610
L52860 33630
L52890 33680
L52890 33800
L52860 33840
L52840 33870
L52790 33890
L52650 33890
L52600 33870
L52580 33840
" />
<path d="M53500 35000
L52000 35000
" />
<path d="M52840 34560
L52840 34890
" />
<path d="M52720 34370
L52600 34720
L52910 34720
" />
<path d="M53500 36000
L52000 36000
" />
<path d="M52860 35390
L52630 35390
L52600 35630
L52630 35610
L52670 35580
L52790 35580
L52840 35610
L52860 35630
L52890 35680
L52890 35800
L52860 35840
L52840 35870
L52790 35890
L52670 35890
L52630 35870
L52600 35840
" />
<path d="M55500 36000
L57000 36000
" />
<path d="M56340 35390
L56250 35390
L56200 35420
L56170 35440
L56130 35510
L56100 35610
L56100 35800
L56130 35840
L56150 35870
L56200 35890
L56290 35890
L56340 35870
L56360 35840
L56390 35800
L56390 35680
L56360 35630
L56340 35610
L56290 35580
L56200 35580
L56150 35610
L56130 35630
L56100 35680
" />
<path d="M55500 35000
L57000 35000
" />
<path d="M56080 34390
L56410 34390
L56200 34890
" />
<path d="M55500 34000
L57000 34000
" />
<path d="M56200 33610
L56150 33580
L56130 33560
L56100 33510
L56100 33490
L56130 33440
L56150 33420
L56200 33390
L56290 33390
L56340 33420
L56360 33440
L56390 33490
L56390 33510
L56360 33560
L56340 33580
L56290 33610
L56200 33610
L56150 33630
L56130 33650
L56100 33700
L56100 33800
L56130 33840
L56150 33870
L56200 33890
L56290 33890
L56340 33870
L56360 33840
L56390 33800
L56390 33700
L56360 33650
L56340 33630
L56290 33610
" />
<path d="M55500 33000
L57000 33000
" />
<path d="M56150 32890
L56250 32890
L56290 32870
L56320 32840
L56360 32770
L56390 32680
L56390 32490
L56360 32440
L56340 32420
L56290 32390
L56200 32390
L56150 32420
L56130 32440
L56100 32490
L56100 32610
L56130 32650
L56150 32680
L56200 32700
L56290 32700
L56340 32680
L56360 32650
L56390 32610
" />
</g>
<g style="fill:#008484; fill-opacity:0.0; 
stroke:#008484; stroke-width:40; stroke-opacity:1; 
stroke-linecap:round; stroke-linejoin:round;">
<path d="M52090 30490
L52090 30850
L52070 30920
L52020 30970
L51950 30990
L51900 30990
" />
<path d="M52210 31040
L52590 31040
" />
<path d="M52690 30850
L52920 30850
" />
<path d="M52640 30990
L52800 30490
L52970 30990
" />
<path d="M53140 30490
L53140 30900
L53160 30940
L53190 30970
L53230 30990
L53330 30990
L53380 30970
L53400 30940
L53420 30900
L53420 30490
" />
<path d="M53610 30490
L53950 30990
" />
<path d="M53950 30490
L53610 30990
" />
<path d="M54070 30490
L54350 30490
" />
<path d="M54210 30990
L54210 30490
" />
<path d="M54610 30490
L54710 30490
L54760 30520
L54800 30560
L54830 30660
L54830 30820
L54800 30920
L54760 30970
L54710 30990
L54610 30990
L54570 30970
L54520 30920
L54500 30820
L54500 30660
L54520 30560
L54570 30520
L54610 30490
" />
<path d="M55040 30990
L55040 30490
L55210 30850
L55380 30490
L55380 30990
" />
<path d="M55590 30850
L55830 30850
" />
<path d="M55540 30990
L55710 30490
L55880 30990
" />
<path d="M56040 30990
L56040 30490
" />
<path d="M56280 30990
L56280 30490
L56570 30990
L56570 30490
" />
<path d="M57070 30990
L56780 30990
" />
<path d="M56920 30990
L56920 30490
L56880 30560
L56830 30610
L56780 30630
" />
</g>
<g style="fill:#000084; fill-opacity:0.0; 
stroke:#000084; stroke-width:40; stroke-opacity:1; 
stroke-linecap:round; stroke-linejoin:round;">
<path d="M38760 31760
L39240 32240
" />
<path d="M39240 31760
L38760 32240
" />
<path d="M56760 31760
L57240 32240
" />
<path d="M57240 31760
L56760 32240
" />
</g> 
</svg>
