M48
;DRILL file {KiCad 4.0.6} date 12/28/17 14:22:21
;FORMAT={-:-/ absolute / metric / decimal}
FMAT,2
METRIC,TZ
T1C0.400
T2C1.000
T3C1.001
T4C2.000
%
G90
G05
M71
T1
X91.516Y-81.94
X91.897Y-96.139
X92.202Y-130.302
X93.447Y-81.94
X94.869Y-112.268
X96.203Y-96.012
X96.266Y-114.046
X97.536Y-123.952
X97.536Y-126.746
X97.917Y-79.121
X97.917Y-95.758
X99.822Y-112.268
X100.33Y-121.539
X100.33Y-126.746
X100.584Y-113.919
X102.108Y-101.854
X103.886Y-122.555
X103.886Y-126.619
X106.096Y-81.89
X107.061Y-92.202
X107.188Y-112.268
X108.483Y-81.89
X109.728Y-142.494
X109.855Y-109.601
X110.49Y-95.631
X111.252Y-130.302
X113.093Y-83.439
X113.093Y-93.345
X113.157Y-142.494
X114.554Y-112.268
T2
X89.154Y-85.725
X89.154Y-88.265
X89.154Y-90.805
X89.154Y-93.345
X89.344Y-48.133
X89.344Y-50.673
X89.344Y-53.213
X89.344Y-55.753
X94.504Y-56.388
X97.004Y-56.388
X99.504Y-56.388
X103.06Y-53.594
X103.06Y-56.134
X106.569Y-56.388
X109.069Y-56.388
X111.569Y-56.388
X116.586Y-85.725
X116.586Y-88.265
X116.586Y-90.805
X116.586Y-93.345
X116.776Y-48.133
X116.776Y-50.673
X116.776Y-53.213
X116.776Y-55.753
T3
X110.871Y-79.502
T4
X92.306Y-115.696
X92.329Y-99.696
X92.605Y-49.388
X98.397Y-139.661
X98.397Y-145.161
X98.397Y-150.661
X100.434Y-118.492
X100.434Y-134.492
X101.404Y-49.388
X102.997Y-139.661
X102.997Y-145.161
X102.997Y-150.661
X104.669Y-49.388
X105.306Y-99.696
X105.306Y-115.696
X107.597Y-139.661
X107.597Y-145.161
X107.597Y-150.661
X113.411Y-134.492
X113.434Y-118.492
X113.469Y-49.388
T2
X99.186Y-74.74G85X99.186Y-76.74
G05
X104.886Y-72.74G85X102.886Y-72.74
G05
X104.886Y-78.74G85X102.886Y-78.74
G05
T0
M30
