<?xml version="1.0" standalone="no"?>
 <!DOCTYPE svg PUBLIC "-//W3C//DTD SVG 1.1//EN" 
 "http://www.w3.org/Graphics/SVG/1.1/DTD/svg11.dtd"> 
<svg xmlns="http://www.w3.org/2000/svg" version="1.1" 
    width="29.7002cm" height="21.0007cm" viewBox="0 0 116930 82680 ">
<title>SVG Picture created as 555PWMTremolo_3PDT-555PWMTremolo_3PDT.svg date 2018/11/15 11:31:36 </title>
  <desc>Picture generated by Eeschema-SVG </desc>
<g style="fill:#000000; fill-opacity:1;stroke:#000000; stroke-opacity:1;
stroke-linecap:round; stroke-linejoin:round; "
 transform="translate(0 0) scale(1 1)">
</g>
<g style="fill:#000000; fill-opacity:0.0; 
stroke:#000000; stroke-width:-10; stroke-opacity:1; 
stroke-linecap:round; stroke-linejoin:round;">
</g>
<g style="fill:#840000; fill-opacity:0.0; 
stroke:#840000; stroke-width:-10; stroke-opacity:1; 
stroke-linecap:round; stroke-linejoin:round;">
</g>
<g style="fill:#840000; fill-opacity:0.0; 
stroke:#840000; stroke-width:100; stroke-opacity:1; 
stroke-linecap:round; stroke-linejoin:round;">
</g>
<g style="fill:#840000; fill-opacity:0.0; 
stroke:#840000; stroke-width:60; stroke-opacity:1; 
stroke-linecap:round; stroke-linejoin:round;">
<rect x="69690" y="65360" width="42520" height="12600" rx="0" />
</g>
<g style="fill:#840000; fill-opacity:0.0; 
stroke:#840000; stroke-width:100; stroke-opacity:1; 
stroke-linecap:round; stroke-linejoin:round;">
</g>
<g style="fill:#840000; fill-opacity:0.0; 
stroke:#840000; stroke-width:60; stroke-opacity:1; 
stroke-linecap:round; stroke-linejoin:round;">
<rect x="3940" y="3940" width="109050" height="74800" rx="0" />
</g>
<g style="fill:#840000; fill-opacity:0.0; 
stroke:#840000; stroke-width:100; stroke-opacity:1; 
stroke-linecap:round; stroke-linejoin:round;">
</g>
<g style="fill:#840000; fill-opacity:0.0; 
stroke:#840000; stroke-width:60; stroke-opacity:1; 
stroke-linecap:round; stroke-linejoin:round;">
<rect x="4720" y="4720" width="107490" height="73240" rx="0" />
</g>
<g style="fill:#840000; fill-opacity:0.0; 
stroke:#840000; stroke-width:100; stroke-opacity:1; 
stroke-linecap:round; stroke-linejoin:round;">
</g>
<g style="fill:#840000; fill-opacity:0.0; 
stroke:#840000; stroke-width:60; stroke-opacity:1; 
stroke-linecap:round; stroke-linejoin:round;">
<path d="M23620 4720
L23620 3940
" />
</g>
<g style="fill:#840000; fill-opacity:0.0; 
stroke:#840000; stroke-width:100; stroke-opacity:1; 
stroke-linecap:round; stroke-linejoin:round;">
</g>
<g style="fill:#840000; fill-opacity:0.0; 
stroke:#840000; stroke-width:60; stroke-opacity:1; 
stroke-linecap:round; stroke-linejoin:round;">
<path d="M43310 4720
L43310 3940
" />
</g>
<g style="fill:#840000; fill-opacity:0.0; 
stroke:#840000; stroke-width:100; stroke-opacity:1; 
stroke-linecap:round; stroke-linejoin:round;">
</g>
<g style="fill:#840000; fill-opacity:0.0; 
stroke:#840000; stroke-width:60; stroke-opacity:1; 
stroke-linecap:round; stroke-linejoin:round;">
<path d="M62990 4720
L62990 3940
" />
</g>
<g style="fill:#840000; fill-opacity:0.0; 
stroke:#840000; stroke-width:100; stroke-opacity:1; 
stroke-linecap:round; stroke-linejoin:round;">
</g>
<g style="fill:#840000; fill-opacity:0.0; 
stroke:#840000; stroke-width:60; stroke-opacity:1; 
stroke-linecap:round; stroke-linejoin:round;">
<path d="M82680 4720
L82680 3940
" />
</g>
<g style="fill:#840000; fill-opacity:0.0; 
stroke:#840000; stroke-width:100; stroke-opacity:1; 
stroke-linecap:round; stroke-linejoin:round;">
</g>
<g style="fill:#840000; fill-opacity:0.0; 
stroke:#840000; stroke-width:60; stroke-opacity:1; 
stroke-linecap:round; stroke-linejoin:round;">
<path d="M102360 4720
L102360 3940
" />
</g>
<g style="fill:#840000; fill-opacity:0.0; 
stroke:#840000; stroke-width:100; stroke-opacity:1; 
stroke-linecap:round; stroke-linejoin:round;">
</g>
<g style="fill:#840000; fill-opacity:0.0; 
stroke:#840000; stroke-width:60; stroke-opacity:1; 
stroke-linecap:round; stroke-linejoin:round;">
<path d="M14190 4560
L13900 4560
" />
<path d="M14050 4560
L14050 4050
L14000 4120
L13950 4170
L13900 4190
" />
</g>
<g style="fill:#840000; fill-opacity:0.0; 
stroke:#840000; stroke-width:100; stroke-opacity:1; 
stroke-linecap:round; stroke-linejoin:round;">
</g>
<g style="fill:#840000; fill-opacity:0.0; 
stroke:#840000; stroke-width:60; stroke-opacity:1; 
stroke-linecap:round; stroke-linejoin:round;">
<path d="M33580 4090
L33610 4070
L33660 4050
L33780 4050
L33830 4070
L33850 4090
L33870 4140
L33870 4190
L33850 4260
L33560 4560
L33870 4560
" />
</g>
<g style="fill:#840000; fill-opacity:0.0; 
stroke:#840000; stroke-width:100; stroke-opacity:1; 
stroke-linecap:round; stroke-linejoin:round;">
</g>
<g style="fill:#840000; fill-opacity:0.0; 
stroke:#840000; stroke-width:60; stroke-opacity:1; 
stroke-linecap:round; stroke-linejoin:round;">
<path d="M53250 4050
L53560 4050
L53390 4240
L53470 4240
L53520 4260
L53540 4290
L53560 4340
L53560 4460
L53540 4510
L53520 4530
L53470 4560
L53320 4560
L53270 4530
L53250 4510
" />
</g>
<g style="fill:#840000; fill-opacity:0.0; 
stroke:#840000; stroke-width:100; stroke-opacity:1; 
stroke-linecap:round; stroke-linejoin:round;">
</g>
<g style="fill:#840000; fill-opacity:0.0; 
stroke:#840000; stroke-width:60; stroke-opacity:1; 
stroke-linecap:round; stroke-linejoin:round;">
<path d="M73200 4220
L73200 4560
" />
<path d="M73070 4020
L72950 4390
L73270 4390
" />
</g>
<g style="fill:#840000; fill-opacity:0.0; 
stroke:#840000; stroke-width:100; stroke-opacity:1; 
stroke-linecap:round; stroke-linejoin:round;">
</g>
<g style="fill:#840000; fill-opacity:0.0; 
stroke:#840000; stroke-width:60; stroke-opacity:1; 
stroke-linecap:round; stroke-linejoin:round;">
<path d="M92910 4050
L92670 4050
L92640 4290
L92670 4260
L92720 4240
L92840 4240
L92890 4260
L92910 4290
L92930 4340
L92930 4460
L92910 4510
L92890 4530
L92840 4560
L92720 4560
L92670 4530
L92640 4510
" />
</g>
<g style="fill:#840000; fill-opacity:0.0; 
stroke:#840000; stroke-width:100; stroke-opacity:1; 
stroke-linecap:round; stroke-linejoin:round;">
</g>
<g style="fill:#840000; fill-opacity:0.0; 
stroke:#840000; stroke-width:60; stroke-opacity:1; 
stroke-linecap:round; stroke-linejoin:round;">
<path d="M112570 4050
L112470 4050
L112420 4070
L112400 4090
L112350 4170
L112320 4260
L112320 4460
L112350 4510
L112370 4530
L112420 4560
L112520 4560
L112570 4530
L112590 4510
L112610 4460
L112610 4340
L112590 4290
L112570 4260
L112520 4240
L112420 4240
L112370 4260
L112350 4290
L112320 4340
" />
</g>
<g style="fill:#840000; fill-opacity:0.0; 
stroke:#840000; stroke-width:100; stroke-opacity:1; 
stroke-linecap:round; stroke-linejoin:round;">
</g>
<g style="fill:#840000; fill-opacity:0.0; 
stroke:#840000; stroke-width:60; stroke-opacity:1; 
stroke-linecap:round; stroke-linejoin:round;">
<path d="M23620 77960
L23620 78740
" />
</g>
<g style="fill:#840000; fill-opacity:0.0; 
stroke:#840000; stroke-width:100; stroke-opacity:1; 
stroke-linecap:round; stroke-linejoin:round;">
</g>
<g style="fill:#840000; fill-opacity:0.0; 
stroke:#840000; stroke-width:60; stroke-opacity:1; 
stroke-linecap:round; stroke-linejoin:round;">
<path d="M43310 77960
L43310 78740
" />
</g>
<g style="fill:#840000; fill-opacity:0.0; 
stroke:#840000; stroke-width:100; stroke-opacity:1; 
stroke-linecap:round; stroke-linejoin:round;">
</g>
<g style="fill:#840000; fill-opacity:0.0; 
stroke:#840000; stroke-width:60; stroke-opacity:1; 
stroke-linecap:round; stroke-linejoin:round;">
<path d="M62990 77960
L62990 78740
" />
</g>
<g style="fill:#840000; fill-opacity:0.0; 
stroke:#840000; stroke-width:100; stroke-opacity:1; 
stroke-linecap:round; stroke-linejoin:round;">
</g>
<g style="fill:#840000; fill-opacity:0.0; 
stroke:#840000; stroke-width:60; stroke-opacity:1; 
stroke-linecap:round; stroke-linejoin:round;">
<path d="M82680 77960
L82680 78740
" />
</g>
<g style="fill:#840000; fill-opacity:0.0; 
stroke:#840000; stroke-width:100; stroke-opacity:1; 
stroke-linecap:round; stroke-linejoin:round;">
</g>
<g style="fill:#840000; fill-opacity:0.0; 
stroke:#840000; stroke-width:60; stroke-opacity:1; 
stroke-linecap:round; stroke-linejoin:round;">
<path d="M102360 77960
L102360 78740
" />
</g>
<g style="fill:#840000; fill-opacity:0.0; 
stroke:#840000; stroke-width:100; stroke-opacity:1; 
stroke-linecap:round; stroke-linejoin:round;">
</g>
<g style="fill:#840000; fill-opacity:0.0; 
stroke:#840000; stroke-width:60; stroke-opacity:1; 
stroke-linecap:round; stroke-linejoin:round;">
<path d="M14190 78580
L13900 78580
" />
<path d="M14050 78580
L14050 78070
L14000 78140
L13950 78190
L13900 78210
" />
</g>
<g style="fill:#840000; fill-opacity:0.0; 
stroke:#840000; stroke-width:100; stroke-opacity:1; 
stroke-linecap:round; stroke-linejoin:round;">
</g>
<g style="fill:#840000; fill-opacity:0.0; 
stroke:#840000; stroke-width:60; stroke-opacity:1; 
stroke-linecap:round; stroke-linejoin:round;">
<path d="M33580 78110
L33610 78090
L33660 78070
L33780 78070
L33830 78090
L33850 78110
L33870 78160
L33870 78210
L33850 78280
L33560 78580
L33870 78580
" />
</g>
<g style="fill:#840000; fill-opacity:0.0; 
stroke:#840000; stroke-width:100; stroke-opacity:1; 
stroke-linecap:round; stroke-linejoin:round;">
</g>
<g style="fill:#840000; fill-opacity:0.0; 
stroke:#840000; stroke-width:60; stroke-opacity:1; 
stroke-linecap:round; stroke-linejoin:round;">
<path d="M53250 78070
L53560 78070
L53390 78260
L53470 78260
L53520 78280
L53540 78310
L53560 78360
L53560 78480
L53540 78530
L53520 78550
L53470 78580
L53320 78580
L53270 78550
L53250 78530
" />
</g>
<g style="fill:#840000; fill-opacity:0.0; 
stroke:#840000; stroke-width:100; stroke-opacity:1; 
stroke-linecap:round; stroke-linejoin:round;">
</g>
<g style="fill:#840000; fill-opacity:0.0; 
stroke:#840000; stroke-width:60; stroke-opacity:1; 
stroke-linecap:round; stroke-linejoin:round;">
<path d="M73200 78240
L73200 78580
" />
<path d="M73070 78040
L72950 78410
L73270 78410
" />
</g>
<g style="fill:#840000; fill-opacity:0.0; 
stroke:#840000; stroke-width:100; stroke-opacity:1; 
stroke-linecap:round; stroke-linejoin:round;">
</g>
<g style="fill:#840000; fill-opacity:0.0; 
stroke:#840000; stroke-width:60; stroke-opacity:1; 
stroke-linecap:round; stroke-linejoin:round;">
<path d="M92910 78070
L92670 78070
L92640 78310
L92670 78280
L92720 78260
L92840 78260
L92890 78280
L92910 78310
L92930 78360
L92930 78480
L92910 78530
L92890 78550
L92840 78580
L92720 78580
L92670 78550
L92640 78530
" />
</g>
<g style="fill:#840000; fill-opacity:0.0; 
stroke:#840000; stroke-width:100; stroke-opacity:1; 
stroke-linecap:round; stroke-linejoin:round;">
</g>
<g style="fill:#840000; fill-opacity:0.0; 
stroke:#840000; stroke-width:60; stroke-opacity:1; 
stroke-linecap:round; stroke-linejoin:round;">
<path d="M112570 78070
L112470 78070
L112420 78090
L112400 78110
L112350 78190
L112320 78280
L112320 78480
L112350 78530
L112370 78550
L112420 78580
L112520 78580
L112570 78550
L112590 78530
L112610 78480
L112610 78360
L112590 78310
L112570 78280
L112520 78260
L112420 78260
L112370 78280
L112350 78310
L112320 78360
" />
</g>
<g style="fill:#840000; fill-opacity:0.0; 
stroke:#840000; stroke-width:100; stroke-opacity:1; 
stroke-linecap:round; stroke-linejoin:round;">
</g>
<g style="fill:#840000; fill-opacity:0.0; 
stroke:#840000; stroke-width:60; stroke-opacity:1; 
stroke-linecap:round; stroke-linejoin:round;">
<path d="M3940 23620
L4720 23620
" />
</g>
<g style="fill:#840000; fill-opacity:0.0; 
stroke:#840000; stroke-width:100; stroke-opacity:1; 
stroke-linecap:round; stroke-linejoin:round;">
</g>
<g style="fill:#840000; fill-opacity:0.0; 
stroke:#840000; stroke-width:60; stroke-opacity:1; 
stroke-linecap:round; stroke-linejoin:round;">
<path d="M3940 43310
L4720 43310
" />
</g>
<g style="fill:#840000; fill-opacity:0.0; 
stroke:#840000; stroke-width:100; stroke-opacity:1; 
stroke-linecap:round; stroke-linejoin:round;">
</g>
<g style="fill:#840000; fill-opacity:0.0; 
stroke:#840000; stroke-width:60; stroke-opacity:1; 
stroke-linecap:round; stroke-linejoin:round;">
<path d="M3940 62990
L4720 62990
" />
</g>
<g style="fill:#840000; fill-opacity:0.0; 
stroke:#840000; stroke-width:100; stroke-opacity:1; 
stroke-linecap:round; stroke-linejoin:round;">
</g>
<g style="fill:#840000; fill-opacity:0.0; 
stroke:#840000; stroke-width:60; stroke-opacity:1; 
stroke-linecap:round; stroke-linejoin:round;">
<path d="M4200 13860
L4450 13860
" />
<path d="M4160 14010
L4330 13500
L4500 14010
" />
</g>
<g style="fill:#840000; fill-opacity:0.0; 
stroke:#840000; stroke-width:100; stroke-opacity:1; 
stroke-linecap:round; stroke-linejoin:round;">
</g>
<g style="fill:#840000; fill-opacity:0.0; 
stroke:#840000; stroke-width:60; stroke-opacity:1; 
stroke-linecap:round; stroke-linejoin:round;">
<path d="M4360 33420
L4430 33440
L4460 33470
L4480 33520
L4480 33590
L4460 33640
L4430 33660
L4390 33690
L4190 33690
L4190 33180
L4360 33180
L4410 33200
L4430 33220
L4460 33270
L4460 33320
L4430 33370
L4410 33390
L4360 33420
L4190 33420
" />
</g>
<g style="fill:#840000; fill-opacity:0.0; 
stroke:#840000; stroke-width:100; stroke-opacity:1; 
stroke-linecap:round; stroke-linejoin:round;">
</g>
<g style="fill:#840000; fill-opacity:0.0; 
stroke:#840000; stroke-width:60; stroke-opacity:1; 
stroke-linecap:round; stroke-linejoin:round;">
<path d="M4480 53330
L4460 53350
L4390 53380
L4340 53380
L4260 53350
L4220 53300
L4190 53250
L4170 53160
L4170 53080
L4190 52990
L4220 52940
L4260 52890
L4340 52870
L4390 52870
L4460 52890
L4480 52910
" />
</g>
<g style="fill:#840000; fill-opacity:0.0; 
stroke:#840000; stroke-width:100; stroke-opacity:1; 
stroke-linecap:round; stroke-linejoin:round;">
</g>
<g style="fill:#840000; fill-opacity:0.0; 
stroke:#840000; stroke-width:60; stroke-opacity:1; 
stroke-linecap:round; stroke-linejoin:round;">
<path d="M4190 73060
L4190 72550
L4310 72550
L4390 72570
L4430 72620
L4460 72670
L4480 72760
L4480 72840
L4460 72930
L4430 72980
L4390 73030
L4310 73060
L4190 73060
" />
</g>
<g style="fill:#840000; fill-opacity:0.0; 
stroke:#840000; stroke-width:100; stroke-opacity:1; 
stroke-linecap:round; stroke-linejoin:round;">
</g>
<g style="fill:#840000; fill-opacity:0.0; 
stroke:#840000; stroke-width:60; stroke-opacity:1; 
stroke-linecap:round; stroke-linejoin:round;">
<path d="M112990 23620
L112210 23620
" />
</g>
<g style="fill:#840000; fill-opacity:0.0; 
stroke:#840000; stroke-width:100; stroke-opacity:1; 
stroke-linecap:round; stroke-linejoin:round;">
</g>
<g style="fill:#840000; fill-opacity:0.0; 
stroke:#840000; stroke-width:60; stroke-opacity:1; 
stroke-linecap:round; stroke-linejoin:round;">
<path d="M112990 43310
L112210 43310
" />
</g>
<g style="fill:#840000; fill-opacity:0.0; 
stroke:#840000; stroke-width:100; stroke-opacity:1; 
stroke-linecap:round; stroke-linejoin:round;">
</g>
<g style="fill:#840000; fill-opacity:0.0; 
stroke:#840000; stroke-width:60; stroke-opacity:1; 
stroke-linecap:round; stroke-linejoin:round;">
<path d="M112990 62990
L112210 62990
" />
</g>
<g style="fill:#840000; fill-opacity:0.0; 
stroke:#840000; stroke-width:100; stroke-opacity:1; 
stroke-linecap:round; stroke-linejoin:round;">
</g>
<g style="fill:#840000; fill-opacity:0.0; 
stroke:#840000; stroke-width:60; stroke-opacity:1; 
stroke-linecap:round; stroke-linejoin:round;">
<path d="M112470 13860
L112720 13860
" />
<path d="M112430 14010
L112600 13500
L112770 14010
" />
</g>
<g style="fill:#840000; fill-opacity:0.0; 
stroke:#840000; stroke-width:100; stroke-opacity:1; 
stroke-linecap:round; stroke-linejoin:round;">
</g>
<g style="fill:#840000; fill-opacity:0.0; 
stroke:#840000; stroke-width:60; stroke-opacity:1; 
stroke-linecap:round; stroke-linejoin:round;">
<path d="M112630 33420
L112700 33440
L112730 33470
L112750 33520
L112750 33590
L112730 33640
L112700 33660
L112660 33690
L112460 33690
L112460 33180
L112630 33180
L112680 33200
L112700 33220
L112730 33270
L112730 33320
L112700 33370
L112680 33390
L112630 33420
L112460 33420
" />
</g>
<g style="fill:#840000; fill-opacity:0.0; 
stroke:#840000; stroke-width:100; stroke-opacity:1; 
stroke-linecap:round; stroke-linejoin:round;">
</g>
<g style="fill:#840000; fill-opacity:0.0; 
stroke:#840000; stroke-width:60; stroke-opacity:1; 
stroke-linecap:round; stroke-linejoin:round;">
<path d="M112750 53330
L112730 53350
L112660 53380
L112610 53380
L112530 53350
L112490 53300
L112460 53250
L112440 53160
L112440 53080
L112460 52990
L112490 52940
L112530 52890
L112610 52870
L112660 52870
L112730 52890
L112750 52910
" />
</g>
<g style="fill:#840000; fill-opacity:0.0; 
stroke:#840000; stroke-width:100; stroke-opacity:1; 
stroke-linecap:round; stroke-linejoin:round;">
</g>
<g style="fill:#840000; fill-opacity:0.0; 
stroke:#840000; stroke-width:60; stroke-opacity:1; 
stroke-linecap:round; stroke-linejoin:round;">
<path d="M112460 73060
L112460 72550
L112580 72550
L112660 72570
L112700 72620
L112730 72670
L112750 72760
L112750 72840
L112730 72930
L112700 72980
L112660 73030
L112580 73060
L112460 73060
" />
</g>
<g style="fill:#840000; fill-opacity:0.0; 
stroke:#840000; stroke-width:100; stroke-opacity:1; 
stroke-linecap:round; stroke-linejoin:round;">
</g>
<g style="fill:#840000; fill-opacity:0.0; 
stroke:#840000; stroke-width:60; stroke-opacity:1; 
stroke-linecap:round; stroke-linejoin:round;">
<path d="M78910 76290
L78910 75700
L79050 75700
L79130 75730
L79190 75790
L79210 75840
L79240 75950
L79240 76040
L79210 76150
L79190 76210
L79130 76260
L79050 76290
L78910 76290
" />
<path d="M79750 76290
L79750 75980
L79720 75930
L79660 75900
L79550 75900
L79500 75930
" />
<path d="M79750 76260
L79690 76290
L79550 76290
L79500 76260
L79470 76210
L79470 76150
L79500 76100
L79550 76070
L79690 76070
L79750 76040
" />
<path d="M79950 75900
L80170 75900
" />
<path d="M80030 75700
L80030 76210
L80060 76260
L80110 76290
L80170 76290
" />
<path d="M80590 76260
L80540 76290
L80420 76290
L80370 76260
L80340 76210
L80340 75980
L80370 75930
L80420 75900
L80540 75900
L80590 75930
L80620 75980
L80620 76040
L80340 76100
" />
<path d="M80870 76240
L80900 76260
L80870 76290
L80840 76260
L80870 76240
L80870 76290
" />
<path d="M80870 75930
L80900 75950
L80870 75980
L80840 75950
L80870 75930
L80870 75980
" />
</g>
<g style="fill:#840000; fill-opacity:0.0; 
stroke:#840000; stroke-width:100; stroke-opacity:1; 
stroke-linecap:round; stroke-linejoin:round;">
</g>
<g style="fill:#840000; fill-opacity:0.0; 
stroke:#840000; stroke-width:60; stroke-opacity:1; 
stroke-linecap:round; stroke-linejoin:round;">
<path d="M69690 76580
L112210 76580
" />
</g>
<g style="fill:#840000; fill-opacity:0.0; 
stroke:#840000; stroke-width:100; stroke-opacity:1; 
stroke-linecap:round; stroke-linejoin:round;">
</g>
<g style="fill:#840000; fill-opacity:0.0; 
stroke:#840000; stroke-width:60; stroke-opacity:1; 
stroke-linecap:round; stroke-linejoin:round;">
<path d="M70250 77390
L70250 76800
" />
<path d="M70580 77390
L70330 77050
" />
<path d="M70580 76800
L70250 77140
" />
<path d="M70840 77390
L70840 77000
" />
<path d="M70840 76800
L70810 76830
L70840 76860
L70860 76830
L70840 76800
L70840 76860
" />
<path d="M71450 77340
L71430 77360
L71340 77390
L71290 77390
L71200 77360
L71140 77310
L71120 77250
L71090 77140
L71090 77050
L71120 76940
L71140 76890
L71200 76830
L71290 76800
L71340 76800
L71430 76830
L71450 76860
" />
<path d="M71960 77390
L71960 77080
L71930 77030
L71880 77000
L71760 77000
L71710 77030
" />
<path d="M71960 77360
L71900 77390
L71760 77390
L71710 77360
L71680 77310
L71680 77250
L71710 77200
L71760 77170
L71900 77170
L71960 77140
" />
<path d="M72490 77390
L72490 76800
" />
<path d="M72490 77360
L72440 77390
L72320 77390
L72270 77360
L72240 77340
L72210 77280
L72210 77110
L72240 77050
L72270 77030
L72320 77000
L72440 77000
L72490 77030
" />
<path d="M73220 77080
L73420 77080
" />
<path d="M73500 77390
L73220 77390
L73220 76800
L73500 76800
" />
<path d="M73760 77340
L73790 77360
L73760 77390
L73730 77360
L73760 77340
L73760 77390
" />
<path d="M74040 77390
L74040 76800
L74180 76800
L74260 76830
L74320 76890
L74350 76940
L74380 77050
L74380 77140
L74350 77250
L74320 77310
L74260 77360
L74180 77390
L74040 77390
" />
<path d="M74630 77340
L74660 77360
L74630 77390
L74600 77360
L74630 77340
L74630 77390
" />
<path d="M74880 77220
L75160 77220
" />
<path d="M74830 77390
L75020 76800
L75220 77390
" />
<path d="M75420 77340
L75440 77360
L75420 77390
L75390 77360
L75420 77340
L75420 77390
" />
<path d="M76600 77390
L76600 76800
" />
<path d="M76650 77170
L76820 77390
" />
<path d="M76820 77000
L76600 77220
" />
<path d="M77070 77390
L77070 77000
" />
<path d="M77070 76800
L77040 76830
L77070 76860
L77100 76830
L77070 76800
L77070 76860
" />
<path d="M77610 77360
L77550 77390
L77440 77390
L77380 77360
L77350 77340
L77330 77280
L77330 77110
L77350 77050
L77380 77030
L77440 77000
L77550 77000
L77610 77030
" />
<path d="M78110 77390
L78110 77080
L78080 77030
L78030 77000
L77920 77000
L77860 77030
" />
<path d="M78110 77360
L78060 77390
L77920 77390
L77860 77360
L77830 77310
L77830 77250
L77860 77200
L77920 77170
L78060 77170
L78110 77140
" />
<path d="M78650 77390
L78650 76800
" />
<path d="M78650 77360
L78590 77390
L78480 77390
L78420 77360
L78390 77340
L78370 77280
L78370 77110
L78390 77050
L78420 77030
L78480 77000
L78590 77000
L78650 77030
" />
<path d="M79550 77620
L79520 77590
L79460 77500
L79430 77450
L79400 77360
L79380 77220
L79380 77110
L79400 76970
L79430 76890
L79460 76830
L79520 76750
L79550 76720
" />
<path d="M80050 76800
L79770 76800
L79740 77080
L79770 77050
L79830 77030
L79970 77030
L80020 77050
L80050 77080
L80080 77140
L80080 77280
L80050 77340
L80020 77360
L79970 77390
L79830 77390
L79770 77360
L79740 77340
" />
<path d="M80330 77340
L80360 77360
L80330 77390
L80300 77360
L80330 77340
L80330 77390
" />
<path d="M80730 76800
L80780 76800
L80840 76830
L80870 76860
L80890 76910
L80920 77030
L80920 77170
L80890 77280
L80870 77340
L80840 77360
L80780 77390
L80730 77390
L80670 77360
L80640 77340
L80610 77280
L80580 77170
L80580 77030
L80610 76910
L80640 76860
L80670 76830
L80730 76800
" />
<path d="M81170 77340
L81200 77360
L81170 77390
L81150 77360
L81170 77340
L81170 77390
" />
<path d="M81570 76800
L81620 76800
L81680 76830
L81710 76860
L81740 76910
L81760 77030
L81760 77170
L81740 77280
L81710 77340
L81680 77360
L81620 77390
L81570 77390
L81510 77360
L81480 77340
L81460 77280
L81430 77170
L81430 77030
L81460 76910
L81480 76860
L81510 76830
L81570 76800
" />
<path d="M82020 77170
L82470 77170
" />
<path d="M82690 76800
L83060 76800
L82860 77030
L82940 77030
L83000 77050
L83030 77080
L83060 77140
L83060 77280
L83030 77340
L83000 77360
L82940 77390
L82780 77390
L82720 77360
L82690 77340
" />
<path d="M83310 77170
L83760 77170
" />
<path d="M84290 77000
L84290 77480
L84270 77530
L84240 77560
L84180 77590
L84100 77590
L84040 77560
" />
<path d="M84290 77360
L84240 77390
L84120 77390
L84070 77360
L84040 77340
L84010 77280
L84010 77110
L84040 77050
L84070 77030
L84120 77000
L84240 77000
L84290 77030
" />
<path d="M84860 76800
L84570 76800
L84550 77080
L84570 77050
L84630 77030
L84770 77030
L84830 77050
L84860 77080
L84880 77140
L84880 77280
L84860 77340
L84830 77360
L84770 77390
L84630 77390
L84570 77360
L84550 77340
" />
<path d="M85360 77360
L85300 77390
L85190 77390
L85140 77360
L85110 77310
L85110 77080
L85140 77030
L85190 77000
L85300 77000
L85360 77030
L85390 77080
L85390 77140
L85110 77200
" />
<path d="M85640 77390
L85640 76800
" />
<path d="M85640 77030
L85700 77000
L85810 77000
L85870 77030
L85890 77050
L85920 77110
L85920 77280
L85890 77340
L85870 77360
L85810 77390
L85700 77390
L85640 77360
" />
<path d="M86180 77390
L86180 76800
" />
<path d="M86180 77030
L86230 77000
L86340 77000
L86400 77030
L86430 77050
L86460 77110
L86460 77280
L86430 77340
L86400 77360
L86340 77390
L86230 77390
L86180 77360
" />
<path d="M86960 76800
L86850 76800
L86790 76830
L86770 76860
L86710 76940
L86680 77050
L86680 77280
L86710 77340
L86740 77360
L86790 77390
L86910 77390
L86960 77360
L86990 77340
L87020 77280
L87020 77140
L86990 77080
L86960 77050
L86910 77030
L86790 77030
L86740 77050
L86710 77080
L86680 77140
" />
<path d="M87270 77390
L87270 76800
" />
<path d="M87270 77030
L87330 77000
L87440 77000
L87500 77030
L87520 77050
L87550 77110
L87550 77280
L87520 77340
L87500 77360
L87440 77390
L87330 77390
L87270 77360
" />
<path d="M88060 76800
L87950 76800
L87890 76830
L87860 76860
L87810 76940
L87780 77050
L87780 77280
L87810 77340
L87830 77360
L87890 77390
L88000 77390
L88060 77360
L88090 77340
L88110 77280
L88110 77140
L88090 77080
L88060 77050
L88000 77030
L87890 77030
L87830 77050
L87810 77080
L87780 77140
" />
<path d="M88310 77620
L88340 77590
L88400 77500
L88420 77450
L88450 77360
L88480 77220
L88480 77110
L88450 76970
L88420 76890
L88400 76830
L88340 76750
L88310 76720
" />
</g>
<g style="fill:#840000; fill-opacity:0.0; 
stroke:#840000; stroke-width:100; stroke-opacity:1; 
stroke-linecap:round; stroke-linejoin:round;">
</g>
<g style="fill:#840000; fill-opacity:0.0; 
stroke:#840000; stroke-width:60; stroke-opacity:1; 
stroke-linecap:round; stroke-linejoin:round;">
<path d="M69690 75400
L112210 75400
" />
</g>
<g style="fill:#840000; fill-opacity:0.0; 
stroke:#840000; stroke-width:100; stroke-opacity:1; 
stroke-linecap:round; stroke-linejoin:round;">
</g>
<g style="fill:#840000; fill-opacity:0.0; 
stroke:#840000; stroke-width:120; stroke-opacity:1; 
stroke-linecap:round; stroke-linejoin:round;">
<path d="M104090 76290
L103890 76010
" />
<path d="M103750 76290
L103750 75700
L103980 75700
L104030 75730
L104060 75760
L104090 75810
L104090 75900
L104060 75950
L104030 75980
L103980 76010
L103750 76010
" />
<path d="M104570 76260
L104510 76290
L104400 76290
L104340 76260
L104320 76210
L104320 75980
L104340 75930
L104400 75900
L104510 75900
L104570 75930
L104600 75980
L104600 76040
L104320 76100
" />
<path d="M104790 75900
L104930 76290
L105070 75900
" />
<path d="M105300 76240
L105330 76260
L105300 76290
L105270 76260
L105300 76240
L105300 76290
" />
<path d="M105300 75930
L105330 75950
L105300 75980
L105270 75950
L105300 75930
L105300 75980
" />
</g>
<g style="fill:#840000; fill-opacity:0.0; 
stroke:#840000; stroke-width:100; stroke-opacity:1; 
stroke-linecap:round; stroke-linejoin:round;">
</g>
<g style="fill:#840000; fill-opacity:0.0; 
stroke:#840000; stroke-width:60; stroke-opacity:1; 
stroke-linecap:round; stroke-linejoin:round;">
<path d="M70220 76260
L70300 76290
L70440 76290
L70500 76260
L70530 76240
L70550 76180
L70550 76120
L70530 76070
L70500 76040
L70440 76010
L70330 75980
L70270 75950
L70250 75930
L70220 75870
L70220 75810
L70250 75760
L70270 75730
L70330 75700
L70470 75700
L70550 75730
" />
<path d="M70810 76290
L70810 75900
" />
<path d="M70810 75700
L70780 75730
L70810 75760
L70840 75730
L70810 75700
L70810 75760
" />
<path d="M71030 75900
L71340 75900
L71030 76290
L71340 76290
" />
<path d="M71790 76260
L71730 76290
L71620 76290
L71570 76260
L71540 76210
L71540 75980
L71570 75930
L71620 75900
L71730 75900
L71790 75930
L71820 75980
L71820 76040
L71540 76100
" />
<path d="M72070 76240
L72100 76260
L72070 76290
L72040 76260
L72070 76240
L72070 76290
" />
<path d="M72070 75930
L72100 75950
L72070 75980
L72040 75950
L72070 75930
L72070 75980
" />
<path d="M72770 76120
L73060 76120
" />
<path d="M72720 76290
L72910 75700
L73110 76290
" />
<path d="M73560 75900
L73560 76290
" />
<path d="M73420 75670
L73280 76100
L73650 76100
" />
</g>
<g style="fill:#840000; fill-opacity:0.0; 
stroke:#840000; stroke-width:100; stroke-opacity:1; 
stroke-linecap:round; stroke-linejoin:round;">
</g>
<g style="fill:#840000; fill-opacity:0.0; 
stroke:#840000; stroke-width:60; stroke-opacity:1; 
stroke-linecap:round; stroke-linejoin:round;">
<path d="M103710 77390
L103710 76800
" />
<path d="M104240 77390
L104240 76800
" />
<path d="M104240 77360
L104180 77390
L104070 77390
L104010 77360
L103990 77340
L103960 77280
L103960 77110
L103990 77050
L104010 77030
L104070 77000
L104180 77000
L104240 77030
" />
<path d="M104520 77340
L104550 77360
L104520 77390
L104490 77360
L104520 77340
L104520 77390
" />
<path d="M104520 77030
L104550 77050
L104520 77080
L104490 77050
L104520 77030
L104520 77080
" />
<path d="M105190 76800
L105560 76800
L105360 77030
L105450 77030
L105500 77050
L105530 77080
L105560 77140
L105560 77280
L105530 77340
L105500 77360
L105450 77390
L105280 77390
L105220 77360
L105190 77340
" />
<path d="M106230 76770
L105730 77530
" />
<path d="M106370 76800
L106740 76800
L106540 77030
L106630 77030
L106680 77050
L106710 77080
L106740 77140
L106740 77280
L106710 77340
L106680 77360
L106630 77390
L106460 77390
L106400 77360
L106370 77340
" />
</g>
<g style="fill:#840000; fill-opacity:0.0; 
stroke:#840000; stroke-width:100; stroke-opacity:1; 
stroke-linecap:round; stroke-linejoin:round;">
</g>
<g style="fill:#840000; fill-opacity:0.0; 
stroke:#840000; stroke-width:60; stroke-opacity:1; 
stroke-linecap:round; stroke-linejoin:round;">
<path d="M69690 73820
L112210 73820
" />
</g>
<g style="fill:#840000; fill-opacity:0.0; 
stroke:#840000; stroke-width:100; stroke-opacity:1; 
stroke-linecap:round; stroke-linejoin:round;">
</g>
<g style="fill:#840000; fill-opacity:0.0; 
stroke:#840000; stroke-width:160; stroke-opacity:1; 
stroke-linecap:round; stroke-linejoin:round;">
<path d="M70360 74090
L70810 74090
" />
<path d="M70480 74880
L70580 74090
" />
<path d="M70970 74880
L71040 74360
" />
<path d="M71070 74090
L71030 74130
L71060 74170
L71110 74130
L71070 74090
L71060 74170
" />
<path d="M71300 74360
L71600 74360
" />
<path d="M71450 74090
L71360 74770
L71390 74840
L71460 74880
L71540 74880
" />
<path d="M71910 74880
L71840 74840
L71820 74770
L71900 74090
" />
<path d="M72520 74840
L72440 74880
L72290 74880
L72220 74840
L72190 74770
L72230 74470
L72280 74390
L72360 74360
L72510 74360
L72580 74390
L72610 74470
L72600 74540
L72210 74620
" />
<path d="M72900 74810
L72930 74840
L72890 74880
L72860 74840
L72900 74810
L72890 74880
" />
<path d="M72950 74390
L72990 74430
L72940 74470
L72910 74430
L72950 74390
L72940 74470
" />
</g>
<g style="fill:#840000; fill-opacity:0.0; 
stroke:#840000; stroke-width:100; stroke-opacity:1; 
stroke-linecap:round; stroke-linejoin:round;">
</g>
<g style="fill:#840000; fill-opacity:0.0; 
stroke:#840000; stroke-width:60; stroke-opacity:1; 
stroke-linecap:round; stroke-linejoin:round;">
<path d="M70440 73060
L70250 73060
" />
<path d="M70250 73370
L70250 72780
L70530 72780
" />
<path d="M70750 73370
L70750 72980
" />
<path d="M70750 72780
L70720 72810
L70750 72840
L70780 72810
L70750 72780
L70750 72840
" />
<path d="M71120 73370
L71060 73340
L71030 73290
L71030 72780
" />
<path d="M71570 73340
L71510 73370
L71400 73370
L71340 73340
L71310 73290
L71310 73060
L71340 73010
L71400 72980
L71510 72980
L71570 73010
L71590 73060
L71590 73120
L71310 73180
" />
<path d="M71850 73320
L71880 73340
L71850 73370
L71820 73340
L71850 73320
L71850 73370
" />
<path d="M71850 73010
L71880 73030
L71850 73060
L71820 73030
L71850 73010
L71850 73060
" />
<path d="M72860 72780
L72580 72780
L72550 73060
L72580 73030
L72630 73010
L72770 73010
L72830 73030
L72860 73060
L72890 73120
L72890 73260
L72860 73320
L72830 73340
L72770 73370
L72630 73370
L72580 73340
L72550 73320
" />
<path d="M73420 72780
L73140 72780
L73110 73060
L73140 73030
L73200 73010
L73340 73010
L73390 73030
L73420 73060
L73450 73120
L73450 73260
L73420 73320
L73390 73340
L73340 73370
L73200 73370
L73140 73340
L73110 73320
" />
<path d="M73980 72780
L73700 72780
L73670 73060
L73700 73030
L73760 73010
L73900 73010
L73950 73030
L73980 73060
L74010 73120
L74010 73260
L73980 73320
L73950 73340
L73900 73370
L73760 73370
L73700 73340
L73670 73320
" />
<path d="M74260 73370
L74260 72780
L74490 72780
L74540 72810
L74570 72840
L74600 72890
L74600 72980
L74570 73030
L74540 73060
L74490 73090
L74260 73090
" />
<path d="M74800 72780
L74940 73370
L75050 72950
L75160 73370
L75300 72780
" />
<path d="M75530 73370
L75530 72780
L75720 73200
L75920 72780
L75920 73370
" />
<path d="M76120 72780
L76450 72780
" />
<path d="M76290 73370
L76290 72780
" />
<path d="M76650 73370
L76650 72980
" />
<path d="M76650 73090
L76680 73030
L76710 73010
L76760 72980
L76820 72980
" />
<path d="M77240 73340
L77190 73370
L77070 73370
L77020 73340
L76990 73290
L76990 73060
L77020 73010
L77070 72980
L77190 72980
L77240 73010
L77270 73060
L77270 73120
L76990 73180
" />
<path d="M77520 73370
L77520 72980
" />
<path d="M77520 73030
L77550 73010
L77610 72980
L77690 72980
L77750 73010
L77780 73060
L77780 73370
" />
<path d="M77780 73060
L77800 73010
L77860 72980
L77940 72980
L78000 73010
L78030 73060
L78030 73370
" />
<path d="M78390 73370
L78340 73340
L78310 73320
L78280 73260
L78280 73090
L78310 73030
L78340 73010
L78390 72980
L78480 72980
L78530 73010
L78560 73030
L78590 73090
L78590 73260
L78560 73320
L78530 73340
L78480 73370
L78390 73370
" />
<path d="M78930 73370
L78870 73340
L78840 73290
L78840 72780
" />
<path d="M79240 73370
L79180 73340
L79150 73320
L79120 73260
L79120 73090
L79150 73030
L79180 73010
L79240 72980
L79320 72980
L79380 73010
L79400 73030
L79430 73090
L79430 73260
L79400 73320
L79380 73340
L79320 73370
L79240 73370
" />
<path d="M79550 73430
L79990 73430
" />
<path d="M80080 72780
L80440 72780
L80250 73010
L80330 73010
L80390 73030
L80420 73060
L80440 73120
L80440 73260
L80420 73320
L80390 73340
L80330 73370
L80160 73370
L80110 73340
L80080 73320
" />
<path d="M80700 73370
L80700 72780
L80920 72780
L80980 72810
L81010 72840
L81030 72890
L81030 72980
L81010 73030
L80980 73060
L80920 73090
L80700 73090
" />
<path d="M81290 73370
L81290 72780
L81430 72780
L81510 72810
L81570 72870
L81600 72920
L81620 73030
L81620 73120
L81600 73230
L81570 73290
L81510 73340
L81430 73370
L81290 73370
" />
<path d="M81790 72780
L82130 72780
" />
<path d="M81960 73370
L81960 72780
" />
<path d="M82330 73320
L82350 73340
L82330 73370
L82300 73340
L82330 73320
L82330 73370
" />
<path d="M82580 73340
L82640 73370
L82750 73370
L82800 73340
L82830 73290
L82830 73260
L82800 73200
L82750 73180
L82660 73180
L82610 73150
L82580 73090
L82580 73060
L82610 73010
L82660 72980
L82750 72980
L82800 73010
" />
<path d="M83340 73340
L83280 73370
L83170 73370
L83110 73340
L83090 73320
L83060 73260
L83060 73090
L83090 73030
L83110 73010
L83170 72980
L83280 72980
L83340 73010
" />
<path d="M83590 73370
L83590 72780
" />
<path d="M83840 73370
L83840 73060
L83820 73010
L83760 72980
L83680 72980
L83620 73010
L83590 73030
" />
</g>
<g style="fill:#840000; fill-opacity:0.0; 
stroke:#840000; stroke-width:100; stroke-opacity:1; 
stroke-linecap:round; stroke-linejoin:round;">
</g>
<g style="fill:#840000; fill-opacity:0.0; 
stroke:#840000; stroke-width:60; stroke-opacity:1; 
stroke-linecap:round; stroke-linejoin:round;">
<path d="M69690 71460
L112210 71460
" />
</g>
<g style="fill:#840000; fill-opacity:0.0; 
stroke:#840000; stroke-width:100; stroke-opacity:1; 
stroke-linecap:round; stroke-linejoin:round;">
</g>
<g style="fill:#840000; fill-opacity:0.0; 
stroke:#840000; stroke-width:60; stroke-opacity:1; 
stroke-linecap:round; stroke-linejoin:round;">
<path d="M70220 72280
L70300 72310
L70440 72310
L70500 72280
L70530 72260
L70550 72200
L70550 72140
L70530 72090
L70500 72060
L70440 72030
L70330 72000
L70270 71970
L70250 71950
L70220 71890
L70220 71830
L70250 71780
L70270 71750
L70330 71720
L70470 71720
L70550 71750
" />
<path d="M70810 72310
L70810 71720
" />
<path d="M71060 72310
L71060 72000
L71030 71950
L70980 71920
L70890 71920
L70840 71950
L70810 71970
" />
<path d="M71570 72280
L71510 72310
L71400 72310
L71340 72280
L71310 72230
L71310 72000
L71340 71950
L71400 71920
L71510 71920
L71570 71950
L71590 72000
L71590 72060
L71310 72120
" />
<path d="M72070 72280
L72020 72310
L71900 72310
L71850 72280
L71820 72230
L71820 72000
L71850 71950
L71900 71920
L72020 71920
L72070 71950
L72100 72000
L72100 72060
L71820 72120
" />
<path d="M72270 71920
L72490 71920
" />
<path d="M72350 71720
L72350 72230
L72380 72280
L72440 72310
L72490 72310
" />
<path d="M72690 72260
L72720 72280
L72690 72310
L72660 72280
L72690 72260
L72690 72310
" />
<path d="M72690 71950
L72720 71970
L72690 72000
L72660 71970
L72690 71950
L72690 72000
" />
<path d="M73840 71690
L73340 72450
" />
<path d="M74320 71720
L74040 71720
L74010 72000
L74040 71970
L74090 71950
L74240 71950
L74290 71970
L74320 72000
L74350 72060
L74350 72200
L74320 72260
L74290 72280
L74240 72310
L74090 72310
L74040 72280
L74010 72260
" />
<path d="M74880 71720
L74600 71720
L74570 72000
L74600 71970
L74660 71950
L74800 71950
L74850 71970
L74880 72000
L74910 72060
L74910 72200
L74880 72260
L74850 72280
L74800 72310
L74660 72310
L74600 72280
L74570 72260
" />
<path d="M75440 71720
L75160 71720
L75130 72000
L75160 71970
L75220 71950
L75360 71950
L75420 71970
L75440 72000
L75470 72060
L75470 72200
L75440 72260
L75420 72280
L75360 72310
L75220 72310
L75160 72280
L75130 72260
" />
<path d="M75720 72310
L75720 71720
L75950 71720
L76010 71750
L76030 71780
L76060 71830
L76060 71920
L76030 71970
L76010 72000
L75950 72030
L75720 72030
" />
<path d="M76260 71720
L76400 72310
L76510 71890
L76620 72310
L76760 71720
" />
<path d="M76990 72310
L76990 71720
L77190 72140
L77380 71720
L77380 72310
" />
<path d="M77580 71720
L77920 71720
" />
<path d="M77750 72310
L77750 71720
" />
<path d="M78110 72310
L78110 71920
" />
<path d="M78110 72030
L78140 71970
L78170 71950
L78220 71920
L78280 71920
" />
<path d="M78700 72280
L78650 72310
L78530 72310
L78480 72280
L78450 72230
L78450 72000
L78480 71950
L78530 71920
L78650 71920
L78700 71950
L78730 72000
L78730 72060
L78450 72120
" />
<path d="M78980 72310
L78980 71920
" />
<path d="M78980 71970
L79010 71950
L79070 71920
L79150 71920
L79210 71950
L79240 72000
L79240 72310
" />
<path d="M79240 72000
L79260 71950
L79320 71920
L79400 71920
L79460 71950
L79490 72000
L79490 72310
" />
<path d="M79850 72310
L79800 72280
L79770 72260
L79740 72200
L79740 72030
L79770 71970
L79800 71950
L79850 71920
L79940 71920
L79990 71950
L80020 71970
L80050 72030
L80050 72200
L80020 72260
L79990 72280
L79940 72310
L79850 72310
" />
<path d="M80390 72310
L80330 72280
L80300 72230
L80300 71720
" />
<path d="M80700 72310
L80640 72280
L80610 72260
L80580 72200
L80580 72030
L80610 71970
L80640 71950
L80700 71920
L80780 71920
L80840 71950
L80870 71970
L80890 72030
L80890 72200
L80870 72260
L80840 72280
L80780 72310
L80700 72310
" />
<path d="M81010 72370
L81460 72370
" />
<path d="M81540 71720
L81910 71720
L81710 71950
L81790 71950
L81850 71970
L81880 72000
L81910 72060
L81910 72200
L81880 72260
L81850 72280
L81790 72310
L81620 72310
L81570 72280
L81540 72260
" />
<path d="M82160 72310
L82160 71720
L82380 71720
L82440 71750
L82470 71780
L82500 71830
L82500 71920
L82470 71970
L82440 72000
L82380 72030
L82160 72030
" />
<path d="M82750 72310
L82750 71720
L82890 71720
L82970 71750
L83030 71810
L83060 71860
L83090 71970
L83090 72060
L83060 72170
L83030 72230
L82970 72280
L82890 72310
L82750 72310
" />
<path d="M83250 71720
L83590 71720
" />
<path d="M83420 72310
L83420 71720
" />
<path d="M84210 71690
L83700 72450
" />
</g>
<g style="fill:#840000; fill-opacity:0.0; 
stroke:#840000; stroke-width:100; stroke-opacity:1; 
stroke-linecap:round; stroke-linejoin:round;">
</g>
<g style="fill:#840000; fill-opacity:0.0; 
stroke:#840000; stroke-width:60; stroke-opacity:1; 
stroke-linecap:round; stroke-linejoin:round;">
<path d="M77560 75400
L77560 76580
" />
</g>
<g style="fill:#840000; fill-opacity:0.0; 
stroke:#840000; stroke-width:100; stroke-opacity:1; 
stroke-linecap:round; stroke-linejoin:round;">
</g>
<g style="fill:#840000; fill-opacity:0.0; 
stroke:#840000; stroke-width:60; stroke-opacity:1; 
stroke-linecap:round; stroke-linejoin:round;">
<path d="M102760 75400
L102760 77960
" />
</g>
<g style="fill:#840000; fill-opacity:0.0; 
stroke:#840000; stroke-width:0; stroke-opacity:1; 
stroke-linecap:round; stroke-linejoin:round;">
</g>
<g style="fill:#840000; fill-opacity:0.0; 
stroke:#840000; stroke-width:60; stroke-opacity:1; 
stroke-linecap:round; stroke-linejoin:round;">
<circle cx="82200" cy="29000" r="200" /> 
<circle cx="83800" cy="30000" r="200" /> 
<circle cx="83800" cy="28000" r="200" /> 
<polyline fill="none;"
points="82400,28900
83650,28100
" /> 
<path d="M84000 28000
L85000 28000
" />
<path d="M84640 28570
L84350 28570
" />
<path d="M84500 28570
L84500 28070
L84450 28140
L84400 28190
L84350 28210
" />
<path d="M82000 29000
L81000 29000
" />
<path d="M81350 29120
L81380 29100
L81420 29070
L81540 29070
L81590 29100
L81610 29120
L81640 29170
L81640 29210
L81610 29290
L81330 29570
L81640 29570
" />
<path d="M84000 30000
L85000 30000
" />
<path d="M84330 30070
L84640 30070
L84470 30260
L84540 30260
L84590 30290
L84610 30310
L84640 30360
L84640 30480
L84610 30520
L84590 30550
L84540 30570
L84400 30570
L84350 30550
L84330 30520
" />
</g>
<g style="fill:#008484; fill-opacity:0.0; 
stroke:#008484; stroke-width:60; stroke-opacity:1; 
stroke-linecap:round; stroke-linejoin:round;">
<path d="M81440 26370
L81510 26390
L81630 26390
L81670 26370
L81700 26340
L81720 26300
L81720 26250
L81700 26200
L81670 26180
L81630 26150
L81530 26130
L81480 26110
L81460 26080
L81440 26030
L81440 25990
L81460 25940
L81480 25920
L81530 25890
L81650 25890
L81720 25920
" />
<path d="M81890 25890
L82010 26390
L82100 26030
L82200 26390
L82320 25890
" />
<path d="M82390 26440
L82770 26440
" />
<path d="M82890 26130
L83050 26130
" />
<path d="M83130 26390
L82890 26390
L82890 25890
L83130 25890
" />
<path d="M83340 26390
L83340 25890
L83630 26390
L83630 25890
" />
<path d="M84130 26390
L83840 26390
" />
<path d="M83980 26390
L83980 25890
L83940 25960
L83890 26010
L83840 26030
" />
<path d="M84320 26250
L84550 26250
" />
<path d="M84270 26390
L84440 25890
L84600 26390
" />
<path d="M80160 27280
L80230 27300
L80350 27300
L80400 27280
L80420 27250
L80450 27210
L80450 27160
L80420 27110
L80400 27090
L80350 27060
L80260 27040
L80210 27020
L80190 26990
L80160 26940
L80160 26900
L80190 26850
L80210 26830
L80260 26800
L80380 26800
L80450 26830
" />
<path d="M80610 26800
L80730 27300
L80830 26940
L80920 27300
L81040 26800
" />
<path d="M81110 27350
L81500 27350
" />
<path d="M81570 26800
L81880 26800
L81710 26990
L81780 26990
L81830 27020
L81850 27040
L81880 27090
L81880 27210
L81850 27250
L81830 27280
L81780 27300
L81640 27300
L81590 27280
L81570 27250
" />
<path d="M82090 27300
L82090 26800
L82280 26800
L82330 26830
L82350 26850
L82380 26900
L82380 26970
L82350 27020
L82330 27040
L82280 27060
L82090 27060
" />
<path d="M82590 27300
L82590 26800
L82710 26800
L82780 26830
L82830 26870
L82850 26920
L82880 27020
L82880 27090
L82850 27180
L82830 27230
L82780 27280
L82710 27300
L82590 27300
" />
<path d="M83020 26800
L83300 26800
" />
<path d="M83160 27300
L83160 26800
" />
<path d="M83350 27350
L83730 27350
" />
<path d="M83920 27300
L83880 27280
L83850 27250
L83830 27210
L83830 27060
L83850 27020
L83880 26990
L83920 26970
L84000 26970
L84040 26990
L84070 27020
L84090 27060
L84090 27210
L84070 27250
L84040 27280
L84000 27300
L83920 27300
" />
<path d="M84300 26970
L84300 27300
" />
<path d="M84300 27020
L84330 26990
L84380 26970
L84450 26970
L84500 26990
L84520 27040
L84520 27300
" />
<path d="M84640 27350
L85020 27350
" />
<path d="M85210 27300
L85160 27280
L85140 27250
L85110 27210
L85110 27060
L85140 27020
L85160 26990
L85210 26970
L85280 26970
L85330 26990
L85350 27020
L85380 27060
L85380 27210
L85350 27250
L85330 27280
L85280 27300
L85210 27300
" />
<path d="M85590 26970
L85590 27300
" />
<path d="M85590 27020
L85610 26990
L85660 26970
L85730 26970
L85780 26990
L85800 27040
L85800 27300
" />
</g>
<g style="fill:#008484; fill-opacity:0.0; 
stroke:#008484; stroke-width:0; stroke-opacity:1; 
stroke-linecap:round; stroke-linejoin:round;">
</g>
<g style="fill:#840000; fill-opacity:0.0; 
stroke:#840000; stroke-width:0; stroke-opacity:1; 
stroke-linecap:round; stroke-linejoin:round;">
</g>
<g style="fill:#840000; fill-opacity:0.0; 
stroke:#840000; stroke-width:60; stroke-opacity:1; 
stroke-linecap:round; stroke-linejoin:round;">
<circle cx="82200" cy="35000" r="200" /> 
<circle cx="83800" cy="36000" r="200" /> 
<circle cx="83800" cy="34000" r="200" /> 
<polyline fill="none;"
points="82400,34900
83650,34100
" /> 
<path d="M84000 34000
L85000 34000
" />
<path d="M84590 34240
L84590 34570
" />
<path d="M84470 34050
L84350 34400
L84660 34400
" />
<path d="M82000 35000
L81000 35000
" />
<path d="M81610 35070
L81380 35070
L81350 35310
L81380 35290
L81420 35260
L81540 35260
L81590 35290
L81610 35310
L81640 35360
L81640 35480
L81610 35520
L81590 35550
L81540 35570
L81420 35570
L81380 35550
L81350 35520
" />
<path d="M84000 36000
L85000 36000
" />
<path d="M84590 36070
L84500 36070
L84450 36100
L84420 36120
L84380 36190
L84350 36290
L84350 36480
L84380 36520
L84400 36550
L84450 36570
L84540 36570
L84590 36550
L84610 36520
L84640 36480
L84640 36360
L84610 36310
L84590 36290
L84540 36260
L84450 36260
L84400 36290
L84380 36310
L84350 36360
" />
</g>
<g style="fill:#008484; fill-opacity:0.0; 
stroke:#008484; stroke-width:60; stroke-opacity:1; 
stroke-linecap:round; stroke-linejoin:round;">
<path d="M81400 32370
L81470 32390
L81590 32390
L81640 32370
L81660 32340
L81690 32300
L81690 32250
L81660 32200
L81640 32180
L81590 32150
L81500 32130
L81450 32110
L81420 32080
L81400 32030
L81400 31990
L81420 31940
L81450 31920
L81500 31890
L81610 31890
L81690 31920
" />
<path d="M81850 31890
L81970 32390
L82070 32030
L82160 32390
L82280 31890
" />
<path d="M82350 32440
L82730 32440
" />
<path d="M82850 32130
L83020 32130
" />
<path d="M83090 32390
L82850 32390
L82850 31890
L83090 31890
" />
<path d="M83300 32390
L83300 31890
L83590 32390
L83590 31890
" />
<path d="M84090 32390
L83800 32390
" />
<path d="M83950 32390
L83950 31890
L83900 31960
L83850 32010
L83800 32030
" />
<path d="M84470 32130
L84540 32150
L84570 32180
L84590 32220
L84590 32300
L84570 32340
L84540 32370
L84500 32390
L84300 32390
L84300 31890
L84470 31890
L84520 31920
L84540 31940
L84570 31990
L84570 32030
L84540 32080
L84520 32110
L84470 32130
L84300 32130
" />
<path d="M80160 33280
L80230 33300
L80350 33300
L80400 33280
L80420 33250
L80450 33210
L80450 33160
L80420 33110
L80400 33090
L80350 33060
L80260 33040
L80210 33020
L80190 32990
L80160 32940
L80160 32900
L80190 32850
L80210 32830
L80260 32800
L80380 32800
L80450 32830
" />
<path d="M80610 32800
L80730 33300
L80830 32940
L80920 33300
L81040 32800
" />
<path d="M81110 33350
L81500 33350
" />
<path d="M81570 32800
L81880 32800
L81710 32990
L81780 32990
L81830 33020
L81850 33040
L81880 33090
L81880 33210
L81850 33250
L81830 33280
L81780 33300
L81640 33300
L81590 33280
L81570 33250
" />
<path d="M82090 33300
L82090 32800
L82280 32800
L82330 32830
L82350 32850
L82380 32900
L82380 32970
L82350 33020
L82330 33040
L82280 33060
L82090 33060
" />
<path d="M82590 33300
L82590 32800
L82710 32800
L82780 32830
L82830 32870
L82850 32920
L82880 33020
L82880 33090
L82850 33180
L82830 33230
L82780 33280
L82710 33300
L82590 33300
" />
<path d="M83020 32800
L83300 32800
" />
<path d="M83160 33300
L83160 32800
" />
<path d="M83350 33350
L83730 33350
" />
<path d="M83920 33300
L83880 33280
L83850 33250
L83830 33210
L83830 33060
L83850 33020
L83880 32990
L83920 32970
L84000 32970
L84040 32990
L84070 33020
L84090 33060
L84090 33210
L84070 33250
L84040 33280
L84000 33300
L83920 33300
" />
<path d="M84300 32970
L84300 33300
" />
<path d="M84300 33020
L84330 32990
L84380 32970
L84450 32970
L84500 32990
L84520 33040
L84520 33300
" />
<path d="M84640 33350
L85020 33350
" />
<path d="M85210 33300
L85160 33280
L85140 33250
L85110 33210
L85110 33060
L85140 33020
L85160 32990
L85210 32970
L85280 32970
L85330 32990
L85350 33020
L85380 33060
L85380 33210
L85350 33250
L85330 33280
L85280 33300
L85210 33300
" />
<path d="M85590 32970
L85590 33300
" />
<path d="M85590 33020
L85610 32990
L85660 32970
L85730 32970
L85780 32990
L85800 33040
L85800 33300
" />
</g>
<g style="fill:#008484; fill-opacity:0.0; 
stroke:#008484; stroke-width:0; stroke-opacity:1; 
stroke-linecap:round; stroke-linejoin:round;">
</g>
<g style="fill:#840000; fill-opacity:0.0; 
stroke:#840000; stroke-width:0; stroke-opacity:1; 
stroke-linecap:round; stroke-linejoin:round;">
</g>
<g style="fill:#840000; fill-opacity:0.0; 
stroke:#840000; stroke-width:60; stroke-opacity:1; 
stroke-linecap:round; stroke-linejoin:round;">
<circle cx="82200" cy="41000" r="200" /> 
<circle cx="83800" cy="42000" r="200" /> 
<circle cx="83800" cy="40000" r="200" /> 
<polyline fill="none;"
points="82400,40900
83650,40100
" /> 
<path d="M84000 40000
L85000 40000
" />
<path d="M84330 40070
L84660 40070
L84450 40570
" />
<path d="M82000 41000
L81000 41000
" />
<path d="M81450 41290
L81400 41260
L81380 41240
L81350 41190
L81350 41170
L81380 41120
L81400 41100
L81450 41070
L81540 41070
L81590 41100
L81610 41120
L81640 41170
L81640 41190
L81610 41240
L81590 41260
L81540 41290
L81450 41290
L81400 41310
L81380 41330
L81350 41380
L81350 41480
L81380 41520
L81400 41550
L81450 41570
L81540 41570
L81590 41550
L81610 41520
L81640 41480
L81640 41380
L81610 41330
L81590 41310
L81540 41290
" />
<path d="M84000 42000
L85000 42000
" />
<path d="M84400 42570
L84500 42570
L84540 42550
L84570 42520
L84610 42450
L84640 42360
L84640 42170
L84610 42120
L84590 42100
L84540 42070
L84450 42070
L84400 42100
L84380 42120
L84350 42170
L84350 42290
L84380 42330
L84400 42360
L84450 42380
L84540 42380
L84590 42360
L84610 42330
L84640 42290
" />
</g>
<g style="fill:#008484; fill-opacity:0.0; 
stroke:#008484; stroke-width:60; stroke-opacity:1; 
stroke-linecap:round; stroke-linejoin:round;">
<path d="M81400 38370
L81470 38390
L81590 38390
L81640 38370
L81660 38340
L81690 38300
L81690 38250
L81660 38200
L81640 38180
L81590 38150
L81500 38130
L81450 38110
L81420 38080
L81400 38030
L81400 37990
L81420 37940
L81450 37920
L81500 37890
L81610 37890
L81690 37920
" />
<path d="M81850 37890
L81970 38390
L82070 38030
L82160 38390
L82280 37890
" />
<path d="M82350 38440
L82730 38440
" />
<path d="M82850 38130
L83020 38130
" />
<path d="M83090 38390
L82850 38390
L82850 37890
L83090 37890
" />
<path d="M83300 38390
L83300 37890
L83590 38390
L83590 37890
" />
<path d="M84090 38390
L83800 38390
" />
<path d="M83950 38390
L83950 37890
L83900 37960
L83850 38010
L83800 38030
" />
<path d="M84590 38340
L84570 38370
L84500 38390
L84450 38390
L84380 38370
L84330 38320
L84300 38270
L84280 38180
L84280 38110
L84300 38010
L84330 37960
L84380 37920
L84450 37890
L84500 37890
L84570 37920
L84590 37940
" />
<path d="M80160 39280
L80230 39300
L80350 39300
L80400 39280
L80420 39250
L80450 39210
L80450 39160
L80420 39110
L80400 39090
L80350 39060
L80260 39040
L80210 39020
L80190 38990
L80160 38940
L80160 38900
L80190 38850
L80210 38830
L80260 38800
L80380 38800
L80450 38830
" />
<path d="M80610 38800
L80730 39300
L80830 38940
L80920 39300
L81040 38800
" />
<path d="M81110 39350
L81500 39350
" />
<path d="M81570 38800
L81880 38800
L81710 38990
L81780 38990
L81830 39020
L81850 39040
L81880 39090
L81880 39210
L81850 39250
L81830 39280
L81780 39300
L81640 39300
L81590 39280
L81570 39250
" />
<path d="M82090 39300
L82090 38800
L82280 38800
L82330 38830
L82350 38850
L82380 38900
L82380 38970
L82350 39020
L82330 39040
L82280 39060
L82090 39060
" />
<path d="M82590 39300
L82590 38800
L82710 38800
L82780 38830
L82830 38870
L82850 38920
L82880 39020
L82880 39090
L82850 39180
L82830 39230
L82780 39280
L82710 39300
L82590 39300
" />
<path d="M83020 38800
L83300 38800
" />
<path d="M83160 39300
L83160 38800
" />
<path d="M83350 39350
L83730 39350
" />
<path d="M83920 39300
L83880 39280
L83850 39250
L83830 39210
L83830 39060
L83850 39020
L83880 38990
L83920 38970
L84000 38970
L84040 38990
L84070 39020
L84090 39060
L84090 39210
L84070 39250
L84040 39280
L84000 39300
L83920 39300
" />
<path d="M84300 38970
L84300 39300
" />
<path d="M84300 39020
L84330 38990
L84380 38970
L84450 38970
L84500 38990
L84520 39040
L84520 39300
" />
<path d="M84640 39350
L85020 39350
" />
<path d="M85210 39300
L85160 39280
L85140 39250
L85110 39210
L85110 39060
L85140 39020
L85160 38990
L85210 38970
L85280 38970
L85330 38990
L85350 39020
L85380 39060
L85380 39210
L85350 39250
L85330 39280
L85280 39300
L85210 39300
" />
<path d="M85590 38970
L85590 39300
" />
<path d="M85590 39020
L85610 38990
L85660 38970
L85730 38970
L85780 38990
L85800 39040
L85800 39300
" />
</g>
<g style="fill:#848400; fill-opacity:0.0; 
stroke:#848400; stroke-width:60; stroke-opacity:1; 
stroke-linecap:round; stroke-linejoin:round;">
<path d="M29720 32720
L30030 32720
L29870 32910
L29940 32910
L29980 32940
L30010 32960
L30030 33010
L30030 33130
L30010 33170
L29980 33200
L29940 33220
L29790 33220
L29750 33200
L29720 33170
" />
<path d="M30250 33220
L30250 32720
L30440 32720
L30480 32750
L30510 32770
L30530 32820
L30530 32890
L30510 32940
L30480 32960
L30440 32980
L30250 32980
" />
<path d="M30750 33220
L30750 32720
L30870 32720
L30940 32750
L30980 32790
L31010 32840
L31030 32940
L31030 33010
L31010 33100
L30980 33150
L30940 33200
L30870 33220
L30750 33220
" />
<path d="M31170 32720
L31460 32720
" />
<path d="M31320 33220
L31320 32720
" />
<path d="M31510 33270
L31890 33270
" />
<path d="M31980 32770
L32010 32750
L32060 32720
L32170 32720
L32220 32750
L32250 32770
L32270 32820
L32270 32860
L32250 32940
L31960 33220
L32270 33220
" />
</g>
<g style="fill:#848400; fill-opacity:0.0; 
stroke:#848400; stroke-width:100; stroke-opacity:1; 
stroke-linecap:round; stroke-linejoin:round;">
<polyline fill="none;"
points="33000,33000
32750,32750
32500,32750
32500,33250
32750,33250
33000,33000
" /> 
</g>
<g style="fill:#848400; fill-opacity:0.0; 
stroke:#848400; stroke-width:60; stroke-opacity:1; 
stroke-linecap:round; stroke-linejoin:round;">
<path d="M29720 35720
L30030 35720
L29870 35910
L29940 35910
L29980 35940
L30010 35960
L30030 36010
L30030 36130
L30010 36170
L29980 36200
L29940 36220
L29790 36220
L29750 36200
L29720 36170
" />
<path d="M30250 36220
L30250 35720
L30440 35720
L30480 35750
L30510 35770
L30530 35820
L30530 35890
L30510 35940
L30480 35960
L30440 35980
L30250 35980
" />
<path d="M30750 36220
L30750 35720
L30870 35720
L30940 35750
L30980 35790
L31010 35840
L31030 35940
L31030 36010
L31010 36100
L30980 36150
L30940 36200
L30870 36220
L30750 36220
" />
<path d="M31170 35720
L31460 35720
" />
<path d="M31320 36220
L31320 35720
" />
<path d="M31510 36270
L31890 36270
" />
<path d="M32250 35720
L32010 35720
L31980 35960
L32010 35940
L32060 35910
L32170 35910
L32220 35940
L32250 35960
L32270 36010
L32270 36130
L32250 36170
L32220 36200
L32170 36220
L32060 36220
L32010 36200
L31980 36170
" />
</g>
<g style="fill:#848400; fill-opacity:0.0; 
stroke:#848400; stroke-width:100; stroke-opacity:1; 
stroke-linecap:round; stroke-linejoin:round;">
<polyline fill="none;"
points="33000,36000
32750,35750
32500,35750
32500,36250
32750,36250
33000,36000
" /> 
</g>
<g style="fill:#848400; fill-opacity:0.0; 
stroke:#848400; stroke-width:60; stroke-opacity:1; 
stroke-linecap:round; stroke-linejoin:round;">
<path d="M40700 34720
L41010 34720
L40840 34910
L40910 34910
L40960 34940
L40980 34960
L41010 35010
L41010 35130
L40980 35170
L40960 35200
L40910 35220
L40770 35220
L40720 35200
L40700 35170
" />
<path d="M41220 35220
L41220 34720
L41410 34720
L41460 34750
L41480 34770
L41510 34820
L41510 34890
L41480 34940
L41460 34960
L41410 34980
L41220 34980
" />
<path d="M41720 35220
L41720 34720
L41840 34720
L41910 34750
L41960 34790
L41980 34840
L42010 34940
L42010 35010
L41980 35100
L41960 35150
L41910 35200
L41840 35220
L41720 35220
" />
<path d="M42150 34720
L42430 34720
" />
<path d="M42290 35220
L42290 34720
" />
<path d="M42480 35270
L42860 35270
" />
<path d="M42930 34720
L43270 34720
L43050 35220
" />
</g>
<g style="fill:#848400; fill-opacity:0.0; 
stroke:#848400; stroke-width:100; stroke-opacity:1; 
stroke-linecap:round; stroke-linejoin:round;">
<polyline fill="none;"
points="40000,35000
40250,35250
40500,35250
40500,34750
40250,34750
40000,35000
" /> 
</g>
<g style="fill:#848400; fill-opacity:0.0; 
stroke:#848400; stroke-width:60; stroke-opacity:1; 
stroke-linecap:round; stroke-linejoin:round;">
<path d="M40700 33720
L41010 33720
L40840 33910
L40910 33910
L40960 33940
L40980 33960
L41010 34010
L41010 34130
L40980 34170
L40960 34200
L40910 34220
L40770 34220
L40720 34200
L40700 34170
" />
<path d="M41220 34220
L41220 33720
L41410 33720
L41460 33750
L41480 33770
L41510 33820
L41510 33890
L41480 33940
L41460 33960
L41410 33980
L41220 33980
" />
<path d="M41720 34220
L41720 33720
L41840 33720
L41910 33750
L41960 33790
L41980 33840
L42010 33940
L42010 34010
L41980 34100
L41960 34150
L41910 34200
L41840 34220
L41720 34220
" />
<path d="M42150 33720
L42430 33720
" />
<path d="M42290 34220
L42290 33720
" />
<path d="M42480 34270
L42860 34270
" />
<path d="M43050 33940
L43010 33910
L42980 33890
L42960 33840
L42960 33820
L42980 33770
L43010 33750
L43050 33720
L43150 33720
L43200 33750
L43220 33770
L43240 33820
L43240 33840
L43220 33890
L43200 33910
L43150 33940
L43050 33940
L43010 33960
L42980 33980
L42960 34030
L42960 34130
L42980 34170
L43010 34200
L43050 34220
L43150 34220
L43200 34200
L43220 34170
L43240 34130
L43240 34030
L43220 33980
L43200 33960
L43150 33940
" />
</g>
<g style="fill:#848400; fill-opacity:0.0; 
stroke:#848400; stroke-width:100; stroke-opacity:1; 
stroke-linecap:round; stroke-linejoin:round;">
<polyline fill="none;"
points="40000,34000
40250,34250
40500,34250
40500,33750
40250,33750
40000,34000
" /> 
</g>
<g style="fill:#848400; fill-opacity:0.0; 
stroke:#848400; stroke-width:60; stroke-opacity:1; 
stroke-linecap:round; stroke-linejoin:round;">
<path d="M40700 32720
L41010 32720
L40840 32910
L40910 32910
L40960 32940
L40980 32960
L41010 33010
L41010 33130
L40980 33170
L40960 33200
L40910 33220
L40770 33220
L40720 33200
L40700 33170
" />
<path d="M41220 33220
L41220 32720
L41410 32720
L41460 32750
L41480 32770
L41510 32820
L41510 32890
L41480 32940
L41460 32960
L41410 32980
L41220 32980
" />
<path d="M41720 33220
L41720 32720
L41840 32720
L41910 32750
L41960 32790
L41980 32840
L42010 32940
L42010 33010
L41980 33100
L41960 33150
L41910 33200
L41840 33220
L41720 33220
" />
<path d="M42150 32720
L42430 32720
" />
<path d="M42290 33220
L42290 32720
" />
<path d="M42480 33270
L42860 33270
" />
<path d="M43010 33220
L43100 33220
L43150 33200
L43170 33170
L43220 33100
L43240 33010
L43240 32820
L43220 32770
L43200 32750
L43150 32720
L43050 32720
L43010 32750
L42980 32770
L42960 32820
L42960 32940
L42980 32980
L43010 33010
L43050 33030
L43150 33030
L43200 33010
L43220 32980
L43240 32940
" />
</g>
<g style="fill:#848400; fill-opacity:0.0; 
stroke:#848400; stroke-width:100; stroke-opacity:1; 
stroke-linecap:round; stroke-linejoin:round;">
<polyline fill="none;"
points="40000,33000
40250,33250
40500,33250
40500,32750
40250,32750
40000,33000
" /> 
</g>
<g style="fill:#848400; fill-opacity:0.0; 
stroke:#848400; stroke-width:60; stroke-opacity:1; 
stroke-linecap:round; stroke-linejoin:round;">
<path d="M40700 35720
L41010 35720
L40840 35910
L40910 35910
L40960 35940
L40980 35960
L41010 36010
L41010 36130
L40980 36170
L40960 36200
L40910 36220
L40770 36220
L40720 36200
L40700 36170
" />
<path d="M41220 36220
L41220 35720
L41410 35720
L41460 35750
L41480 35770
L41510 35820
L41510 35890
L41480 35940
L41460 35960
L41410 35980
L41220 35980
" />
<path d="M41720 36220
L41720 35720
L41840 35720
L41910 35750
L41960 35790
L41980 35840
L42010 35940
L42010 36010
L41980 36100
L41960 36150
L41910 36200
L41840 36220
L41720 36220
" />
<path d="M42150 35720
L42430 35720
" />
<path d="M42290 36220
L42290 35720
" />
<path d="M42480 36270
L42860 36270
" />
<path d="M43200 35720
L43100 35720
L43050 35750
L43030 35770
L42980 35840
L42960 35940
L42960 36130
L42980 36170
L43010 36200
L43050 36220
L43150 36220
L43200 36200
L43220 36170
L43240 36130
L43240 36010
L43220 35960
L43200 35940
L43150 35910
L43050 35910
L43010 35940
L42980 35960
L42960 36010
" />
</g>
<g style="fill:#848400; fill-opacity:0.0; 
stroke:#848400; stroke-width:100; stroke-opacity:1; 
stroke-linecap:round; stroke-linejoin:round;">
<polyline fill="none;"
points="40000,36000
40250,36250
40500,36250
40500,35750
40250,35750
40000,36000
" /> 
</g>
<g style="fill:#848400; fill-opacity:0.0; 
stroke:#848400; stroke-width:60; stroke-opacity:1; 
stroke-linecap:round; stroke-linejoin:round;">
<path d="M29720 34720
L30030 34720
L29870 34910
L29940 34910
L29980 34940
L30010 34960
L30030 35010
L30030 35130
L30010 35170
L29980 35200
L29940 35220
L29790 35220
L29750 35200
L29720 35170
" />
<path d="M30250 35220
L30250 34720
L30440 34720
L30480 34750
L30510 34770
L30530 34820
L30530 34890
L30510 34940
L30480 34960
L30440 34980
L30250 34980
" />
<path d="M30750 35220
L30750 34720
L30870 34720
L30940 34750
L30980 34790
L31010 34840
L31030 34940
L31030 35010
L31010 35100
L30980 35150
L30940 35200
L30870 35220
L30750 35220
" />
<path d="M31170 34720
L31460 34720
" />
<path d="M31320 35220
L31320 34720
" />
<path d="M31510 35270
L31890 35270
" />
<path d="M32220 34890
L32220 35220
" />
<path d="M32100 34700
L31980 35050
L32290 35050
" />
</g>
<g style="fill:#848400; fill-opacity:0.0; 
stroke:#848400; stroke-width:100; stroke-opacity:1; 
stroke-linecap:round; stroke-linejoin:round;">
<polyline fill="none;"
points="33000,35000
32750,34750
32500,34750
32500,35250
32750,35250
33000,35000
" /> 
</g>
<g style="fill:#848400; fill-opacity:0.0; 
stroke:#848400; stroke-width:60; stroke-opacity:1; 
stroke-linecap:round; stroke-linejoin:round;">
<path d="M29720 33720
L30030 33720
L29870 33910
L29940 33910
L29980 33940
L30010 33960
L30030 34010
L30030 34130
L30010 34170
L29980 34200
L29940 34220
L29790 34220
L29750 34200
L29720 34170
" />
<path d="M30250 34220
L30250 33720
L30440 33720
L30480 33750
L30510 33770
L30530 33820
L30530 33890
L30510 33940
L30480 33960
L30440 33980
L30250 33980
" />
<path d="M30750 34220
L30750 33720
L30870 33720
L30940 33750
L30980 33790
L31010 33840
L31030 33940
L31030 34010
L31010 34100
L30980 34150
L30940 34200
L30870 34220
L30750 34220
" />
<path d="M31170 33720
L31460 33720
" />
<path d="M31320 34220
L31320 33720
" />
<path d="M31510 34270
L31890 34270
" />
<path d="M31960 33720
L32270 33720
L32100 33910
L32170 33910
L32220 33940
L32250 33960
L32270 34010
L32270 34130
L32250 34170
L32220 34200
L32170 34220
L32030 34220
L31980 34200
L31960 34170
" />
</g>
<g style="fill:#848400; fill-opacity:0.0; 
stroke:#848400; stroke-width:100; stroke-opacity:1; 
stroke-linecap:round; stroke-linejoin:round;">
<polyline fill="none;"
points="33000,34000
32750,33750
32500,33750
32500,34250
32750,34250
33000,34000
" /> 
</g>
<g style="fill:#848400; fill-opacity:0.0; 
stroke:#848400; stroke-width:60; stroke-opacity:1; 
stroke-linecap:round; stroke-linejoin:round;">
<path d="M29720 31720
L30030 31720
L29870 31910
L29940 31910
L29980 31940
L30010 31960
L30030 32010
L30030 32130
L30010 32170
L29980 32200
L29940 32220
L29790 32220
L29750 32200
L29720 32170
" />
<path d="M30250 32220
L30250 31720
L30440 31720
L30480 31750
L30510 31770
L30530 31820
L30530 31890
L30510 31940
L30480 31960
L30440 31980
L30250 31980
" />
<path d="M30750 32220
L30750 31720
L30870 31720
L30940 31750
L30980 31790
L31010 31840
L31030 31940
L31030 32010
L31010 32100
L30980 32150
L30940 32200
L30870 32220
L30750 32220
" />
<path d="M31170 31720
L31460 31720
" />
<path d="M31320 32220
L31320 31720
" />
<path d="M31510 32270
L31890 32270
" />
<path d="M32270 32220
L31980 32220
" />
<path d="M32130 32220
L32130 31720
L32080 31790
L32030 31840
L31980 31860
" />
</g>
<g style="fill:#848400; fill-opacity:0.0; 
stroke:#848400; stroke-width:100; stroke-opacity:1; 
stroke-linecap:round; stroke-linejoin:round;">
<polyline fill="none;"
points="33000,32000
32750,31750
32500,31750
32500,32250
32750,32250
33000,32000
" /> 
</g>
<g style="fill:#848400; fill-opacity:0.0; 
stroke:#848400; stroke-width:60; stroke-opacity:1; 
stroke-linecap:round; stroke-linejoin:round;">
</g>
<g style="fill:#008400; fill-opacity:0.0; 
stroke:#008400; stroke-width:60; stroke-opacity:1; 
stroke-linecap:round; stroke-linejoin:round;">
<path d="M33000 33000
L34000 33000
" />
<path d="M34000 36000
L33000 36000
" />
<path d="M40000 34000
L39000 34000
" />
<path d="M39000 33000
L40000 33000
" />
<path d="M40000 35000
L39000 35000
" />
<path d="M39000 36000
L40000 36000
" />
<path d="M33000 35000
L34000 35000
" />
<path d="M34000 34000
L33000 34000
" />
<path d="M33000 32000
L34000 32000
" />
<path d="M52000 32000
L45500 32000
" />
<path d="M52000 33000
L45500 33000
" />
<path d="M52000 34000
L45500 34000
" />
<path d="M52000 35000
L45500 35000
" />
<path d="M52000 36000
L45500 36000
" />
<path d="M57000 36000
L62000 36000
" />
<path d="M57000 35000
L62000 35000
" />
<path d="M57000 34000
L62000 34000
" />
<path d="M57000 33000
L62000 33000
" />
<path d="M81000 29000
L78000 29000
" />
<path d="M81000 35000
L78000 35000
" />
<path d="M81000 41000
L78000 41000
" />
<path d="M85000 42000
L88000 42000
" />
<path d="M85000 40000
L88000 40000
" />
<path d="M85000 36000
L88000 36000
" />
<path d="M85000 34000
L88000 34000
" />
<path d="M85000 30000
L88000 30000
" />
<path d="M85000 28000
L88000 28000
" />
</g>
<g style="fill:#000000; fill-opacity:0.0; 
stroke:#000000; stroke-width:60; stroke-opacity:1; 
stroke-linecap:round; stroke-linejoin:round;">
<path d="M45600 31370
L45910 31370
L45740 31560
L45810 31560
L45860 31590
L45880 31610
L45910 31660
L45910 31780
L45880 31820
L45860 31850
L45810 31870
L45670 31870
L45620 31850
L45600 31820
" />
<path d="M46120 31870
L46120 31370
L46310 31370
L46360 31400
L46380 31420
L46410 31470
L46410 31540
L46380 31590
L46360 31610
L46310 31630
L46120 31630
" />
<path d="M46620 31870
L46620 31370
L46740 31370
L46810 31400
L46860 31440
L46880 31490
L46910 31590
L46910 31660
L46880 31750
L46860 31800
L46810 31850
L46740 31870
L46620 31870
" />
<path d="M47050 31370
L47330 31370
" />
<path d="M47190 31870
L47190 31370
" />
<path d="M47380 31920
L47760 31920
" />
<path d="M48140 31870
L47860 31870
" />
<path d="M48000 31870
L48000 31370
L47950 31440
L47910 31490
L47860 31510
" />
<path d="M48240 31920
L48620 31920
" />
<path d="M48740 31870
L48740 31370
" />
<path d="M48980 31870
L48980 31370
L49260 31870
L49260 31370
" />
<path d="M49430 31370
L49720 31370
" />
<path d="M49570 31870
L49570 31370
" />
<path d="M45600 32370
L45910 32370
L45740 32560
L45810 32560
L45860 32590
L45880 32610
L45910 32660
L45910 32780
L45880 32820
L45860 32850
L45810 32870
L45670 32870
L45620 32850
L45600 32820
" />
<path d="M46120 32870
L46120 32370
L46310 32370
L46360 32400
L46380 32420
L46410 32470
L46410 32540
L46380 32590
L46360 32610
L46310 32630
L46120 32630
" />
<path d="M46620 32870
L46620 32370
L46740 32370
L46810 32400
L46860 32440
L46880 32490
L46910 32590
L46910 32660
L46880 32750
L46860 32800
L46810 32850
L46740 32870
L46620 32870
" />
<path d="M47050 32370
L47330 32370
" />
<path d="M47190 32870
L47190 32370
" />
<path d="M47380 32920
L47760 32920
" />
<path d="M47860 32420
L47880 32400
L47930 32370
L48050 32370
L48100 32400
L48120 32420
L48140 32470
L48140 32510
L48120 32590
L47830 32870
L48140 32870
" />
<path d="M48240 32920
L48620 32920
" />
<path d="M48740 32870
L48740 32370
" />
<path d="M48980 32870
L48980 32370
L49260 32870
L49260 32370
" />
<path d="M49430 32370
L49720 32370
" />
<path d="M49570 32870
L49570 32370
" />
<path d="M45600 33370
L45910 33370
L45740 33560
L45810 33560
L45860 33590
L45880 33610
L45910 33660
L45910 33780
L45880 33820
L45860 33850
L45810 33870
L45670 33870
L45620 33850
L45600 33820
" />
<path d="M46120 33870
L46120 33370
L46310 33370
L46360 33400
L46380 33420
L46410 33470
L46410 33540
L46380 33590
L46360 33610
L46310 33630
L46120 33630
" />
<path d="M46620 33870
L46620 33370
L46740 33370
L46810 33400
L46860 33440
L46880 33490
L46910 33590
L46910 33660
L46880 33750
L46860 33800
L46810 33850
L46740 33870
L46620 33870
" />
<path d="M47050 33370
L47330 33370
" />
<path d="M47190 33870
L47190 33370
" />
<path d="M47380 33920
L47760 33920
" />
<path d="M47830 33370
L48140 33370
L47980 33560
L48050 33560
L48100 33590
L48120 33610
L48140 33660
L48140 33780
L48120 33820
L48100 33850
L48050 33870
L47910 33870
L47860 33850
L47830 33820
" />
<path d="M48240 33920
L48620 33920
" />
<path d="M48740 33870
L48740 33370
" />
<path d="M48980 33870
L48980 33370
L49260 33870
L49260 33370
" />
<path d="M49430 33370
L49720 33370
" />
<path d="M49570 33870
L49570 33370
" />
<path d="M45600 34370
L45910 34370
L45740 34560
L45810 34560
L45860 34590
L45880 34610
L45910 34660
L45910 34780
L45880 34820
L45860 34850
L45810 34870
L45670 34870
L45620 34850
L45600 34820
" />
<path d="M46120 34870
L46120 34370
L46310 34370
L46360 34400
L46380 34420
L46410 34470
L46410 34540
L46380 34590
L46360 34610
L46310 34630
L46120 34630
" />
<path d="M46620 34870
L46620 34370
L46740 34370
L46810 34400
L46860 34440
L46880 34490
L46910 34590
L46910 34660
L46880 34750
L46860 34800
L46810 34850
L46740 34870
L46620 34870
" />
<path d="M47050 34370
L47330 34370
" />
<path d="M47190 34870
L47190 34370
" />
<path d="M47380 34920
L47760 34920
" />
<path d="M48100 34540
L48100 34870
" />
<path d="M47980 34350
L47860 34700
L48170 34700
" />
<path d="M48240 34920
L48620 34920
" />
<path d="M48740 34870
L48740 34370
" />
<path d="M48980 34870
L48980 34370
L49260 34870
L49260 34370
" />
<path d="M49430 34370
L49720 34370
" />
<path d="M49570 34870
L49570 34370
" />
<path d="M45600 35370
L45910 35370
L45740 35560
L45810 35560
L45860 35590
L45880 35610
L45910 35660
L45910 35780
L45880 35820
L45860 35850
L45810 35870
L45670 35870
L45620 35850
L45600 35820
" />
<path d="M46120 35870
L46120 35370
L46310 35370
L46360 35400
L46380 35420
L46410 35470
L46410 35540
L46380 35590
L46360 35610
L46310 35630
L46120 35630
" />
<path d="M46620 35870
L46620 35370
L46740 35370
L46810 35400
L46860 35440
L46880 35490
L46910 35590
L46910 35660
L46880 35750
L46860 35800
L46810 35850
L46740 35870
L46620 35870
" />
<path d="M47050 35370
L47330 35370
" />
<path d="M47190 35870
L47190 35370
" />
<path d="M47380 35920
L47760 35920
" />
<path d="M48120 35370
L47880 35370
L47860 35610
L47880 35590
L47930 35560
L48050 35560
L48100 35590
L48120 35610
L48140 35660
L48140 35780
L48120 35820
L48100 35850
L48050 35870
L47930 35870
L47880 35850
L47860 35820
" />
<path d="M48240 35920
L48620 35920
" />
<path d="M48740 35870
L48740 35370
" />
<path d="M48980 35870
L48980 35370
L49260 35870
L49260 35370
" />
<path d="M49430 35370
L49720 35370
" />
<path d="M49570 35870
L49570 35370
" />
<path d="M57800 35370
L58110 35370
L57940 35560
L58010 35560
L58060 35590
L58080 35610
L58110 35660
L58110 35780
L58080 35820
L58060 35850
L58010 35870
L57870 35870
L57820 35850
L57800 35820
" />
<path d="M58320 35870
L58320 35370
L58510 35370
L58560 35400
L58580 35420
L58610 35470
L58610 35540
L58580 35590
L58560 35610
L58510 35630
L58320 35630
" />
<path d="M58820 35870
L58820 35370
L58940 35370
L59010 35400
L59060 35440
L59080 35490
L59110 35590
L59110 35660
L59080 35750
L59060 35800
L59010 35850
L58940 35870
L58820 35870
" />
<path d="M59250 35370
L59540 35370
" />
<path d="M59390 35870
L59390 35370
" />
<path d="M59580 35920
L59970 35920
" />
<path d="M60300 35370
L60200 35370
L60160 35400
L60130 35420
L60080 35490
L60060 35590
L60060 35780
L60080 35820
L60110 35850
L60160 35870
L60250 35870
L60300 35850
L60320 35820
L60350 35780
L60350 35660
L60320 35610
L60300 35590
L60250 35560
L60160 35560
L60110 35590
L60080 35610
L60060 35660
" />
<path d="M60440 35920
L60820 35920
" />
<path d="M60940 35870
L60940 35370
" />
<path d="M61180 35870
L61180 35370
L61470 35870
L61470 35370
" />
<path d="M61630 35370
L61920 35370
" />
<path d="M61770 35870
L61770 35370
" />
<path d="M57800 34370
L58110 34370
L57940 34560
L58010 34560
L58060 34590
L58080 34610
L58110 34660
L58110 34780
L58080 34820
L58060 34850
L58010 34870
L57870 34870
L57820 34850
L57800 34820
" />
<path d="M58320 34870
L58320 34370
L58510 34370
L58560 34400
L58580 34420
L58610 34470
L58610 34540
L58580 34590
L58560 34610
L58510 34630
L58320 34630
" />
<path d="M58820 34870
L58820 34370
L58940 34370
L59010 34400
L59060 34440
L59080 34490
L59110 34590
L59110 34660
L59080 34750
L59060 34800
L59010 34850
L58940 34870
L58820 34870
" />
<path d="M59250 34370
L59540 34370
" />
<path d="M59390 34870
L59390 34370
" />
<path d="M59580 34920
L59970 34920
" />
<path d="M60040 34370
L60370 34370
L60160 34870
" />
<path d="M60440 34920
L60820 34920
" />
<path d="M60940 34870
L60940 34370
" />
<path d="M61180 34870
L61180 34370
L61470 34870
L61470 34370
" />
<path d="M61630 34370
L61920 34370
" />
<path d="M61770 34870
L61770 34370
" />
<path d="M57800 33370
L58110 33370
L57940 33560
L58010 33560
L58060 33590
L58080 33610
L58110 33660
L58110 33780
L58080 33820
L58060 33850
L58010 33870
L57870 33870
L57820 33850
L57800 33820
" />
<path d="M58320 33870
L58320 33370
L58510 33370
L58560 33400
L58580 33420
L58610 33470
L58610 33540
L58580 33590
L58560 33610
L58510 33630
L58320 33630
" />
<path d="M58820 33870
L58820 33370
L58940 33370
L59010 33400
L59060 33440
L59080 33490
L59110 33590
L59110 33660
L59080 33750
L59060 33800
L59010 33850
L58940 33870
L58820 33870
" />
<path d="M59250 33370
L59540 33370
" />
<path d="M59390 33870
L59390 33370
" />
<path d="M59580 33920
L59970 33920
" />
<path d="M60160 33590
L60110 33560
L60080 33540
L60060 33490
L60060 33470
L60080 33420
L60110 33400
L60160 33370
L60250 33370
L60300 33400
L60320 33420
L60350 33470
L60350 33490
L60320 33540
L60300 33560
L60250 33590
L60160 33590
L60110 33610
L60080 33630
L60060 33680
L60060 33780
L60080 33820
L60110 33850
L60160 33870
L60250 33870
L60300 33850
L60320 33820
L60350 33780
L60350 33680
L60320 33630
L60300 33610
L60250 33590
" />
<path d="M60440 33920
L60820 33920
" />
<path d="M60940 33870
L60940 33370
" />
<path d="M61180 33870
L61180 33370
L61470 33870
L61470 33370
" />
<path d="M61630 33370
L61920 33370
" />
<path d="M61770 33870
L61770 33370
" />
<path d="M57800 32370
L58110 32370
L57940 32560
L58010 32560
L58060 32590
L58080 32610
L58110 32660
L58110 32780
L58080 32820
L58060 32850
L58010 32870
L57870 32870
L57820 32850
L57800 32820
" />
<path d="M58320 32870
L58320 32370
L58510 32370
L58560 32400
L58580 32420
L58610 32470
L58610 32540
L58580 32590
L58560 32610
L58510 32630
L58320 32630
" />
<path d="M58820 32870
L58820 32370
L58940 32370
L59010 32400
L59060 32440
L59080 32490
L59110 32590
L59110 32660
L59080 32750
L59060 32800
L59010 32850
L58940 32870
L58820 32870
" />
<path d="M59250 32370
L59540 32370
" />
<path d="M59390 32870
L59390 32370
" />
<path d="M59580 32920
L59970 32920
" />
<path d="M60110 32870
L60200 32870
L60250 32850
L60270 32820
L60320 32750
L60350 32660
L60350 32470
L60320 32420
L60300 32400
L60250 32370
L60160 32370
L60110 32400
L60080 32420
L60060 32470
L60060 32590
L60080 32630
L60110 32660
L60160 32680
L60250 32680
L60300 32660
L60320 32630
L60350 32590
" />
<path d="M60440 32920
L60820 32920
" />
<path d="M60940 32870
L60940 32370
" />
<path d="M61180 32870
L61180 32370
L61470 32870
L61470 32370
" />
<path d="M61630 32370
L61920 32370
" />
<path d="M61770 32870
L61770 32370
" />
<path d="M73800 28370
L74110 28370
L73940 28560
L74010 28560
L74060 28590
L74080 28610
L74110 28660
L74110 28780
L74080 28820
L74060 28850
L74010 28870
L73870 28870
L73820 28850
L73800 28820
" />
<path d="M74320 28870
L74320 28370
L74510 28370
L74560 28400
L74580 28420
L74610 28470
L74610 28540
L74580 28590
L74560 28610
L74510 28630
L74320 28630
" />
<path d="M74820 28870
L74820 28370
L74940 28370
L75010 28400
L75060 28440
L75080 28490
L75110 28590
L75110 28660
L75080 28750
L75060 28800
L75010 28850
L74940 28870
L74820 28870
" />
<path d="M75250 28370
L75540 28370
" />
<path d="M75390 28870
L75390 28370
" />
<path d="M75580 28920
L75970 28920
" />
<path d="M76060 28420
L76080 28400
L76130 28370
L76250 28370
L76300 28400
L76320 28420
L76350 28470
L76350 28510
L76320 28590
L76040 28870
L76350 28870
" />
<path d="M76440 28920
L76820 28920
" />
<path d="M76940 28870
L76940 28370
" />
<path d="M77180 28870
L77180 28370
L77470 28870
L77470 28370
" />
<path d="M77630 28370
L77920 28370
" />
<path d="M77770 28870
L77770 28370
" />
<path d="M73800 34370
L74110 34370
L73940 34560
L74010 34560
L74060 34590
L74080 34610
L74110 34660
L74110 34780
L74080 34820
L74060 34850
L74010 34870
L73870 34870
L73820 34850
L73800 34820
" />
<path d="M74320 34870
L74320 34370
L74510 34370
L74560 34400
L74580 34420
L74610 34470
L74610 34540
L74580 34590
L74560 34610
L74510 34630
L74320 34630
" />
<path d="M74820 34870
L74820 34370
L74940 34370
L75010 34400
L75060 34440
L75080 34490
L75110 34590
L75110 34660
L75080 34750
L75060 34800
L75010 34850
L74940 34870
L74820 34870
" />
<path d="M75250 34370
L75540 34370
" />
<path d="M75390 34870
L75390 34370
" />
<path d="M75580 34920
L75970 34920
" />
<path d="M76320 34370
L76080 34370
L76060 34610
L76080 34590
L76130 34560
L76250 34560
L76300 34590
L76320 34610
L76350 34660
L76350 34780
L76320 34820
L76300 34850
L76250 34870
L76130 34870
L76080 34850
L76060 34820
" />
<path d="M76440 34920
L76820 34920
" />
<path d="M76940 34870
L76940 34370
" />
<path d="M77180 34870
L77180 34370
L77470 34870
L77470 34370
" />
<path d="M77630 34370
L77920 34370
" />
<path d="M77770 34870
L77770 34370
" />
<path d="M73800 40370
L74110 40370
L73940 40560
L74010 40560
L74060 40590
L74080 40610
L74110 40660
L74110 40780
L74080 40820
L74060 40850
L74010 40870
L73870 40870
L73820 40850
L73800 40820
" />
<path d="M74320 40870
L74320 40370
L74510 40370
L74560 40400
L74580 40420
L74610 40470
L74610 40540
L74580 40590
L74560 40610
L74510 40630
L74320 40630
" />
<path d="M74820 40870
L74820 40370
L74940 40370
L75010 40400
L75060 40440
L75080 40490
L75110 40590
L75110 40660
L75080 40750
L75060 40800
L75010 40850
L74940 40870
L74820 40870
" />
<path d="M75250 40370
L75540 40370
" />
<path d="M75390 40870
L75390 40370
" />
<path d="M75580 40920
L75970 40920
" />
<path d="M76160 40590
L76110 40560
L76080 40540
L76060 40490
L76060 40470
L76080 40420
L76110 40400
L76160 40370
L76250 40370
L76300 40400
L76320 40420
L76350 40470
L76350 40490
L76320 40540
L76300 40560
L76250 40590
L76160 40590
L76110 40610
L76080 40630
L76060 40680
L76060 40780
L76080 40820
L76110 40850
L76160 40870
L76250 40870
L76300 40850
L76320 40820
L76350 40780
L76350 40680
L76320 40630
L76300 40610
L76250 40590
" />
<path d="M76440 40920
L76820 40920
" />
<path d="M76940 40870
L76940 40370
" />
<path d="M77180 40870
L77180 40370
L77470 40870
L77470 40370
" />
<path d="M77630 40370
L77920 40370
" />
<path d="M77770 40870
L77770 40370
" />
<path d="M88100 27370
L88410 27370
L88240 27560
L88310 27560
L88360 27590
L88380 27610
L88410 27660
L88410 27780
L88380 27820
L88360 27850
L88310 27870
L88170 27870
L88120 27850
L88100 27820
" />
<path d="M88620 27870
L88620 27370
L88810 27370
L88860 27400
L88880 27420
L88910 27470
L88910 27540
L88880 27590
L88860 27610
L88810 27630
L88620 27630
" />
<path d="M89120 27870
L89120 27370
L89240 27370
L89310 27400
L89360 27440
L89380 27490
L89410 27590
L89410 27660
L89380 27750
L89360 27800
L89310 27850
L89240 27870
L89120 27870
" />
<path d="M89550 27370
L89830 27370
" />
<path d="M89690 27870
L89690 27370
" />
<path d="M89880 27920
L90260 27920
" />
<path d="M90640 27870
L90360 27870
" />
<path d="M90500 27870
L90500 27370
L90450 27440
L90410 27490
L90360 27510
" />
<path d="M90740 27920
L91120 27920
" />
<path d="M91240 27870
L91240 27370
" />
<path d="M91480 27870
L91480 27370
L91760 27870
L91760 27370
" />
<path d="M91930 27370
L92220 27370
" />
<path d="M92070 27870
L92070 27370
" />
<path d="M88100 29370
L88410 29370
L88240 29560
L88310 29560
L88360 29590
L88380 29610
L88410 29660
L88410 29780
L88380 29820
L88360 29850
L88310 29870
L88170 29870
L88120 29850
L88100 29820
" />
<path d="M88620 29870
L88620 29370
L88810 29370
L88860 29400
L88880 29420
L88910 29470
L88910 29540
L88880 29590
L88860 29610
L88810 29630
L88620 29630
" />
<path d="M89120 29870
L89120 29370
L89240 29370
L89310 29400
L89360 29440
L89380 29490
L89410 29590
L89410 29660
L89380 29750
L89360 29800
L89310 29850
L89240 29870
L89120 29870
" />
<path d="M89550 29370
L89830 29370
" />
<path d="M89690 29870
L89690 29370
" />
<path d="M89880 29920
L90260 29920
" />
<path d="M90330 29370
L90640 29370
L90480 29560
L90550 29560
L90600 29590
L90620 29610
L90640 29660
L90640 29780
L90620 29820
L90600 29850
L90550 29870
L90410 29870
L90360 29850
L90330 29820
" />
<path d="M90740 29920
L91120 29920
" />
<path d="M91240 29870
L91240 29370
" />
<path d="M91480 29870
L91480 29370
L91760 29870
L91760 29370
" />
<path d="M91930 29370
L92220 29370
" />
<path d="M92070 29870
L92070 29370
" />
<path d="M88100 33370
L88410 33370
L88240 33560
L88310 33560
L88360 33590
L88380 33610
L88410 33660
L88410 33780
L88380 33820
L88360 33850
L88310 33870
L88170 33870
L88120 33850
L88100 33820
" />
<path d="M88620 33870
L88620 33370
L88810 33370
L88860 33400
L88880 33420
L88910 33470
L88910 33540
L88880 33590
L88860 33610
L88810 33630
L88620 33630
" />
<path d="M89120 33870
L89120 33370
L89240 33370
L89310 33400
L89360 33440
L89380 33490
L89410 33590
L89410 33660
L89380 33750
L89360 33800
L89310 33850
L89240 33870
L89120 33870
" />
<path d="M89550 33370
L89830 33370
" />
<path d="M89690 33870
L89690 33370
" />
<path d="M89880 33920
L90260 33920
" />
<path d="M90600 33540
L90600 33870
" />
<path d="M90480 33350
L90360 33700
L90670 33700
" />
<path d="M90740 33920
L91120 33920
" />
<path d="M91240 33870
L91240 33370
" />
<path d="M91480 33870
L91480 33370
L91760 33870
L91760 33370
" />
<path d="M91930 33370
L92220 33370
" />
<path d="M92070 33870
L92070 33370
" />
<path d="M88100 35370
L88410 35370
L88240 35560
L88310 35560
L88360 35590
L88380 35610
L88410 35660
L88410 35780
L88380 35820
L88360 35850
L88310 35870
L88170 35870
L88120 35850
L88100 35820
" />
<path d="M88620 35870
L88620 35370
L88810 35370
L88860 35400
L88880 35420
L88910 35470
L88910 35540
L88880 35590
L88860 35610
L88810 35630
L88620 35630
" />
<path d="M89120 35870
L89120 35370
L89240 35370
L89310 35400
L89360 35440
L89380 35490
L89410 35590
L89410 35660
L89380 35750
L89360 35800
L89310 35850
L89240 35870
L89120 35870
" />
<path d="M89550 35370
L89830 35370
" />
<path d="M89690 35870
L89690 35370
" />
<path d="M89880 35920
L90260 35920
" />
<path d="M90600 35370
L90500 35370
L90450 35400
L90430 35420
L90380 35490
L90360 35590
L90360 35780
L90380 35820
L90410 35850
L90450 35870
L90550 35870
L90600 35850
L90620 35820
L90640 35780
L90640 35660
L90620 35610
L90600 35590
L90550 35560
L90450 35560
L90410 35590
L90380 35610
L90360 35660
" />
<path d="M90740 35920
L91120 35920
" />
<path d="M91240 35870
L91240 35370
" />
<path d="M91480 35870
L91480 35370
L91760 35870
L91760 35370
" />
<path d="M91930 35370
L92220 35370
" />
<path d="M92070 35870
L92070 35370
" />
<path d="M88100 39370
L88410 39370
L88240 39560
L88310 39560
L88360 39590
L88380 39610
L88410 39660
L88410 39780
L88380 39820
L88360 39850
L88310 39870
L88170 39870
L88120 39850
L88100 39820
" />
<path d="M88620 39870
L88620 39370
L88810 39370
L88860 39400
L88880 39420
L88910 39470
L88910 39540
L88880 39590
L88860 39610
L88810 39630
L88620 39630
" />
<path d="M89120 39870
L89120 39370
L89240 39370
L89310 39400
L89360 39440
L89380 39490
L89410 39590
L89410 39660
L89380 39750
L89360 39800
L89310 39850
L89240 39870
L89120 39870
" />
<path d="M89550 39370
L89830 39370
" />
<path d="M89690 39870
L89690 39370
" />
<path d="M89880 39920
L90260 39920
" />
<path d="M90330 39370
L90670 39370
L90450 39870
" />
<path d="M90740 39920
L91120 39920
" />
<path d="M91240 39870
L91240 39370
" />
<path d="M91480 39870
L91480 39370
L91760 39870
L91760 39370
" />
<path d="M91930 39370
L92220 39370
" />
<path d="M92070 39870
L92070 39370
" />
<path d="M88100 41370
L88410 41370
L88240 41560
L88310 41560
L88360 41590
L88380 41610
L88410 41660
L88410 41780
L88380 41820
L88360 41850
L88310 41870
L88170 41870
L88120 41850
L88100 41820
" />
<path d="M88620 41870
L88620 41370
L88810 41370
L88860 41400
L88880 41420
L88910 41470
L88910 41540
L88880 41590
L88860 41610
L88810 41630
L88620 41630
" />
<path d="M89120 41870
L89120 41370
L89240 41370
L89310 41400
L89360 41440
L89380 41490
L89410 41590
L89410 41660
L89380 41750
L89360 41800
L89310 41850
L89240 41870
L89120 41870
" />
<path d="M89550 41370
L89830 41370
" />
<path d="M89690 41870
L89690 41370
" />
<path d="M89880 41920
L90260 41920
" />
<path d="M90410 41870
L90500 41870
L90550 41850
L90570 41820
L90620 41750
L90640 41660
L90640 41470
L90620 41420
L90600 41400
L90550 41370
L90450 41370
L90410 41400
L90380 41420
L90360 41470
L90360 41590
L90380 41630
L90410 41660
L90450 41680
L90550 41680
L90600 41660
L90620 41630
L90640 41590
" />
<path d="M90740 41920
L91120 41920
" />
<path d="M91240 41870
L91240 41370
" />
<path d="M91480 41870
L91480 41370
L91760 41870
L91760 41370
" />
<path d="M91930 41370
L92220 41370
" />
<path d="M92070 41870
L92070 41370
" />
</g>
<g style="fill:#000000; fill-opacity:0.0; 
stroke:#000000; stroke-width:0; stroke-opacity:1; 
stroke-linecap:round; stroke-linejoin:round;">
</g>
<g style="fill:#840000; fill-opacity:0.0; 
stroke:#840000; stroke-width:0; stroke-opacity:1; 
stroke-linecap:round; stroke-linejoin:round;">
</g>
<g style="fill:#FFFFC2; fill-opacity:0.0; 
stroke:#FFFFC2; stroke-width:0; stroke-opacity:1; 
stroke-linecap:round; stroke-linejoin:round;">
</g>
<g style="fill:#FFFFC2; fill-opacity:0.6; 
stroke:#FFFFC2; stroke-width:0; stroke-opacity:1; 
stroke-linecap:round; stroke-linejoin:round;">
<rect x="35500" y="31500" width="2000" height="5000" rx="0" />
</g>
<g style="fill:#840000; fill-opacity:0.6; 
stroke:#840000; stroke-width:0; stroke-opacity:1; 
stroke-linecap:round; stroke-linejoin:round;">
</g>
<g style="fill:#840000; fill-opacity:0.0; 
stroke:#840000; stroke-width:100; stroke-opacity:1; 
stroke-linecap:round; stroke-linejoin:round;">
<rect x="35500" y="31500" width="2000" height="5000" rx="0" />
</g>
<g style="fill:#840000; fill-opacity:0.0; 
stroke:#840000; stroke-width:60; stroke-opacity:1; 
stroke-linecap:round; stroke-linejoin:round;">
<rect x="35500" y="35950" width="500" height="100" rx="0" />
<rect x="35500" y="34950" width="500" height="100" rx="0" />
<rect x="35500" y="33950" width="500" height="100" rx="0" />
<rect x="35500" y="32950" width="500" height="100" rx="0" />
<rect x="35500" y="31950" width="500" height="100" rx="0" />
<rect x="37000" y="35950" width="500" height="100" rx="0" />
<rect x="37000" y="34950" width="500" height="100" rx="0" />
<rect x="37000" y="33950" width="500" height="100" rx="0" />
<rect x="37000" y="32950" width="500" height="100" rx="0" />
<rect x="37000" y="31950" width="500" height="100" rx="0" />
<path d="M35500 32000
L34000 32000
" />
<path d="M34890 31870
L34600 31870
" />
<path d="M34750 31870
L34750 31370
L34700 31440
L34650 31490
L34600 31510
" />
<path d="M37500 32000
L39000 32000
" />
<path d="M38150 31870
L37860 31870
" />
<path d="M38010 31870
L38010 31370
L37960 31440
L37910 31490
L37860 31510
" />
<path d="M38460 31370
L38510 31370
L38550 31400
L38580 31420
L38600 31470
L38630 31560
L38630 31680
L38600 31780
L38580 31820
L38550 31850
L38510 31870
L38460 31870
L38410 31850
L38390 31820
L38360 31780
L38340 31680
L38340 31560
L38360 31470
L38390 31420
L38410 31400
L38460 31370
" />
<path d="M35500 33000
L34000 33000
" />
<path d="M34600 32420
L34630 32400
L34670 32370
L34790 32370
L34840 32400
L34860 32420
L34890 32470
L34890 32510
L34860 32590
L34580 32870
L34890 32870
" />
<path d="M35500 34000
L34000 34000
" />
<path d="M34580 33370
L34890 33370
L34720 33560
L34790 33560
L34840 33590
L34860 33610
L34890 33660
L34890 33780
L34860 33820
L34840 33850
L34790 33870
L34650 33870
L34600 33850
L34580 33820
" />
<path d="M35500 35000
L34000 35000
" />
<path d="M34840 34540
L34840 34870
" />
<path d="M34720 34350
L34600 34700
L34910 34700
" />
<path d="M35500 36000
L34000 36000
" />
<path d="M34860 35370
L34630 35370
L34600 35610
L34630 35590
L34670 35560
L34790 35560
L34840 35590
L34860 35610
L34890 35660
L34890 35780
L34860 35820
L34840 35850
L34790 35870
L34670 35870
L34630 35850
L34600 35820
" />
<path d="M37500 36000
L39000 36000
" />
<path d="M38340 35370
L38250 35370
L38200 35400
L38170 35420
L38130 35490
L38100 35590
L38100 35780
L38130 35820
L38150 35850
L38200 35870
L38290 35870
L38340 35850
L38360 35820
L38390 35780
L38390 35660
L38360 35610
L38340 35590
L38290 35560
L38200 35560
L38150 35590
L38130 35610
L38100 35660
" />
<path d="M37500 35000
L39000 35000
" />
<path d="M38080 34370
L38410 34370
L38200 34870
" />
<path d="M37500 34000
L39000 34000
" />
<path d="M38200 33590
L38150 33560
L38130 33540
L38100 33490
L38100 33470
L38130 33420
L38150 33400
L38200 33370
L38290 33370
L38340 33400
L38360 33420
L38390 33470
L38390 33490
L38360 33540
L38340 33560
L38290 33590
L38200 33590
L38150 33610
L38130 33630
L38100 33680
L38100 33780
L38130 33820
L38150 33850
L38200 33870
L38290 33870
L38340 33850
L38360 33820
L38390 33780
L38390 33680
L38360 33630
L38340 33610
L38290 33590
" />
<path d="M37500 33000
L39000 33000
" />
<path d="M38150 32870
L38250 32870
L38290 32850
L38320 32820
L38360 32750
L38390 32660
L38390 32470
L38360 32420
L38340 32400
L38290 32370
L38200 32370
L38150 32400
L38130 32420
L38100 32470
L38100 32590
L38130 32630
L38150 32660
L38200 32680
L38290 32680
L38340 32660
L38360 32630
L38390 32590
" />
</g>
<g style="fill:#008484; fill-opacity:0.0; 
stroke:#008484; stroke-width:60; stroke-opacity:1; 
stroke-linecap:round; stroke-linejoin:round;">
<path d="M34090 30490
L34090 30850
L34070 30920
L34020 30970
L33950 30990
L33900 30990
" />
<path d="M34210 31040
L34590 31040
" />
<path d="M34710 30990
L34710 30490
L34880 30850
L35040 30490
L35040 30990
" />
<path d="M35260 30850
L35500 30850
" />
<path d="M35210 30990
L35380 30490
L35540 30990
" />
<path d="M35710 30990
L35710 30490
" />
<path d="M35950 30990
L35950 30490
L36230 30990
L36230 30490
" />
<path d="M36400 30490
L36690 30490
" />
<path d="M36540 30990
L36540 30490
" />
<path d="M36950 30490
L37040 30490
L37090 30520
L37140 30560
L37160 30660
L37160 30820
L37140 30920
L37090 30970
L37040 30990
L36950 30990
L36900 30970
L36850 30920
L36830 30820
L36830 30660
L36850 30560
L36900 30520
L36950 30490
" />
<path d="M37350 30850
L37590 30850
" />
<path d="M37300 30990
L37470 30490
L37640 30990
" />
<path d="M37800 30490
L37800 30900
L37830 30940
L37850 30970
L37900 30990
L38000 30990
L38040 30970
L38070 30940
L38090 30900
L38090 30490
" />
<path d="M38280 30490
L38610 30990
" />
<path d="M38610 30490
L38280 30990
" />
<path d="M39070 30990
L38780 30990
" />
<path d="M38920 30990
L38920 30490
L38880 30560
L38830 30610
L38780 30630
" />
</g>
<g style="fill:#008484; fill-opacity:0.0; 
stroke:#008484; stroke-width:0; stroke-opacity:1; 
stroke-linecap:round; stroke-linejoin:round;">
</g>
<g style="fill:#840000; fill-opacity:0.0; 
stroke:#840000; stroke-width:0; stroke-opacity:1; 
stroke-linecap:round; stroke-linejoin:round;">
</g>
<g style="fill:#FFFFC2; fill-opacity:0.0; 
stroke:#FFFFC2; stroke-width:0; stroke-opacity:1; 
stroke-linecap:round; stroke-linejoin:round;">
</g>
<g style="fill:#FFFFC2; fill-opacity:0.6; 
stroke:#FFFFC2; stroke-width:0; stroke-opacity:1; 
stroke-linecap:round; stroke-linejoin:round;">
<rect x="53500" y="31500" width="2000" height="5000" rx="0" />
</g>
<g style="fill:#840000; fill-opacity:0.6; 
stroke:#840000; stroke-width:0; stroke-opacity:1; 
stroke-linecap:round; stroke-linejoin:round;">
</g>
<g style="fill:#840000; fill-opacity:0.0; 
stroke:#840000; stroke-width:100; stroke-opacity:1; 
stroke-linecap:round; stroke-linejoin:round;">
<rect x="53500" y="31500" width="2000" height="5000" rx="0" />
</g>
<g style="fill:#840000; fill-opacity:0.0; 
stroke:#840000; stroke-width:60; stroke-opacity:1; 
stroke-linecap:round; stroke-linejoin:round;">
<rect x="53500" y="35950" width="500" height="100" rx="0" />
<rect x="53500" y="34950" width="500" height="100" rx="0" />
<rect x="53500" y="33950" width="500" height="100" rx="0" />
<rect x="53500" y="32950" width="500" height="100" rx="0" />
<rect x="53500" y="31950" width="500" height="100" rx="0" />
<rect x="55000" y="35950" width="500" height="100" rx="0" />
<rect x="55000" y="34950" width="500" height="100" rx="0" />
<rect x="55000" y="33950" width="500" height="100" rx="0" />
<rect x="55000" y="32950" width="500" height="100" rx="0" />
<rect x="55000" y="31950" width="500" height="100" rx="0" />
<path d="M53500 32000
L52000 32000
" />
<path d="M52890 31870
L52600 31870
" />
<path d="M52750 31870
L52750 31370
L52700 31440
L52650 31490
L52600 31510
" />
<path d="M55500 32000
L57000 32000
" />
<path d="M56150 31870
L55860 31870
" />
<path d="M56010 31870
L56010 31370
L55960 31440
L55910 31490
L55860 31510
" />
<path d="M56460 31370
L56510 31370
L56550 31400
L56580 31420
L56600 31470
L56630 31560
L56630 31680
L56600 31780
L56580 31820
L56550 31850
L56510 31870
L56460 31870
L56410 31850
L56390 31820
L56360 31780
L56340 31680
L56340 31560
L56360 31470
L56390 31420
L56410 31400
L56460 31370
" />
<path d="M53500 33000
L52000 33000
" />
<path d="M52600 32420
L52630 32400
L52670 32370
L52790 32370
L52840 32400
L52860 32420
L52890 32470
L52890 32510
L52860 32590
L52580 32870
L52890 32870
" />
<path d="M53500 34000
L52000 34000
" />
<path d="M52580 33370
L52890 33370
L52720 33560
L52790 33560
L52840 33590
L52860 33610
L52890 33660
L52890 33780
L52860 33820
L52840 33850
L52790 33870
L52650 33870
L52600 33850
L52580 33820
" />
<path d="M53500 35000
L52000 35000
" />
<path d="M52840 34540
L52840 34870
" />
<path d="M52720 34350
L52600 34700
L52910 34700
" />
<path d="M53500 36000
L52000 36000
" />
<path d="M52860 35370
L52630 35370
L52600 35610
L52630 35590
L52670 35560
L52790 35560
L52840 35590
L52860 35610
L52890 35660
L52890 35780
L52860 35820
L52840 35850
L52790 35870
L52670 35870
L52630 35850
L52600 35820
" />
<path d="M55500 36000
L57000 36000
" />
<path d="M56340 35370
L56250 35370
L56200 35400
L56170 35420
L56130 35490
L56100 35590
L56100 35780
L56130 35820
L56150 35850
L56200 35870
L56290 35870
L56340 35850
L56360 35820
L56390 35780
L56390 35660
L56360 35610
L56340 35590
L56290 35560
L56200 35560
L56150 35590
L56130 35610
L56100 35660
" />
<path d="M55500 35000
L57000 35000
" />
<path d="M56080 34370
L56410 34370
L56200 34870
" />
<path d="M55500 34000
L57000 34000
" />
<path d="M56200 33590
L56150 33560
L56130 33540
L56100 33490
L56100 33470
L56130 33420
L56150 33400
L56200 33370
L56290 33370
L56340 33400
L56360 33420
L56390 33470
L56390 33490
L56360 33540
L56340 33560
L56290 33590
L56200 33590
L56150 33610
L56130 33630
L56100 33680
L56100 33780
L56130 33820
L56150 33850
L56200 33870
L56290 33870
L56340 33850
L56360 33820
L56390 33780
L56390 33680
L56360 33630
L56340 33610
L56290 33590
" />
<path d="M55500 33000
L57000 33000
" />
<path d="M56150 32870
L56250 32870
L56290 32850
L56320 32820
L56360 32750
L56390 32660
L56390 32470
L56360 32420
L56340 32400
L56290 32370
L56200 32370
L56150 32400
L56130 32420
L56100 32470
L56100 32590
L56130 32630
L56150 32660
L56200 32680
L56290 32680
L56340 32660
L56360 32630
L56390 32590
" />
</g>
<g style="fill:#008484; fill-opacity:0.0; 
stroke:#008484; stroke-width:60; stroke-opacity:1; 
stroke-linecap:round; stroke-linejoin:round;">
<path d="M52090 30490
L52090 30850
L52070 30920
L52020 30970
L51950 30990
L51900 30990
" />
<path d="M52210 31040
L52590 31040
" />
<path d="M52690 30850
L52920 30850
" />
<path d="M52640 30990
L52800 30490
L52970 30990
" />
<path d="M53140 30490
L53140 30900
L53160 30940
L53190 30970
L53230 30990
L53330 30990
L53380 30970
L53400 30940
L53420 30900
L53420 30490
" />
<path d="M53610 30490
L53950 30990
" />
<path d="M53950 30490
L53610 30990
" />
<path d="M54070 30490
L54350 30490
" />
<path d="M54210 30990
L54210 30490
" />
<path d="M54610 30490
L54710 30490
L54760 30520
L54800 30560
L54830 30660
L54830 30820
L54800 30920
L54760 30970
L54710 30990
L54610 30990
L54570 30970
L54520 30920
L54500 30820
L54500 30660
L54520 30560
L54570 30520
L54610 30490
" />
<path d="M55040 30990
L55040 30490
L55210 30850
L55380 30490
L55380 30990
" />
<path d="M55590 30850
L55830 30850
" />
<path d="M55540 30990
L55710 30490
L55880 30990
" />
<path d="M56040 30990
L56040 30490
" />
<path d="M56280 30990
L56280 30490
L56570 30990
L56570 30490
" />
<path d="M57070 30990
L56780 30990
" />
<path d="M56920 30990
L56920 30490
L56880 30560
L56830 30610
L56780 30630
" />
</g>
<g style="fill:#000084; fill-opacity:0.0; 
stroke:#000084; stroke-width:60; stroke-opacity:1; 
stroke-linecap:round; stroke-linejoin:round;">
<path d="M38760 31760
L39240 32240
" />
<path d="M39240 31760
L38760 32240
" />
<path d="M56760 31760
L57240 32240
" />
<path d="M57240 31760
L56760 32240
" />
</g> 
</svg>
