G04 #@! TF.GenerationSoftware,KiCad,Pcbnew,(5.0.0-3-g5ebb6b6)*
G04 #@! TF.CreationDate,2018-11-15T11:28:39+00:00*
G04 #@! TF.ProjectId,555PWMTremolo,35353550574D5472656D6F6C6F2E6B69,rev?*
G04 #@! TF.SameCoordinates,Original*
G04 #@! TF.FileFunction,Legend,Top*
G04 #@! TF.FilePolarity,Positive*
%FSLAX46Y46*%
G04 Gerber Fmt 4.6, Leading zero omitted, Abs format (unit mm)*
G04 Created by KiCad (PCBNEW (5.0.0-3-g5ebb6b6)) date Thursday, 15 November 2018 at 11:28:39*
%MOMM*%
%LPD*%
G01*
G04 APERTURE LIST*
%ADD10C,0.500000*%
%ADD11C,0.200000*%
%ADD12C,0.150000*%
%ADD13C,0.120000*%
%ADD14C,0.125000*%
G04 APERTURE END LIST*
D10*
X94488000Y-152527000D02*
X99060000Y-152527000D01*
D11*
X62843210Y-136271000D02*
G75*
G03X62843210Y-136271000I-359210J0D01*
G01*
X77372981Y-110236000D02*
G75*
G03X77372981Y-110236000I-283981J0D01*
G01*
X80928981Y-72898000D02*
G75*
G03X80928981Y-72898000I-283981J0D01*
G01*
X65383210Y-87630000D02*
G75*
G03X65383210Y-87630000I-359210J0D01*
G01*
X101199904Y-165758095D02*
X100399904Y-165758095D01*
X100399904Y-165377142D01*
X100438000Y-165281904D01*
X100476095Y-165234285D01*
X100552285Y-165186666D01*
X100666571Y-165186666D01*
X100742761Y-165234285D01*
X100780857Y-165281904D01*
X100818952Y-165377142D01*
X100818952Y-165758095D01*
X101199904Y-164281904D02*
X101199904Y-164758095D01*
X100399904Y-164758095D01*
X100399904Y-163948571D02*
X101047523Y-163948571D01*
X101123714Y-163900952D01*
X101161809Y-163853333D01*
X101199904Y-163758095D01*
X101199904Y-163567619D01*
X101161809Y-163472380D01*
X101123714Y-163424761D01*
X101047523Y-163377142D01*
X100399904Y-163377142D01*
X100438000Y-162377142D02*
X100399904Y-162472380D01*
X100399904Y-162615238D01*
X100438000Y-162758095D01*
X100514190Y-162853333D01*
X100590380Y-162900952D01*
X100742761Y-162948571D01*
X100857047Y-162948571D01*
X101009428Y-162900952D01*
X101085619Y-162853333D01*
X101161809Y-162758095D01*
X101199904Y-162615238D01*
X101199904Y-162520000D01*
X101161809Y-162377142D01*
X101123714Y-162329523D01*
X100857047Y-162329523D01*
X100857047Y-162520000D01*
X100399904Y-161281904D02*
X100399904Y-160710476D01*
X101199904Y-160996190D02*
X100399904Y-160996190D01*
X101199904Y-160377142D02*
X100399904Y-160377142D01*
X100780857Y-160377142D02*
X100780857Y-159805714D01*
X101199904Y-159805714D02*
X100399904Y-159805714D01*
X101199904Y-159329523D02*
X100399904Y-159329523D01*
X101161809Y-158900952D02*
X101199904Y-158758095D01*
X101199904Y-158520000D01*
X101161809Y-158424761D01*
X101123714Y-158377142D01*
X101047523Y-158329523D01*
X100971333Y-158329523D01*
X100895142Y-158377142D01*
X100857047Y-158424761D01*
X100818952Y-158520000D01*
X100780857Y-158710476D01*
X100742761Y-158805714D01*
X100704666Y-158853333D01*
X100628476Y-158900952D01*
X100552285Y-158900952D01*
X100476095Y-158853333D01*
X100438000Y-158805714D01*
X100399904Y-158710476D01*
X100399904Y-158472380D01*
X100438000Y-158329523D01*
X101161809Y-157186666D02*
X101199904Y-157043809D01*
X101199904Y-156805714D01*
X101161809Y-156710476D01*
X101123714Y-156662857D01*
X101047523Y-156615238D01*
X100971333Y-156615238D01*
X100895142Y-156662857D01*
X100857047Y-156710476D01*
X100818952Y-156805714D01*
X100780857Y-156996190D01*
X100742761Y-157091428D01*
X100704666Y-157139047D01*
X100628476Y-157186666D01*
X100552285Y-157186666D01*
X100476095Y-157139047D01*
X100438000Y-157091428D01*
X100399904Y-156996190D01*
X100399904Y-156758095D01*
X100438000Y-156615238D01*
X101199904Y-156186666D02*
X100399904Y-156186666D01*
X101199904Y-155710476D02*
X100399904Y-155710476D01*
X100399904Y-155472380D01*
X100438000Y-155329523D01*
X100514190Y-155234285D01*
X100590380Y-155186666D01*
X100742761Y-155139047D01*
X100857047Y-155139047D01*
X101009428Y-155186666D01*
X101085619Y-155234285D01*
X101161809Y-155329523D01*
X101199904Y-155472380D01*
X101199904Y-155710476D01*
X100780857Y-154710476D02*
X100780857Y-154377142D01*
X101199904Y-154234285D02*
X101199904Y-154710476D01*
X100399904Y-154710476D01*
X100399904Y-154234285D01*
D12*
G04 #@! TO.C,SW_EN1*
X89433400Y-168541700D02*
X72923400Y-168541700D01*
X72923400Y-168541700D02*
X71653400Y-168541700D01*
X71526400Y-168922700D02*
X71526400Y-151142700D01*
X71653400Y-151523700D02*
X89433400Y-151523700D01*
X89560400Y-151142700D02*
X89560400Y-168922700D01*
D13*
G04 #@! TO.C,D_LED1*
X77782000Y-97535538D02*
G75*
G03X83332000Y-99080830I2990000J-462D01*
G01*
X77782000Y-97536462D02*
G75*
G02X83332000Y-95991170I2990000J462D01*
G01*
X83272000Y-97536000D02*
G75*
G03X83272000Y-97536000I-2500000J0D01*
G01*
X83332000Y-99081000D02*
X83332000Y-95991000D01*
G04 #@! TO.C,U_NREG1*
X101191500Y-145269000D02*
X95181500Y-145269000D01*
X98941500Y-138449000D02*
X95181500Y-138449000D01*
X95181500Y-145269000D02*
X95181500Y-144009000D01*
X95181500Y-138449000D02*
X95181500Y-139709000D01*
G04 #@! TO.C,C_BP1*
X69394000Y-87383252D02*
X69394000Y-86860748D01*
X70814000Y-87383252D02*
X70814000Y-86860748D01*
G04 #@! TO.C,C_BP3*
X77014000Y-103243748D02*
X77014000Y-103766252D01*
X78434000Y-103243748D02*
X78434000Y-103766252D01*
G04 #@! TO.C,C_BP4*
X80824000Y-116451748D02*
X80824000Y-116974252D01*
X82244000Y-116451748D02*
X82244000Y-116974252D01*
G04 #@! TO.C,C_BP5*
X56380748Y-136196000D02*
X56903252Y-136196000D01*
X56380748Y-137616000D02*
X56903252Y-137616000D01*
G04 #@! TO.C,P_DEPTH1*
X89120000Y-82940000D02*
X89120000Y-78274000D01*
X89120000Y-74365000D02*
X89120000Y-71350000D01*
X101460000Y-82940000D02*
X101460000Y-78274000D01*
X101460000Y-74365000D02*
X101460000Y-71350000D01*
X89120000Y-82940000D02*
X91919000Y-82940000D01*
X93661000Y-82940000D02*
X94420000Y-82940000D01*
X96161000Y-82940000D02*
X96920000Y-82940000D01*
X98660000Y-82940000D02*
X101460000Y-82940000D01*
X89120000Y-71350000D02*
X101460000Y-71350000D01*
G04 #@! TO.C,P_VOL1*
X101380000Y-110260000D02*
X89040000Y-110260000D01*
X91840000Y-98670000D02*
X89040000Y-98670000D01*
X94339000Y-98670000D02*
X93580000Y-98670000D01*
X96839000Y-98670000D02*
X96080000Y-98670000D01*
X101380000Y-98670000D02*
X98581000Y-98670000D01*
X89040000Y-107245000D02*
X89040000Y-110260000D01*
X89040000Y-98670000D02*
X89040000Y-103336000D01*
X101380000Y-107245000D02*
X101380000Y-110260000D01*
X101380000Y-98670000D02*
X101380000Y-103336000D01*
G04 #@! TO.C,R1*
X75242052Y-134926000D02*
X74719548Y-134926000D01*
X75242052Y-136346000D02*
X74719548Y-136346000D01*
G04 #@! TO.C,R2*
X83827252Y-136346000D02*
X83304748Y-136346000D01*
X83827252Y-134926000D02*
X83304748Y-134926000D01*
G04 #@! TO.C,R3*
X103370748Y-133275000D02*
X103893252Y-133275000D01*
X103370748Y-134695000D02*
X103893252Y-134695000D01*
G04 #@! TO.C,R4*
X94241252Y-134568000D02*
X93718748Y-134568000D01*
X94241252Y-133148000D02*
X93718748Y-133148000D01*
G04 #@! TO.C,R5*
X98798748Y-134568000D02*
X99321252Y-134568000D01*
X98798748Y-133148000D02*
X99321252Y-133148000D01*
D12*
G04 #@! TO.C,U_BUF1*
X77104000Y-112311000D02*
X77104000Y-113711000D01*
X82204000Y-112311000D02*
X82204000Y-108161000D01*
X77054000Y-112311000D02*
X77054000Y-108161000D01*
X82204000Y-112311000D02*
X82059000Y-112311000D01*
X82204000Y-108161000D02*
X82059000Y-108161000D01*
X77054000Y-108161000D02*
X77199000Y-108161000D01*
X77054000Y-112311000D02*
X77104000Y-112311000D01*
D13*
G04 #@! TO.C,U_PREG1*
X82491500Y-144761000D02*
X82491500Y-143501000D01*
X82491500Y-137941000D02*
X82491500Y-139201000D01*
X78731500Y-144761000D02*
X82491500Y-144761000D01*
X76481500Y-137941000D02*
X82491500Y-137941000D01*
G04 #@! TO.C,CP_INV1*
X55289000Y-142462000D02*
X55289000Y-142962000D01*
X55039000Y-142712000D02*
X55539000Y-142712000D01*
X55779000Y-145467563D02*
X56843437Y-146532000D01*
X55779000Y-143076437D02*
X56843437Y-142012000D01*
X55779000Y-143076437D02*
X55779000Y-143212000D01*
X55779000Y-145467563D02*
X55779000Y-145332000D01*
X56843437Y-146532000D02*
X60299000Y-146532000D01*
X56843437Y-142012000D02*
X60299000Y-142012000D01*
X60299000Y-142012000D02*
X60299000Y-143212000D01*
X60299000Y-146532000D02*
X60299000Y-145332000D01*
G04 #@! TO.C,CP_INV2*
X64796000Y-142012000D02*
X64796000Y-143212000D01*
X64796000Y-146532000D02*
X64796000Y-145332000D01*
X68251563Y-146532000D02*
X64796000Y-146532000D01*
X68251563Y-142012000D02*
X64796000Y-142012000D01*
X69316000Y-143076437D02*
X69316000Y-143212000D01*
X69316000Y-145467563D02*
X69316000Y-145332000D01*
X69316000Y-145467563D02*
X68251563Y-146532000D01*
X69316000Y-143076437D02*
X68251563Y-142012000D01*
X70056000Y-145832000D02*
X69556000Y-145832000D01*
X69806000Y-146082000D02*
X69806000Y-145582000D01*
G04 #@! TO.C,C_OSC2*
X71703000Y-92702748D02*
X71703000Y-93225252D01*
X70283000Y-92702748D02*
X70283000Y-93225252D01*
G04 #@! TO.C,R_OSCOFF1*
X65285252Y-94032000D02*
X64762748Y-94032000D01*
X65285252Y-95452000D02*
X64762748Y-95452000D01*
G04 #@! TO.C,R_OSCON1*
X58412748Y-88698000D02*
X58935252Y-88698000D01*
X58412748Y-90118000D02*
X58935252Y-90118000D01*
D12*
G04 #@! TO.C,U_OSC1*
X62949000Y-87468000D02*
X62949000Y-87518000D01*
X67099000Y-87468000D02*
X67099000Y-87613000D01*
X67099000Y-92618000D02*
X67099000Y-92473000D01*
X62949000Y-92618000D02*
X62949000Y-92473000D01*
X62949000Y-87468000D02*
X67099000Y-87468000D01*
X62949000Y-92618000D02*
X67099000Y-92618000D01*
X62949000Y-87518000D02*
X61549000Y-87518000D01*
D13*
G04 #@! TO.C,P_OSCOFF1*
X72170000Y-110260000D02*
X59830000Y-110260000D01*
X62630000Y-98670000D02*
X59830000Y-98670000D01*
X65129000Y-98670000D02*
X64370000Y-98670000D01*
X67629000Y-98670000D02*
X66870000Y-98670000D01*
X72170000Y-98670000D02*
X69371000Y-98670000D01*
X59830000Y-107245000D02*
X59830000Y-110260000D01*
X59830000Y-98670000D02*
X59830000Y-103336000D01*
X72170000Y-107245000D02*
X72170000Y-110260000D01*
X72170000Y-98670000D02*
X72170000Y-103336000D01*
G04 #@! TO.C,P_OSCON1*
X59910000Y-82940000D02*
X59910000Y-78274000D01*
X59910000Y-74365000D02*
X59910000Y-71350000D01*
X72250000Y-82940000D02*
X72250000Y-78274000D01*
X72250000Y-74365000D02*
X72250000Y-71350000D01*
X59910000Y-82940000D02*
X62709000Y-82940000D01*
X64451000Y-82940000D02*
X65210000Y-82940000D01*
X66951000Y-82940000D02*
X67710000Y-82940000D01*
X69450000Y-82940000D02*
X72250000Y-82940000D01*
X59910000Y-71350000D02*
X72250000Y-71350000D01*
D12*
G04 #@! TO.C,U_INV1*
X60409000Y-136286000D02*
X59009000Y-136286000D01*
X60409000Y-141386000D02*
X64559000Y-141386000D01*
X60409000Y-136236000D02*
X64559000Y-136236000D01*
X60409000Y-141386000D02*
X60409000Y-141241000D01*
X64559000Y-141386000D02*
X64559000Y-141241000D01*
X64559000Y-136236000D02*
X64559000Y-136381000D01*
X60409000Y-136236000D02*
X60409000Y-136286000D01*
D13*
G04 #@! TO.C,U_OPTO1*
X83045000Y-72895000D02*
X83045000Y-73045000D01*
X78245000Y-72895000D02*
X83045000Y-72895000D01*
X78245000Y-73045000D02*
X78245000Y-72895000D01*
X78245000Y-75695000D02*
X78245000Y-75545000D01*
X83045000Y-75695000D02*
X78245000Y-75695000D01*
X83045000Y-75545000D02*
X83045000Y-75695000D01*
X78245000Y-73045000D02*
X76545000Y-73045000D01*
G04 #@! TO.C,CP_FAST1*
X85826000Y-93700000D02*
X85826000Y-92500000D01*
X85826000Y-89180000D02*
X85826000Y-90380000D01*
X82370437Y-89180000D02*
X85826000Y-89180000D01*
X82370437Y-93700000D02*
X85826000Y-93700000D01*
X81306000Y-92635563D02*
X81306000Y-92500000D01*
X81306000Y-90244437D02*
X81306000Y-90380000D01*
X81306000Y-90244437D02*
X82370437Y-89180000D01*
X81306000Y-92635563D02*
X82370437Y-93700000D01*
X80566000Y-89880000D02*
X81066000Y-89880000D01*
X80816000Y-89630000D02*
X80816000Y-90130000D01*
G04 #@! TO.C,CP_SLOW1*
X98660000Y-94088000D02*
X98660000Y-91738000D01*
X98660000Y-87268000D02*
X98660000Y-89618000D01*
X92904437Y-87268000D02*
X98660000Y-87268000D01*
X92904437Y-94088000D02*
X98660000Y-94088000D01*
X91840000Y-93023563D02*
X91840000Y-91738000D01*
X91840000Y-88332437D02*
X91840000Y-89618000D01*
X91840000Y-88332437D02*
X92904437Y-87268000D01*
X91840000Y-93023563D02*
X92904437Y-94088000D01*
X90812500Y-88830500D02*
X91600000Y-88830500D01*
X91206250Y-88436750D02*
X91206250Y-89224250D01*
D12*
G04 #@! TO.C,SW_ATTACK1*
X82718177Y-83988461D02*
G75*
G03X82717640Y-86700360I-2073177J-1355539D01*
G01*
X82727800Y-87884000D02*
X82727800Y-82804000D01*
X84709000Y-82804000D02*
X76581000Y-82804000D01*
X84709000Y-87884000D02*
X84709000Y-82804000D01*
X76581000Y-87884000D02*
X84709000Y-87884000D01*
X76581000Y-82804000D02*
X76581000Y-87884000D01*
D13*
G04 #@! TO.C,C_BP2*
X72442000Y-87383252D02*
X72442000Y-86860748D01*
X73862000Y-87383252D02*
X73862000Y-86860748D01*
G04 #@! TO.C,SW_EN1*
D14*
X71806761Y-151078380D02*
X71878190Y-151102190D01*
X71997238Y-151102190D01*
X72044857Y-151078380D01*
X72068666Y-151054571D01*
X72092476Y-151006952D01*
X72092476Y-150959333D01*
X72068666Y-150911714D01*
X72044857Y-150887904D01*
X71997238Y-150864095D01*
X71902000Y-150840285D01*
X71854380Y-150816476D01*
X71830571Y-150792666D01*
X71806761Y-150745047D01*
X71806761Y-150697428D01*
X71830571Y-150649809D01*
X71854380Y-150626000D01*
X71902000Y-150602190D01*
X72021047Y-150602190D01*
X72092476Y-150626000D01*
X72259142Y-150602190D02*
X72378190Y-151102190D01*
X72473428Y-150745047D01*
X72568666Y-151102190D01*
X72687714Y-150602190D01*
X72759142Y-151149809D02*
X73140095Y-151149809D01*
X73259142Y-150840285D02*
X73425809Y-150840285D01*
X73497238Y-151102190D02*
X73259142Y-151102190D01*
X73259142Y-150602190D01*
X73497238Y-150602190D01*
X73711523Y-151102190D02*
X73711523Y-150602190D01*
X73997238Y-151102190D01*
X73997238Y-150602190D01*
X74497238Y-151102190D02*
X74211523Y-151102190D01*
X74354380Y-151102190D02*
X74354380Y-150602190D01*
X74306761Y-150673619D01*
X74259142Y-150721238D01*
X74211523Y-150745047D01*
G04 #@! TO.C,D_LED1*
X84300190Y-98774095D02*
X83800190Y-98774095D01*
X83800190Y-98655047D01*
X83824000Y-98583619D01*
X83871619Y-98536000D01*
X83919238Y-98512190D01*
X84014476Y-98488380D01*
X84085904Y-98488380D01*
X84181142Y-98512190D01*
X84228761Y-98536000D01*
X84276380Y-98583619D01*
X84300190Y-98655047D01*
X84300190Y-98774095D01*
X84347809Y-98393142D02*
X84347809Y-98012190D01*
X84300190Y-97655047D02*
X84300190Y-97893142D01*
X83800190Y-97893142D01*
X84038285Y-97488380D02*
X84038285Y-97321714D01*
X84300190Y-97250285D02*
X84300190Y-97488380D01*
X83800190Y-97488380D01*
X83800190Y-97250285D01*
X84300190Y-97036000D02*
X83800190Y-97036000D01*
X83800190Y-96916952D01*
X83824000Y-96845523D01*
X83871619Y-96797904D01*
X83919238Y-96774095D01*
X84014476Y-96750285D01*
X84085904Y-96750285D01*
X84181142Y-96774095D01*
X84228761Y-96797904D01*
X84276380Y-96845523D01*
X84300190Y-96916952D01*
X84300190Y-97036000D01*
X84300190Y-96274095D02*
X84300190Y-96559809D01*
X84300190Y-96416952D02*
X83800190Y-96416952D01*
X83871619Y-96464571D01*
X83919238Y-96512190D01*
X83943047Y-96559809D01*
G04 #@! TO.C,U_NREG1*
X102088190Y-142529523D02*
X102492952Y-142529523D01*
X102540571Y-142505714D01*
X102564380Y-142481904D01*
X102588190Y-142434285D01*
X102588190Y-142339047D01*
X102564380Y-142291428D01*
X102540571Y-142267619D01*
X102492952Y-142243809D01*
X102088190Y-142243809D01*
X102635809Y-142124761D02*
X102635809Y-141743809D01*
X102588190Y-141624761D02*
X102088190Y-141624761D01*
X102588190Y-141339047D01*
X102088190Y-141339047D01*
X102588190Y-140815238D02*
X102350095Y-140981904D01*
X102588190Y-141100952D02*
X102088190Y-141100952D01*
X102088190Y-140910476D01*
X102112000Y-140862857D01*
X102135809Y-140839047D01*
X102183428Y-140815238D01*
X102254857Y-140815238D01*
X102302476Y-140839047D01*
X102326285Y-140862857D01*
X102350095Y-140910476D01*
X102350095Y-141100952D01*
X102326285Y-140600952D02*
X102326285Y-140434285D01*
X102588190Y-140362857D02*
X102588190Y-140600952D01*
X102088190Y-140600952D01*
X102088190Y-140362857D01*
X102112000Y-139886666D02*
X102088190Y-139934285D01*
X102088190Y-140005714D01*
X102112000Y-140077142D01*
X102159619Y-140124761D01*
X102207238Y-140148571D01*
X102302476Y-140172380D01*
X102373904Y-140172380D01*
X102469142Y-140148571D01*
X102516761Y-140124761D01*
X102564380Y-140077142D01*
X102588190Y-140005714D01*
X102588190Y-139958095D01*
X102564380Y-139886666D01*
X102540571Y-139862857D01*
X102373904Y-139862857D01*
X102373904Y-139958095D01*
X102588190Y-139386666D02*
X102588190Y-139672380D01*
X102588190Y-139529523D02*
X102088190Y-139529523D01*
X102159619Y-139577142D01*
X102207238Y-139624761D01*
X102231047Y-139672380D01*
G04 #@! TO.C,C_BP1*
X69838190Y-85014571D02*
X69814380Y-85038380D01*
X69742952Y-85062190D01*
X69695333Y-85062190D01*
X69623904Y-85038380D01*
X69576285Y-84990761D01*
X69552476Y-84943142D01*
X69528666Y-84847904D01*
X69528666Y-84776476D01*
X69552476Y-84681238D01*
X69576285Y-84633619D01*
X69623904Y-84586000D01*
X69695333Y-84562190D01*
X69742952Y-84562190D01*
X69814380Y-84586000D01*
X69838190Y-84609809D01*
X69933428Y-85109809D02*
X70314380Y-85109809D01*
X70600095Y-84800285D02*
X70671523Y-84824095D01*
X70695333Y-84847904D01*
X70719142Y-84895523D01*
X70719142Y-84966952D01*
X70695333Y-85014571D01*
X70671523Y-85038380D01*
X70623904Y-85062190D01*
X70433428Y-85062190D01*
X70433428Y-84562190D01*
X70600095Y-84562190D01*
X70647714Y-84586000D01*
X70671523Y-84609809D01*
X70695333Y-84657428D01*
X70695333Y-84705047D01*
X70671523Y-84752666D01*
X70647714Y-84776476D01*
X70600095Y-84800285D01*
X70433428Y-84800285D01*
X70933428Y-85062190D02*
X70933428Y-84562190D01*
X71123904Y-84562190D01*
X71171523Y-84586000D01*
X71195333Y-84609809D01*
X71219142Y-84657428D01*
X71219142Y-84728857D01*
X71195333Y-84776476D01*
X71171523Y-84800285D01*
X71123904Y-84824095D01*
X70933428Y-84824095D01*
X71695333Y-85062190D02*
X71409619Y-85062190D01*
X71552476Y-85062190D02*
X71552476Y-84562190D01*
X71504857Y-84633619D01*
X71457238Y-84681238D01*
X71409619Y-84705047D01*
G04 #@! TO.C,C_BP3*
X76378571Y-104278809D02*
X76402380Y-104302619D01*
X76426190Y-104374047D01*
X76426190Y-104421666D01*
X76402380Y-104493095D01*
X76354761Y-104540714D01*
X76307142Y-104564523D01*
X76211904Y-104588333D01*
X76140476Y-104588333D01*
X76045238Y-104564523D01*
X75997619Y-104540714D01*
X75950000Y-104493095D01*
X75926190Y-104421666D01*
X75926190Y-104374047D01*
X75950000Y-104302619D01*
X75973809Y-104278809D01*
X76473809Y-104183571D02*
X76473809Y-103802619D01*
X76164285Y-103516904D02*
X76188095Y-103445476D01*
X76211904Y-103421666D01*
X76259523Y-103397857D01*
X76330952Y-103397857D01*
X76378571Y-103421666D01*
X76402380Y-103445476D01*
X76426190Y-103493095D01*
X76426190Y-103683571D01*
X75926190Y-103683571D01*
X75926190Y-103516904D01*
X75950000Y-103469285D01*
X75973809Y-103445476D01*
X76021428Y-103421666D01*
X76069047Y-103421666D01*
X76116666Y-103445476D01*
X76140476Y-103469285D01*
X76164285Y-103516904D01*
X76164285Y-103683571D01*
X76426190Y-103183571D02*
X75926190Y-103183571D01*
X75926190Y-102993095D01*
X75950000Y-102945476D01*
X75973809Y-102921666D01*
X76021428Y-102897857D01*
X76092857Y-102897857D01*
X76140476Y-102921666D01*
X76164285Y-102945476D01*
X76188095Y-102993095D01*
X76188095Y-103183571D01*
X75926190Y-102731190D02*
X75926190Y-102421666D01*
X76116666Y-102588333D01*
X76116666Y-102516904D01*
X76140476Y-102469285D01*
X76164285Y-102445476D01*
X76211904Y-102421666D01*
X76330952Y-102421666D01*
X76378571Y-102445476D01*
X76402380Y-102469285D01*
X76426190Y-102516904D01*
X76426190Y-102659761D01*
X76402380Y-102707380D01*
X76378571Y-102731190D01*
G04 #@! TO.C,C_BP4*
X83236571Y-117486809D02*
X83260380Y-117510619D01*
X83284190Y-117582047D01*
X83284190Y-117629666D01*
X83260380Y-117701095D01*
X83212761Y-117748714D01*
X83165142Y-117772523D01*
X83069904Y-117796333D01*
X82998476Y-117796333D01*
X82903238Y-117772523D01*
X82855619Y-117748714D01*
X82808000Y-117701095D01*
X82784190Y-117629666D01*
X82784190Y-117582047D01*
X82808000Y-117510619D01*
X82831809Y-117486809D01*
X83331809Y-117391571D02*
X83331809Y-117010619D01*
X83022285Y-116724904D02*
X83046095Y-116653476D01*
X83069904Y-116629666D01*
X83117523Y-116605857D01*
X83188952Y-116605857D01*
X83236571Y-116629666D01*
X83260380Y-116653476D01*
X83284190Y-116701095D01*
X83284190Y-116891571D01*
X82784190Y-116891571D01*
X82784190Y-116724904D01*
X82808000Y-116677285D01*
X82831809Y-116653476D01*
X82879428Y-116629666D01*
X82927047Y-116629666D01*
X82974666Y-116653476D01*
X82998476Y-116677285D01*
X83022285Y-116724904D01*
X83022285Y-116891571D01*
X83284190Y-116391571D02*
X82784190Y-116391571D01*
X82784190Y-116201095D01*
X82808000Y-116153476D01*
X82831809Y-116129666D01*
X82879428Y-116105857D01*
X82950857Y-116105857D01*
X82998476Y-116129666D01*
X83022285Y-116153476D01*
X83046095Y-116201095D01*
X83046095Y-116391571D01*
X82950857Y-115677285D02*
X83284190Y-115677285D01*
X82760380Y-115796333D02*
X83117523Y-115915380D01*
X83117523Y-115605857D01*
G04 #@! TO.C,C_BP5*
X55868190Y-135560571D02*
X55844380Y-135584380D01*
X55772952Y-135608190D01*
X55725333Y-135608190D01*
X55653904Y-135584380D01*
X55606285Y-135536761D01*
X55582476Y-135489142D01*
X55558666Y-135393904D01*
X55558666Y-135322476D01*
X55582476Y-135227238D01*
X55606285Y-135179619D01*
X55653904Y-135132000D01*
X55725333Y-135108190D01*
X55772952Y-135108190D01*
X55844380Y-135132000D01*
X55868190Y-135155809D01*
X55963428Y-135655809D02*
X56344380Y-135655809D01*
X56630095Y-135346285D02*
X56701523Y-135370095D01*
X56725333Y-135393904D01*
X56749142Y-135441523D01*
X56749142Y-135512952D01*
X56725333Y-135560571D01*
X56701523Y-135584380D01*
X56653904Y-135608190D01*
X56463428Y-135608190D01*
X56463428Y-135108190D01*
X56630095Y-135108190D01*
X56677714Y-135132000D01*
X56701523Y-135155809D01*
X56725333Y-135203428D01*
X56725333Y-135251047D01*
X56701523Y-135298666D01*
X56677714Y-135322476D01*
X56630095Y-135346285D01*
X56463428Y-135346285D01*
X56963428Y-135608190D02*
X56963428Y-135108190D01*
X57153904Y-135108190D01*
X57201523Y-135132000D01*
X57225333Y-135155809D01*
X57249142Y-135203428D01*
X57249142Y-135274857D01*
X57225333Y-135322476D01*
X57201523Y-135346285D01*
X57153904Y-135370095D01*
X56963428Y-135370095D01*
X57701523Y-135108190D02*
X57463428Y-135108190D01*
X57439619Y-135346285D01*
X57463428Y-135322476D01*
X57511047Y-135298666D01*
X57630095Y-135298666D01*
X57677714Y-135322476D01*
X57701523Y-135346285D01*
X57725333Y-135393904D01*
X57725333Y-135512952D01*
X57701523Y-135560571D01*
X57677714Y-135584380D01*
X57630095Y-135608190D01*
X57511047Y-135608190D01*
X57463428Y-135584380D01*
X57439619Y-135560571D01*
G04 #@! TO.C,P_DEPTH1*
X103858190Y-78192095D02*
X103358190Y-78192095D01*
X103358190Y-78001619D01*
X103382000Y-77954000D01*
X103405809Y-77930190D01*
X103453428Y-77906380D01*
X103524857Y-77906380D01*
X103572476Y-77930190D01*
X103596285Y-77954000D01*
X103620095Y-78001619D01*
X103620095Y-78192095D01*
X103905809Y-77811142D02*
X103905809Y-77430190D01*
X103858190Y-77311142D02*
X103358190Y-77311142D01*
X103358190Y-77192095D01*
X103382000Y-77120666D01*
X103429619Y-77073047D01*
X103477238Y-77049238D01*
X103572476Y-77025428D01*
X103643904Y-77025428D01*
X103739142Y-77049238D01*
X103786761Y-77073047D01*
X103834380Y-77120666D01*
X103858190Y-77192095D01*
X103858190Y-77311142D01*
X103596285Y-76811142D02*
X103596285Y-76644476D01*
X103858190Y-76573047D02*
X103858190Y-76811142D01*
X103358190Y-76811142D01*
X103358190Y-76573047D01*
X103858190Y-76358761D02*
X103358190Y-76358761D01*
X103358190Y-76168285D01*
X103382000Y-76120666D01*
X103405809Y-76096857D01*
X103453428Y-76073047D01*
X103524857Y-76073047D01*
X103572476Y-76096857D01*
X103596285Y-76120666D01*
X103620095Y-76168285D01*
X103620095Y-76358761D01*
X103358190Y-75930190D02*
X103358190Y-75644476D01*
X103858190Y-75787333D02*
X103358190Y-75787333D01*
X103858190Y-75477809D02*
X103358190Y-75477809D01*
X103596285Y-75477809D02*
X103596285Y-75192095D01*
X103858190Y-75192095D02*
X103358190Y-75192095D01*
X103858190Y-74692095D02*
X103858190Y-74977809D01*
X103858190Y-74834952D02*
X103358190Y-74834952D01*
X103429619Y-74882571D01*
X103477238Y-74930190D01*
X103501047Y-74977809D01*
G04 #@! TO.C,P_VOL1*
X103604190Y-105124095D02*
X103104190Y-105124095D01*
X103104190Y-104933619D01*
X103128000Y-104886000D01*
X103151809Y-104862190D01*
X103199428Y-104838380D01*
X103270857Y-104838380D01*
X103318476Y-104862190D01*
X103342285Y-104886000D01*
X103366095Y-104933619D01*
X103366095Y-105124095D01*
X103651809Y-104743142D02*
X103651809Y-104362190D01*
X103104190Y-104314571D02*
X103604190Y-104147904D01*
X103104190Y-103981238D01*
X103104190Y-103719333D02*
X103104190Y-103624095D01*
X103128000Y-103576476D01*
X103175619Y-103528857D01*
X103270857Y-103505047D01*
X103437523Y-103505047D01*
X103532761Y-103528857D01*
X103580380Y-103576476D01*
X103604190Y-103624095D01*
X103604190Y-103719333D01*
X103580380Y-103766952D01*
X103532761Y-103814571D01*
X103437523Y-103838380D01*
X103270857Y-103838380D01*
X103175619Y-103814571D01*
X103128000Y-103766952D01*
X103104190Y-103719333D01*
X103604190Y-103052666D02*
X103604190Y-103290761D01*
X103104190Y-103290761D01*
X103604190Y-102624095D02*
X103604190Y-102909809D01*
X103604190Y-102766952D02*
X103104190Y-102766952D01*
X103175619Y-102814571D01*
X103223238Y-102862190D01*
X103247047Y-102909809D01*
G04 #@! TO.C,R1*
X75024466Y-134338190D02*
X74857800Y-134100095D01*
X74738752Y-134338190D02*
X74738752Y-133838190D01*
X74929228Y-133838190D01*
X74976847Y-133862000D01*
X75000657Y-133885809D01*
X75024466Y-133933428D01*
X75024466Y-134004857D01*
X75000657Y-134052476D01*
X74976847Y-134076285D01*
X74929228Y-134100095D01*
X74738752Y-134100095D01*
X75500657Y-134338190D02*
X75214942Y-134338190D01*
X75357800Y-134338190D02*
X75357800Y-133838190D01*
X75310180Y-133909619D01*
X75262561Y-133957238D01*
X75214942Y-133981047D01*
G04 #@! TO.C,R2*
X83482666Y-134338190D02*
X83316000Y-134100095D01*
X83196952Y-134338190D02*
X83196952Y-133838190D01*
X83387428Y-133838190D01*
X83435047Y-133862000D01*
X83458857Y-133885809D01*
X83482666Y-133933428D01*
X83482666Y-134004857D01*
X83458857Y-134052476D01*
X83435047Y-134076285D01*
X83387428Y-134100095D01*
X83196952Y-134100095D01*
X83673142Y-133885809D02*
X83696952Y-133862000D01*
X83744571Y-133838190D01*
X83863619Y-133838190D01*
X83911238Y-133862000D01*
X83935047Y-133885809D01*
X83958857Y-133933428D01*
X83958857Y-133981047D01*
X83935047Y-134052476D01*
X83649333Y-134338190D01*
X83958857Y-134338190D01*
G04 #@! TO.C,R3*
X103548666Y-132306190D02*
X103382000Y-132068095D01*
X103262952Y-132306190D02*
X103262952Y-131806190D01*
X103453428Y-131806190D01*
X103501047Y-131830000D01*
X103524857Y-131853809D01*
X103548666Y-131901428D01*
X103548666Y-131972857D01*
X103524857Y-132020476D01*
X103501047Y-132044285D01*
X103453428Y-132068095D01*
X103262952Y-132068095D01*
X103715333Y-131806190D02*
X104024857Y-131806190D01*
X103858190Y-131996666D01*
X103929619Y-131996666D01*
X103977238Y-132020476D01*
X104001047Y-132044285D01*
X104024857Y-132091904D01*
X104024857Y-132210952D01*
X104001047Y-132258571D01*
X103977238Y-132282380D01*
X103929619Y-132306190D01*
X103786761Y-132306190D01*
X103739142Y-132282380D01*
X103715333Y-132258571D01*
G04 #@! TO.C,R4*
X93896666Y-132306190D02*
X93730000Y-132068095D01*
X93610952Y-132306190D02*
X93610952Y-131806190D01*
X93801428Y-131806190D01*
X93849047Y-131830000D01*
X93872857Y-131853809D01*
X93896666Y-131901428D01*
X93896666Y-131972857D01*
X93872857Y-132020476D01*
X93849047Y-132044285D01*
X93801428Y-132068095D01*
X93610952Y-132068095D01*
X94325238Y-131972857D02*
X94325238Y-132306190D01*
X94206190Y-131782380D02*
X94087142Y-132139523D01*
X94396666Y-132139523D01*
G04 #@! TO.C,R5*
X98976666Y-132306190D02*
X98810000Y-132068095D01*
X98690952Y-132306190D02*
X98690952Y-131806190D01*
X98881428Y-131806190D01*
X98929047Y-131830000D01*
X98952857Y-131853809D01*
X98976666Y-131901428D01*
X98976666Y-131972857D01*
X98952857Y-132020476D01*
X98929047Y-132044285D01*
X98881428Y-132068095D01*
X98690952Y-132068095D01*
X99429047Y-131806190D02*
X99190952Y-131806190D01*
X99167142Y-132044285D01*
X99190952Y-132020476D01*
X99238571Y-131996666D01*
X99357619Y-131996666D01*
X99405238Y-132020476D01*
X99429047Y-132044285D01*
X99452857Y-132091904D01*
X99452857Y-132210952D01*
X99429047Y-132258571D01*
X99405238Y-132282380D01*
X99357619Y-132306190D01*
X99238571Y-132306190D01*
X99190952Y-132282380D01*
X99167142Y-132258571D01*
G04 #@! TO.C,U_BUF1*
X75926190Y-111533619D02*
X76330952Y-111533619D01*
X76378571Y-111509809D01*
X76402380Y-111486000D01*
X76426190Y-111438380D01*
X76426190Y-111343142D01*
X76402380Y-111295523D01*
X76378571Y-111271714D01*
X76330952Y-111247904D01*
X75926190Y-111247904D01*
X76473809Y-111128857D02*
X76473809Y-110747904D01*
X76164285Y-110462190D02*
X76188095Y-110390761D01*
X76211904Y-110366952D01*
X76259523Y-110343142D01*
X76330952Y-110343142D01*
X76378571Y-110366952D01*
X76402380Y-110390761D01*
X76426190Y-110438380D01*
X76426190Y-110628857D01*
X75926190Y-110628857D01*
X75926190Y-110462190D01*
X75950000Y-110414571D01*
X75973809Y-110390761D01*
X76021428Y-110366952D01*
X76069047Y-110366952D01*
X76116666Y-110390761D01*
X76140476Y-110414571D01*
X76164285Y-110462190D01*
X76164285Y-110628857D01*
X75926190Y-110128857D02*
X76330952Y-110128857D01*
X76378571Y-110105047D01*
X76402380Y-110081238D01*
X76426190Y-110033619D01*
X76426190Y-109938380D01*
X76402380Y-109890761D01*
X76378571Y-109866952D01*
X76330952Y-109843142D01*
X75926190Y-109843142D01*
X76164285Y-109438380D02*
X76164285Y-109605047D01*
X76426190Y-109605047D02*
X75926190Y-109605047D01*
X75926190Y-109366952D01*
X76426190Y-108914571D02*
X76426190Y-109200285D01*
X76426190Y-109057428D02*
X75926190Y-109057428D01*
X75997619Y-109105047D01*
X76045238Y-109152666D01*
X76069047Y-109200285D01*
G04 #@! TO.C,U_PREG1*
X75164190Y-142517619D02*
X75568952Y-142517619D01*
X75616571Y-142493809D01*
X75640380Y-142470000D01*
X75664190Y-142422380D01*
X75664190Y-142327142D01*
X75640380Y-142279523D01*
X75616571Y-142255714D01*
X75568952Y-142231904D01*
X75164190Y-142231904D01*
X75711809Y-142112857D02*
X75711809Y-141731904D01*
X75664190Y-141612857D02*
X75164190Y-141612857D01*
X75164190Y-141422380D01*
X75188000Y-141374761D01*
X75211809Y-141350952D01*
X75259428Y-141327142D01*
X75330857Y-141327142D01*
X75378476Y-141350952D01*
X75402285Y-141374761D01*
X75426095Y-141422380D01*
X75426095Y-141612857D01*
X75664190Y-140827142D02*
X75426095Y-140993809D01*
X75664190Y-141112857D02*
X75164190Y-141112857D01*
X75164190Y-140922380D01*
X75188000Y-140874761D01*
X75211809Y-140850952D01*
X75259428Y-140827142D01*
X75330857Y-140827142D01*
X75378476Y-140850952D01*
X75402285Y-140874761D01*
X75426095Y-140922380D01*
X75426095Y-141112857D01*
X75402285Y-140612857D02*
X75402285Y-140446190D01*
X75664190Y-140374761D02*
X75664190Y-140612857D01*
X75164190Y-140612857D01*
X75164190Y-140374761D01*
X75188000Y-139898571D02*
X75164190Y-139946190D01*
X75164190Y-140017619D01*
X75188000Y-140089047D01*
X75235619Y-140136666D01*
X75283238Y-140160476D01*
X75378476Y-140184285D01*
X75449904Y-140184285D01*
X75545142Y-140160476D01*
X75592761Y-140136666D01*
X75640380Y-140089047D01*
X75664190Y-140017619D01*
X75664190Y-139970000D01*
X75640380Y-139898571D01*
X75616571Y-139874761D01*
X75449904Y-139874761D01*
X75449904Y-139970000D01*
X75664190Y-139398571D02*
X75664190Y-139684285D01*
X75664190Y-139541428D02*
X75164190Y-139541428D01*
X75235619Y-139589047D01*
X75283238Y-139636666D01*
X75307047Y-139684285D01*
G04 #@! TO.C,CP_INV1*
X61797428Y-142898952D02*
X61773619Y-142875142D01*
X61749809Y-142803714D01*
X61749809Y-142756095D01*
X61773619Y-142684666D01*
X61821238Y-142637047D01*
X61868857Y-142613238D01*
X61964095Y-142589428D01*
X62035523Y-142589428D01*
X62130761Y-142613238D01*
X62178380Y-142637047D01*
X62226000Y-142684666D01*
X62249809Y-142756095D01*
X62249809Y-142803714D01*
X62226000Y-142875142D01*
X62202190Y-142898952D01*
X61749809Y-143113238D02*
X62249809Y-143113238D01*
X62249809Y-143303714D01*
X62226000Y-143351333D01*
X62202190Y-143375142D01*
X62154571Y-143398952D01*
X62083142Y-143398952D01*
X62035523Y-143375142D01*
X62011714Y-143351333D01*
X61987904Y-143303714D01*
X61987904Y-143113238D01*
X61702190Y-143494190D02*
X61702190Y-143875142D01*
X61749809Y-143994190D02*
X62249809Y-143994190D01*
X61749809Y-144232285D02*
X62249809Y-144232285D01*
X61749809Y-144518000D01*
X62249809Y-144518000D01*
X62249809Y-144684666D02*
X61749809Y-144851333D01*
X62249809Y-145018000D01*
X61749809Y-145446571D02*
X61749809Y-145160857D01*
X61749809Y-145303714D02*
X62249809Y-145303714D01*
X62178380Y-145256095D01*
X62130761Y-145208476D01*
X62106952Y-145160857D01*
G04 #@! TO.C,CP_INV2*
X71298571Y-145137047D02*
X71322380Y-145160857D01*
X71346190Y-145232285D01*
X71346190Y-145279904D01*
X71322380Y-145351333D01*
X71274761Y-145398952D01*
X71227142Y-145422761D01*
X71131904Y-145446571D01*
X71060476Y-145446571D01*
X70965238Y-145422761D01*
X70917619Y-145398952D01*
X70870000Y-145351333D01*
X70846190Y-145279904D01*
X70846190Y-145232285D01*
X70870000Y-145160857D01*
X70893809Y-145137047D01*
X71346190Y-144922761D02*
X70846190Y-144922761D01*
X70846190Y-144732285D01*
X70870000Y-144684666D01*
X70893809Y-144660857D01*
X70941428Y-144637047D01*
X71012857Y-144637047D01*
X71060476Y-144660857D01*
X71084285Y-144684666D01*
X71108095Y-144732285D01*
X71108095Y-144922761D01*
X71393809Y-144541809D02*
X71393809Y-144160857D01*
X71346190Y-144041809D02*
X70846190Y-144041809D01*
X71346190Y-143803714D02*
X70846190Y-143803714D01*
X71346190Y-143518000D01*
X70846190Y-143518000D01*
X70846190Y-143351333D02*
X71346190Y-143184666D01*
X70846190Y-143018000D01*
X70893809Y-142875142D02*
X70870000Y-142851333D01*
X70846190Y-142803714D01*
X70846190Y-142684666D01*
X70870000Y-142637047D01*
X70893809Y-142613238D01*
X70941428Y-142589428D01*
X70989047Y-142589428D01*
X71060476Y-142613238D01*
X71346190Y-142898952D01*
X71346190Y-142589428D01*
G04 #@! TO.C,C_OSC2*
X72822571Y-93987809D02*
X72846380Y-94011619D01*
X72870190Y-94083047D01*
X72870190Y-94130666D01*
X72846380Y-94202095D01*
X72798761Y-94249714D01*
X72751142Y-94273523D01*
X72655904Y-94297333D01*
X72584476Y-94297333D01*
X72489238Y-94273523D01*
X72441619Y-94249714D01*
X72394000Y-94202095D01*
X72370190Y-94130666D01*
X72370190Y-94083047D01*
X72394000Y-94011619D01*
X72417809Y-93987809D01*
X72917809Y-93892571D02*
X72917809Y-93511619D01*
X72370190Y-93297333D02*
X72370190Y-93202095D01*
X72394000Y-93154476D01*
X72441619Y-93106857D01*
X72536857Y-93083047D01*
X72703523Y-93083047D01*
X72798761Y-93106857D01*
X72846380Y-93154476D01*
X72870190Y-93202095D01*
X72870190Y-93297333D01*
X72846380Y-93344952D01*
X72798761Y-93392571D01*
X72703523Y-93416380D01*
X72536857Y-93416380D01*
X72441619Y-93392571D01*
X72394000Y-93344952D01*
X72370190Y-93297333D01*
X72846380Y-92892571D02*
X72870190Y-92821142D01*
X72870190Y-92702095D01*
X72846380Y-92654476D01*
X72822571Y-92630666D01*
X72774952Y-92606857D01*
X72727333Y-92606857D01*
X72679714Y-92630666D01*
X72655904Y-92654476D01*
X72632095Y-92702095D01*
X72608285Y-92797333D01*
X72584476Y-92844952D01*
X72560666Y-92868761D01*
X72513047Y-92892571D01*
X72465428Y-92892571D01*
X72417809Y-92868761D01*
X72394000Y-92844952D01*
X72370190Y-92797333D01*
X72370190Y-92678285D01*
X72394000Y-92606857D01*
X72822571Y-92106857D02*
X72846380Y-92130666D01*
X72870190Y-92202095D01*
X72870190Y-92249714D01*
X72846380Y-92321142D01*
X72798761Y-92368761D01*
X72751142Y-92392571D01*
X72655904Y-92416380D01*
X72584476Y-92416380D01*
X72489238Y-92392571D01*
X72441619Y-92368761D01*
X72394000Y-92321142D01*
X72370190Y-92249714D01*
X72370190Y-92202095D01*
X72394000Y-92130666D01*
X72417809Y-92106857D01*
X72417809Y-91916380D02*
X72394000Y-91892571D01*
X72370190Y-91844952D01*
X72370190Y-91725904D01*
X72394000Y-91678285D01*
X72417809Y-91654476D01*
X72465428Y-91630666D01*
X72513047Y-91630666D01*
X72584476Y-91654476D01*
X72870190Y-91940190D01*
X72870190Y-91630666D01*
G04 #@! TO.C,R_OSCOFF1*
X58737714Y-94968190D02*
X58571047Y-94730095D01*
X58452000Y-94968190D02*
X58452000Y-94468190D01*
X58642476Y-94468190D01*
X58690095Y-94492000D01*
X58713904Y-94515809D01*
X58737714Y-94563428D01*
X58737714Y-94634857D01*
X58713904Y-94682476D01*
X58690095Y-94706285D01*
X58642476Y-94730095D01*
X58452000Y-94730095D01*
X58832952Y-95015809D02*
X59213904Y-95015809D01*
X59428190Y-94468190D02*
X59523428Y-94468190D01*
X59571047Y-94492000D01*
X59618666Y-94539619D01*
X59642476Y-94634857D01*
X59642476Y-94801523D01*
X59618666Y-94896761D01*
X59571047Y-94944380D01*
X59523428Y-94968190D01*
X59428190Y-94968190D01*
X59380571Y-94944380D01*
X59332952Y-94896761D01*
X59309142Y-94801523D01*
X59309142Y-94634857D01*
X59332952Y-94539619D01*
X59380571Y-94492000D01*
X59428190Y-94468190D01*
X59832952Y-94944380D02*
X59904380Y-94968190D01*
X60023428Y-94968190D01*
X60071047Y-94944380D01*
X60094857Y-94920571D01*
X60118666Y-94872952D01*
X60118666Y-94825333D01*
X60094857Y-94777714D01*
X60071047Y-94753904D01*
X60023428Y-94730095D01*
X59928190Y-94706285D01*
X59880571Y-94682476D01*
X59856761Y-94658666D01*
X59832952Y-94611047D01*
X59832952Y-94563428D01*
X59856761Y-94515809D01*
X59880571Y-94492000D01*
X59928190Y-94468190D01*
X60047238Y-94468190D01*
X60118666Y-94492000D01*
X60618666Y-94920571D02*
X60594857Y-94944380D01*
X60523428Y-94968190D01*
X60475809Y-94968190D01*
X60404380Y-94944380D01*
X60356761Y-94896761D01*
X60332952Y-94849142D01*
X60309142Y-94753904D01*
X60309142Y-94682476D01*
X60332952Y-94587238D01*
X60356761Y-94539619D01*
X60404380Y-94492000D01*
X60475809Y-94468190D01*
X60523428Y-94468190D01*
X60594857Y-94492000D01*
X60618666Y-94515809D01*
X60928190Y-94468190D02*
X61023428Y-94468190D01*
X61071047Y-94492000D01*
X61118666Y-94539619D01*
X61142476Y-94634857D01*
X61142476Y-94801523D01*
X61118666Y-94896761D01*
X61071047Y-94944380D01*
X61023428Y-94968190D01*
X60928190Y-94968190D01*
X60880571Y-94944380D01*
X60832952Y-94896761D01*
X60809142Y-94801523D01*
X60809142Y-94634857D01*
X60832952Y-94539619D01*
X60880571Y-94492000D01*
X60928190Y-94468190D01*
X61523428Y-94706285D02*
X61356761Y-94706285D01*
X61356761Y-94968190D02*
X61356761Y-94468190D01*
X61594857Y-94468190D01*
X61952000Y-94706285D02*
X61785333Y-94706285D01*
X61785333Y-94968190D02*
X61785333Y-94468190D01*
X62023428Y-94468190D01*
X62475809Y-94968190D02*
X62190095Y-94968190D01*
X62332952Y-94968190D02*
X62332952Y-94468190D01*
X62285333Y-94539619D01*
X62237714Y-94587238D01*
X62190095Y-94611047D01*
G04 #@! TO.C,R_OSCON1*
X57126380Y-87984190D02*
X56959714Y-87746095D01*
X56840666Y-87984190D02*
X56840666Y-87484190D01*
X57031142Y-87484190D01*
X57078761Y-87508000D01*
X57102571Y-87531809D01*
X57126380Y-87579428D01*
X57126380Y-87650857D01*
X57102571Y-87698476D01*
X57078761Y-87722285D01*
X57031142Y-87746095D01*
X56840666Y-87746095D01*
X57221619Y-88031809D02*
X57602571Y-88031809D01*
X57816857Y-87484190D02*
X57912095Y-87484190D01*
X57959714Y-87508000D01*
X58007333Y-87555619D01*
X58031142Y-87650857D01*
X58031142Y-87817523D01*
X58007333Y-87912761D01*
X57959714Y-87960380D01*
X57912095Y-87984190D01*
X57816857Y-87984190D01*
X57769238Y-87960380D01*
X57721619Y-87912761D01*
X57697809Y-87817523D01*
X57697809Y-87650857D01*
X57721619Y-87555619D01*
X57769238Y-87508000D01*
X57816857Y-87484190D01*
X58221619Y-87960380D02*
X58293047Y-87984190D01*
X58412095Y-87984190D01*
X58459714Y-87960380D01*
X58483523Y-87936571D01*
X58507333Y-87888952D01*
X58507333Y-87841333D01*
X58483523Y-87793714D01*
X58459714Y-87769904D01*
X58412095Y-87746095D01*
X58316857Y-87722285D01*
X58269238Y-87698476D01*
X58245428Y-87674666D01*
X58221619Y-87627047D01*
X58221619Y-87579428D01*
X58245428Y-87531809D01*
X58269238Y-87508000D01*
X58316857Y-87484190D01*
X58435904Y-87484190D01*
X58507333Y-87508000D01*
X59007333Y-87936571D02*
X58983523Y-87960380D01*
X58912095Y-87984190D01*
X58864476Y-87984190D01*
X58793047Y-87960380D01*
X58745428Y-87912761D01*
X58721619Y-87865142D01*
X58697809Y-87769904D01*
X58697809Y-87698476D01*
X58721619Y-87603238D01*
X58745428Y-87555619D01*
X58793047Y-87508000D01*
X58864476Y-87484190D01*
X58912095Y-87484190D01*
X58983523Y-87508000D01*
X59007333Y-87531809D01*
X59316857Y-87484190D02*
X59412095Y-87484190D01*
X59459714Y-87508000D01*
X59507333Y-87555619D01*
X59531142Y-87650857D01*
X59531142Y-87817523D01*
X59507333Y-87912761D01*
X59459714Y-87960380D01*
X59412095Y-87984190D01*
X59316857Y-87984190D01*
X59269238Y-87960380D01*
X59221619Y-87912761D01*
X59197809Y-87817523D01*
X59197809Y-87650857D01*
X59221619Y-87555619D01*
X59269238Y-87508000D01*
X59316857Y-87484190D01*
X59745428Y-87984190D02*
X59745428Y-87484190D01*
X60031142Y-87984190D01*
X60031142Y-87484190D01*
X60531142Y-87984190D02*
X60245428Y-87984190D01*
X60388285Y-87984190D02*
X60388285Y-87484190D01*
X60340666Y-87555619D01*
X60293047Y-87603238D01*
X60245428Y-87627047D01*
G04 #@! TO.C,U_OSC1*
X63702571Y-86269190D02*
X63702571Y-86673952D01*
X63726380Y-86721571D01*
X63750190Y-86745380D01*
X63797809Y-86769190D01*
X63893047Y-86769190D01*
X63940666Y-86745380D01*
X63964476Y-86721571D01*
X63988285Y-86673952D01*
X63988285Y-86269190D01*
X64107333Y-86816809D02*
X64488285Y-86816809D01*
X64702571Y-86269190D02*
X64797809Y-86269190D01*
X64845428Y-86293000D01*
X64893047Y-86340619D01*
X64916857Y-86435857D01*
X64916857Y-86602523D01*
X64893047Y-86697761D01*
X64845428Y-86745380D01*
X64797809Y-86769190D01*
X64702571Y-86769190D01*
X64654952Y-86745380D01*
X64607333Y-86697761D01*
X64583523Y-86602523D01*
X64583523Y-86435857D01*
X64607333Y-86340619D01*
X64654952Y-86293000D01*
X64702571Y-86269190D01*
X65107333Y-86745380D02*
X65178761Y-86769190D01*
X65297809Y-86769190D01*
X65345428Y-86745380D01*
X65369238Y-86721571D01*
X65393047Y-86673952D01*
X65393047Y-86626333D01*
X65369238Y-86578714D01*
X65345428Y-86554904D01*
X65297809Y-86531095D01*
X65202571Y-86507285D01*
X65154952Y-86483476D01*
X65131142Y-86459666D01*
X65107333Y-86412047D01*
X65107333Y-86364428D01*
X65131142Y-86316809D01*
X65154952Y-86293000D01*
X65202571Y-86269190D01*
X65321619Y-86269190D01*
X65393047Y-86293000D01*
X65893047Y-86721571D02*
X65869238Y-86745380D01*
X65797809Y-86769190D01*
X65750190Y-86769190D01*
X65678761Y-86745380D01*
X65631142Y-86697761D01*
X65607333Y-86650142D01*
X65583523Y-86554904D01*
X65583523Y-86483476D01*
X65607333Y-86388238D01*
X65631142Y-86340619D01*
X65678761Y-86293000D01*
X65750190Y-86269190D01*
X65797809Y-86269190D01*
X65869238Y-86293000D01*
X65893047Y-86316809D01*
X66369238Y-86769190D02*
X66083523Y-86769190D01*
X66226380Y-86769190D02*
X66226380Y-86269190D01*
X66178761Y-86340619D01*
X66131142Y-86388238D01*
X66083523Y-86412047D01*
G04 #@! TO.C,P_OSCOFF1*
X57630190Y-107664000D02*
X57130190Y-107664000D01*
X57130190Y-107473523D01*
X57154000Y-107425904D01*
X57177809Y-107402095D01*
X57225428Y-107378285D01*
X57296857Y-107378285D01*
X57344476Y-107402095D01*
X57368285Y-107425904D01*
X57392095Y-107473523D01*
X57392095Y-107664000D01*
X57677809Y-107283047D02*
X57677809Y-106902095D01*
X57130190Y-106687809D02*
X57130190Y-106592571D01*
X57154000Y-106544952D01*
X57201619Y-106497333D01*
X57296857Y-106473523D01*
X57463523Y-106473523D01*
X57558761Y-106497333D01*
X57606380Y-106544952D01*
X57630190Y-106592571D01*
X57630190Y-106687809D01*
X57606380Y-106735428D01*
X57558761Y-106783047D01*
X57463523Y-106806857D01*
X57296857Y-106806857D01*
X57201619Y-106783047D01*
X57154000Y-106735428D01*
X57130190Y-106687809D01*
X57606380Y-106283047D02*
X57630190Y-106211619D01*
X57630190Y-106092571D01*
X57606380Y-106044952D01*
X57582571Y-106021142D01*
X57534952Y-105997333D01*
X57487333Y-105997333D01*
X57439714Y-106021142D01*
X57415904Y-106044952D01*
X57392095Y-106092571D01*
X57368285Y-106187809D01*
X57344476Y-106235428D01*
X57320666Y-106259238D01*
X57273047Y-106283047D01*
X57225428Y-106283047D01*
X57177809Y-106259238D01*
X57154000Y-106235428D01*
X57130190Y-106187809D01*
X57130190Y-106068761D01*
X57154000Y-105997333D01*
X57582571Y-105497333D02*
X57606380Y-105521142D01*
X57630190Y-105592571D01*
X57630190Y-105640190D01*
X57606380Y-105711619D01*
X57558761Y-105759238D01*
X57511142Y-105783047D01*
X57415904Y-105806857D01*
X57344476Y-105806857D01*
X57249238Y-105783047D01*
X57201619Y-105759238D01*
X57154000Y-105711619D01*
X57130190Y-105640190D01*
X57130190Y-105592571D01*
X57154000Y-105521142D01*
X57177809Y-105497333D01*
X57130190Y-105187809D02*
X57130190Y-105092571D01*
X57154000Y-105044952D01*
X57201619Y-104997333D01*
X57296857Y-104973523D01*
X57463523Y-104973523D01*
X57558761Y-104997333D01*
X57606380Y-105044952D01*
X57630190Y-105092571D01*
X57630190Y-105187809D01*
X57606380Y-105235428D01*
X57558761Y-105283047D01*
X57463523Y-105306857D01*
X57296857Y-105306857D01*
X57201619Y-105283047D01*
X57154000Y-105235428D01*
X57130190Y-105187809D01*
X57368285Y-104592571D02*
X57368285Y-104759238D01*
X57630190Y-104759238D02*
X57130190Y-104759238D01*
X57130190Y-104521142D01*
X57368285Y-104164000D02*
X57368285Y-104330666D01*
X57630190Y-104330666D02*
X57130190Y-104330666D01*
X57130190Y-104092571D01*
X57630190Y-103640190D02*
X57630190Y-103925904D01*
X57630190Y-103783047D02*
X57130190Y-103783047D01*
X57201619Y-103830666D01*
X57249238Y-103878285D01*
X57273047Y-103925904D01*
G04 #@! TO.C,P_OSCON1*
X58306190Y-79928333D02*
X57806190Y-79928333D01*
X57806190Y-79737857D01*
X57830000Y-79690238D01*
X57853809Y-79666428D01*
X57901428Y-79642619D01*
X57972857Y-79642619D01*
X58020476Y-79666428D01*
X58044285Y-79690238D01*
X58068095Y-79737857D01*
X58068095Y-79928333D01*
X58353809Y-79547380D02*
X58353809Y-79166428D01*
X57806190Y-78952142D02*
X57806190Y-78856904D01*
X57830000Y-78809285D01*
X57877619Y-78761666D01*
X57972857Y-78737857D01*
X58139523Y-78737857D01*
X58234761Y-78761666D01*
X58282380Y-78809285D01*
X58306190Y-78856904D01*
X58306190Y-78952142D01*
X58282380Y-78999761D01*
X58234761Y-79047380D01*
X58139523Y-79071190D01*
X57972857Y-79071190D01*
X57877619Y-79047380D01*
X57830000Y-78999761D01*
X57806190Y-78952142D01*
X58282380Y-78547380D02*
X58306190Y-78475952D01*
X58306190Y-78356904D01*
X58282380Y-78309285D01*
X58258571Y-78285476D01*
X58210952Y-78261666D01*
X58163333Y-78261666D01*
X58115714Y-78285476D01*
X58091904Y-78309285D01*
X58068095Y-78356904D01*
X58044285Y-78452142D01*
X58020476Y-78499761D01*
X57996666Y-78523571D01*
X57949047Y-78547380D01*
X57901428Y-78547380D01*
X57853809Y-78523571D01*
X57830000Y-78499761D01*
X57806190Y-78452142D01*
X57806190Y-78333095D01*
X57830000Y-78261666D01*
X58258571Y-77761666D02*
X58282380Y-77785476D01*
X58306190Y-77856904D01*
X58306190Y-77904523D01*
X58282380Y-77975952D01*
X58234761Y-78023571D01*
X58187142Y-78047380D01*
X58091904Y-78071190D01*
X58020476Y-78071190D01*
X57925238Y-78047380D01*
X57877619Y-78023571D01*
X57830000Y-77975952D01*
X57806190Y-77904523D01*
X57806190Y-77856904D01*
X57830000Y-77785476D01*
X57853809Y-77761666D01*
X57806190Y-77452142D02*
X57806190Y-77356904D01*
X57830000Y-77309285D01*
X57877619Y-77261666D01*
X57972857Y-77237857D01*
X58139523Y-77237857D01*
X58234761Y-77261666D01*
X58282380Y-77309285D01*
X58306190Y-77356904D01*
X58306190Y-77452142D01*
X58282380Y-77499761D01*
X58234761Y-77547380D01*
X58139523Y-77571190D01*
X57972857Y-77571190D01*
X57877619Y-77547380D01*
X57830000Y-77499761D01*
X57806190Y-77452142D01*
X58306190Y-77023571D02*
X57806190Y-77023571D01*
X58306190Y-76737857D01*
X57806190Y-76737857D01*
X58306190Y-76237857D02*
X58306190Y-76523571D01*
X58306190Y-76380714D02*
X57806190Y-76380714D01*
X57877619Y-76428333D01*
X57925238Y-76475952D01*
X57949047Y-76523571D01*
G04 #@! TO.C,U_INV1*
X61317333Y-135037190D02*
X61317333Y-135441952D01*
X61341142Y-135489571D01*
X61364952Y-135513380D01*
X61412571Y-135537190D01*
X61507809Y-135537190D01*
X61555428Y-135513380D01*
X61579238Y-135489571D01*
X61603047Y-135441952D01*
X61603047Y-135037190D01*
X61722095Y-135584809D02*
X62103047Y-135584809D01*
X62222095Y-135537190D02*
X62222095Y-135037190D01*
X62460190Y-135537190D02*
X62460190Y-135037190D01*
X62745904Y-135537190D01*
X62745904Y-135037190D01*
X62912571Y-135037190D02*
X63079238Y-135537190D01*
X63245904Y-135037190D01*
X63674476Y-135537190D02*
X63388761Y-135537190D01*
X63531619Y-135537190D02*
X63531619Y-135037190D01*
X63484000Y-135108619D01*
X63436380Y-135156238D01*
X63388761Y-135180047D01*
G04 #@! TO.C,U_OPTO1*
X79109285Y-71735190D02*
X79109285Y-72139952D01*
X79133095Y-72187571D01*
X79156904Y-72211380D01*
X79204523Y-72235190D01*
X79299761Y-72235190D01*
X79347380Y-72211380D01*
X79371190Y-72187571D01*
X79395000Y-72139952D01*
X79395000Y-71735190D01*
X79514047Y-72282809D02*
X79895000Y-72282809D01*
X80109285Y-71735190D02*
X80204523Y-71735190D01*
X80252142Y-71759000D01*
X80299761Y-71806619D01*
X80323571Y-71901857D01*
X80323571Y-72068523D01*
X80299761Y-72163761D01*
X80252142Y-72211380D01*
X80204523Y-72235190D01*
X80109285Y-72235190D01*
X80061666Y-72211380D01*
X80014047Y-72163761D01*
X79990238Y-72068523D01*
X79990238Y-71901857D01*
X80014047Y-71806619D01*
X80061666Y-71759000D01*
X80109285Y-71735190D01*
X80537857Y-72235190D02*
X80537857Y-71735190D01*
X80728333Y-71735190D01*
X80775952Y-71759000D01*
X80799761Y-71782809D01*
X80823571Y-71830428D01*
X80823571Y-71901857D01*
X80799761Y-71949476D01*
X80775952Y-71973285D01*
X80728333Y-71997095D01*
X80537857Y-71997095D01*
X80966428Y-71735190D02*
X81252142Y-71735190D01*
X81109285Y-72235190D02*
X81109285Y-71735190D01*
X81514047Y-71735190D02*
X81609285Y-71735190D01*
X81656904Y-71759000D01*
X81704523Y-71806619D01*
X81728333Y-71901857D01*
X81728333Y-72068523D01*
X81704523Y-72163761D01*
X81656904Y-72211380D01*
X81609285Y-72235190D01*
X81514047Y-72235190D01*
X81466428Y-72211380D01*
X81418809Y-72163761D01*
X81395000Y-72068523D01*
X81395000Y-71901857D01*
X81418809Y-71806619D01*
X81466428Y-71759000D01*
X81514047Y-71735190D01*
X82204523Y-72235190D02*
X81918809Y-72235190D01*
X82061666Y-72235190D02*
X82061666Y-71735190D01*
X82014047Y-71806619D01*
X81966428Y-71854238D01*
X81918809Y-71878047D01*
G04 #@! TO.C,CP_FAST1*
X82693047Y-88824571D02*
X82669238Y-88848380D01*
X82597809Y-88872190D01*
X82550190Y-88872190D01*
X82478761Y-88848380D01*
X82431142Y-88800761D01*
X82407333Y-88753142D01*
X82383523Y-88657904D01*
X82383523Y-88586476D01*
X82407333Y-88491238D01*
X82431142Y-88443619D01*
X82478761Y-88396000D01*
X82550190Y-88372190D01*
X82597809Y-88372190D01*
X82669238Y-88396000D01*
X82693047Y-88419809D01*
X82907333Y-88872190D02*
X82907333Y-88372190D01*
X83097809Y-88372190D01*
X83145428Y-88396000D01*
X83169238Y-88419809D01*
X83193047Y-88467428D01*
X83193047Y-88538857D01*
X83169238Y-88586476D01*
X83145428Y-88610285D01*
X83097809Y-88634095D01*
X82907333Y-88634095D01*
X83288285Y-88919809D02*
X83669238Y-88919809D01*
X83954952Y-88610285D02*
X83788285Y-88610285D01*
X83788285Y-88872190D02*
X83788285Y-88372190D01*
X84026380Y-88372190D01*
X84193047Y-88729333D02*
X84431142Y-88729333D01*
X84145428Y-88872190D02*
X84312095Y-88372190D01*
X84478761Y-88872190D01*
X84621619Y-88848380D02*
X84693047Y-88872190D01*
X84812095Y-88872190D01*
X84859714Y-88848380D01*
X84883523Y-88824571D01*
X84907333Y-88776952D01*
X84907333Y-88729333D01*
X84883523Y-88681714D01*
X84859714Y-88657904D01*
X84812095Y-88634095D01*
X84716857Y-88610285D01*
X84669238Y-88586476D01*
X84645428Y-88562666D01*
X84621619Y-88515047D01*
X84621619Y-88467428D01*
X84645428Y-88419809D01*
X84669238Y-88396000D01*
X84716857Y-88372190D01*
X84835904Y-88372190D01*
X84907333Y-88396000D01*
X85050190Y-88372190D02*
X85335904Y-88372190D01*
X85193047Y-88872190D02*
X85193047Y-88372190D01*
X85764476Y-88872190D02*
X85478761Y-88872190D01*
X85621619Y-88872190D02*
X85621619Y-88372190D01*
X85574000Y-88443619D01*
X85526380Y-88491238D01*
X85478761Y-88515047D01*
G04 #@! TO.C,CP_SLOW1*
X93484095Y-86792571D02*
X93460285Y-86816380D01*
X93388857Y-86840190D01*
X93341238Y-86840190D01*
X93269809Y-86816380D01*
X93222190Y-86768761D01*
X93198380Y-86721142D01*
X93174571Y-86625904D01*
X93174571Y-86554476D01*
X93198380Y-86459238D01*
X93222190Y-86411619D01*
X93269809Y-86364000D01*
X93341238Y-86340190D01*
X93388857Y-86340190D01*
X93460285Y-86364000D01*
X93484095Y-86387809D01*
X93698380Y-86840190D02*
X93698380Y-86340190D01*
X93888857Y-86340190D01*
X93936476Y-86364000D01*
X93960285Y-86387809D01*
X93984095Y-86435428D01*
X93984095Y-86506857D01*
X93960285Y-86554476D01*
X93936476Y-86578285D01*
X93888857Y-86602095D01*
X93698380Y-86602095D01*
X94079333Y-86887809D02*
X94460285Y-86887809D01*
X94555523Y-86816380D02*
X94626952Y-86840190D01*
X94746000Y-86840190D01*
X94793619Y-86816380D01*
X94817428Y-86792571D01*
X94841238Y-86744952D01*
X94841238Y-86697333D01*
X94817428Y-86649714D01*
X94793619Y-86625904D01*
X94746000Y-86602095D01*
X94650761Y-86578285D01*
X94603142Y-86554476D01*
X94579333Y-86530666D01*
X94555523Y-86483047D01*
X94555523Y-86435428D01*
X94579333Y-86387809D01*
X94603142Y-86364000D01*
X94650761Y-86340190D01*
X94769809Y-86340190D01*
X94841238Y-86364000D01*
X95293619Y-86840190D02*
X95055523Y-86840190D01*
X95055523Y-86340190D01*
X95555523Y-86340190D02*
X95650761Y-86340190D01*
X95698380Y-86364000D01*
X95746000Y-86411619D01*
X95769809Y-86506857D01*
X95769809Y-86673523D01*
X95746000Y-86768761D01*
X95698380Y-86816380D01*
X95650761Y-86840190D01*
X95555523Y-86840190D01*
X95507904Y-86816380D01*
X95460285Y-86768761D01*
X95436476Y-86673523D01*
X95436476Y-86506857D01*
X95460285Y-86411619D01*
X95507904Y-86364000D01*
X95555523Y-86340190D01*
X95936476Y-86340190D02*
X96055523Y-86840190D01*
X96150761Y-86483047D01*
X96246000Y-86840190D01*
X96365047Y-86340190D01*
X96817428Y-86840190D02*
X96531714Y-86840190D01*
X96674571Y-86840190D02*
X96674571Y-86340190D01*
X96626952Y-86411619D01*
X96579333Y-86459238D01*
X96531714Y-86483047D01*
G04 #@! TO.C,SW_ATTACK1*
X78351333Y-82498380D02*
X78422761Y-82522190D01*
X78541809Y-82522190D01*
X78589428Y-82498380D01*
X78613238Y-82474571D01*
X78637047Y-82426952D01*
X78637047Y-82379333D01*
X78613238Y-82331714D01*
X78589428Y-82307904D01*
X78541809Y-82284095D01*
X78446571Y-82260285D01*
X78398952Y-82236476D01*
X78375142Y-82212666D01*
X78351333Y-82165047D01*
X78351333Y-82117428D01*
X78375142Y-82069809D01*
X78398952Y-82046000D01*
X78446571Y-82022190D01*
X78565619Y-82022190D01*
X78637047Y-82046000D01*
X78803714Y-82022190D02*
X78922761Y-82522190D01*
X79018000Y-82165047D01*
X79113238Y-82522190D01*
X79232285Y-82022190D01*
X79303714Y-82569809D02*
X79684666Y-82569809D01*
X79779904Y-82379333D02*
X80018000Y-82379333D01*
X79732285Y-82522190D02*
X79898952Y-82022190D01*
X80065619Y-82522190D01*
X80160857Y-82022190D02*
X80446571Y-82022190D01*
X80303714Y-82522190D02*
X80303714Y-82022190D01*
X80541809Y-82022190D02*
X80827523Y-82022190D01*
X80684666Y-82522190D02*
X80684666Y-82022190D01*
X80970380Y-82379333D02*
X81208476Y-82379333D01*
X80922761Y-82522190D02*
X81089428Y-82022190D01*
X81256095Y-82522190D01*
X81708476Y-82474571D02*
X81684666Y-82498380D01*
X81613238Y-82522190D01*
X81565619Y-82522190D01*
X81494190Y-82498380D01*
X81446571Y-82450761D01*
X81422761Y-82403142D01*
X81398952Y-82307904D01*
X81398952Y-82236476D01*
X81422761Y-82141238D01*
X81446571Y-82093619D01*
X81494190Y-82046000D01*
X81565619Y-82022190D01*
X81613238Y-82022190D01*
X81684666Y-82046000D01*
X81708476Y-82069809D01*
X81922761Y-82522190D02*
X81922761Y-82022190D01*
X82208476Y-82522190D02*
X81994190Y-82236476D01*
X82208476Y-82022190D02*
X81922761Y-82307904D01*
X82684666Y-82522190D02*
X82398952Y-82522190D01*
X82541809Y-82522190D02*
X82541809Y-82022190D01*
X82494190Y-82093619D01*
X82446571Y-82141238D01*
X82398952Y-82165047D01*
G04 #@! TO.C,C_BP2*
X72886190Y-85014571D02*
X72862380Y-85038380D01*
X72790952Y-85062190D01*
X72743333Y-85062190D01*
X72671904Y-85038380D01*
X72624285Y-84990761D01*
X72600476Y-84943142D01*
X72576666Y-84847904D01*
X72576666Y-84776476D01*
X72600476Y-84681238D01*
X72624285Y-84633619D01*
X72671904Y-84586000D01*
X72743333Y-84562190D01*
X72790952Y-84562190D01*
X72862380Y-84586000D01*
X72886190Y-84609809D01*
X72981428Y-85109809D02*
X73362380Y-85109809D01*
X73648095Y-84800285D02*
X73719523Y-84824095D01*
X73743333Y-84847904D01*
X73767142Y-84895523D01*
X73767142Y-84966952D01*
X73743333Y-85014571D01*
X73719523Y-85038380D01*
X73671904Y-85062190D01*
X73481428Y-85062190D01*
X73481428Y-84562190D01*
X73648095Y-84562190D01*
X73695714Y-84586000D01*
X73719523Y-84609809D01*
X73743333Y-84657428D01*
X73743333Y-84705047D01*
X73719523Y-84752666D01*
X73695714Y-84776476D01*
X73648095Y-84800285D01*
X73481428Y-84800285D01*
X73981428Y-85062190D02*
X73981428Y-84562190D01*
X74171904Y-84562190D01*
X74219523Y-84586000D01*
X74243333Y-84609809D01*
X74267142Y-84657428D01*
X74267142Y-84728857D01*
X74243333Y-84776476D01*
X74219523Y-84800285D01*
X74171904Y-84824095D01*
X73981428Y-84824095D01*
X74457619Y-84609809D02*
X74481428Y-84586000D01*
X74529047Y-84562190D01*
X74648095Y-84562190D01*
X74695714Y-84586000D01*
X74719523Y-84609809D01*
X74743333Y-84657428D01*
X74743333Y-84705047D01*
X74719523Y-84776476D01*
X74433809Y-85062190D01*
X74743333Y-85062190D01*
G04 #@! TD*
M02*
