G04 #@! TF.GenerationSoftware,KiCad,Pcbnew,(5.0.0-3-g5ebb6b6)*
G04 #@! TF.CreationDate,2018-11-15T11:28:39+00:00*
G04 #@! TF.ProjectId,555PWMTremolo,35353550574D5472656D6F6C6F2E6B69,rev?*
G04 #@! TF.SameCoordinates,Original*
G04 #@! TF.FileFunction,Soldermask,Bot*
G04 #@! TF.FilePolarity,Negative*
%FSLAX46Y46*%
G04 Gerber Fmt 4.6, Leading zero omitted, Abs format (unit mm)*
G04 Created by KiCad (PCBNEW (5.0.0-3-g5ebb6b6)) date Thursday, 15 November 2018 at 11:28:39*
%MOMM*%
%LPD*%
G01*
G04 APERTURE LIST*
%ADD10O,2.100000X2.100000*%
%ADD11R,2.100000X2.100000*%
%ADD12C,0.100000*%
%ADD13C,1.550000*%
%ADD14O,3.900000X3.400000*%
%ADD15R,2.200000X2.200000*%
%ADD16C,2.200000*%
%ADD17C,2.400000*%
%ADD18C,3.400000*%
%ADD19R,3.900000X3.900000*%
%ADD20C,3.900000*%
%ADD21C,4.400000*%
%ADD22C,0.254000*%
G04 APERTURE END LIST*
D10*
G04 #@! TO.C,J_AUXTOMAIN1*
X95504000Y-154940000D03*
X95504000Y-157480000D03*
X95504000Y-160020000D03*
X95504000Y-162560000D03*
X95504000Y-165100000D03*
X98044000Y-165100000D03*
X98044000Y-162560000D03*
X98044000Y-160020000D03*
X98044000Y-157480000D03*
D11*
X98044000Y-154940000D03*
G04 #@! TD*
D12*
G04 #@! TO.C,C_LPFOPT1*
G36*
X77431071Y-79499623D02*
X77463781Y-79504475D01*
X77495857Y-79512509D01*
X77526991Y-79523649D01*
X77556884Y-79537787D01*
X77585247Y-79554787D01*
X77611807Y-79574485D01*
X77636308Y-79596692D01*
X77658515Y-79621193D01*
X77678213Y-79647753D01*
X77695213Y-79676116D01*
X77709351Y-79706009D01*
X77720491Y-79737143D01*
X77728525Y-79769219D01*
X77733377Y-79801929D01*
X77735000Y-79834956D01*
X77735000Y-80711044D01*
X77733377Y-80744071D01*
X77728525Y-80776781D01*
X77720491Y-80808857D01*
X77709351Y-80839991D01*
X77695213Y-80869884D01*
X77678213Y-80898247D01*
X77658515Y-80924807D01*
X77636308Y-80949308D01*
X77611807Y-80971515D01*
X77585247Y-80991213D01*
X77556884Y-81008213D01*
X77526991Y-81022351D01*
X77495857Y-81033491D01*
X77463781Y-81041525D01*
X77431071Y-81046377D01*
X77398044Y-81048000D01*
X76271956Y-81048000D01*
X76238929Y-81046377D01*
X76206219Y-81041525D01*
X76174143Y-81033491D01*
X76143009Y-81022351D01*
X76113116Y-81008213D01*
X76084753Y-80991213D01*
X76058193Y-80971515D01*
X76033692Y-80949308D01*
X76011485Y-80924807D01*
X75991787Y-80898247D01*
X75974787Y-80869884D01*
X75960649Y-80839991D01*
X75949509Y-80808857D01*
X75941475Y-80776781D01*
X75936623Y-80744071D01*
X75935000Y-80711044D01*
X75935000Y-79834956D01*
X75936623Y-79801929D01*
X75941475Y-79769219D01*
X75949509Y-79737143D01*
X75960649Y-79706009D01*
X75974787Y-79676116D01*
X75991787Y-79647753D01*
X76011485Y-79621193D01*
X76033692Y-79596692D01*
X76058193Y-79574485D01*
X76084753Y-79554787D01*
X76113116Y-79537787D01*
X76143009Y-79523649D01*
X76174143Y-79512509D01*
X76206219Y-79504475D01*
X76238929Y-79499623D01*
X76271956Y-79498000D01*
X77398044Y-79498000D01*
X77431071Y-79499623D01*
X77431071Y-79499623D01*
G37*
D13*
X76835000Y-80273000D03*
D12*
G36*
X77431071Y-77449623D02*
X77463781Y-77454475D01*
X77495857Y-77462509D01*
X77526991Y-77473649D01*
X77556884Y-77487787D01*
X77585247Y-77504787D01*
X77611807Y-77524485D01*
X77636308Y-77546692D01*
X77658515Y-77571193D01*
X77678213Y-77597753D01*
X77695213Y-77626116D01*
X77709351Y-77656009D01*
X77720491Y-77687143D01*
X77728525Y-77719219D01*
X77733377Y-77751929D01*
X77735000Y-77784956D01*
X77735000Y-78661044D01*
X77733377Y-78694071D01*
X77728525Y-78726781D01*
X77720491Y-78758857D01*
X77709351Y-78789991D01*
X77695213Y-78819884D01*
X77678213Y-78848247D01*
X77658515Y-78874807D01*
X77636308Y-78899308D01*
X77611807Y-78921515D01*
X77585247Y-78941213D01*
X77556884Y-78958213D01*
X77526991Y-78972351D01*
X77495857Y-78983491D01*
X77463781Y-78991525D01*
X77431071Y-78996377D01*
X77398044Y-78998000D01*
X76271956Y-78998000D01*
X76238929Y-78996377D01*
X76206219Y-78991525D01*
X76174143Y-78983491D01*
X76143009Y-78972351D01*
X76113116Y-78958213D01*
X76084753Y-78941213D01*
X76058193Y-78921515D01*
X76033692Y-78899308D01*
X76011485Y-78874807D01*
X75991787Y-78848247D01*
X75974787Y-78819884D01*
X75960649Y-78789991D01*
X75949509Y-78758857D01*
X75941475Y-78726781D01*
X75936623Y-78694071D01*
X75935000Y-78661044D01*
X75935000Y-77784956D01*
X75936623Y-77751929D01*
X75941475Y-77719219D01*
X75949509Y-77687143D01*
X75960649Y-77656009D01*
X75974787Y-77626116D01*
X75991787Y-77597753D01*
X76011485Y-77571193D01*
X76033692Y-77546692D01*
X76058193Y-77524485D01*
X76084753Y-77504787D01*
X76113116Y-77487787D01*
X76143009Y-77473649D01*
X76174143Y-77462509D01*
X76206219Y-77454475D01*
X76238929Y-77449623D01*
X76271956Y-77448000D01*
X77398044Y-77448000D01*
X77431071Y-77449623D01*
X77431071Y-77449623D01*
G37*
D13*
X76835000Y-78223000D03*
G04 #@! TD*
D12*
G04 #@! TO.C,C_LPFOPT2*
G36*
X85051071Y-77449623D02*
X85083781Y-77454475D01*
X85115857Y-77462509D01*
X85146991Y-77473649D01*
X85176884Y-77487787D01*
X85205247Y-77504787D01*
X85231807Y-77524485D01*
X85256308Y-77546692D01*
X85278515Y-77571193D01*
X85298213Y-77597753D01*
X85315213Y-77626116D01*
X85329351Y-77656009D01*
X85340491Y-77687143D01*
X85348525Y-77719219D01*
X85353377Y-77751929D01*
X85355000Y-77784956D01*
X85355000Y-78661044D01*
X85353377Y-78694071D01*
X85348525Y-78726781D01*
X85340491Y-78758857D01*
X85329351Y-78789991D01*
X85315213Y-78819884D01*
X85298213Y-78848247D01*
X85278515Y-78874807D01*
X85256308Y-78899308D01*
X85231807Y-78921515D01*
X85205247Y-78941213D01*
X85176884Y-78958213D01*
X85146991Y-78972351D01*
X85115857Y-78983491D01*
X85083781Y-78991525D01*
X85051071Y-78996377D01*
X85018044Y-78998000D01*
X83891956Y-78998000D01*
X83858929Y-78996377D01*
X83826219Y-78991525D01*
X83794143Y-78983491D01*
X83763009Y-78972351D01*
X83733116Y-78958213D01*
X83704753Y-78941213D01*
X83678193Y-78921515D01*
X83653692Y-78899308D01*
X83631485Y-78874807D01*
X83611787Y-78848247D01*
X83594787Y-78819884D01*
X83580649Y-78789991D01*
X83569509Y-78758857D01*
X83561475Y-78726781D01*
X83556623Y-78694071D01*
X83555000Y-78661044D01*
X83555000Y-77784956D01*
X83556623Y-77751929D01*
X83561475Y-77719219D01*
X83569509Y-77687143D01*
X83580649Y-77656009D01*
X83594787Y-77626116D01*
X83611787Y-77597753D01*
X83631485Y-77571193D01*
X83653692Y-77546692D01*
X83678193Y-77524485D01*
X83704753Y-77504787D01*
X83733116Y-77487787D01*
X83763009Y-77473649D01*
X83794143Y-77462509D01*
X83826219Y-77454475D01*
X83858929Y-77449623D01*
X83891956Y-77448000D01*
X85018044Y-77448000D01*
X85051071Y-77449623D01*
X85051071Y-77449623D01*
G37*
D13*
X84455000Y-78223000D03*
D12*
G36*
X85051071Y-79499623D02*
X85083781Y-79504475D01*
X85115857Y-79512509D01*
X85146991Y-79523649D01*
X85176884Y-79537787D01*
X85205247Y-79554787D01*
X85231807Y-79574485D01*
X85256308Y-79596692D01*
X85278515Y-79621193D01*
X85298213Y-79647753D01*
X85315213Y-79676116D01*
X85329351Y-79706009D01*
X85340491Y-79737143D01*
X85348525Y-79769219D01*
X85353377Y-79801929D01*
X85355000Y-79834956D01*
X85355000Y-80711044D01*
X85353377Y-80744071D01*
X85348525Y-80776781D01*
X85340491Y-80808857D01*
X85329351Y-80839991D01*
X85315213Y-80869884D01*
X85298213Y-80898247D01*
X85278515Y-80924807D01*
X85256308Y-80949308D01*
X85231807Y-80971515D01*
X85205247Y-80991213D01*
X85176884Y-81008213D01*
X85146991Y-81022351D01*
X85115857Y-81033491D01*
X85083781Y-81041525D01*
X85051071Y-81046377D01*
X85018044Y-81048000D01*
X83891956Y-81048000D01*
X83858929Y-81046377D01*
X83826219Y-81041525D01*
X83794143Y-81033491D01*
X83763009Y-81022351D01*
X83733116Y-81008213D01*
X83704753Y-80991213D01*
X83678193Y-80971515D01*
X83653692Y-80949308D01*
X83631485Y-80924807D01*
X83611787Y-80898247D01*
X83594787Y-80869884D01*
X83580649Y-80839991D01*
X83569509Y-80808857D01*
X83561475Y-80776781D01*
X83556623Y-80744071D01*
X83555000Y-80711044D01*
X83555000Y-79834956D01*
X83556623Y-79801929D01*
X83561475Y-79769219D01*
X83569509Y-79737143D01*
X83580649Y-79706009D01*
X83594787Y-79676116D01*
X83611787Y-79647753D01*
X83631485Y-79621193D01*
X83653692Y-79596692D01*
X83678193Y-79574485D01*
X83704753Y-79554787D01*
X83733116Y-79537787D01*
X83763009Y-79523649D01*
X83794143Y-79512509D01*
X83826219Y-79504475D01*
X83858929Y-79499623D01*
X83891956Y-79498000D01*
X85018044Y-79498000D01*
X85051071Y-79499623D01*
X85051071Y-79499623D01*
G37*
D13*
X84455000Y-80273000D03*
G04 #@! TD*
D12*
G04 #@! TO.C,R_LPF1*
G36*
X81241071Y-77449623D02*
X81273781Y-77454475D01*
X81305857Y-77462509D01*
X81336991Y-77473649D01*
X81366884Y-77487787D01*
X81395247Y-77504787D01*
X81421807Y-77524485D01*
X81446308Y-77546692D01*
X81468515Y-77571193D01*
X81488213Y-77597753D01*
X81505213Y-77626116D01*
X81519351Y-77656009D01*
X81530491Y-77687143D01*
X81538525Y-77719219D01*
X81543377Y-77751929D01*
X81545000Y-77784956D01*
X81545000Y-78661044D01*
X81543377Y-78694071D01*
X81538525Y-78726781D01*
X81530491Y-78758857D01*
X81519351Y-78789991D01*
X81505213Y-78819884D01*
X81488213Y-78848247D01*
X81468515Y-78874807D01*
X81446308Y-78899308D01*
X81421807Y-78921515D01*
X81395247Y-78941213D01*
X81366884Y-78958213D01*
X81336991Y-78972351D01*
X81305857Y-78983491D01*
X81273781Y-78991525D01*
X81241071Y-78996377D01*
X81208044Y-78998000D01*
X80081956Y-78998000D01*
X80048929Y-78996377D01*
X80016219Y-78991525D01*
X79984143Y-78983491D01*
X79953009Y-78972351D01*
X79923116Y-78958213D01*
X79894753Y-78941213D01*
X79868193Y-78921515D01*
X79843692Y-78899308D01*
X79821485Y-78874807D01*
X79801787Y-78848247D01*
X79784787Y-78819884D01*
X79770649Y-78789991D01*
X79759509Y-78758857D01*
X79751475Y-78726781D01*
X79746623Y-78694071D01*
X79745000Y-78661044D01*
X79745000Y-77784956D01*
X79746623Y-77751929D01*
X79751475Y-77719219D01*
X79759509Y-77687143D01*
X79770649Y-77656009D01*
X79784787Y-77626116D01*
X79801787Y-77597753D01*
X79821485Y-77571193D01*
X79843692Y-77546692D01*
X79868193Y-77524485D01*
X79894753Y-77504787D01*
X79923116Y-77487787D01*
X79953009Y-77473649D01*
X79984143Y-77462509D01*
X80016219Y-77454475D01*
X80048929Y-77449623D01*
X80081956Y-77448000D01*
X81208044Y-77448000D01*
X81241071Y-77449623D01*
X81241071Y-77449623D01*
G37*
D13*
X80645000Y-78223000D03*
D12*
G36*
X81241071Y-79499623D02*
X81273781Y-79504475D01*
X81305857Y-79512509D01*
X81336991Y-79523649D01*
X81366884Y-79537787D01*
X81395247Y-79554787D01*
X81421807Y-79574485D01*
X81446308Y-79596692D01*
X81468515Y-79621193D01*
X81488213Y-79647753D01*
X81505213Y-79676116D01*
X81519351Y-79706009D01*
X81530491Y-79737143D01*
X81538525Y-79769219D01*
X81543377Y-79801929D01*
X81545000Y-79834956D01*
X81545000Y-80711044D01*
X81543377Y-80744071D01*
X81538525Y-80776781D01*
X81530491Y-80808857D01*
X81519351Y-80839991D01*
X81505213Y-80869884D01*
X81488213Y-80898247D01*
X81468515Y-80924807D01*
X81446308Y-80949308D01*
X81421807Y-80971515D01*
X81395247Y-80991213D01*
X81366884Y-81008213D01*
X81336991Y-81022351D01*
X81305857Y-81033491D01*
X81273781Y-81041525D01*
X81241071Y-81046377D01*
X81208044Y-81048000D01*
X80081956Y-81048000D01*
X80048929Y-81046377D01*
X80016219Y-81041525D01*
X79984143Y-81033491D01*
X79953009Y-81022351D01*
X79923116Y-81008213D01*
X79894753Y-80991213D01*
X79868193Y-80971515D01*
X79843692Y-80949308D01*
X79821485Y-80924807D01*
X79801787Y-80898247D01*
X79784787Y-80869884D01*
X79770649Y-80839991D01*
X79759509Y-80808857D01*
X79751475Y-80776781D01*
X79746623Y-80744071D01*
X79745000Y-80711044D01*
X79745000Y-79834956D01*
X79746623Y-79801929D01*
X79751475Y-79769219D01*
X79759509Y-79737143D01*
X79770649Y-79706009D01*
X79784787Y-79676116D01*
X79801787Y-79647753D01*
X79821485Y-79621193D01*
X79843692Y-79596692D01*
X79868193Y-79574485D01*
X79894753Y-79554787D01*
X79923116Y-79537787D01*
X79953009Y-79523649D01*
X79984143Y-79512509D01*
X80016219Y-79504475D01*
X80048929Y-79499623D01*
X80081956Y-79498000D01*
X81208044Y-79498000D01*
X81241071Y-79499623D01*
X81241071Y-79499623D01*
G37*
D13*
X80645000Y-80273000D03*
G04 #@! TD*
D14*
G04 #@! TO.C,SW_EN1*
X85836760Y-164851080D03*
X80563720Y-164838380D03*
X75247500Y-164833300D03*
X85852000Y-160045400D03*
X80556100Y-160045400D03*
X75247500Y-160045400D03*
X85864700Y-155244800D03*
X80556100Y-155244800D03*
X75247500Y-155244800D03*
G04 #@! TD*
D12*
G04 #@! TO.C,R_GAIN1*
G36*
X82631071Y-104257623D02*
X82663781Y-104262475D01*
X82695857Y-104270509D01*
X82726991Y-104281649D01*
X82756884Y-104295787D01*
X82785247Y-104312787D01*
X82811807Y-104332485D01*
X82836308Y-104354692D01*
X82858515Y-104379193D01*
X82878213Y-104405753D01*
X82895213Y-104434116D01*
X82909351Y-104464009D01*
X82920491Y-104495143D01*
X82928525Y-104527219D01*
X82933377Y-104559929D01*
X82935000Y-104592956D01*
X82935000Y-105719044D01*
X82933377Y-105752071D01*
X82928525Y-105784781D01*
X82920491Y-105816857D01*
X82909351Y-105847991D01*
X82895213Y-105877884D01*
X82878213Y-105906247D01*
X82858515Y-105932807D01*
X82836308Y-105957308D01*
X82811807Y-105979515D01*
X82785247Y-105999213D01*
X82756884Y-106016213D01*
X82726991Y-106030351D01*
X82695857Y-106041491D01*
X82663781Y-106049525D01*
X82631071Y-106054377D01*
X82598044Y-106056000D01*
X81721956Y-106056000D01*
X81688929Y-106054377D01*
X81656219Y-106049525D01*
X81624143Y-106041491D01*
X81593009Y-106030351D01*
X81563116Y-106016213D01*
X81534753Y-105999213D01*
X81508193Y-105979515D01*
X81483692Y-105957308D01*
X81461485Y-105932807D01*
X81441787Y-105906247D01*
X81424787Y-105877884D01*
X81410649Y-105847991D01*
X81399509Y-105816857D01*
X81391475Y-105784781D01*
X81386623Y-105752071D01*
X81385000Y-105719044D01*
X81385000Y-104592956D01*
X81386623Y-104559929D01*
X81391475Y-104527219D01*
X81399509Y-104495143D01*
X81410649Y-104464009D01*
X81424787Y-104434116D01*
X81441787Y-104405753D01*
X81461485Y-104379193D01*
X81483692Y-104354692D01*
X81508193Y-104332485D01*
X81534753Y-104312787D01*
X81563116Y-104295787D01*
X81593009Y-104281649D01*
X81624143Y-104270509D01*
X81656219Y-104262475D01*
X81688929Y-104257623D01*
X81721956Y-104256000D01*
X82598044Y-104256000D01*
X82631071Y-104257623D01*
X82631071Y-104257623D01*
G37*
D13*
X82160000Y-105156000D03*
D12*
G36*
X84681071Y-104257623D02*
X84713781Y-104262475D01*
X84745857Y-104270509D01*
X84776991Y-104281649D01*
X84806884Y-104295787D01*
X84835247Y-104312787D01*
X84861807Y-104332485D01*
X84886308Y-104354692D01*
X84908515Y-104379193D01*
X84928213Y-104405753D01*
X84945213Y-104434116D01*
X84959351Y-104464009D01*
X84970491Y-104495143D01*
X84978525Y-104527219D01*
X84983377Y-104559929D01*
X84985000Y-104592956D01*
X84985000Y-105719044D01*
X84983377Y-105752071D01*
X84978525Y-105784781D01*
X84970491Y-105816857D01*
X84959351Y-105847991D01*
X84945213Y-105877884D01*
X84928213Y-105906247D01*
X84908515Y-105932807D01*
X84886308Y-105957308D01*
X84861807Y-105979515D01*
X84835247Y-105999213D01*
X84806884Y-106016213D01*
X84776991Y-106030351D01*
X84745857Y-106041491D01*
X84713781Y-106049525D01*
X84681071Y-106054377D01*
X84648044Y-106056000D01*
X83771956Y-106056000D01*
X83738929Y-106054377D01*
X83706219Y-106049525D01*
X83674143Y-106041491D01*
X83643009Y-106030351D01*
X83613116Y-106016213D01*
X83584753Y-105999213D01*
X83558193Y-105979515D01*
X83533692Y-105957308D01*
X83511485Y-105932807D01*
X83491787Y-105906247D01*
X83474787Y-105877884D01*
X83460649Y-105847991D01*
X83449509Y-105816857D01*
X83441475Y-105784781D01*
X83436623Y-105752071D01*
X83435000Y-105719044D01*
X83435000Y-104592956D01*
X83436623Y-104559929D01*
X83441475Y-104527219D01*
X83449509Y-104495143D01*
X83460649Y-104464009D01*
X83474787Y-104434116D01*
X83491787Y-104405753D01*
X83511485Y-104379193D01*
X83533692Y-104354692D01*
X83558193Y-104332485D01*
X83584753Y-104312787D01*
X83613116Y-104295787D01*
X83643009Y-104281649D01*
X83674143Y-104270509D01*
X83706219Y-104262475D01*
X83738929Y-104257623D01*
X83771956Y-104256000D01*
X84648044Y-104256000D01*
X84681071Y-104257623D01*
X84681071Y-104257623D01*
G37*
D13*
X84210000Y-105156000D03*
G04 #@! TD*
D15*
G04 #@! TO.C,D_LED1*
X82042000Y-97536000D03*
D16*
X79502000Y-97536000D03*
G04 #@! TD*
D12*
G04 #@! TO.C,C_OSC1*
G36*
X71455071Y-89144623D02*
X71487781Y-89149475D01*
X71519857Y-89157509D01*
X71550991Y-89168649D01*
X71580884Y-89182787D01*
X71609247Y-89199787D01*
X71635807Y-89219485D01*
X71660308Y-89241692D01*
X71682515Y-89266193D01*
X71702213Y-89292753D01*
X71719213Y-89321116D01*
X71733351Y-89351009D01*
X71744491Y-89382143D01*
X71752525Y-89414219D01*
X71757377Y-89446929D01*
X71759000Y-89479956D01*
X71759000Y-90606044D01*
X71757377Y-90639071D01*
X71752525Y-90671781D01*
X71744491Y-90703857D01*
X71733351Y-90734991D01*
X71719213Y-90764884D01*
X71702213Y-90793247D01*
X71682515Y-90819807D01*
X71660308Y-90844308D01*
X71635807Y-90866515D01*
X71609247Y-90886213D01*
X71580884Y-90903213D01*
X71550991Y-90917351D01*
X71519857Y-90928491D01*
X71487781Y-90936525D01*
X71455071Y-90941377D01*
X71422044Y-90943000D01*
X70545956Y-90943000D01*
X70512929Y-90941377D01*
X70480219Y-90936525D01*
X70448143Y-90928491D01*
X70417009Y-90917351D01*
X70387116Y-90903213D01*
X70358753Y-90886213D01*
X70332193Y-90866515D01*
X70307692Y-90844308D01*
X70285485Y-90819807D01*
X70265787Y-90793247D01*
X70248787Y-90764884D01*
X70234649Y-90734991D01*
X70223509Y-90703857D01*
X70215475Y-90671781D01*
X70210623Y-90639071D01*
X70209000Y-90606044D01*
X70209000Y-89479956D01*
X70210623Y-89446929D01*
X70215475Y-89414219D01*
X70223509Y-89382143D01*
X70234649Y-89351009D01*
X70248787Y-89321116D01*
X70265787Y-89292753D01*
X70285485Y-89266193D01*
X70307692Y-89241692D01*
X70332193Y-89219485D01*
X70358753Y-89199787D01*
X70387116Y-89182787D01*
X70417009Y-89168649D01*
X70448143Y-89157509D01*
X70480219Y-89149475D01*
X70512929Y-89144623D01*
X70545956Y-89143000D01*
X71422044Y-89143000D01*
X71455071Y-89144623D01*
X71455071Y-89144623D01*
G37*
D13*
X70984000Y-90043000D03*
D12*
G36*
X73505071Y-89144623D02*
X73537781Y-89149475D01*
X73569857Y-89157509D01*
X73600991Y-89168649D01*
X73630884Y-89182787D01*
X73659247Y-89199787D01*
X73685807Y-89219485D01*
X73710308Y-89241692D01*
X73732515Y-89266193D01*
X73752213Y-89292753D01*
X73769213Y-89321116D01*
X73783351Y-89351009D01*
X73794491Y-89382143D01*
X73802525Y-89414219D01*
X73807377Y-89446929D01*
X73809000Y-89479956D01*
X73809000Y-90606044D01*
X73807377Y-90639071D01*
X73802525Y-90671781D01*
X73794491Y-90703857D01*
X73783351Y-90734991D01*
X73769213Y-90764884D01*
X73752213Y-90793247D01*
X73732515Y-90819807D01*
X73710308Y-90844308D01*
X73685807Y-90866515D01*
X73659247Y-90886213D01*
X73630884Y-90903213D01*
X73600991Y-90917351D01*
X73569857Y-90928491D01*
X73537781Y-90936525D01*
X73505071Y-90941377D01*
X73472044Y-90943000D01*
X72595956Y-90943000D01*
X72562929Y-90941377D01*
X72530219Y-90936525D01*
X72498143Y-90928491D01*
X72467009Y-90917351D01*
X72437116Y-90903213D01*
X72408753Y-90886213D01*
X72382193Y-90866515D01*
X72357692Y-90844308D01*
X72335485Y-90819807D01*
X72315787Y-90793247D01*
X72298787Y-90764884D01*
X72284649Y-90734991D01*
X72273509Y-90703857D01*
X72265475Y-90671781D01*
X72260623Y-90639071D01*
X72259000Y-90606044D01*
X72259000Y-89479956D01*
X72260623Y-89446929D01*
X72265475Y-89414219D01*
X72273509Y-89382143D01*
X72284649Y-89351009D01*
X72298787Y-89321116D01*
X72315787Y-89292753D01*
X72335485Y-89266193D01*
X72357692Y-89241692D01*
X72382193Y-89219485D01*
X72408753Y-89199787D01*
X72437116Y-89182787D01*
X72467009Y-89168649D01*
X72498143Y-89157509D01*
X72530219Y-89149475D01*
X72562929Y-89144623D01*
X72595956Y-89143000D01*
X73472044Y-89143000D01*
X73505071Y-89144623D01*
X73505071Y-89144623D01*
G37*
D13*
X73034000Y-90043000D03*
G04 #@! TD*
D17*
G04 #@! TO.C,J_IN1*
X100393500Y-112395000D03*
X100393500Y-123825000D03*
D18*
X94043500Y-121666000D03*
X103568500Y-123825000D03*
X103568500Y-112395000D03*
X90868500Y-112395000D03*
X90868500Y-123825000D03*
G04 #@! TD*
D19*
G04 #@! TO.C,J_PWR1*
X67310000Y-132715000D03*
D12*
G36*
X62243315Y-130769093D02*
X62325827Y-130781333D01*
X62406742Y-130801601D01*
X62485281Y-130829702D01*
X62560687Y-130865367D01*
X62632235Y-130908251D01*
X62699234Y-130957941D01*
X62761041Y-131013959D01*
X62817059Y-131075766D01*
X62866749Y-131142765D01*
X62909633Y-131214313D01*
X62945298Y-131289719D01*
X62973399Y-131368258D01*
X62993667Y-131449173D01*
X63005907Y-131531685D01*
X63010000Y-131615000D01*
X63010000Y-133815000D01*
X63005907Y-133898315D01*
X62993667Y-133980827D01*
X62973399Y-134061742D01*
X62945298Y-134140281D01*
X62909633Y-134215687D01*
X62866749Y-134287235D01*
X62817059Y-134354234D01*
X62761041Y-134416041D01*
X62699234Y-134472059D01*
X62632235Y-134521749D01*
X62560687Y-134564633D01*
X62485281Y-134600298D01*
X62406742Y-134628399D01*
X62325827Y-134648667D01*
X62243315Y-134660907D01*
X62160000Y-134665000D01*
X60460000Y-134665000D01*
X60376685Y-134660907D01*
X60294173Y-134648667D01*
X60213258Y-134628399D01*
X60134719Y-134600298D01*
X60059313Y-134564633D01*
X59987765Y-134521749D01*
X59920766Y-134472059D01*
X59858959Y-134416041D01*
X59802941Y-134354234D01*
X59753251Y-134287235D01*
X59710367Y-134215687D01*
X59674702Y-134140281D01*
X59646601Y-134061742D01*
X59626333Y-133980827D01*
X59614093Y-133898315D01*
X59610000Y-133815000D01*
X59610000Y-131615000D01*
X59614093Y-131531685D01*
X59626333Y-131449173D01*
X59646601Y-131368258D01*
X59674702Y-131289719D01*
X59710367Y-131214313D01*
X59753251Y-131142765D01*
X59802941Y-131075766D01*
X59858959Y-131013959D01*
X59920766Y-130957941D01*
X59987765Y-130908251D01*
X60059313Y-130865367D01*
X60134719Y-130829702D01*
X60213258Y-130801601D01*
X60294173Y-130781333D01*
X60376685Y-130769093D01*
X60460000Y-130765000D01*
X62160000Y-130765000D01*
X62243315Y-130769093D01*
X62243315Y-130769093D01*
G37*
D18*
X61310000Y-132715000D03*
D12*
G36*
X65380567Y-126069695D02*
X65475213Y-126083734D01*
X65568028Y-126106983D01*
X65658116Y-126139217D01*
X65744612Y-126180127D01*
X65826681Y-126229317D01*
X65903533Y-126286315D01*
X65974429Y-126350571D01*
X66038685Y-126421467D01*
X66095683Y-126498319D01*
X66144873Y-126580388D01*
X66185783Y-126666884D01*
X66218017Y-126756972D01*
X66241266Y-126849787D01*
X66255305Y-126944433D01*
X66260000Y-127040000D01*
X66260000Y-128990000D01*
X66255305Y-129085567D01*
X66241266Y-129180213D01*
X66218017Y-129273028D01*
X66185783Y-129363116D01*
X66144873Y-129449612D01*
X66095683Y-129531681D01*
X66038685Y-129608533D01*
X65974429Y-129679429D01*
X65903533Y-129743685D01*
X65826681Y-129800683D01*
X65744612Y-129849873D01*
X65658116Y-129890783D01*
X65568028Y-129923017D01*
X65475213Y-129946266D01*
X65380567Y-129960305D01*
X65285000Y-129965000D01*
X63335000Y-129965000D01*
X63239433Y-129960305D01*
X63144787Y-129946266D01*
X63051972Y-129923017D01*
X62961884Y-129890783D01*
X62875388Y-129849873D01*
X62793319Y-129800683D01*
X62716467Y-129743685D01*
X62645571Y-129679429D01*
X62581315Y-129608533D01*
X62524317Y-129531681D01*
X62475127Y-129449612D01*
X62434217Y-129363116D01*
X62401983Y-129273028D01*
X62378734Y-129180213D01*
X62364695Y-129085567D01*
X62360000Y-128990000D01*
X62360000Y-127040000D01*
X62364695Y-126944433D01*
X62378734Y-126849787D01*
X62401983Y-126756972D01*
X62434217Y-126666884D01*
X62475127Y-126580388D01*
X62524317Y-126498319D01*
X62581315Y-126421467D01*
X62645571Y-126350571D01*
X62716467Y-126286315D01*
X62793319Y-126229317D01*
X62875388Y-126180127D01*
X62961884Y-126139217D01*
X63051972Y-126106983D01*
X63144787Y-126083734D01*
X63239433Y-126069695D01*
X63335000Y-126065000D01*
X65285000Y-126065000D01*
X65380567Y-126069695D01*
X65380567Y-126069695D01*
G37*
D20*
X64310000Y-128015000D03*
G04 #@! TD*
D16*
G04 #@! TO.C,P_DEPTH1*
X92790000Y-83820000D03*
X95290000Y-83820000D03*
X97790000Y-83820000D03*
D21*
X90540000Y-76320000D03*
X100040000Y-76320000D03*
G04 #@! TD*
G04 #@! TO.C,P_VOL1*
X90460000Y-105290000D03*
X99960000Y-105290000D03*
D16*
X92710000Y-97790000D03*
X95210000Y-97790000D03*
X97710000Y-97790000D03*
G04 #@! TD*
D21*
G04 #@! TO.C,P_OSCOFF1*
X61250000Y-105290000D03*
X70750000Y-105290000D03*
D16*
X63500000Y-97790000D03*
X66000000Y-97790000D03*
X68500000Y-97790000D03*
G04 #@! TD*
G04 #@! TO.C,P_OSCON1*
X63580000Y-83820000D03*
X66080000Y-83820000D03*
X68580000Y-83820000D03*
D21*
X61330000Y-76320000D03*
X70830000Y-76320000D03*
G04 #@! TD*
D18*
G04 #@! TO.C,J_OUT1*
X70421500Y-112395000D03*
X70421500Y-123825000D03*
X57721500Y-123825000D03*
X57721500Y-112395000D03*
X67246500Y-114554000D03*
D17*
X60896500Y-112395000D03*
X60896500Y-123825000D03*
G04 #@! TD*
D12*
G04 #@! TO.C,R_OSCLIMIT1*
G36*
X66636071Y-105153623D02*
X66668781Y-105158475D01*
X66700857Y-105166509D01*
X66731991Y-105177649D01*
X66761884Y-105191787D01*
X66790247Y-105208787D01*
X66816807Y-105228485D01*
X66841308Y-105250692D01*
X66863515Y-105275193D01*
X66883213Y-105301753D01*
X66900213Y-105330116D01*
X66914351Y-105360009D01*
X66925491Y-105391143D01*
X66933525Y-105423219D01*
X66938377Y-105455929D01*
X66940000Y-105488956D01*
X66940000Y-106365044D01*
X66938377Y-106398071D01*
X66933525Y-106430781D01*
X66925491Y-106462857D01*
X66914351Y-106493991D01*
X66900213Y-106523884D01*
X66883213Y-106552247D01*
X66863515Y-106578807D01*
X66841308Y-106603308D01*
X66816807Y-106625515D01*
X66790247Y-106645213D01*
X66761884Y-106662213D01*
X66731991Y-106676351D01*
X66700857Y-106687491D01*
X66668781Y-106695525D01*
X66636071Y-106700377D01*
X66603044Y-106702000D01*
X65476956Y-106702000D01*
X65443929Y-106700377D01*
X65411219Y-106695525D01*
X65379143Y-106687491D01*
X65348009Y-106676351D01*
X65318116Y-106662213D01*
X65289753Y-106645213D01*
X65263193Y-106625515D01*
X65238692Y-106603308D01*
X65216485Y-106578807D01*
X65196787Y-106552247D01*
X65179787Y-106523884D01*
X65165649Y-106493991D01*
X65154509Y-106462857D01*
X65146475Y-106430781D01*
X65141623Y-106398071D01*
X65140000Y-106365044D01*
X65140000Y-105488956D01*
X65141623Y-105455929D01*
X65146475Y-105423219D01*
X65154509Y-105391143D01*
X65165649Y-105360009D01*
X65179787Y-105330116D01*
X65196787Y-105301753D01*
X65216485Y-105275193D01*
X65238692Y-105250692D01*
X65263193Y-105228485D01*
X65289753Y-105208787D01*
X65318116Y-105191787D01*
X65348009Y-105177649D01*
X65379143Y-105166509D01*
X65411219Y-105158475D01*
X65443929Y-105153623D01*
X65476956Y-105152000D01*
X66603044Y-105152000D01*
X66636071Y-105153623D01*
X66636071Y-105153623D01*
G37*
D13*
X66040000Y-105927000D03*
D12*
G36*
X66636071Y-103103623D02*
X66668781Y-103108475D01*
X66700857Y-103116509D01*
X66731991Y-103127649D01*
X66761884Y-103141787D01*
X66790247Y-103158787D01*
X66816807Y-103178485D01*
X66841308Y-103200692D01*
X66863515Y-103225193D01*
X66883213Y-103251753D01*
X66900213Y-103280116D01*
X66914351Y-103310009D01*
X66925491Y-103341143D01*
X66933525Y-103373219D01*
X66938377Y-103405929D01*
X66940000Y-103438956D01*
X66940000Y-104315044D01*
X66938377Y-104348071D01*
X66933525Y-104380781D01*
X66925491Y-104412857D01*
X66914351Y-104443991D01*
X66900213Y-104473884D01*
X66883213Y-104502247D01*
X66863515Y-104528807D01*
X66841308Y-104553308D01*
X66816807Y-104575515D01*
X66790247Y-104595213D01*
X66761884Y-104612213D01*
X66731991Y-104626351D01*
X66700857Y-104637491D01*
X66668781Y-104645525D01*
X66636071Y-104650377D01*
X66603044Y-104652000D01*
X65476956Y-104652000D01*
X65443929Y-104650377D01*
X65411219Y-104645525D01*
X65379143Y-104637491D01*
X65348009Y-104626351D01*
X65318116Y-104612213D01*
X65289753Y-104595213D01*
X65263193Y-104575515D01*
X65238692Y-104553308D01*
X65216485Y-104528807D01*
X65196787Y-104502247D01*
X65179787Y-104473884D01*
X65165649Y-104443991D01*
X65154509Y-104412857D01*
X65146475Y-104380781D01*
X65141623Y-104348071D01*
X65140000Y-104315044D01*
X65140000Y-103438956D01*
X65141623Y-103405929D01*
X65146475Y-103373219D01*
X65154509Y-103341143D01*
X65165649Y-103310009D01*
X65179787Y-103280116D01*
X65196787Y-103251753D01*
X65216485Y-103225193D01*
X65238692Y-103200692D01*
X65263193Y-103178485D01*
X65289753Y-103158787D01*
X65318116Y-103141787D01*
X65348009Y-103127649D01*
X65379143Y-103116509D01*
X65411219Y-103108475D01*
X65443929Y-103103623D01*
X65476956Y-103102000D01*
X66603044Y-103102000D01*
X66636071Y-103103623D01*
X66636071Y-103103623D01*
G37*
D13*
X66040000Y-103877000D03*
G04 #@! TD*
D17*
G04 #@! TO.C,SW_ATTACK1*
X80645000Y-85344000D03*
X83185000Y-85344000D03*
X78105000Y-85344000D03*
G04 #@! TD*
D11*
G04 #@! TO.C,J_MAINTOAUX1*
X86995000Y-128651000D03*
D10*
X84455000Y-128651000D03*
X81915000Y-128651000D03*
X79375000Y-128651000D03*
X76835000Y-128651000D03*
X76835000Y-131191000D03*
X79375000Y-131191000D03*
X81915000Y-131191000D03*
X84455000Y-131191000D03*
X86995000Y-131191000D03*
G04 #@! TD*
D22*
G36*
X87757000Y-146050000D02*
X79121000Y-146050000D01*
X79121000Y-137287000D01*
X87757000Y-137287000D01*
X87757000Y-146050000D01*
X87757000Y-146050000D01*
G37*
X87757000Y-146050000D02*
X79121000Y-146050000D01*
X79121000Y-137287000D01*
X87757000Y-137287000D01*
X87757000Y-146050000D01*
G36*
X98679000Y-145923000D02*
X90043000Y-145923000D01*
X90043000Y-137287000D01*
X98679000Y-137287000D01*
X98679000Y-145923000D01*
X98679000Y-145923000D01*
G37*
X98679000Y-145923000D02*
X90043000Y-145923000D01*
X90043000Y-137287000D01*
X98679000Y-137287000D01*
X98679000Y-145923000D01*
M02*
