G04 #@! TF.GenerationSoftware,KiCad,Pcbnew,(5.0.0-3-g5ebb6b6)*
G04 #@! TF.CreationDate,2018-11-15T11:28:39+00:00*
G04 #@! TF.ProjectId,555PWMTremolo,35353550574D5472656D6F6C6F2E6B69,rev?*
G04 #@! TF.SameCoordinates,Original*
G04 #@! TF.FileFunction,Copper,L1,Top,Signal*
G04 #@! TF.FilePolarity,Positive*
%FSLAX46Y46*%
G04 Gerber Fmt 4.6, Leading zero omitted, Abs format (unit mm)*
G04 Created by KiCad (PCBNEW (5.0.0-3-g5ebb6b6)) date Thursday, 15 November 2018 at 11:28:39*
%MOMM*%
%LPD*%
G01*
G04 APERTURE LIST*
G04 #@! TA.AperFunction,ComponentPad*
%ADD10O,1.700000X1.700000*%
G04 #@! TD*
G04 #@! TA.AperFunction,ComponentPad*
%ADD11R,1.700000X1.700000*%
G04 #@! TD*
G04 #@! TA.AperFunction,ComponentPad*
%ADD12O,3.500000X3.000000*%
G04 #@! TD*
G04 #@! TA.AperFunction,ComponentPad*
%ADD13R,1.800000X1.800000*%
G04 #@! TD*
G04 #@! TA.AperFunction,ComponentPad*
%ADD14C,1.800000*%
G04 #@! TD*
G04 #@! TA.AperFunction,SMDPad,CuDef*
%ADD15R,2.000000X1.500000*%
G04 #@! TD*
G04 #@! TA.AperFunction,SMDPad,CuDef*
%ADD16R,2.000000X3.800000*%
G04 #@! TD*
G04 #@! TA.AperFunction,Conductor*
%ADD17C,0.100000*%
G04 #@! TD*
G04 #@! TA.AperFunction,SMDPad,CuDef*
%ADD18C,1.150000*%
G04 #@! TD*
G04 #@! TA.AperFunction,ComponentPad*
%ADD19C,3.000000*%
G04 #@! TD*
G04 #@! TA.AperFunction,ComponentPad*
%ADD20R,3.500000X3.500000*%
G04 #@! TD*
G04 #@! TA.AperFunction,ComponentPad*
%ADD21C,3.500000*%
G04 #@! TD*
G04 #@! TA.AperFunction,WasherPad*
%ADD22C,4.000000*%
G04 #@! TD*
G04 #@! TA.AperFunction,SMDPad,CuDef*
%ADD23R,0.600000X1.550000*%
G04 #@! TD*
G04 #@! TA.AperFunction,SMDPad,CuDef*
%ADD24R,2.600000X1.600000*%
G04 #@! TD*
G04 #@! TA.AperFunction,SMDPad,CuDef*
%ADD25R,1.550000X0.600000*%
G04 #@! TD*
G04 #@! TA.AperFunction,SMDPad,CuDef*
%ADD26R,2.000000X0.640000*%
G04 #@! TD*
G04 #@! TA.AperFunction,SMDPad,CuDef*
%ADD27R,3.500000X1.600000*%
G04 #@! TD*
G04 #@! TA.AperFunction,ComponentPad*
%ADD28C,2.000000*%
G04 #@! TD*
G04 #@! TA.AperFunction,ViaPad*
%ADD29C,0.800000*%
G04 #@! TD*
G04 #@! TA.AperFunction,Conductor*
%ADD30C,0.500000*%
G04 #@! TD*
G04 #@! TA.AperFunction,Conductor*
%ADD31C,0.750000*%
G04 #@! TD*
G04 #@! TA.AperFunction,Conductor*
%ADD32C,0.250000*%
G04 #@! TD*
G04 #@! TA.AperFunction,Conductor*
%ADD33C,0.254000*%
G04 #@! TD*
G04 APERTURE END LIST*
D10*
G04 #@! TO.P,J_AUXTOMAIN1,10*
G04 #@! TO.N,N/C*
X95504000Y-154940000D03*
G04 #@! TO.P,J_AUXTOMAIN1,9*
G04 #@! TO.N,/555PWMTremolo_3PDT/3PDT_9_INT*
X95504000Y-157480000D03*
G04 #@! TO.P,J_AUXTOMAIN1,8*
G04 #@! TO.N,/555PWMTremolo_3PDT/3PDT_8_INT*
X95504000Y-160020000D03*
G04 #@! TO.P,J_AUXTOMAIN1,7*
G04 #@! TO.N,/555PWMTremolo_3PDT/3PDT_7_INT*
X95504000Y-162560000D03*
G04 #@! TO.P,J_AUXTOMAIN1,6*
G04 #@! TO.N,/555PWMTremolo_3PDT/3PDT_6_INT*
X95504000Y-165100000D03*
G04 #@! TO.P,J_AUXTOMAIN1,5*
G04 #@! TO.N,/555PWMTremolo_3PDT/3PDT_5_INT*
X98044000Y-165100000D03*
G04 #@! TO.P,J_AUXTOMAIN1,4*
G04 #@! TO.N,/555PWMTremolo_3PDT/3PDT_4_INT*
X98044000Y-162560000D03*
G04 #@! TO.P,J_AUXTOMAIN1,3*
G04 #@! TO.N,/555PWMTremolo_3PDT/3PDT_3_INT*
X98044000Y-160020000D03*
G04 #@! TO.P,J_AUXTOMAIN1,2*
G04 #@! TO.N,/555PWMTremolo_3PDT/3PDT_2_INT*
X98044000Y-157480000D03*
D11*
G04 #@! TO.P,J_AUXTOMAIN1,1*
G04 #@! TO.N,/555PWMTremolo_3PDT/3PDT_1_INT*
X98044000Y-154940000D03*
G04 #@! TD*
D12*
G04 #@! TO.P,SW_EN1,1*
G04 #@! TO.N,/555PWMTremolo_3PDT/3PDT_1_INT*
X85836760Y-164851080D03*
G04 #@! TO.P,SW_EN1,4*
G04 #@! TO.N,/555PWMTremolo_3PDT/3PDT_4_INT*
X80563720Y-164838380D03*
G04 #@! TO.P,SW_EN1,7*
G04 #@! TO.N,/555PWMTremolo_3PDT/3PDT_7_INT*
X75247500Y-164833300D03*
G04 #@! TO.P,SW_EN1,2*
G04 #@! TO.N,/555PWMTremolo_3PDT/3PDT_2_INT*
X85852000Y-160045400D03*
G04 #@! TO.P,SW_EN1,5*
G04 #@! TO.N,/555PWMTremolo_3PDT/3PDT_5_INT*
X80556100Y-160045400D03*
G04 #@! TO.P,SW_EN1,8*
G04 #@! TO.N,/555PWMTremolo_3PDT/3PDT_8_INT*
X75247500Y-160045400D03*
G04 #@! TO.P,SW_EN1,3*
G04 #@! TO.N,/555PWMTremolo_3PDT/3PDT_3_INT*
X85864700Y-155244800D03*
G04 #@! TO.P,SW_EN1,6*
G04 #@! TO.N,/555PWMTremolo_3PDT/3PDT_6_INT*
X80556100Y-155244800D03*
G04 #@! TO.P,SW_EN1,9*
G04 #@! TO.N,/555PWMTremolo_3PDT/3PDT_9_INT*
X75247500Y-155244800D03*
G04 #@! TD*
D13*
G04 #@! TO.P,D_LED1,1*
G04 #@! TO.N,Net-(C_LPFOPT2-Pad1)*
X82042000Y-97536000D03*
D14*
G04 #@! TO.P,D_LED1,2*
G04 #@! TO.N,Net-(C_LPFOPT1-Pad1)*
X79502000Y-97536000D03*
G04 #@! TD*
D15*
G04 #@! TO.P,U_NREG1,1*
G04 #@! TO.N,Net-(R3-Pad1)*
X100241500Y-144159000D03*
G04 #@! TO.P,U_NREG1,3*
G04 #@! TO.N,-5V*
X100241500Y-139559000D03*
G04 #@! TO.P,U_NREG1,2*
G04 #@! TO.N,-9V*
X100241500Y-141859000D03*
D16*
X93941500Y-141859000D03*
G04 #@! TD*
D17*
G04 #@! TO.N,Net-(C_BP1-Pad1)*
G04 #@! TO.C,C_BP1*
G36*
X70578505Y-87573204D02*
X70602773Y-87576804D01*
X70626572Y-87582765D01*
X70649671Y-87591030D01*
X70671850Y-87601520D01*
X70692893Y-87614132D01*
X70712599Y-87628747D01*
X70730777Y-87645223D01*
X70747253Y-87663401D01*
X70761868Y-87683107D01*
X70774480Y-87704150D01*
X70784970Y-87726329D01*
X70793235Y-87749428D01*
X70799196Y-87773227D01*
X70802796Y-87797495D01*
X70804000Y-87821999D01*
X70804000Y-88472001D01*
X70802796Y-88496505D01*
X70799196Y-88520773D01*
X70793235Y-88544572D01*
X70784970Y-88567671D01*
X70774480Y-88589850D01*
X70761868Y-88610893D01*
X70747253Y-88630599D01*
X70730777Y-88648777D01*
X70712599Y-88665253D01*
X70692893Y-88679868D01*
X70671850Y-88692480D01*
X70649671Y-88702970D01*
X70626572Y-88711235D01*
X70602773Y-88717196D01*
X70578505Y-88720796D01*
X70554001Y-88722000D01*
X69653999Y-88722000D01*
X69629495Y-88720796D01*
X69605227Y-88717196D01*
X69581428Y-88711235D01*
X69558329Y-88702970D01*
X69536150Y-88692480D01*
X69515107Y-88679868D01*
X69495401Y-88665253D01*
X69477223Y-88648777D01*
X69460747Y-88630599D01*
X69446132Y-88610893D01*
X69433520Y-88589850D01*
X69423030Y-88567671D01*
X69414765Y-88544572D01*
X69408804Y-88520773D01*
X69405204Y-88496505D01*
X69404000Y-88472001D01*
X69404000Y-87821999D01*
X69405204Y-87797495D01*
X69408804Y-87773227D01*
X69414765Y-87749428D01*
X69423030Y-87726329D01*
X69433520Y-87704150D01*
X69446132Y-87683107D01*
X69460747Y-87663401D01*
X69477223Y-87645223D01*
X69495401Y-87628747D01*
X69515107Y-87614132D01*
X69536150Y-87601520D01*
X69558329Y-87591030D01*
X69581428Y-87582765D01*
X69605227Y-87576804D01*
X69629495Y-87573204D01*
X69653999Y-87572000D01*
X70554001Y-87572000D01*
X70578505Y-87573204D01*
X70578505Y-87573204D01*
G37*
D18*
G04 #@! TD*
G04 #@! TO.P,C_BP1,1*
G04 #@! TO.N,Net-(C_BP1-Pad1)*
X70104000Y-88147000D03*
D17*
G04 #@! TO.N,/GND*
G04 #@! TO.C,C_BP1*
G36*
X70578505Y-85523204D02*
X70602773Y-85526804D01*
X70626572Y-85532765D01*
X70649671Y-85541030D01*
X70671850Y-85551520D01*
X70692893Y-85564132D01*
X70712599Y-85578747D01*
X70730777Y-85595223D01*
X70747253Y-85613401D01*
X70761868Y-85633107D01*
X70774480Y-85654150D01*
X70784970Y-85676329D01*
X70793235Y-85699428D01*
X70799196Y-85723227D01*
X70802796Y-85747495D01*
X70804000Y-85771999D01*
X70804000Y-86422001D01*
X70802796Y-86446505D01*
X70799196Y-86470773D01*
X70793235Y-86494572D01*
X70784970Y-86517671D01*
X70774480Y-86539850D01*
X70761868Y-86560893D01*
X70747253Y-86580599D01*
X70730777Y-86598777D01*
X70712599Y-86615253D01*
X70692893Y-86629868D01*
X70671850Y-86642480D01*
X70649671Y-86652970D01*
X70626572Y-86661235D01*
X70602773Y-86667196D01*
X70578505Y-86670796D01*
X70554001Y-86672000D01*
X69653999Y-86672000D01*
X69629495Y-86670796D01*
X69605227Y-86667196D01*
X69581428Y-86661235D01*
X69558329Y-86652970D01*
X69536150Y-86642480D01*
X69515107Y-86629868D01*
X69495401Y-86615253D01*
X69477223Y-86598777D01*
X69460747Y-86580599D01*
X69446132Y-86560893D01*
X69433520Y-86539850D01*
X69423030Y-86517671D01*
X69414765Y-86494572D01*
X69408804Y-86470773D01*
X69405204Y-86446505D01*
X69404000Y-86422001D01*
X69404000Y-85771999D01*
X69405204Y-85747495D01*
X69408804Y-85723227D01*
X69414765Y-85699428D01*
X69423030Y-85676329D01*
X69433520Y-85654150D01*
X69446132Y-85633107D01*
X69460747Y-85613401D01*
X69477223Y-85595223D01*
X69495401Y-85578747D01*
X69515107Y-85564132D01*
X69536150Y-85551520D01*
X69558329Y-85541030D01*
X69581428Y-85532765D01*
X69605227Y-85526804D01*
X69629495Y-85523204D01*
X69653999Y-85522000D01*
X70554001Y-85522000D01*
X70578505Y-85523204D01*
X70578505Y-85523204D01*
G37*
D18*
G04 #@! TD*
G04 #@! TO.P,C_BP1,2*
G04 #@! TO.N,/GND*
X70104000Y-86097000D03*
D17*
G04 #@! TO.N,+5V*
G04 #@! TO.C,C_BP3*
G36*
X78198505Y-103956204D02*
X78222773Y-103959804D01*
X78246572Y-103965765D01*
X78269671Y-103974030D01*
X78291850Y-103984520D01*
X78312893Y-103997132D01*
X78332599Y-104011747D01*
X78350777Y-104028223D01*
X78367253Y-104046401D01*
X78381868Y-104066107D01*
X78394480Y-104087150D01*
X78404970Y-104109329D01*
X78413235Y-104132428D01*
X78419196Y-104156227D01*
X78422796Y-104180495D01*
X78424000Y-104204999D01*
X78424000Y-104855001D01*
X78422796Y-104879505D01*
X78419196Y-104903773D01*
X78413235Y-104927572D01*
X78404970Y-104950671D01*
X78394480Y-104972850D01*
X78381868Y-104993893D01*
X78367253Y-105013599D01*
X78350777Y-105031777D01*
X78332599Y-105048253D01*
X78312893Y-105062868D01*
X78291850Y-105075480D01*
X78269671Y-105085970D01*
X78246572Y-105094235D01*
X78222773Y-105100196D01*
X78198505Y-105103796D01*
X78174001Y-105105000D01*
X77273999Y-105105000D01*
X77249495Y-105103796D01*
X77225227Y-105100196D01*
X77201428Y-105094235D01*
X77178329Y-105085970D01*
X77156150Y-105075480D01*
X77135107Y-105062868D01*
X77115401Y-105048253D01*
X77097223Y-105031777D01*
X77080747Y-105013599D01*
X77066132Y-104993893D01*
X77053520Y-104972850D01*
X77043030Y-104950671D01*
X77034765Y-104927572D01*
X77028804Y-104903773D01*
X77025204Y-104879505D01*
X77024000Y-104855001D01*
X77024000Y-104204999D01*
X77025204Y-104180495D01*
X77028804Y-104156227D01*
X77034765Y-104132428D01*
X77043030Y-104109329D01*
X77053520Y-104087150D01*
X77066132Y-104066107D01*
X77080747Y-104046401D01*
X77097223Y-104028223D01*
X77115401Y-104011747D01*
X77135107Y-103997132D01*
X77156150Y-103984520D01*
X77178329Y-103974030D01*
X77201428Y-103965765D01*
X77225227Y-103959804D01*
X77249495Y-103956204D01*
X77273999Y-103955000D01*
X78174001Y-103955000D01*
X78198505Y-103956204D01*
X78198505Y-103956204D01*
G37*
D18*
G04 #@! TD*
G04 #@! TO.P,C_BP3,2*
G04 #@! TO.N,+5V*
X77724000Y-104530000D03*
D17*
G04 #@! TO.N,/GND*
G04 #@! TO.C,C_BP3*
G36*
X78198505Y-101906204D02*
X78222773Y-101909804D01*
X78246572Y-101915765D01*
X78269671Y-101924030D01*
X78291850Y-101934520D01*
X78312893Y-101947132D01*
X78332599Y-101961747D01*
X78350777Y-101978223D01*
X78367253Y-101996401D01*
X78381868Y-102016107D01*
X78394480Y-102037150D01*
X78404970Y-102059329D01*
X78413235Y-102082428D01*
X78419196Y-102106227D01*
X78422796Y-102130495D01*
X78424000Y-102154999D01*
X78424000Y-102805001D01*
X78422796Y-102829505D01*
X78419196Y-102853773D01*
X78413235Y-102877572D01*
X78404970Y-102900671D01*
X78394480Y-102922850D01*
X78381868Y-102943893D01*
X78367253Y-102963599D01*
X78350777Y-102981777D01*
X78332599Y-102998253D01*
X78312893Y-103012868D01*
X78291850Y-103025480D01*
X78269671Y-103035970D01*
X78246572Y-103044235D01*
X78222773Y-103050196D01*
X78198505Y-103053796D01*
X78174001Y-103055000D01*
X77273999Y-103055000D01*
X77249495Y-103053796D01*
X77225227Y-103050196D01*
X77201428Y-103044235D01*
X77178329Y-103035970D01*
X77156150Y-103025480D01*
X77135107Y-103012868D01*
X77115401Y-102998253D01*
X77097223Y-102981777D01*
X77080747Y-102963599D01*
X77066132Y-102943893D01*
X77053520Y-102922850D01*
X77043030Y-102900671D01*
X77034765Y-102877572D01*
X77028804Y-102853773D01*
X77025204Y-102829505D01*
X77024000Y-102805001D01*
X77024000Y-102154999D01*
X77025204Y-102130495D01*
X77028804Y-102106227D01*
X77034765Y-102082428D01*
X77043030Y-102059329D01*
X77053520Y-102037150D01*
X77066132Y-102016107D01*
X77080747Y-101996401D01*
X77097223Y-101978223D01*
X77115401Y-101961747D01*
X77135107Y-101947132D01*
X77156150Y-101934520D01*
X77178329Y-101924030D01*
X77201428Y-101915765D01*
X77225227Y-101909804D01*
X77249495Y-101906204D01*
X77273999Y-101905000D01*
X78174001Y-101905000D01*
X78198505Y-101906204D01*
X78198505Y-101906204D01*
G37*
D18*
G04 #@! TD*
G04 #@! TO.P,C_BP3,1*
G04 #@! TO.N,/GND*
X77724000Y-102480000D03*
D17*
G04 #@! TO.N,/GND*
G04 #@! TO.C,C_BP4*
G36*
X82008505Y-117164204D02*
X82032773Y-117167804D01*
X82056572Y-117173765D01*
X82079671Y-117182030D01*
X82101850Y-117192520D01*
X82122893Y-117205132D01*
X82142599Y-117219747D01*
X82160777Y-117236223D01*
X82177253Y-117254401D01*
X82191868Y-117274107D01*
X82204480Y-117295150D01*
X82214970Y-117317329D01*
X82223235Y-117340428D01*
X82229196Y-117364227D01*
X82232796Y-117388495D01*
X82234000Y-117412999D01*
X82234000Y-118063001D01*
X82232796Y-118087505D01*
X82229196Y-118111773D01*
X82223235Y-118135572D01*
X82214970Y-118158671D01*
X82204480Y-118180850D01*
X82191868Y-118201893D01*
X82177253Y-118221599D01*
X82160777Y-118239777D01*
X82142599Y-118256253D01*
X82122893Y-118270868D01*
X82101850Y-118283480D01*
X82079671Y-118293970D01*
X82056572Y-118302235D01*
X82032773Y-118308196D01*
X82008505Y-118311796D01*
X81984001Y-118313000D01*
X81083999Y-118313000D01*
X81059495Y-118311796D01*
X81035227Y-118308196D01*
X81011428Y-118302235D01*
X80988329Y-118293970D01*
X80966150Y-118283480D01*
X80945107Y-118270868D01*
X80925401Y-118256253D01*
X80907223Y-118239777D01*
X80890747Y-118221599D01*
X80876132Y-118201893D01*
X80863520Y-118180850D01*
X80853030Y-118158671D01*
X80844765Y-118135572D01*
X80838804Y-118111773D01*
X80835204Y-118087505D01*
X80834000Y-118063001D01*
X80834000Y-117412999D01*
X80835204Y-117388495D01*
X80838804Y-117364227D01*
X80844765Y-117340428D01*
X80853030Y-117317329D01*
X80863520Y-117295150D01*
X80876132Y-117274107D01*
X80890747Y-117254401D01*
X80907223Y-117236223D01*
X80925401Y-117219747D01*
X80945107Y-117205132D01*
X80966150Y-117192520D01*
X80988329Y-117182030D01*
X81011428Y-117173765D01*
X81035227Y-117167804D01*
X81059495Y-117164204D01*
X81083999Y-117163000D01*
X81984001Y-117163000D01*
X82008505Y-117164204D01*
X82008505Y-117164204D01*
G37*
D18*
G04 #@! TD*
G04 #@! TO.P,C_BP4,2*
G04 #@! TO.N,/GND*
X81534000Y-117738000D03*
D17*
G04 #@! TO.N,-5V*
G04 #@! TO.C,C_BP4*
G36*
X82008505Y-115114204D02*
X82032773Y-115117804D01*
X82056572Y-115123765D01*
X82079671Y-115132030D01*
X82101850Y-115142520D01*
X82122893Y-115155132D01*
X82142599Y-115169747D01*
X82160777Y-115186223D01*
X82177253Y-115204401D01*
X82191868Y-115224107D01*
X82204480Y-115245150D01*
X82214970Y-115267329D01*
X82223235Y-115290428D01*
X82229196Y-115314227D01*
X82232796Y-115338495D01*
X82234000Y-115362999D01*
X82234000Y-116013001D01*
X82232796Y-116037505D01*
X82229196Y-116061773D01*
X82223235Y-116085572D01*
X82214970Y-116108671D01*
X82204480Y-116130850D01*
X82191868Y-116151893D01*
X82177253Y-116171599D01*
X82160777Y-116189777D01*
X82142599Y-116206253D01*
X82122893Y-116220868D01*
X82101850Y-116233480D01*
X82079671Y-116243970D01*
X82056572Y-116252235D01*
X82032773Y-116258196D01*
X82008505Y-116261796D01*
X81984001Y-116263000D01*
X81083999Y-116263000D01*
X81059495Y-116261796D01*
X81035227Y-116258196D01*
X81011428Y-116252235D01*
X80988329Y-116243970D01*
X80966150Y-116233480D01*
X80945107Y-116220868D01*
X80925401Y-116206253D01*
X80907223Y-116189777D01*
X80890747Y-116171599D01*
X80876132Y-116151893D01*
X80863520Y-116130850D01*
X80853030Y-116108671D01*
X80844765Y-116085572D01*
X80838804Y-116061773D01*
X80835204Y-116037505D01*
X80834000Y-116013001D01*
X80834000Y-115362999D01*
X80835204Y-115338495D01*
X80838804Y-115314227D01*
X80844765Y-115290428D01*
X80853030Y-115267329D01*
X80863520Y-115245150D01*
X80876132Y-115224107D01*
X80890747Y-115204401D01*
X80907223Y-115186223D01*
X80925401Y-115169747D01*
X80945107Y-115155132D01*
X80966150Y-115142520D01*
X80988329Y-115132030D01*
X81011428Y-115123765D01*
X81035227Y-115117804D01*
X81059495Y-115114204D01*
X81083999Y-115113000D01*
X81984001Y-115113000D01*
X82008505Y-115114204D01*
X82008505Y-115114204D01*
G37*
D18*
G04 #@! TD*
G04 #@! TO.P,C_BP4,1*
G04 #@! TO.N,-5V*
X81534000Y-115688000D03*
D17*
G04 #@! TO.N,/GND*
G04 #@! TO.C,C_BP5*
G36*
X55966505Y-136207204D02*
X55990773Y-136210804D01*
X56014572Y-136216765D01*
X56037671Y-136225030D01*
X56059850Y-136235520D01*
X56080893Y-136248132D01*
X56100599Y-136262747D01*
X56118777Y-136279223D01*
X56135253Y-136297401D01*
X56149868Y-136317107D01*
X56162480Y-136338150D01*
X56172970Y-136360329D01*
X56181235Y-136383428D01*
X56187196Y-136407227D01*
X56190796Y-136431495D01*
X56192000Y-136455999D01*
X56192000Y-137356001D01*
X56190796Y-137380505D01*
X56187196Y-137404773D01*
X56181235Y-137428572D01*
X56172970Y-137451671D01*
X56162480Y-137473850D01*
X56149868Y-137494893D01*
X56135253Y-137514599D01*
X56118777Y-137532777D01*
X56100599Y-137549253D01*
X56080893Y-137563868D01*
X56059850Y-137576480D01*
X56037671Y-137586970D01*
X56014572Y-137595235D01*
X55990773Y-137601196D01*
X55966505Y-137604796D01*
X55942001Y-137606000D01*
X55291999Y-137606000D01*
X55267495Y-137604796D01*
X55243227Y-137601196D01*
X55219428Y-137595235D01*
X55196329Y-137586970D01*
X55174150Y-137576480D01*
X55153107Y-137563868D01*
X55133401Y-137549253D01*
X55115223Y-137532777D01*
X55098747Y-137514599D01*
X55084132Y-137494893D01*
X55071520Y-137473850D01*
X55061030Y-137451671D01*
X55052765Y-137428572D01*
X55046804Y-137404773D01*
X55043204Y-137380505D01*
X55042000Y-137356001D01*
X55042000Y-136455999D01*
X55043204Y-136431495D01*
X55046804Y-136407227D01*
X55052765Y-136383428D01*
X55061030Y-136360329D01*
X55071520Y-136338150D01*
X55084132Y-136317107D01*
X55098747Y-136297401D01*
X55115223Y-136279223D01*
X55133401Y-136262747D01*
X55153107Y-136248132D01*
X55174150Y-136235520D01*
X55196329Y-136225030D01*
X55219428Y-136216765D01*
X55243227Y-136210804D01*
X55267495Y-136207204D01*
X55291999Y-136206000D01*
X55942001Y-136206000D01*
X55966505Y-136207204D01*
X55966505Y-136207204D01*
G37*
D18*
G04 #@! TD*
G04 #@! TO.P,C_BP5,1*
G04 #@! TO.N,/GND*
X55617000Y-136906000D03*
D17*
G04 #@! TO.N,+9V*
G04 #@! TO.C,C_BP5*
G36*
X58016505Y-136207204D02*
X58040773Y-136210804D01*
X58064572Y-136216765D01*
X58087671Y-136225030D01*
X58109850Y-136235520D01*
X58130893Y-136248132D01*
X58150599Y-136262747D01*
X58168777Y-136279223D01*
X58185253Y-136297401D01*
X58199868Y-136317107D01*
X58212480Y-136338150D01*
X58222970Y-136360329D01*
X58231235Y-136383428D01*
X58237196Y-136407227D01*
X58240796Y-136431495D01*
X58242000Y-136455999D01*
X58242000Y-137356001D01*
X58240796Y-137380505D01*
X58237196Y-137404773D01*
X58231235Y-137428572D01*
X58222970Y-137451671D01*
X58212480Y-137473850D01*
X58199868Y-137494893D01*
X58185253Y-137514599D01*
X58168777Y-137532777D01*
X58150599Y-137549253D01*
X58130893Y-137563868D01*
X58109850Y-137576480D01*
X58087671Y-137586970D01*
X58064572Y-137595235D01*
X58040773Y-137601196D01*
X58016505Y-137604796D01*
X57992001Y-137606000D01*
X57341999Y-137606000D01*
X57317495Y-137604796D01*
X57293227Y-137601196D01*
X57269428Y-137595235D01*
X57246329Y-137586970D01*
X57224150Y-137576480D01*
X57203107Y-137563868D01*
X57183401Y-137549253D01*
X57165223Y-137532777D01*
X57148747Y-137514599D01*
X57134132Y-137494893D01*
X57121520Y-137473850D01*
X57111030Y-137451671D01*
X57102765Y-137428572D01*
X57096804Y-137404773D01*
X57093204Y-137380505D01*
X57092000Y-137356001D01*
X57092000Y-136455999D01*
X57093204Y-136431495D01*
X57096804Y-136407227D01*
X57102765Y-136383428D01*
X57111030Y-136360329D01*
X57121520Y-136338150D01*
X57134132Y-136317107D01*
X57148747Y-136297401D01*
X57165223Y-136279223D01*
X57183401Y-136262747D01*
X57203107Y-136248132D01*
X57224150Y-136235520D01*
X57246329Y-136225030D01*
X57269428Y-136216765D01*
X57293227Y-136210804D01*
X57317495Y-136207204D01*
X57341999Y-136206000D01*
X57992001Y-136206000D01*
X58016505Y-136207204D01*
X58016505Y-136207204D01*
G37*
D18*
G04 #@! TD*
G04 #@! TO.P,C_BP5,2*
G04 #@! TO.N,+9V*
X57667000Y-136906000D03*
D19*
G04 #@! TO.P,J_IN1,4*
G04 #@! TO.N,/GND*
X103568500Y-123825000D03*
G04 #@! TO.P,J_IN1,3*
X103568500Y-112395000D03*
G04 #@! TO.P,J_IN1,2*
X90868500Y-112395000D03*
G04 #@! TO.P,J_IN1,1*
G04 #@! TO.N,/3PDT_2_EXT*
X90868500Y-123825000D03*
G04 #@! TD*
D20*
G04 #@! TO.P,J_PWR1,1*
G04 #@! TO.N,+9V*
X67310000Y-132715000D03*
D17*
G04 #@! TD*
G04 #@! TO.N,/GND*
G04 #@! TO.C,J_PWR1*
G36*
X62133513Y-130968611D02*
X62206318Y-130979411D01*
X62277714Y-130997295D01*
X62347013Y-131022090D01*
X62413548Y-131053559D01*
X62476678Y-131091398D01*
X62535795Y-131135242D01*
X62590330Y-131184670D01*
X62639758Y-131239205D01*
X62683602Y-131298322D01*
X62721441Y-131361452D01*
X62752910Y-131427987D01*
X62777705Y-131497286D01*
X62795589Y-131568682D01*
X62806389Y-131641487D01*
X62810000Y-131715000D01*
X62810000Y-133715000D01*
X62806389Y-133788513D01*
X62795589Y-133861318D01*
X62777705Y-133932714D01*
X62752910Y-134002013D01*
X62721441Y-134068548D01*
X62683602Y-134131678D01*
X62639758Y-134190795D01*
X62590330Y-134245330D01*
X62535795Y-134294758D01*
X62476678Y-134338602D01*
X62413548Y-134376441D01*
X62347013Y-134407910D01*
X62277714Y-134432705D01*
X62206318Y-134450589D01*
X62133513Y-134461389D01*
X62060000Y-134465000D01*
X60560000Y-134465000D01*
X60486487Y-134461389D01*
X60413682Y-134450589D01*
X60342286Y-134432705D01*
X60272987Y-134407910D01*
X60206452Y-134376441D01*
X60143322Y-134338602D01*
X60084205Y-134294758D01*
X60029670Y-134245330D01*
X59980242Y-134190795D01*
X59936398Y-134131678D01*
X59898559Y-134068548D01*
X59867090Y-134002013D01*
X59842295Y-133932714D01*
X59824411Y-133861318D01*
X59813611Y-133788513D01*
X59810000Y-133715000D01*
X59810000Y-131715000D01*
X59813611Y-131641487D01*
X59824411Y-131568682D01*
X59842295Y-131497286D01*
X59867090Y-131427987D01*
X59898559Y-131361452D01*
X59936398Y-131298322D01*
X59980242Y-131239205D01*
X60029670Y-131184670D01*
X60084205Y-131135242D01*
X60143322Y-131091398D01*
X60206452Y-131053559D01*
X60272987Y-131022090D01*
X60342286Y-130997295D01*
X60413682Y-130979411D01*
X60486487Y-130968611D01*
X60560000Y-130965000D01*
X62060000Y-130965000D01*
X62133513Y-130968611D01*
X62133513Y-130968611D01*
G37*
D19*
G04 #@! TO.P,J_PWR1,2*
G04 #@! TO.N,/GND*
X61310000Y-132715000D03*
D17*
G04 #@! TD*
G04 #@! TO.N,N/C*
G04 #@! TO.C,J_PWR1*
G36*
X65270765Y-126269213D02*
X65355704Y-126281813D01*
X65438999Y-126302677D01*
X65519848Y-126331605D01*
X65597472Y-126368319D01*
X65671124Y-126412464D01*
X65740094Y-126463616D01*
X65803718Y-126521282D01*
X65861384Y-126584906D01*
X65912536Y-126653876D01*
X65956681Y-126727528D01*
X65993395Y-126805152D01*
X66022323Y-126886001D01*
X66043187Y-126969296D01*
X66055787Y-127054235D01*
X66060000Y-127140000D01*
X66060000Y-128890000D01*
X66055787Y-128975765D01*
X66043187Y-129060704D01*
X66022323Y-129143999D01*
X65993395Y-129224848D01*
X65956681Y-129302472D01*
X65912536Y-129376124D01*
X65861384Y-129445094D01*
X65803718Y-129508718D01*
X65740094Y-129566384D01*
X65671124Y-129617536D01*
X65597472Y-129661681D01*
X65519848Y-129698395D01*
X65438999Y-129727323D01*
X65355704Y-129748187D01*
X65270765Y-129760787D01*
X65185000Y-129765000D01*
X63435000Y-129765000D01*
X63349235Y-129760787D01*
X63264296Y-129748187D01*
X63181001Y-129727323D01*
X63100152Y-129698395D01*
X63022528Y-129661681D01*
X62948876Y-129617536D01*
X62879906Y-129566384D01*
X62816282Y-129508718D01*
X62758616Y-129445094D01*
X62707464Y-129376124D01*
X62663319Y-129302472D01*
X62626605Y-129224848D01*
X62597677Y-129143999D01*
X62576813Y-129060704D01*
X62564213Y-128975765D01*
X62560000Y-128890000D01*
X62560000Y-127140000D01*
X62564213Y-127054235D01*
X62576813Y-126969296D01*
X62597677Y-126886001D01*
X62626605Y-126805152D01*
X62663319Y-126727528D01*
X62707464Y-126653876D01*
X62758616Y-126584906D01*
X62816282Y-126521282D01*
X62879906Y-126463616D01*
X62948876Y-126412464D01*
X63022528Y-126368319D01*
X63100152Y-126331605D01*
X63181001Y-126302677D01*
X63264296Y-126281813D01*
X63349235Y-126269213D01*
X63435000Y-126265000D01*
X65185000Y-126265000D01*
X65270765Y-126269213D01*
X65270765Y-126269213D01*
G37*
D21*
G04 #@! TO.P,J_PWR1,3*
G04 #@! TO.N,N/C*
X64310000Y-128015000D03*
G04 #@! TD*
D14*
G04 #@! TO.P,P_DEPTH1,3*
G04 #@! TO.N,/555PWMTremolo_Clock/CLK_OUT*
X92790000Y-83820000D03*
G04 #@! TO.P,P_DEPTH1,2*
G04 #@! TO.N,Net-(P_DEPTH1-Pad2)*
X95290000Y-83820000D03*
G04 #@! TO.P,P_DEPTH1,1*
G04 #@! TO.N,Net-(P_DEPTH1-Pad1)*
X97790000Y-83820000D03*
D22*
G04 #@! TO.P,P_DEPTH1,*
G04 #@! TO.N,*
X90540000Y-76320000D03*
X100040000Y-76320000D03*
G04 #@! TD*
G04 #@! TO.P,P_VOL1,*
G04 #@! TO.N,*
X90460000Y-105290000D03*
X99960000Y-105290000D03*
D14*
G04 #@! TO.P,P_VOL1,1*
G04 #@! TO.N,Net-(P_VOL1-Pad1)*
X92710000Y-97790000D03*
G04 #@! TO.P,P_VOL1,2*
X95210000Y-97790000D03*
G04 #@! TO.P,P_VOL1,3*
G04 #@! TO.N,/3PDT_6_EXT*
X97710000Y-97790000D03*
G04 #@! TD*
D17*
G04 #@! TO.N,/GND*
G04 #@! TO.C,R1*
G36*
X74305305Y-134937204D02*
X74329573Y-134940804D01*
X74353372Y-134946765D01*
X74376471Y-134955030D01*
X74398650Y-134965520D01*
X74419693Y-134978132D01*
X74439399Y-134992747D01*
X74457577Y-135009223D01*
X74474053Y-135027401D01*
X74488668Y-135047107D01*
X74501280Y-135068150D01*
X74511770Y-135090329D01*
X74520035Y-135113428D01*
X74525996Y-135137227D01*
X74529596Y-135161495D01*
X74530800Y-135185999D01*
X74530800Y-136086001D01*
X74529596Y-136110505D01*
X74525996Y-136134773D01*
X74520035Y-136158572D01*
X74511770Y-136181671D01*
X74501280Y-136203850D01*
X74488668Y-136224893D01*
X74474053Y-136244599D01*
X74457577Y-136262777D01*
X74439399Y-136279253D01*
X74419693Y-136293868D01*
X74398650Y-136306480D01*
X74376471Y-136316970D01*
X74353372Y-136325235D01*
X74329573Y-136331196D01*
X74305305Y-136334796D01*
X74280801Y-136336000D01*
X73630799Y-136336000D01*
X73606295Y-136334796D01*
X73582027Y-136331196D01*
X73558228Y-136325235D01*
X73535129Y-136316970D01*
X73512950Y-136306480D01*
X73491907Y-136293868D01*
X73472201Y-136279253D01*
X73454023Y-136262777D01*
X73437547Y-136244599D01*
X73422932Y-136224893D01*
X73410320Y-136203850D01*
X73399830Y-136181671D01*
X73391565Y-136158572D01*
X73385604Y-136134773D01*
X73382004Y-136110505D01*
X73380800Y-136086001D01*
X73380800Y-135185999D01*
X73382004Y-135161495D01*
X73385604Y-135137227D01*
X73391565Y-135113428D01*
X73399830Y-135090329D01*
X73410320Y-135068150D01*
X73422932Y-135047107D01*
X73437547Y-135027401D01*
X73454023Y-135009223D01*
X73472201Y-134992747D01*
X73491907Y-134978132D01*
X73512950Y-134965520D01*
X73535129Y-134955030D01*
X73558228Y-134946765D01*
X73582027Y-134940804D01*
X73606295Y-134937204D01*
X73630799Y-134936000D01*
X74280801Y-134936000D01*
X74305305Y-134937204D01*
X74305305Y-134937204D01*
G37*
D18*
G04 #@! TD*
G04 #@! TO.P,R1,2*
G04 #@! TO.N,/GND*
X73955800Y-135636000D03*
D17*
G04 #@! TO.N,Net-(R1-Pad1)*
G04 #@! TO.C,R1*
G36*
X76355305Y-134937204D02*
X76379573Y-134940804D01*
X76403372Y-134946765D01*
X76426471Y-134955030D01*
X76448650Y-134965520D01*
X76469693Y-134978132D01*
X76489399Y-134992747D01*
X76507577Y-135009223D01*
X76524053Y-135027401D01*
X76538668Y-135047107D01*
X76551280Y-135068150D01*
X76561770Y-135090329D01*
X76570035Y-135113428D01*
X76575996Y-135137227D01*
X76579596Y-135161495D01*
X76580800Y-135185999D01*
X76580800Y-136086001D01*
X76579596Y-136110505D01*
X76575996Y-136134773D01*
X76570035Y-136158572D01*
X76561770Y-136181671D01*
X76551280Y-136203850D01*
X76538668Y-136224893D01*
X76524053Y-136244599D01*
X76507577Y-136262777D01*
X76489399Y-136279253D01*
X76469693Y-136293868D01*
X76448650Y-136306480D01*
X76426471Y-136316970D01*
X76403372Y-136325235D01*
X76379573Y-136331196D01*
X76355305Y-136334796D01*
X76330801Y-136336000D01*
X75680799Y-136336000D01*
X75656295Y-136334796D01*
X75632027Y-136331196D01*
X75608228Y-136325235D01*
X75585129Y-136316970D01*
X75562950Y-136306480D01*
X75541907Y-136293868D01*
X75522201Y-136279253D01*
X75504023Y-136262777D01*
X75487547Y-136244599D01*
X75472932Y-136224893D01*
X75460320Y-136203850D01*
X75449830Y-136181671D01*
X75441565Y-136158572D01*
X75435604Y-136134773D01*
X75432004Y-136110505D01*
X75430800Y-136086001D01*
X75430800Y-135185999D01*
X75432004Y-135161495D01*
X75435604Y-135137227D01*
X75441565Y-135113428D01*
X75449830Y-135090329D01*
X75460320Y-135068150D01*
X75472932Y-135047107D01*
X75487547Y-135027401D01*
X75504023Y-135009223D01*
X75522201Y-134992747D01*
X75541907Y-134978132D01*
X75562950Y-134965520D01*
X75585129Y-134955030D01*
X75608228Y-134946765D01*
X75632027Y-134940804D01*
X75656295Y-134937204D01*
X75680799Y-134936000D01*
X76330801Y-134936000D01*
X76355305Y-134937204D01*
X76355305Y-134937204D01*
G37*
D18*
G04 #@! TD*
G04 #@! TO.P,R1,1*
G04 #@! TO.N,Net-(R1-Pad1)*
X76005800Y-135636000D03*
D17*
G04 #@! TO.N,+5V*
G04 #@! TO.C,R2*
G36*
X84940505Y-134937204D02*
X84964773Y-134940804D01*
X84988572Y-134946765D01*
X85011671Y-134955030D01*
X85033850Y-134965520D01*
X85054893Y-134978132D01*
X85074599Y-134992747D01*
X85092777Y-135009223D01*
X85109253Y-135027401D01*
X85123868Y-135047107D01*
X85136480Y-135068150D01*
X85146970Y-135090329D01*
X85155235Y-135113428D01*
X85161196Y-135137227D01*
X85164796Y-135161495D01*
X85166000Y-135185999D01*
X85166000Y-136086001D01*
X85164796Y-136110505D01*
X85161196Y-136134773D01*
X85155235Y-136158572D01*
X85146970Y-136181671D01*
X85136480Y-136203850D01*
X85123868Y-136224893D01*
X85109253Y-136244599D01*
X85092777Y-136262777D01*
X85074599Y-136279253D01*
X85054893Y-136293868D01*
X85033850Y-136306480D01*
X85011671Y-136316970D01*
X84988572Y-136325235D01*
X84964773Y-136331196D01*
X84940505Y-136334796D01*
X84916001Y-136336000D01*
X84265999Y-136336000D01*
X84241495Y-136334796D01*
X84217227Y-136331196D01*
X84193428Y-136325235D01*
X84170329Y-136316970D01*
X84148150Y-136306480D01*
X84127107Y-136293868D01*
X84107401Y-136279253D01*
X84089223Y-136262777D01*
X84072747Y-136244599D01*
X84058132Y-136224893D01*
X84045520Y-136203850D01*
X84035030Y-136181671D01*
X84026765Y-136158572D01*
X84020804Y-136134773D01*
X84017204Y-136110505D01*
X84016000Y-136086001D01*
X84016000Y-135185999D01*
X84017204Y-135161495D01*
X84020804Y-135137227D01*
X84026765Y-135113428D01*
X84035030Y-135090329D01*
X84045520Y-135068150D01*
X84058132Y-135047107D01*
X84072747Y-135027401D01*
X84089223Y-135009223D01*
X84107401Y-134992747D01*
X84127107Y-134978132D01*
X84148150Y-134965520D01*
X84170329Y-134955030D01*
X84193428Y-134946765D01*
X84217227Y-134940804D01*
X84241495Y-134937204D01*
X84265999Y-134936000D01*
X84916001Y-134936000D01*
X84940505Y-134937204D01*
X84940505Y-134937204D01*
G37*
D18*
G04 #@! TD*
G04 #@! TO.P,R2,1*
G04 #@! TO.N,+5V*
X84591000Y-135636000D03*
D17*
G04 #@! TO.N,Net-(R1-Pad1)*
G04 #@! TO.C,R2*
G36*
X82890505Y-134937204D02*
X82914773Y-134940804D01*
X82938572Y-134946765D01*
X82961671Y-134955030D01*
X82983850Y-134965520D01*
X83004893Y-134978132D01*
X83024599Y-134992747D01*
X83042777Y-135009223D01*
X83059253Y-135027401D01*
X83073868Y-135047107D01*
X83086480Y-135068150D01*
X83096970Y-135090329D01*
X83105235Y-135113428D01*
X83111196Y-135137227D01*
X83114796Y-135161495D01*
X83116000Y-135185999D01*
X83116000Y-136086001D01*
X83114796Y-136110505D01*
X83111196Y-136134773D01*
X83105235Y-136158572D01*
X83096970Y-136181671D01*
X83086480Y-136203850D01*
X83073868Y-136224893D01*
X83059253Y-136244599D01*
X83042777Y-136262777D01*
X83024599Y-136279253D01*
X83004893Y-136293868D01*
X82983850Y-136306480D01*
X82961671Y-136316970D01*
X82938572Y-136325235D01*
X82914773Y-136331196D01*
X82890505Y-136334796D01*
X82866001Y-136336000D01*
X82215999Y-136336000D01*
X82191495Y-136334796D01*
X82167227Y-136331196D01*
X82143428Y-136325235D01*
X82120329Y-136316970D01*
X82098150Y-136306480D01*
X82077107Y-136293868D01*
X82057401Y-136279253D01*
X82039223Y-136262777D01*
X82022747Y-136244599D01*
X82008132Y-136224893D01*
X81995520Y-136203850D01*
X81985030Y-136181671D01*
X81976765Y-136158572D01*
X81970804Y-136134773D01*
X81967204Y-136110505D01*
X81966000Y-136086001D01*
X81966000Y-135185999D01*
X81967204Y-135161495D01*
X81970804Y-135137227D01*
X81976765Y-135113428D01*
X81985030Y-135090329D01*
X81995520Y-135068150D01*
X82008132Y-135047107D01*
X82022747Y-135027401D01*
X82039223Y-135009223D01*
X82057401Y-134992747D01*
X82077107Y-134978132D01*
X82098150Y-134965520D01*
X82120329Y-134955030D01*
X82143428Y-134946765D01*
X82167227Y-134940804D01*
X82191495Y-134937204D01*
X82215999Y-134936000D01*
X82866001Y-134936000D01*
X82890505Y-134937204D01*
X82890505Y-134937204D01*
G37*
D18*
G04 #@! TD*
G04 #@! TO.P,R2,2*
G04 #@! TO.N,Net-(R1-Pad1)*
X82541000Y-135636000D03*
D17*
G04 #@! TO.N,Net-(R3-Pad1)*
G04 #@! TO.C,R3*
G36*
X102956505Y-133286204D02*
X102980773Y-133289804D01*
X103004572Y-133295765D01*
X103027671Y-133304030D01*
X103049850Y-133314520D01*
X103070893Y-133327132D01*
X103090599Y-133341747D01*
X103108777Y-133358223D01*
X103125253Y-133376401D01*
X103139868Y-133396107D01*
X103152480Y-133417150D01*
X103162970Y-133439329D01*
X103171235Y-133462428D01*
X103177196Y-133486227D01*
X103180796Y-133510495D01*
X103182000Y-133534999D01*
X103182000Y-134435001D01*
X103180796Y-134459505D01*
X103177196Y-134483773D01*
X103171235Y-134507572D01*
X103162970Y-134530671D01*
X103152480Y-134552850D01*
X103139868Y-134573893D01*
X103125253Y-134593599D01*
X103108777Y-134611777D01*
X103090599Y-134628253D01*
X103070893Y-134642868D01*
X103049850Y-134655480D01*
X103027671Y-134665970D01*
X103004572Y-134674235D01*
X102980773Y-134680196D01*
X102956505Y-134683796D01*
X102932001Y-134685000D01*
X102281999Y-134685000D01*
X102257495Y-134683796D01*
X102233227Y-134680196D01*
X102209428Y-134674235D01*
X102186329Y-134665970D01*
X102164150Y-134655480D01*
X102143107Y-134642868D01*
X102123401Y-134628253D01*
X102105223Y-134611777D01*
X102088747Y-134593599D01*
X102074132Y-134573893D01*
X102061520Y-134552850D01*
X102051030Y-134530671D01*
X102042765Y-134507572D01*
X102036804Y-134483773D01*
X102033204Y-134459505D01*
X102032000Y-134435001D01*
X102032000Y-133534999D01*
X102033204Y-133510495D01*
X102036804Y-133486227D01*
X102042765Y-133462428D01*
X102051030Y-133439329D01*
X102061520Y-133417150D01*
X102074132Y-133396107D01*
X102088747Y-133376401D01*
X102105223Y-133358223D01*
X102123401Y-133341747D01*
X102143107Y-133327132D01*
X102164150Y-133314520D01*
X102186329Y-133304030D01*
X102209428Y-133295765D01*
X102233227Y-133289804D01*
X102257495Y-133286204D01*
X102281999Y-133285000D01*
X102932001Y-133285000D01*
X102956505Y-133286204D01*
X102956505Y-133286204D01*
G37*
D18*
G04 #@! TD*
G04 #@! TO.P,R3,1*
G04 #@! TO.N,Net-(R3-Pad1)*
X102607000Y-133985000D03*
D17*
G04 #@! TO.N,/GND*
G04 #@! TO.C,R3*
G36*
X105006505Y-133286204D02*
X105030773Y-133289804D01*
X105054572Y-133295765D01*
X105077671Y-133304030D01*
X105099850Y-133314520D01*
X105120893Y-133327132D01*
X105140599Y-133341747D01*
X105158777Y-133358223D01*
X105175253Y-133376401D01*
X105189868Y-133396107D01*
X105202480Y-133417150D01*
X105212970Y-133439329D01*
X105221235Y-133462428D01*
X105227196Y-133486227D01*
X105230796Y-133510495D01*
X105232000Y-133534999D01*
X105232000Y-134435001D01*
X105230796Y-134459505D01*
X105227196Y-134483773D01*
X105221235Y-134507572D01*
X105212970Y-134530671D01*
X105202480Y-134552850D01*
X105189868Y-134573893D01*
X105175253Y-134593599D01*
X105158777Y-134611777D01*
X105140599Y-134628253D01*
X105120893Y-134642868D01*
X105099850Y-134655480D01*
X105077671Y-134665970D01*
X105054572Y-134674235D01*
X105030773Y-134680196D01*
X105006505Y-134683796D01*
X104982001Y-134685000D01*
X104331999Y-134685000D01*
X104307495Y-134683796D01*
X104283227Y-134680196D01*
X104259428Y-134674235D01*
X104236329Y-134665970D01*
X104214150Y-134655480D01*
X104193107Y-134642868D01*
X104173401Y-134628253D01*
X104155223Y-134611777D01*
X104138747Y-134593599D01*
X104124132Y-134573893D01*
X104111520Y-134552850D01*
X104101030Y-134530671D01*
X104092765Y-134507572D01*
X104086804Y-134483773D01*
X104083204Y-134459505D01*
X104082000Y-134435001D01*
X104082000Y-133534999D01*
X104083204Y-133510495D01*
X104086804Y-133486227D01*
X104092765Y-133462428D01*
X104101030Y-133439329D01*
X104111520Y-133417150D01*
X104124132Y-133396107D01*
X104138747Y-133376401D01*
X104155223Y-133358223D01*
X104173401Y-133341747D01*
X104193107Y-133327132D01*
X104214150Y-133314520D01*
X104236329Y-133304030D01*
X104259428Y-133295765D01*
X104283227Y-133289804D01*
X104307495Y-133286204D01*
X104331999Y-133285000D01*
X104982001Y-133285000D01*
X105006505Y-133286204D01*
X105006505Y-133286204D01*
G37*
D18*
G04 #@! TD*
G04 #@! TO.P,R3,2*
G04 #@! TO.N,/GND*
X104657000Y-133985000D03*
D17*
G04 #@! TO.N,Net-(R4-Pad1)*
G04 #@! TO.C,R4*
G36*
X95354505Y-133159204D02*
X95378773Y-133162804D01*
X95402572Y-133168765D01*
X95425671Y-133177030D01*
X95447850Y-133187520D01*
X95468893Y-133200132D01*
X95488599Y-133214747D01*
X95506777Y-133231223D01*
X95523253Y-133249401D01*
X95537868Y-133269107D01*
X95550480Y-133290150D01*
X95560970Y-133312329D01*
X95569235Y-133335428D01*
X95575196Y-133359227D01*
X95578796Y-133383495D01*
X95580000Y-133407999D01*
X95580000Y-134308001D01*
X95578796Y-134332505D01*
X95575196Y-134356773D01*
X95569235Y-134380572D01*
X95560970Y-134403671D01*
X95550480Y-134425850D01*
X95537868Y-134446893D01*
X95523253Y-134466599D01*
X95506777Y-134484777D01*
X95488599Y-134501253D01*
X95468893Y-134515868D01*
X95447850Y-134528480D01*
X95425671Y-134538970D01*
X95402572Y-134547235D01*
X95378773Y-134553196D01*
X95354505Y-134556796D01*
X95330001Y-134558000D01*
X94679999Y-134558000D01*
X94655495Y-134556796D01*
X94631227Y-134553196D01*
X94607428Y-134547235D01*
X94584329Y-134538970D01*
X94562150Y-134528480D01*
X94541107Y-134515868D01*
X94521401Y-134501253D01*
X94503223Y-134484777D01*
X94486747Y-134466599D01*
X94472132Y-134446893D01*
X94459520Y-134425850D01*
X94449030Y-134403671D01*
X94440765Y-134380572D01*
X94434804Y-134356773D01*
X94431204Y-134332505D01*
X94430000Y-134308001D01*
X94430000Y-133407999D01*
X94431204Y-133383495D01*
X94434804Y-133359227D01*
X94440765Y-133335428D01*
X94449030Y-133312329D01*
X94459520Y-133290150D01*
X94472132Y-133269107D01*
X94486747Y-133249401D01*
X94503223Y-133231223D01*
X94521401Y-133214747D01*
X94541107Y-133200132D01*
X94562150Y-133187520D01*
X94584329Y-133177030D01*
X94607428Y-133168765D01*
X94631227Y-133162804D01*
X94655495Y-133159204D01*
X94679999Y-133158000D01*
X95330001Y-133158000D01*
X95354505Y-133159204D01*
X95354505Y-133159204D01*
G37*
D18*
G04 #@! TD*
G04 #@! TO.P,R4,1*
G04 #@! TO.N,Net-(R4-Pad1)*
X95005000Y-133858000D03*
D17*
G04 #@! TO.N,-5V*
G04 #@! TO.C,R4*
G36*
X93304505Y-133159204D02*
X93328773Y-133162804D01*
X93352572Y-133168765D01*
X93375671Y-133177030D01*
X93397850Y-133187520D01*
X93418893Y-133200132D01*
X93438599Y-133214747D01*
X93456777Y-133231223D01*
X93473253Y-133249401D01*
X93487868Y-133269107D01*
X93500480Y-133290150D01*
X93510970Y-133312329D01*
X93519235Y-133335428D01*
X93525196Y-133359227D01*
X93528796Y-133383495D01*
X93530000Y-133407999D01*
X93530000Y-134308001D01*
X93528796Y-134332505D01*
X93525196Y-134356773D01*
X93519235Y-134380572D01*
X93510970Y-134403671D01*
X93500480Y-134425850D01*
X93487868Y-134446893D01*
X93473253Y-134466599D01*
X93456777Y-134484777D01*
X93438599Y-134501253D01*
X93418893Y-134515868D01*
X93397850Y-134528480D01*
X93375671Y-134538970D01*
X93352572Y-134547235D01*
X93328773Y-134553196D01*
X93304505Y-134556796D01*
X93280001Y-134558000D01*
X92629999Y-134558000D01*
X92605495Y-134556796D01*
X92581227Y-134553196D01*
X92557428Y-134547235D01*
X92534329Y-134538970D01*
X92512150Y-134528480D01*
X92491107Y-134515868D01*
X92471401Y-134501253D01*
X92453223Y-134484777D01*
X92436747Y-134466599D01*
X92422132Y-134446893D01*
X92409520Y-134425850D01*
X92399030Y-134403671D01*
X92390765Y-134380572D01*
X92384804Y-134356773D01*
X92381204Y-134332505D01*
X92380000Y-134308001D01*
X92380000Y-133407999D01*
X92381204Y-133383495D01*
X92384804Y-133359227D01*
X92390765Y-133335428D01*
X92399030Y-133312329D01*
X92409520Y-133290150D01*
X92422132Y-133269107D01*
X92436747Y-133249401D01*
X92453223Y-133231223D01*
X92471401Y-133214747D01*
X92491107Y-133200132D01*
X92512150Y-133187520D01*
X92534329Y-133177030D01*
X92557428Y-133168765D01*
X92581227Y-133162804D01*
X92605495Y-133159204D01*
X92629999Y-133158000D01*
X93280001Y-133158000D01*
X93304505Y-133159204D01*
X93304505Y-133159204D01*
G37*
D18*
G04 #@! TD*
G04 #@! TO.P,R4,2*
G04 #@! TO.N,-5V*
X92955000Y-133858000D03*
D17*
G04 #@! TO.N,Net-(R3-Pad1)*
G04 #@! TO.C,R5*
G36*
X100434505Y-133159204D02*
X100458773Y-133162804D01*
X100482572Y-133168765D01*
X100505671Y-133177030D01*
X100527850Y-133187520D01*
X100548893Y-133200132D01*
X100568599Y-133214747D01*
X100586777Y-133231223D01*
X100603253Y-133249401D01*
X100617868Y-133269107D01*
X100630480Y-133290150D01*
X100640970Y-133312329D01*
X100649235Y-133335428D01*
X100655196Y-133359227D01*
X100658796Y-133383495D01*
X100660000Y-133407999D01*
X100660000Y-134308001D01*
X100658796Y-134332505D01*
X100655196Y-134356773D01*
X100649235Y-134380572D01*
X100640970Y-134403671D01*
X100630480Y-134425850D01*
X100617868Y-134446893D01*
X100603253Y-134466599D01*
X100586777Y-134484777D01*
X100568599Y-134501253D01*
X100548893Y-134515868D01*
X100527850Y-134528480D01*
X100505671Y-134538970D01*
X100482572Y-134547235D01*
X100458773Y-134553196D01*
X100434505Y-134556796D01*
X100410001Y-134558000D01*
X99759999Y-134558000D01*
X99735495Y-134556796D01*
X99711227Y-134553196D01*
X99687428Y-134547235D01*
X99664329Y-134538970D01*
X99642150Y-134528480D01*
X99621107Y-134515868D01*
X99601401Y-134501253D01*
X99583223Y-134484777D01*
X99566747Y-134466599D01*
X99552132Y-134446893D01*
X99539520Y-134425850D01*
X99529030Y-134403671D01*
X99520765Y-134380572D01*
X99514804Y-134356773D01*
X99511204Y-134332505D01*
X99510000Y-134308001D01*
X99510000Y-133407999D01*
X99511204Y-133383495D01*
X99514804Y-133359227D01*
X99520765Y-133335428D01*
X99529030Y-133312329D01*
X99539520Y-133290150D01*
X99552132Y-133269107D01*
X99566747Y-133249401D01*
X99583223Y-133231223D01*
X99601401Y-133214747D01*
X99621107Y-133200132D01*
X99642150Y-133187520D01*
X99664329Y-133177030D01*
X99687428Y-133168765D01*
X99711227Y-133162804D01*
X99735495Y-133159204D01*
X99759999Y-133158000D01*
X100410001Y-133158000D01*
X100434505Y-133159204D01*
X100434505Y-133159204D01*
G37*
D18*
G04 #@! TD*
G04 #@! TO.P,R5,2*
G04 #@! TO.N,Net-(R3-Pad1)*
X100085000Y-133858000D03*
D17*
G04 #@! TO.N,Net-(R4-Pad1)*
G04 #@! TO.C,R5*
G36*
X98384505Y-133159204D02*
X98408773Y-133162804D01*
X98432572Y-133168765D01*
X98455671Y-133177030D01*
X98477850Y-133187520D01*
X98498893Y-133200132D01*
X98518599Y-133214747D01*
X98536777Y-133231223D01*
X98553253Y-133249401D01*
X98567868Y-133269107D01*
X98580480Y-133290150D01*
X98590970Y-133312329D01*
X98599235Y-133335428D01*
X98605196Y-133359227D01*
X98608796Y-133383495D01*
X98610000Y-133407999D01*
X98610000Y-134308001D01*
X98608796Y-134332505D01*
X98605196Y-134356773D01*
X98599235Y-134380572D01*
X98590970Y-134403671D01*
X98580480Y-134425850D01*
X98567868Y-134446893D01*
X98553253Y-134466599D01*
X98536777Y-134484777D01*
X98518599Y-134501253D01*
X98498893Y-134515868D01*
X98477850Y-134528480D01*
X98455671Y-134538970D01*
X98432572Y-134547235D01*
X98408773Y-134553196D01*
X98384505Y-134556796D01*
X98360001Y-134558000D01*
X97709999Y-134558000D01*
X97685495Y-134556796D01*
X97661227Y-134553196D01*
X97637428Y-134547235D01*
X97614329Y-134538970D01*
X97592150Y-134528480D01*
X97571107Y-134515868D01*
X97551401Y-134501253D01*
X97533223Y-134484777D01*
X97516747Y-134466599D01*
X97502132Y-134446893D01*
X97489520Y-134425850D01*
X97479030Y-134403671D01*
X97470765Y-134380572D01*
X97464804Y-134356773D01*
X97461204Y-134332505D01*
X97460000Y-134308001D01*
X97460000Y-133407999D01*
X97461204Y-133383495D01*
X97464804Y-133359227D01*
X97470765Y-133335428D01*
X97479030Y-133312329D01*
X97489520Y-133290150D01*
X97502132Y-133269107D01*
X97516747Y-133249401D01*
X97533223Y-133231223D01*
X97551401Y-133214747D01*
X97571107Y-133200132D01*
X97592150Y-133187520D01*
X97614329Y-133177030D01*
X97637428Y-133168765D01*
X97661227Y-133162804D01*
X97685495Y-133159204D01*
X97709999Y-133158000D01*
X98360001Y-133158000D01*
X98384505Y-133159204D01*
X98384505Y-133159204D01*
G37*
D18*
G04 #@! TD*
G04 #@! TO.P,R5,1*
G04 #@! TO.N,Net-(R4-Pad1)*
X98035000Y-133858000D03*
D23*
G04 #@! TO.P,U_BUF1,8*
G04 #@! TO.N,+5V*
X77724000Y-107536000D03*
G04 #@! TO.P,U_BUF1,7*
G04 #@! TO.N,/3PDT_6_EXT*
X78994000Y-107536000D03*
G04 #@! TO.P,U_BUF1,6*
G04 #@! TO.N,Net-(P_VOL1-Pad1)*
X80264000Y-107536000D03*
G04 #@! TO.P,U_BUF1,5*
G04 #@! TO.N,Net-(P_DEPTH1-Pad2)*
X81534000Y-107536000D03*
G04 #@! TO.P,U_BUF1,4*
G04 #@! TO.N,-5V*
X81534000Y-112936000D03*
G04 #@! TO.P,U_BUF1,3*
G04 #@! TO.N,/3PDT_3_EXT*
X80264000Y-112936000D03*
G04 #@! TO.P,U_BUF1,2*
G04 #@! TO.N,Net-(P_DEPTH1-Pad1)*
X78994000Y-112936000D03*
G04 #@! TO.P,U_BUF1,1*
X77724000Y-112936000D03*
G04 #@! TD*
D16*
G04 #@! TO.P,U_PREG1,2*
G04 #@! TO.N,+5V*
X83731500Y-141351000D03*
D15*
X77431500Y-141351000D03*
G04 #@! TO.P,U_PREG1,3*
G04 #@! TO.N,+9V*
X77431500Y-143651000D03*
G04 #@! TO.P,U_PREG1,1*
G04 #@! TO.N,Net-(R1-Pad1)*
X77431500Y-139051000D03*
G04 #@! TD*
D24*
G04 #@! TO.P,CP_INV1,2*
G04 #@! TO.N,Net-(CP_INV1-Pad2)*
X59839000Y-144272000D03*
G04 #@! TO.P,CP_INV1,1*
G04 #@! TO.N,Net-(CP_INV1-Pad1)*
X56239000Y-144272000D03*
G04 #@! TD*
G04 #@! TO.P,CP_INV2,1*
G04 #@! TO.N,/GND*
X68856000Y-144272000D03*
G04 #@! TO.P,CP_INV2,2*
G04 #@! TO.N,-9V*
X65256000Y-144272000D03*
G04 #@! TD*
D17*
G04 #@! TO.N,Net-(C_OSC2-Pad1)*
G04 #@! TO.C,C_OSC2*
G36*
X71467505Y-91365204D02*
X71491773Y-91368804D01*
X71515572Y-91374765D01*
X71538671Y-91383030D01*
X71560850Y-91393520D01*
X71581893Y-91406132D01*
X71601599Y-91420747D01*
X71619777Y-91437223D01*
X71636253Y-91455401D01*
X71650868Y-91475107D01*
X71663480Y-91496150D01*
X71673970Y-91518329D01*
X71682235Y-91541428D01*
X71688196Y-91565227D01*
X71691796Y-91589495D01*
X71693000Y-91613999D01*
X71693000Y-92264001D01*
X71691796Y-92288505D01*
X71688196Y-92312773D01*
X71682235Y-92336572D01*
X71673970Y-92359671D01*
X71663480Y-92381850D01*
X71650868Y-92402893D01*
X71636253Y-92422599D01*
X71619777Y-92440777D01*
X71601599Y-92457253D01*
X71581893Y-92471868D01*
X71560850Y-92484480D01*
X71538671Y-92494970D01*
X71515572Y-92503235D01*
X71491773Y-92509196D01*
X71467505Y-92512796D01*
X71443001Y-92514000D01*
X70542999Y-92514000D01*
X70518495Y-92512796D01*
X70494227Y-92509196D01*
X70470428Y-92503235D01*
X70447329Y-92494970D01*
X70425150Y-92484480D01*
X70404107Y-92471868D01*
X70384401Y-92457253D01*
X70366223Y-92440777D01*
X70349747Y-92422599D01*
X70335132Y-92402893D01*
X70322520Y-92381850D01*
X70312030Y-92359671D01*
X70303765Y-92336572D01*
X70297804Y-92312773D01*
X70294204Y-92288505D01*
X70293000Y-92264001D01*
X70293000Y-91613999D01*
X70294204Y-91589495D01*
X70297804Y-91565227D01*
X70303765Y-91541428D01*
X70312030Y-91518329D01*
X70322520Y-91496150D01*
X70335132Y-91475107D01*
X70349747Y-91455401D01*
X70366223Y-91437223D01*
X70384401Y-91420747D01*
X70404107Y-91406132D01*
X70425150Y-91393520D01*
X70447329Y-91383030D01*
X70470428Y-91374765D01*
X70494227Y-91368804D01*
X70518495Y-91365204D01*
X70542999Y-91364000D01*
X71443001Y-91364000D01*
X71467505Y-91365204D01*
X71467505Y-91365204D01*
G37*
D18*
G04 #@! TD*
G04 #@! TO.P,C_OSC2,1*
G04 #@! TO.N,Net-(C_OSC2-Pad1)*
X70993000Y-91939000D03*
D17*
G04 #@! TO.N,/GND*
G04 #@! TO.C,C_OSC2*
G36*
X71467910Y-93415202D02*
X71492135Y-93418795D01*
X71515891Y-93424746D01*
X71538949Y-93432996D01*
X71561087Y-93443467D01*
X71582093Y-93456057D01*
X71601763Y-93470645D01*
X71619908Y-93487092D01*
X71636355Y-93505237D01*
X71650943Y-93524907D01*
X71663533Y-93545913D01*
X71674004Y-93568051D01*
X71682254Y-93591109D01*
X71688205Y-93614865D01*
X71691798Y-93639090D01*
X71693000Y-93663550D01*
X71693000Y-94314450D01*
X71691798Y-94338910D01*
X71688205Y-94363135D01*
X71682254Y-94386891D01*
X71674004Y-94409949D01*
X71663533Y-94432087D01*
X71650943Y-94453093D01*
X71636355Y-94472763D01*
X71619908Y-94490908D01*
X71601763Y-94507355D01*
X71582093Y-94521943D01*
X71561087Y-94534533D01*
X71538949Y-94545004D01*
X71515891Y-94553254D01*
X71492135Y-94559205D01*
X71467910Y-94562798D01*
X71443450Y-94564000D01*
X70542550Y-94564000D01*
X70518090Y-94562798D01*
X70493865Y-94559205D01*
X70470109Y-94553254D01*
X70447051Y-94545004D01*
X70424913Y-94534533D01*
X70403907Y-94521943D01*
X70384237Y-94507355D01*
X70366092Y-94490908D01*
X70349645Y-94472763D01*
X70335057Y-94453093D01*
X70322467Y-94432087D01*
X70311996Y-94409949D01*
X70303746Y-94386891D01*
X70297795Y-94363135D01*
X70294202Y-94338910D01*
X70293000Y-94314450D01*
X70293000Y-93663550D01*
X70294202Y-93639090D01*
X70297795Y-93614865D01*
X70303746Y-93591109D01*
X70311996Y-93568051D01*
X70322467Y-93545913D01*
X70335057Y-93524907D01*
X70349645Y-93505237D01*
X70366092Y-93487092D01*
X70384237Y-93470645D01*
X70403907Y-93456057D01*
X70424913Y-93443467D01*
X70447051Y-93432996D01*
X70470109Y-93424746D01*
X70493865Y-93418795D01*
X70518090Y-93415202D01*
X70542550Y-93414000D01*
X71443450Y-93414000D01*
X71467910Y-93415202D01*
X71467910Y-93415202D01*
G37*
D18*
G04 #@! TD*
G04 #@! TO.P,C_OSC2,2*
G04 #@! TO.N,/GND*
X70993000Y-93989000D03*
D17*
G04 #@! TO.N,Net-(C_BP1-Pad1)*
G04 #@! TO.C,R_OSCOFF1*
G36*
X64348505Y-94043204D02*
X64372773Y-94046804D01*
X64396572Y-94052765D01*
X64419671Y-94061030D01*
X64441850Y-94071520D01*
X64462893Y-94084132D01*
X64482599Y-94098747D01*
X64500777Y-94115223D01*
X64517253Y-94133401D01*
X64531868Y-94153107D01*
X64544480Y-94174150D01*
X64554970Y-94196329D01*
X64563235Y-94219428D01*
X64569196Y-94243227D01*
X64572796Y-94267495D01*
X64574000Y-94291999D01*
X64574000Y-95192001D01*
X64572796Y-95216505D01*
X64569196Y-95240773D01*
X64563235Y-95264572D01*
X64554970Y-95287671D01*
X64544480Y-95309850D01*
X64531868Y-95330893D01*
X64517253Y-95350599D01*
X64500777Y-95368777D01*
X64482599Y-95385253D01*
X64462893Y-95399868D01*
X64441850Y-95412480D01*
X64419671Y-95422970D01*
X64396572Y-95431235D01*
X64372773Y-95437196D01*
X64348505Y-95440796D01*
X64324001Y-95442000D01*
X63673999Y-95442000D01*
X63649495Y-95440796D01*
X63625227Y-95437196D01*
X63601428Y-95431235D01*
X63578329Y-95422970D01*
X63556150Y-95412480D01*
X63535107Y-95399868D01*
X63515401Y-95385253D01*
X63497223Y-95368777D01*
X63480747Y-95350599D01*
X63466132Y-95330893D01*
X63453520Y-95309850D01*
X63443030Y-95287671D01*
X63434765Y-95264572D01*
X63428804Y-95240773D01*
X63425204Y-95216505D01*
X63424000Y-95192001D01*
X63424000Y-94291999D01*
X63425204Y-94267495D01*
X63428804Y-94243227D01*
X63434765Y-94219428D01*
X63443030Y-94196329D01*
X63453520Y-94174150D01*
X63466132Y-94153107D01*
X63480747Y-94133401D01*
X63497223Y-94115223D01*
X63515401Y-94098747D01*
X63535107Y-94084132D01*
X63556150Y-94071520D01*
X63578329Y-94061030D01*
X63601428Y-94052765D01*
X63625227Y-94046804D01*
X63649495Y-94043204D01*
X63673999Y-94042000D01*
X64324001Y-94042000D01*
X64348505Y-94043204D01*
X64348505Y-94043204D01*
G37*
D18*
G04 #@! TD*
G04 #@! TO.P,R_OSCOFF1,2*
G04 #@! TO.N,Net-(C_BP1-Pad1)*
X63999000Y-94742000D03*
D17*
G04 #@! TO.N,Net-(P_OSCOFF1-Pad1)*
G04 #@! TO.C,R_OSCOFF1*
G36*
X66398505Y-94043204D02*
X66422773Y-94046804D01*
X66446572Y-94052765D01*
X66469671Y-94061030D01*
X66491850Y-94071520D01*
X66512893Y-94084132D01*
X66532599Y-94098747D01*
X66550777Y-94115223D01*
X66567253Y-94133401D01*
X66581868Y-94153107D01*
X66594480Y-94174150D01*
X66604970Y-94196329D01*
X66613235Y-94219428D01*
X66619196Y-94243227D01*
X66622796Y-94267495D01*
X66624000Y-94291999D01*
X66624000Y-95192001D01*
X66622796Y-95216505D01*
X66619196Y-95240773D01*
X66613235Y-95264572D01*
X66604970Y-95287671D01*
X66594480Y-95309850D01*
X66581868Y-95330893D01*
X66567253Y-95350599D01*
X66550777Y-95368777D01*
X66532599Y-95385253D01*
X66512893Y-95399868D01*
X66491850Y-95412480D01*
X66469671Y-95422970D01*
X66446572Y-95431235D01*
X66422773Y-95437196D01*
X66398505Y-95440796D01*
X66374001Y-95442000D01*
X65723999Y-95442000D01*
X65699495Y-95440796D01*
X65675227Y-95437196D01*
X65651428Y-95431235D01*
X65628329Y-95422970D01*
X65606150Y-95412480D01*
X65585107Y-95399868D01*
X65565401Y-95385253D01*
X65547223Y-95368777D01*
X65530747Y-95350599D01*
X65516132Y-95330893D01*
X65503520Y-95309850D01*
X65493030Y-95287671D01*
X65484765Y-95264572D01*
X65478804Y-95240773D01*
X65475204Y-95216505D01*
X65474000Y-95192001D01*
X65474000Y-94291999D01*
X65475204Y-94267495D01*
X65478804Y-94243227D01*
X65484765Y-94219428D01*
X65493030Y-94196329D01*
X65503520Y-94174150D01*
X65516132Y-94153107D01*
X65530747Y-94133401D01*
X65547223Y-94115223D01*
X65565401Y-94098747D01*
X65585107Y-94084132D01*
X65606150Y-94071520D01*
X65628329Y-94061030D01*
X65651428Y-94052765D01*
X65675227Y-94046804D01*
X65699495Y-94043204D01*
X65723999Y-94042000D01*
X66374001Y-94042000D01*
X66398505Y-94043204D01*
X66398505Y-94043204D01*
G37*
D18*
G04 #@! TD*
G04 #@! TO.P,R_OSCOFF1,1*
G04 #@! TO.N,Net-(P_OSCOFF1-Pad1)*
X66049000Y-94742000D03*
D17*
G04 #@! TO.N,Net-(P_OSCON1-Pad1)*
G04 #@! TO.C,R_OSCON1*
G36*
X57998505Y-88709204D02*
X58022773Y-88712804D01*
X58046572Y-88718765D01*
X58069671Y-88727030D01*
X58091850Y-88737520D01*
X58112893Y-88750132D01*
X58132599Y-88764747D01*
X58150777Y-88781223D01*
X58167253Y-88799401D01*
X58181868Y-88819107D01*
X58194480Y-88840150D01*
X58204970Y-88862329D01*
X58213235Y-88885428D01*
X58219196Y-88909227D01*
X58222796Y-88933495D01*
X58224000Y-88957999D01*
X58224000Y-89858001D01*
X58222796Y-89882505D01*
X58219196Y-89906773D01*
X58213235Y-89930572D01*
X58204970Y-89953671D01*
X58194480Y-89975850D01*
X58181868Y-89996893D01*
X58167253Y-90016599D01*
X58150777Y-90034777D01*
X58132599Y-90051253D01*
X58112893Y-90065868D01*
X58091850Y-90078480D01*
X58069671Y-90088970D01*
X58046572Y-90097235D01*
X58022773Y-90103196D01*
X57998505Y-90106796D01*
X57974001Y-90108000D01*
X57323999Y-90108000D01*
X57299495Y-90106796D01*
X57275227Y-90103196D01*
X57251428Y-90097235D01*
X57228329Y-90088970D01*
X57206150Y-90078480D01*
X57185107Y-90065868D01*
X57165401Y-90051253D01*
X57147223Y-90034777D01*
X57130747Y-90016599D01*
X57116132Y-89996893D01*
X57103520Y-89975850D01*
X57093030Y-89953671D01*
X57084765Y-89930572D01*
X57078804Y-89906773D01*
X57075204Y-89882505D01*
X57074000Y-89858001D01*
X57074000Y-88957999D01*
X57075204Y-88933495D01*
X57078804Y-88909227D01*
X57084765Y-88885428D01*
X57093030Y-88862329D01*
X57103520Y-88840150D01*
X57116132Y-88819107D01*
X57130747Y-88799401D01*
X57147223Y-88781223D01*
X57165401Y-88764747D01*
X57185107Y-88750132D01*
X57206150Y-88737520D01*
X57228329Y-88727030D01*
X57251428Y-88718765D01*
X57275227Y-88712804D01*
X57299495Y-88709204D01*
X57323999Y-88708000D01*
X57974001Y-88708000D01*
X57998505Y-88709204D01*
X57998505Y-88709204D01*
G37*
D18*
G04 #@! TD*
G04 #@! TO.P,R_OSCON1,1*
G04 #@! TO.N,Net-(P_OSCON1-Pad1)*
X57649000Y-89408000D03*
D17*
G04 #@! TO.N,Net-(C_OSC1-Pad1)*
G04 #@! TO.C,R_OSCON1*
G36*
X60048505Y-88709204D02*
X60072773Y-88712804D01*
X60096572Y-88718765D01*
X60119671Y-88727030D01*
X60141850Y-88737520D01*
X60162893Y-88750132D01*
X60182599Y-88764747D01*
X60200777Y-88781223D01*
X60217253Y-88799401D01*
X60231868Y-88819107D01*
X60244480Y-88840150D01*
X60254970Y-88862329D01*
X60263235Y-88885428D01*
X60269196Y-88909227D01*
X60272796Y-88933495D01*
X60274000Y-88957999D01*
X60274000Y-89858001D01*
X60272796Y-89882505D01*
X60269196Y-89906773D01*
X60263235Y-89930572D01*
X60254970Y-89953671D01*
X60244480Y-89975850D01*
X60231868Y-89996893D01*
X60217253Y-90016599D01*
X60200777Y-90034777D01*
X60182599Y-90051253D01*
X60162893Y-90065868D01*
X60141850Y-90078480D01*
X60119671Y-90088970D01*
X60096572Y-90097235D01*
X60072773Y-90103196D01*
X60048505Y-90106796D01*
X60024001Y-90108000D01*
X59373999Y-90108000D01*
X59349495Y-90106796D01*
X59325227Y-90103196D01*
X59301428Y-90097235D01*
X59278329Y-90088970D01*
X59256150Y-90078480D01*
X59235107Y-90065868D01*
X59215401Y-90051253D01*
X59197223Y-90034777D01*
X59180747Y-90016599D01*
X59166132Y-89996893D01*
X59153520Y-89975850D01*
X59143030Y-89953671D01*
X59134765Y-89930572D01*
X59128804Y-89906773D01*
X59125204Y-89882505D01*
X59124000Y-89858001D01*
X59124000Y-88957999D01*
X59125204Y-88933495D01*
X59128804Y-88909227D01*
X59134765Y-88885428D01*
X59143030Y-88862329D01*
X59153520Y-88840150D01*
X59166132Y-88819107D01*
X59180747Y-88799401D01*
X59197223Y-88781223D01*
X59215401Y-88764747D01*
X59235107Y-88750132D01*
X59256150Y-88737520D01*
X59278329Y-88727030D01*
X59301428Y-88718765D01*
X59325227Y-88712804D01*
X59349495Y-88709204D01*
X59373999Y-88708000D01*
X60024001Y-88708000D01*
X60048505Y-88709204D01*
X60048505Y-88709204D01*
G37*
D18*
G04 #@! TD*
G04 #@! TO.P,R_OSCON1,2*
G04 #@! TO.N,Net-(C_OSC1-Pad1)*
X59699000Y-89408000D03*
D25*
G04 #@! TO.P,U_OSC1,1*
G04 #@! TO.N,/GND*
X62324000Y-88138000D03*
G04 #@! TO.P,U_OSC1,2*
G04 #@! TO.N,Net-(C_OSC1-Pad1)*
X62324000Y-89408000D03*
G04 #@! TO.P,U_OSC1,3*
G04 #@! TO.N,Net-(R_LPF1-Pad2)*
X62324000Y-90678000D03*
G04 #@! TO.P,U_OSC1,4*
G04 #@! TO.N,Net-(C_BP1-Pad1)*
X62324000Y-91948000D03*
G04 #@! TO.P,U_OSC1,5*
G04 #@! TO.N,Net-(C_OSC2-Pad1)*
X67724000Y-91948000D03*
G04 #@! TO.P,U_OSC1,6*
G04 #@! TO.N,Net-(C_OSC1-Pad1)*
X67724000Y-90678000D03*
G04 #@! TO.P,U_OSC1,7*
G04 #@! TO.N,Net-(P_OSCOFF1-Pad3)*
X67724000Y-89408000D03*
G04 #@! TO.P,U_OSC1,8*
G04 #@! TO.N,Net-(C_BP1-Pad1)*
X67724000Y-88138000D03*
G04 #@! TD*
D22*
G04 #@! TO.P,P_OSCOFF1,*
G04 #@! TO.N,*
X61250000Y-105290000D03*
X70750000Y-105290000D03*
D14*
G04 #@! TO.P,P_OSCOFF1,1*
G04 #@! TO.N,Net-(P_OSCOFF1-Pad1)*
X63500000Y-97790000D03*
G04 #@! TO.P,P_OSCOFF1,2*
X66000000Y-97790000D03*
G04 #@! TO.P,P_OSCOFF1,3*
G04 #@! TO.N,Net-(P_OSCOFF1-Pad3)*
X68500000Y-97790000D03*
G04 #@! TD*
G04 #@! TO.P,P_OSCON1,3*
G04 #@! TO.N,Net-(P_OSCOFF1-Pad3)*
X63580000Y-83820000D03*
G04 #@! TO.P,P_OSCON1,2*
G04 #@! TO.N,Net-(P_OSCON1-Pad1)*
X66080000Y-83820000D03*
G04 #@! TO.P,P_OSCON1,1*
X68580000Y-83820000D03*
D22*
G04 #@! TO.P,P_OSCON1,*
G04 #@! TO.N,*
X61330000Y-76320000D03*
X70830000Y-76320000D03*
G04 #@! TD*
D25*
G04 #@! TO.P,U_INV1,8*
G04 #@! TO.N,+9V*
X65184000Y-136906000D03*
G04 #@! TO.P,U_INV1,7*
G04 #@! TO.N,N/C*
X65184000Y-138176000D03*
G04 #@! TO.P,U_INV1,6*
G04 #@! TO.N,/GND*
X65184000Y-139446000D03*
G04 #@! TO.P,U_INV1,5*
G04 #@! TO.N,-9V*
X65184000Y-140716000D03*
G04 #@! TO.P,U_INV1,4*
G04 #@! TO.N,Net-(CP_INV1-Pad2)*
X59784000Y-140716000D03*
G04 #@! TO.P,U_INV1,3*
G04 #@! TO.N,/GND*
X59784000Y-139446000D03*
G04 #@! TO.P,U_INV1,2*
G04 #@! TO.N,Net-(CP_INV1-Pad1)*
X59784000Y-138176000D03*
G04 #@! TO.P,U_INV1,1*
G04 #@! TO.N,+9V*
X59784000Y-136906000D03*
G04 #@! TD*
D26*
G04 #@! TO.P,U_OPTO1,4*
G04 #@! TO.N,/555PWMTremolo_Clock/CLK_OUT*
X83795000Y-73660000D03*
G04 #@! TO.P,U_OPTO1,3*
G04 #@! TO.N,/GND*
X83795000Y-74930000D03*
G04 #@! TO.P,U_OPTO1,2*
X77495000Y-74930000D03*
G04 #@! TO.P,U_OPTO1,1*
G04 #@! TO.N,Net-(C_LPFOPT2-Pad1)*
X77495000Y-73660000D03*
G04 #@! TD*
D19*
G04 #@! TO.P,J_OUT1,1*
G04 #@! TO.N,/3PDT_5_EXT*
X70421500Y-112395000D03*
G04 #@! TO.P,J_OUT1,2*
G04 #@! TO.N,/GND*
X70421500Y-123825000D03*
G04 #@! TO.P,J_OUT1,3*
X57721500Y-123825000D03*
G04 #@! TO.P,J_OUT1,4*
X57721500Y-112395000D03*
G04 #@! TD*
D24*
G04 #@! TO.P,CP_FAST1,1*
G04 #@! TO.N,Net-(CP_FAST1-Pad1)*
X81766000Y-91440000D03*
G04 #@! TO.P,CP_FAST1,2*
G04 #@! TO.N,/GND*
X85366000Y-91440000D03*
G04 #@! TD*
D27*
G04 #@! TO.P,CP_SLOW1,1*
G04 #@! TO.N,Net-(CP_SLOW1-Pad1)*
X92450000Y-90678000D03*
G04 #@! TO.P,CP_SLOW1,2*
G04 #@! TO.N,/GND*
X98050000Y-90678000D03*
G04 #@! TD*
D28*
G04 #@! TO.P,SW_ATTACK1,2*
G04 #@! TO.N,Net-(C_LPFOPT2-Pad1)*
X80645000Y-85344000D03*
G04 #@! TO.P,SW_ATTACK1,3*
G04 #@! TO.N,Net-(CP_SLOW1-Pad1)*
X83185000Y-85344000D03*
G04 #@! TO.P,SW_ATTACK1,1*
G04 #@! TO.N,Net-(CP_FAST1-Pad1)*
X78105000Y-85344000D03*
G04 #@! TD*
D11*
G04 #@! TO.P,J_MAINTOAUX1,1*
G04 #@! TO.N,/3PDT_4_EXT*
X86995000Y-128651000D03*
D10*
G04 #@! TO.P,J_MAINTOAUX1,2*
G04 #@! TO.N,/3PDT_2_EXT*
X84455000Y-128651000D03*
G04 #@! TO.P,J_MAINTOAUX1,3*
G04 #@! TO.N,/3PDT_3_EXT*
X81915000Y-128651000D03*
G04 #@! TO.P,J_MAINTOAUX1,4*
G04 #@! TO.N,/3PDT_4_EXT*
X79375000Y-128651000D03*
G04 #@! TO.P,J_MAINTOAUX1,5*
G04 #@! TO.N,/3PDT_5_EXT*
X76835000Y-128651000D03*
G04 #@! TO.P,J_MAINTOAUX1,6*
G04 #@! TO.N,/3PDT_6_EXT*
X76835000Y-131191000D03*
G04 #@! TO.P,J_MAINTOAUX1,7*
G04 #@! TO.N,N/C*
X79375000Y-131191000D03*
G04 #@! TO.P,J_MAINTOAUX1,8*
G04 #@! TO.N,/3PDT_8_EXT*
X81915000Y-131191000D03*
G04 #@! TO.P,J_MAINTOAUX1,9*
G04 #@! TO.N,+5V*
X84455000Y-131191000D03*
G04 #@! TO.P,J_MAINTOAUX1,10*
G04 #@! TO.N,N/C*
X86995000Y-131191000D03*
G04 #@! TD*
D17*
G04 #@! TO.N,Net-(C_BP1-Pad1)*
G04 #@! TO.C,C_BP2*
G36*
X73626505Y-87573204D02*
X73650773Y-87576804D01*
X73674572Y-87582765D01*
X73697671Y-87591030D01*
X73719850Y-87601520D01*
X73740893Y-87614132D01*
X73760599Y-87628747D01*
X73778777Y-87645223D01*
X73795253Y-87663401D01*
X73809868Y-87683107D01*
X73822480Y-87704150D01*
X73832970Y-87726329D01*
X73841235Y-87749428D01*
X73847196Y-87773227D01*
X73850796Y-87797495D01*
X73852000Y-87821999D01*
X73852000Y-88472001D01*
X73850796Y-88496505D01*
X73847196Y-88520773D01*
X73841235Y-88544572D01*
X73832970Y-88567671D01*
X73822480Y-88589850D01*
X73809868Y-88610893D01*
X73795253Y-88630599D01*
X73778777Y-88648777D01*
X73760599Y-88665253D01*
X73740893Y-88679868D01*
X73719850Y-88692480D01*
X73697671Y-88702970D01*
X73674572Y-88711235D01*
X73650773Y-88717196D01*
X73626505Y-88720796D01*
X73602001Y-88722000D01*
X72701999Y-88722000D01*
X72677495Y-88720796D01*
X72653227Y-88717196D01*
X72629428Y-88711235D01*
X72606329Y-88702970D01*
X72584150Y-88692480D01*
X72563107Y-88679868D01*
X72543401Y-88665253D01*
X72525223Y-88648777D01*
X72508747Y-88630599D01*
X72494132Y-88610893D01*
X72481520Y-88589850D01*
X72471030Y-88567671D01*
X72462765Y-88544572D01*
X72456804Y-88520773D01*
X72453204Y-88496505D01*
X72452000Y-88472001D01*
X72452000Y-87821999D01*
X72453204Y-87797495D01*
X72456804Y-87773227D01*
X72462765Y-87749428D01*
X72471030Y-87726329D01*
X72481520Y-87704150D01*
X72494132Y-87683107D01*
X72508747Y-87663401D01*
X72525223Y-87645223D01*
X72543401Y-87628747D01*
X72563107Y-87614132D01*
X72584150Y-87601520D01*
X72606329Y-87591030D01*
X72629428Y-87582765D01*
X72653227Y-87576804D01*
X72677495Y-87573204D01*
X72701999Y-87572000D01*
X73602001Y-87572000D01*
X73626505Y-87573204D01*
X73626505Y-87573204D01*
G37*
D18*
G04 #@! TD*
G04 #@! TO.P,C_BP2,1*
G04 #@! TO.N,Net-(C_BP1-Pad1)*
X73152000Y-88147000D03*
D17*
G04 #@! TO.N,/GND*
G04 #@! TO.C,C_BP2*
G36*
X73626505Y-85523204D02*
X73650773Y-85526804D01*
X73674572Y-85532765D01*
X73697671Y-85541030D01*
X73719850Y-85551520D01*
X73740893Y-85564132D01*
X73760599Y-85578747D01*
X73778777Y-85595223D01*
X73795253Y-85613401D01*
X73809868Y-85633107D01*
X73822480Y-85654150D01*
X73832970Y-85676329D01*
X73841235Y-85699428D01*
X73847196Y-85723227D01*
X73850796Y-85747495D01*
X73852000Y-85771999D01*
X73852000Y-86422001D01*
X73850796Y-86446505D01*
X73847196Y-86470773D01*
X73841235Y-86494572D01*
X73832970Y-86517671D01*
X73822480Y-86539850D01*
X73809868Y-86560893D01*
X73795253Y-86580599D01*
X73778777Y-86598777D01*
X73760599Y-86615253D01*
X73740893Y-86629868D01*
X73719850Y-86642480D01*
X73697671Y-86652970D01*
X73674572Y-86661235D01*
X73650773Y-86667196D01*
X73626505Y-86670796D01*
X73602001Y-86672000D01*
X72701999Y-86672000D01*
X72677495Y-86670796D01*
X72653227Y-86667196D01*
X72629428Y-86661235D01*
X72606329Y-86652970D01*
X72584150Y-86642480D01*
X72563107Y-86629868D01*
X72543401Y-86615253D01*
X72525223Y-86598777D01*
X72508747Y-86580599D01*
X72494132Y-86560893D01*
X72481520Y-86539850D01*
X72471030Y-86517671D01*
X72462765Y-86494572D01*
X72456804Y-86470773D01*
X72453204Y-86446505D01*
X72452000Y-86422001D01*
X72452000Y-85771999D01*
X72453204Y-85747495D01*
X72456804Y-85723227D01*
X72462765Y-85699428D01*
X72471030Y-85676329D01*
X72481520Y-85654150D01*
X72494132Y-85633107D01*
X72508747Y-85613401D01*
X72525223Y-85595223D01*
X72543401Y-85578747D01*
X72563107Y-85564132D01*
X72584150Y-85551520D01*
X72606329Y-85541030D01*
X72629428Y-85532765D01*
X72653227Y-85526804D01*
X72677495Y-85523204D01*
X72701999Y-85522000D01*
X73602001Y-85522000D01*
X73626505Y-85523204D01*
X73626505Y-85523204D01*
G37*
D18*
G04 #@! TD*
G04 #@! TO.P,C_BP2,2*
G04 #@! TO.N,/GND*
X73152000Y-86097000D03*
D29*
G04 #@! TO.N,-9V*
X90551000Y-145415000D03*
X90551000Y-144145000D03*
X90551000Y-142875000D03*
X90551000Y-141605000D03*
X90551000Y-140335000D03*
X90551000Y-139065000D03*
X90551000Y-137795000D03*
X91821000Y-137795000D03*
X91821000Y-139065000D03*
X91821000Y-140335000D03*
X91821000Y-141605000D03*
X91821000Y-142875000D03*
X91821000Y-144145000D03*
X91821000Y-145415000D03*
X93091000Y-145415000D03*
X93091000Y-139065000D03*
X94361000Y-139065000D03*
X94361000Y-137795000D03*
X93091000Y-137795000D03*
X94361000Y-145415000D03*
G04 #@! TO.N,/3PDT_8_EXT*
X66040000Y-109728000D03*
G04 #@! TO.N,+5V*
X87249000Y-137795000D03*
X87249000Y-139065000D03*
X87249000Y-140335000D03*
X87249000Y-142875000D03*
X87249000Y-145415000D03*
X85979000Y-145415000D03*
X85979000Y-142875000D03*
X85979000Y-140335000D03*
X85979000Y-139065000D03*
X85979000Y-137795000D03*
X84709000Y-137795000D03*
X83439000Y-137795000D03*
X84709000Y-145415000D03*
X83439000Y-145415000D03*
X87249000Y-144145000D03*
X85979000Y-144145000D03*
G04 #@! TO.N,Net-(C_OSC1-Pad1)*
X64008000Y-89408000D03*
X66040000Y-90678000D03*
X69468999Y-90042999D03*
G04 #@! TO.N,Net-(P_VOL1-Pad1)*
X80264000Y-105156000D03*
G04 #@! TO.N,Net-(R_LPF1-Pad2)*
X80645000Y-76835000D03*
G04 #@! TO.N,Net-(C_LPFOPT1-Pad1)*
X76707996Y-76708000D03*
G04 #@! TO.N,/GND*
X63500000Y-139446000D03*
X61468000Y-139446000D03*
X62230000Y-86995000D03*
X85725000Y-74930000D03*
X75565000Y-74930000D03*
X104648000Y-135382000D03*
X68834000Y-141986000D03*
X55617000Y-138675000D03*
X70993000Y-95377000D03*
X71628000Y-86106000D03*
X77724000Y-101219000D03*
X98050000Y-88652000D03*
X85366000Y-92942000D03*
X72389996Y-135635996D03*
X81534000Y-119380000D03*
G04 #@! TO.N,Net-(C_BP1-Pad1)*
X66040000Y-102108000D03*
G04 #@! TO.N,Net-(C_LPFOPT2-Pad1)*
X84455000Y-76835000D03*
G04 #@! TD*
D30*
G04 #@! TO.N,-9V*
X93980000Y-141986000D02*
X93941500Y-141947500D01*
X93941500Y-141947500D02*
X93941500Y-141859000D01*
X65184000Y-144200000D02*
X65256000Y-144272000D01*
D31*
X65184000Y-140716000D02*
X65184000Y-144200000D01*
D30*
X94615000Y-141859000D02*
X93941500Y-141859000D01*
D31*
X97409000Y-141859000D02*
X100241500Y-141859000D01*
X97282000Y-141986000D02*
X97409000Y-141859000D01*
X97282000Y-146812000D02*
X97282000Y-141224000D01*
X75692000Y-146812000D02*
X97282000Y-146812000D01*
X69596000Y-140716000D02*
X75692000Y-146812000D01*
X65184000Y-140716000D02*
X69596000Y-140716000D01*
G04 #@! TO.N,/3PDT_8_EXT*
X65640001Y-110127999D02*
X66040000Y-109728000D01*
X62992000Y-112776000D02*
X65640001Y-110127999D01*
X81915000Y-131953000D02*
X80772000Y-133096000D01*
X71628000Y-133096000D02*
X71628000Y-128778000D01*
X62992000Y-120142000D02*
X62992000Y-112776000D01*
X71628000Y-128778000D02*
X62992000Y-120142000D01*
X80772000Y-133096000D02*
X71628000Y-133096000D01*
D30*
G04 #@! TO.N,+5V*
X76932500Y-140852000D02*
X77431500Y-141351000D01*
X83952500Y-141572000D02*
X83731500Y-141351000D01*
X83731500Y-142913500D02*
X83820000Y-143002000D01*
X83731500Y-141351000D02*
X83731500Y-142913500D01*
D31*
X85382500Y-143002000D02*
X83731500Y-141351000D01*
X84455000Y-135255000D02*
X84455000Y-132842000D01*
X88900000Y-141732000D02*
X85382500Y-141732000D01*
X84582000Y-135636000D02*
X88900000Y-135636000D01*
X88900000Y-135636000D02*
X88900000Y-141732000D01*
X84328000Y-135382000D02*
X84582000Y-135636000D01*
X76674000Y-107536000D02*
X77724000Y-107536000D01*
X75752000Y-108458000D02*
X76674000Y-107536000D01*
X54864000Y-113919000D02*
X54864000Y-108458000D01*
X70358000Y-134112000D02*
X70358000Y-129413000D01*
X54864000Y-108458000D02*
X75752000Y-108458000D01*
X70358000Y-129413000D02*
X54864000Y-113919000D01*
X84328000Y-134112000D02*
X70358000Y-134112000D01*
X84455000Y-133985000D02*
X84328000Y-134112000D01*
X84455000Y-132842000D02*
X84455000Y-133985000D01*
X84455000Y-131191000D02*
X84582000Y-131064000D01*
X84455000Y-132842000D02*
X84455000Y-131191000D01*
D30*
X77724000Y-107536000D02*
X77724000Y-104648000D01*
G04 #@! TO.N,-5V*
X100481500Y-139319000D02*
X100241500Y-139559000D01*
D31*
X96520000Y-118110000D02*
X97790000Y-119380000D01*
X97790000Y-119380000D02*
X97790000Y-124188000D01*
X92955000Y-133858000D02*
X92955000Y-129023000D01*
X92955000Y-129023000D02*
X93708000Y-128270000D01*
X97790000Y-124188000D02*
X93708000Y-128270000D01*
X81534000Y-112936000D02*
X84234000Y-112936000D01*
X89408000Y-118110000D02*
X96520000Y-118110000D01*
X84234000Y-112936000D02*
X89408000Y-118110000D01*
X100330000Y-135890000D02*
X100330000Y-139446000D01*
X99695000Y-135255000D02*
X100330000Y-135890000D01*
X92955000Y-134865000D02*
X93345000Y-135255000D01*
X93345000Y-135255000D02*
X99695000Y-135255000D01*
X92955000Y-133858000D02*
X92955000Y-134865000D01*
D30*
X81534000Y-115688000D02*
X81534000Y-112936000D01*
G04 #@! TO.N,+9V*
X77417500Y-143637000D02*
X77431500Y-143651000D01*
D31*
X59784000Y-136906000D02*
X62484000Y-136906000D01*
X62484000Y-136906000D02*
X65184000Y-136906000D01*
X67310000Y-135509000D02*
X67310000Y-133604000D01*
X67310000Y-136906000D02*
X67310000Y-135509000D01*
X65184000Y-136906000D02*
X67310000Y-136906000D01*
D30*
X57667000Y-136906000D02*
X59784000Y-136906000D01*
D31*
X75579000Y-143510000D02*
X77431500Y-143510000D01*
X68834000Y-136906000D02*
X75438000Y-143510000D01*
X67310000Y-136906000D02*
X68834000Y-136906000D01*
D32*
G04 #@! TO.N,Net-(C_OSC1-Pad1)*
X59699000Y-89408000D02*
X62324000Y-89408000D01*
X62324000Y-89408000D02*
X64008000Y-89408000D01*
X67724000Y-90678000D02*
X66040000Y-90678000D01*
D30*
X69468999Y-90208001D02*
X69468999Y-90042999D01*
X68999000Y-90678000D02*
X69468999Y-90208001D01*
X67724000Y-90678000D02*
X68999000Y-90678000D01*
G04 #@! TO.N,/3PDT_2_EXT*
X90868500Y-123888500D02*
X90868500Y-123825000D01*
X85471000Y-123825000D02*
X84455000Y-124841000D01*
X90868500Y-123825000D02*
X85471000Y-123825000D01*
X84455000Y-124841000D02*
X84455000Y-128651000D01*
G04 #@! TO.N,/3PDT_3_EXT*
X80264000Y-122174000D02*
X81915000Y-123825000D01*
X80264000Y-112936000D02*
X80264000Y-122174000D01*
X81915000Y-123825000D02*
X81915000Y-128651000D01*
G04 #@! TO.N,/3PDT_5_EXT*
X70421500Y-114617500D02*
X70421500Y-112395000D01*
X70421500Y-114871500D02*
X70421500Y-114617500D01*
X76835000Y-121285000D02*
X70421500Y-114871500D01*
X76708000Y-129032000D02*
X76835000Y-128905000D01*
X76835000Y-128651000D02*
X76835000Y-121285000D01*
G04 #@! TO.N,/3PDT_6_EXT*
X97710000Y-97790000D02*
X97790000Y-97710000D01*
X76454000Y-131572000D02*
X76835000Y-131191000D01*
X78994000Y-107536000D02*
X78994000Y-109474000D01*
X78994000Y-109728000D02*
X78994000Y-109474000D01*
X97536000Y-97964000D02*
X97710000Y-97790000D01*
X97536000Y-100076000D02*
X97536000Y-97964000D01*
X96520000Y-101092000D02*
X97536000Y-100076000D01*
X96520000Y-105664000D02*
X96520000Y-101092000D01*
X92456000Y-109728000D02*
X96520000Y-105664000D01*
X78994000Y-109728000D02*
X92456000Y-109728000D01*
X73660000Y-129794000D02*
X75057000Y-131191000D01*
X73660000Y-123190000D02*
X73660000Y-129794000D01*
X70358000Y-119888000D02*
X73660000Y-123190000D01*
X64770000Y-117348000D02*
X67310000Y-119888000D01*
X64770000Y-113030000D02*
X64770000Y-117348000D01*
X68072000Y-109728000D02*
X64770000Y-113030000D01*
X67310000Y-119888000D02*
X70358000Y-119888000D01*
X75057000Y-131191000D02*
X76835000Y-131191000D01*
X78994000Y-109728000D02*
X68072000Y-109728000D01*
G04 #@! TO.N,Net-(P_DEPTH1-Pad2)*
X95290000Y-85638000D02*
X95290000Y-83820000D01*
X89916000Y-101092000D02*
X89916000Y-96774000D01*
X100584000Y-86614000D02*
X99822000Y-85852000D01*
X95504000Y-85852000D02*
X95290000Y-85638000D01*
X100584000Y-94742000D02*
X100584000Y-86614000D01*
X99822000Y-95504000D02*
X100584000Y-94742000D01*
X91186000Y-95504000D02*
X99822000Y-95504000D01*
X86360000Y-104648000D02*
X89916000Y-101092000D01*
X89916000Y-96774000D02*
X91186000Y-95504000D01*
X99822000Y-85852000D02*
X95504000Y-85852000D01*
X81534000Y-107536000D02*
X86139000Y-107536000D01*
X86360000Y-107315000D02*
X86360000Y-104648000D01*
X86139000Y-107536000D02*
X86360000Y-107315000D01*
G04 #@! TO.N,Net-(P_DEPTH1-Pad1)*
X77724000Y-112936000D02*
X78994000Y-112936000D01*
X104775000Y-107315000D02*
X104775000Y-86995000D01*
X104775000Y-86995000D02*
X101600000Y-83820000D01*
X102870000Y-109220000D02*
X104775000Y-107315000D01*
X89530000Y-114935000D02*
X93980000Y-114935000D01*
X101600000Y-83820000D02*
X97790000Y-83820000D01*
X99695000Y-109220000D02*
X102870000Y-109220000D01*
X93980000Y-114935000D02*
X99695000Y-109220000D01*
X86040000Y-111445000D02*
X89530000Y-114935000D01*
X78994000Y-111506000D02*
X79055000Y-111445000D01*
X79055000Y-111445000D02*
X86040000Y-111445000D01*
X78994000Y-112936000D02*
X78994000Y-111506000D01*
G04 #@! TO.N,Net-(P_VOL1-Pad1)*
X93980000Y-97790000D02*
X95210000Y-97790000D01*
X92710000Y-97790000D02*
X93980000Y-97790000D01*
X92456000Y-98044000D02*
X92710000Y-97790000D01*
X80264000Y-107536000D02*
X80264000Y-106261000D01*
X80264000Y-106261000D02*
X80264000Y-105156000D01*
X95210000Y-99062792D02*
X95210000Y-97790000D01*
X95210000Y-104942000D02*
X95210000Y-99062792D01*
X91186000Y-108966000D02*
X95210000Y-104942000D01*
X80264000Y-108966000D02*
X91186000Y-108966000D01*
X80264000Y-107536000D02*
X80264000Y-108966000D01*
G04 #@! TO.N,Net-(R1-Pad1)*
X77182500Y-138802000D02*
X77431500Y-139051000D01*
D31*
X77327500Y-138947000D02*
X77431500Y-139051000D01*
X76708000Y-135636000D02*
X77266000Y-135636000D01*
X76005800Y-135636000D02*
X76555600Y-135636000D01*
X77431500Y-135636000D02*
X82804000Y-135636000D01*
X77431500Y-139051000D02*
X77431500Y-135636000D01*
D30*
G04 #@! TO.N,Net-(R3-Pad1)*
X100481500Y-144399000D02*
X100241500Y-144159000D01*
D31*
X101991500Y-144018000D02*
X102616000Y-143393500D01*
X100104000Y-144018000D02*
X101854000Y-144018000D01*
X102480000Y-133858000D02*
X102607000Y-133985000D01*
X100085000Y-133858000D02*
X102480000Y-133858000D01*
X102616000Y-143256000D02*
X102616000Y-134112000D01*
G04 #@! TO.N,Net-(R4-Pad1)*
X95005000Y-133858000D02*
X98035000Y-133858000D01*
D32*
G04 #@! TO.N,Net-(R_LPF1-Pad2)*
X61849000Y-90678000D02*
X62324000Y-90678000D01*
X61299000Y-91228000D02*
X61849000Y-90678000D01*
X71570998Y-80010000D02*
X60706000Y-80010000D01*
X60706000Y-80010000D02*
X56134000Y-84582000D01*
X56684000Y-91228000D02*
X61299000Y-91228000D01*
X56134000Y-84582000D02*
X56134000Y-90678000D01*
X56134000Y-90678000D02*
X56684000Y-91228000D01*
X80645000Y-76835000D02*
X79538999Y-75728999D01*
X75851999Y-75728999D02*
X71570998Y-80010000D01*
X79538999Y-75728999D02*
X75851999Y-75728999D01*
G04 #@! TO.N,Net-(C_LPFOPT1-Pad1)*
X79502000Y-97536000D02*
X76707996Y-94741996D01*
X76707996Y-94741996D02*
X76707996Y-77273685D01*
X76707996Y-77273685D02*
X76707996Y-76708000D01*
D30*
G04 #@! TO.N,Net-(CP_INV1-Pad2)*
X59839000Y-140771000D02*
X59784000Y-140716000D01*
X59839000Y-144526000D02*
X59839000Y-140771000D01*
G04 #@! TO.N,Net-(CP_INV1-Pad1)*
X58039000Y-138176000D02*
X59784000Y-138176000D01*
X56239000Y-144526000D02*
X56239000Y-139976000D01*
X56239000Y-139976000D02*
X58039000Y-138176000D01*
G04 #@! TO.N,Net-(C_OSC2-Pad1)*
X70993000Y-91948000D02*
X67724000Y-91948000D01*
D32*
G04 #@! TO.N,/555PWMTremolo_3PDT/3PDT_8_INT*
X75247500Y-160045400D02*
X75539600Y-160045400D01*
G04 #@! TO.N,/555PWMTremolo_3PDT/3PDT_6_INT*
X80568800Y-155244800D02*
X80556100Y-155244800D01*
X83508011Y-158184011D02*
X80568800Y-155244800D01*
X83508011Y-166820011D02*
X83508011Y-158184011D01*
X84074000Y-167386000D02*
X83508011Y-166820011D01*
X95504000Y-165100000D02*
X93218000Y-167386000D01*
X93218000Y-167386000D02*
X84074000Y-167386000D01*
G04 #@! TO.N,/555PWMTremolo_3PDT/3PDT_5_INT*
X98044000Y-166302081D02*
X96452081Y-167894000D01*
X96452081Y-167894000D02*
X83820000Y-167894000D01*
X98044000Y-165100000D02*
X98044000Y-166302081D01*
X83820000Y-167894000D02*
X83058000Y-167132000D01*
X80556100Y-160058100D02*
X80556100Y-160045400D01*
X83058000Y-167132000D02*
X83058000Y-162560000D01*
X83058000Y-162560000D02*
X80556100Y-160058100D01*
G04 #@! TO.N,/555PWMTremolo_3PDT/3PDT_4_INT*
X80563720Y-166588380D02*
X82631340Y-168656000D01*
X80563720Y-164838380D02*
X80563720Y-166588380D01*
X82631340Y-168656000D02*
X99568000Y-168656000D01*
X99568000Y-168656000D02*
X101600000Y-166624000D01*
X101600000Y-166624000D02*
X101600000Y-164084000D01*
X100076000Y-162560000D02*
X98044000Y-162560000D01*
X101600000Y-164084000D02*
X100076000Y-162560000D01*
G04 #@! TO.N,/555PWMTremolo_3PDT/3PDT_3_INT*
X87864700Y-155244800D02*
X92233500Y-150876000D01*
X85864700Y-155244800D02*
X87864700Y-155244800D01*
X92233500Y-150876000D02*
X99822000Y-150876000D01*
X99822000Y-150876000D02*
X101854000Y-152908000D01*
X101854000Y-152908000D02*
X101854000Y-158496000D01*
X100330000Y-160020000D02*
X98044000Y-160020000D01*
X101854000Y-158496000D02*
X100330000Y-160020000D01*
G04 #@! TO.N,/555PWMTremolo_3PDT/3PDT_2_INT*
X85852000Y-159512000D02*
X85852000Y-160045400D01*
X99314000Y-157480000D02*
X100584000Y-156210000D01*
X98044000Y-157480000D02*
X99314000Y-157480000D01*
X100584000Y-156210000D02*
X100584000Y-153670000D01*
X100584000Y-153670000D02*
X99060000Y-152146000D01*
X99060000Y-152146000D02*
X93218000Y-152146000D01*
X93218000Y-152146000D02*
X85852000Y-159512000D01*
G04 #@! TO.N,/555PWMTremolo_3PDT/3PDT_1_INT*
X87836760Y-164851080D02*
X92710000Y-159977840D01*
X85836760Y-164851080D02*
X87836760Y-164851080D01*
X92710000Y-159977840D02*
X92710000Y-154432000D01*
X92710000Y-154432000D02*
X94234000Y-152908000D01*
X94234000Y-152908000D02*
X97282000Y-152908000D01*
X98044000Y-153670000D02*
X98044000Y-154940000D01*
X97282000Y-152908000D02*
X98044000Y-153670000D01*
D30*
G04 #@! TO.N,/555PWMTremolo_Clock/CLK_OUT*
X92790000Y-83820000D02*
X92710000Y-83820000D01*
D32*
X86995000Y-83820000D02*
X92790000Y-83820000D01*
X86995000Y-76200000D02*
X86995000Y-83820000D01*
X83795000Y-73660000D02*
X86995000Y-73660000D01*
X86995000Y-73660000D02*
X86995000Y-76200000D01*
D30*
G04 #@! TO.N,Net-(P_OSCOFF1-Pad1)*
X63500000Y-97790000D02*
X66000000Y-97790000D01*
D31*
X66049000Y-97741000D02*
X66000000Y-97790000D01*
X66049000Y-94742000D02*
X66049000Y-97741000D01*
D32*
G04 #@! TO.N,Net-(P_OSCOFF1-Pad3)*
X65024000Y-89408000D02*
X67724000Y-89408000D01*
X65024000Y-87122000D02*
X63580000Y-85678000D01*
X63580000Y-85678000D02*
X63580000Y-83820000D01*
X65913000Y-93218000D02*
X65024000Y-92329000D01*
X68500000Y-97790000D02*
X68500000Y-93646000D01*
X65024000Y-92329000D02*
X65024000Y-87122000D01*
X68072000Y-93218000D02*
X65913000Y-93218000D01*
X68500000Y-93646000D02*
X68072000Y-93218000D01*
D30*
G04 #@! TO.N,Net-(P_OSCON1-Pad1)*
X66080000Y-83820000D02*
X68580000Y-83820000D01*
X66040000Y-83780000D02*
X66080000Y-83820000D01*
D32*
X57649000Y-88608000D02*
X57912000Y-88345000D01*
D30*
X57649000Y-89408000D02*
X57649000Y-88608000D01*
D32*
X57912000Y-88345000D02*
X57912000Y-85344000D01*
X57912000Y-85344000D02*
X61976000Y-81280000D01*
X61976000Y-81280000D02*
X65024000Y-81280000D01*
X66040000Y-82296000D02*
X66040000Y-83780000D01*
X65024000Y-81280000D02*
X66040000Y-82296000D01*
D30*
G04 #@! TO.N,/GND*
X65184000Y-139446000D02*
X63500000Y-139446000D01*
X59784000Y-139446000D02*
X61059000Y-139446000D01*
X61059000Y-139446000D02*
X61468000Y-139446000D01*
X62324000Y-88138000D02*
X62324000Y-87089000D01*
X62324000Y-87089000D02*
X62230000Y-86995000D01*
D32*
X83820000Y-74930000D02*
X85725000Y-74930000D01*
X76130685Y-74930000D02*
X75565000Y-74930000D01*
X77470000Y-74930000D02*
X76130685Y-74930000D01*
D30*
X104648000Y-134112000D02*
X104648000Y-135382000D01*
X104521000Y-133985000D02*
X104648000Y-134112000D01*
X68834000Y-142551685D02*
X68834000Y-141986000D01*
X68856000Y-144526000D02*
X68834000Y-144504000D01*
X68834000Y-144504000D02*
X68834000Y-142551685D01*
X55617000Y-136906000D02*
X55617000Y-138675000D01*
X70993000Y-93989000D02*
X70993000Y-94664000D01*
X70993000Y-94664000D02*
X70993000Y-95377000D01*
X77724000Y-102480000D02*
X77724000Y-101219000D01*
D32*
X98050000Y-90678000D02*
X98050000Y-88652000D01*
X85366000Y-91440000D02*
X85366000Y-92942000D01*
D30*
X73905000Y-135382000D02*
X73651004Y-135635996D01*
X73651004Y-135635996D02*
X72955681Y-135635996D01*
X72955681Y-135635996D02*
X72389996Y-135635996D01*
X81534000Y-117738000D02*
X81534000Y-119380000D01*
X70104000Y-86097000D02*
X73152000Y-86097000D01*
D31*
G04 #@! TO.N,Net-(C_BP1-Pad1)*
X59436000Y-93980000D02*
X59436000Y-98298000D01*
X59436000Y-98298000D02*
X61214000Y-100076000D01*
X61468000Y-91948000D02*
X59436000Y-93980000D01*
X62324000Y-91948000D02*
X61468000Y-91948000D01*
X61214000Y-100076000D02*
X66040000Y-100076000D01*
X66040000Y-100076000D02*
X66040000Y-102108000D01*
X62324000Y-93067000D02*
X63999000Y-94742000D01*
X62324000Y-91948000D02*
X62324000Y-93067000D01*
X67827000Y-88147000D02*
X67818000Y-88138000D01*
X73152000Y-88147000D02*
X67827000Y-88147000D01*
X73406000Y-88138000D02*
X75302000Y-88138000D01*
X75311000Y-88265000D02*
X75184000Y-88138000D01*
X75311000Y-95123000D02*
X75311000Y-88265000D01*
X70358000Y-100076000D02*
X75311000Y-95123000D01*
X66040000Y-100076000D02*
X70358000Y-100076000D01*
D32*
G04 #@! TO.N,Net-(C_LPFOPT2-Pad1)*
X84455000Y-76835000D02*
X82550000Y-76835000D01*
X82550000Y-76835000D02*
X79375000Y-73660000D01*
X79375000Y-73660000D02*
X77495000Y-73660000D01*
X84455000Y-79629000D02*
X80645000Y-83439000D01*
X80645000Y-83439000D02*
X80645000Y-85344000D01*
X84455000Y-76835000D02*
X84455000Y-79629000D01*
X86614000Y-97536000D02*
X82042000Y-97536000D01*
X87376000Y-96774000D02*
X86614000Y-97536000D01*
X87376000Y-87630000D02*
X87376000Y-96774000D01*
X81026000Y-87630000D02*
X87376000Y-87630000D01*
X80645000Y-87249000D02*
X81026000Y-87630000D01*
X80645000Y-85344000D02*
X80645000Y-87249000D01*
G04 #@! TO.N,Net-(CP_FAST1-Pad1)*
X78486000Y-85725000D02*
X78105000Y-85344000D01*
X81766000Y-90136000D02*
X78105000Y-86475000D01*
X78105000Y-86475000D02*
X78105000Y-85344000D01*
X81766000Y-91186000D02*
X81766000Y-90136000D01*
G04 #@! TO.N,Net-(CP_SLOW1-Pad1)*
X83185000Y-85344000D02*
X85090000Y-85344000D01*
X88166000Y-85344000D02*
X85090000Y-85344000D01*
X92450000Y-89628000D02*
X88166000Y-85344000D01*
X92450000Y-90678000D02*
X92450000Y-89628000D01*
G04 #@! TD*
D33*
G04 #@! TO.N,+5V*
G36*
X87757000Y-145802000D02*
X79121000Y-145802000D01*
X79121000Y-144780000D01*
X79111333Y-144731399D01*
X79083803Y-144690197D01*
X79042601Y-144662667D01*
X79022976Y-144658764D01*
X79029657Y-144648765D01*
X79078940Y-144401000D01*
X79078940Y-142901000D01*
X79029657Y-142653235D01*
X78889309Y-142443191D01*
X78679265Y-142302843D01*
X78431500Y-142253560D01*
X76431500Y-142253560D01*
X76327000Y-142274346D01*
X76327000Y-140427654D01*
X76431500Y-140448440D01*
X78431500Y-140448440D01*
X78679265Y-140399157D01*
X78889309Y-140258809D01*
X79029657Y-140048765D01*
X79078940Y-139801000D01*
X79078940Y-138301000D01*
X79029657Y-138053235D01*
X79022976Y-138043236D01*
X79042601Y-138039333D01*
X79083803Y-138011803D01*
X79111333Y-137970601D01*
X79121000Y-137922000D01*
X79121000Y-137287000D01*
X87757000Y-137287000D01*
X87757000Y-145802000D01*
X87757000Y-145802000D01*
G37*
X87757000Y-145802000D02*
X79121000Y-145802000D01*
X79121000Y-144780000D01*
X79111333Y-144731399D01*
X79083803Y-144690197D01*
X79042601Y-144662667D01*
X79022976Y-144658764D01*
X79029657Y-144648765D01*
X79078940Y-144401000D01*
X79078940Y-142901000D01*
X79029657Y-142653235D01*
X78889309Y-142443191D01*
X78679265Y-142302843D01*
X78431500Y-142253560D01*
X76431500Y-142253560D01*
X76327000Y-142274346D01*
X76327000Y-140427654D01*
X76431500Y-140448440D01*
X78431500Y-140448440D01*
X78679265Y-140399157D01*
X78889309Y-140258809D01*
X79029657Y-140048765D01*
X79078940Y-139801000D01*
X79078940Y-138301000D01*
X79029657Y-138053235D01*
X79022976Y-138043236D01*
X79042601Y-138039333D01*
X79083803Y-138011803D01*
X79111333Y-137970601D01*
X79121000Y-137922000D01*
X79121000Y-137287000D01*
X87757000Y-137287000D01*
X87757000Y-145802000D01*
G04 #@! TO.N,-9V*
G36*
X98679000Y-138430000D02*
X98688667Y-138478601D01*
X98693612Y-138486002D01*
X98643343Y-138561235D01*
X98594060Y-138809000D01*
X98594060Y-140309000D01*
X98643343Y-140556765D01*
X98783691Y-140766809D01*
X98993735Y-140907157D01*
X99241500Y-140956440D01*
X101241500Y-140956440D01*
X101473000Y-140910392D01*
X101473000Y-142807608D01*
X101241500Y-142761560D01*
X99241500Y-142761560D01*
X98993735Y-142810843D01*
X98783691Y-142951191D01*
X98643343Y-143161235D01*
X98594060Y-143409000D01*
X98594060Y-144909000D01*
X98643343Y-145156765D01*
X98783691Y-145366809D01*
X98993735Y-145507157D01*
X99241500Y-145556440D01*
X100133046Y-145556440D01*
X98788992Y-145923000D01*
X90043000Y-145923000D01*
X90043000Y-137287000D01*
X98679000Y-137287000D01*
X98679000Y-138430000D01*
X98679000Y-138430000D01*
G37*
X98679000Y-138430000D02*
X98688667Y-138478601D01*
X98693612Y-138486002D01*
X98643343Y-138561235D01*
X98594060Y-138809000D01*
X98594060Y-140309000D01*
X98643343Y-140556765D01*
X98783691Y-140766809D01*
X98993735Y-140907157D01*
X99241500Y-140956440D01*
X101241500Y-140956440D01*
X101473000Y-140910392D01*
X101473000Y-142807608D01*
X101241500Y-142761560D01*
X99241500Y-142761560D01*
X98993735Y-142810843D01*
X98783691Y-142951191D01*
X98643343Y-143161235D01*
X98594060Y-143409000D01*
X98594060Y-144909000D01*
X98643343Y-145156765D01*
X98783691Y-145366809D01*
X98993735Y-145507157D01*
X99241500Y-145556440D01*
X100133046Y-145556440D01*
X98788992Y-145923000D01*
X90043000Y-145923000D01*
X90043000Y-137287000D01*
X98679000Y-137287000D01*
X98679000Y-138430000D01*
G04 #@! TD*
M02*
